<svg id="Layer_1" data-name="Layer 1" xmlns="http://www.w3.org/2000/svg" viewBox="0 0 501.8 294.86"><defs><style>.cls-1{fill:none}.cls-2{fill:#ffc107}</style></defs><title>Untitled-2</title><path class="cls-1" d="M498.25 294.87l-153.29-1.86L348.46 0 501.8 1.86zM432.1 81.09a47.94 47.94 0 0 0-1.17 6.29c-.5 2.71-.93 5.48-1.26 8.25-.52 4.45-.92 8.89-1.38 13.34a38.12 38.12 0 0 0-.11 4.45 84.35 84.35 0 0 1-1.77 17c-1 4.61-2.14 9.22-3.17 13.84a35.91 35.91 0 0 0-.13 15.49c.44 2.2 1 4.41 1.31 6.66.48 3.71-1 6.93-2.49 10.14-2.14 4.77-4.51 9.48-6.36 14.38a41.21 41.21 0 0 0-1.9 8.88 97.25 97.25 0 0 0-1.06 10.86 31.81 31.81 0 0 0 2.79 13.25 12.7 12.7 0 0 1 .7 4.23c.1 1.56.83 2.84 2 2.91s2.68-1.47 2.81-3c.33-3.41-.85-6.54-2-9.62a23.82 23.82 0 0 1-1.3-11.58 79.27 79.27 0 0 1 3.49-16.43 37.89 37.89 0 0 1 3.5-7.42 35.09 35.09 0 0 0 5.33-14.85c.39-3.46-.85-6.49-1.73-9.62a27.54 27.54 0 0 1-.29-13.88c1.41-6.23 3-12.39 4.45-18.62a26.21 26.21 0 0 0 .57-4.27c.32-6.93.4-13.93 1-20.86.28-3.64 1.53-7.15 2.44-10.67.73-2.65 1.57-5.24 2.41-7.83a1.68 1.68 0 0 1 1.87-1.25c2.31 0 4.57-.18 7.17-.32a37.65 37.65 0 0 1-.86 4.5c-1 3.05-1 6.17-1 9.3-.14 6.7-.8 13.34-3.71 19.55-1.6 3.45-3.32 6.9-4.58 10.47a97 97 0 0 0-3 10.66 67.94 67.94 0 0 0-1.47 16.75c.07 3.35.67 6.66.69 10a31.93 31.93 0 0 1-1 7.33c-1.34 5.36-3 10.6-4.3 16a26.06 26.06 0 0 0-.6 11.38c.49 2.84-.36 5.83-1.49 8.6a33.11 33.11 0 0 0-2.61 10.26c-.22 3.81 1.24 7.3 2.35 10.84 1.34 4.24 3.43 8.14 4.13 12.6.32 2.49-.4 4.74-.66 7-.26 2.54-.47 5.08-.55 7.62 0 1.68 1.25 2.21 2.81 1.6 1.92-.79 2.57-2.45 2.83-4.19.44-2.65.59-5.43.79-8.08.4-4.39-.71-8.51-2.33-12.57-2-4.76-3.87-9.59-3.58-14.79.15-2.6 1.28-5.19 1.83-7.78a57.12 57.12 0 0 0 1.37-8.25 109.19 109.19 0 0 0-.15-11.51c-.19-3.18.88-5.94 2.19-8.76 1.66-3.68 3.44-7.24 5-11 1.43-3.57 1.19-7.33.77-11.09-.53-4.34-1.45-8.75-1.34-13.08.15-7.63 1.51-15.07 5.3-22 2.36-4.31 4.67-8.73 5.48-13.69a67.41 67.41 0 0 0 .89-6.75c.22-4.16-.07-8.33.27-12.48.2-2.43 1.16-4.78 1.82-7.15a1.66 1.66 0 0 1 1.92-1.19c4.22 0 4.39 0 4.75 4 .56 6.48.77 13-1.73 19.11-1.73 4.43-3.63 8.8-5.36 13.29-1.55 4-3 8.06-4.37 12.2a97.55 97.55 0 0 0-3.27 12 33.69 33.69 0 0 0 .13 8c.14 2.43.69 4.81.78 7.24.12 4.45.64 9-.45 13.41-1.46 5.82-3.09 11.58-4.6 17.4-1.64 6.22-3.56 12.5-4.91 18.79-.73 3.29.09 6.65 1.33 9.9 1.68 4.41 3.36 8.83 4.69 13.35a81.2 81.2 0 0 1 2.41 11.13c.69 5.38 1.14 10.82-.66 16.12-1 3.11-2.21 6.22-3.06 9.39a61.47 61.47 0 0 0-1.54 8 80.56 80.56 0 0 0-.74 8.37 32 32 0 0 0 .57 5.21 3.35 3.35 0 0 0 3.27 2.35 2.91 2.91 0 0 0 2.35-2.86 32.81 32.81 0 0 0-.52-4.86 27.74 27.74 0 0 1 1-13.75c1.44-4.55 3.06-9 4.56-13.59a18.17 18.17 0 0 0 .8-3.92 47.14 47.14 0 0 0-1.26-15.34c-1.38-5.51-3-11-4.72-16.3a44.2 44.2 0 0 1-2.58-16.45 52.74 52.74 0 0 1 3.61-16.55c2.21-5.7 4.47-11.45 5.18-17.57.51-4 .1-8.09 0-12.14-.06-4.57-.64-9.14-.35-13.65.36-6 2.39-11.48 4.43-17 2.57-6.91 5.43-13.75 7.77-20.78 1.26-3.86 1.77-8 2.57-11.94.8-3.75 0-7.52-.44-11.28a10.51 10.51 0 0 1 0-1.91l6.48-.38c-.31 2.08-.57 3.81-.82 5.6a76.65 76.65 0 0 0-.26 12.08c.06 4.51 1.75 8.64 2.39 12.92.32 2.43-.46 5-.73 7.45-.64 5-3.69 8.74-6.74 12.46-3.23 3.89-4.73 8.56-6.12 13.34s-1.45 9.93-1.34 14.9a60.46 60.46 0 0 0 1.16 9 14.19 14.19 0 0 1-1.08 8.2c-1.61 4-3.39 7.88-4.88 11.85a91.68 91.68 0 0 0-3 9.56 19.79 19.79 0 0 0 .73 11.57c2.35 6.73 5.1 13.3 5.94 20.42a5.09 5.09 0 0 0 .28.87c.39 1.45 1.24 2.33 2.81 2.12a2.31 2.31 0 0 0 1.88-2.81 93.27 93.27 0 0 0-1.79-9.91c-1.21-5-2.94-10-4-15-.55-2.55-.17-5.38 0-8 .48-6.12 4.12-11.17 5.93-16.81a34 34 0 0 0 1.34-5.82c.27-3.58.49-7.1.42-10.69 0-3.24-.73-6.43-.69-9.61a24.85 24.85 0 0 1 1.3-7.15 80.76 80.76 0 0 1 4.06-11c1.19-2.47 3.18-4.53 4.65-6.94a60 60 0 0 0 4.44-8.27 17.3 17.3 0 0 0 0-11.33 63.58 63.58 0 0 1-2.72-18.65 88.38 88.38 0 0 1 1-9.58 1.43 1.43 0 0 1 .82-.92 26.58 26.58 0 0 1 3.7-.24 1.39 1.39 0 0 1 .8 1.05c-.17 6.33 1.69 12.03 2.77 18 .76 4.4 1.57 8.86 2 13.26a52 52 0 0 1-.42 10.81c-.57 3.75-1.65 7.44-2.56 11.13-2 8-5.91 15.25-9.06 22.78a76.65 76.65 0 0 0-3.68 12.27 75.59 75.59 0 0 0-1.39 9.52c-.52 4.85-.81 9.76-1.16 14.67a73.54 73.54 0 0 0-.33 8c.24 3.82.83 7.58 1.25 11.4.26 2.14.53 4.34.73 6.48.35 4.74.81 9.49 1 14.29.23 5.09.63 10.18-1.69 15a10.58 10.58 0 0 0-.68 3.81 2.15 2.15 0 0 0 1 1.75 2.67 2.67 0 0 0 2.31-.2 9.07 9.07 0 0 0 3.61-6.78c.28-3.75.5-7.57.43-11.33-.06-4.91-.4-9.89-.75-14.81s-.75-9.84-1.09-14.76c-.34-5.32-1-10.65-1-15.91a85.78 85.78 0 0 1 1.6-12.64c.68-3.92 1.31-8 2.34-11.82 1.21-4.49 2.77-8.81 4.21-13.25 2.52-7.83 5-15.61 7.45-23.5a28.49 28.49 0 0 0 .94-5.83c.2-2.19.34-4.45.37-6.7.07-5.55-.91-11-1.71-16.5a65.78 65.78 0 0 1-.69-9.61c0-3.18.42-6.3.75-9.47a2.26 2.26 0 0 1 1-1.49 6.88 6.88 0 0 0 3-5c.38-3.06.65-6.12.75-9.18.16-3.41.26-6.76.12-10.17a25.76 25.76 0 0 0-4.2-12.89c-3.8-5.71-7.61-11.42-11.3-17-2.9-4.31-6.08-8.51-10.5-11.34A50.86 50.86 0 0 0 455.64 9a60.22 60.22 0 0 0-10-2.61c-5.13-.87-10.11-1-15 1.78-5.24 2.94-9.22 7-13 11.52-4.22 5-6.14 10.85-7.38 17.08-.56 3.12-1.69 6-2.37 9.11s-1.06 6.29-1.62 9.46c-.62 3.4-1.53 6.8-1.86 10.21a31.66 31.66 0 0 0 .19 8.1c.32 2.2 2.45 3.21 4.23 4.16 1.21.59 1.32 1.17.9 2.32-1.61 4.37-3.34 8.75-4.61 13.24a44.72 44.72 0 0 0-1.14 18.14c.8 5.5 1.89 10.95 3 16.4a34 34 0 0 1-.79 17.51 31 31 0 0 1-3.56 7.82c-2.83 4.19-5.78 4.79-10.68 3.63a9.76 9.76 0 0 1-7.15-6c-1.58-3.55-3.09-7.15-4.61-10.75-1.69-3.89-4-7.28-7.93-9.06a18.22 18.22 0 0 0-9.52-1.33 21.76 21.76 0 0 0-9.64 3.47 2.22 2.22 0 0 0-1.25 2.76c.45 1.16 1.55 1.12 2.59.73 1.86-.73 3.83-1.4 5.69-2.19 6.33-2.76 10.47-.8 14.29 3.82a17.75 17.75 0 0 1 3.55 8 17.19 17.19 0 0 0 3.78 8 35.71 35.71 0 0 0 6.4 6.15c2.75 2 6.1 2.33 9.52 1.91a12.72 12.72 0 0 0 2.14-.26c4.07-1.57 7.45-4 9.12-8.21a88.09 88.09 0 0 0 4.23-16.99c1.24-6.81-.24-13.24-2.71-19.46-2.19-5.52-1.95-11.12-1.3-16.78a48 48 0 0 1 1.09-8.6c1-3.69 2.57-7.25 3.95-10.88a2.79 2.79 0 0 1 .82-1.15 1.3 1.3 0 0 1 2.25.78c.88 3.6 2 7.14 2.53 10.78.43 2.61.11 5.38.13 8a5 5 0 0 0-.07.92c.41 4.23-1 8-2.69 11.82-1.9 4.37-3.63 8.8-3.23 13.6.35 4.11 1.4 8.11 2.11 12.17.32 2.09.53 4.11.73 6.19.1 1.39.2 2.84.24 4.22.1 6.13-1.65 11.89-3.85 17.47s-4.7 10.92-6.63 16.53c-1.56 4.61-2.48 9.45-3.7 14.18-.91 3.4.73 6.66.75 10 0 6.07 2.86 11.65 3.31 17.61.35 4.51.06 9.08-2 13.27-1.07 2.24-2.19 4.42-3.32 6.61a14.06 14.06 0 0 0-.78 12.07 13.64 13.64 0 0 0 1.58 3.49 2 2 0 0 0 3.71-1 5.73 5.73 0 0 0-.37-2.55c-.95-2.84-.45-5.61.39-8.38 1.15-4 3.33-7.48 5-11.21s1.54-7.67.78-11.61c-1.42-6.84-2.9-13.62-3.86-20.51-.53-3.71 0-7.57 0-11.39.07-5.78 3.48-10.31 5.79-15.19a108.78 108.78 0 0 0 4.35-10.35c.9-2.42 1.68-4.84 2.4-7.31a15.38 15.38 0 0 0 .56-3.64 84.35 84.35 0 0 0 .06-9.36c-.3-3.53-1.07-7-1.61-10.54-.64-4.63-1.8-9.27-1.1-13.95a59.15 59.15 0 0 1 2.41-8.12c1.32-4.32 2.94-8.58 4-13 .49-2.25-.06-4.68 0-7.05.05-4.45-1.57-8.58-2.68-12.81-.28-1.1.36-1.27 1.17-1.2 2.72.15 5.49.36 8.67.51z"/><path class="cls-2" d="M432.1 81.09c-3.18-.21-6-.36-9-.57-.87-.07-1.45 0-1.17 1.2 1.11 4.18 2.73 8.3 2.68 12.81 0 2.37.58 4.86 0 7.05-1 4.38-2.65 8.64-4 13a59.15 59.15 0 0 0-2.41 8.12c-.69 4.67.41 9.31 1.1 13.95.54 3.53 1.3 7 1.61 10.54a84.35 84.35 0 0 1-.06 9.36 15.82 15.82 0 0 1-.56 3.64c-.72 2.48-1.5 4.9-2.4 7.31-1.37 3.45-2.74 7-4.35 10.35-2.37 4.94-5.72 9.41-5.79 15.19 0 3.82-.55 7.62 0 11.39 1 6.89 2.49 13.67 3.86 20.51.82 4 .89 7.93-.78 11.61s-3.85 7.24-5 11.21c-.79 2.77-1.28 5.53-.39 8.38a4.92 4.92 0 0 1 .37 2.55 2.89 2.89 0 0 1-1.41 1.89 2.74 2.74 0 0 1-2.3-.9 17.31 17.31 0 0 1-1.58-3.49 14.07 14.07 0 0 1 .78-12.07c1.07-2.18 2.25-4.37 3.32-6.61 2-4.2 2.3-8.76 2-13.27-.45-6-3.27-11.49-3.31-17.61 0-3.3-1.65-6.55-.75-10 1.21-4.73 2.14-9.57 3.7-14.18 1.92-5.58 4.41-10.93 6.62-16.45s3.9-11.34 3.85-17.47a34.5 34.5 0 0 0-.24-4.22c-.21-2.08-.41-4.17-.73-6.19-.7-4.06-1.75-8.06-2.11-12.17-.4-4.8 1.33-9.29 3.23-13.6 1.66-3.8 3.1-7.59 2.69-11.82 0-.29.07-.64.07-.92 0-2.66.3-5.43-.13-8-.53-3.59-1.65-7.19-2.53-10.78a1.3 1.3 0 0 0-2.25-.78 3.23 3.23 0 0 0-.82 1.15c-1.37 3.63-2.92 7.13-3.95 10.88a60.42 60.42 0 0 0-1.09 8.6c-.65 5.72-.89 11.26 1.3 16.78 2.41 6.22 4 12.65 2.71 19.46-1 5.71-2 11.42-4.19 16.89-1.67 4.26-5.05 6.64-9.12 8.21a12 12 0 0 1-2.14.26 13.34 13.34 0 0 1-9.52-1.91 35.71 35.71 0 0 1-6.4-6.15 17.19 17.19 0 0 1-3.78-8 17.19 17.19 0 0 0-3.55-8c-3.82-4.61-8-6.51-14.29-3.82-1.86.79-3.78 1.46-5.69 2.19-1 .39-2.09.5-2.59-.73s.2-2.08 1.25-2.76a21.76 21.76 0 0 1 9.64-3.47 18.91 18.91 0 0 1 9.52 1.33c3.91 1.78 6.24 5.16 7.93 9.06 1.52 3.54 3 7.15 4.61 10.75a10 10 0 0 0 7.15 6c4.84 1.16 7.8.56 10.68-3.63a31.92 31.92 0 0 0 3.56-7.82 34 34 0 0 0 .79-17.51c-1.09-5.45-2.24-10.9-3-16.4a43.67 43.67 0 0 1 1.14-18.14c1.27-4.49 3-8.81 4.61-13.24.42-1.15.31-1.73-.9-2.32-1.78-.95-3.91-2-4.23-4.16a34.52 34.52 0 0 1-.19-8.1c.39-3.41 1.24-6.81 1.86-10.21.56-3.17.94-6.35 1.62-9.46s1.75-6 2.37-9.11c1.23-6.23 3.21-12.1 7.38-17.08 3.75-4.52 7.74-8.58 13-11.52 4.95-2.71 9.86-2.66 15-1.78a64.85 64.85 0 0 1 10 2.61 50.86 50.86 0 0 1 10.41 4.58c4.36 2.77 7.55 7 10.5 11.34 3.75 5.69 7.56 11.4 11.15 17.1a24.51 24.51 0 0 1 4.3 12.89c.13 3.41 0 6.76-.12 10.17a69.48 69.48 0 0 1-.75 9.18 6.61 6.61 0 0 1-3 5 2.52 2.52 0 0 0-1 1.55 74.61 74.61 0 0 0-.75 9.47 59.17 59.17 0 0 0 .69 9.61c.74 5.44 1.72 10.95 1.71 16.5 0 2.2-.17 4.45-.37 6.7a32.32 32.32 0 0 1-.94 5.83c-2.41 7.83-4.93 15.66-7.45 23.5-1.44 4.43-3 8.75-4.21 13.25a115.65 115.65 0 0 0-2.34 11.82 85.78 85.78 0 0 0-1.6 12.64c-.06 5.32.56 10.64 1 15.91.35 4.92.81 9.78 1.09 14.76s.63 9.89.75 14.81c.07 3.76-.15 7.57-.43 11.33a9.16 9.16 0 0 1-3.61 6.78 2.91 2.91 0 0 1-2.31.2 2.31 2.31 0 0 1-1-1.75 9.14 9.14 0 0 1 .68-3.81c2.37-4.83 1.91-10 1.69-15-.23-4.74-.64-9.49-1-14.29-.2-2.2-.53-4.34-.73-6.48-.47-3.76-1.06-7.59-1.25-11.4a52.57 52.57 0 0 1 .33-8c.35-4.91.7-9.82 1.16-14.67a95.08 95.08 0 0 1 1.39-9.58 88.4 88.4 0 0 1 3.68-12.27c3.16-7.54 7-14.83 9.06-22.78a93.71 93.71 0 0 0 2.56-11.13 52 52 0 0 0 .42-10.81 117.09 117.09 0 0 0-1.8-13.32c-1-6-3-11.77-2.79-17.9a1.39 1.39 0 0 0-.8-1.05 20 20 0 0 0-3.7.24 1.43 1.43 0 0 0-.82.92c-.39 3.17-.94 6.41-1 9.58a62 62 0 0 0 2.72 18.65c1.05 3.71 1.41 7.65-.08 11.33a56.9 56.9 0 0 1-4.44 8.27c-1.47 2.41-3.47 4.47-4.65 6.94a80.76 80.76 0 0 0-4.06 11 25.18 25.18 0 0 0-1.3 7.15c0 3.18.62 6.42.69 9.61a94 94 0 0 1-.42 10.69 25.73 25.73 0 0 1-1.34 5.82c-1.8 5.64-5.45 10.69-5.93 16.81-.15 2.72-.59 5.48 0 8 1 5 2.77 10 4 15a99.26 99.26 0 0 1 1.79 9.91 2.35 2.35 0 0 1-1.88 2.81c-1.56.21-2.42-.67-2.81-2.12-.11-.29-.17-.58-.28-.87-.9-7.12-3.65-13.75-5.94-20.42a19.79 19.79 0 0 1-.73-11.57 76.61 76.61 0 0 1 3-9.56c1.49-4 3.28-7.94 4.88-11.85a14.24 14.24 0 0 0 1.08-8.2 54.43 54.43 0 0 1-1.16-9.09c-.17-5-.11-10 1.34-14.9s2.89-9.45 6.12-13.4c3.05-3.66 6.16-7.44 6.74-12.46.32-2.54 1.1-5.07.73-7.45-.64-4.34-2.33-8.41-2.39-12.92 0-4-.31-8.1.26-12.08.25-1.79.51-3.52.82-5.6l-6.42.38a10.51 10.51 0 0 0 0 1.91c.42 3.76 1.18 7.47.44 11.28-.8 4-1.31 8.08-2.57 11.94-2.34 7-5.2 13.81-7.77 20.78-2 5.53-4.07 11.11-4.43 17-.29 4.56.24 9.08.35 13.65.07 4 .48 8.16 0 12.14-.71 6.12-2.92 11.87-5.18 17.57a53.42 53.42 0 0 0-3.61 16.61 45.4 45.4 0 0 0 2.58 16.45c1.73 5.4 3.28 10.85 4.72 16.3a47 47 0 0 1 1.26 15.34 18.17 18.17 0 0 1-.8 3.92c-1.5 4.55-3.12 9-4.56 13.59a28.43 28.43 0 0 0-1 13.75 46.32 46.32 0 0 1 .52 4.86 2.81 2.81 0 0 1-2.35 2.86 3.19 3.19 0 0 1-3.27-2.35 22.48 22.48 0 0 1-.57-5.21 81.78 81.78 0 0 1 .74-8.37 63.26 63.26 0 0 1 1.54-8c.85-3.17 2-6.28 3.06-9.39 1.8-5.3 1.4-10.74.66-16.12a73.45 73.45 0 0 0-2.41-11.13c-1.33-4.53-3-8.94-4.69-13.35-1.23-3.25-2.06-6.62-1.33-9.9 1.41-6.28 3.27-12.51 4.91-18.79 1.57-5.76 3.15-11.58 4.6-17.4 1.09-4.44.57-9 .45-13.41 0-2.43-.64-4.81-.78-7.24-.2-2.66-.63-5.44-.13-8a97.55 97.55 0 0 1 3.27-12c1.32-4.09 2.82-8.18 4.37-12.2 1.73-4.43 3.63-8.86 5.42-13.29 2.45-6.21 2.23-12.63 1.73-19.11-.36-4-.59-4-4.75-4a1.66 1.66 0 0 0-1.92 1.19c-.66 2.36-1.62 4.72-1.82 7.15-.34 4.16-.1 8.32-.27 12.48a67.41 67.41 0 0 1-.89 6.75c-.75 5-3.12 9.39-5.48 13.69-3.73 6.89-5.09 14.33-5.3 22-.11 4.33.82 8.74 1.34 13.08.47 3.76.72 7.52-.77 11.09-1.49 3.74-3.33 7.36-5 11-1.31 2.76-2.38 5.58-2.19 8.76a109.19 109.19 0 0 1 .15 11.51 58.37 58.37 0 0 1-1.37 8.25c-.55 2.59-1.68 5.18-1.83 7.78-.24 5.2 1.67 10.08 3.58 14.79a27.69 27.69 0 0 1 2.21 12.51c-.21 2.71-.35 5.43-.79 8.08-.31 1.73-.91 3.4-2.83 4.19-1.57.67-2.83.08-2.81-1.6 0-2.54.29-5.08.55-7.62.32-2.37 1-4.55.66-7-.7-4.46-2.79-8.42-4.13-12.6-1.17-3.54-2.57-7-2.35-10.84a31.57 31.57 0 0 1 2.61-10.26c1.13-2.76 2-5.76 1.49-8.6a28 28 0 0 1 .6-11.38c1.34-5.36 3-10.66 4.3-16a28.4 28.4 0 0 0 1-7.33c0-3.35-.61-6.66-.69-10a68.15 68.15 0 0 1 1.45-16.67 97 97 0 0 1 3-10.66c1.32-3.57 3-7 4.58-10.47 2.91-6.21 3.57-12.85 3.71-19.55.1-3.12.08-6.3 1-9.3a42.38 42.38 0 0 0 .86-4.5c-2.6.14-4.92.29-7.17.32a1.64 1.64 0 0 0-1.87 1.25c-.78 2.65-1.74 5.24-2.41 7.83-.91 3.52-2.11 7.09-2.44 10.67-.6 6.93-.69 13.92-1 20.86a27.85 27.85 0 0 1-.57 4.27c-1.46 6.23-3 12.39-4.45 18.62a27.52 27.52 0 0 0 .29 13.88c.89 3.13 2.12 6.15 1.73 9.62a35.89 35.89 0 0 1-5.26 14.84 39.48 39.48 0 0 0-3.5 7.42 79.27 79.27 0 0 0-3.5 16.43 23.82 23.82 0 0 0 1.3 11.58c1.18 3.08 2.29 6.21 2 9.62-.13 1.44-1.54 3-2.81 3s-1.89-1.29-2-2.91a13 13 0 0 0-.7-4.23 31.31 31.31 0 0 1-2.79-13.3 85.24 85.24 0 0 1 1.06-10.86 41.92 41.92 0 0 1 1.9-8.88c1.85-4.89 4.16-9.6 6.36-14.38 1.49-3.28 3-6.5 2.49-10.14-.26-2.26-.87-4.46-1.31-6.66a35.91 35.91 0 0 1 .13-15.49c1-4.61 2.19-9.22 3.17-13.84a84.35 84.35 0 0 0 1.77-17c0-1.5 0-3 .11-4.45q.6-6.67 1.38-13.34c.32-2.71.76-5.48 1.26-8.25.31-2 .8-4 1.29-6.17zm-8-1.77c5.66.07 10.92.19 16.19.08 4 0 8.15 0 12.26-.14 4.68-.12 9.43-.23 14.11-.46 4.11-.24 8.22-.54 12.32-.78 2.43-.09 4.86-.11 7.34-.2 1.62 0 2.68-1.41 3.22-3.26 1.09-4 1.08-8 1.36-12.07a35.24 35.24 0 0 0-.83-12.32 37.24 37.24 0 0 0-6.51-12.25c-2.84-3.79-5.4-7.81-8-11.78-3.52-5.25-7.51-10-13-13.4a29.53 29.53 0 0 0-5.47-2 61.17 61.17 0 0 0-6.22-2.21c-3.23-.73-6.58-1.24-9.86-1.74a16.31 16.31 0 0 0-12.12 3.38 45 45 0 0 0-6.25 5.19c-4 4.11-7.56 8.52-9.54 14-1.08 3.05-1.64 6.22-2.43 9.39-.85 3.34-1.76 6.63-2.43 9.91-.61 2.71-.88 5.48-1.31 8.25-.56 3.46-1.36 6.92-1.63 10.39a13.94 13.94 0 0 0 .61 6.6 7.21 7.21 0 0 0 4.3 3.23c4.67 1.21 9.34 2.48 13.85 2.19zm18.64 207.71a65.06 65.06 0 0 1-.71-8.33 27.79 27.79 0 0 1 .18-4.91c.58-4.73 2.37-9.11 4-13.54s3.23-8.86 2.77-13.73a67 67 0 0 0-1.33-9.67c-1.6-6.44-3.66-12.76-5.38-19.14a59.88 59.88 0 0 1-1.62-9.1c-.93-9 1.89-17.44 5-25.72 1.91-5.06 3.77-10.19 3.95-15.68.12-5 .41-10.05-.22-15-1-7.82.53-15.14 3.1-22.34 3.05-8.52 6.22-17 9.27-25.5a35.13 35.13 0 0 0 2.34-11.65c0-3.47 0-6.94-.16-10.41-.1-1.62-.78-2.15-2.17-1.88s-1.86.79-1.47 2.41a40 40 0 0 1 .94 8.34 48 48 0 0 1-4.57 19.31c-2.73 6.15-5 12.54-7.17 18.88a63.91 63.91 0 0 0-3.26 11.7c-.5 2.88 0 6 .18 8.91.15 1.85.65 3.65.74 5.5.13 3.87.54 7.87.09 11.74a81.45 81.45 0 0 1-2.76 12.8c-2 7.49-4.23 14.86-6.46 22.24-1.57 5.18-.93 10.16 1 15.16 1.46 3.83 2.62 7.78 3.79 11.72 1.11 3.77 2.16 7.54 3.1 11.31.33 1.45.31 3 .52 4.46.85 5.79-.48 11.27-2.46 16.68a44.86 44.86 0 0 0-3 14.82c-.08 1.85-.62 3.63-.64 5.43a38.4 38.4 0 0 0 .51 5.73 6.06 6.06 0 0 0 .74 1.28 11.52 11.52 0 0 0 1.12-1.37c.18-.23.07-.64.06-.46zm-11.45-33.5c1.28-1 1.3-2.53 1.55-3.91a49.36 49.36 0 0 0 .91-8.2 36.5 36.5 0 0 0-2.7-11.5 71.83 71.83 0 0 1-3.1-11c-.65-3.48.26-6.88 1.28-10.27a42.11 42.11 0 0 0 1.85-9.23c.22-3.64-.26-7.35-.27-11.1a16.71 16.71 0 0 1 1.65-7.5c1.9-3.79 3.91-7.64 5.46-11.61a25.16 25.16 0 0 0 1.15-13.57 81.92 81.92 0 0 1-1.11-13 41.85 41.85 0 0 1 4.68-19.25 126.06 126.06 0 0 0 5.82-13.47 20.61 20.61 0 0 0 .94-5.94c.23-4.85.18-9.77.58-14.62.14-2.2 1.09-4.32 1.7-6.51a16.86 16.86 0 0 1 .83-1.78.8.8 0 0 0-.23-.18c-3.46-.39-4 0-4.5 4.34-.58 5-.58 9.94-.93 14.9a45.06 45.06 0 0 1-5.07 17.4 79 79 0 0 0-4.42 11.86 85.12 85.12 0 0 0-1.84 8.48 23 23 0 0 0-.5 3.4c-.11 3.93-.38 7.86-.14 11.73.43 7.17.81 14.29-1.65 21.25a109.7 109.7 0 0 0-3.39 12.79 20.19 20.19 0 0 0-.23 9.48c.5 2-.4 4.33-.95 6.46-.73 2.77-1.68 5.41-2.53 8.12a17.16 17.16 0 0 0 .16 10.64c1.51 4.24 2.84 8.59 4.53 12.77 1.52 3.6 1.36 7.13.62 10.88-.49 2.6-.53 5.31-.79 8l.63.18zm-26.83 5.51a3.24 3.24 0 0 0-.15-1.79c-1.86-4.18-.65-8.16.9-12 1.49-3.62 3.38-7.07 4.81-10.69 1-2.42.81-5.08.56-7.68-.62-6.25-2.57-12.29-3.59-18.49a82.83 82.83 0 0 1-.84-12c-.09-6.48 2.58-12.17 5.71-17.62a96.66 96.66 0 0 0 6-14 38.21 38.21 0 0 0 2.05-12c.24-5.84-.67-11.51-1.7-17.19-.54-3.19-.91-6.37-1.16-9.55-.35-4.4 1.43-8.31 2.92-12.28 2.09-5.64 4.41-11.28 4-17.53a47.69 47.69 0 0 0-2.33-12.75c-.11-.35-.17-.7-.28-1-.49-2.2-.72-2.32-3.27-2.18a33.22 33.22 0 0 0 .82 4.17 45.53 45.53 0 0 1 2.21 17.83 32.64 32.64 0 0 1-2.66 10.02 94.142 94.142 0 0 0-2.94 8.46 19.49 19.49 0 0 0-.27 8c.69 5.38 2.24 10.61 2.7 16 .7 8.74-1.13 16.81-4.52 24.75-1.9 4.49-3.92 8.86-5.54 13.4a67.64 67.64 0 0 0-3.14 11.12 29.9 29.9 0 0 0 .21 11.1c1.42 6.9 2.84 13.85 3.91 20.8a15.76 15.76 0 0 1-.78 6.93c-1.09 3.69-2.75 7.19-4 10.82-.9 2.82-2 5.64-2.18 8.47-.09 2.37-.12 5.14 2.11 7l.46-.11zm53.82-28.2a1.38 1.38 0 0 0 1.24-1.78 64.3 64.3 0 0 0-1.46-8.23c-1.38-5.16-3.23-10.21-4.32-15.43-.6-3-.21-6.19.06-9.31.47-5.54 3.53-10.19 5.5-15.2a27.64 27.64 0 0 0 2.27-11c-.11-5.32-.27-10.7-.44-16-.11-5.09 1.85-9.57 3.41-14.24 2-6 6.6-10.56 9.62-16a15.11 15.11 0 0 0 2-10.38c-.87-4.58-2.14-9.16-2.61-13.79a88.81 88.81 0 0 1 0-13c.08-2 .68-3.92.94-5.83a3 3 0 0 0-.62-1c-.58.4-1.51.68-1.75 1.19a9.42 9.42 0 0 0-.44 2.6c-.13 1.39-.26 2.66-.4 4a34.5 34.5 0 0 0-.34 4.22c0 2.31.35 4.69.38 7 .06 4.39 2.09 8.47 2.33 12.75.19 3.47-.89 7-1.69 10.5s-3.43 6.2-5.66 8.95c-3.64 4.52-5.5 9.88-6.78 15.41a42.48 42.48 0 0 0-1 8.95 55.28 55.28 0 0 0 .86 10.24 23 23 0 0 1-1.79 14 168.13 168.13 0 0 0-6.4 17.32 17.57 17.57 0 0 0 .27 10.76c1.34 4.06 2.79 8.13 4 12.3 1.06 3.54 1.82 7.13 2.76 11zm-21-149.58a22.68 22.68 0 0 0-3.41-.16 1.57 1.57 0 0 0-1 1.14c-.81 4.73-1.79 9.4-2.37 14.19a192 192 0 0 0-1.68 23.74 36.21 36.21 0 0 1-1.14 7.85c-1.23 5.71-2.51 11.47-3.85 17.18-1.4 6-.67 12 .88 17.7 1.33 4.93.47 9.26-1.61 13.62s-4.15 8.45-5.94 12.76a31.6 31.6 0 0 0-1.82 7.32c-.64 4.73-1.16 9.47-1.44 14.26a26.7 26.7 0 0 0 2.06 11.18c.84 2.38 1.27 4.93 1.88 7.42a2.56 2.56 0 0 0 1-3.05c-.77-3.07-1.66-6.21-2.55-9.22a22.62 22.62 0 0 1-.6-12.09c1.34-5.24 2.27-10.49 3.77-15.62.73-2.59 2.32-5 3.62-7.47a45.9 45.9 0 0 0 4.86-14.28c.56-3.52-1-6.37-1.79-9.45-1.1-4.41-.82-8.74-.36-13.24.65-6 3.26-11.46 4.31-17.35a64 64 0 0 0 1.2-8.77c.35-5.31.36-10.58.6-15.89a45.4 45.4 0 0 1 2.21-11c1.08-3.46 2-6.91 3.14-10.77zm32.18 171.29a12.93 12.93 0 0 0 3.25-6c.82-5.71.37-11.44-.08-17.17-.15-1.62-.19-3.24-.29-4.86-.34-5.09-.74-10.24-1.09-15.39-.24-3.76-.55-7.46-.79-11.23a46 46 0 0 1-.21-6.88c.28-3.81.79-7.62 1.35-11.43.69-4.33 1.43-8.65 2.41-12.92a84.36 84.36 0 0 1 3.07-9.85c2.16-6.45 4.55-12.84 6.59-19.29 1.38-4.43 2.82-8.87 3.05-13.55.16-3.41.78-6.87.64-10.28a99.49 99.49 0 0 0-1.48-11.7 72.2 72.2 0 0 1-.9-16.2c.14-1.91.57-3.81.94-6.12a16.56 16.56 0 0 0-2.95-.15 1.85 1.85 0 0 0-.77 1.26 42.38 42.38 0 0 0 1.13 12c1.09 5.51 2.41 11 3.1 16.51.37 3.13-.31 6.41-.52 9.65a8.62 8.62 0 0 0-.13 1.21 41.14 41.14 0 0 1-1.88 12.41 116.59 116.59 0 0 1-7.81 20.35 60.45 60.45 0 0 0-5 15.66 129.17 129.17 0 0 0-2.26 14.71c-.54 6.58-.74 13.17-.64 19.71.07 3.64 1.07 7.36 1.54 11 .32 2.32.46 4.75.67 7.12.41 4.51 1 9 1 13.54.06 4.8.63 9.78-1.73 14.32a12.76 12.76 0 0 0-.73 3.4l.58.18zM413.27 79.7c-1.72-1.35-2-1.24-2.49.55-1.38 4.38-3 8.64-4.26 13.07a32.41 32.41 0 0 0-1.3 7.44 73.09 73.09 0 0 0 .15 11.8 98.48 98.48 0 0 0 2.21 12.36c1 4.41 2 8.75 1.46 13.26-.7 5.6-1.87 11.13-4.88 16-1.77 2.87-4.73 4.11-7.92 4.36a13 13 0 0 1-9.91-2.9 16.07 16.07 0 0 1-3.58-5.07c-1.8-3.78-3.14-7.84-5-11.62-2.43-4.94-6.26-7.82-12-8.3a19.83 19.83 0 0 0-11.94 2.8 16.6 16.6 0 0 0-2 2 7.24 7.24 0 0 0 5.68-1 13.86 13.86 0 0 1 11.81-1.65 13.56 13.56 0 0 1 7.77 7.49 36.92 36.92 0 0 1 2.35 6.85 14.11 14.11 0 0 0 3.28 6.4 60.53 60.53 0 0 0 6.63 6.15 4.84 4.84 0 0 0 3.17 1 41.82 41.82 0 0 0 8.57-1.11c3.89-1.11 5.6-4.44 6.92-8a73.14 73.14 0 0 0 3.68-15.66 31.52 31.52 0 0 0-1.29-13.14 107.36 107.36 0 0 1-3.37-12.64c-.54-2.78-.22-5.78 0-8.67a49.67 49.67 0 0 1 1.38-8.71c1-3.51 2.45-7 3.71-10.42.36-.86.77-1.78 1.19-2.64z"/><path class="cls-1" d="M424.09 79.31c-4.51.29-9.18-1-13.91-2.08a6.89 6.89 0 0 1-4.3-3.23 14 14 0 0 1-.61-6.6c.33-3.46 1.07-6.92 1.63-10.39.44-2.71.76-5.54 1.31-8.25.73-3.34 1.58-6.63 2.43-9.91a83 83 0 0 1 2.43-9.39c2-5.41 5.55-9.88 9.54-14a48.76 48.76 0 0 1 6.25-5.19 15.77 15.77 0 0 1 12.12-3.35c3.29.5 6.64.95 9.86 1.74a49.74 49.74 0 0 1 6.22 2.21 24.8 24.8 0 0 1 5.47 2c5.51 3.36 9.56 8.15 13.08 13.4 2.67 4 5.22 8 8 11.78a38.34 38.34 0 0 1 6.5 12.22 36.67 36.67 0 0 1 .83 12.32c-.28 4-.21 8.09-1.36 12.07-.54 1.84-1.66 3.22-3.22 3.26-2.43 0-4.86.06-7.34.2-4.11.24-8.22.59-12.32.78-4.69.23-9.43.35-14.11.46-4 .07-8.15.13-12.26.14-5.26 0-10.58-.13-16.24-.2zm49.9-48.53a77.55 77.55 0 0 0-4.41-8.09 10 10 0 0 0-4.12-2.83c-1.38-.59-2.61.43-3.26 1.58a4 4 0 0 0-.44 3.12c.67 1.68 2 3.09 2.89 4.72a19.92 19.92 0 0 1 1.4 3.66 17.33 17.33 0 0 0 1.06 3.48 2.91 2.91 0 0 0 3.1 1.71 4.72 4.72 0 0 0 4-3 14.88 14.88 0 0 0 .49-2.31 14 14 0 0 0-.71-2.04zm-22.39-13c.55 2 3 4.2 5.15 4.05 1.22-.1 2.9-.72 3.43-1.63a3.6 3.6 0 0 0-.59-3.53 18.17 18.17 0 0 0-4.07-2.75c-3.24 0-4.47 1.61-3.92 3.81zm8.25 16.14a2.93 2.93 0 0 0 1.77-3.27c-.33-1.28-.72-2.49-1.11-3.77a1.86 1.86 0 0 0-.17-.29c-1.59-2-3.46-.45-5.14-.18a2.24 2.24 0 0 0-2.11 2.29c.19 3.22 4.37 6.39 6.76 5.22zm-17.12 253.11a.63.63 0 0 1-.18.46 8.93 8.93 0 0 1-1.12 1.37 4.1 4.1 0 0 1-.74-1.28 48 48 0 0 1-.51-5.73c0-1.85.56-3.64.64-5.43a46.38 46.38 0 0 1 3-14.82c1.92-5.41 3.31-10.83 2.46-16.68a37.46 37.46 0 0 0-.52-4.46c-.94-3.83-2-7.54-3.1-11.31-1.17-3.95-2.33-7.89-3.79-11.72-1.91-5-2.54-10-1-15.16 2.17-7.43 4.46-14.8 6.46-22.24a88.57 88.57 0 0 0 2.76-12.8 72.6 72.6 0 0 0-.09-11.74c-.15-1.85-.65-3.65-.74-5.5-.2-3-.68-6-.18-8.91a76.41 76.41 0 0 1 3.26-11.7c2.22-6.33 4.43-12.72 7.17-18.88a47.93 47.93 0 0 0 4.51-19.31 36.81 36.81 0 0 0-.88-8.34c-.33-1.62.2-2.14 1.47-2.41s2.14.31 2.17 1.88c.07 3.47.15 6.94.16 10.41a34.86 34.86 0 0 1-2.34 11.65c-3.05 8.52-6.22 17-9.27 25.5-2.57 7.25-4.11 14.52-3.1 22.34a92.4 92.4 0 0 1 .22 15c-.18 5.49-2 10.61-3.95 15.68-3 8.29-5.87 16.69-5 25.72a59.88 59.88 0 0 0 1.62 9.1c1.66 6.44 3.72 12.76 5.38 19.14a59.84 59.84 0 0 1 1.33 9.67c.52 4.8-1.1 9.35-2.77 13.73s-3.46 8.8-4 13.54a27.92 27.92 0 0 0-.18 4.91c.14 2.66.51 5.27.82 8.33z"/><path class="cls-1" d="M431.28 253.53l-.69-.12a73 73 0 0 1 .79-8 18.4 18.4 0 0 0-.62-10.88c-1.68-4.18-3-8.48-4.53-12.77a17.16 17.16 0 0 1-.16-10.64c.84-2.71 1.86-5.35 2.53-8.12.55-2.13 1.44-4.49.95-6.46a21.82 21.82 0 0 1 .23-9.48 90.67 90.67 0 0 1 3.39-12.79c2.45-7 2.14-14.08 1.65-21.25-.24-3.88 0-7.8.14-11.73a22 22 0 0 1 .5-3.4 81.91 81.91 0 0 1 1.84-8.48 83.28 83.28 0 0 1 4.42-11.86 45.06 45.06 0 0 0 5.07-17.4c.41-5 .41-10 .93-14.9.46-4.33 1-4.67 4.5-4.34.06.06.17.12.23.18-.3.57-.59 1.21-.83 1.78a37.2 37.2 0 0 0-1.7 6.51c-.35 4.85-.35 9.77-.58 14.62a20.32 20.32 0 0 1-.94 5.94 139.06 139.06 0 0 1-5.83 13.46 42.59 42.59 0 0 0-4.68 19.25 75.69 75.69 0 0 0 1.11 13 25.77 25.77 0 0 1-1.15 13.57c-1.55 4-3.56 7.76-5.46 11.61a16.88 16.88 0 0 0-1.65 7.5c0 3.64.49 7.41.27 11.1a42.11 42.11 0 0 1-1.85 9.23c-1 3.4-1.93 6.8-1.28 10.27a65.81 65.81 0 0 0 3.1 11 36.5 36.5 0 0 1 2.69 11.54 49.36 49.36 0 0 1-.91 8.2c-.19 1.39-.21 2.95-1.49 3.86zm-26.82 5.51l-.41.11c-2.29-1.82-2.26-4.65-2.11-7 .15-2.89 1.23-5.71 2.18-8.47 1.26-3.63 2.86-7.13 4-10.82a15.92 15.92 0 0 0 .78-6.93c-1.07-7-2.49-13.9-3.91-20.8a29.86 29.86 0 0 1-.21-11.1 67.64 67.64 0 0 1 3.14-11.11c1.67-4.55 3.69-9 5.6-13.4 3.39-7.88 5.22-16 4.52-24.75-.51-5.44-2-10.66-2.7-16a18.54 18.54 0 0 1 .27-8 86.12 86.12 0 0 1 2.94-8.46 32.64 32.64 0 0 0 2.72-10.08 45.39 45.39 0 0 0-2.21-17.83 29.39 29.39 0 0 1-.82-4.17c2.49-.14 2.72 0 3.27 2.18a7 7 0 0 0 .28 1 47.69 47.69 0 0 1 2.33 12.75c.33 6.19-1.88 11.89-4 17.53-1.49 4-3.28 7.94-2.92 12.28.25 3.24.62 6.37 1.16 9.55 1 5.68 1.94 11.35 1.7 17.19a35.62 35.62 0 0 1-2.05 12 85.37 85.37 0 0 1-6 14c-3.13 5.45-5.8 11.15-5.71 17.62a82.83 82.83 0 0 0 .84 12c1.08 6.2 3 12.18 3.59 18.49.2 2.66.4 5.27-.56 7.68-1.49 3.62-3.32 7.07-4.81 10.69-1.55 3.85-2.75 7.83-.9 12a4.64 4.64 0 0 1 0 1.79zm53.82-28.2c-.94-3.77-1.7-7.42-2.76-11-1.22-4.12-2.68-8.18-4-12.3a18 18 0 0 1-.27-10.76 168.13 168.13 0 0 1 6.4-17.32 23.44 23.44 0 0 0 1.79-14 50.33 50.33 0 0 1-.86-10.24 42.48 42.48 0 0 1 1-8.95c1.28-5.53 3.14-10.83 6.78-15.41 2.23-2.75 4.86-5.38 5.66-8.95s1.88-7 1.69-10.5c-.24-4.28-2.27-8.35-2.33-12.75 0-2.31-.35-4.69-.38-7 0-1.39.21-2.83.34-4.22s.26-2.66.4-4a7.67 7.67 0 0 1 .44-2.6c.3-.57 1.17-.8 1.75-1.19a2.3 2.3 0 0 1 .62 1 52.77 52.77 0 0 0-.94 5.83 97.58 97.58 0 0 0 0 13c.46 4.63 1.74 9.21 2.61 13.79a14.56 14.56 0 0 1-2 10.38c-3 5.4-7.58 9.91-9.62 16-1.56 4.66-3.58 9.21-3.41 14.24.17 5.32.33 10.7.44 16a30 30 0 0 1-2.27 11c-2 5-5 9.65-5.5 15.2-.21 3.12-.66 6.35-.06 9.31 1.09 5.22 2.94 10.27 4.32 15.43.66 2.73 1 5.45 1.46 8.23.11.87-.14 1.79-1.24 1.83zm-21-149.58c-1.09 3.92-2.06 7.37-3.14 10.77a39.7 39.7 0 0 0-2.21 11c-.3 5.32-.3 10.63-.6 15.89-.27 2.95-.65 5.89-1.2 8.77-1.11 5.83-3.66 11.34-4.31 17.35-.46 4.5-.74 8.78.36 13.24.77 3.13 2.3 5.92 1.79 9.45a44 44 0 0 1-4.86 14.28c-1.24 2.47-2.83 4.88-3.62 7.47-1.51 5.13-2.5 10.43-3.77 15.62a22.55 22.55 0 0 0 .6 12.09c.83 3.07 1.72 6.15 2.55 9.22.44 1.51-.21 2.83-1 3.05a53.61 53.61 0 0 0-1.88-7.42 27.45 27.45 0 0 1-2.05-11.12c.29-4.74.81-9.53 1.44-14.26a29.51 29.51 0 0 1 1.82-7.32c1.84-4.31 3.92-8.51 5.94-12.76s2.94-8.69 1.61-13.62c-1.55-5.74-2.29-11.71-.88-17.7 1.4-5.71 2.62-11.41 3.85-17.18a36.69 36.69 0 0 0 1.14-7.85 204.65 204.65 0 0 1 1.68-23.74c.58-4.73 1.5-9.46 2.37-14.19a1.66 1.66 0 0 1 1-1.14 22.93 22.93 0 0 1 3.41.16zm31.46 171a12.76 12.76 0 0 1 .73-3.4c2.43-4.6 1.79-9.52 1.73-14.32-.06-4.51-.64-9-1-13.54-.2-2.37-.35-4.74-.67-7.12-.48-3.65-1.47-7.3-1.54-11-.09-6.59.1-13.18.64-19.71a143.5 143.5 0 0 1 2.26-14.71 62.32 62.32 0 0 1 5-15.61 121.43 121.43 0 0 0 7.88-20.25 37.6 37.6 0 0 0 1.88-12.41 8.62 8.62 0 0 1 .13-1.21c.21-3.18.89-6.46.52-9.65-.68-5.56-1.95-11-3.1-16.51a42.16 42.16 0 0 1-1.13-12 1.85 1.85 0 0 1 .77-1.26 24.65 24.65 0 0 1 2.95.15c-.38 2.37-.8 4.21-.94 6.12a72.2 72.2 0 0 0 .9 16.2 99.49 99.49 0 0 1 1.48 11.7c.13 3.41-.49 6.82-.64 10.28-.17 4.74-1.61 9.11-3.05 13.55-2 6.51-4.38 12.84-6.59 19.29-1.08 3.28-2.28 6.51-3.07 9.85-1 4.27-1.72 8.59-2.41 12.92q-.94 5.71-1.35 11.43a54.77 54.77 0 0 0 .21 6.88c.24 3.76.55 7.46.79 11.23.4 5.09.74 10.24 1.09 15.39.1 1.62.13 3.24.29 4.86.45 5.67 1 11.46.08 17.17a10.84 10.84 0 0 1-3.08 6z"/><path class="cls-1" d="M413.27 79.7c-.36.92-.77 1.78-1.25 2.82-1.31 3.45-2.74 6.85-3.71 10.42a44.17 44.17 0 0 0-1.38 8.71 36.19 36.19 0 0 0 0 8.67 107.36 107.36 0 0 0 3.39 12.6 30.5 30.5 0 0 1 1.29 13.14 68.42 68.42 0 0 1-3.72 15.62c-1.32 3.57-3 6.9-6.92 8a41.82 41.82 0 0 1-8.57 1.11 4.84 4.84 0 0 1-3.17-1 66.21 66.21 0 0 1-6.63-6.15 14.11 14.11 0 0 1-3.28-6.4 35.48 35.48 0 0 0-2.35-6.85 13.39 13.39 0 0 0-7.77-7.49 13.83 13.83 0 0 0-11.81 1.65 7.06 7.06 0 0 1-5.68 1 11.09 11.09 0 0 1 2-2 20.35 20.35 0 0 1 11.94-2.8 13.76 13.76 0 0 1 12 8.3c1.86 3.78 3.2 7.79 5 11.62a14.43 14.43 0 0 0 3.58 5.07 13.13 13.13 0 0 0 9.91 2.9c3.24-.31 6.15-1.54 7.92-4.36 3-4.94 4.17-10.41 4.88-16 .57-4.5-.47-8.91-1.46-13.26a100.53 100.53 0 0 1-2.22-12.34 89.28 89.28 0 0 1-.15-11.8 32.41 32.41 0 0 1 1.3-7.44c1.33-4.44 2.88-8.69 4.26-13.07.6-2 .78-2.13 2.55-.72z"/><path class="cls-2" d="M474.11 35.06a4.65 4.65 0 0 1-4 3 2.87 2.87 0 0 1-3.1-1.71 22.07 22.07 0 0 1-1.02-3.43 28.07 28.07 0 0 0-1.4-3.66c-.85-1.63-2.16-3-2.89-4.72a4.26 4.26 0 0 1 .44-3.12c.65-1.09 1.88-2.17 3.26-1.58a9.62 9.62 0 0 1 4.13 2.83 74.39 74.39 0 0 1 4.47 8.15 11.93 11.93 0 0 1 .67 2 12.89 12.89 0 0 1-.56 2.24zm-9.72-8.79a10.63 10.63 0 0 1 3.32 7.65 4 4 0 0 0 1 2c.51.76 1.31 1.58 2.19 1a5.77 5.77 0 0 0 2.06-2.63 3.72 3.72 0 0 0-.43-2.66c-1.35-2.79-2.88-5.47-4.47-8.09a8.75 8.75 0 0 0-3.14-2.62c-.92-.53-1.91.55-2.22 2.11.5 1.09.83 2.42 1.69 3.24zm-4.74-9.65a3.88 3.88 0 0 1 .59 3.53c-.53.92-2.22 1.53-3.43 1.63-2.08.15-4.6-2-5.15-4.05-.61-2.2.62-3.81 3.86-3.77a19.73 19.73 0 0 1 4.13 2.65zm-1.64 1.43a4.75 4.75 0 0 0-3.9-2.65 1.09 1.09 0 0 0-1.23 1.37c.15 1.74 2.32 3.9 4.12 3.87 1.27-.05 1.75-1.15 1.01-2.6zm-2.76 8.35c1.68-.27 3.55-1.75 5.14.18.06.12.06.17.11.29.39 1.28.84 2.5 1.11 3.77a3 3 0 0 1-1.76 3.28c-2.38 1.19-6.57-2-6.76-5.23a2.25 2.25 0 0 1 2.16-2.3zm-.6 1.61c-.36.69.26 2.08.77 2.9a4.28 4.28 0 0 0 3.73 2 1.47 1.47 0 0 0 1.11-1 16.81 16.81 0 0 0-.93-4.17c-.22-.52-1.15-.77-1.78-1.18-1.09.54-2.54.75-2.89 1.44z"/><path class="cls-1" d="M464.86 20.92a8.75 8.75 0 0 1 3.09 2.47 84.56 84.56 0 0 1 4.51 8.12 4 4 0 0 1 .43 2.66 5.49 5.49 0 0 1-2.06 2.63c-.82.57-1.67-.19-2.19-1a4.51 4.51 0 0 1-1-2c-.25-3-1-5.5-3.32-7.61-.8-.76-1.13-2.09-1.64-3.2.32-1.54 1.32-2.62 2.18-2.07zm-11.92-4.1a1.09 1.09 0 0 1 1.23-1.37 4.75 4.75 0 0 1 3.9 2.65c.68 1.45.14 2.49-1.07 2.53a4.87 4.87 0 0 1-4.06-3.81zm6.4 10.89a20.75 20.75 0 0 1 .93 4.17 1.72 1.72 0 0 1-1.11 1 4.16 4.16 0 0 1-3.73-2c-.51-.87-1.13-2.27-.77-2.9s1.74-.85 2.91-1.35c.68.43 1.55.62 1.77 1.08zM0 289.45V108.7h293.46v180.75H0zm89.46-112.42c-1.92 2-3.63 3.9-5.49 5.68a13.85 13.85 0 0 1-3.7 2.45c-1.32.66-2.78 1-4.1 1.65s-1.65 2.38-.4 3c2.18 1.12 4.49 2.11 7.07 1a27.79 27.79 0 0 0 7.4-5.22 18.94 18.94 0 0 1 11.83-5.29 3.66 3.66 0 0 1 1.19.13c-1.59 1.12-2.91 2.18-4.36 3.17-3.77 2.71-7.07 6.15-11.63 7.6-2.84.86-5.68 2-8.59 2.25-5.82.46-11.43 1.12-16.52 4.36-3.44 2-6.68 4.1-8 8.26-1.26 3.7-2.18 7.4-.93 11.37a10 10 0 0 1 .59 5 13.94 13.94 0 0 1-6.08 9.19 2.5 2.5 0 0 1-3.44-.79 3.25 3.25 0 0 1-.4-1.12c-.13-1.78-.13-3.5 2-4.3a4.72 4.72 0 0 0 1.85-1.39 3.32 3.32 0 0 0 1-2.18 2.59 2.59 0 0 0-1.39-1.85c-2.58-1.19-6.87-.13-8.72 2a9.15 9.15 0 0 0 .4 12.62c3.17 3.44 7.07 3.83 11.17 3 5.49-1.19 8.59-5.42 11.57-9.65 1.92-2.71 1.59-6.08 1.52-9.25-.07-2.64-.33-5.29-.2-7.86a8.66 8.66 0 0 1 2.84-6.15 15.24 15.24 0 0 1 9.19-3.37c4.63-.33 9.25-.26 13.88-1.19a35.18 35.18 0 0 0 12-4.43c3.17-2 6.08-4.49 9.32-6.54 2.64-1.65 5.49-2.84 8.26-4.23a2.84 2.84 0 0 1 1.06 0c-1.06 1.32-2 2.51-2.91 3.7a69.36 69.36 0 0 1-4 5.82 29.6 29.6 0 0 1-15.28 9.13c-4.43 1.12-8.92 2.38-12.62 5.22-2.58 1.92-5 4-6.28 7.14a45 45 0 0 1-3 6.54 41.85 41.85 0 0 1-8.72 9.65c-3.63 3.11-7.07 6.41-10.9 9.32a15.35 15.35 0 0 1-6.74 3.3c-5.22.73-10.44-.2-15.47-1.65-5.49-1.59-10.9-1.85-16.26.33a10.29 10.29 0 0 0-6.68 10 3.69 3.69 0 0 0 3.48 3.47c1.85.26 2.51-.26 3.37-2.18.73-1.59.93-3.5 2.84-4.43s3.7-2.11 5.82-1.72a50.28 50.28 0 0 1 6.81 2c2.11.73 4.16 1.78 6.41 2.11a69.59 69.59 0 0 0 8.33.4 23 23 0 0 0 7.34-.86 30.59 30.59 0 0 0 13.09-7.14 97.4 97.4 0 0 0 16.26-19.76c1.39-2.18 2.91-4.3 4.49-6.34 2.78-3.5 6.81-5.29 10.77-7.14 2.45-1.19 4.89-2.64 7.86-2.51a2.93 2.93 0 0 1-.53.73c-2.51 2.11-3.57 5-4.76 7.86a5 5 0 0 0-.33 1.72 13.34 13.34 0 0 1-.59 2.91c-1.06 2.11-2.25 4.23-3.44 6.28a17.46 17.46 0 0 1-7.93 7.67 42.89 42.89 0 0 0-8.26 4.36 16.69 16.69 0 0 0-4.56 5.68c-1 1.85-1.06 4.16-1.59 6.21s-1.06 4-2.84 5.35-3.17 2.38-5.55 1.72a9 9 0 0 0-8.92 1.78 4.34 4.34 0 0 0-1.26 2.91 3.14 3.14 0 0 0 1.65 1.85 5.06 5.06 0 0 0 2.25.13c1.72-.07 3.44-.2 5.16-.2 3.83-.07 7.8.53 11.43-1.26a8.31 8.31 0 0 0 2.64-2.11c2-3 3.83-6.08 5.82-9.05a38.9 38.9 0 0 1 4.63-6.21c2.78-2.64 5.95-5 8.86-7.4a39.06 39.06 0 0 0 4.49-4.23c2.25-2.64 4.23-5.42 6.48-8.2a9.76 9.76 0 0 1 .07 1.39c-.07 1.06-.4 2.11-.4 3.17a51.88 51.88 0 0 1-1.19 11.5 14.58 14.58 0 0 1-7.14 9.85c-4.56 2.84-9 5.75-11.76 10.57-1.45 2.58-2.64 5.22-2.58 8.26a26.17 26.17 0 0 0 .66 5 4.55 4.55 0 0 0 1.19 1.65 10.79 10.79 0 0 1 1.32 1.12c2.38 3.37 5.95 3.3 9.38 2.91 2.91-.33 5-2.38 6.54-4.82 1.26-1.92 2.45-3.9 2-6.28a3.74 3.74 0 0 0-1.45-2.25c-.93-.66-1.92-.07-2.51.79a24.59 24.59 0 0 0-2.31 3.83 3.56 3.56 0 0 1-3.24 2.45 4.21 4.21 0 0 1-3.7-2.38 5.88 5.88 0 0 1 .93-6.61 42.43 42.43 0 0 1 6.48-6.41c2.51-2 5.35-3.5 8-5.42 2.91-2.11 5.49-4.69 6.61-8.2a57.3 57.3 0 0 0 2.38-17.71 30.22 30.22 0 0 1 .33-5.49c.66-3.44 1.39-6.81 2.31-10.24a35.4 35.4 0 0 1 5.55-12.36 7.73 7.73 0 0 1 7-3.3 8.42 8.42 0 0 0-2.78 6c0 1.19-.33 2.78.26 3.44a5.17 5.17 0 0 0 5 1.72 3.53 3.53 0 0 1 2.38.4 28 28 0 0 1 3.7 3.7c2.51 3.17 4.76 6.61 7.34 9.72 2.18 2.64 4.69 5 7.14 7.47a39 39 0 0 0 5 4.43 70 70 0 0 0 7.67 4.69 43.65 43.65 0 0 0 7.73 3.7c6.08 2 12.23 3.9 18.37 5.55a29.65 29.65 0 0 0 8.66 1.39c5-.07 9.91-.79 14.94-1.06a42.1 42.1 0 0 0 9.45-1.92c3-.93 5.95-2 8.92-3a20.16 20.16 0 0 0 2.71-1.26c2.11-1.06 4.16-2.25 6.21-3.37a53.2 53.2 0 0 0 5.35-3 116.34 116.34 0 0 0 15.2-13.35 41.07 41.07 0 0 0 4.82-5.42 94.33 94.33 0 0 0 6.15-11.37 64.87 64.87 0 0 0 4-10.84 38.75 38.75 0 0 0 1.59-9.58c0-2.58.46-5.09.53-7.67a61.57 61.57 0 0 0-.33-9.25 78.52 78.52 0 0 0-2.18-11.24 37.81 37.81 0 0 0-5.83-11.83c-2.91-4-5.16-8.46-8.92-11.83-1.78-1.59-3.37-3.44-5-5.09a27.38 27.38 0 0 0-4.16-3.7c-2.51-1.72-5.16-3.17-7.8-4.63a43.91 43.91 0 0 0-6.94-3.7 50.74 50.74 0 0 0-9.38-2.11 55.11 55.11 0 0 0-15.47.07 32.39 32.39 0 0 0-11.3 3.63 79.87 79.87 0 0 1-7.34 3.24c-4.56 1.85-8.13 4.63-9.19 9.85-.46 2.31-.79 2.38-3.44 2.58-1.59.07-1.78-1.19-2.18-2.25s-1.06-2.38-2.51-2.78a17.92 17.92 0 0 0-5.16-1.06 23.27 23.27 0 0 0-6.28 1.39c-4.76 1.59-9.58 3-14.14 5a22.89 22.89 0 0 0-12.69 13.09c-.93 2.31-1.59 4.63-.26 7a.84.84 0 0 1 0 .79 15 15 0 0 1-2.64 3.11 37 37 0 0 1-4.76 2.71 29.71 29.71 0 0 1-10.31 2.91 66 66 0 0 1-7.2.53c-2.11.07-4.23-.2-6.41-.26-.79 0-1.65.33-2.45.26-3.17-.33-6.28-.66-9.45-1.19-4.76-.79-9.32-2.11-13.28-5.09a13.28 13.28 0 0 0-4.56-2.64c-3.5-1-6.94-2.38-10.77-1.92a21 21 0 0 0-8.66 2.84c-3.17 1.85-5.88 4.49-9.65 5.22-2.71.53-5.49 1-8.2 1.32-5.35.73-8.66 4.49-9.91 9.25a2.58 2.58 0 0 0 1.26 3 2.51 2.51 0 0 0 3.24-.26 13.84 13.84 0 0 0 1.59-1.85 11.94 11.94 0 0 1 11-4.36 16.78 16.78 0 0 0 10.38-1.78 23.39 23.39 0 0 1 17.84-2.38 15.39 15.39 0 0 1 1.85.73c-.53.2-.59.26-.79.33-3.63 1.26-7.27 2.38-10.84 3.77-5.88 2.31-10.64 6.54-15.93 9.72a85 85 0 0 1-9.91 5.42 18.29 18.29 0 0 1-10.18 1.39 11.75 11.75 0 0 1-7.47-4.1 9.88 9.88 0 0 0-2.38-2.58 5.89 5.89 0 0 0-3.7-1.06c-1.52.26-2.25 1.85-2.38 3.3a9 9 0 0 0 .4 4.43 14.55 14.55 0 0 0 4.16 6c1.32 1.06 2.84 1.78 4.16 2.84 3.63 2.84 7.8 3.24 12 2.45 4.56-.86 9.25-1.45 13.61-3.44 3.24-1.45 6.68-2.38 9.45-4.69 2-1.72 4-3.44 6.21-5a61.43 61.43 0 0 1 8.2-5 84.18 84.18 0 0 1 8.86-3.37 8.36 8.36 0 0 0 2.25.07z"/><path class="cls-2" d="M89.46 177.03a9.71 9.71 0 0 0-2.11.26 84.18 84.18 0 0 0-8.86 3.37 64.31 64.31 0 0 0-8.2 5c-2.18 1.52-4.16 3.24-6.21 5-2.78 2.38-6.21 3.3-9.45 4.69-4.36 1.92-9.05 2.51-13.61 3.44-4.23.79-8.39.4-12-2.45-1.32-1.06-2.84-1.78-4.16-2.84a15.68 15.68 0 0 1-4.16-6 10 10 0 0 1-.4-4.43c.13-1.45.86-3 2.38-3.3a6.61 6.61 0 0 1 3.7 1.06 11.25 11.25 0 0 1 2.38 2.58 11.31 11.31 0 0 0 7.47 4.1 18.38 18.38 0 0 0 10.18-1.39 72.14 72.14 0 0 0 9.91-5.42c5.35-3.24 10-7.4 15.93-9.72 3.57-1.39 7.2-2.51 10.84-3.77a6.87 6.87 0 0 0 .79-.33c-.59-.26-1.26-.53-1.85-.73a23.1 23.1 0 0 0-17.84 2.38 16.26 16.26 0 0 1-10.38 1.78 11.94 11.94 0 0 0-11 4.36c-.53.66-1.06 1.26-1.59 1.85a2.37 2.37 0 0 1-3.24.26 2.65 2.65 0 0 1-1.26-3c1.26-4.76 4.63-8.53 9.91-9.25 2.78-.4 5.49-.79 8.2-1.32 3.77-.79 6.54-3.37 9.65-5.22a22 22 0 0 1 8.66-2.84c3.83-.46 7.27 1 10.77 1.92a14.43 14.43 0 0 1 4.56 2.64c3.9 3 8.53 4.36 13.28 5.09 3.17.53 6.28.86 9.45 1.19.79.07 1.59-.26 2.45-.26 2.11 0 4.23.26 6.41.26 2.38-.07 4.82-.26 7.2-.53a29.71 29.71 0 0 0 10.31-2.91 28.42 28.42 0 0 0 4.76-2.71 15.25 15.25 0 0 0 2.64-3.11 1.09 1.09 0 0 0 0-.79c-1.32-2.38-.59-4.69.26-7a22.89 22.89 0 0 1 12.69-13.09c4.63-1.92 9.45-3.44 14.14-5a23.27 23.27 0 0 1 6.28-1.39 17.92 17.92 0 0 1 5.16 1.06c1.39.33 2 1.59 2.51 2.78s.59 2.31 2.18 2.25c2.64-.2 3-.26 3.44-2.58 1.06-5.22 4.63-7.93 9.19-9.85 2.51-1.06 5-2 7.34-3.24a34 34 0 0 1 11.24-3.63 55.11 55.11 0 0 1 15.47-.07 50.74 50.74 0 0 1 9.38 2.11 41.21 41.21 0 0 1 6.94 3.7c2.64 1.52 5.29 3 7.8 4.63a37 37 0 0 1 4.16 3.7c1.72 1.65 3.24 3.5 5 5 3.83 3.37 6.08 7.8 8.92 11.83a37.81 37.81 0 0 1 5.75 11.83 82.23 82.23 0 0 1 2.18 11.24 71.75 71.75 0 0 1 .33 9.25c0 2.58-.53 5.09-.53 7.67a38.75 38.75 0 0 1-1.59 9.58 71.26 71.26 0 0 1-4 10.84 125.71 125.71 0 0 1-6.19 11.36 34.11 34.11 0 0 1-4.82 5.42 111.65 111.65 0 0 1-15.13 13.35 53.2 53.2 0 0 1-5.35 3c-2 1.12-4.16 2.25-6.21 3.37-.86.46-1.78.86-2.71 1.26-3 1.06-5.95 2.11-8.92 3a38.11 38.11 0 0 1-9.45 1.92c-5 .26-9.91 1-14.94 1.06a35.33 35.33 0 0 1-8.66-1.39c-6.15-1.72-12.29-3.5-18.37-5.55a55.35 55.35 0 0 1-7.73-3.7c-2.64-1.45-5.22-3-7.67-4.69a45.51 45.51 0 0 1-5-4.43c-2.45-2.45-5-4.82-7.14-7.47-2.64-3.17-4.89-6.54-7.34-9.72a19.63 19.63 0 0 0-3.7-3.7 3.19 3.19 0 0 0-2.38-.4 5.32 5.32 0 0 1-5-1.72c-.59-.73-.33-2.31-.26-3.44a8.44 8.44 0 0 1 2.78-6 7.72 7.72 0 0 0-7 3.3 35.94 35.94 0 0 0-5.55 12.36c-.93 3.37-1.65 6.81-2.31 10.24a30.58 30.58 0 0 0-.33 5.49 57.3 57.3 0 0 1-2.37 17.8c-1.12 3.5-3.7 6.08-6.61 8.2-2.64 1.85-5.49 3.37-8 5.42a39.61 39.61 0 0 0-6.48 6.41 5.88 5.88 0 0 0-.91 6.61 4.1 4.1 0 0 0 3.7 2.38 3.58 3.58 0 0 0 3.24-2.45 22.73 22.73 0 0 1 2.31-3.83 1.89 1.89 0 0 1 2.51-.79 3.74 3.74 0 0 1 1.45 2.25c.46 2.38-.73 4.36-2 6.28-1.59 2.38-3.57 4.49-6.54 4.82-3.44.4-7 .46-9.38-2.91-.33-.46-.93-.66-1.32-1.12a4.55 4.55 0 0 1-1.19-1.65 32.53 32.53 0 0 1-.59-5c-.13-3 1.12-5.75 2.58-8.26 2.71-4.82 7.2-7.73 11.76-10.57a14.44 14.44 0 0 0 7.07-9.85 51.88 51.88 0 0 0 1.19-11.5 26 26 0 0 1 .4-3.17 9.76 9.76 0 0 0-.07-1.39c-2.18 2.84-4.23 5.62-6.48 8.2a34 34 0 0 1-4.49 4.23c-2.91 2.51-6.08 4.76-8.86 7.4a38.9 38.9 0 0 0-4.63 6.21c-2 3-3.83 6.08-5.82 9.05a6.39 6.39 0 0 1-2.64 2.11c-3.63 1.78-7.6 1.19-11.43 1.26-1.72 0-3.44.13-5.16.2a5 5 0 0 1-2.25-.13 2.82 2.82 0 0 1-1.65-1.85 4.83 4.83 0 0 1 1.29-2.92c2.58-2.31 5.75-2.64 8.92-1.78 2.38.66 3.9-.4 5.55-1.72s2.31-3.37 2.84-5.35.66-4.36 1.59-6.21a16.69 16.69 0 0 1 4.56-5.68 41 41 0 0 1 8.26-4.36c3.63-1.59 6-4.36 7.93-7.67 1.19-2 2.38-4.16 3.44-6.28a13.34 13.34 0 0 0 .59-2.91 15.74 15.74 0 0 1 .33-1.72c1.19-2.84 2.25-5.82 4.76-7.86a2.93 2.93 0 0 0 .53-.73c-3-.13-5.42 1.32-7.86 2.51-3.9 1.85-7.93 3.63-10.77 7.14a58.29 58.29 0 0 0-4.49 6.34 99.24 99.24 0 0 1-16.26 19.76 30.66 30.66 0 0 1-13.09 7.14 22.61 22.61 0 0 1-7.27.86 58.1 58.1 0 0 1-8.33-.4c-2.18-.33-4.23-1.39-6.41-2.11a50.28 50.28 0 0 0-6.81-2c-2.11-.33-3.9.79-5.82 1.72s-2.11 2.84-2.91 4.43c-.79 1.92-1.52 2.45-3.37 2.18a3.74 3.74 0 0 1-3.44-3.44 10.38 10.38 0 0 1 6.68-10c5.35-2.25 10.77-2 16.26-.33 5 1.45 10.24 2.38 15.47 1.65a15.35 15.35 0 0 0 6.74-3.3c3.77-2.91 7.27-6.21 10.9-9.32a41.85 41.85 0 0 0 8.72-9.65 39 39 0 0 0 3-6.54c1.26-3.17 3.7-5.22 6.21-7.14 3.7-2.84 8.26-4.1 12.62-5.22a29.6 29.6 0 0 0 15.33-9.19 69.36 69.36 0 0 0 4-5.82c.86-1.26 1.85-2.38 2.91-3.7a2.84 2.84 0 0 0-1.06 0 74.75 74.75 0 0 0-8.26 4.23c-3.17 2-6.08 4.43-9.32 6.54a34.33 34.33 0 0 1-12 4.43c-4.63 1-9.19.86-13.88 1.19a15.83 15.83 0 0 0-9.19 3.37 8.43 8.43 0 0 0-2.84 6.15c-.13 2.64.2 5.22.2 7.86.07 3.17.4 6.54-1.52 9.25-3 4.23-6.08 8.46-11.57 9.65-4.16.86-8 .46-11.17-3a9.22 9.22 0 0 1-.4-12.62c1.85-2.11 6.15-3.17 8.72-2a2.63 2.63 0 0 1 1.39 1.85 3.67 3.67 0 0 1-1 2.18 5.46 5.46 0 0 1-1.85 1.39c-2.11.79-2.11 2.51-2 4.3a2.49 2.49 0 0 0 2.64 2.25 1.79 1.79 0 0 0 1.12-.4 14.34 14.34 0 0 0 6.08-9.19 9.9 9.9 0 0 0-.59-5c-1.32-4-.33-7.6.93-11.37 1.32-4.1 4.63-6.21 8-8.33 5.09-3.17 10.71-3.9 16.52-4.36a40.19 40.19 0 0 0 8.59-2.25c4.56-1.39 7.86-4.89 11.63-7.6 1.39-1 2.78-2 4.36-3.17a7.28 7.28 0 0 0-1.19-.13 18.79 18.79 0 0 0-11.83 5.29 27.79 27.79 0 0 1-7.4 5.22c-2.58 1.19-4.89.2-7.07-1-1.26-.66-1-2.38.4-3s2.84-1 4.1-1.65a20 20 0 0 0 3.7-2.45c1.85-1.92 3.5-3.83 5.49-5.82zm158.29-41.37a3.92 3.92 0 0 0-.53.26c-1.85 1.12-3.7 2.38-5.62 3.44a4.08 4.08 0 0 1-1.59.13 4.19 4.19 0 0 1 .13-1.59c1.32-3.11 4.16-4.89 6.34-7.34a50.17 50.17 0 0 0 3.7-4.69 1.46 1.46 0 0 0-.46-1.39 17.29 17.29 0 0 0-3.17-1.45c-.93-.26-1.92-.33-2.45.93-1.06 2.38-2.11 4.69-3.17 7.07-1.26 2.71-1.85 5.82-4.23 7.73a72.8 72.8 0 0 1-6.81 4.23c-1.26.79-2.58 1.52-3.77 2.38-.86.59-1.59 1.45-2.45 2a2 2 0 0 1-1.52.33 2.11 2.11 0 0 1-.53-1.59 5.21 5.21 0 0 1 1.12-2.45c3.11-3.17 6.34-6.28 9.45-9.45a21 21 0 0 0 3-3.44c1.85-2.91 2-6.28 1.78-9.65a1.52 1.52 0 0 0-.93-1c-1.19-.4-2.51-.66-3.7-1.06s-1.26.2-1.19 1c.13 1.32.46 2.58.53 3.83 0 1.06.46 2.11-.53 3.3s-1.19 2.84-1.72 4.3a16.31 16.31 0 0 1-.93 2.71 3 3 0 0 1-1.65.79 2.5 2.5 0 0 1-.53-1.26c0-.93.26-1.85.26-2.71-.13-3.17-.26-6.41-.59-9.58-.33-3.37-.86-3.7-3.57-3.37-.26 0-.53.26-.79.26-1.39-.13-1.59.66-1.45 1.72.59 4.16 1.32 8.26 1.85 12.36a31.69 31.69 0 0 1 .4 5.62 4.11 4.11 0 0 1-1.72 3.44c-2.38 1.72-4.49 3.63-5.09 6.74a1.32 1.32 0 0 1-.53.79 1.92 1.92 0 0 1-1.19.33.92.92 0 0 1-.53-.86 10.66 10.66 0 0 1 .07-2.91c.66-3.37 1.92-6.61 2.11-10.11a17.4 17.4 0 0 0-1-7.6c-.59-1.52-1.26-3-1.78-4.56-1.19-3.44-1.32-3.5-4.69-1.85a.57.57 0 0 0-.4.2 4.66 4.66 0 0 0-1.06 1.72c-.59 4.56 1.06 8.59 2.71 12.62a11.78 11.78 0 0 1 1 6.21c-.26 1.72-.73 3.37-1.12 5-.53 2-1.06 4-1.72 5.88a4 4 0 0 1-1.06 1.06 5.26 5.26 0 0 1-1-1.12 16.35 16.35 0 0 1-.86-3.44c-.33-3.9-.73-7.8-.86-11.7s-2.11-6.94-4.89-9.45c-1.32-1.26-2.11-1.06-3.11.46a11.23 11.23 0 0 0-1.25 9.04c.93 3.5 2.31 6.87 3.57 10.31a49 49 0 0 0 2.51 6.08c2.31 4.16 4.76 8.2 7.14 12.29a11.6 11.6 0 0 1 .66 9.25 18.61 18.61 0 0 1-7.27 9.78 27.61 27.61 0 0 1-5.35 3.5c-4.3 1.78-8.72 3.11-13.09 4.69a56.63 56.63 0 0 1-22 3.57c-3.44-.13-6.94-.07-10.44 0-2.64.07-5.22.46-7.8.53a8.11 8.11 0 0 0-6.74 4.1c-.66 1-1.12 2.18-.4 3.17.4.53 1.45.66 2.25.93 1.45.46 2.91.93 4.36 1.26a4.17 4.17 0 0 0 2.38-.07c2.78-1.06 5.42-2.38 8.2-3.5 6-2.51 12.56-2.25 18.9-2.84 3-.26 6.08.26 9.12.53a1.72 1.72 0 0 1 1.72 1.78 1.93 1.93 0 0 1-1.39 2.25 11.48 11.48 0 0 1-2.58.33c-4 .13-8-.46-12 .2-5.42.86-10.38 2.51-14.67 6-1.39 1.12-2.58 3.44-2 4.43.73 1.19 1.59 2.31 2.51 3.63a19.56 19.56 0 0 1 14.08-9c2.38-.4 4.69-.86 7.07-1.19a6 6 0 0 1 1.78.33 6.9 6.9 0 0 1-.52 1.66c-1.52 2.11-3.37 3.7-6 4a2.38 2.38 0 0 0-.33.79c2-.46 3.77-.73 5.42-1.19s3.11-1.32 4.69-1.78a8 8 0 0 0 4.3-3c2.91-3.7 5.88-7.34 8.86-11 .73-.93 1.52-1.78 2.31-2.64a22.55 22.55 0 0 1 2.58-2.45c.59-.46 1.26-.13 1.19.73a25.42 25.42 0 0 1-.53 3.11 18.92 18.92 0 0 1-3 8c-2 2.71-4.23 5.35-6.41 8a30.59 30.59 0 0 1-3.3 3.83 20.81 20.81 0 0 1-8.53 4.49 29.75 29.75 0 0 0-10 4.43q-3.37 2.38-.59 5.16l.4.4c.86 1 1.72.86 2.58 0a9.55 9.55 0 0 1 5.16-2.71 12.37 12.37 0 0 0 6.61-3.77c2.25-2.38 4.56-4.63 6.87-6.87a4.25 4.25 0 0 1 1.59-.66 6 6 0 0 1 .33 2c-.33 1.39-.86 2.78-1.32 4.16-.33 1.06-.59 2.11-.93 3.17a30.44 30.44 0 0 0 3.17-3.37 5.92 5.92 0 0 0 1.12-2c.4-1.85.59-3.7 1-5.49a11.06 11.06 0 0 1 4.1-7.2 6.66 6.66 0 0 1 .59 2.25c.07.59 0 1.19.07 1.78.13 1.45.53 3 .53 4.43s-.4 2.84-.53 4.3a22.89 22.89 0 0 1-5.35 12.49c-1.85 2.31-3.63 4.69-5.68 7.34 2.51.79 4.49 1.52 6.54 2.11 1.65.53 2.18 0 1.78-1.65a10.67 10.67 0 0 1 .53-5.95c.66-2.11 1.39-4.23 2-6.41a80 80 0 0 0 3.44-22.34 36 36 0 0 1 .13-6.54 88.74 88.74 0 0 1 2.84-9.65c.79-2.38 4.43-5 7-4.89a2.67 2.67 0 0 1 2 1.12 2.26 2.26 0 0 1-.26 1.78c-.26.66-.93 1.12-1.26 1.78a14.35 14.35 0 0 0-1.85 4c-.79 4.69-.26 9.52-1.45 14.21-.93 3.44-1.26 7.07-2.11 10.57-.79 3.17-1.72 6.28-1.72 9.58 0 6.08 2.18 11.7 3.83 17.38h2.84c-.26-2.11-.53-4.16-.86-6.28s-.73-4.36-1.12-6.54c-.59-3.57-1.52-7.07-1.72-10.64-.13-2.58.59-5.16 3.63-6.28 1.39-.53 2.64-.13 2.71 1.06.2 2.78.53 5.49.53 8.26a19.1 19.1 0 0 0 3.44 10.71 87.35 87.35 0 0 0 6.81 8.33 1.4 1.4 0 0 0 1.26.26c1.32-.26 2.71-.66 4-1.06s2.38-.79 3.9-1.32c-.66-.53-.93-.66-1.19-.93-2.58-2.51-5.49-4.76-7.6-7.6-2.71-3.57-5.29-7.34-6.34-11.76a31.55 31.55 0 0 0-1.12-4.3c-1.39-3.9-3.11-7.73-4.23-11.76a12.07 12.07 0 0 1-.13-5.95c.53-1.85 2-3.5 3.11-5.16.59-.86 2.11-.4 2.58.73a5.73 5.73 0 0 1 .33 1.85c.07 1.59-.13 3.17.07 4.69a11.81 11.81 0 0 0 1 3.7c.93 2.18 2.18 4.23 3.11 6.41.79 1.85 1.32 3.9 2 5.82a23.55 23.55 0 0 0 5.88 9.45c3.24 3.17 6.68 6.21 10.84 8.06 1.85.79 4 2 6.34.2a8.42 8.42 0 0 0-1.26-.86 26.37 26.37 0 0 1-7.6-6.15c-1-1.19-2.64-2.25-2-4.36 4 1.19 7.67 3.5 12 3.7 2.91.13 5.75.46 8.66.66a2.29 2.29 0 0 0 1.06-.53c1.12-.93 2.18-1.85 3.44-2.91a5 5 0 0 0-1.32-.53c-4-.73-7.93-1.45-11.9-2-2.91-.46-5.95-.59-8.86-1.26-5.42-1.26-10.64-3.11-14.28-7.73-1.59-2-3.17-4.1-3.63-6.81-.33-2-.93-3.9-1.32-5.88a13.34 13.34 0 0 1-.07-2.31 5 5 0 0 1 1.85 1c2.38 3.11 4.63 6.28 6.94 9.38 1.45 1.92 3.57 2.58 6 3a4.93 4.93 0 0 0-.46-.79c-1.12-1.45-2.38-2.91-3.44-4.43-2-2.84-3.9-5.88-6.08-8.53-2.38-2.84-5.22-5.22-7.6-8-2.71-3.17-5-6.61-5-11 0-1.45 1.06-3 2.18-2.64a4.9 4.9 0 0 1 1.72 1.59c1.06 1.39 1.78 3 2.91 4.23a38.22 38.22 0 0 0 4.56 4c4.76 4 7.47 9.72 11.37 14.41a29.13 29.13 0 0 0 4.16 4.82 34.74 34.74 0 0 0 10.49 5.75 92.46 92.46 0 0 0 9.58 2.45c3.3.73 6.68 1.32 10 1.92a.77.77 0 0 0 .66-.13c.73-.86 1.39-1.72 2.25-2.91-1.32-.26-2.18-.4-3.17-.59-2.84-.66-5.68-1.45-8.53-1.92-4.3-.73-7.93-2.25-10.84-5.82-1.85-2.31-4.63-3.9-6.87-5.95-1.72-1.59-3.11-3.44-4.69-5.16-1.06-1.06-2.25-2-3.3-3.11a1.44 1.44 0 0 1-.07-1.45 1.91 1.91 0 0 1 1.52-.46c2.91 1.19 5.68 2.58 8.53 3.7a37.24 37.24 0 0 1 10.11 6c2.51 2 5 4 8.26 4.69 1.06.26 2.11.33 3.17.53a1.3 1.3 0 0 0-.4-.93c-1.59-2-3.24-4-4.69-6.15-.33-.46.2-1.45.26-2.25a13.2 13.2 0 0 1 1.72.33c2.51 1 5 2 7.4 3a1 1 0 0 0 .46.07 41.57 41.57 0 0 0 7.6.33 1.91 1.91 0 0 0 2-1.59c.53-2.78 1.06-5.62 1.59-8.59a13.81 13.81 0 0 0-1.65-.07c-1.65.2-3.37.33-5 .59a71.83 71.83 0 0 0-7.4 1.19 36.63 36.63 0 0 1-10 1.12 63.78 63.78 0 0 1-7.07-.59 52.27 52.27 0 0 1-9.52-2.18c-5.22-2-10.24-4.56-15.47-6.68a8.88 8.88 0 0 1-5.09-4.56c-1.19-2.51-2.11-5-1.19-8.26a18.39 18.39 0 0 1 3.24 1.26c2.91 1.78 5.62 4 8.72 5.49a46.92 46.92 0 0 0 21.81 4.76c3-.13 6-.33 9-.59 4.49-.33 8.92-.73 13.42-1.19a56.1 56.1 0 0 0 5.82-.93 1.78 1.78 0 0 0 .86-1.39 11.16 11.16 0 0 0-.4-2.38c-.86.13-1.78.26-2.64.33-2.45.13-4.82.2-7.27.33-1.45.07-2.91.2-4.36.33-2.64.26-5.29.73-7.93.79a62.88 62.88 0 0 1-7.86-.53 50 50 0 0 1-15.73-3.9 30.36 30.36 0 0 1-4.36-2.78 3.56 3.56 0 0 1-.53-1.12 2.92 2.92 0 0 1 1.06-.4c1.59.07 3.17.26 4.76.4 3.63.4 7.27.86 10.9 1.32a4.28 4.28 0 0 0 1.32-.13l.07-.4c-1.12-.4-2.25-.86-3.44-1.26-2.71-.79-5.42-1.52-8.13-2.38a3.36 3.36 0 0 1-1-1.12 2.7 2.7 0 0 1 1.19-.86 34.72 34.72 0 0 1 5.22.4c3 .46 5.95 1.12 8.92 1.59 4.82.79 9.72 1.32 14.54 2.11 4 .73 8 1 11.9-.79 2.38-1.06 1.85-.73 1.59-3-.07-.33-.26-.59-.33-.93a1.63 1.63 0 0 0-2.11-1.45c-1.45.26-3 .33-4.43.66-2.91.73-5.82 1.32-8.92.59a40.64 40.64 0 0 0-8-.93c-1.39-.07-2.78.26-4.16.26a1.89 1.89 0 0 1-2.18-1.65 1.78 1.78 0 0 1 1.72-2.11c2.11-.26 4.23-.33 6.28-.53a19 19 0 0 0 3.9-.4c2.71-.79 5.29-2 8-2.71a39.45 39.45 0 0 1 5.62-.53 1.22 1.22 0 0 0 1.06-.59c.13-.86-1.85-3.63-2.78-3.7a15.52 15.52 0 0 0-3.5 0 43 43 0 0 0-6.54.46c-4 1-8 2.31-11.9 3.63-4.43 1.45-8.72 3-13.09 4.63-3 1.06-5.95 2.38-8.92 3.37a12.67 12.67 0 0 1-6.68.59c-2-.33-4 0-6-.13a3.29 3.29 0 0 1-2.11-.93 2.81 2.81 0 0 1 .26-2 5.55 5.55 0 0 1 3.77-3c5.22-1.45 10.51-2.91 15.73-4.56 2.91-.93 5.68-2.58 8.66-3.44 5.29-1.59 10.71-3 16.06-4.16 3.57-.73 5.42-3.57 8.39-5.22l-5.68-6c-2 1.59-4 3.17-5.95 4.82a17.94 17.94 0 0 0-1.59 1.59 9.74 9.74 0 0 1-4.69 2.91c-3.37 1.12-6.61 2.45-10 3.5-3.63 1.19-7.34 2.18-11 3.17a4.37 4.37 0 0 1-1.59-.2 6.2 6.2 0 0 1 .4-1.59 2.52 2.52 0 0 1 1.06-.73c4.16-1.78 8.33-3.44 12.36-5.35 2.38-1.45 5.09-2.71 6.34-5.82zM14.27 254.36a33.46 33.46 0 0 1 2.19-3.37c2.64-3 5.88-5 10-4.63a28.25 28.25 0 0 1 6.05 1.56c4 1.26 7.8 2.91 12 3.11 8.26.46 15.53-1.65 21.48-7.6 2.18-2.18 4.16-4.56 6.28-6.81.53-.59 1.32-1 1.85-1.65 2.71-3.9 5.55-7.67 8-11.76a27 27 0 0 1 8.13-8.92c5.29-3.63 11.43-5.62 17.32-8.2 1.92-.79 4.1-1.45 5.62-2.78a76 76 0 0 0 9.58-10.51c3.11-3.9 6.28-5.16 11.1-2.64a3.42 3.42 0 0 1 1 1.19 10.9 10.9 0 0 0-2.38 1.32c-3.9 4.16-8.39 7.8-11 13-1.85 3.63-4.16 7.07-5.95 10.77-2.11 4.43-2.84 9.19-3.17 14.14-.26 4.1-.53 8.2-1.19 12.23-.59 3.77-2 7.4-5.09 10-2.71 2.25-5.62 4.16-8.46 6.28-3.7 2.78-6.87 6.08-7.93 10.84-.53 2.45-.53 5.09 1.26 7.14s3.77 4 6.81 4c1.85 0 3.7.07 5.09-1.19 2-1.78 3.7-3.9 4-6.81a3.82 3.82 0 0 0-.46-1.39 3.71 3.71 0 0 0-1.32.79c-.53.86-.79 1.85-1.32 2.71-3 5-5.35 4.63-8.92 1.78a4.94 4.94 0 0 1-2-4 11.61 11.61 0 0 1 3.5-8.26 51 51 0 0 1 9.72-7.53c3-1.85 6-3.63 7.93-6.74 2.11-3.5 2.78-7.4 3.17-11.37s.33-7.67.66-11.5a81.67 81.67 0 0 1 1.26-9 54.55 54.55 0 0 1 5.55-14.74c1.85-3.37 4.43-5.75 8.33-6.54 2.25-.46 4.49-.4 6.81-1a48.36 48.36 0 0 1 10.31-1.26c2.78-.13 5.62.26 8.46.2 3-.07 6.08-.2 9.12-.53a101.07 101.07 0 0 0 11-1.78c3.77-.86 7.4-2.25 11.1-3.44a34.7 34.7 0 0 0 5.88-2.18c3-1.78 5.29-4.43 7.73-6.94 3-3 3.11-6.61 2.51-10.24-.73-4.1-3.37-7.47-5.35-11a86.58 86.58 0 0 1-4.63-8.86c-1.72-4.23-2.91-8.66-4.43-13.15l-4 .53c.46 1.85.86 3.44 1.32 5l2.38 8.72c.93 3.3 1.26 6.81 2.84 9.91a57.55 57.55 0 0 1 2.11 5.62 50.46 50.46 0 0 0 2.11 5.75c1.85 4-.59 9.32-5 10a11.61 11.61 0 0 1-7.27-.93 30 30 0 0 1-9.65-8.33 116.41 116.41 0 0 0-9.45-10.38c-3-3-7.2-3.83-11.17-5h-.59c-2.11-.07-4.3 0-6.48-.2a3 3 0 0 0-2.76 1.13l-.79 1c-2.64 3-6.28 4.43-9.91 5.68a43.61 43.61 0 0 1-14.87 2.45c-6.68 0-13.35-.13-20.09-.79a48.34 48.34 0 0 0-17.91 1.85 65.07 65.07 0 0 0-12.62 5c-5.42 3-10.24 6.87-15.6 10-5.75 3.44-11.83 6-18.77 5.29-4.63-.53-8.46-2.38-10.64-6.81a1.61 1.61 0 0 0-1.32-.73 1.79 1.79 0 0 0-1.06 1.12 4.37 4.37 0 0 0 .13 2c.93 3.17 3.11 5.35 5.49 7.34 4.82 3.9 10.38 4.1 16.06 3.17a48.91 48.91 0 0 0 9.25-2.45 47.26 47.26 0 0 0 9.12-4.16c2.58-1.52 4.69-3.83 7.2-5.55a114.12 114.12 0 0 1 9.78-6c1.85-1 4-1.19 6-2 7-2.78 14.41-3.5 21.81-3.63 2.78 0 5.62.53 8.39.53a93.12 93.12 0 0 0 9.58-.53c3.83-.46 7.67-1.12 11.5-1.65a6.43 6.43 0 0 1 2.11.46 8.5 8.5 0 0 1-1.24 1.41 2.32 2.32 0 0 1-.93.4 77 77 0 0 1-13.28 4 113.37 113.37 0 0 0-15.33 4.6 30.51 30.51 0 0 0-6.74 3.7c-3.83 2.51-7.07 6.08-11.5 7.53a57.61 57.61 0 0 1-12 3c-4.63.53-9.19 1.06-13.22 3.5-2.25 1.32-4.69 2.58-6.15 4.89a18.39 18.39 0 0 0-2.45 13.81 15.4 15.4 0 0 1 .13 6.94 15.16 15.16 0 0 1-6.87 8.92c-1.78 1.19-3.57.2-5.29 0a3.47 3.47 0 0 1-3.17-3.17 5.25 5.25 0 0 1 1.8-4.69 35.26 35.26 0 0 0 3-2.11 1.68 1.68 0 0 0 0-1.59c-.4-.73-2.31-.53-3.3.26-2.11 1.72-2.64 4.16-3 6.61a5 5 0 0 0 2.11 4.69c.26.2.33.59.59.79.79.79 1.59 2 2.51 2.11a11.2 11.2 0 0 0 7-1.06c2.71-1.52 4.43-4 6.28-6.34 2.18-2.91 2.38-6.21 2.11-9.72a38.44 38.44 0 0 1-.26-7.27 12.22 12.22 0 0 1 2.25-6.28c3.44-4.16 8.39-5.75 13.68-6.21 4-.4 8.13-.4 12.16-.93a28.15 28.15 0 0 0 13.68-5.82c5.82-4.56 12-8.53 19.36-10.38 3.9-1 7.8-2.31 11.9-1.92a5.62 5.62 0 0 1 2 .59 1.45 1.45 0 0 1 .53.93 1.25 1.25 0 0 1-.79.46c-.86.13-1.72.2-2.58.33a15.63 15.63 0 0 0-7.93 2.71 22.5 22.5 0 0 0-6.28 6.94c-3.9 6.87-10 10.77-17.38 12.82-4 1.06-7.86 2.11-11.37 4.3-2.25 1.39-4.76 2.64-6.15 5.09a34.15 34.15 0 0 0-2.38 5 24.92 24.92 0 0 1-6.28 9.72c-2.18 2.11-4.49 4.16-6.81 6.28-.73.66-1.32 1.39-2 2-2.11 1.65-4.16 3.37-6.41 5-2.84 2-5.82 4.1-9.38 4.49a48.82 48.82 0 0 1-16.06-1.52c-2.78-.59-5.49-1.45-8.33-1.52a14.14 14.14 0 0 0-8 2.38c-2.58 1.59-3.17 3.9-3.37 6.54a13.66 13.66 0 0 1 .66 1.72zm166-122.07a8.52 8.52 0 0 1 .53 2c0 3.57.2 7 2.31 10.11.26.4-.07 1.19-.07 1.78a4.19 4.19 0 0 1-1.59-.93c-1.78-3-3.5-6-5.22-9.05-1.85-3.37-2.91-3.83-6.28-2.78a1.68 1.68 0 0 0-.79 1.06 7.13 7.13 0 0 0 1.72 2.45c2.91 2.31 4.82 5.35 6.81 8.33a22.2 22.2 0 0 1 2.71 6.74c.93 3.24 2.18 6.41 3.3 9.65.26.79.93 1.92-.33 2.38s-1.45-.93-1.78-1.65c-1.32-3.11-2.58-6.21-3.7-9.38a19.63 19.63 0 0 0-7.07-9.12c-2.51-1.92-5.09-3.77-7.6-5.68-.79-.59-1.72-1.65-2.45-1.59a22.43 22.43 0 0 0-4.56 1.65c1.12 1.26 2 2.18 3 3.17a11.22 11.22 0 0 0 2 2.25c2.11 1.45 4.36 2.78 6.61 4 1.85 1.06 3.83 2 5 3.9 2 3.37 3.83 6.87 5.62 10.38.26.46-.13 1.26-.26 1.92a4.67 4.67 0 0 1-1.72-.86c-1.19-1.45-2-3.24-3.37-4.49a57.08 57.08 0 0 0-16.19-10.57 37.84 37.84 0 0 0-6.81-1.59 2.21 2.21 0 0 0-2.38 1.52c-.33.86-.66 1.78-.93 2.71-.73 2.31-.33 4.23 2.51 4.76a51 51 0 0 0 6.34.33 19.68 19.68 0 0 1 9.91 3.11 46.82 46.82 0 0 1 5.22 4.36c2.11 1.85 4.16 3.83 6.15 5.82 2.58 2.64 5 5.49 7.73 7.86 2.11 1.78 4.43 3.44 7.6 3.3 3.44-.2 4.76-2.38 3.37-5.49a74.08 74.08 0 0 1-3.11-8.33c-1.06-3.3-2-6.68-2.84-10s-1.45-6.61-2.38-9.91c-1.12-4-2.51-7.93-3.77-11.9a3.19 3.19 0 0 0-3.24-2.25zm-49 59l-.26-.59c-1.19.53-2.64.73-3.5 1.52a58 58 0 0 0-6.34 7.53 20.41 20.41 0 0 1-6.61 5.95c-4.43 2.51-7.73 6-9.19 11-1.26 4.3-2.25 8.66-4.69 12.56-2 3.24-4.16 6.41-7.53 8.33a67.18 67.18 0 0 1-6.94 3.37 13.25 13.25 0 0 0-5.42 4.82c-1.06 1.45-1.32 3.5-1.85 5.35-1 3.44-1.72 6.94-5 9.12-2 1.32-3.9 2.84-6.68 1.85a8.56 8.56 0 0 0-3.9-.33 5.7 5.7 0 0 0-2.51.86 3.14 3.14 0 0 0-.73 1.32l1.39.2h1.19c3.3 0 6.54.07 9.85 0a7.55 7.55 0 0 0 6.81-4c2.38-4.16 5-8.33 7.53-12.43a11.74 11.74 0 0 1 2.11-2.31c1.65-1.39 3.5-2.58 5.16-4 2.18-1.85 4.3-3.9 6.48-5.82a22.14 22.14 0 0 0 6.54-9.12 60.64 60.64 0 0 1 4.1-8.92c1-1.72 2.58-3.11 3.7-4.76a50 50 0 0 0 4-6.48 33.79 33.79 0 0 1 7.73-10 31.17 31.17 0 0 0 2.71-3.17 11.71 11.71 0 0 1 1.85-1.78zm91.87 16.26l-.33.26v.73a15.22 15.22 0 0 0 7.14 9.45 24 24 0 0 0 4.16 2 81 81 0 0 0 8.79 2.11c3.17.53 6.34.53 9.52 1 3.37.53 6.68 1.32 10 1.92a2.25 2.25 0 0 0 1.59-.59c1.32-1.45 2.64-3 3.9-4.49-.59-.13-1.06-.33-1.52-.4-3.17-.53-6.28-.93-9.38-1.52a49.64 49.64 0 0 1-17.05-7.34c-4-2.64-6.94-6.54-9.58-10.57a52.75 52.75 0 0 0-8.66-10.51c-2-1.78-4-3.7-5.95-5.62-.53-.53-1.06-1.19-1.65-1.85-.07.2-.13.46-.2.66.46 4.16 2.91 7.34 5.62 10.24 3.77 4.1 8.33 7.6 11 12.56a25.08 25.08 0 0 0 10.24 10.24c.86.53 1.59 1.32 2.38 1.92l-.26.79a9.55 9.55 0 0 1-2.38 0c-1.59-.4-3-1.12-4.63-1.59-5-1.39-9.58-3.24-12-8.26a1.5 1.5 0 0 0-.66-1.12zm58.89-25.71a2.18 2.18 0 0 0-.93 0c-5.42 1.32-11 1.06-16.46 1.45a40.47 40.47 0 0 0-6.94.66 25.76 25.76 0 0 1-10.31-.2c-3.37-.59-6.61-1.78-10-2.64a36.17 36.17 0 0 1-10.57-4.69c-1.59-1.06-3.11-2.11-4.63-3.17-.93-.59-1.45-.2-1.32.79.33 2 .93 4.16 2.71 5.22a84.49 84.49 0 0 0 18.31 8.26 65.29 65.29 0 0 0 10.71 2.11c7.34.93 14.34-1.32 21.48-2.18 2.18-.26 4.36-.26 6.54-.4.73 0 1.26-.13 1.26-1.06.07-1.26.13-2.64.13-4.16zM95.56 165.01c-.53-.26-.79-.46-1.12-.59-2.11-1.06-4.36-1.78-6.28-3.11a24.62 24.62 0 0 0-9.52-4.43 18 18 0 0 0-7.27.07c-3.9.86-6.74 3.57-10.11 5.29a25 25 0 0 1-11 3.3c-3.83.07-7.14 1.12-9.45 4.56-1.59 2.38-2.11 3.17-1.78 4.89a9.21 9.21 0 0 0 1.65-1.52 14 14 0 0 1 9-5 13.28 13.28 0 0 1 3.24-.07c2.64.13 5.35.4 7.86-.66 2-.79 3.83-1.92 5.82-2.78a26.43 26.43 0 0 1 7.86-1.54c3.17-.26 6.28-.2 9.19 1.19s6.15 1.19 9.32 1a18 18 0 0 0 2.59-.6zm98.28 35.75l-.53-.26c-2.71 3.44-5.35 7-8.13 10.38a11.8 11.8 0 0 1-3.57 3.24 71.71 71.71 0 0 1-9.38 3.83 17.24 17.24 0 0 1-4.56.46c-2.11.07-4.3.13-6.48.07a7.49 7.49 0 0 1-1.85-.59 3.86 3.86 0 0 1 1.06-1.39 22.42 22.42 0 0 1 3-1c2.11-.59 4.23-1.19 6.28-1.85a2.85 2.85 0 0 0 1.12-1.06l-.26-.53-5.35 1a15.45 15.45 0 0 0-10.9 7.2 2 2 0 0 0 .17 2.66c2 2 4.16 4.1 6 5.95a31.7 31.7 0 0 1 2.64-2.58 30.32 30.32 0 0 1 11.7-5.29 14.89 14.89 0 0 0 7.53-4.3c3.3-3.77 6.41-7.67 9.58-11.57a6.06 6.06 0 0 0 1.92-4.36zm10.77 47.06a8.35 8.35 0 0 0-.26-1.45c-1-3.5-2-7.07-2.91-10.64a17.71 17.71 0 0 1-.66-5.82c.33-3.11 1.32-6.15 1.92-9.25.59-2.91.93-5.88 1.59-8.79 1.12-4.69 1.12-9.45 1.65-14.14a17.72 17.72 0 0 1 1.12-4.56 18.87 18.87 0 0 1 2.4-3.45 2.32 2.32 0 0 0-3 .53 12.89 12.89 0 0 0-3.44 6.21 48 48 0 0 0-1.32 12.29 73 73 0 0 1-1.39 12.56 95.47 95.47 0 0 1-3.43 13.61 19 19 0 0 0-1.12 7.6c.07 1.19.46 3 1.26 3.3a66.6 66.6 0 0 0 7.6 2zm9.92-45.9c-1.52 1.39-1.78 2.11-1.26 4 .59 2.25 1.26 4.49 2 6.68 1.12 3.3 2.51 6.48 3.57 9.78A35.15 35.15 0 0 0 233.91 243a1.52 1.52 0 0 0 .93.26 14.38 14.38 0 0 0 6.68-2.91 5 5 0 0 0-.73-.53 58.56 58.56 0 0 1-5.95-3.5 77 77 0 0 1-8.13-7.27 24.15 24.15 0 0 1-5.05-8.13c-1.72-4.23-2.91-8.66-5.22-12.76-.93-1.78-1.26-4.1-1.92-6.21zm-20 13.15h-.33c-.26 1.32-.53 2.58-.79 3.9-.4 2.11-.26 4.43-1.78 6.28A55 55 0 0 0 187 231c-2.31 3.5-5.75 3.83-9.38 3.9a1.21 1.21 0 0 1-.86-.53 1.18 1.18 0 0 1 .33-.86 7.39 7.39 0 0 1 1.92-1.26 10.2 10.2 0 0 0 6.08-5.95 12.83 12.83 0 0 0 .46-2.78l-.53-.13c-.66.79-1.26 1.65-1.92 2.45a18.24 18.24 0 0 1-8.72 6.15 24.51 24.51 0 0 0-4.36 1.59 1.06 1.06 0 0 0-.13 2 15.24 15.24 0 0 0 2.38 1.65c2.64 1.32 5.35 2.58 8 3.83s3.44 1 5.09-1.39a43.86 43.86 0 0 1 3.63-4.82 18.41 18.41 0 0 0 5-9.25 87.23 87.23 0 0 0 .93-9.32 4 4 0 0 0-.33-1.19zm-63.71-42.23l-.07-.33-8 .86c-.86.07-1.72.26-2.58.26h-6.08a76.74 76.74 0 0 0-7.8 0 48.84 48.84 0 0 0-6.74 1.39c-1.92.46-4 .59-5.62 1.52a22.4 22.4 0 0 0-5.68 4.63c-2.31 2.71-4.82 5-8.33 5.95a16.6 16.6 0 0 0-2.84 1.45c1.52.86 2.71 1.39 4 .86a20.44 20.44 0 0 0 4.3-2.25c2.11-1.59 3.9-3.44 6-5a18.89 18.89 0 0 1 12.56-3.83 28 28 0 0 0 9.65-1.06c4-1.06 7.93-1.92 12-3 1.7-.37 3.42-.89 5.2-1.42zm106.08-2.31a16.85 16.85 0 0 0 1.92.86c4.16 1.39 8.33 2.71 12.69 2.91a89.48 89.48 0 0 0 10.31.2c4.82-.26 9.58-.93 14.41-1.39 1.45-.13 2.91-.2 4.36-.26a1.14 1.14 0 0 0 1.19-1.45c-.07-.53-.2-1.06-.26-1.59-.13-.79-.53-.93-1.26-.66a22.27 22.27 0 0 1-3.9 1.26 26.76 26.76 0 0 1-8.59-.4l-14.94-2.78a13.37 13.37 0 0 0-1.72-.26h-1.52c1.78 1.65 4.82 1.45 6 4.63-6.48.53-12.56-.26-18.7-1.06zm36.94-23.07c-1.32-1.92-2.51-3.63-3.63-5.35-.59-1-1-.93-2-.2-2 1.59-4.1 3.37-6.41 4.16-4.36 1.59-9 2.45-13.48 3.7a13.58 13.58 0 0 0-3.3.93c-7.34 3.7-15.2 5.75-23.07 7.6-1.12.26-2.18.66-3.3 1l.07.4a12.18 12.18 0 0 0 1.65.33 16 16 0 0 1 2.51.07 13.5 13.5 0 0 0 7.6-.86c4.82-1.72 9.65-3.63 14.47-5.42 3.17-1.19 6.41-2.25 9.58-3.37a52.77 52.77 0 0 1 17.84-2.78 5.89 5.89 0 0 0 1.44-.18zm-32.91 47.72l-.4.4c1.45 1.39 2.91 2.84 4.43 4.16s3.5 2.58 5.09 4 2.71 2.91 4.1 4.3a5.24 5.24 0 0 0 2.18 1.32c2.25.53 4.49.79 6.74 1.19 3.11.53 6.21 1.19 9.32 1.65a2 2 0 0 0 1.52-.53c.79-1.32 1.52-2.78 2.31-4.3-2.11-.13-4-.26-5.88-.33a51.34 51.34 0 0 1-5.49.2 28.08 28.08 0 0 1-5.75-1.39c-3.3-1.26-5.95-3.63-8.72-5.75a27.44 27.44 0 0 0-9.45-4.89zm-31 25a4.59 4.59 0 0 0-2.38 4.76c.26 2.58 1.06 5 1.59 7.6a63.4 63.4 0 0 1 1.52 9.19c.07 2.11 1.06 3.57 1.85 5.22a1.75 1.75 0 0 0 1.32.79c2.11-.07 4.23-.26 6.41-.46a1.17 1.17 0 0 0 .66-.26c-1.92-2.18-4-4.16-5.68-6.41-3.44-4.56-4.69-9.78-4.69-15.47-.13-1.52-.4-3-.59-5zm43.36-89.55c-2.11 5.09-4.82 9.65-10.11 12 2.11-.53 4-1.32 6-2a11 11 0 0 0 5.35-3.9 9.75 9.75 0 0 1 2.11-1.92c1.26-1.06 2.51-2.11 4-3.37-2.31-1.59-4.36-3.11-6.41-4.56-1.59-1.06-2.11-.79-3.17.79a43.71 43.71 0 0 1-4.16 5.09c-.66.79-1.45 1.39-2.11 2.11l.4.46 6.94-5.95 1.19 1.19zm-73.33 73.17l-.07-.79a55.57 55.57 0 0 0-7.34-.53c-3.5.13-7 .66-10.51 1.12a66.3 66.3 0 0 0-8.06 1.39 69 69 0 0 0-6.94 2.78c-2.71 1.12-2.71 1.12-1.26 3.7 1.32 2.25 1.52 2.25 3 .13a1.35 1.35 0 0 1 .53-.53 30.56 30.56 0 0 1 11.76-5.75c4.82-1.06 9.72-1.85 14.74-1.26.79.07 1.52.26 2.31.26a8.53 8.53 0 0 0 1.84-.52zm33.57-84.07c1.32 3.7 2.91 7.27 3.77 11s-.13 7.86-1 11.83a21.51 21.51 0 0 0 3.16-2.34 3.1 3.1 0 0 0 .93-1.85 65.89 65.89 0 0 0-.46-7.2c-.53-3.77-1.26-7.6-1.78-11.37-.13-1.12-.53-1.32-1.52-1a20.43 20.43 0 0 1-3.09.93zm-64 24.85c2.78.46 5.09.53 7.07 1.32a38.61 38.61 0 0 1 11.3 6.48 40.18 40.18 0 0 0 4.36 3.11l.26-.33a11.37 11.37 0 0 0-4.63-5.35c-3.7-2.11-7.6-3.9-10.51-7.34a14.56 14.56 0 0 0-1.59-1.85 2.63 2.63 0 0 0-2-.33c-1.45 1.26-2.64 2.71-4.23 4.3zm56.64 4.82l.4.13a2.38 2.38 0 0 0 .53-1c.33-1.26.66-2.51.93-3.77a12.78 12.78 0 0 0 .53-3.83 27.09 27.09 0 0 0-1.52-5.49c-1.12-3.11-2.58-6.15-2.25-9.58a10.61 10.61 0 0 0-.46-2.64l-5.16 3a23.43 23.43 0 0 1 2.64 2.25c2.71 3 3.63 6.68 3.83 10.57l.53 10.31zm72.57 10c-.13-.46-.26-.79-.33-1.12a2 2 0 0 0-2.51-1.85c-1.45.2-3 .13-4.43.33a19.89 19.89 0 0 0-8.92 3.57 47.71 47.71 0 0 0 7.47.46c2.58-.13 5.09-.73 7.67-1.06.35-.08.77-.14 1.08-.28zm-50.89-18.31l.26.33c2.11-.2 6.68-2.91 7.8-5 2.38-4.69 4.56-9.58 6.87-14.47l-3.7-1.39a13 13 0 0 0-.2 1.59 21.61 21.61 0 0 1 .26 2.91 18 18 0 0 1-6.94 12.36c-1.52 1.12-3 2.38-4.36 3.63zm36.35 58.29l-.26.26a6.07 6.07 0 0 0 1.06 1.78c1.59 1.32 3.17 2.51 5.42 2.31a8 8 0 0 1 2.51.4c3.57 1.06 4.69.66 5.88-2.11a.84.84 0 0 0-.07-.4 31.92 31.92 0 0 1-14.51-2.18zM175 144.72l.26-.33c-1.39-1.78-2.84-3.63-4.3-5.35-1.12-1.32-2.31-2.51-3.5-3.77a1.91 1.91 0 0 0-1-.73 30.91 30.91 0 0 0-3.5 1.12v.59zm65.3 86a2.32 2.32 0 0 0 .33.53 23.65 23.65 0 0 0 7.73 4.89 1.61 1.61 0 0 0 .79 0 78.52 78.52 0 0 0 3.9-2.51l-.07-.53-12.69-2.38zm-11.76-103.5l.79.13a7.29 7.29 0 0 0 .59-2.51c0-1.59-.4-3.24-.53-4.82s-.07-1.59-1.92-1.32c.07-.07 1.06 8.53 1.06 8.53zm-53.53 4.82l3.77 5.16a19.82 19.82 0 0 0 .2-2.51c-.34-3.06-1.79-3.92-3.98-2.66z"/><path class="cls-1" d="M247.77 135.66c-1.26 3-4 4.3-6.61 5.49-4.1 1.92-8.26 3.57-12.36 5.35a2.52 2.52 0 0 0-1.06.73 6.2 6.2 0 0 0-.4 1.59 4.54 4.54 0 0 0 1.59.2c3.7-1.06 7.34-2 11-3.17 3.37-1.06 6.61-2.38 10-3.5a9.44 9.44 0 0 0 4.69-2.91 18 18 0 0 1 1.59-1.59c2-1.65 4-3.24 5.95-4.82l5.68 6c-2.91 1.65-4.76 4.49-8.39 5.22-5.42 1.12-10.77 2.58-16.06 4.16-3 .86-5.68 2.51-8.66 3.44-5.22 1.65-10.44 3.11-15.73 4.56a5.13 5.13 0 0 0-3.77 3 2.75 2.75 0 0 0-.26 2 3.45 3.45 0 0 0 2.11.93c2 .13 4.1-.26 6 .13a14.1 14.1 0 0 0 6.68-.59c3-1 5.95-2.31 8.92-3.37 4.36-1.59 8.72-3.17 13.09-4.63 3.9-1.32 7.86-2.64 11.9-3.63 2.11-.53 4.36-.33 6.54-.46a31 31 0 0 1 3.5 0c.86.13 2.91 2.91 2.78 3.7a1.31 1.31 0 0 1-1.06.59 39.44 39.44 0 0 0-5.62.53c-2.71.73-5.29 1.92-8 2.71a26 26 0 0 1-3.9.4c-2.11.2-4.23.26-6.28.53a1.78 1.78 0 0 0-1.72 2.11 1.89 1.89 0 0 0 2.18 1.65c1.39 0 2.84-.33 4.16-.26a45.59 45.59 0 0 1 8 .93c3.11.79 5.95.13 8.92-.59 1.45-.33 2.91-.46 4.43-.66a1.65 1.65 0 0 1 2.11 1.45c.07.33.26.59.33.93.33 2.31.79 1.92-1.59 3-3.9 1.78-7.86 1.52-11.9.79-4.82-.79-9.72-1.39-14.54-2.11-3-.46-5.95-1.12-8.92-1.59a34.07 34.07 0 0 0-5.22-.4 3.37 3.37 0 0 0-1.19.86 3.36 3.36 0 0 0 1 1.12c2.71.86 5.42 1.59 8.13 2.38a30.42 30.42 0 0 1 3.44 1.26l-.07.4a9 9 0 0 1-1.32.13c-3.63-.4-7.27-.86-10.9-1.32q-2.38-.3-4.76-.4a4.23 4.23 0 0 0-1.06.4 2 2 0 0 0 .53 1.12 23.2 23.2 0 0 0 4.36 2.78 49.1 49.1 0 0 0 15.73 3.9 61.83 61.83 0 0 0 7.8.53c2.58-.07 5.29-.53 7.93-.79 1.45-.13 2.91-.26 4.36-.33 2.45-.13 4.82-.2 7.27-.33.93-.07 1.78-.2 2.64-.33a8.5 8.5 0 0 1 .4 2.38 1.63 1.63 0 0 1-.86 1.39c-1.92.4-3.9.73-5.82.93-4.43.46-8.92.79-13.42 1.19-3 .26-6 .46-9 .59a46.92 46.92 0 0 1-21.81-4.76c-3.11-1.39-5.82-3.7-8.72-5.49a25.55 25.55 0 0 0-3.24-1.26c-.93 3.24 0 5.75 1.19 8.26a8.88 8.88 0 0 0 5.09 4.56c5.22 2.11 10.18 4.69 15.47 6.68a55.42 55.42 0 0 0 9.52 2.18 63.78 63.78 0 0 0 7.07.59 36.63 36.63 0 0 0 10-1.12c2.45-.53 5-.79 7.4-1.19 1.65-.26 3.37-.4 5-.59a13.81 13.81 0 0 1 1.65.07c-.53 3-1.06 5.75-1.59 8.59a1.82 1.82 0 0 1-2 1.59 42 42 0 0 1-7.6-.26 1.29 1.29 0 0 1-.46-.07l-7.4-3a7.2 7.2 0 0 0-1.72-.33c-.13.79-.59 1.78-.26 2.25 1.45 2.11 3.11 4.1 4.69 6.15a1.3 1.3 0 0 1 .4.93c-1.06-.2-2.11-.26-3.17-.53-3.24-.73-5.75-2.64-8.26-4.69a37.24 37.24 0 0 0-10.11-6c-2.91-1.12-5.68-2.58-8.53-3.7a1.65 1.65 0 0 0-1.52.46 1.44 1.44 0 0 0 .07 1.45c1.06 1.06 2.25 2 3.3 3.11 1.59 1.65 3 3.57 4.69 5.16 2.18 2.11 5 3.63 6.87 5.95 2.91 3.63 6.54 5.16 10.84 5.82 2.91.46 5.68 1.26 8.53 1.92.93.2 1.85.33 3.17.59-.86 1.12-1.52 2-2.25 2.91a.81.81 0 0 1-.66.13c-3.37-.59-6.68-1.19-10-1.92a92.47 92.47 0 0 1-9.58-2.45 34.61 34.61 0 0 1-10.51-5.75 37 37 0 0 1-4.16-4.82c-3.9-4.69-6.54-10.38-11.37-14.41a53.65 53.65 0 0 1-4.56-4 47.81 47.81 0 0 1-2.91-4.23 4.9 4.9 0 0 0-1.72-1.59c-1.06-.4-2.18 1.19-2.18 2.64 0 4.43 2.31 7.86 5 11 2.38 2.78 5.22 5.22 7.6 8s4 5.75 6.08 8.53c1.06 1.52 2.31 3 3.44 4.43a4.93 4.93 0 0 1 .46.79c-2.45-.4-4.56-1.06-6-3-2.31-3.11-4.56-6.28-6.94-9.38a5.52 5.52 0 0 0-1.85-1 13.34 13.34 0 0 0 .07 2.31c.4 2 .93 3.9 1.32 5.88.46 2.64 2 4.76 3.63 6.81 3.63 4.56 8.86 6.48 14.28 7.73 2.91.66 5.88.79 8.86 1.26 4 .59 7.93 1.32 11.9 2a5.52 5.52 0 0 1 1.32.53c-1.19 1.06-2.31 2-3.44 2.91a1.62 1.62 0 0 1-1.06.53c-2.91-.2-5.75-.53-8.66-.66-4.3-.26-7.86-2.51-12-3.7-.59 2.11 1.06 3.17 2 4.36a25.32 25.32 0 0 0 7.6 6.15 8.42 8.42 0 0 1 1.26.86c-2.31 1.78-4.43.66-6.34-.2-4.16-1.85-7.6-4.89-10.84-8.06a23.69 23.69 0 0 1-5.95-9.45c-.66-1.92-1.19-3.9-2-5.82-.93-2.18-2.18-4.23-3.11-6.41a12.3 12.3 0 0 1-1-3.7c-.2-1.59 0-3.11-.07-4.69a6.07 6.07 0 0 0-.33-1.85c-.46-1.12-2-1.59-2.58-.73-1.12 1.65-2.58 3.24-3.11 5.16a11.37 11.37 0 0 0 .13 5.95c1.19 4 2.91 7.8 4.23 11.76a31.56 31.56 0 0 1 1.12 4.3c1.06 4.49 3.7 8.26 6.34 11.76 2.11 2.84 5 5.09 7.6 7.6.26.26.53.4 1.19.93-1.45.53-2.64 1-3.9 1.32a40.06 40.06 0 0 1-4 1.06 1.63 1.63 0 0 1-1.26-.26 90.8 90.8 0 0 1-6.87-8.39 18.94 18.94 0 0 1-3.38-10.75c0-2.78-.33-5.49-.53-8.26-.07-1.12-1.39-1.52-2.71-1.06-3 1.06-3.7 3.7-3.63 6.28a84.87 84.87 0 0 0 1.72 10.64c.4 2.18.79 4.36 1.12 6.54s.53 4.16.86 6.28h-2.84c-1.65-5.68-3.9-11.24-3.83-17.38 0-3.3.93-6.41 1.72-9.58.86-3.5 1.26-7.07 2.11-10.57 1.26-4.69.66-9.52 1.45-14.21a16.55 16.55 0 0 1 1.85-4c.33-.59.93-1.12 1.26-1.78a2.26 2.26 0 0 0 .26-1.78 3.55 3.55 0 0 0-2-1.12c-2.51-.13-6.21 2.51-7 4.89a95.25 95.25 0 0 0-2.84 9.65 27 27 0 0 0-.13 6.54 80.32 80.32 0 0 1-3.44 22.34c-.59 2.18-1.39 4.3-2 6.41a10.72 10.72 0 0 0-.53 5.95c.46 1.72-.07 2.18-1.78 1.65-2-.59-4.1-1.32-6.54-2.11 2-2.64 3.83-5 5.68-7.34a23.1 23.1 0 0 0 5.35-12.49c.13-1.45.53-2.84.53-4.3a33.71 33.71 0 0 0-.53-4.43c-.07-.59 0-1.19-.07-1.78a6.66 6.66 0 0 0-.59-2.25 11.06 11.06 0 0 0-4.1 7.2c-.33 1.85-.53 3.7-1 5.49a5 5 0 0 1-1.12 2 31.52 31.52 0 0 1-3.17 3.44c.26-1.06.59-2.11.93-3.17.46-1.39 1-2.78 1.32-4.16a5.77 5.77 0 0 0-.33-2 4.25 4.25 0 0 0-1.59.66c-2.38 2.25-4.63 4.56-6.87 6.87a12.19 12.19 0 0 1-6.61 3.77 9.79 9.79 0 0 0-5.16 2.71c-.86.86-1.72 1-2.58 0l-.4-.4c-1.85-1.85-1.59-3.57.59-5.16a29.75 29.75 0 0 1 10-4.43 20.81 20.81 0 0 0 8.53-4.49 30.59 30.59 0 0 0 3.3-3.83c2.18-2.64 4.36-5.22 6.41-8 1.78-2.38 2.45-5.16 3-8a25.42 25.42 0 0 0 .53-3.11.73.73 0 0 0-1.19-.73 22.55 22.55 0 0 0-2.58 2.45 30.09 30.09 0 0 0-2.31 2.64c-3 3.7-5.88 7.4-8.86 11.1a7.64 7.64 0 0 1-4.3 3c-1.59.46-3.11 1.32-4.69 1.78a51.28 51.28 0 0 1-5.42 1.19c.26-.53.26-.79.33-.79a9 9 0 0 0 6-4 6.06 6.06 0 0 0 .53-1.65 5.67 5.67 0 0 0-1.78-.33c-2.38.33-4.69.79-7.07 1.19a19.89 19.89 0 0 0-14.08 9c-.93-1.32-1.78-2.38-2.51-3.63-.59-1.06.53-3.3 2-4.43 4.3-3.5 9.25-5.09 14.67-6 4-.66 8-.13 12-.2a11.48 11.48 0 0 0 2.58-.33c1.12-.26 1.45-1.12 1.39-2.25a1.72 1.72 0 0 0-1.72-1.78c-3-.26-6.08-.79-9.12-.53-6.34.59-12.82.33-18.9 2.84-2.71 1.12-5.42 2.38-8.2 3.5a4.17 4.17 0 0 1-2.38.07c-1.45-.33-2.91-.79-4.36-1.26-.79-.26-1.85-.33-2.25-.93-.79-1.06-.26-2.18.4-3.17a8.11 8.11 0 0 1 6.74-4.1c2.64-.13 5.22-.46 7.8-.53 3.44-.07 6.94-.13 10.44 0a58.3 58.3 0 0 0 22-3.57c4.36-1.59 8.79-3 13.09-4.69a27.61 27.61 0 0 0 5.35-3.5 19.13 19.13 0 0 0 7.27-9.78 11.08 11.08 0 0 0-.66-9.25c-2.38-4.16-4.89-8.13-7.14-12.29a49 49 0 0 1-2.51-6.08c-1.26-3.44-2.64-6.81-3.57-10.31a10.94 10.94 0 0 1 1.26-8.92c.93-1.52 1.72-1.72 3.11-.46 2.71 2.58 4.76 5.49 4.89 9.45s.53 7.8.86 11.7a14.55 14.55 0 0 0 .86 3.44 3.21 3.21 0 0 0 1 1.12 3.23 3.23 0 0 0 1.06-1.06 60 60 0 0 0 1.72-5.88 45.67 45.67 0 0 0 1.12-5 11.88 11.88 0 0 0-1-6.21c-1.72-4-3.37-8.13-2.71-12.62a4.85 4.85 0 0 1 1.06-1.72l.4-.2c3.44-1.65 3.5-1.59 4.69 1.85.53 1.52 1.19 3 1.78 4.56a18.43 18.43 0 0 1 1 7.6c-.2 3.5-1.45 6.74-2.11 10.11a14.16 14.16 0 0 0-.07 2.91.92.92 0 0 0 .53.86 2 2 0 0 0 1.19-.33 1.54 1.54 0 0 0 .53-.79c.53-3.11 2.71-5 5.09-6.74a4 4 0 0 0 1.72-3.44 40.14 40.14 0 0 0-.4-5.62c-.59-4.16-1.26-8.26-1.85-12.36-.13-1.06.07-1.85 1.45-1.72a3.73 3.73 0 0 0 .79-.26c2.71-.33 3.24 0 3.57 3.37.33 3.17.46 6.34.59 9.58 0 .93-.26 1.85-.26 2.71a2.5 2.5 0 0 0 .53 1.26 2.33 2.33 0 0 0 1.65-.79 11.9 11.9 0 0 0 .93-2.71c.53-1.45.79-3.24 1.72-4.36s.59-2.18.53-3.3c-.07-1.32-.4-2.58-.53-3.83-.07-.79.13-1.32 1.19-1 1.26.4 2.51.59 3.7 1.06a1.69 1.69 0 0 1 .93 1c.26 3.37.07 6.74-1.78 9.65a21 21 0 0 1-3 3.44c-3.17 3.17-6.34 6.28-9.45 9.45a5.21 5.21 0 0 0-1.12 2.45 2 2 0 0 0 .53 1.59 1.76 1.76 0 0 0 1.52-.33c.86-.59 1.59-1.45 2.45-2 1.19-.86 2.51-1.59 3.77-2.38a58.87 58.87 0 0 0 6.81-4.23c2.38-1.92 3-5 4.23-7.73 1.06-2.38 2.18-4.69 3.17-7.07.53-1.26 1.59-1.12 2.45-.93a11.49 11.49 0 0 1 3.17 1.45 1.69 1.69 0 0 1 .4 1.39c-1.19 1.59-2.38 3.17-3.7 4.69-2.11 2.45-5 4.23-6.34 7.34a6.18 6.18 0 0 0-.13 1.59 3.12 3.12 0 0 0 1.59-.13c1.92-1.06 3.77-2.31 5.62-3.44a1.08 1.08 0 0 0 1.06 0z"/><path class="cls-1" d="M14.27 254.36a9.94 9.94 0 0 1-.53-2c.2-2.64.79-5 3.37-6.54a13.79 13.79 0 0 1 8-2.38 51.24 51.24 0 0 1 8.35 1.53c5.29 1.19 10.71 2 16.06 1.52 3.5-.33 6.54-2.45 9.38-4.49 2.18-1.59 4.3-3.24 6.41-5 .73-.59 1.32-1.32 2-2 2.25-2.11 4.56-4.1 6.81-6.28A26.2 26.2 0 0 0 80.4 219a34.15 34.15 0 0 1 2.38-5c1.39-2.45 3.9-3.7 6.15-5.09 3.44-2.18 7.4-3.24 11.37-4.3 7.4-2 13.48-5.95 17.38-12.76a22.5 22.5 0 0 1 6.28-6.94 15.63 15.63 0 0 1 7.93-2.71c.86-.07 1.72-.2 2.58-.33a1.48 1.48 0 0 0 .79-.46 1.22 1.22 0 0 0-.53-.93 5.62 5.62 0 0 0-2-.59c-4.16-.4-7.93.93-11.9 1.92-7.34 1.85-13.48 5.75-19.36 10.38a27.54 27.54 0 0 1-13.68 5.82c-4 .53-8.13.53-12.16.93-5.22.53-10.24 2-13.68 6.21-1.32 1.59-1.92 4.1-2.25 6.28a29.79 29.79 0 0 0 .26 7.27c.26 3.44.07 6.81-2.11 9.72-1.85 2.38-3.57 4.82-6.28 6.34a11.2 11.2 0 0 1-7 1.06c-.93-.13-1.72-1.32-2.51-2.11a8.26 8.26 0 0 0-.59-.79 5 5 0 0 1-2.11-4.69c.4-2.51 1-5 3-6.61 1-.79 2.91-1 3.3-.26a1.68 1.68 0 0 1 0 1.59 31.29 31.29 0 0 1-3 2.11 5.32 5.32 0 0 0-1.78 4.69 3.36 3.36 0 0 0 3.17 3.17c1.78.26 3.5 1.19 5.29 0a15.16 15.16 0 0 0 6.87-8.92 17.55 17.55 0 0 0-.13-6.94 18.45 18.45 0 0 1 2.38-13.72c1.45-2.31 3.9-3.5 6.15-4.89 4-2.45 8.59-3 13.22-3.5a63.34 63.34 0 0 0 12-3c4.43-1.45 7.67-5 11.5-7.53a33.48 33.48 0 0 1 6.74-3.7 127.22 127.22 0 0 1 15.33-4.56 83.31 83.31 0 0 0 13.28-4 2.32 2.32 0 0 0 .93-.4c.46-.46.86-.93 1.26-1.39a6.43 6.43 0 0 0-2.11-.46c-3.83.53-7.67 1.26-11.5 1.65a92.11 92.11 0 0 1-9.58.53c-2.78 0-5.62-.53-8.39-.53-7.4.07-14.8.79-21.81 3.63-1.92.79-4.16 1-6 2a114.12 114.12 0 0 0-9.78 6c-2.51 1.72-4.63 4-7.2 5.55a56.83 56.83 0 0 1-9.12 4.16 50.26 50.26 0 0 1-9.25 2.45c-5.68.93-11.24.79-16.06-3.17-2.45-2-4.63-4.23-5.49-7.34a4.27 4.27 0 0 1-.13-2 1.64 1.64 0 0 1 1.01-1.18 1.61 1.61 0 0 1 1.32.73c2.18 4.43 6 6.34 10.64 6.81 6.94.79 13-1.85 18.77-5.29 5.29-3.17 10.18-7.07 15.6-10a56.35 56.35 0 0 1 12.67-4.99 45.72 45.72 0 0 1 17.91-1.85 185 185 0 0 0 20.09.79 43.61 43.61 0 0 0 14.87-2.45c3.63-1.32 7.2-2.71 9.91-5.68l.79-1a3.14 3.14 0 0 1 2.64-1.06 52.61 52.61 0 0 0 6.48.2h.59c4 1.12 8.13 1.85 11.17 5a127.43 127.43 0 0 1 9.45 10.38 29.19 29.19 0 0 0 9.65 8.33 11.56 11.56 0 0 0 7.27.93c4.43-.73 6.94-6 5-10-.86-1.85-1.39-3.83-2.11-5.75s-1.26-3.83-2.11-5.62c-1.59-3.17-1.92-6.61-2.84-9.91l-2.38-8.72c-.4-1.59-.79-3.17-1.32-5l4-.53c1.52 4.49 2.71 8.92 4.43 13.15a75.16 75.16 0 0 0 4.63 8.86c2 3.57 4.63 6.94 5.35 11 .59 3.63.53 7.2-2.51 10.24-2.45 2.45-4.69 5.16-7.73 6.94a26.19 26.19 0 0 1-5.88 2.18c-3.7 1.19-7.34 2.58-11.1 3.44a103.72 103.72 0 0 1-11 1.78 84.39 84.39 0 0 1-9.12.53c-2.84.07-5.62-.33-8.46-.2a48.89 48.89 0 0 0-10.31 1.26c-2.31.59-4.56.53-6.81 1-3.9.79-6.48 3.17-8.33 6.54a53.73 53.73 0 0 0-5.55 14.74 69 69 0 0 0-1.26 8.92c-.33 3.83-.26 7.67-.66 11.5s-1.06 7.86-3.17 11.37c-1.92 3.17-5 5-7.93 6.74a48.48 48.48 0 0 0-9.72 7.53 11.89 11.89 0 0 0-3.5 8.26 5.13 5.13 0 0 0 2 4c3.57 2.84 5.88 3.24 8.92-1.78.53-.86.79-1.85 1.32-2.71a3.71 3.71 0 0 1 1.32-.79 2.89 2.89 0 0 1 .46 1.39c-.26 2.91-1.92 5-4 6.81-1.39 1.26-3.3 1.26-5.09 1.19-3-.07-5-1.92-6.81-4s-1.78-4.69-1.26-7.14c1.06-4.69 4.23-8 7.93-10.84 2.78-2.11 5.75-4 8.46-6.28 3.11-2.58 4.43-6.21 5.09-10a107.84 107.84 0 0 0 1.23-12.31c.33-4.89 1.06-9.72 3.17-14.14 1.78-3.7 4-7.07 5.95-10.77 2.71-5.22 7.14-8.92 11-13a10.9 10.9 0 0 1 2.38-1.32 3.42 3.42 0 0 0-1-1.19c-4.76-2.51-7.93-1.26-11.1 2.64a69.1 69.1 0 0 1-9.58 10.51c-1.59 1.32-3.7 1.92-5.62 2.78-5.82 2.51-12 4.56-17.32 8.2a27.71 27.71 0 0 0-8.13 8.92c-2.38 4.1-5.29 7.86-8 11.76a15 15 0 0 1-1.75 1.63c-2.11 2.25-4.1 4.69-6.28 6.81-5.95 5.95-13.22 8.06-21.48 7.6-4.23-.26-8.13-1.85-12-3.11a28.25 28.25 0 0 0-6.08-1.52c-4.1-.33-7.34 1.59-10 4.63-.93 1.19-1.45 2.31-2.31 3.63z"/><path class="cls-1" d="M180.23 132.29a3.17 3.17 0 0 1 3.24 2.45c1.32 4 2.64 7.86 3.77 11.9.93 3.24 1.59 6.61 2.38 9.91s1.78 6.74 2.84 10a74.07 74.07 0 0 0 3.1 8.37c1.39 3.11.07 5.29-3.37 5.49-3.17.2-5.49-1.45-7.6-3.3-2.78-2.38-5.16-5.22-7.73-7.86-2-2-4-3.9-6.15-5.82a46.82 46.82 0 0 0-5.22-4.36 20.13 20.13 0 0 0-9.91-3.11c-2.11-.2-4.3 0-6.34-.33-2.84-.53-3.24-2.45-2.51-4.76.26-.93.59-1.85.93-2.71a2.14 2.14 0 0 1 2.38-1.52 29.19 29.19 0 0 1 6.81 1.59 56.17 56.17 0 0 1 16.19 10.57c1.32 1.26 2.18 3 3.37 4.49a5.22 5.22 0 0 0 1.72.86c.07-.66.53-1.45.26-1.92-1.78-3.5-3.57-7-5.62-10.38-1.12-1.85-3.11-2.84-5-3.9a282.39 282.39 0 0 1-6.61-4 16.92 16.92 0 0 1-2-2.25c-.86-1-1.85-1.92-3-3.17a22.43 22.43 0 0 1 4.56-1.65c.73-.07 1.65 1 2.45 1.59 2.58 1.85 5.09 3.77 7.6 5.68a19 19 0 0 1 7.07 9.12c1.12 3.17 2.38 6.28 3.7 9.38.26.73.53 2.11 1.78 1.65s.59-1.59.33-2.38c-1.06-3.17-2.38-6.34-3.3-9.65a22.2 22.2 0 0 0-2.71-6.74c-2-3-4-6-6.81-8.33a7.13 7.13 0 0 1-1.72-2.45 1.37 1.37 0 0 1 .79-1.06c3.37-1.06 4.43-.59 6.28 2.78 1.72 3 3.44 6.08 5.22 9.12a3.74 3.74 0 0 0 1.59.93c.07-.59.4-1.39.07-1.78-2.11-3.11-2.25-6.54-2.31-10.11a7.46 7.46 0 0 0-.53-2.31zm-49 59c-.59.53-1.26 1.06-1.78 1.59-.93 1.06-1.72 2.25-2.71 3.17a35.83 35.83 0 0 0-7.73 10 58.5 58.5 0 0 1-4 6.48c-1.12 1.65-2.78 3-3.7 4.76a67.65 67.65 0 0 0-4.1 8.92 22.58 22.58 0 0 1-6.54 9.12c-2.18 1.92-4.23 4-6.48 5.82-1.65 1.39-3.44 2.58-5.16 4a10 10 0 0 0-2.11 2.31c-2.58 4.1-5.16 8.2-7.53 12.43a7.48 7.48 0 0 1-6.81 4c-3.3.07-6.54 0-9.85 0a7.15 7.15 0 0 1-1.19 0 10 10 0 0 1-1.39-.2 3.62 3.62 0 0 1 .73-1.32 6 6 0 0 1 2.51-.86 10.9 10.9 0 0 1 3.9.33c2.78 1.06 4.69-.46 6.68-1.85 3.24-2.18 3.9-5.75 5-9.12.53-1.85.79-3.9 1.85-5.35a13.25 13.25 0 0 1 5.42-4.82 67.18 67.18 0 0 0 6.94-3.37c3.44-1.92 5.55-5.09 7.53-8.33 2.38-3.9 3.44-8.26 4.69-12.56 1.45-5 4.76-8.46 9.19-11a19 19 0 0 0 6.61-5.95 68.37 68.37 0 0 1 6.34-7.53c.79-.86 2.31-1.06 3.5-1.52l.2.79zm91.87 16.26a11 11 0 0 1 .86.93c2.45 5 7.07 6.87 12 8.26 1.59.46 3 1.12 4.63 1.59a9.55 9.55 0 0 0 2.38 0l.26-.79a15.92 15.92 0 0 0-2.38-1.92 24.69 24.69 0 0 1-10.24-10.24c-2.64-5-7.2-8.46-11-12.56-2.71-2.91-5.16-6.08-5.62-10.24a1.12 1.12 0 0 1 .2-.66c.66.73 1.12 1.32 1.65 1.85 2 1.92 3.9 3.83 5.95 5.62a55.12 55.12 0 0 1 8.66 10.51c2.64 4 5.55 7.93 9.58 10.57a47.23 47.23 0 0 0 17.05 7.34c3.11.59 6.28 1 9.38 1.52.46.07.93.26 1.52.4-1.32 1.59-2.58 3.11-3.9 4.49a2 2 0 0 1-1.65.59c-3.37-.59-6.68-1.45-10-1.92s-6.34-.46-9.52-1a68 68 0 0 1-8.79-2.11 17.17 17.17 0 0 1-4.16-2 14.93 14.93 0 0 1-7.14-9.45v-.73zm58.89-25.71v4.23c0 .86-.53 1-1.26 1.06-2.18.07-4.36.13-6.54.4-7.14.86-14.21 3.11-21.48 2.18A65.29 65.29 0 0 1 242 187.6a85.94 85.94 0 0 1-18.31-8.26c-1.85-1.06-2.38-3.17-2.71-5.22-.13-1 .33-1.45 1.32-.79 1.59 1.06 3.11 2.11 4.63 3.17a34.51 34.51 0 0 0 10.57 4.69 85.24 85.24 0 0 0 10 2.64c3.37.53 6.81 1 10.31.2a40.47 40.47 0 0 1 6.94-.66c5.49-.4 11-.13 16.46-1.45a2.72 2.72 0 0 1 .79-.07zM95.56 165.01a11.88 11.88 0 0 1-2.58.53c-3.17.26-6.28.46-9.32-1s-5.95-1.45-9.19-1.19a26.43 26.43 0 0 0-7.86 1.59c-2 .86-3.83 1.92-5.82 2.78-2.51 1.06-5.22.79-7.86.66a17.68 17.68 0 0 0-3.24.07c-3.57.66-6.74 2-9 5-.46.53-1.06.93-1.65 1.52-.26-1.65.2-2.58 1.78-4.89 2.31-3.37 5.62-4.43 9.45-4.49a24.12 24.12 0 0 0 11-3.3c3.37-1.78 6.21-4.43 10.11-5.29a18 18 0 0 1 7.27-.07c3.57.59 6.54 2.38 9.52 4.43a42.65 42.65 0 0 0 6.28 3.11 3.42 3.42 0 0 0 1.11.54zm98.28 35.75a7.11 7.11 0 0 1-1.78 4.49c-3.17 3.9-6.28 7.8-9.58 11.57a13.77 13.77 0 0 1-7.53 4.3 30.77 30.77 0 0 0-11.7 5.29c-.86.73-1.65 1.59-2.64 2.58-1.85-1.85-4-3.9-6-5.95a1.94 1.94 0 0 1-.2-2.64c2.51-4.1 6.28-6.28 10.9-7.2l5.35-1 .26.53a8.25 8.25 0 0 1-1.12 1.06c-2.11.66-4.16 1.26-6.28 1.85a15.71 15.71 0 0 0-3 1 4.54 4.54 0 0 0-1.06 1.39 6.07 6.07 0 0 0 1.85.59c2.11 0 4.3 0 6.48-.07a17.24 17.24 0 0 0 4.56-.46 82.21 82.21 0 0 0 9.38-3.83 11.89 11.89 0 0 0 3.57-3.24c2.78-3.44 5.42-6.94 8.13-10.38l.4.13zm10.77 47.06a55.2 55.2 0 0 1-7.6-2c-.79-.33-1.12-2.11-1.26-3.3a18.67 18.67 0 0 1 1.12-7.6 105.23 105.23 0 0 0 3.44-13.61 67.64 67.64 0 0 0 1.39-12.56 48 48 0 0 1 1.32-12.29 12.6 12.6 0 0 1 3.44-6.21 2.49 2.49 0 0 1 3-.53 26.82 26.82 0 0 0-2.38 3.44 15.38 15.38 0 0 0-1.12 4.56c-.59 4.69-.53 9.52-1.65 14.14-.66 2.91-1.06 5.82-1.59 8.79s-1.59 6.15-1.92 9.25a15.79 15.79 0 0 0 .66 5.82c.86 3.57 1.92 7.07 2.91 10.64a6.26 6.26 0 0 1 .26 1.45zm9.92-45.9c.66 2.11 1 4.43 2 6.28 2.31 4 3.5 8.46 5.22 12.76a24.15 24.15 0 0 0 5.09 8.13 85.05 85.05 0 0 0 8.13 7.27 44 44 0 0 0 5.95 3.5l.73.53a14.68 14.68 0 0 1-6.68 2.91 1.52 1.52 0 0 1-.93-.26 38.79 38.79 0 0 1-11.58-12.21 40.06 40.06 0 0 1-3.44-8.39c-1.06-3.3-2.45-6.54-3.57-9.78-.79-2.18-1.39-4.43-2-6.68-.71-1.98-.44-2.64 1.08-4.06zm-20 13.15a2.52 2.52 0 0 1 .26 1.12 73 73 0 0 1-.93 9.32 19.48 19.48 0 0 1-5 9.25 36.87 36.87 0 0 0-3.63 4.82c-1.65 2.38-2.38 2.64-5.09 1.39s-5.35-2.51-8-3.83a19.15 19.15 0 0 1-2.38-1.65c-.86-.73-.79-1.59.13-2a26.54 26.54 0 0 1 4.36-1.59c3.7-1 6.34-3.37 8.72-6.15.66-.79 1.32-1.65 1.92-2.45l.53.13a12.83 12.83 0 0 1-.46 2.78 10 10 0 0 1-6.08 5.95 7.39 7.39 0 0 0-1.92 1.26 1 1 0 0 0-.33.86 1.21 1.21 0 0 0 .86.53c3.63-.13 7.07-.46 9.38-3.9 1.32-2 3.11-3.83 4.63-5.75s1.32-4.16 1.78-6.28c.26-1.32.53-2.58.79-3.9l.4.07zm-63.71-42.23l-5.36 1.62c-4 1-8 1.92-12 3a30 30 0 0 1-9.72 1 18.89 18.89 0 0 0-12.56 3.83c-2.11 1.52-3.9 3.44-6 5a17.76 17.76 0 0 1-4.3 2.25c-1.26.53-2.45 0-4-.86a23.41 23.41 0 0 1 2.84-1.45c3.5-1 6-3.24 8.33-5.95a20.33 20.33 0 0 1 5.68-4.63c1.65-.93 3.7-1.06 5.62-1.52a46.92 46.92 0 0 1 6.74-1.39 76.73 76.73 0 0 1 7.8 0h6.08c.86 0 1.72-.2 2.58-.26l8-.86zm106.08-2.31c6.15.79 12.23 1.52 18.64 1.12-1.19-3.17-4.16-2.91-6-4.63h1.52c.53.07 1.12.13 1.72.26l14.94 2.78a26.85 26.85 0 0 0 8.59.4 20.62 20.62 0 0 0 3.9-1.26c.73-.26 1.12-.13 1.26.66a13.23 13.23 0 0 1 .26 1.59 1.16 1.16 0 0 1-1.27 1.47c-1.45.07-2.91.13-4.36.26-4.76.46-9.58 1.12-14.41 1.39a89.48 89.48 0 0 1-10.31-.2c-4.43-.26-8.53-1.59-12.69-2.91a12.09 12.09 0 0 1-1.85-.93zm36.94-23.07a9.48 9.48 0 0 1-1.45.26 54.46 54.46 0 0 0-17.84 2.78c-3.17 1.06-6.41 2.18-9.58 3.37-4.82 1.78-9.65 3.7-14.47 5.42a13.57 13.57 0 0 1-7.6.86 15.73 15.73 0 0 0-2.51-.07c-.53-.07-1.06-.2-1.65-.33l-.07-.4c1.06-.33 2.18-.73 3.3-1 7.93-1.85 15.8-3.9 23.07-7.6a17.36 17.36 0 0 1 3.3-.93c4.49-1.19 9.12-2.11 13.48-3.7 2.38-.79 4.43-2.64 6.41-4.16 1-.79 1.32-.79 2 .2 1 1.7 2.23 3.41 3.58 5.33zm-32.91 47.72a28.44 28.44 0 0 1 9.32 4.82c2.78 2.11 5.42 4.49 8.72 5.75a22 22 0 0 0 5.82 1.39 50.12 50.12 0 0 0 5.49-.2c1.92 0 3.83.2 5.88.33-.79 1.52-1.45 3-2.31 4.3a2 2 0 0 1-1.52.53c-3.11-.53-6.21-1.06-9.32-1.65-2.25-.4-4.49-.73-6.74-1.19a5 5 0 0 1-2.18-1.32c-1.45-1.39-2.64-3-4.1-4.3s-3.44-2.58-5.09-4-2.91-2.78-4.43-4.16l.46-.33zm-31 25a49.45 49.45 0 0 1 .46 5 25.31 25.31 0 0 0 4.69 15.47c1.72 2.25 3.77 4.23 5.68 6.41a2 2 0 0 1-.66.26c-2.11.2-4.23.4-6.41.46a1.59 1.59 0 0 1-1.32-.79c-.86-1.65-1.85-3.17-1.85-5.22-.07-3.11-.93-6.15-1.52-9.19-.53-2.51-1.26-5-1.59-7.6a5.11 5.11 0 0 1 2.51-4.76zm43.36-89.55l-1.19-1.32-6.94 5.95-.4-.46a16 16 0 0 0 2.11-2.11 51.7 51.7 0 0 0 4.16-5.09c1.06-1.59 1.59-1.85 3.17-.79 2.11 1.45 4.16 2.91 6.41 4.56-1.45 1.26-2.78 2.31-4 3.37a11.79 11.79 0 0 0-2.11 1.92 10.73 10.73 0 0 1-5.35 4c-2 .66-3.9 1.39-6 2 5.29-2.31 8-6.87 10.11-12zm-73.33 73.17a6.11 6.11 0 0 1-1.78.53 13.78 13.78 0 0 1-2.31-.26c-5-.66-9.91.13-14.74 1.26a29.65 29.65 0 0 0-11.76 5.75 4 4 0 0 0-.53.53c-1.52 2.11-1.72 2.11-3-.13-1.45-2.58-1.45-2.58 1.26-3.7a56.25 56.25 0 0 1 6.94-2.78 55.58 55.58 0 0 1 8.06-1.39c3.5-.46 7-1 10.51-1.12a54.77 54.77 0 0 1 7.34.53v.79zm33.57-84.07c1.06-.33 2-.59 3-.93s1.32-.07 1.52 1c.53 3.77 1.32 7.6 1.78 11.37a65.89 65.89 0 0 1 .46 7.2 3.1 3.1 0 0 1-.93 1.85 15.51 15.51 0 0 1-3.11 2.38c.86-4 1.92-7.93 1-11.83-.79-3.7-2.39-7.34-3.71-11.04z"/><path class="cls-1" d="M149.56 144.58c1.59-1.59 2.84-3 4.23-4.23a2.7 2.7 0 0 1 2 .33 7.31 7.31 0 0 1 1.59 1.85c2.84 3.37 6.81 5.22 10.51 7.34a11.37 11.37 0 0 1 4.63 5.35l-.26.33c-1.45-1.06-3-2-4.36-3.11a38.61 38.61 0 0 0-11.3-6.48c-2-.86-4.3-.93-7.07-1.39zm56.64 4.82c-.2-3.44-.33-6.81-.53-10.24-.2-3.9-1.06-7.6-3.83-10.57a23.42 23.42 0 0 0-2.64-2.25l5.09-3a10.61 10.61 0 0 1 .46 2.64c-.26 3.44 1.12 6.48 2.25 9.58a27.09 27.09 0 0 1 1.52 5.49 11 11 0 0 1-.53 3.83c-.26 1.26-.53 2.51-.93 3.77a7.23 7.23 0 0 1-.53 1l-.33-.2zm72.57 10a6.19 6.19 0 0 1-1.06.26 76.28 76.28 0 0 1-7.67 1.06 47.23 47.23 0 0 1-7.47-.46 21 21 0 0 1 8.92-3.57c1.45-.2 3-.13 4.43-.33a2 2 0 0 1 2.51 1.85 8 8 0 0 0 .34 1.24zm-50.89-18.31c1.45-1.26 2.91-2.45 4.36-3.7a18.06 18.06 0 0 0 6.87-12.36 22.63 22.63 0 0 0-.26-2.91 6.52 6.52 0 0 1 .2-1.59l3.7 1.39c-2.31 5-4.49 9.72-6.87 14.47-1.06 2.11-5.62 4.76-7.8 5l-.2-.26zm36.35 58.29a30.77 30.77 0 0 0 14.41 2.25.84.84 0 0 1 .07.4c-1.19 2.78-2.25 3.17-5.88 2.11a8 8 0 0 0-2.51-.4c-2.25.2-3.83-1.06-5.42-2.31a6.71 6.71 0 0 1-1.06-1.78zM175 144.72l-12-8.46v-.59c1.19-.4 2.31-.79 3.5-1.12a2.21 2.21 0 0 1 1 .73c1.19 1.26 2.38 2.45 3.5 3.77 1.45 1.72 2.84 3.57 4.3 5.35zm65.3 86l12.69 2.38.07.53a78.52 78.52 0 0 0-3.9 2.51.84.84 0 0 1-.79 0 22.61 22.61 0 0 1-7.73-4.89 2.32 2.32 0 0 1-.33-.53zm-11.76-103.5l-1-8.59c1.85-.26 1.85-.26 1.92 1.32s.46 3.24.53 4.82a10.71 10.71 0 0 1-.59 2.51zm-53.53 4.82c2.18-1.32 3.57-.4 3.9 2.64a12.55 12.55 0 0 1-.2 2.51z"/></svg>