<svg id="Layer_1" data-name="Layer 1" xmlns="http://www.w3.org/2000/svg" viewBox="0 0 483.66 506.9"><defs><style>.cls-1{fill:none}.cls-2{fill:#ffc107}</style></defs><title>Untitled-2</title><path class="cls-1" d="M0 0h265.2v506.9H0V0zm118.9 138.5c5.5-.2 10.3-.5 15-.7 1.4-.1 2.5.2 2 2.1-2 7.3-4.9 14.4-4.9 22.1 0 4.1-1 8.3-.2 12.2 1.7 7.6 4.4 15 6.6 22.5 1.4 4.7 3.3 9.3 4 14.1 1.1 8.1-1 16.1-2.2 24.1-1 6.1-2.4 12.1-3 18.2a145.92 145.92 0 0 0-.1 16.2 26.61 26.61 0 0 0 .9 6.3c1.2 4.3 2.5 8.5 4 12.7a188.18 188.18 0 0 0 7.3 18c3.9 8.5 9.7 16.4 9.7 26.4 0 6.6.8 13.3-.2 19.7-1.8 11.9-4.5 23.6-7.1 35.4-1.4 6.8-1.7 13.7 1.1 20.1s6.6 12.6 8.5 19.5c1.4 4.8 2.2 9.6.5 14.5a9.91 9.91 0 0 0-.7 4.4c.3 1.3 1.4 3.1 2.4 3.3a4.73 4.73 0 0 0 4-1.5 23.59 23.59 0 0 0 2.8-6c3-7.2 2.2-14.1-1.1-20.9-1.9-3.8-3.8-7.6-5.6-11.5-3.4-7.3-3.8-15.2-3.1-23 .9-10.3 5.9-19.9 6.1-30.4.1-5.7 3-11.3 1.5-17.2-2-8.2-3.5-16.6-6.1-24.6-3.2-9.7-7.4-19-11.1-28.6s-6.6-19.7-6.3-30.3c.1-2.4.3-4.9.5-7.3.4-3.6.8-7.1 1.4-10.7 1.3-7 3.2-13.9 3.9-21 .8-8.3-2.1-16-5.3-23.6-2.8-6.6-5.2-13.2-4.4-20.5a8.6 8.6 0 0 0-.1-1.6c.1-4.6-.4-9.4.4-13.9 1-6.3 3-12.4 4.6-18.6.5-2 2.4-2.7 3.9-1.3a4.83 4.83 0 0 1 1.4 2c2.3 6.3 4.9 12.5 6.6 18.9 1.3 4.8 1.3 10 1.7 14.9 1 9.8 1.3 19.5-2.6 29-4.4 10.7-7.1 21.8-5.1 33.6 1.6 10 3.4 19.9 6.9 29.3 2.8 7.4 8.6 11.6 15.6 14.4a22 22 0 0 0 3.7.5c5.9.8 11.7.3 16.5-3.1 4.2-2.8 7.8-6.7 11.2-10.5a29.74 29.74 0 0 0 6.7-13.8 30.7 30.7 0 0 1 6.3-13.7c6.7-7.9 13.9-11.2 24.8-6.3 3.2 1.4 6.6 2.6 9.8 3.9 1.8.7 3.7.8 4.5-1.2s-.3-3.7-2.1-4.8a37.64 37.64 0 0 0-16.6-6.2 31.52 31.52 0 0 0-16.5 2.1c-6.8 3-10.9 8.8-13.9 15.5-2.7 6.2-5.4 12.4-8.2 18.5-2.5 5.5-6.3 8.9-12.5 10.3-8.5 1.9-13.6.8-18.4-6.5-2.7-4-4.5-8.9-6-13.6a58.76 58.76 0 0 1-1-30.3c2-9.4 4-18.8 5.5-28.3a77.35 77.35 0 0 0-1.6-31.4c-2.1-7.8-5-15.4-7.7-23-.7-2-.5-3 1.6-4 3.1-1.6 6.8-3.3 7.4-7.1a54.77 54.77 0 0 0 .5-14c-.5-5.9-2-11.8-3-17.7-.9-5.5-1.5-11-2.6-16.4s-3-10.4-3.9-15.8c-2-10.8-5.2-20.9-12.4-29.7-6.4-7.9-13.2-15-22.2-20.2-8.4-4.9-17-4.8-25.9-3.4a104.17 104.17 0 0 0-17.3 4.3c-6.2 2.1-12.6 4.3-18.1 7.7-7.7 4.8-13.3 12-18.4 19.4C36.7 50 30 59.8 23.3 69.6a44.55 44.55 0 0 0-7.7 22.2c-.3 5.9-.2 11.7 0 17.6.1 5.3.5 10.6 1.1 15.9.5 3.4 1.9 6.6 5.1 8.7a3.9 3.9 0 0 1 1.7 2.6c.5 5.5 1.1 10.9 1.1 16.4a113.8 113.8 0 0 1-1.4 16.6c-1.5 9.5-3.3 18.9-3.3 28.5 0 3.9.2 7.8.5 11.6a49.28 49.28 0 0 0 1.5 10.1c4 13.7 8.2 27.2 12.4 40.8 2.4 7.7 5 15.2 7 23 1.7 6.7 2.7 13.7 3.8 20.5 1.1 7.3 2.5 14.6 2.5 21.9 0 9.1-1.3 18.3-2 27.5-.7 8.5-1.5 17-2.2 25.5s-1.4 17.1-1.6 25.6c-.2 6.5.1 13.1.5 19.6a15.68 15.68 0 0 0 6.1 11.8 4.63 4.63 0 0 0 4 .4c.9-.3 1.7-2 1.7-3a18.31 18.31 0 0 0-1.1-6.6c-3.9-8.4-3.1-17.2-2.6-26 .5-8.3 1.4-16.5 2.1-24.7.4-3.7.9-7.5 1.4-11.2.8-6.6 1.9-13.1 2.4-19.7.3-4.6-.2-9.2-.4-13.8-.5-8.5-.9-17-1.7-25.4a130.76 130.76 0 0 0-2.2-16.5 132.6 132.6 0 0 0-6.1-21.3c-5.3-13.1-11.9-25.8-15.2-39.6-1.5-6.4-3.3-12.8-4.2-19.3a90 90 0 0 1-.5-18.7c.9-7.6 2.4-15.3 3.8-22.9 2-10.3 5.4-20.2 5.2-30.9a2.41 2.41 0 0 1 1.4-1.8 46 46 0 0 1 6.4.5 2.48 2.48 0 0 1 1.4 1.6 152.89 152.89 0 0 1 1.6 16.6c.1 11-2 21.7-5.1 32.2-2 6.4-2.6 13.2-.2 19.6 1.9 5 4.8 9.7 7.5 14.4 2.5 4.2 5.9 7.8 7.9 12.1a139.71 139.71 0 0 1 6.8 19.1 43 43 0 0 1 2.1 12.4c0 5.5-1.3 11-1.4 16.6-.2 6.2.1 12.3.5 18.5a58.74 58.74 0 0 0 2.2 10.1c3 9.8 9.2 18.6 9.9 29.2.3 4.6.9 9.5-.1 13.9-1.9 8.7-5 17.2-7.2 25.9a161.35 161.35 0 0 0-3.3 17.1c-.3 2 .5 4.5 3.2 4.9s4.2-1.1 4.9-3.6a8.8 8.8 0 0 0 .5-1.5c1.6-12.3 6.5-23.6 10.7-35.2a34.24 34.24 0 0 0 1.5-20 158.59 158.59 0 0 0-5-16.6c-2.5-6.9-5.5-13.7-8.2-20.6a24.54 24.54 0 0 1-1.7-14.2 104.59 104.59 0 0 0 2.2-15.6c.3-8.6.3-17.3-2-25.8-2.3-8.3-4.8-16.4-10.3-23.2-5.2-6.5-10.4-13-11.4-21.7-.4-4.3-1.7-8.7-1.1-12.9 1.2-7.4 4.2-14.5 4.4-22.3.2-7 .7-13.9-.2-20.9-.4-3.1-.8-6.1-1.3-9.7l11.2.8a18.19 18.19 0 0 1 0 3.3c-.9 6.5-2.3 13-1 19.5 1.3 6.9 2.1 14 4.2 20.7 3.9 12.2 8.7 24.1 13 36.1 3.4 9.6 6.8 19.2 7.3 29.5.4 7.8-.7 15.7-.9 23.6-.3 7-1.1 14.1-.3 21 1.1 10.6 4.9 20.6 8.6 30.5a91.23 91.23 0 0 1 5.9 28.7c.4 9.8-1.6 19.2-4.8 28.4s-6 18.6-8.5 28.1a81.55 81.55 0 0 0-2.5 26.5 31.43 31.43 0 0 0 1.3 6.8c2.5 7.9 5.2 15.7 7.6 23.6a48 48 0 0 1 1.4 23.8 56.75 56.75 0 0 0-1 8.4 5 5 0 0 0 4 5 5.79 5.79 0 0 0 5.7-4 55.31 55.31 0 0 0 1.1-9 139.36 139.36 0 0 0-1.1-14.5 106.34 106.34 0 0 0-2.5-13.9c-1.4-5.5-3.4-10.9-5.1-16.3-3-9.2-2.1-18.6-.8-27.9a140.46 140.46 0 0 1 4.4-19.2c2.4-7.8 5.4-15.4 8.4-23 2.2-5.6 3.7-11.4 2.5-17.1-2.2-10.9-5.4-21.8-8.1-32.6-2.5-10.1-5.2-20.1-7.6-30.2-1.8-7.7-.8-15.5-.5-23.2.2-4.2 1.2-8.3 1.5-12.5.4-4.6 1.1-9.4.4-13.8a168.74 168.74 0 0 0-5.4-20.9c-2.2-7.2-4.7-14.2-7.3-21.2-2.9-7.8-6.1-15.4-9-23.1-4.2-10.7-3.7-21.9-2.6-33.1.7-6.9 1-6.9 8.3-6.8 1.7 0 2.9.5 3.3 2.1 1.1 4.1 2.7 8.2 3 12.4.5 7.2-.1 14.4.2 21.6a116.61 116.61 0 0 0 1.4 11.7c1.3 8.6 5.2 16.3 9.2 23.8 6.4 12 8.6 24.9 8.7 38.1.1 7.5-1.6 15.1-2.6 22.6-.8 6.5-1.3 13 1.1 19.2 2.6 6.5 5.6 12.7 8.4 19.1 2.2 4.9 4 9.7 3.6 15.2a188.89 188.89 0 0 0-.5 19.9c.2 4.8 1.3 9.6 2.2 14.3.9 4.5 2.8 9 3 13.5.4 9-3 17.3-6.5 25.5-2.9 7-4.9 14.1-4.3 21.7.3 4.6.5 9.4 1.2 14 .4 3 1.5 5.9 4.8 7.3 2.7 1.1 4.9.2 4.9-2.7-.1-4.4-.4-8.8-.8-13.2-.4-4-1.6-7.9-1-12.2 1.3-7.7 5-14.4 7.4-21.7 2-6.1 4.6-12.1 4.3-18.7-.3-6.2-2.1-12.1-4.3-17.8-1.9-4.8-3.3-10-2.4-14.9a45.07 45.07 0 0 0-.8-19.7c-2.1-9.3-4.9-18.4-7.1-27.7a55.23 55.23 0 0 1-1.6-12.7c.1-5.7 1.2-11.4 1.4-17.2a117.53 117.53 0 0 0-2.2-29 167.87 167.87 0 0 0-4.9-18.5c-2.1-6.2-5-12.2-7.7-18.2-4.9-10.8-5.9-22.3-6-33.9 0-5.4.1-10.8-1.6-16.1a65.12 65.12 0 0 1-1.4-7.8c4.5.3 8.4.7 12.4.7a2.91 2.91 0 0 1 3.2 2.2c1.4 4.5 2.8 9 4 13.6 1.5 6.1 3.6 12.2 4 18.5.9 12 .9 24.1 1.3 36.1a45.35 45.35 0 0 0 .9 7.4c2.4 10.8 5 21.5 7.3 32.3a47.64 47.64 0 0 1-.8 24c-1.6 5.4-3.8 10.6-3.2 16.6a60.7 60.7 0 0 0 8.9 25.8 65.54 65.54 0 0 1 5.9 12.9c3.1 9.2 4.6 18.8 5.7 28.5a41.21 41.21 0 0 1-2.5 20c-2.1 5.3-4.2 10.7-3.7 16.6.2 2.6 2.6 5.4 4.8 5.2 2-.1 3.3-2.3 3.5-5 .2-2.5.3-5.1 1.3-7.3a55 55 0 0 0 5.1-22.9 168.23 168.23 0 0 0-1.6-18.8c-.7-5.2-1.3-10.6-3.1-15.4-3.1-8.5-7.1-16.7-10.7-25-2.5-5.6-5-11.2-4.1-17.6.5-3.9 1.6-7.7 2.4-11.5a62.12 62.12 0 0 0 .1-26.8c-1.7-8-3.6-16-5.2-24a145.91 145.91 0 0 1-2.7-29.5 66 66 0 0 0-.1-7.7c-.7-7.7-1.3-15.4-2.1-23.1-.5-4.8-1.2-9.6-2-14.3a82.94 82.94 0 0 0-1.9-10.9z"/><path class="cls-2" d="M118.9 138.5c.8 3.7 1.6 7.2 2.1 10.7.8 4.8 1.5 9.6 2 14.3q1.2 11.55 2.1 23.1c.2 2.5.1 5.1.1 7.7a145.91 145.91 0 0 0 2.7 29.5c1.6 8 3.5 16 5.2 24a62.12 62.12 0 0 1-.1 26.8c-.8 3.8-1.9 7.6-2.4 11.5-.9 6.3 1.6 11.9 4.1 17.6 3.7 8.3 7.6 16.5 10.7 25 1.8 4.9 2.4 10.2 3.1 15.4a147.45 147.45 0 0 1 1.6 18.8 54.17 54.17 0 0 1-5.1 22.9c-1 2.2-1.1 4.9-1.3 7.3-.2 2.8-1.5 5-3.5 5-2.2.1-4.6-2.7-4.8-5.2-.4-5.9 1.6-11.3 3.7-16.6a41.21 41.21 0 0 0 2.5-20c-1.1-9.7-2.6-19.3-5.7-28.5a68.29 68.29 0 0 0-5.9-12.9 62.08 62.08 0 0 1-8.9-25.8c-.6-6 1.6-11.2 3.2-16.6a47.6 47.6 0 0 0 .8-24c-2.3-10.8-4.9-21.5-7.3-32.3a48.17 48.17 0 0 1-.9-7.4c-.4-12-.4-24.1-1.3-36.1-.5-6.2-2.5-12.4-4-18.5-1.1-4.5-2.7-9-4-13.6-.5-1.6-1.4-2.2-3.2-2.2-3.9-.1-7.9-.4-12.4-.7a73.32 73.32 0 0 0 1.4 7.8c1.6 5.2 1.5 10.7 1.6 16.1.1 11.6 1.1 23.1 6 33.9 2.7 6 5.5 12 7.7 18.2a167.87 167.87 0 0 1 4.9 18.5 117.89 117.89 0 0 1 2.2 29c-.2 5.7-1.4 11.4-1.4 17.2a49.13 49.13 0 0 0 1.6 12.7c2.2 9.2 4.9 18.4 7.1 27.7a48.39 48.39 0 0 1 .8 19.7c-.9 4.9.5 10.1 2.4 14.9a54.61 54.61 0 0 1 4.3 17.8c.3 6.6-2.2 12.6-4.3 18.7-2.4 7.2-6.1 14-7.4 21.7-.7 4.3.5 8.1 1 12.2.4 4.4.8 8.8.8 13.2 0 2.9-2.2 3.9-4.9 2.7-3.3-1.4-4.3-4.3-4.8-7.3-.7-4.6-.9-9.3-1.2-14-.5-7.6 1.4-14.7 4.3-21.7 3.4-8.1 6.8-16.5 6.5-25.5-.2-4.5-2.1-9-3-13.5-.9-4.8-2-9.5-2.2-14.3a188.89 188.89 0 0 1 .5-19.9c.4-5.5-1.4-10.4-3.6-15.2-2.8-6.3-5.9-12.6-8.4-19.1-2.5-6.2-2-12.7-1.1-19.2 1-7.5 2.7-15.1 2.6-22.6-.2-13.2-2.4-26.1-8.7-38.1-4-7.5-8-15.2-9.2-23.8a116.61 116.61 0 0 1-1.4-11.7c-.2-7.2.3-14.4-.2-21.6-.3-4.2-1.9-8.3-3-12.4-.4-1.6-1.6-2.1-3.3-2.1-7.2-.1-7.6-.1-8.3 6.8-1 11.2-1.5 22.3 2.6 33.1 3 7.7 6.2 15.4 9.1 23.1 2.6 7 5.1 14.1 7.3 21.2a168.74 168.74 0 0 1 5.4 20.9c.8 4.4 0 9.2-.4 13.8-.3 4.2-1.4 8.3-1.5 12.5-.3 7.7-1.3 15.5.5 23.2 2.4 10.1 5 20.2 7.6 30.2 2.7 10.9 5.8 21.7 8.1 32.6 1.2 5.7-.3 11.5-2.5 17.1-3 7.6-6 15.2-8.4 23a127.06 127.06 0 0 0-4.4 19.2c-1.4 9.3-2.2 18.7.8 27.9 1.7 5.4 3.7 10.8 5.1 16.3a109.43 109.43 0 0 1 2.5 13.9 141.47 141.47 0 0 1 1.1 14.5 38.89 38.89 0 0 1-1.1 9c-.4 2.4-3.4 4.3-5.7 4a4.87 4.87 0 0 1-4-5 80.13 80.13 0 0 1 1-8.4 49.18 49.18 0 0 0-1.4-23.8c-2.4-7.9-5.1-15.7-7.6-23.6a31.43 31.43 0 0 1-1.3-6.8 81.3 81.3 0 0 1 2.5-26.5c2.6-9.4 5.4-18.8 8.5-28.1s5.2-18.6 4.8-28.4a92.41 92.41 0 0 0-5.9-28.8c-3.8-9.9-7.5-19.9-8.6-30.5-.7-6.9.1-14 .3-21 .3-7.9 1.3-15.7.9-23.6-.5-10.2-3.9-19.9-7.3-29.5-4.3-12.1-9.1-24-13-36.1-2.1-6.7-2.9-13.7-4.2-20.7-1.2-6.6.2-13 1-19.5a18.19 18.19 0 0 0 0-3.3l-11.1-.8c.5 3.6.9 6.6 1.3 9.7.9 6.9.3 13.9.2 20.9-.2 7.8-3.2 14.8-4.4 22.3-.7 4.1.6 8.5 1.1 12.9.9 8.7 6.2 15.3 11.4 21.7 5.5 6.9 8 15 10.3 23.3 2.4 8.5 2.4 17.2 2 25.8a94.16 94.16 0 0 1-2.2 15.7c-1 5-.1 9.6 1.7 14.2 2.7 6.8 5.7 13.6 8.2 20.6a132.53 132.53 0 0 1 5 16.6 34.24 34.24 0 0 1-1.5 20c-4.1 11.5-9 22.9-10.7 35.2-.2.5-.3 1-.5 1.5-.7 2.5-2.2 4-4.9 3.6s-3.5-2.9-3.2-4.9a171.72 171.72 0 0 1 3.3-17.1c2.2-8.7 5.3-17.2 7.2-25.9 1-4.4.3-9.2.1-13.9-.7-10.6-6.9-19.4-9.9-29.2a44.51 44.51 0 0 1-2.2-10.1 162.66 162.66 0 0 1-.5-18.5c.2-5.5 1.4-11.1 1.4-16.6a43.57 43.57 0 0 0-2.1-12.4 139.71 139.71 0 0 0-6.8-19.1c-2-4.3-5.4-7.9-7.9-12.1-2.7-4.6-5.6-9.4-7.5-14.4-2.5-6.4-1.8-13.2.1-19.6 3.2-10.6 5.2-21.2 5.1-32.2-.1-5.5-1-11.1-1.6-16.6a2.48 2.48 0 0 0-1.4-1.6 34.52 34.52 0 0 0-6.4-.5 2.41 2.41 0 0 0-1.4 1.8c.2 10.6-3.3 20.6-5.2 30.9a202.55 202.55 0 0 0-3.4 23 90 90 0 0 0 .5 18.7c.8 6.5 2.6 12.9 4.2 19.3 3.4 13.8 9.9 26.5 15.2 39.6 2.7 6.8 4.4 14.1 6.1 21.3a164.48 164.48 0 0 1 2.2 16.6c.7 8.4 1.2 16.9 1.7 25.4.3 4.6.8 9.2.4 13.8-.4 6.6-1.5 13.2-2.4 19.7-.4 3.7-1 7.4-1.4 11.2-.8 8.3-1.6 16.5-2.1 24.7-.5 8.7-1.4 17.6 2.6 26a15.82 15.82 0 0 1 1.1 6.6 4 4 0 0 1-1.7 3 5 5 0 0 1-4-.4 15.85 15.85 0 0 1-6.1-11.8c-.4-6.5-.7-13.1-.5-19.6.3-8.5 1-17.1 1.6-25.6s1.5-17 2.2-25.5c.8-9.1 2-18.3 2-27.5 0-7.3-1.4-14.6-2.5-21.9a200.07 200.07 0 0 0-3.8-20.5c-2-7.8-4.6-15.3-7-23-4.2-13.6-8.4-27.2-12.4-40.8a55.91 55.91 0 0 1-1.5-10.1c-.3-3.9-.5-7.8-.5-11.6.1-9.6 1.9-19.1 3.3-28.5a102.36 102.36 0 0 0 1.4-16.6 129.07 129.07 0 0 0-1.1-16.4 4.36 4.36 0 0 0-1.7-2.7c-3.3-2-4.6-5.3-5.1-8.7a120.2 120.2 0 0 1-1.1-15.9c-.2-5.9-.3-11.7 0-17.6A42.4 42.4 0 0 1 24 69.6c6.3-9.8 13-19.6 19.7-29.3 5.2-7.4 10.8-14.7 18.4-19.4 5.5-3.4 11.9-5.6 18.1-7.7a112.17 112.17 0 0 1 17.3-4.3c8.9-1.4 17.4-1.4 25.9 3.4 9 5.2 15.8 12.3 22.2 20.2 7.1 8.7 10.4 18.9 12.4 29.7 1 5.3 2.8 10.5 3.9 15.8s1.7 10.9 2.6 16.4c1 5.9 2.4 11.8 3 17.7a59.71 59.71 0 0 1-.5 14c-.6 3.8-4.3 5.5-7.4 7.1-2.1 1-2.3 2-1.6 4 2.7 7.7 5.6 15.2 7.7 23a75.55 75.55 0 0 1 1.6 31.4c-1.4 9.5-3.5 18.9-5.5 28.3a58.76 58.76 0 0 0 1 30.3 55.21 55.21 0 0 0 6 13.6c4.9 7.3 10 8.4 18.4 6.5a17.27 17.27 0 0 0 12.5-10.3c2.8-6.2 5.5-12.4 8.2-18.5 3-6.7 7.1-12.5 13.9-15.5a32.71 32.71 0 0 1 16.5-2.1 37.64 37.64 0 0 1 16.6 6.2c1.8 1.2 3 2.7 2.1 4.8s-2.7 1.9-4.5 1.2c-3.3-1.3-6.6-2.5-9.8-3.9-10.9-4.8-18.1-1.6-24.8 6.3a29.74 29.74 0 0 0-6.3 13.7 29.74 29.74 0 0 1-6.7 13.8c-3.4 3.8-7 7.7-11.2 10.5-4.8 3.3-10.7 3.9-16.5 3.1a20.67 20.67 0 0 1-3.7-.5c-7-2.8-12.8-7-15.6-14.4-3.6-9.5-5.3-19.4-6.9-29.3-2-11.8.8-22.9 5.1-33.6 3.9-9.5 3.6-19.1 2.6-29-.5-5-.5-10.1-1.7-14.9-1.7-6.5-4.3-12.6-6.6-18.9a5.58 5.58 0 0 0-1.4-2c-1.5-1.4-3.4-.7-3.9 1.3-1.6 6.2-3.6 12.4-4.6 18.6-.8 4.5-.3 9.3-.4 13.9 0 .5.1 1.1.1 1.6-.8 7.3 1.6 13.9 4.4 20.5 3.2 7.5 6.1 15.3 5.3 23.6-.7 7.1-2.6 14-3.9 21-.6 3.5-1 7.1-1.4 10.7a59.68 59.68 0 0 0-.5 7.3c-.2 10.6 2.6 20.5 6.3 30.3 3.7 9.6 7.9 18.9 11.1 28.6 2.6 8 4.1 16.4 6.1 24.6 1.5 5.9-1.4 11.5-1.5 17.2-.2 10.6-5.2 20.1-6.1 30.4-.7 7.8-.3 15.7 3.1 23 1.8 3.9 3.8 7.7 5.6 11.5 3.3 6.8 4.1 13.8 1.1 20.9-.9 2-1.5 4.3-2.8 6a4.73 4.73 0 0 1-4 1.5c-1-.3-2.1-2-2.4-3.3a8.52 8.52 0 0 1 .7-4.4c1.6-4.9.8-9.7-.5-14.5-2-6.9-5.6-13-8.5-19.5s-2.6-13.2-1.1-20.1c2.5-11.8 5.2-23.5 7.1-35.4 1-6.5.2-13.1.2-19.7 0-10-5.7-17.8-9.7-26.4-2.7-5.9-5-12-7.3-18-1.5-4.2-2.8-8.4-4-12.7a27.37 27.37 0 0 1-.9-6.3 145.92 145.92 0 0 1 .1-16.2c.6-6.1 2-12.1 3-18.2 1.3-8 3.3-16 2.2-24.1-.7-4.8-2.6-9.4-4-14.1-2.2-7.5-4.9-14.9-6.6-22.5-.9-3.8.2-8.1.2-12.2 0-7.8 2.9-14.9 4.9-22.1.5-2-.5-2.2-2-2.1-5.2.3-10 .5-15.5.8zm13.9-2.9c7.8.6 15.9-1.5 24-3.5 2.8-.7 6.3-3 7.5-5.5 1.5-3.3 1.5-7.6 1.2-11.4-.4-6-1.7-12-2.6-18-.7-4.8-1.1-9.6-2.1-14.3-1.1-5.7-2.6-11.4-4-17.2-1.3-5.5-2.2-11-4-16.3-3.3-9.5-9.4-17.2-16.2-24.4a77.92 77.92 0 0 0-10.7-9.1c-6.2-4.6-13.1-7.1-20.9-6.1-5.7.8-11.5 1.6-17.1 2.8-3.7.8-7.2 2.5-10.8 3.7-3.2 1.1-6.6 1.7-9.5 3.4-9.5 5.7-16.5 13.9-22.7 22.9-4.6 6.8-9.1 13.7-14.1 20.2s-9.2 13.2-11.5 21c-2.1 6.9-2.1 14.1-1.7 21.3.4 7 .3 14 2.1 20.9.9 3.2 2.7 5.6 5.5 5.7 4.3.2 8.5.3 12.7.5 7.1.5 14.2 1.1 21.3 1.6 8.1.5 16.3.8 24.4 1.1 7.1.3 14.2.5 21.2.5 9.1.3 18.2.2 28 .2zM96.2 494.5c0-.3-.2.4.1.8a19.93 19.93 0 0 0 1.9 2.4c.4-.8 1.2-1.5 1.3-2.2a66.43 66.43 0 0 0 1-9.9c0-3.1-.9-6.2-1-9.4a77.61 77.61 0 0 0-4.9-25.7c-3.3-9.4-5.5-18.9-3.9-28.9.4-2.6.4-5.2 1-7.7 1.7-6.5 3.6-13 5.6-19.5 2.1-6.8 4.2-13.6 6.8-20.2 3.4-8.6 4.6-17.2 2-26.2-3.7-12.8-7.4-25.6-10.7-38.6-1.9-7.3-3.8-14.7-4.5-22.2-.7-6.7.1-13.6.4-20.3.2-3.2 1.1-6.3 1.4-9.5.4-5.1 1.3-10.4.5-15.4a110.55 110.55 0 0 0-5.4-20.3c-3.7-11-7.4-22.1-12-32.8s-7.5-21.8-7.5-33.5a69.21 69.21 0 0 1 1.8-14.4c.7-2.8-.2-3.7-2.5-4.2s-3.6.4-3.8 3.2c-.3 6-.5 12-.5 18-.1 6.9 1.6 13.7 3.8 20.2 5.1 14.8 10.4 29.5 15.5 44.3 4.3 12.5 6.8 25.2 4.9 38.7-1.2 8.5-.8 17.3-.7 25.9.2 9.5 3.3 18.4 6.5 27.2 5.2 14.4 9.9 29 8.1 44.6a103.59 103.59 0 0 1-3 15.7c-3.1 11-6.8 21.9-9.7 33-1.4 5.4-1.9 11.1-2.5 16.7-.9 8.4 1.7 16.2 4.5 23.8s5.8 15.3 6.7 23.5a48.07 48.07 0 0 1 .2 8.5 112.56 112.56 0 0 1-1.4 14.4zm20.5-57.7l1.1-.3c-.4-4.6-.4-9.3-1.2-13.8-1.2-6.5-1.4-12.6 1.3-18.8 3-7.2 5.4-14.7 8.1-22a29.68 29.68 0 0 0 .5-18.4c-1.4-4.7-3-9.3-4.2-14.1-.9-3.7-2.4-7.8-1.5-11.2 1.5-5.7.9-11-.2-16.4a189.78 189.78 0 0 0-5.6-22.2c-4.1-12.1-3.3-24.4-2.4-36.8.5-6.7.1-13.5 0-20.3a39.8 39.8 0 0 0-.8-5.9 147.24 147.24 0 0 0-3-14.7c-2.1-6.9-4.2-14.1-7.4-20.6a78 78 0 0 1-8.4-30.2c-.5-8.6-.4-17.2-1.3-25.8-.7-7.5-1.7-8.2-7.7-7.6a1.38 1.38 0 0 0-.4.3 29.17 29.17 0 0 1 1.4 3.1c1 3.8 2.6 7.5 2.8 11.3.6 8.4.4 16.9.7 25.3.2 3.4.3 7.1 1.5 10.3a218.06 218.06 0 0 0 9.8 23.4 72.4 72.4 0 0 1 7.7 33.4 141.72 141.72 0 0 1-2.2 22.5c-1.4 8.1-1.2 16 1.7 23.5 2.6 6.9 6 13.6 9.2 20.2a28.91 28.91 0 0 1 2.7 13c-.1 6.5-1 12.9-.7 19.2a72.85 72.85 0 0 0 3 16c1.7 5.9 3.2 11.8 2 17.8a124.26 124.26 0 0 1-5.6 18.9c-2.5 6.5-4.6 13-4.9 19.9-.2 4.7.8 9.5 1.4 14.2.4 2.4.4 5.1 2.6 6.8zm46.3 10.1l.8.2c3.9-3.1 3.9-7.9 3.8-12-.2-4.9-2.1-9.8-3.6-14.7-2.1-6.3-4.9-12.4-6.7-18.8-1.1-3.8-1.9-8.1-1.2-12 2-12 4.6-24 7.2-35.9a51.72 51.72 0 0 0 .6-19.2 117 117 0 0 0-5.2-19.3c-2.7-7.9-6.1-15.5-9.3-23.3-5.7-13.8-8.7-27.8-7.3-42.9.9-9.4 3.7-18.4 5-27.7a33.71 33.71 0 0 0-.3-13.8c-1.4-5-3-9.8-4.9-14.7-2.2-5.7-4.2-11.4-4.5-17.5a78.76 78.76 0 0 1 4.2-30.8 57.46 57.46 0 0 0 1.5-7.2c-4.4-.3-4.8-.1-5.7 3.7-.2.6-.3 1.2-.5 1.8a82.51 82.51 0 0 0-4.3 22c-.8 10.8 3.1 20.6 6.6 30.4 2.5 6.9 5.5 13.7 4.8 21.3-.5 5.5-1.2 11-2.2 16.5-1.9 9.8-3.6 19.6-3.3 29.7.2 7.2.9 14.1 3.3 20.8 3 8.3 5.8 16.6 10.1 24.4 5.3 9.5 9.8 19.4 9.5 30.6a143.29 143.29 0 0 1-1.7 20.7c-1.9 10.7-5.4 21.1-6.6 31.9-.5 4.5-.9 9.1.8 13.3 2.4 6.3 5.6 12.3 8.1 18.6 2.6 6.7 4.6 13.6 1.3 20.8-.6 1-.3 2.2-.3 3.1zM70.5 397c1.7-6.6 3.1-12.8 5-18.9 2.2-7.2 4.8-14.2 7.2-21.2a30.39 30.39 0 0 0 .7-18.6 290.85 290.85 0 0 0-10.7-30.1c-3.3-8-4.6-15.7-2.8-24.3a95.63 95.63 0 0 0 1.7-17.7 73.49 73.49 0 0 0-1.6-15.5c-2.1-9.6-5.2-18.9-11.4-26.8-3.8-4.8-8.3-9.4-9.6-15.6-1.3-6-3.1-12.2-2.7-18.2.5-7.4 4.1-14.4 4.3-22 .1-4 .7-8.1.8-12.1a59.68 59.68 0 0 0-.5-7.3c-.2-2.4-.4-4.6-.6-7-.2-1.5-.1-3.2-.7-4.5-.4-.9-2-1.4-3-2.1a5.13 5.13 0 0 0-1.1 1.8c.4 3.3 1.4 6.7 1.5 10.1.2 7.5.7 15-.2 22.5-.9 8-3.2 15.9-4.8 23.8-1.3 6.5.3 12.5 3.3 18 5.1 9.4 12.9 17.3 16.3 27.8 2.6 8.1 5.9 15.9 5.6 24.7-.4 9.2-.8 18.5-1.1 27.7a47.81 47.81 0 0 0 3.7 19.1c3.3 8.7 8.5 16.8 9.2 26.4.4 5.4 1 10.9-.1 16.1-2 9-5.3 17.7-7.8 26.6a111.22 111.22 0 0 0-2.7 14.2c-.2 1.4.2 2.9 2.1 3.1zm39.4-258.3c1.9 6.7 3.4 12.7 5.2 18.7a78.54 78.54 0 0 1 3.6 19.1c.3 9.2.2 18.3.7 27.5a110.76 110.76 0 0 0 1.9 15.2c1.7 10.2 6.1 19.7 7.1 30.1.7 7.8 1.1 15.3-.9 22.9-1.4 5.3-4.2 10.2-3.3 16.3 1.2 8.9 4.2 16.9 8.1 24.8 2.2 4.3 4.9 8.5 6.1 13 2.5 8.9 4 18 6.2 27.1 1.7 7.1.8 14-1.3 20.9-1.6 5.2-3.2 10.6-4.6 15.9-.7 2.6.4 4.8 1.7 5.3 1.1-4.3 1.9-8.7 3.4-12.8 2.4-6.3 4.2-12.6 3.8-19.3-.4-8.3-1.2-16.5-2.2-24.7a54.66 54.66 0 0 0-3-12.7c-3-7.5-6.6-14.8-10-22.2-3.5-7.6-4.9-15.1-2.5-23.6 2.8-9.9 4.2-20.2 1.9-30.6-2.2-9.9-4.3-19.9-6.3-29.8-.9-4.5-1.9-9-1.8-13.6a332.09 332.09 0 0 0-2.4-41.1c-.9-8.3-2.5-16.4-3.8-24.6a2.71 2.71 0 0 0-1.7-2 39.24 39.24 0 0 0-5.9.2zM50.6 434.3l1-.3c-.4-2-.3-4.2-1.2-5.9-4-7.9-2.9-16.5-2.7-24.8.2-7.8 1.3-15.6 2.1-23.4.4-4.1.7-8.3 1.3-12.3.9-6.3 2.7-12.7 2.9-19 .3-11.3.1-22.7-.7-34.1-.5-8.5-2.1-17-3.6-25.5a104.57 104.57 0 0 0-8.4-27.2 201.69 201.69 0 0 1-13.2-35.2c-1.9-7-3.3-14.2-3-21.5a14.92 14.92 0 0 0-.2-2.1c-.3-5.6-1.4-11.3-.7-16.7 1.3-9.6 3.7-19 5.7-28.5 1.5-6.9 2.7-13.8 2.2-20.8-.1-.8-.8-2.1-1.3-2.2a28.65 28.65 0 0 0-5.1.2c.6 4 1.3 7.3 1.5 10.6a124.9 124.9 0 0 1-1.9 28c-1.1 6.7-2.5 13.4-2.8 20.2-.3 5.9.7 11.9.9 17.8.3 8.1 2.7 15.8 5 23.5 3.4 11.2 7.4 22.3 11 33.5a145.94 145.94 0 0 1 5.1 17.1c1.6 7.4 2.8 14.9 3.9 22.4.9 6.6 1.7 13.2 2.1 19.8a79.54 79.54 0 0 1-.5 11.9c-.5 6.5-1.1 12.9-1.6 19.4-.7 8.9-1.5 17.8-2.2 26.6-.2 2.8-.3 5.6-.6 8.4-.9 9.9-1.8 19.8-.5 29.7a22.36 22.36 0 0 0 5.5 10.4zm100.9-297.8c.7 1.5 1.4 3.1 2 4.6 2.1 6 4.6 12 6.2 18.1a85.93 85.93 0 0 1 2.2 15.1c.3 5 .8 10.2-.2 15-1.4 7.4-3.8 14.6-6.1 21.8a54.52 54.52 0 0 0-2.5 22.7 126.52 126.52 0 0 0 6.1 27.1c2.2 6.2 5.1 12 11.8 14 4.7 1.4 9.8 1.7 14.8 2.1a8.38 8.38 0 0 0 5.5-1.7 104.72 104.72 0 0 0 11.6-10.5 24.41 24.41 0 0 0 5.8-11 63.87 63.87 0 0 1 4.2-11.8c2.8-5.9 7.4-10.8 13.6-12.8 6.9-2.2 14.1-.9 20.4 3.1a12.53 12.53 0 0 0 9.8 1.9 28.72 28.72 0 0 0-3.5-3.5 34.3 34.3 0 0 0-20.6-5.1c-9.9.7-16.6 5.6-20.9 14.1-3.3 6.5-5.7 13.5-8.9 20a27.8 27.8 0 0 1-6.3 8.7 22.48 22.48 0 0 1-17.2 4.8c-5.5-.5-10.6-2.7-13.6-7.7-5.1-8.5-7-18.1-8.1-27.8-.9-7.8 1-15.3 2.8-22.9a170.35 170.35 0 0 0 4.1-21.3 126.43 126.43 0 0 0 .5-20.4 56.06 56.06 0 0 0-2.1-12.9c-2.1-7.7-4.8-15.1-7.1-22.7-.9-3.1-1.3-3.3-4.3-1z"/><path class="cls-1" d="M132.8 135.6c-9.8 0-19 .1-28.1 0-7.1-.1-14.2-.3-21.2-.5-8.1-.3-16.3-.6-24.4-1.1-7.1-.4-14.2-1.1-21.3-1.6-4.3-.3-8.5-.4-12.7-.5-2.7-.1-4.6-2.5-5.5-5.7-1.9-6.9-1.7-13.9-2.1-20.9-.4-7.2-.3-14.4 1.7-21.3 2.3-7.8 6.6-14.5 11.5-21s9.4-13.4 14.1-20.2c6.2-9 13.3-17.2 22.9-22.9 2.8-1.7 6.3-2.4 9.5-3.4 3.6-1.3 7.1-2.9 10.8-3.7 5.6-1.3 11.4-2 17.1-2.8 7.8-1.1 14.8 1.4 20.9 6.1a84.36 84.36 0 0 1 10.7 9.1c6.8 7.2 12.9 15 16.2 24.4 1.9 5.2 2.7 10.8 4 16.3 1.4 5.7 2.8 11.4 4 17.2.9 4.7 1.4 9.6 2.1 14.3.9 6 2.1 12 2.6 18 .3 3.8.3 8-1.2 11.4-1.1 2.5-4.6 4.8-7.5 5.5-8.2 1.8-16.3 3.9-24.1 3.3zM46.3 54.1a25.75 25.75 0 0 0 .8 4c1.1 3.2 3.7 4.7 6.8 5.3 2.5.5 4.3-1 5.4-2.9s1.3-4 1.9-6a34.45 34.45 0 0 1 2.5-6.3c1.5-2.8 3.9-5.2 5.1-8.1.7-1.5.1-3.9-.7-5.4-1.1-2-3.2-3.8-5.6-2.8-2.6 1.1-5.6 2.6-7.2 4.8-3 4.3-5.3 9.2-7.8 13.9a24.15 24.15 0 0 0-1.2 3.5zm33.5-32.2c-1.7 1-4.9 2.3-7.1 4.5-1.3 1.3-2 4.6-1.1 6.1s3.8 2.7 5.9 2.9c3.7.3 8-3.4 9-6.9 1-3.8-1.1-6.6-6.7-6.6zm3.9 25.5c.2-2.4-1.8-3.7-3.6-4-2.9-.5-6.1-3.2-8.9.2a3.21 3.21 0 0 0-.3.5c-.7 2.2-1.4 4.3-2 6.5a5.06 5.06 0 0 0 3 5.7c4.1 2.1 11.4-3.3 11.8-8.9zm12.5 447.1c.6-5.3 1.3-9.8 1.6-14.4a48.3 48.3 0 0 0-.2-8.5c-.9-8.2-3.9-15.8-6.7-23.5s-5.5-15.5-4.5-23.8c.6-5.6 1-11.3 2.5-16.7 3-11 6.7-21.9 9.7-33a103.59 103.59 0 0 0 3-15.7c1.7-15.6-3-30.2-8.1-44.6-3.2-8.8-6.3-17.7-6.5-27.2-.2-8.6-.5-17.4.7-25.9 1.9-13.5-.6-26.1-4.9-38.7-5.1-14.8-10.4-29.5-15.5-44.3-2.2-6.5-3.9-13.2-3.8-20.2.1-6 .3-12 .5-18 .1-2.7 1.4-3.7 3.8-3.2 2.2.5 3.1 1.4 2.5 4.2a63.68 63.68 0 0 0-1.7 14.4c-.1 11.7 2.8 22.7 7.4 33.5s8.3 21.8 12 32.8a132.19 132.19 0 0 1 5.4 20.3c.8 5-.1 10.3-.5 15.4-.2 3.2-1.1 6.3-1.4 9.5-.4 6.8-1.1 13.7-.4 20.3a153.22 153.22 0 0 0 4.5 22.2c3.3 12.9 7.1 25.7 10.7 38.6 2.6 9 1.4 17.6-2 26.2-2.6 6.6-4.7 13.4-6.8 20.2-2 6.5-3.9 12.9-5.6 19.5-.7 2.5-.6 5.1-1 7.7-1.6 10.1.7 19.5 3.9 28.9a80.24 80.24 0 0 1 4.9 25.7c.1 3.1 1 6.2 1 9.4a83 83 0 0 1-1 9.9c-.1.8-.9 1.5-1.3 2.2a15.45 15.45 0 0 1-1.9-2.4 1.08 1.08 0 0 1-.3-.8z"/><path class="cls-1" d="M116.7 436.8c-2.2-1.6-2.2-4.3-2.5-6.7-.6-4.7-1.6-9.5-1.4-14.2.3-6.9 2.4-13.4 4.9-19.9a113.84 113.84 0 0 0 5.6-18.9c1.2-6-.3-11.9-2-17.8a72.85 72.85 0 0 1-3-16c-.3-6.4.7-12.9.7-19.2a29.19 29.19 0 0 0-2.7-13c-3.2-6.7-6.6-13.3-9.2-20.2-2.9-7.5-3-15.5-1.7-23.5a130.93 130.93 0 0 0 2.2-22.5 73.68 73.68 0 0 0-7.7-33.4 240.56 240.56 0 0 1-9.8-23.4 35.16 35.16 0 0 1-1.5-10.3c-.3-8.4-.2-16.9-.7-25.3-.3-3.8-1.8-7.6-2.8-11.3-.4-1-.9-2.1-1.4-3.1.1-.1.3-.2.4-.3 6-.5 7 .1 7.7 7.6.8 8.5.7 17.2 1.3 25.8a78 78 0 0 0 8.4 30.2c3.2 6.5 5.2 13.6 7.4 20.6a141.69 141.69 0 0 1 3 14.7 38.09 38.09 0 0 1 .8 5.9c.1 6.8.5 13.6 0 20.3-1 12.4-1.7 24.7 2.4 36.8a156.85 156.85 0 0 1 5.6 22.2c1 5.4 1.6 10.7.2 16.4-.9 3.4.6 7.5 1.5 11.2 1.1 4.8 2.8 9.4 4.2 14.1a29.68 29.68 0 0 1-.5 18.4c-2.7 7.4-5.1 14.8-8.1 22-2.6 6.2-2.5 12.4-1.3 18.8a126.3 126.3 0 0 1 1.2 13.8l-1.2.2zm46.3 10.1c0-1-.3-2.2.1-3.1 3.3-7.2 1.3-14.1-1.3-20.8-2.5-6.3-5.6-12.3-8.1-18.6-1.6-4.2-1.2-8.7-.8-13.3 1.1-10.9 4.6-21.2 6.6-31.9a143.29 143.29 0 0 0 1.7-20.7c.3-11.2-4.2-21.1-9.5-30.6-4.4-7.8-7.2-16.1-10.1-24.4-2.5-6.8-3.2-13.7-3.3-20.8-.3-10.1 1.4-19.9 3.3-29.7 1-5.5 1.7-10.9 2.2-16.5.7-7.5-2.3-14.3-4.8-21.3-3.6-9.8-7.3-19.7-6.6-30.4a82.5 82.5 0 0 1 4.3-22 12.09 12.09 0 0 0 .5-1.8c1-3.8 1.4-4 5.7-3.7a50.84 50.84 0 0 1-1.5 7.2 78.51 78.51 0 0 0-4.2 30.8c.3 6.1 2.3 11.8 4.5 17.5a149 149 0 0 1 4.9 14.7c1.3 4.5 1 9.1.3 13.8-1.3 9.3-4 18.3-5 27.7-1.4 15.1 1.6 29.2 7.3 42.9 3.2 7.7 6.6 15.4 9.4 23.3a117 117 0 0 1 5.2 19.3 51.66 51.66 0 0 1-.6 19.2c-2.6 11.9-5.2 23.8-7.2 35.9-.7 3.8.1 8.1 1.2 12 1.9 6.4 4.6 12.5 6.7 18.8 1.6 4.8 3.4 9.7 3.6 14.7.2 4 .2 8.9-3.8 12l-.7-.2zM70.5 397c-1.9-.1-2.3-1.7-2.1-3.2.8-4.8 1.5-9.5 2.7-14.2 2.5-8.9 5.8-17.6 7.8-26.6 1.1-5.1.4-10.7.1-16.1-.7-9.6-5.9-17.7-9.2-26.4a51.93 51.93 0 0 1-3.7-19.1c.3-9.2.7-18.5 1.1-27.7.4-8.7-3-16.6-5.6-24.7-3.4-10.5-11.2-18.4-16.3-27.8-3.1-5.5-4.7-11.6-3.3-18 1.6-7.9 3.9-15.8 4.8-23.8.8-7.4.4-15 .2-22.5-.1-3.3-1-6.7-1.5-10.1-.1-.5.7-1.2 1.1-1.8 1 .7 2.5 1.1 3 2.1.7 1.3.5 3 .7 4.5.2 2.4.4 4.6.6 7s.5 4.9.5 7.3c-.1 4-.7 8.1-.8 12.1-.2 7.6-3.8 14.6-4.3 22-.4 6 1.4 12.2 2.7 18.2 1.3 6.2 5.8 10.8 9.6 15.6 6.2 8 9.3 17.2 11.4 26.8a73.49 73.49 0 0 1 1.6 15.5 87.07 87.07 0 0 1-1.7 17.7c-1.7 8.5-.5 16.4 2.8 24.3a290.85 290.85 0 0 1 10.7 30.1 31.15 31.15 0 0 1-.7 18.6c-2.4 7.1-5 14.1-7.2 21.2-1.9 6.2-3.3 12.5-5 19zm39.4-258.3a39.67 39.67 0 0 1 5.9-.2 2.87 2.87 0 0 1 1.7 2c1.4 8.2 2.9 16.4 3.8 24.6a354 354 0 0 1 2.4 41.1c-.1 4.5.9 9.1 1.8 13.6 2 10 4 19.9 6.3 29.8 2.3 10.4.9 20.7-1.9 30.6-2.4 8.5-1 16 2.5 23.6 3.4 7.4 6.9 14.7 10 22.2a51 51 0 0 1 3 12.7c1 8.2 1.8 16.5 2.2 24.7.3 6.7-1.4 13.1-3.8 19.3-1.6 4.1-2.4 8.5-3.4 12.8-1.4-.4-2.5-2.7-1.7-5.3 1.5-5.3 3.1-10.6 4.6-15.9 2.1-6.8 3-13.7 1.3-20.9-2.1-9-3.7-18.2-6.2-27.1-1.3-4.5-4-8.7-6.1-13a76.11 76.11 0 0 1-8.1-24.8c-.8-6.1 1.9-10.9 3.3-16.3 2-7.7 1.6-15.1.9-22.9-1-10.4-5.3-20-7.1-30.1-.9-5-1.5-10.1-1.9-15.2-.4-9.1-.3-18.3-.7-27.5a68.67 68.67 0 0 0-3.6-19.1c-1.8-5.9-3.4-11.9-5.2-18.7zM50.6 434.3a18.74 18.74 0 0 1-5.2-10.5c-1.4-9.9-.4-19.9.5-29.7.3-2.8.4-5.6.6-8.4.7-8.9 1.4-17.8 2.2-26.6.5-6.5 1.1-12.9 1.6-19.4a94.75 94.75 0 0 0 .5-11.9q-.6-9.9-2.1-19.8c-1.1-7.5-2.2-15-3.9-22.4-1.3-5.8-3.3-11.4-5.1-17.1-3.7-11.2-7.7-22.2-11-33.5-2.4-7.7-4.8-15.3-5-23.5-.2-6-1.2-11.9-.9-17.8a172.11 172.11 0 0 1 2.8-20.2 124.9 124.9 0 0 0 1.9-28c-.2-3.3-.9-6.5-1.5-10.6a42.64 42.64 0 0 1 5.1-.2c.5.1 1.2 1.4 1.3 2.2.5 7.1-.7 13.9-2.2 20.8-2.1 9.5-4.4 18.9-5.7 28.5-.7 5.5.4 11.2.7 16.7a14.92 14.92 0 0 1 .2 2.1c-.4 7.4 1 14.5 3 21.5a210.06 210.06 0 0 0 13.2 35.2 107.81 107.81 0 0 1 8.4 27.1 248.23 248.23 0 0 1 3.6 25.5c.8 11.3 1 22.7.7 34.1-.2 6.4-2 12.7-2.9 19-.6 4.1-.9 8.2-1.3 12.3-.8 7.8-1.9 15.6-2.1 23.4-.2 8.3-1.4 16.8 2.7 24.8.9 1.7.8 3.9 1.2 5.9l-1.3.5z"/><path class="cls-1" d="M151.5 136.5c3.1-2.4 3.4-2.2 4.4 1.3 2.3 7.6 4.9 15 7.1 22.7a56.06 56.06 0 0 1 2.1 12.9 154.44 154.44 0 0 1-.5 20.4 173.91 173.91 0 0 1-4.1 21.3c-1.8 7.5-3.7 15.1-2.8 22.9 1.1 9.7 3 19.2 8.1 27.8 3 4.9 8 7.1 13.6 7.7a22.71 22.71 0 0 0 17.2-4.8 25 25 0 0 0 6.3-8.7c3.2-6.6 5.6-13.5 8.9-20 4.2-8.5 10.9-13.3 20.9-14.1a35.21 35.21 0 0 1 20.6 5.1c1.3.7 2.1 2.1 3.5 3.5a12.21 12.21 0 0 1-9.8-1.9c-6.3-4-13.4-5.3-20.4-3.1-6.2 2-10.8 6.8-13.6 12.8a61.37 61.37 0 0 0-4.2 11.8 24.41 24.41 0 0 1-5.8 11 114.54 114.54 0 0 1-11.6 10.5 8.38 8.38 0 0 1-5.5 1.7c-5-.4-10.1-.7-14.8-2.1-6.7-2-9.6-7.8-11.8-14a118.36 118.36 0 0 1-6.1-27.1 52.75 52.75 0 0 1 2.5-22.7c2.3-7.2 4.7-14.4 6.1-21.8.9-4.8.5-10 .2-15a76.41 76.41 0 0 0-2.2-15.1c-1.6-6.2-4-12.1-6.2-18.1-.8-1.8-1.5-3.3-2.1-4.9z"/><path class="cls-2" d="M46.3 54.1a20.63 20.63 0 0 1 1.2-3.5c2.5-4.7 4.8-9.6 7.9-14 1.6-2.2 4.5-3.7 7.2-4.8 2.4-1 4.5.9 5.6 2.8.8 1.5 1.3 3.9.7 5.4-1.3 2.9-3.6 5.3-5.1 8.1a48.56 48.56 0 0 0-2.5 6.3c-.7 2-.9 4.2-1.9 6a5 5 0 0 1-5.4 2.9c-3.2-.6-5.7-2.1-6.8-5.3a22.29 22.29 0 0 1-.9-3.9zm20.9-16.6c-.5-2.7-2.2-4.6-3.8-3.7-2 1.1-4.2 2.4-5.4 4.2-2.8 4.5-5.5 9.1-7.9 13.9-.7 1.4-1.3 3.3-.8 4.6a10 10 0 0 0 3.5 4.6c1.5 1.1 2.9-.3 3.8-1.6a6.86 6.86 0 0 0 1.7-3.4c.4-5.1 1.9-9.5 5.9-13.1 1.5-1.4 2.1-3.7 3-5.5zm12.6-15.6c5.6 0 7.7 2.8 6.6 6.6-1 3.5-5.4 7.2-9 6.9-2.1-.2-5-1.3-5.9-2.9s-.1-4.9 1.1-6.1c2.3-2.2 5.5-3.5 7.2-4.5zm-2.7 11.5c3.1.1 6.9-3.6 7.2-6.6.1-1.6-.7-2.6-2.1-2.4-2.9.4-5.5 1.7-6.8 4.5-1.3 2.5-.5 4.4 1.7 4.5zm6.6 14c-.4 5.6-7.7 11-11.8 8.9-2.1-1.1-3.6-3.3-3-5.7.5-2.2 1.3-4.3 2-6.5.1-.2.1-.3.2-.5 2.8-3.3 6-.7 8.9-.2 1.9.3 3.9 1.6 3.7 4zM76 43.7c-1.1.7-2.7 1.1-3.1 2a29.08 29.08 0 0 0-1.7 7.2c-.1.5 1.2 1.7 1.9 1.7a7.4 7.4 0 0 0 6.5-3.4c.9-1.4 2-3.8 1.4-5s-3.1-1.6-5-2.5z"/><path class="cls-1" d="M67.2 37.5c-.9 1.9-1.5 4.2-2.9 5.5-4 3.6-5.4 8-5.9 13.1a7.81 7.81 0 0 1-1.7 3.4c-.9 1.3-2.4 2.6-3.8 1.6a9.5 9.5 0 0 1-3.5-4.6 7 7 0 0 1 .8-4.6A146.28 146.28 0 0 1 58.1 38c1.2-1.8 3.4-3.1 5.4-4.2 1.5-1 3.2.9 3.7 3.7zm9.9-4.1c-2.1-.1-3-1.9-1.8-4.4 1.3-2.8 3.9-4.1 6.8-4.5 1.4-.2 2.2.8 2.1 2.4-.2 2.9-4.1 6.5-7.1 6.5zM76 43.7c2 .9 4.4 1.1 5 2.4.6 1.1-.5 3.5-1.4 5a7.19 7.19 0 0 1-6.5 3.4c-.7-.1-2-1.3-1.9-1.7a35.9 35.9 0 0 1 1.7-7.2c.4-.8 1.9-1.1 3.1-1.9zm128.1 5.66h279.56v230.7H204.1V49.36zM312.64 186.8a5.18 5.18 0 0 1 .57 2.76c-.31 2.13-.57 4.31-.83 6.45a20.9 20.9 0 0 0-.16 3.12 37.52 37.52 0 0 1-.05 6.39c-.21 1.66-.36 3.38-.47 5.09-.16 2.08-.26 4.16-.36 6.29a41.47 41.47 0 0 1-.1 4.42c-.16 1.72-.47 3.43-.73 5.15-.21 1.46-.31 2.91-.62 4.31a22.59 22.59 0 0 0-.36 4.94c0 1-.05 2-.1 2.91-.16 2-.36 4-.47 5.93-.1 2.34-.16 4.68-.26 7-.1 2-.31 3.9-.42 5.82-.1 1.77-.1 3.53-.16 5.3a12.75 12.75 0 0 0 .1 1.4c.1.94.31 1.82.42 2.76a4.26 4.26 0 0 0 1 2.55l1.66 1.66a5.33 5.33 0 0 0 4.21 1.61 12.67 12.67 0 0 1 1.4.05 9.37 9.37 0 0 0 2.7-.26c2.29-.83 4.73-1.35 6.91-2.55.57-.36 1.2-.68 1.77-1a17.7 17.7 0 0 0 5.46-4.57 9 9 0 0 1 .62-.73 30.57 30.57 0 0 0 3.79-5.41c1.3-2.24 2.5-4.57 3.79-6.81 1.4-2.5 2.86-4.89 4.21-7.33a577.1 577.1 0 0 0 5.2-9.51 20 20 0 0 0 1.09-2.08c.94-2.13 1.92-4.31 2.81-6.45.73-1.77 1.35-3.48 2-5.25.57-1.56 1.09-3.22 1.77-4.78.78-2 1.66-4 2.39-6 1.3-3.69 3.33-7 5.09-10.4a25 25 0 0 1 2.29-3 37.17 37.17 0 0 1 4.94-5.72 10.87 10.87 0 0 1 4-2.5 16.6 16.6 0 0 1 4.37-1.46c.57-.1 1.25-.1 1.82-.16a24.72 24.72 0 0 1 6.5.05 15.43 15.43 0 0 0 2.7.16c2 .05 3.9-.1 5.82.05 1.51.1 3 .31 4.47.47 2.7.31 5.46.57 8.16.83.83.1 1.66.1 2.5.16 1.56.16 3.07.42 4.63.57 2.5.21 5 .31 7.54.47 1.77.1 3.53.31 5.3.47a32.75 32.75 0 0 1 6.29 1.2c1.46.42 2.91.83 4.37 1.3 1.25.36 2.5.83 3.69 1.09 1 .26 2.13.42 3.17.68 1.61.36 3.22.83 4.83 1.3l4.16 1.09c1.09.31 2.13.62 3.22 1a10 10 0 0 0 5.25.16 10.92 10.92 0 0 0 3.48-1.09 42 42 0 0 0 5.2-3.33 4.65 4.65 0 0 0 2-4.78c-.31-1.56-.73-3-1.14-4.52a22.49 22.49 0 0 0-1.09-2.81 37.91 37.91 0 0 0-1.46-3.64 26.22 26.22 0 0 0-4-5.25 44.89 44.89 0 0 0-7.23-6.5c-.68-.52-1.4-1-2.08-1.51a10 10 0 0 0-2-1.3c-1.56-.73-3.12-1.35-4.68-2-3.07-1.14-6.08-2.44-9.25-3.38-3-.88-5.87-1.66-8.89-2.44-3.48-.94-7-1.66-10.55-2.34-3-.57-6-1-8.94-1.56-3.69-.68-7.43-1.3-11.07-2.08-3.07-.68-6.08-1.56-9.15-2.29a21.6 21.6 0 0 1-5.35-2.08 6.8 6.8 0 0 1-1.61-1.4 2 2 0 0 1-.1-2.6c.42-.68 1-1.35 1.51-2a1.37 1.37 0 0 1 1.56-.83 7.48 7.48 0 0 1 2.6-3.74 47.08 47.08 0 0 0 5.01-5.32c1.35-1.66 2.91-3.22 4.37-4.83.57-.62 1.14-1.3 1.72-2 .83-1 1.56-2 2.5-2.91a46.81 46.81 0 0 0 4.83-5.3c2.13-3 4.52-5.82 6.71-8.79 1.35-1.77 2.65-3.64 3.85-5.51 1.09-1.66 2.08-3.38 3.12-5.09.62-1.09 1.3-2.08 1.82-3.22.78-1.56 1.09-3.27 2-4.78a6.12 6.12 0 0 0 .36-1c.42-1.2.83-2.39 1.3-3.53.78-2.08 1.61-4.16 2.29-6.29a18.19 18.19 0 0 0 .57-3.43 15.34 15.34 0 0 0-.1-6.34 9.28 9.28 0 0 1-.1-1.2c-.16-1-.36-2-1.61-2.24a1.28 1.28 0 0 1-.47-.21 8.63 8.63 0 0 0-3.59-1.2 23.73 23.73 0 0 0-9.15.78 52.09 52.09 0 0 0-6.6 2.76c-1.09.47-2.13.88-3.17 1.46-2.13 1.2-4.26 2.5-6.39 3.69s-4 2.29-6 3.53a79.88 79.88 0 0 0-7.69 4.89c-.94.73-2 1.3-3 2-1.4.94-2.7 2-4.21 2.86a57.29 57.29 0 0 0-8.89 6.5c-1.82 1.56-3.64 3.12-5.35 4.68-1.92 1.72-3.85 3.43-5.77 5.09a13.89 13.89 0 0 1-4.57 2.65 19.37 19.37 0 0 1-6 .88 2.58 2.58 0 0 1-.68-.16c-.47-.26-.83-.57-1.3-.83-1.4-.83-2.81-1.61-4.21-2.44s-2.5-1.56-3.74-2.34c-.42-.26-1-.36-1.35-.62-1.4-.94-2.76-1.92-4.16-2.91-1.66-1.14-3.38-2.29-5-3.48-1.46-1-2.86-2.08-4.26-3.17a15.5 15.5 0 0 0-2.08-1.56 63.15 63.15 0 0 1-5.56-3 15 15 0 0 0-2-1.14l-5.72-3.07c-1.77-.94-3.43-2-5.25-2.81a41.45 41.45 0 0 1-4.73-2.55 6.1 6.1 0 0 0-1.66-.78c-1.77-.73-3.53-1.35-5.35-2.08-1.56-.57-3.07-1.3-4.63-1.82-1.25-.42-2.5-.78-3.69-1.2a2 2 0 0 1-.68-.31 3.93 3.93 0 0 0-2-.68c-.68-.1-1.35-.16-2-.31a9.07 9.07 0 0 0-5.61.47 7.18 7.18 0 0 0-4.31 6.29 20.8 20.8 0 0 0 .52 5.35 33.13 33.13 0 0 0 2.6 7.75c.62 1.35 1.35 2.7 2 4.05.83 1.77 1.66 3.64 2.55 5.41 1.3 2.65 2.76 5.25 4.11 7.9 1.25 2.5 2.39 4.94 3.59 7.43 1 2.18 2 4.31 3 6.5.31.62.47 1.3.73 1.92 1.35 3 2.76 6 4.16 8.94 1.09 2.34 2.13 4.73 3.17 7.12.83 1.92 1.61 3.9 2.34 5.82a2.41 2.41 0 0 1-1.35 3.22c-2.65 1.09-5.3 2.13-8 3.07s-5.35 1.72-8.06 2.55a15.43 15.43 0 0 0-2.34.78 33.56 33.56 0 0 1-6.71 2.13c-2.6.68-5.2 1.14-7.8 1.77-1.09.26-2.08.52-3.17.83-2.29.57-4.63 1.25-7 1.72-2 .42-4.16.62-6.19 1-2.44.42-4.78 1.14-7.23 1.35a2.84 2.84 0 0 0-.94.31 5.19 5.19 0 0 1-2.18.52c-1 .1-2.08.21-3.12.36a16.35 16.35 0 0 0-2.29.57c-.94.21-1.92.36-2.86.57-1.56.31-3 .62-4.57.88-1.09.21-2.24.31-3.43.47a7 7 0 0 0-3.79 1.77 6.21 6.21 0 0 0-2.65 3.48 6.41 6.41 0 0 0 .78 4.89 37.2 37.2 0 0 0 3.9 5.15c.88 1.09 2 2 3 3a15.28 15.28 0 0 0 3.9 2.91 38.77 38.77 0 0 0 7.64 3.79c1.87.62 3.69 1.51 5.51 2.24a22.08 22.08 0 0 0 6.81 1.61c2.5.21 5 .16 7.49.16s4.83-.1 7.23-.16a68.29 68.29 0 0 0 8-.26c2.44-.36 4.89-.36 7.33-.57a50.34 50.34 0 0 0 6.86-.73 46.17 46.17 0 0 1 7.49-1c4.42-.31 8.84-.83 13.2-1.56a34.87 34.87 0 0 1 6.3-.61z"/><path class="cls-2" d="M312.64 186.8a21.79 21.79 0 0 0-6.39.78 112.9 112.9 0 0 1-13.2 1.56 40.47 40.47 0 0 0-7.49 1 50.34 50.34 0 0 1-6.86.73c-2.44.21-4.89.21-7.33.57a69 69 0 0 1-8 .26c-2.44.05-4.83.16-7.23.16s-5 .05-7.49-.16a23.67 23.67 0 0 1-6.81-1.61c-1.82-.73-3.64-1.61-5.51-2.24a38.77 38.77 0 0 1-7.64-3.79 17.33 17.33 0 0 1-3.9-2.91c-.94-1.09-2-2-3-3a37.2 37.2 0 0 1-3.9-5.15 6.41 6.41 0 0 1-.78-4.89 6 6 0 0 1 2.65-3.48 8.26 8.26 0 0 1 3.79-1.77q1.72-.16 3.43-.47c1.56-.26 3.07-.57 4.57-.88.94-.21 1.92-.36 2.86-.57.78-.16 1.56-.42 2.29-.57a30.09 30.09 0 0 1 3.12-.36 5.19 5.19 0 0 0 2.18-.52 2.84 2.84 0 0 1 .94-.31c2.5-.21 4.83-.94 7.23-1.35 2-.36 4.16-.57 6.19-1 2.34-.47 4.63-1.14 7-1.72 1.09-.26 2.08-.57 3.17-.83 2.6-.57 5.2-1.09 7.8-1.77a38.66 38.66 0 0 0 6.71-2.13 20.56 20.56 0 0 1 2.34-.78c2.7-.83 5.41-1.61 8.06-2.55s5.35-2 8-3.07a2.41 2.41 0 0 0 1.35-3.22c-.73-2-1.56-3.9-2.34-5.82-1-2.39-2.08-4.78-3.17-7.12-1.35-3-2.76-6-4.16-8.94-.31-.62-.47-1.3-.73-1.92-1-2.18-2-4.37-3-6.5-1.14-2.5-2.34-5-3.59-7.43-1.3-2.65-2.76-5.25-4.11-7.9-.88-1.77-1.66-3.64-2.55-5.41-.68-1.35-1.4-2.7-2-4.05a31.61 31.61 0 0 1-2.6-7.75 18.74 18.74 0 0 1-.52-5.35 7.15 7.15 0 0 1 4.31-6.29 9 9 0 0 1 5.61-.47l2 .31a3.93 3.93 0 0 1 2 .68 3.92 3.92 0 0 0 .68.31c1.25.36 2.5.73 3.69 1.2 1.56.57 3.07 1.25 4.63 1.82 1.77.68 3.53 1.35 5.35 2.08A6.92 6.92 0 0 1 302 73a34.64 34.64 0 0 0 4.73 2.55c1.77.83 3.48 1.87 5.25 2.81 1.92 1 3.85 2 5.72 3.07.68.36 1.3.73 2 1.14 1.77 1.14 3.69 2 5.56 3a12.07 12.07 0 0 1 2.08 1.56c1.4 1.09 2.81 2.13 4.26 3.17 1.66 1.2 3.38 2.29 5 3.48 1.4 1 2.7 2 4.16 2.91.42.26.94.36 1.35.62 1.3.78 2.5 1.56 3.74 2.34 1.4.83 2.81 1.61 4.21 2.44.47.26.83.57 1.3.83a1.6 1.6 0 0 0 .68.16 19.37 19.37 0 0 0 6-.88 13.52 13.52 0 0 0 4.57-2.65c1.92-1.72 3.85-3.43 5.77-5.09 1.77-1.56 3.53-3.22 5.35-4.68a57.29 57.29 0 0 1 8.89-6.5c1.51-.83 2.81-1.92 4.21-2.86 1-.68 2-1.25 3-2a83.74 83.74 0 0 1 7.69-4.89c2-1.2 4-2.34 6-3.53s4.21-2.5 6.39-3.69c1-.57 2.08-1 3.17-1.46a61 61 0 0 1 6.6-2.76 24.6 24.6 0 0 1 9.15-.78 8 8 0 0 1 3.59 1.2 1.85 1.85 0 0 0 .47.21c1.18.28 1.44 1.28 1.55 2.28a9.28 9.28 0 0 0 .1 1.2 16.28 16.28 0 0 1 .1 6.34 26.24 26.24 0 0 1-.57 3.43c-.68 2.13-1.56 4.21-2.29 6.29-.42 1.2-.83 2.39-1.3 3.53a3.53 3.53 0 0 1-.36 1c-.88 1.51-1.3 3.22-2 4.78-.57 1.09-1.25 2.13-1.82 3.22-1 1.72-2 3.43-3.12 5.09-1.25 1.87-2.5 3.69-3.85 5.51-2.24 3-4.57 5.82-6.71 8.79a51.73 51.73 0 0 1-4.83 5.3c-.88.88-1.61 1.92-2.5 2.91-.57.68-1.09 1.3-1.72 2-1.46 1.61-3 3.17-4.37 4.83a42.37 42.37 0 0 1-4.89 5.25 8.06 8.06 0 0 0-2.6 3.74c-.78-.21-1.14.36-1.56.83a20.52 20.52 0 0 0-1.51 2 2 2 0 0 0 .1 2.6 6.8 6.8 0 0 0 1.61 1.4 19.11 19.11 0 0 0 5.35 2.08c3.07.78 6.08 1.61 9.15 2.29 3.69.83 7.38 1.4 11.07 2.08 3 .57 6 1 8.94 1.56 3.53.73 7.07 1.46 10.55 2.34 3 .78 5.93 1.56 8.89 2.44 3.17 1 6.19 2.24 9.25 3.38 1.56.57 3.17 1.25 4.68 2a16.17 16.17 0 0 1 2 1.3c.73.52 1.4 1 2.08 1.51a47.76 47.76 0 0 1 7.23 6.5 22.81 22.81 0 0 1 4 5.25 37.9 37.9 0 0 1 1.46 3.64c.36.94.78 1.87 1.09 2.81.42 1.51.83 3 1.14 4.52a4.74 4.74 0 0 1-2 4.78 38.42 38.42 0 0 1-5.2 3.33 13.57 13.57 0 0 1-3.48 1.09 10.56 10.56 0 0 1-5.25-.16c-1.09-.36-2.13-.68-3.22-1l-4.16-1.09c-1.61-.42-3.22-.88-4.83-1.3-1-.26-2.13-.36-3.17-.68-1.25-.36-2.5-.78-3.69-1.09-1.46-.42-2.91-.83-4.37-1.3a32 32 0 0 0-6.29-1.2c-1.77-.16-3.53-.36-5.3-.47-2.5-.16-5-.26-7.54-.47-1.56-.1-3.07-.36-4.63-.57-.83-.1-1.66-.1-2.5-.16-2.7-.26-5.46-.57-8.16-.83-1.51-.16-3-.42-4.47-.47-2-.1-3.9 0-5.82-.05a23.57 23.57 0 0 1-2.7-.16 24.72 24.72 0 0 0-6.5-.05l-1.82.16a16 16 0 0 0-4.37 1.46 12.45 12.45 0 0 0-4 2.5 39.79 39.79 0 0 0-4.94 5.72 23.81 23.81 0 0 0-2.29 3c-1.77 3.43-3.85 6.76-5.09 10.4-.73 2-1.61 4-2.39 6-.57 1.56-1.14 3.22-1.77 4.78-.62 1.77-1.3 3.48-2 5.25-.88 2.18-1.87 4.31-2.81 6.45-.36.73-.73 1.4-1.09 2.08-1.77 3.17-3.43 6.34-5.2 9.51-1.35 2.5-2.81 4.89-4.21 7.33-1.3 2.24-2.5 4.57-3.79 6.81a32.61 32.61 0 0 1-3.79 5.41c-.21.26-.42.47-.62.73a16.58 16.58 0 0 1-5.46 4.57c-.57.36-1.2.73-1.77 1a40.83 40.83 0 0 1-6.91 2.55 9.2 9.2 0 0 1-2.7.26c-.47.05-.94-.1-1.4-.05a5.52 5.52 0 0 1-4.21-1.61c-.57-.52-1.14-1.09-1.66-1.66a4.26 4.26 0 0 1-1-2.55c-.1-.94-.31-1.82-.42-2.76a6.39 6.39 0 0 1-.1-1.4l.16-5.3c.1-2 .31-3.9.42-5.82.1-2.34.1-4.68.26-7 .1-2 .36-4 .47-5.93a27.73 27.73 0 0 0 .1-2.91 17.6 17.6 0 0 1 .36-4.94 39.19 39.19 0 0 0 .62-4.31c.26-1.72.57-3.43.73-5.15.1-1.46 0-3 .1-4.42.1-2.08.21-4.16.36-6.29.1-1.72.26-3.38.47-5.09a37.52 37.52 0 0 0 .05-6.39c-.05-1 .1-2.08.16-3.12.26-2.13.52-4.31.83-6.45a4.42 4.42 0 0 0-.59-2.91zm-2.86 75.06c.05.94.05 2.24.21 3.53a6.18 6.18 0 0 0 3.53 5.2 9.54 9.54 0 0 0 5.77.36c1.46-.26 2.76-1.09 4.16-1.46a18 18 0 0 0 4.26-2.08 24 24 0 0 0 7.64-7.69c1-1.51 1.77-3.17 2.65-4.73 1-1.72 2-3.43 3-5.15a28 28 0 0 1 1.56-2.7 94.74 94.74 0 0 0 4.73-8.42c.73-1.3 1.46-2.7 2.18-4 .52-.88 1.09-1.77 1.56-2.7 1.09-2.34 2-4.68 3-7.07.73-1.77 1.4-3.43 2.08-5.25.57-1.51 1.09-3 1.66-4.47s1.3-3 1.92-4.47a56.5 56.5 0 0 1 3.12-7 33.72 33.72 0 0 1 3.69-6.13c.88-1.09 1.77-2.29 2.7-3.43 1.4-1.61 2.81-3.22 4.26-4.73.73-.78 1.61-1.3 2.34-2.08a4.88 4.88 0 0 1 1.77-1.35c.62-.26 1.25-.57 1.87-.88a8 8 0 0 1 5.15-.78 5.27 5.27 0 0 0 1.3.1c1.2.05 2.39.05 3.59.1 3.69.1 7.38.31 11 .42a15.31 15.31 0 0 1 2.18.05c2.24.31 4.52.62 6.76.83 4.21.42 8.37 1.3 12.63 1.4a28.72 28.72 0 0 1 3 .1c3.33.36 6.71.36 10 1.14 2.29.52 4.63.94 6.86 1.66 3 .94 5.87 1.92 8.89 2.65 3.59.83 7.12 1.87 10.66 2.86a10.15 10.15 0 0 0 8.21-1.3 31.86 31.86 0 0 0 4-3 3.06 3.06 0 0 0 1.25-2.55 22.61 22.61 0 0 0-1.14-5.51c-.42-1.3-.94-2.5-1.46-3.74a10.11 10.11 0 0 0-.62-1.51c-1.09-1.56-2.18-3.17-3.38-4.63a32.31 32.31 0 0 0-2.91-3.07 46.4 46.4 0 0 0-3.85-3.33 35.4 35.4 0 0 0-7.33-3.9c-2.76-1.09-5.56-2.13-8.32-3.17-.83-.31-1.72-.57-2.55-.83-2.44-.73-4.89-1.46-7.28-2-3.69-.88-7.49-1.72-11.23-2.5-2.6-.52-5.25-.94-7.9-1.35a36.91 36.91 0 0 1-6.34-1.2 7.89 7.89 0 0 0-1.09-.16c-.42-.1-.83-.1-1.3-.21l-10-2.5a26.4 26.4 0 0 1-3.38-.78 24.14 24.14 0 0 1-5.93-3.17 5.82 5.82 0 0 1-2.29-4.16 3.66 3.66 0 0 1 .42-2.08 11.82 11.82 0 0 1 1.92-2.34c1.46-1.56 2.81-3.22 4.31-4.73a27.05 27.05 0 0 0 3-3c.52-.73 1-1.4 1.56-2.08 2.08-2.44 4.37-4.68 6.34-7.23.36-.42.83-.73 1.14-1.09a21.87 21.87 0 0 1 3.69-3.9 2.74 2.74 0 0 0 .62-.73c1.72-2.24 3.43-4.47 5.09-6.76s3.22-4.37 4.73-6.55 3.12-4.63 4.63-7a30.8 30.8 0 0 0 2.24-4.05c.78-1.77 1.3-3.69 2-5.51.88-2.34 1.87-4.63 2.7-7a30.77 30.77 0 0 0 1.4-5.2 15.59 15.59 0 0 0-.52-7.07 1.16 1.16 0 0 0-.94-.94c-1-.21-2-.47-3.07-.57a19.57 19.57 0 0 0-11 1.87c-2.44 1.2-5 2.18-7.33 3.43-3.53 2.18-6.91 4.26-10.34 6.29-1.56.88-3.07 1.77-4.57 2.7s-3 2-4.47 3.07c-2.7 1.77-5.3 3.64-8.06 5.3a56 56 0 0 0-7.69 5.77c-1 .83-1.92 1.77-2.86 2.65-2.24 2-4.63 3.9-6.86 6-2.44 2.18-5 3.9-8.32 4.31-.1.05-.21.05-.31.1a8.91 8.91 0 0 1-7.23-1.3c-1.61-1-3.22-2-4.89-3s-3.07-1.77-4.63-2.7-2.91-1.92-4.31-2.91c-1.25-.83-2.5-1.77-3.69-2.7a77.55 77.55 0 0 0-8.63-6c-1.35-.83-2.81-1.51-4.16-2.34a119.71 119.71 0 0 0-10.71-6c-1.61-.83-3.33-1.61-5-2.44-1.35-.68-2.7-1.4-4.05-2-.83-.36-1.72-.57-2.55-.94a112.55 112.55 0 0 0-11.75-4.21 23.77 23.77 0 0 0-4.26-.83 6.28 6.28 0 0 0-5.05 1.59 6.43 6.43 0 0 0-2 5.51c.1 1.2.36 2.34.57 3.48a24.69 24.69 0 0 0 1.56 5.3c.47 1 .83 2 1.3 3 .83 1.77 1.77 3.53 2.65 5.35 1.14 2.29 2.24 4.63 3.43 6.91.31.57.52 1.2.83 1.77a81 81 0 0 1 3.74 7.33c.31.68.57 1.4.88 2.08 1.09 2.34 2.13 4.63 3.17 7 1 2.24 2 4.42 2.91 6.65.62 1.4 1.3 2.81 1.87 4.26.26.57.52 1.09.78 1.66.78 1.82 1.51 3.69 2.34 5.46a46.89 46.89 0 0 1 2.81 7.38 2.8 2.8 0 0 1-1.14 3.22 13.49 13.49 0 0 1-2.6 1.3c-1.61.68-3.22 1.3-4.89 1.82-2.76 1-5.56 2-8.32 2.86-2 .68-4 1.25-6 1.87-.94.31-1.82.68-2.76.94-2.13.57-4.37.83-6.5 1.51s-4.63 1.2-7 1.77c-1.77.42-3.59.88-5.35 1.25-3 .57-6 1-9.1 1.56-1.61.31-3.22.78-4.89 1.09-2 .36-4 .68-6 1.09-2.5.52-5 1.09-7.54 1.56s-5 1-7.54 1.46a5.8 5.8 0 0 0-3.43 2.08 3.69 3.69 0 0 0-.26 4.68 9.19 9.19 0 0 0 .62.88 35.46 35.46 0 0 0 2.65 3.59 36.9 36.9 0 0 0 3.43 3.53 12.11 12.11 0 0 0 3.74 2.7 10.46 10.46 0 0 1 1.3.73c1.3.73 2.55 1.51 3.9 2.13 1.51.73 3.12 1.25 4.63 1.92a30.13 30.13 0 0 0 11.85 2.7c3.17.1 6.29-.1 9.41-.21 1.09-.05 2.18-.1 3.22-.05A30.12 30.12 0 0 0 270 190l8.32-.62c2.13-.16 4.26-.42 6.34-.62 2.7-.31 5.46-.78 8.16-.94a113.05 113.05 0 0 0 13.15-1.46c1.46-.26 3-.36 4.37-.57a2.42 2.42 0 0 0 1-.31 2 2 0 0 1 3 1.14 8.08 8.08 0 0 1 .26 3.85 51.8 51.8 0 0 0-.57 11.7 2.23 2.23 0 0 1 0 .83c-.21 2-.42 4-.57 5.93a50.68 50.68 0 0 0-.31 8.89 13 13 0 0 1-.05 3.17c-.31 2.24-.68 4.42-1.09 6.6a43.74 43.74 0 0 0-.83 8.63 25.33 25.33 0 0 1-.21 3.43c-.1 1.35-.36 2.7-.42 4.11-.1 1.72-.1 3.38-.16 5.09-.1 2-.36 4-.52 5.93a36.43 36.43 0 0 1-.05 7.12z"/><path class="cls-1" d="M309.78 261.87c.16-2.7.26-5.09.42-7.49.1-2 .36-4 .52-5.93.1-1.72.1-3.38.16-5.09.1-1.35.31-2.7.42-4.11a25.33 25.33 0 0 0 .21-3.43 43.74 43.74 0 0 1 .83-8.63c.36-2.24.78-4.37 1.09-6.6a21.41 21.41 0 0 0 .05-3.17 50.86 50.86 0 0 1 .31-8.89c.16-2 .42-4 .57-5.93a2.23 2.23 0 0 0 0-.83 46.52 46.52 0 0 1 .57-11.7 6.93 6.93 0 0 0-.26-3.85 2 2 0 0 0-3-1.14 7.9 7.9 0 0 1-1 .31c-1.46.21-3 .36-4.37.57a111.82 111.82 0 0 1-13.15 1.46c-2.7.16-5.46.62-8.16.94-2.13.26-4.26.47-6.34.62-2.76.26-5.56.42-8.32.62a34 34 0 0 1-6.5.16 22.12 22.12 0 0 0-3.22.05c-3.17.1-6.29.31-9.41.21a30.13 30.13 0 0 1-11.85-2.7c-1.51-.68-3.12-1.25-4.63-1.92-1.3-.62-2.6-1.4-3.9-2.13-.42-.26-.88-.47-1.3-.73a13 13 0 0 1-3.74-2.7 43.92 43.92 0 0 1-3.43-3.53 37.64 37.64 0 0 1-2.65-3.59c-.21-.31-.42-.57-.62-.88a3.63 3.63 0 0 1 .26-4.68 5.65 5.65 0 0 1 3.43-2.08c2.5-.47 5-.94 7.54-1.46s5-1.09 7.54-1.56c2-.36 4-.68 6-1.09 1.61-.31 3.22-.78 4.89-1.09 3-.57 6-1 9.1-1.56 1.82-.36 3.59-.83 5.35-1.25 2.29-.57 4.63-1.09 7-1.77 2.13-.68 4.37-.83 6.5-1.51.94-.26 1.82-.68 2.76-.94 2-.62 4-1.2 6-1.87 2.76-.94 5.56-1.87 8.32-2.86 1.61-.57 3.22-1.2 4.89-1.82a24.24 24.24 0 0 0 2.6-1.3 2.79 2.79 0 0 0 1.14-3.22 42.28 42.28 0 0 0-2.81-7.38c-.83-1.77-1.56-3.69-2.34-5.46-.26-.57-.52-1.09-.78-1.66-.62-1.4-1.3-2.81-1.87-4.26-1-2.24-1.92-4.42-2.91-6.65s-2.13-4.63-3.17-7c-.31-.68-.57-1.4-.88-2.08a81 81 0 0 0-3.74-7.33 11 11 0 0 1-.83-1.77c-1.09-2.29-2.24-4.63-3.43-6.91-.88-1.77-1.77-3.53-2.65-5.35-.47-1-.83-2-1.3-3a18.37 18.37 0 0 1-1.56-5.3c-.21-1.14-.47-2.34-.57-3.48a6.31 6.31 0 0 1 7.17-7.07 23.77 23.77 0 0 1 4.26.83 105.39 105.39 0 0 1 11.75 4.21c.83.36 1.72.57 2.55.94 1.35.62 2.7 1.35 4.05 2 1.66.83 3.33 1.56 5 2.44 3.64 1.87 7.23 3.74 10.71 6 1.3.83 2.76 1.56 4.16 2.34a88.59 88.59 0 0 1 8.63 6c1.2.94 2.44 1.82 3.69 2.7 1.4 1 2.86 2 4.31 2.91s3.07 1.77 4.63 2.7 3.27 2 4.89 3a8.72 8.72 0 0 0 7.23 1.3.74.74 0 0 1 .31-.1c3.33-.36 5.93-2.13 8.32-4.31 2.24-2 4.63-3.9 6.86-6 .94-.83 1.87-1.77 2.86-2.65a63.18 63.18 0 0 1 7.69-5.77c2.7-1.66 5.35-3.53 8.06-5.3 1.51-1 3-2.08 4.47-3.07s3.07-1.77 4.57-2.7c3.43-2 6.81-4.11 10.29-6 2.39-1.3 4.94-2.24 7.33-3.43a20 20 0 0 1 11-1.87c1 .1 2 .36 3.07.57a1.16 1.16 0 0 1 .94.94 16.23 16.23 0 0 1 .52 7.07 30.77 30.77 0 0 1-1.4 5.2c-.83 2.34-1.82 4.63-2.7 7-.68 1.82-1.25 3.69-2 5.51a25.77 25.77 0 0 1-2.24 4.05c-1.51 2.34-3 4.63-4.63 7s-3.17 4.37-4.73 6.55-3.43 4.47-5.09 6.76a2.74 2.74 0 0 1-.62.73 23.79 23.79 0 0 0-3.69 3.9c-.36.42-.83.73-1.14 1.09-2 2.5-4.31 4.78-6.34 7.23a15.5 15.5 0 0 0-1.56 2.08 32.5 32.5 0 0 1-3 3c-1.46 1.56-2.81 3.22-4.31 4.73a11.82 11.82 0 0 0-1.92 2.34 2.93 2.93 0 0 0-.42 2.08 5.92 5.92 0 0 0 2.29 4.16 25 25 0 0 0 5.93 3.17c1.09.36 2.24.47 3.38.78l10 2.5c.42.1.83.1 1.3.21a7.89 7.89 0 0 1 1.09.16 36.91 36.91 0 0 0 6.34 1.2c2.65.42 5.3.83 7.9 1.35 3.74.78 7.49 1.56 11.23 2.5 2.5.57 4.89 1.35 7.28 2 .83.26 1.72.52 2.55.83 2.76 1 5.56 2.08 8.32 3.17a34.13 34.13 0 0 1 7.33 3.9 38.31 38.31 0 0 1 3.85 3.33 27.08 27.08 0 0 1 2.91 3.07c1.2 1.51 2.24 3.07 3.38 4.63a6.55 6.55 0 0 1 .62 1.51c.47 1.25 1 2.5 1.46 3.74a19.63 19.63 0 0 1 1.14 5.51 3 3 0 0 1-1.25 2.55 27.46 27.46 0 0 1-4 3 10.6 10.6 0 0 1-8.21 1.3c-3.53-1-7.07-2-10.66-2.86-3-.73-6-1.72-8.89-2.65-2.24-.73-4.57-1.09-6.86-1.66a71.55 71.55 0 0 0-10-1.14c-1-.1-2-.05-3-.1-4.26-.1-8.42-.94-12.63-1.4-2.24-.21-4.52-.57-6.76-.83-.73-.1-1.46 0-2.18-.05-3.69-.1-7.38-.31-11-.42-1.2-.05-2.39-.05-3.59-.1a5.49 5.49 0 0 1-1.3-.1 7.72 7.72 0 0 0-5.15.78c-.62.31-1.25.62-1.87.88a5.16 5.16 0 0 0-1.77 1.35c-.73.78-1.61 1.35-2.34 2.08-1.46 1.56-2.91 3.12-4.26 4.73-.94 1.09-1.77 2.24-2.7 3.43a45.69 45.69 0 0 0-3.69 6.13 56.5 56.5 0 0 0-3.12 7c-.57 1.51-1.3 3-1.92 4.47s-1.09 3-1.66 4.47c-.68 1.77-1.35 3.48-2.08 5.25-1 2.34-2 4.73-3 7.07a28 28 0 0 1-1.56 2.7c-.73 1.3-1.46 2.7-2.18 4-1.56 2.81-2.91 5.72-4.73 8.42-.57.83-1 1.82-1.56 2.7-1 1.72-2 3.43-3 5.15-.88 1.56-1.66 3.22-2.65 4.73a23.5 23.5 0 0 1-7.64 7.69 14.75 14.75 0 0 1-4.26 2.08c-1.4.36-2.76 1.14-4.16 1.46a9.54 9.54 0 0 1-5.77-.36 6.18 6.18 0 0 1-3.53-5.2 10.6 10.6 0 0 1-.68-3.48zm-2.13-117.38a31.66 31.66 0 0 1-6.71 3.48c-2.18 1-4.47 1.77-6.76 2.6a39.18 39.18 0 0 1-5.82 1.72c-1.56.26-3 1-4.52 1.3-2.18.42-4.31 1.14-6.5 1.72-1.72.47-3.43.88-5.09 1.3a15.17 15.17 0 0 1-3.69.83 2.65 2.65 0 0 0-1 .31c-1.09.36-2.24.78-3.43 1.09-1.46.47-2.86.94-4.37 1.3l-5 1.25c-.73.16-1.51.26-2.24.42a11.9 11.9 0 0 1-1.46.42 33.65 33.65 0 0 0-5.09 1.46 4.87 4.87 0 0 1-.83.21c-1.25.21-2.5.36-3.74.62s-2.6.62-3.9.88c-1.51.26-3 .47-4.47.68-1.09.1-2.13.21-3.22.36-1.87.26-3.79.26-5.41 1.56a4 4 0 0 0-1.77 2.81 4.37 4.37 0 0 0 1.09 3.22 48.58 48.58 0 0 0 4.16 3.85 31.62 31.62 0 0 0 8.06 5.25 22.51 22.51 0 0 0 4.11 1.4 59.8 59.8 0 0 1 8.47 2.24 4.69 4.69 0 0 0 1.14.31l6.08.78c3.48.42 7 0 10.5-.1 1.35-.05 2.7 0 4.11-.05a3.07 3.07 0 0 0 .73-.1c1.14-.16 2.34-.36 3.48-.57 1.87-.26 3.69-.47 5.56-.73s3.74-.57 5.67-.78a32.5 32.5 0 0 1 4.52-.31c2.18.05 4.31-.36 6.5-.36a63.17 63.17 0 0 0 7.69-.73c1.66-.16 3.43-.31 5-.62a30.45 30.45 0 0 0 4.26-.73 2.49 2.49 0 0 1 1.35.16 4.78 4.78 0 0 1 1.4.83 2 2 0 0 1 .68.94 14.37 14.37 0 0 1 .73 6.29c-.1 3-.47 6-.73 9.1-.1 1.82-.21 3.69-.36 5.51-.26 3.27-.47 6.5-.73 9.82a24.75 24.75 0 0 1-.31 3.43 48.82 48.82 0 0 0-.83 6.08c-.1 1.35 0 2.76-.21 4.11-.16 1.2-.42 2.39-.52 3.64-.21 2.81-.57 5.56-.83 8.42-.16 2.5-.1 5.09-.16 7.59-.05 1.09.05 2.24-.1 3.38a23.45 23.45 0 0 0-.16 5.41c.1 1.09.16 2.18.26 3.22a7 7 0 0 0 2 5 4.64 4.64 0 0 0 2.7 1.46 5.83 5.83 0 0 0 3.38-.52 6.34 6.34 0 0 1 .88-.36 8.69 8.69 0 0 0 3.85-2.7c.42-.47.88-.94 1.3-1.46 1.4-1.72 2.86-3.43 4.26-5.2.52-.62.88-1.4 1.35-2.08 1.2-1.87 2.44-3.74 3.64-5.61 1.3-2.13 2.55-4.26 3.9-6.39 1.25-2 2.55-3.85 3.74-5.82 1.14-1.82 2.24-3.69 3.33-5.56 1.3-2.34 2.5-4.78 3.79-7.23 1.66-3.17 3.33-6.29 5-9.51a43.81 43.81 0 0 0 2-4.16c.78-1.92 1.3-3.9 2.08-5.82a48.43 48.43 0 0 0 2-6.6 16.73 16.73 0 0 1 2.24-5.35 7.28 7.28 0 0 0 .52-.83 33.87 33.87 0 0 1 4.47-6.86 10.61 10.61 0 0 1 5.46-3.69 31 31 0 0 1 3.74-.57 15.76 15.76 0 0 1 4.94-.16 3.64 3.64 0 0 0 1.3 0 59 59 0 0 1 8.58.05c1.82.1 3.69.31 5.51.36a54.41 54.41 0 0 1 8.73.62 11.36 11.36 0 0 0 2.24.26c2.55.1 5.09.52 7.64.83 2.29.31 4.52.88 6.81 1.09 3.22.31 6.45.94 9.62 1.46 1.14.16 2.24.42 3.43.62a38 38 0 0 1 8 2c.94.42 2 .57 3 .94 2.13.68 4.31 1.3 6.34 2.08a43.43 43.43 0 0 0 7.64 2.39 12.49 12.49 0 0 0 6.6-.62 1.36 1.36 0 0 0 .47-.26c2-2 2.81-3.9 1.66-7-.68-1.82-1.14-3.79-2.65-5.25-.1-.1-.1-.36-.21-.47-.94-1.77-1.82-3.48-2.81-5.25a11.33 11.33 0 0 0-3.17-3.69l-1.77-1.3a19.15 19.15 0 0 0-4.52-2.76c-1.56-.68-3.07-1.61-4.89-1.77a6.72 6.72 0 0 1-1.09-.36c-.83-.31-1.72-.57-2.55-.88-2.5-.78-5-1.51-7.49-2.24-.78-.21-1.51-.57-2.24-.73-2.81-.62-5.61-1.25-8.47-1.82a7.89 7.89 0 0 0-1.09-.16c-3.27-.73-6.5-1.51-9.82-2.24-1.66-.36-3.27-.83-4.94-1.25s-3.12-.62-4.63-.94a45.82 45.82 0 0 1-5.3-1.14 70.14 70.14 0 0 0-8-1.77 37.34 37.34 0 0 1-6.71-1.72 23.33 23.33 0 0 1-3.69-1.61 48.91 48.91 0 0 1-4.78-3.9 1.94 1.94 0 0 1 0-3 22.05 22.05 0 0 0 1.56-1.56c1.77-1.92 3.69-3.79 5.35-5.82 1.56-1.82 3-3.79 4.42-5.77a27.7 27.7 0 0 1 4-4.52c.83-.78 1.82-1.4 2.7-2.13 1.25-1 2.44-2.18 3.69-3.17a40.29 40.29 0 0 0 8.63-9.67c.83-1.3 1.66-2.65 2.6-3.85a32.19 32.19 0 0 0 3.79-5.35 4 4 0 0 1 .57-.83 27.41 27.41 0 0 0 3.22-5.46C423.05 88.4 425 83.67 427 79a47.12 47.12 0 0 0 2.34-7 3.91 3.91 0 0 0-.05-1.56 5.86 5.86 0 0 0-.42-1.25c-.83-1.77-1.72-2.7-3.48-2.5a28.78 28.78 0 0 0-3.69.62c-1.92.52-3.85 1.09-5.72 1.66s-3.53 1.2-5.3 1.87c-1.35.52-2.7 1.09-4.05 1.77-2.34 1.3-4.63 2.65-7 4a2.88 2.88 0 0 0-.42.31c-2.24 1.66-4.47 3.27-6.65 5-2.86 2.24-5.56 4.68-8.42 7-2.7 2.08-5.46 4.05-8.16 6-1.56 1.14-3.17 2.24-4.68 3.48a43.9 43.9 0 0 1-6.5 4.52c-2.91 1.61-5.82 3.22-8.63 4.89a3.62 3.62 0 0 1-3.69.05c-2-1-4-2-6-3.12a14.54 14.54 0 0 1-1.56-.78c-1.3-.88-2.6-1.82-3.9-2.7s-2.44-1.4-3.69-2.08c-1.09-.57-2.13-1.2-3.22-1.82-2-1.25-3.9-2.55-5.82-3.79-1.2-.78-2.39-1.51-3.59-2.24-1.66-1-3.22-2.13-4.94-3.17-1.92-1.14-3.9-2.24-5.82-3.33-.78-.42-1.56-.83-2.29-1.2-1.82-.88-3.69-1.77-5.56-2.7-1.25-.62-2.5-1.35-3.69-2-.57-.31-1.14-.57-1.77-.88-1.82-.94-3.64-1.92-5.46-2.86a52 52 0 0 1-5.35-2.76 17.64 17.64 0 0 0-9.15-2.76 5.05 5.05 0 0 0-4 1.2 4.44 4.44 0 0 0-1.66 3 10.57 10.57 0 0 0 .94 5.67c1.09 2.39 2.13 4.83 3.22 7.23.42 1 .94 2 1.3 3a36.37 36.37 0 0 0 3.12 6.39c1.56 2.65 3 5.35 4.47 8.06.88 1.66 1.77 3.38 2.7 5.09s2.08 3.64 3.07 5.51c1.46 2.7 2.81 5.56 4.16 8.32 1 2 1.92 3.9 2.86 5.82a17.41 17.41 0 0 1 1.3 3.22 45.21 45.21 0 0 0 3.22 7.43 15.23 15.23 0 0 1 2.28 4.88z"/><path class="cls-2" d="M307.65 144.49a22.37 22.37 0 0 0-2-4.89 40.7 40.7 0 0 1-3.22-7.43c-.36-1.09-.83-2.13-1.3-3.22-.94-2-1.87-3.9-2.86-5.82-1.4-2.76-2.76-5.56-4.16-8.32-1-1.87-2-3.69-3.07-5.51-.88-1.66-1.77-3.38-2.7-5.09-1.46-2.7-2.91-5.41-4.47-8.06a40.42 40.42 0 0 1-3.12-6.39 25.5 25.5 0 0 0-1.3-3c-1.09-2.44-2.13-4.83-3.22-7.23a10.66 10.66 0 0 1-.94-5.67 4.34 4.34 0 0 1 1.66-3 5.05 5.05 0 0 1 4-1.2 19.17 19.17 0 0 1 9.15 2.76c1.72 1.09 3.59 1.82 5.35 2.76s3.69 1.92 5.46 2.86c.57.31 1.14.57 1.77.88 1.25.68 2.5 1.35 3.69 2 1.82.94 3.69 1.82 5.56 2.7.78.36 1.56.78 2.29 1.2 2 1.09 3.9 2.18 5.82 3.33 1.66 1 3.27 2.08 4.94 3.17 1.2.78 2.39 1.51 3.59 2.24 2 1.3 3.85 2.55 5.82 3.79 1 .68 2.13 1.25 3.22 1.82 1.25.73 2.5 1.35 3.69 2.08s2.6 1.82 3.9 2.7a14.54 14.54 0 0 0 1.56.78c2 1 4 2 6 3.12a3.5 3.5 0 0 0 3.69-.05c2.86-1.66 5.77-3.27 8.63-4.89a54 54 0 0 0 6.5-4.52c1.56-1.25 3.12-2.34 4.68-3.48 2.7-2 5.51-4 8.16-6 2.86-2.24 5.56-4.68 8.42-7 2.18-1.77 4.42-3.38 6.65-5 .1-.1.31-.21.42-.31 2.29-1.3 4.63-2.7 7-4a30.89 30.89 0 0 1 4.09-1.72c1.77-.68 3.48-1.3 5.3-1.87s3.79-1.2 5.72-1.66a23.81 23.81 0 0 1 3.69-.62c1.77-.16 2.7.73 3.48 2.5a3.54 3.54 0 0 1 .42 1.25 4 4 0 0 1 .05 1.56 41.91 41.91 0 0 1-2.39 7.07c-2 4.68-3.9 9.36-5.77 14.09a33.5 33.5 0 0 1-3.22 5.46c-.16.26-.42.52-.57.83a28.39 28.39 0 0 1-3.79 5.35 38.37 38.37 0 0 0-2.6 3.85 38.31 38.31 0 0 1-8.63 9.67c-1.3 1-2.44 2.13-3.69 3.17-.88.73-1.87 1.35-2.7 2.13a30 30 0 0 0-4 4.52c-1.4 2-2.86 3.9-4.42 5.77-1.72 2-3.53 3.9-5.35 5.82-.47.52-1 1-1.56 1.56a1.94 1.94 0 0 0 0 3c1.56 1.3 3.12 2.7 4.78 3.9a21.42 21.42 0 0 0 3.69 1.61 42.29 42.29 0 0 0 6.71 1.72 60.44 60.44 0 0 1 8 1.77 35.58 35.58 0 0 0 5.3 1.14c1.56.36 3.12.57 4.63.94 1.66.36 3.27.83 4.94 1.25 3.27.78 6.5 1.51 9.82 2.24a7.89 7.89 0 0 0 1.09.16c2.81.57 5.67 1.2 8.47 1.82.78.16 1.51.52 2.24.73 2.5.78 5 1.51 7.49 2.24.83.26 1.72.57 2.55.88a5.37 5.37 0 0 0 1.09.36c1.77.16 3.27 1.09 4.89 1.77a21 21 0 0 1 4.52 2.76l1.77 1.3a10.9 10.9 0 0 1 3.17 3.69c1 1.72 1.87 3.48 2.81 5.25a4.12 4.12 0 0 0 .21.47c1.51 1.46 2 3.43 2.65 5.25 1.09 3.12.36 5-1.66 7a1.36 1.36 0 0 1-.47.26 11.9 11.9 0 0 1-6.6.62 39.48 39.48 0 0 1-7.64-2.39c-2.08-.83-4.26-1.4-6.34-2.08-1-.31-2-.52-3-.94a38.84 38.84 0 0 0-8-2l-3.43-.62c-3.22-.52-6.39-1.09-9.62-1.46-2.29-.21-4.57-.83-6.81-1.09a63.57 63.57 0 0 0-7.64-.83 15.47 15.47 0 0 1-2.24-.26 49.38 49.38 0 0 0-8.73-.62c-1.82-.1-3.69-.26-5.51-.36a59 59 0 0 0-8.58-.05 3.64 3.64 0 0 1-1.3 0 15.71 15.71 0 0 0-4.94.16 31 31 0 0 0-3.74.57 10.93 10.93 0 0 0-5.46 3.69 31.79 31.79 0 0 0-4.47 6.86c-.16.31-.36.57-.52.83a20.15 20.15 0 0 0-2.24 5.35 57 57 0 0 1-2 6.6c-.83 1.92-1.3 3.9-2.08 5.82a38.45 38.45 0 0 1-2 4.16c-1.66 3.17-3.33 6.29-5 9.51-1.3 2.39-2.5 4.83-3.79 7.23-1 1.87-2.18 3.74-3.33 5.56-1.25 2-2.55 3.85-3.74 5.82s-2.55 4.26-3.9 6.39c-1.2 1.92-2.44 3.74-3.64 5.61a17.77 17.77 0 0 1-1.35 2.08c-1.4 1.77-2.81 3.43-4.26 5.2a17.31 17.31 0 0 1-1.3 1.46 8.41 8.41 0 0 1-3.85 2.7c-.31.1-.57.26-.88.36a5.89 5.89 0 0 1-3.38.52 4.64 4.64 0 0 1-2.7-1.46 7.51 7.51 0 0 1-2-5c-.1-1.09-.16-2.18-.26-3.22a26.88 26.88 0 0 1 .16-5.41 24.22 24.22 0 0 0 .1-3.38c.05-2.5 0-5.09.16-7.59.16-2.81.57-5.56.83-8.42.1-1.25.36-2.44.52-3.64.21-1.35.1-2.7.21-4.11a39.8 39.8 0 0 1 .83-6.08 24.75 24.75 0 0 0 .31-3.43c.26-3.27.52-6.5.73-9.82.1-1.82.21-3.69.36-5.51.21-3 .57-6 .73-9.1a14.37 14.37 0 0 0-.73-6.29 2.41 2.41 0 0 0-.68-.94 4.78 4.78 0 0 0-1.4-.83 2.08 2.08 0 0 0-1.35-.16c-1.35.52-2.86.42-4.26.73a41.74 41.74 0 0 1-5 .62 75.55 75.55 0 0 1-7.69.73c-2.18 0-4.31.42-6.5.36a26.11 26.11 0 0 0-4.52.31c-1.87.21-3.79.52-5.67.78s-3.69.47-5.56.73c-1.14.16-2.34.36-3.48.57-.26.05-.52.05-.73.1-1.35 0-2.7 0-4.11.05-3.48.1-7 .52-10.5.1l-6.08-.78a4.69 4.69 0 0 1-1.14-.31 46.17 46.17 0 0 0-8.47-2.24 23.94 23.94 0 0 1-4.11-1.4 34.1 34.1 0 0 1-8.06-5.25 47.92 47.92 0 0 1-4.11-3.85 4.44 4.44 0 0 1-1.09-3.22 4 4 0 0 1 1.77-2.81c1.61-1.3 3.53-1.3 5.41-1.56 1.09-.16 2.13-.21 3.22-.36 1.51-.21 3-.36 4.47-.68 1.3-.26 2.6-.62 3.9-.88s2.5-.42 3.74-.62a3.89 3.89 0 0 0 .83-.21 41 41 0 0 1 5.09-1.46 11.9 11.9 0 0 1 1.46-.42c.73-.16 1.51-.26 2.24-.42 1.66-.36 3.38-.78 5-1.25 1.46-.36 2.91-.83 4.37-1.3 1.14-.36 2.24-.73 3.43-1.09a4 4 0 0 1 1-.31 11.21 11.21 0 0 0 3.69-.83c1.72-.42 3.43-.83 5.09-1.3 2.18-.57 4.31-1.3 6.5-1.77 1.56-.31 3-1.09 4.52-1.3a46.56 46.56 0 0 0 5.82-1.72c2.24-.83 4.57-1.56 6.76-2.6a52.73 52.73 0 0 0 6.25-3.5zm7.28 114a13.54 13.54 0 0 0 .73 4.78c.52 1.3 1.3 2.5 2.91 2.5a4 4 0 0 0 1.77-.36 14 14 0 0 0 3.85-2.39c2.24-1.92 3.9-4.37 5.77-6.6a56 56 0 0 0 3.17-4.63c2.08-3.27 4.16-6.6 6.24-9.93 1.2-1.92 2.34-3.9 3.64-5.82a46.87 46.87 0 0 0 3.53-6c.36-.78.78-1.56 1.14-2.29.78-1.51 1.56-3 2.29-4.42.47-.88.88-1.82 1.35-2.7 1-2 2.18-3.85 3.12-5.82 1.3-2.86 2.5-5.82 3.48-8.73.88-2.5 1.66-5.09 2.39-7.64a26.13 26.13 0 0 1 2.39-5.67c1.09-2 2.44-3.9 3.48-5.82a20.94 20.94 0 0 1 3.33-4.11 5.45 5.45 0 0 1 2-1.3c.68-.31 1.3-.78 2-1.14a2.8 2.8 0 0 1 .68-.36c1.3-.26 2.55-.47 3.85-.68.52-.1 1.09-.1 1.61-.21a19.25 19.25 0 0 1 2.5-.31c2.34-.05 4.68-.05 7 .05 2 .05 4.16 0 6.19.21a32.33 32.33 0 0 0 5.93.26 24.72 24.72 0 0 1 3.38.1c2.34.21 4.63.57 7 .83s4.63.47 6.86.78c1.35.16 2.7.52 4.05.73 1.56.26 3.17.42 4.73.62 1.4.16 2.76.36 4.16.57l6 1.09c.83.16 1.66.36 2.5.57 1.56.36 3.17.68 4.73 1.09 1 .26 1.92.62 2.86.94 3.07 1 6.13 1.87 9.15 3a47.58 47.58 0 0 0 5.87 1.77 10.76 10.76 0 0 0 5.15-.1c2.08-.47 3-1.92 2.6-4.05a11.72 11.72 0 0 0-1.2-3.43c-1-2-2.29-3.85-3.27-5.82a13.5 13.5 0 0 0-4.47-5.46c-2-1.3-4.11-2.6-6.19-3.79a19.85 19.85 0 0 0-4.47-1.56c-2.08-.57-4.16-1.3-6.24-1.92-2.7-.78-5.35-1.4-8.06-2.13-2.91-.78-5.77-1.61-8.63-2.39-1.14-.31-2.29-.52-3.48-.78-1.77-.36-3.53-.68-5.3-1.09-2.76-.62-5.56-1.46-8.32-2.08-3.9-.88-7.75-1.72-11.64-2.55-2.76-.57-5.56-1.14-8.37-1.82a22.07 22.07 0 0 1-6.19-2.5c-.47-.26-.83-.62-1.3-.94a19.74 19.74 0 0 1-4.89-4.42 3.26 3.26 0 0 1-.36-2.5c.1-.62.42-1.2.57-1.82a1.61 1.61 0 0 1 .57-.83c.68-.52 1.4-1 2-1.56.78-.68 1.46-1.51 2.29-2.13a14.53 14.53 0 0 0 3-2.91c1.56-2 3.12-4.16 4.68-6.24a32.48 32.48 0 0 1 5.72-5.61 42 42 0 0 0 4.57-4c1.87-2.13 3.85-4.21 5.77-6.34a33.29 33.29 0 0 0 2.18-2.55c.83-1.09 1.56-2.24 2.39-3.38 1.09-1.51 2.24-2.91 3.33-4.37 1.25-1.77 2.5-3.53 3.59-5.41a49.53 49.53 0 0 0 2.29-5c.57-1.4 1-2.86 1.56-4.26 1.3-3.12 2.76-6.19 4.05-9.36a19.81 19.81 0 0 0 1.3-4.78c.21-1.72-.62-3.38-2.86-3a.31.31 0 0 0-.21.05 55.36 55.36 0 0 0-5.77 1.38c-2 .78-4.05 1.4-6 2.08a40.64 40.64 0 0 0-4.63 1.77c-2.86 1.56-5.61 3.27-8.42 4.94a1.4 1.4 0 0 0-.42.36L391.91 85c-1 .78-1.92 1.56-2.91 2.29-1.66 1.35-3.33 2.76-5 4.11-.94.78-1.92 1.51-3 2.24-1.35 1-2.76 1.92-4.16 2.91a48.71 48.71 0 0 0-4.52 3.38c-1.61 1.46-3.53 2.5-5.25 3.79a21.1 21.1 0 0 1-2.13 1.3l-2.7 1.56c-1.82 1-3.64 2-5.51 3a5 5 0 0 1-4.52.16 6 6 0 0 0-.94-.21 2.17 2.17 0 0 1-1.61-.94 1.79 1.79 0 0 0-.66-.59 58.81 58.81 0 0 1-8.06-4.63c-1.66-1.25-3.59-2.18-5.35-3.27-3.43-2.18-6.86-4.42-10.29-6.6l-8.58-5.3c-.88-.57-1.82-1-2.76-1.51-1.56-.83-3.07-1.77-4.63-2.55-2.08-1.09-4.31-2-6.34-3.27a50.83 50.83 0 0 0-5.3-2.7c-.73-.36-1.46-.83-2.18-1.2-2.24-1.09-4.57-2.24-6.76-3.38a16.61 16.61 0 0 0-7.33-2.13 7.25 7.25 0 0 0-2.13.21 3.06 3.06 0 0 0-2.44 3.22 7.84 7.84 0 0 0 .78 3.9 1.92 1.92 0 0 1 .26.57 17.27 17.27 0 0 0 1.77 4.16 5.29 5.29 0 0 1 .68 1.46 13.27 13.27 0 0 0 1.3 3.07c.16.36.36.73.52 1.09.68 1.46 1.3 3 2 4.42.26.57.52 1.2.83 1.77 1 1.77 2.13 3.53 3.17 5.3.83 1.51 1.66 3 2.5 4.57 1.3 2.44 2.5 4.89 3.74 7.28 1.09 2.18 2.24 4.37 3.38 6.5l2.5 4.83c.94 1.92 1.87 3.79 2.76 5.72.26.57.42 1.25.68 1.82.57 1.56 1.09 3.07 1.77 4.52a81.72 81.72 0 0 1 3.9 8.68 1.57 1.57 0 0 1-.1 1.09 6 6 0 0 1-3.07 2.91 59.91 59.91 0 0 1-10.81 4.47L288 155.2c-1.25.36-2.5.73-3.74 1-2.34.57-4.68 1.14-7 1.77-2.91.73-5.82 1.51-8.68 2.24-2.24.57-4.47 1.14-6.76 1.77s-4.73 1.3-7.12 1.92c-1.25.36-2.5.62-3.69.88-3.07.73-6.08 1.51-9.15 2.13-3.22.68-6.5 1.09-9.77 1.51-1.87.26-3.69.68-5.56 1.09a2.62 2.62 0 0 0-2 1.77 1.67 1.67 0 0 0 .26 1.82 32.23 32.23 0 0 1 2.39 2.18c1.77 2 4.16 3.38 6.34 4.83a19.89 19.89 0 0 0 6.81 2.7 87.58 87.58 0 0 1 8.79 2.34 5.74 5.74 0 0 0 .83.16c1.25.16 2.5.42 3.74.52 2.18.16 4.37.36 6.6.31 2.91-.05 5.82-.21 8.79-.36.62-.05 1.3-.16 2-.21 2.7-.1 5.46-.52 8.16-.88a49.64 49.64 0 0 1 7.85-.83c.21 0 .42-.1.62-.1 1.77-.1 3.53-.31 5.3-.36 1.09-.1 2.24.05 3.38-.1 2.24-.21 4.52-.42 6.76-.73 2.81-.36 5.67-.83 8.47-1.2a4.76 4.76 0 0 1 .83-.05 14.91 14.91 0 0 1 3.22 1.14 5.56 5.56 0 0 1 3.69 4.78 25.46 25.46 0 0 1 .21 4.89c-.16 3.48-.47 7-.73 10.5-.31 4.42-.57 8.89-.94 13.31-.21 2.5-.47 4.94-.78 7.43-.36 3.27-.68 6.5-1 9.82-.31 2.81-.68 5.56-.83 8.42-.16 2.29-.1 4.63-.1 6.91-.05 1.51-.05 3-.1 4.42a18.4 18.4 0 0 0-.1 2.39c-.17.76-.06 1.96-.06 3.16z"/><path class="cls-1" d="M314.93 258.49c-.05-1.2-.1-2.39-.1-3.59 0-.83.1-1.56.1-2.39.05-1.51.1-3 .1-4.42.05-2.29-.05-4.63.1-6.91.16-2.81.57-5.56.83-8.42.36-3.27.68-6.5 1-9.82.26-2.5.57-4.94.78-7.43.36-4.42.62-8.89.94-13.31.26-3.48.57-7 .73-10.5a22.13 22.13 0 0 0-.21-4.89 5.64 5.64 0 0 0-3.69-4.78 14 14 0 0 0-3.22-1.14 1.48 1.48 0 0 0-.83.05c-2.81.36-5.61.83-8.47 1.2-2.24.31-4.52.52-6.76.73-1.09.1-2.24.05-3.38.1-1.77.1-3.53.26-5.3.36a2.61 2.61 0 0 1-.62.1 49.64 49.64 0 0 0-7.85.83 71.21 71.21 0 0 1-8.16.88c-.62.05-1.3.16-2 .21-2.91.1-5.82.36-8.79.36-2.18.05-4.37-.16-6.6-.31-1.3-.1-2.5-.36-3.74-.52l-.83-.16a84 84 0 0 0-8.79-2.34 21 21 0 0 1-6.81-2.7c-2.24-1.46-4.57-2.76-6.34-4.83-.73-.83-1.61-1.4-2.39-2.18a1.78 1.78 0 0 1-.26-1.82 2.53 2.53 0 0 1 2-1.77c1.82-.36 3.69-.83 5.56-1.09 3.22-.42 6.5-.83 9.77-1.51 3.07-.62 6.13-1.4 9.15-2.13 1.25-.31 2.5-.57 3.69-.88 2.39-.62 4.73-1.3 7.12-1.92 2.24-.57 4.47-1.14 6.76-1.77 2.91-.78 5.82-1.56 8.68-2.24 2.34-.57 4.68-1.14 7-1.77 1.3-.31 2.5-.68 3.74-1 2.5-.73 4.94-1.4 7.38-2.13a63.18 63.18 0 0 0 10.81-4.47 6 6 0 0 0 3.07-2.91 2 2 0 0 0 .1-1.09 76.34 76.34 0 0 0-3.9-8.68c-.68-1.46-1.14-3-1.77-4.52a12.9 12.9 0 0 0-.68-1.82c-.88-1.92-1.82-3.85-2.76-5.72-.83-1.61-1.61-3.22-2.5-4.83a265.35 265.35 0 0 0-3.38-6.5c-1.25-2.44-2.5-4.89-3.74-7.28-.83-1.56-1.61-3.07-2.5-4.57-1-1.77-2.13-3.53-3.17-5.3a11 11 0 0 1-.83-1.77c-.68-1.46-1.3-3-2-4.42-.16-.36-.36-.73-.52-1.09a11.35 11.35 0 0 1-1.3-3.07 5.29 5.29 0 0 0-.68-1.46 17.27 17.27 0 0 1-1.77-4.16 1.15 1.15 0 0 0-.26-.57 7.22 7.22 0 0 1-.78-3.9 3.13 3.13 0 0 1 2.44-3.22 7.25 7.25 0 0 1 2.13-.21 16.61 16.61 0 0 1 7.33 2.13c2.24 1.2 4.52 2.24 6.76 3.38.73.36 1.46.83 2.18 1.2 1.77.88 3.64 1.66 5.3 2.7 2 1.3 4.21 2.18 6.34 3.27 1.56.83 3.12 1.72 4.63 2.55.94.52 1.87.94 2.76 1.51 2.86 1.77 5.72 3.48 8.58 5.3 3.43 2.18 6.86 4.42 10.29 6.6 1.77 1.09 3.69 2 5.35 3.27a62.08 62.08 0 0 0 8.06 4.63 1.69 1.69 0 0 1 .68.52 2.26 2.26 0 0 0 1.61.94 4.94 4.94 0 0 1 .94.21 5.3 5.3 0 0 0 4.52-.16c1.87-.94 3.69-2 5.51-3l2.7-1.56a14.56 14.56 0 0 0 2.13-1.3c1.72-1.3 3.64-2.34 5.25-3.79 1.4-1.25 3-2.24 4.52-3.38 1.35-1 2.76-1.92 4.16-2.91 1-.73 2-1.46 3-2.24 1.72-1.35 3.33-2.7 5-4.11.94-.78 1.92-1.56 2.91-2.29 2.5-2 5-3.9 7.54-5.82a2.6 2.6 0 0 0 .42-.36c2.81-1.66 5.56-3.38 8.42-4.94a29.26 29.26 0 0 1 4.63-1.77c2-.73 4.05-1.35 6-2.08a44.85 44.85 0 0 1 5.91-1.58c.1 0 .1-.05.21-.05 2.24-.36 3.12 1.3 2.86 3a22.51 22.51 0 0 1-1.3 4.78c-1.3 3.17-2.7 6.24-4.05 9.36-.57 1.4-1 2.86-1.56 4.26a55.28 55.28 0 0 1-2.29 5c-1.09 1.87-2.34 3.69-3.59 5.41-1.09 1.51-2.24 2.91-3.33 4.37-.83 1.09-1.56 2.24-2.39 3.38a33.29 33.29 0 0 1-2.18 2.55c-1.92 2.13-3.85 4.21-5.77 6.34a33.65 33.65 0 0 1-4.57 4 30.77 30.77 0 0 0-5.72 5.61l-4.68 6.24a17.8 17.8 0 0 1-3 2.91c-.83.62-1.51 1.46-2.29 2.13a15 15 0 0 1-2 1.56 1.08 1.08 0 0 0-.57.83c-.1.62-.47 1.2-.57 1.82a2.87 2.87 0 0 0 .36 2.5 17.26 17.26 0 0 0 4.89 4.42c.47.31.83.68 1.3.94a20.62 20.62 0 0 0 6.19 2.5c2.76.62 5.56 1.2 8.37 1.82 3.9.83 7.75 1.66 11.64 2.55 2.76.62 5.56 1.4 8.32 2.08 1.77.42 3.53.73 5.3 1.09 1.14.26 2.34.47 3.48.78 2.91.78 5.77 1.61 8.63 2.39 2.7.73 5.35 1.4 8.06 2.13 2.08.57 4.16 1.3 6.24 1.92a16.29 16.29 0 0 1 4.47 1.56c2.08 1.2 4.16 2.5 6.19 3.79a12.48 12.48 0 0 1 4.47 5.46c1 2 2.24 3.9 3.27 5.82a11.72 11.72 0 0 1 1.2 3.43c.36 2.13-.47 3.59-2.6 4.05a11.46 11.46 0 0 1-5.15.1 54.8 54.8 0 0 1-5.87-1.77c-3-1.09-6.08-2-9.15-3-1-.31-1.92-.73-2.86-.94-1.56-.42-3.17-.73-4.73-1.09-.83-.21-1.66-.36-2.5-.57-2-.36-4-.78-6-1.09-1.35-.21-2.76-.36-4.16-.57-1.56-.21-3.17-.36-4.73-.62-1.35-.21-2.7-.57-4.05-.73-2.29-.31-4.63-.52-6.86-.78s-4.63-.57-7-.83c-1.09-.1-2.24-.1-3.38-.1a44.82 44.82 0 0 1-5.93-.26 61 61 0 0 0-6.19-.21c-2.34-.05-4.68-.05-7-.05a21.8 21.8 0 0 0-2.5.31c-.52.1-1.09.1-1.61.21-1.3.21-2.55.42-3.85.68a2.16 2.16 0 0 0-.68.36 12.25 12.25 0 0 1-2 1.14 6.21 6.21 0 0 0-2 1.3 18 18 0 0 0-3.33 4.11c-1.09 2-2.44 3.85-3.48 5.82a28.49 28.49 0 0 0-2.39 5.67c-.73 2.55-1.51 5.09-2.39 7.64-1.09 3-2.24 5.87-3.48 8.73a62.62 62.62 0 0 1-3.12 5.82c-.47.88-.88 1.77-1.35 2.7-.78 1.51-1.56 3-2.29 4.42-.36.78-.83 1.56-1.14 2.29a43.59 43.59 0 0 1-3.53 6c-1.3 1.92-2.44 3.85-3.64 5.82-2.08 3.33-4.16 6.65-6.24 9.93a48.41 48.41 0 0 1-3.17 4.63c-1.87 2.24-3.48 4.68-5.77 6.6a16.41 16.41 0 0 1-3.85 2.39 4.14 4.14 0 0 1-1.77.36c-1.66.05-2.39-1.2-2.91-2.5a10.6 10.6 0 0 1-.67-4.16zm33.32-84.94a2.37 2.37 0 0 0 2.6-1.35.75.75 0 0 0 .15-.2 5 5 0 0 0-.73-6.5 22.18 22.18 0 0 0-2.13-1.51 2.64 2.64 0 0 0-2.76-.16 11.73 11.73 0 0 0-3.69 2.65 2.72 2.72 0 0 0 .36 4 6.79 6.79 0 0 1 .57.62 16 16 0 0 0 1.35 1.25 7.16 7.16 0 0 0 4.31 1.2zm.75-28.23c-2.86-.52-5 2.5-4.83 4.63.05.57.1 1.09.16 1.61a4.82 4.82 0 0 0 3.69 4.11 9.76 9.76 0 0 0 5 0c2.81-.83 3.53-2.18 3.27-4.42a8.69 8.69 0 0 0-1.25-3.07 4.57 4.57 0 0 0-2.55-2.18 8.39 8.39 0 0 0-3.53-.68zm15.75-11.18a5.21 5.21 0 0 0-1.09-2.81 5.66 5.66 0 0 0-3.12-2.24 5.9 5.9 0 0 0-6 2.24 2.18 2.18 0 0 0-.05 3c.21.31.36.62.57.94a5.74 5.74 0 0 0 6.76 2.86c1.76-.3 2.96-1.7 2.96-3.99zm.57 29.94a4 4 0 0 0 2.29-.78 4.62 4.62 0 0 0 2-3.9 6.24 6.24 0 0 0-5.09-5.2 2.71 2.71 0 0 0-2.29.57c-.83.78-1.66 1.56-2.5 2.44a1.46 1.46 0 0 0-.36 1 8.1 8.1 0 0 0 .83 2.76 6 6 0 0 0 5.15 3.12zm-31.92-4.57c1-.1 2-.1 2.29-1.3a1.13 1.13 0 0 0 .21-.26 6.47 6.47 0 0 0 .88-1.66c.47-2 .1-4.21-2.76-4.83a4 4 0 0 0-.78-.1c-1.56.1-3.12.42-3.9 2a8.9 8.9 0 0 0-.73 2.55 2.69 2.69 0 0 0 1.82 2.86c1 .31 2 .52 3 .78zm6.95-18.51c2.29.05 2.76-.26 3.69-1.77.1-.1.16-.26.26-.36a3.81 3.81 0 0 0-1.82-5.61c-.42-.1-.88-.26-1.35-.36a3.19 3.19 0 0 0-3.48 1.09 12.33 12.33 0 0 0-1.2 1.56 3.13 3.13 0 0 0 .21 3.9 4.85 4.85 0 0 0 3.69 1.56zm1.3 44.34a6.64 6.64 0 0 0 .88.1 2.72 2.72 0 0 0 2.29-.94 3.13 3.13 0 0 0 .26-3.69 4 4 0 0 0-3.38-2 4.83 4.83 0 0 0-3.43 1.66 2.69 2.69 0 0 0 .47 4.16 3.93 3.93 0 0 0 2.91.73zm-8-59.68a9.05 9.05 0 0 0-1.14.26c-2 .62-2.44 1.82-1.2 3.48.73 1 1.46 2.08 3 2.24a3.16 3.16 0 0 0 2.76-1.3c.62-.68.1-1.35-.1-2l-.1-.21a3.54 3.54 0 0 0-3.17-2.44zm44.86 34.52a6.62 6.62 0 0 0-3 1.25c-1.3.88-1.25 1.66-.1 2.7a25.07 25.07 0 0 0 2.24 1.87 1.47 1.47 0 0 0 .88.36c2.55.05 3.69-1.82 3.07-3.69-.05-.16-.1-.36-.16-.52-.44-1.34-1.27-1.96-2.94-1.96zm-38.1 34.88a2.33 2.33 0 0 0 1.77-.78c.83-1.09 1.35-2.18-.16-3.43l-.36-.36a3.92 3.92 0 0 0-2.76-1 2.8 2.8 0 0 0-2.44 3.64 1.63 1.63 0 0 0 .83.94 31.09 31.09 0 0 0 3.12 1zm24.8-71.94a1.79 1.79 0 0 0-1.61 2.7c.31.52.57 1.09.83 1.61.78 1.51 1.77 1.87 3.27 1.2.21-.1.42-.26.62-.36a1.47 1.47 0 0 0 .73-1.66 4.26 4.26 0 0 0-3.85-3.48zm21.68 43.51c0 1.51 1.09 2.24 2.18 2.81a2.12 2.12 0 0 0 3-1 4.4 4.4 0 0 0-.57-4.37 2 2 0 0 0-2.18-.62 3 3 0 0 0-2.39 3.17zm-58.32-42.78a2.55 2.55 0 0 0 2.65-1.2 1.09 1.09 0 0 0 .1-1.3 4.65 4.65 0 0 0-5-2.65 1.11 1.11 0 0 0-1 1c-.32 1.86.89 4.3 3.23 4.15zm-37.71-42.52a2.17 2.17 0 0 0-1.77.83 1.53 1.53 0 0 0-.26 2 5.14 5.14 0 0 0 3 2.24 2.07 2.07 0 0 0 2.44-1.82 3.65 3.65 0 0 0-3.41-3.25zm17.57 85a11.08 11.08 0 0 0 1.46-.47 1.73 1.73 0 0 0 .68-2.76 6.25 6.25 0 0 0-1.51-1.35c-1.72-1.09-3.27-1-4.37 1.09a1.42 1.42 0 0 0 .05 1.56 4 4 0 0 0 3.69 1.92zm73.87-48.81c.26-.1.78-.16 1.25-.36a1.11 1.11 0 0 0 .78-1.3A3.52 3.52 0 0 0 380 113a2 2 0 0 0-1.46 1.61 1.87 1.87 0 0 0 .83 1.87 4.94 4.94 0 0 0 2.93 1.03zm-66.17 46.78c.21-.05.42-.05.62-.1a2.25 2.25 0 0 0 1.56-3.07 4 4 0 0 0-3.27-2.29 1.62 1.62 0 0 0-1.82 1c-1.09 1.92.68 4.37 2.91 4.47zm6.81-47.72a2.68 2.68 0 0 0 1.92-.88 1.1 1.1 0 0 0 .21-1.3 4.92 4.92 0 0 0-4-2.6 1.53 1.53 0 0 0-1.56 2.24 4.07 4.07 0 0 0 3.42 2.53zm68.83-13.36a3.82 3.82 0 0 0 4.11 2.86 1.33 1.33 0 0 0 1.14-1.56 3.38 3.38 0 0 0-1.77-2.7 2 2 0 0 0-2.7.47c-.21.31-.52.57-.78.94zm-91.49-14a3.46 3.46 0 0 0-.83-2.18 2.42 2.42 0 0 0-2.5-.78 2.46 2.46 0 0 0-1.87 1.61 1.09 1.09 0 0 0 .36 1.35 5.56 5.56 0 0 1 .83.73 3.59 3.59 0 0 0 2.34.94 1.61 1.61 0 0 0 1.66-1.66zm89.46 20.48a3.81 3.81 0 0 0-1.56-2.65 1.86 1.86 0 0 0-2.55-.16 2.16 2.16 0 0 0-.62 2.65 3.28 3.28 0 0 0 2.65 1.82 1.86 1.86 0 0 0 2.08-1.66zm-74.39-5.2c-1.46 0-2.18.78-1.87 1.82a7.82 7.82 0 0 0 .83 1.77 1.34 1.34 0 0 0 .73.57 12.52 12.52 0 0 0 1.96.34 1.78 1.78 0 0 0 1.56-.83 1.25 1.25 0 0 0-.1-1.4c-.26-.42-.57-.83-.88-1.25a2.9 2.9 0 0 0-2.24-1.01zm18.87 96.64a5.25 5.25 0 0 0 .36 1.2 4 4 0 0 0 2.6 1.61 1.83 1.83 0 0 0 2-.83 2.61 2.61 0 0 0-.1-2.55 3.56 3.56 0 0 0-3.12-1.09c-1.09-.05-1.56.52-1.77 1.66zM323 161.28a1.83 1.83 0 0 0 1.77-.94 1.74 1.74 0 0 0-.36-2.18 9 9 0 0 1-.62-.73 3.2 3.2 0 0 0-3.07-.88 1.43 1.43 0 0 0-1.25 1.2 2.9 2.9 0 0 0 1.56 3 10.43 10.43 0 0 0 2 .57zm50.06-12.94a4.55 4.55 0 0 1 .83-.1 1.29 1.29 0 0 0 1.09-1.3 3.12 3.12 0 0 0-2.5-3.07.82.82 0 0 0-1.09.78 1.69 1.69 0 0 1-.62 1.51 1.44 1.44 0 0 0-.1.73 2.18 2.18 0 0 0 2.43 1.44zM408 173.39c2.29.05 3.22-1.25 2.55-3a5.68 5.68 0 0 0-.42-.78 1.32 1.32 0 0 0-1.56-.62 14.89 14.89 0 0 0-2.44 1.14 1.28 1.28 0 0 0-.21 1.77 2.94 2.94 0 0 0 2.08 1.51zM304.17 90.84a1.4 1.4 0 0 0-1.56 1.56c-.1 1.87 2.5 3.12 3.69 2.76a1.49 1.49 0 0 0 1-1.92 3.32 3.32 0 0 0-3.13-2.4zm69.61 32.28l1.09-.16a1.35 1.35 0 0 0 .88-2 3.27 3.27 0 0 0-4-1.66 1.53 1.53 0 0 0-.62 2.44 3.59 3.59 0 0 0 2.65 1.35zM337.49 211a3.1 3.1 0 0 0-3.74-2.7 1.15 1.15 0 0 0-.62.68 2.44 2.44 0 0 0 .36 2.24 2.36 2.36 0 0 0 3.22 1 1.23 1.23 0 0 0 .78-1.2zm61.34-40.34a9.34 9.34 0 0 0 1.25-.52 1.44 1.44 0 0 0 .68-1.51c-.1-1.14-1.61-2.5-2.76-2.24a7.7 7.7 0 0 0-2.13.88.94.94 0 0 0-.36 1.14 4.08 4.08 0 0 0 3.33 2.24zm49.85 9.67a2.87 2.87 0 0 0-3-2.6c-.94.16-1.72 1.56-1.25 2.29a4.1 4.1 0 0 0 2.34 1.82 1.37 1.37 0 0 0 1.92-1.51zM308.74 99.11c-.21 1.61 1.61 3.07 3.38 2.65a1.46 1.46 0 0 0 1.2-1.66 3.51 3.51 0 0 0-2.39-2.7 1.65 1.65 0 0 0-2.19 1.71zm21.42 130.06a2.4 2.4 0 0 0 1.84 2.23 1.92 1.92 0 0 0 2.24-1.92 2.3 2.3 0 0 0-2.18-2.34c-1.12-.14-1.8.62-1.9 2.03zm38.1-50c1.46.1 2.24-.78 2-1.82a3.37 3.37 0 0 0-2.5-2.29 1.56 1.56 0 0 0-1.72 1.72 2.29 2.29 0 0 1 .1.83 1.33 1.33 0 0 0 .83 1.14c.47.21 1 .31 1.25.42zm-18.61-56.09a1.47 1.47 0 0 0 1.3-.94c.52-1.3.05-2-.83-3-.73-.83-2.91-.16-3 .94a2.69 2.69 0 0 0 2.53 2.99zm-24 53.33a2 2 0 0 0-1.82-2.13 2.4 2.4 0 0 0-2.24 2.24c-.05 1 1 1.82 2.29 1.82s1.77-.57 1.77-1.92zm5.93 42.83a8.32 8.32 0 0 0 .68 1.56 1.84 1.84 0 0 0 2.24.62 1.34 1.34 0 0 0 1.14-1.35c.26-1-.16-1.72-1.35-2.39a1.85 1.85 0 0 0-1.87-.05 1.74 1.74 0 0 0-.86 1.61zm123.62-37.95a1.25 1.25 0 0 0-1.51.78 1.18 1.18 0 0 0 .52 1.51 9.13 9.13 0 0 0 2 1.09 1.41 1.41 0 0 0 1.77-1.35 2.19 2.19 0 0 0-1.56-1.82 3.41 3.41 0 0 0-1.2-.21zm-202-8.06c-1.09 0-1.61.31-1.87 1-.26.83-.05 1.3.83 1.92a2.79 2.79 0 0 0 2.39.36 1.27 1.27 0 0 0 1.14-1 1.37 1.37 0 0 0-.42-1.46 4.08 4.08 0 0 0-2.05-.82zm145.26-75.37a1.62 1.62 0 0 0 1.46 1.82 2.43 2.43 0 0 0 .83.1c1.09-.05 1.72-.88 1.09-1.82a5.09 5.09 0 0 0-1.66-1.66 1.1 1.1 0 0 0-1.77 1.09.68.68 0 0 1 .05.47zM418.53 174a2.13 2.13 0 0 1 .57-.05 1.37 1.37 0 0 0 1.14-2.24c-.57-1.09-.83-1.25-2-1.09a2.24 2.24 0 0 0-1.77 1.66 1.88 1.88 0 0 0 1.72 1.66.67.67 0 0 0 .34.06zm-137.29-3.74a3.89 3.89 0 0 0 4.21 1.3 1.07 1.07 0 0 0 .62-1.3 3.2 3.2 0 0 0-3.17-1.61 1.8 1.8 0 0 0-.62.36c-.28.33-.67.79-1.04 1.21zm11.18-.05a1.22 1.22 0 0 0 1.35-.62 1.25 1.25 0 0 0-.1-1.4 2.86 2.86 0 0 0-3.33-1.4 1 1 0 0 0-.83 1.56 3.52 3.52 0 0 0 2.91 1.87zm65.34 10.14c.1 1.35.52 1.92 1.66 1.92a4 4 0 0 0 .78-.1 1.33 1.33 0 0 0 .8-2.17 3.1 3.1 0 0 0-1.77-1.35 1 1 0 0 0-1.4.83 2 2 0 0 0-.1.83zm79.17-1.35a1.88 1.88 0 0 0 1.51-.83 1.29 1.29 0 0 0-.36-1.66 10.54 10.54 0 0 0-1.2-.94 1 1 0 0 0-1.3-.05 1.64 1.64 0 0 0-.83 1.4 2.48 2.48 0 0 0 2.18 2.08zm-107.5 61a1.59 1.59 0 0 0 1.56-1.51 2.18 2.18 0 0 0-1.92-2.08 2.05 2.05 0 0 0-1.66 2.08c-.05.78.94 1.51 2 1.51zm31.76-52c-.1-.21-.1-.42-.21-.62a2.57 2.57 0 0 0-2.18-1.4 1.11 1.11 0 0 0-1.46 1.09 2.38 2.38 0 0 0 2.65 2.34 1.19 1.19 0 0 0 1.2-1.4zm-100.48-15a6.08 6.08 0 0 0-1 .26.71.71 0 0 0-.36.57 2.39 2.39 0 0 0 3.07 2.29 1.1 1.1 0 0 0 .68-1.77 2.78 2.78 0 0 0-2.34-1.35zM312 143.34c.05.1.1.36.21.57a2.85 2.85 0 0 0 2.24 1.2 1.35 1.35 0 0 0 1.61-.88 1.6 1.6 0 0 0-.78-2 1.49 1.49 0 0 0-1.87.16c-.41.23-.82.54-1.41.95zm-14.19 21.36c-1.3-.05-1.56.26-1 1.3l.1.21a3.75 3.75 0 0 0 2.5 1.92 1.22 1.22 0 0 0 1.2-2 4 4 0 0 0-2.84-1.42zm129.75 8.42a8.84 8.84 0 0 0-1.09.36.85.85 0 0 0-.47 1.3 4.82 4.82 0 0 0 1.3 1.4 1.37 1.37 0 0 0 2.13-.83 1.82 1.82 0 0 0-1.87-2.24zm-149.66.05a3.19 3.19 0 0 0-.57-1.2 5.26 5.26 0 0 0-1.72-.83 1.18 1.18 0 0 0-1.35 1.51 2.32 2.32 0 0 0 2.55 1.66 1 1 0 0 0 1.09-1.14zm100.59-18.66c1.3.1 1.82-.42 1.61-1.51a6.34 6.34 0 0 0-.36-.88c-.68-1.3-1.35-1.35-2.24-.31a2.26 2.26 0 0 0-.31.36 1.28 1.28 0 0 0 .26 1.87 2 2 0 0 0 1 .47zM269 175.37c.26-.05.62-.05 1-.16a1.11 1.11 0 0 0 .57-1.77 3.19 3.19 0 0 0-3.38-.83.84.84 0 0 0-.47.57 2.18 2.18 0 0 0 2.28 2.19zm135.55-83.28a2.61 2.61 0 0 1-.62.1.68.68 0 0 0-.52 1 3.1 3.1 0 0 0 2.55 1.87A1 1 0 0 0 407 93.7a2.53 2.53 0 0 0-2.5-1.61zM286.34 80.65a1.27 1.27 0 0 0 1.51-1.14 1.75 1.75 0 0 0-1.46-1.77 1.83 1.83 0 0 0-1.87 1.56c0 .94.57 1.3 1.82 1.35zM377.57 140a1.59 1.59 0 0 0-1.46-1.72 1.46 1.46 0 0 0-1.66 1.2 1.57 1.57 0 0 0 1.61 1.77 1.33 1.33 0 0 0 1.51-1.25zm-35.82-28.07c-.05 1.2.57 1.92 1.56 1.87a.93.93 0 0 0 1-1.09 4.72 4.72 0 0 0-.78-1.82.86.86 0 0 0-1.09-.36 1.09 1.09 0 0 0-.68 1 .77.77 0 0 0-.01.36zm14.25 3.19a1.1 1.1 0 0 0-1.09 1.77 2 2 0 0 0 1.46 1 1.17 1.17 0 0 0 1.35-.94.33.33 0 0 0 0-.31 1.43 1.43 0 0 0-1.72-1.52zm-29.73 74.49a1.94 1.94 0 0 0-.94-1.72 1 1 0 0 0-1.61.78 3.28 3.28 0 0 0 .36 1.56 1 1 0 0 0 1.3.57 1.37 1.37 0 0 0 .88-1.19zm-12.89-11.49a1.24 1.24 0 0 0 1.25-1.46 1 1 0 0 0-1-1.14 2 2 0 0 0-1.77 1.35 1.45 1.45 0 0 0 1.51 1.25zm151 7.38a2.29 2.29 0 0 0-1.09-1.72 1.57 1.57 0 0 0-1.46.52.81.81 0 0 0-.05 1.09 5 5 0 0 0 1.3 1 1 1 0 0 0 1.3-.94zM308.9 152.86a1.25 1.25 0 0 0-1.46-1.3 1.12 1.12 0 0 0-1.3 1 1.76 1.76 0 0 0 1.77 1.46 1 1 0 0 0 .99-1.16zm17.31 95.34a3.9 3.9 0 0 0 .94-.36 1 1 0 0 0 .31-1.3.05.05 0 0 0-.05-.05 1.79 1.79 0 0 0-1.92-.57 1 1 0 0 0-.31 1.77 6.47 6.47 0 0 0 1 .52zm-82.39-73.5a2.6 2.6 0 0 0 2.65 1.2 1.2 1.2 0 0 0 .73-.47 1 1 0 0 0-.31-.83 2.11 2.11 0 0 0-3.08.09zm71.89-40.7a1 1 0 0 0-1.3.68 1.25 1.25 0 0 0 1.2 1.3 1.16 1.16 0 0 0 1.25-1v-.05c.1-.57-.26-.83-1.14-.88zm7.75 118.94c-.88.05-1.25.42-1 1a2.74 2.74 0 0 0 .83 1 1.14 1.14 0 0 0 1.35-.36 1.08 1.08 0 0 0-.36-1.25c-.26-.16-.68-.31-.83-.42zm84.72-165.63c.05 1.09.83 1.3 1.56 1.66a.73.73 0 0 0 1.09-.26.84.84 0 0 0-.42-1.09 2.13 2.13 0 0 0-2.23-.31zm5-4.83q-.86.16-.62.78a1.94 1.94 0 0 0 1.61 1 .92.92 0 0 0 .57-.36.82.82 0 0 0-.21-.68 7 7 0 0 0-1.35-.78zM240 174c-.83-1.14-1.25-1.3-2-.73.47 1.2 1 1.4 2 .73zm42.37-99a.69.69 0 0 0-.68.68 1.08 1.08 0 0 0 1 1.09.56.56 0 0 0 .62-.57 1.19 1.19 0 0 0-.92-1.27z"/><path class="cls-2" d="M348.25 173.55a7.54 7.54 0 0 1-4.31-1.2c-.47-.36-.88-.83-1.35-1.25a6.79 6.79 0 0 0-.57-.62 2.68 2.68 0 0 1-.36-4 11.73 11.73 0 0 1 3.69-2.65 2.75 2.75 0 0 1 2.76.16 12.16 12.16 0 0 1 2.13 1.51 5 5 0 0 1 .76 6.5.28.28 0 0 0-.1.16 2.34 2.34 0 0 1-2.65 1.39zm-.73-1.66a1.92 1.92 0 0 0 2.18-1.72c.57-2.29-.36-3.53-2.24-4.73a1.09 1.09 0 0 0-1.3.05 20.12 20.12 0 0 0-1.77 1.09 2.31 2.31 0 0 0-1.14 1.61 3.09 3.09 0 0 0 2.24 3.22c.63.21 1.35.32 2.03.47zm1.48-26.57a8.44 8.44 0 0 1 3.59.62 4.59 4.59 0 0 1 2.55 2.18 10.31 10.31 0 0 1 1.25 3.07c.26 2.29-.47 3.64-3.27 4.42a9.76 9.76 0 0 1-5 0 4.88 4.88 0 0 1-3.69-4.11c-.1-.52-.1-1.09-.16-1.61-.34-2.08 1.9-5.09 4.73-4.57zm1 9.46a16.79 16.79 0 0 0 2.81-.57 2.62 2.62 0 0 0 2-2.08 4.67 4.67 0 0 0-1.92-4.37 6.05 6.05 0 0 0-3.53-1.09 3.46 3.46 0 0 0-3.43 2.18 1.44 1.44 0 0 0-.1 1.46 2.23 2.23 0 0 1 0 .83 2.69 2.69 0 0 0 1.87 3.22c.68.16 1.46.21 2.34.42zm14.78-20.64a3.88 3.88 0 0 1-3 4.11 5.83 5.83 0 0 1-6.76-2.86 9 9 0 0 0-.57-.94c-.78-1.2-.83-2 .05-3a5.72 5.72 0 0 1 6-2.24 5.58 5.58 0 0 1 3.12 2.24 5.69 5.69 0 0 1 1.16 2.69zm-4.94 2.7a10.38 10.38 0 0 0 1.35-.26 2.38 2.38 0 0 0 1.77-3.17 5.45 5.45 0 0 0-1.3-2 2.42 2.42 0 0 0-2.24-.83 8.51 8.51 0 0 0-2 .52 2.2 2.2 0 0 0-1.56 2.6 4.25 4.25 0 0 0 4 3.17zm5.51 27.25a6.08 6.08 0 0 1-5.15-3.09 10 10 0 0 1-.83-2.76 1.46 1.46 0 0 1 .36-1c.78-.83 1.61-1.66 2.5-2.44a2.45 2.45 0 0 1 2.29-.57 6.07 6.07 0 0 1 5.09 5.2 4.62 4.62 0 0 1-2 3.9 4.52 4.52 0 0 1-2.26.76zm2.5-3.74a5.06 5.06 0 0 0-1.3-3.53 2.72 2.72 0 0 0-4.11.05c-.21.21-.36.42-.57.62a2.25 2.25 0 0 0 .36 3.74 11.17 11.17 0 0 0 1.35.73c1.72.83 2.44.68 3.79-.62a7.44 7.44 0 0 0 .47-1zm-34.42-.84a26.61 26.61 0 0 1-2.91-.78 2.73 2.73 0 0 1-1.82-2.86 10.28 10.28 0 0 1 .73-2.55c.83-1.56 2.34-1.87 3.9-2 .26 0 .52.1.78.1 2.86.57 3.22 2.76 2.76 4.83A6.47 6.47 0 0 1 336 158a.52.52 0 0 0-.21.26c-.43 1.09-1.37 1.09-2.36 1.25zm-.05-2.24c1.4 0 2.24-.52 2.44-1.46a2.36 2.36 0 0 0-1.77-2.29 4.06 4.06 0 0 0-3.12.26 1.55 1.55 0 0 0-.83 1.51 1.19 1.19 0 0 0 .73 1.25 4.53 4.53 0 0 0 2.55.74zm6.97-16.27a4.34 4.34 0 0 1-3.69-1.66 3 3 0 0 1-.21-3.9 12.33 12.33 0 0 1 1.2-1.56 3.19 3.19 0 0 1 3.48-1.09c.42.1.88.26 1.35.36a3.75 3.75 0 0 1 1.82 5.61 2.2 2.2 0 0 0-.26.36c-.89 1.62-1.35 1.88-3.69 1.88zm-.05-1.66a3.17 3.17 0 0 0 3.22-2 2.55 2.55 0 0 0-1.51-2.7c-2.29-.52-1.87-.78-3.64.88a8.9 8.9 0 0 0-.94 1c-.62.83-.52 1.3.36 2a4.3 4.3 0 0 0 2.5.78zm1.29 46.01a3.85 3.85 0 0 1-2.81-.73 2.69 2.69 0 0 1-.47-4.16 4.73 4.73 0 0 1 3.43-1.66 4.07 4.07 0 0 1 3.38 2 3.13 3.13 0 0 1-.26 3.69 2.64 2.64 0 0 1-2.29.94 3.2 3.2 0 0 1-.98-.08zm-1.77-3.64c-.21 1-.05 1.77.78 2.13a6.92 6.92 0 0 0 1.77.52 1.83 1.83 0 0 0 2-1.82 2.39 2.39 0 0 0-.78-1.61 2.32 2.32 0 0 0-2.24-.57 3.08 3.08 0 0 0-2.5 1.77zm-6.18-56.04a3.66 3.66 0 0 1 3.27 2.44l.1.21c.21.68.68 1.35.1 2a3.1 3.1 0 0 1-2.76 1.3c-1.56-.1-2.24-1.2-3-2.24-1.2-1.66-.78-2.91 1.2-3.48a4.31 4.31 0 0 1 1.09-.23zm-.47 1.2a1 1 0 0 0-1.09.57 1.08 1.08 0 0 0 .36 1.3 7.42 7.42 0 0 0 1.35 1.2 2.61 2.61 0 0 0 1.25.31.65.65 0 0 0 .83-.73 2.64 2.64 0 0 0-2.7-2.65zm45.33 33.32a2.72 2.72 0 0 1 3 2c.05.16.1.36.16.52.62 1.87-.52 3.69-3.07 3.69a1.69 1.69 0 0 1-.88-.36 26.59 26.59 0 0 1-2.24-1.87c-1.14-1.09-1.14-1.82.1-2.7a5.34 5.34 0 0 1 2.93-1.28zm-2.65 2.65a5.25 5.25 0 0 0 2.39 2 1.88 1.88 0 0 0 2.24-.21 1.57 1.57 0 0 0 .1-1.72c0-.1-.05-.1-.05-.21a1.71 1.71 0 0 0-1.92-1.3 3.45 3.45 0 0 0-2.76 1.4zm-35.45 32.23c-1.09-.36-2.13-.57-3.17-1a1.65 1.65 0 0 1-.83-.94 2.8 2.8 0 0 1 2.44-3.64 3.76 3.76 0 0 1 2.76 1l.36.36c1.56 1.25 1.09 2.29.16 3.43a2.23 2.23 0 0 1-1.72.79zm-.31-1.2a6.28 6.28 0 0 1 .73-.16 1 1 0 0 0 .36-1.92 3.43 3.43 0 0 0-1.46-.83 2.73 2.73 0 0 0-1.56.21 1.16 1.16 0 0 0-.68 1.35 1.32 1.32 0 0 0 .83.83 13.3 13.3 0 0 0 1.77.52zm25.1-70.75a4.26 4.26 0 0 1 3.9 3.48 1.47 1.47 0 0 1-.73 1.66c-.21.1-.42.26-.62.36-1.51.68-2.5.31-3.27-1.2-.26-.57-.57-1.09-.83-1.61a1.75 1.75 0 0 1 1.55-2.69zm1.4 4.68a1 1 0 0 0 1-1.4 2.62 2.62 0 0 0-2-2 .63.63 0 0 0-.83.31.79.79 0 0 0 .16.94c.59.64 1.08 1.42 1.68 2.15zm20.28 38.83a3.15 3.15 0 0 1 2.39-3.22 2.28 2.28 0 0 1 2.18.62 4.69 4.69 0 0 1 .57 4.37 2.1 2.1 0 0 1-3 1c-1.01-.58-2.14-1.31-2.14-2.77zm1.3.42a2.48 2.48 0 0 0 1.83 1.35.92.92 0 0 0 1.14-.83 8.38 8.38 0 0 0-.31-2.29 1.25 1.25 0 0 0-.52-.52c-.83-.47-1.56-.16-2.08.94.73.52.83.62.73 1zm-59.62-43.2c-2.34.16-3.53-2.24-3.22-4.21a1.16 1.16 0 0 1 1-1 4.58 4.58 0 0 1 5 2.65 1.18 1.18 0 0 1-.1 1.3 2.7 2.7 0 0 1-2.68 1.26zm-1.72-4.11a1.35 1.35 0 0 0-.16.36 3.93 3.93 0 0 0 .05.78 1.83 1.83 0 0 0 2 2c1.09.05 1.51-.57 1-1.56a3.13 3.13 0 0 0-2.89-1.58zm-35.97-38.41a3.43 3.43 0 0 1 3.27 3.22 2 2 0 0 1-2.44 1.82 4.93 4.93 0 0 1-3-2.24 1.47 1.47 0 0 1 .26-2 2.7 2.7 0 0 1 1.91-.8zm-.16 1.56a2.46 2.46 0 0 0-.68.57 1 1 0 0 0 .42.78 7.52 7.52 0 0 0 1.3.57.68.68 0 0 0 .78-1.09c-.36-.62-1.09-.57-1.82-.83zm17.73 83.43a4.06 4.06 0 0 1-3.69-2 1.52 1.52 0 0 1-.05-1.56c1.09-2.18 2.65-2.24 4.37-1.09a6.25 6.25 0 0 1 1.51 1.35 1.68 1.68 0 0 1-.68 2.76 5 5 0 0 1-1.46.54zm-.57-1c1.3.05 2-.78 1.46-1.77a2.83 2.83 0 0 0-1.92-1.51 1 1 0 0 0-1.09.47 2.09 2.09 0 0 0 1.55 2.77zm74.44-47.81a5.28 5.28 0 0 1-3-.94 1.82 1.82 0 0 1-.83-1.87 1.94 1.94 0 0 1 1.46-1.61 3.55 3.55 0 0 1 4.37 2.81 1.05 1.05 0 0 1-.78 1.3c-.52.15-.96.26-1.22.31zm-2.55-2.6a2.36 2.36 0 0 0 2 1.46.67.67 0 0 0 .83-.88 2 2 0 0 0-1.46-1.3 1.09 1.09 0 0 0-1.4.73zm-63.63 49.38c-2.24-.1-4-2.55-2.91-4.47a1.62 1.62 0 0 1 1.82-1 4 4 0 0 1 3.27 2.29 2.19 2.19 0 0 1-1.56 3.07c-.15.06-.36.06-.62.11zm-.16-1a1.17 1.17 0 0 0 1.25-1.56 3 3 0 0 0-1.56-1.72.87.87 0 0 0-1 .16 1.63 1.63 0 0 0-.57 1.77 2.24 2.24 0 0 0 1.87 1.35zm6.97-46.72a4.19 4.19 0 0 1-3.43-2.5 1.56 1.56 0 0 1 1.56-2.24 4.92 4.92 0 0 1 4 2.6 1.1 1.1 0 0 1-.21 1.3 2.43 2.43 0 0 1-1.92.84zM320.8 113c0 1.77 1 2.65 2.6 2.39.21-.78.21-.78-.16-1.14a2.81 2.81 0 0 0-2.44-1.25zm70.96-9.79c.31-.36.57-.62.83-.94a1.92 1.92 0 0 1 2.7-.47 3.2 3.2 0 0 1 1.77 2.7 1.37 1.37 0 0 1-1.14 1.56 3.74 3.74 0 0 1-4.16-2.85zm2.7-.36c-.57.26-.88.68-.68 1.09a1.46 1.46 0 0 0 1.46.88c.31-.94.21-1.25-.78-2zm-94.19-13.62a1.62 1.62 0 0 1-1.72 1.66 3.59 3.59 0 0 1-2.34-.94 5.56 5.56 0 0 0-.83-.73 1.07 1.07 0 0 1-.36-1.35 2.62 2.62 0 0 1 4.37-.83 3.16 3.16 0 0 1 .88 2.19zm-3.79-.88a3.72 3.72 0 0 0 1.4 1.25.73.73 0 0 0 .94-.21.79.79 0 0 0-.05-1 1.3 1.3 0 0 0-2.29-.05zm93.25 21.36a1.83 1.83 0 0 1-2.08 1.66 3.39 3.39 0 0 1-2.65-1.82 2.35 2.35 0 0 1 .62-2.65 2 2 0 0 1 2.55.16 3.63 3.63 0 0 1 1.56 2.65zm-1.61-.62a7.59 7.59 0 0 0-.57-.94.74.74 0 0 0-1.3.26A1.39 1.39 0 0 0 387 110c.68.36 1.09.16 1.09-.94zm-72.78-4.58a3.51 3.51 0 0 1 2.18 1.09 6.8 6.8 0 0 1 .88 1.25 1.1 1.1 0 0 1 .1 1.4 1.67 1.67 0 0 1-1.56.83c-.62-.1-1.3-.21-1.92-.36a1.34 1.34 0 0 1-.73-.57 7.82 7.82 0 0 1-.83-1.77c-.3-1.14.43-1.87 1.88-1.87zm1.72 3.27a2.58 2.58 0 0 0-1.51-2.08.73.73 0 0 0-1 .1c.62.88 1 2 2.5 2zm17.15 93.37a1.6 1.6 0 0 1 1.77-1.72 3.56 3.56 0 0 1 3.12 1.09 2.37 2.37 0 0 1 .1 2.55 1.74 1.74 0 0 1-2 .83 3.77 3.77 0 0 1-2.6-1.61c-.18-.29-.23-.78-.39-1.14zm2.65-.47a4 4 0 0 0-.94.31c-.52.26-.62.78-.16 1.09a3.74 3.74 0 0 0 1.46.68.87.87 0 0 0 1-.57 1.11 1.11 0 0 0-.42-1.25c-.31-.1-.62-.15-.94-.26zM323 161.28a13.48 13.48 0 0 1-1.92-.57 2.86 2.86 0 0 1-1.56-3 1.43 1.43 0 0 1 1.25-1.2 3.2 3.2 0 0 1 3.07.88 9 9 0 0 0 .62.73 1.9 1.9 0 0 1 .36 2.18 1.87 1.87 0 0 1-1.82.98zm-1.4-3.79a.78.78 0 0 0-.88.57c-.16 1.09 1.46 2.5 2.5 2.13a.7.7 0 0 0 .36-.42 2.15 2.15 0 0 0-2-2.29zm51.5-9.16c-1.35 0-2.13-.52-2.29-1.56a.85.85 0 0 1 .1-.73 1.57 1.57 0 0 0 .62-1.51.83.83 0 0 1 1.09-.78 3.08 3.08 0 0 1 2.5 3.07 1.44 1.44 0 0 1-1.09 1.3 2.19 2.19 0 0 1-.93.21zm.26-1.46h.26a.68.68 0 0 0 .16-.52 1.47 1.47 0 0 0-1.3-.83zM408 173.39a2.93 2.93 0 0 1-2.13-1.46 1.33 1.33 0 0 1 .21-1.77 13.12 13.12 0 0 1 2.42-1.16 1.3 1.3 0 0 1 1.56.62 2.75 2.75 0 0 1 .42.78c.72 1.74-.22 2.99-2.48 2.99zm1.61-1.56a12.14 12.14 0 0 0-.36-1.3.73.73 0 0 0-1-.42 1.45 1.45 0 0 0-.88.62.91.91 0 0 0 .47 1.09 1.2 1.2 0 0 0 1.77 0zM304.17 90.84a3.41 3.41 0 0 1 3.17 2.34 1.43 1.43 0 0 1-1 1.92c-1.14.36-3.79-.88-3.69-2.76a1.34 1.34 0 0 1 1.52-1.5zM304 92.4a.85.85 0 0 0 .36 1.14 2.52 2.52 0 0 0 1.09.42.5.5 0 0 0 .42-.83 1.79 1.79 0 0 0-1.87-.73zm69.77 30.72a3.7 3.7 0 0 1-2.7-1.35 1.53 1.53 0 0 1 .62-2.44 3.27 3.27 0 0 1 4 1.66 1.33 1.33 0 0 1-.88 2 5.5 5.5 0 0 1-1.04.13zm-1.14-2.76a.73.73 0 0 0-.47.36.66.66 0 0 0 .31.68 4.93 4.93 0 0 0 1.3.57.49.49 0 0 0 .52-.78 1.63 1.63 0 0 0-1.66-.83zM337.49 211a1.31 1.31 0 0 1-.78 1.2 2.69 2.69 0 0 1-3.59-3.22 1.32 1.32 0 0 1 .62-.68 3.07 3.07 0 0 1 3.75 2.7zm-2.13.31c.47-.05.73-.26.68-.62a1.16 1.16 0 0 0-1-.94.6.6 0 0 0-.57.73 1 1 0 0 0 .94.83zm63.47-40.62a4.3 4.3 0 0 1-3.43-2.24.89.89 0 0 1 .36-1.14 6.87 6.87 0 0 1 2.13-.88 2.78 2.78 0 0 1 2.76 2.24 1.39 1.39 0 0 1-.68 1.51 3.58 3.58 0 0 1-1.14.51zm-2.08-2.69a2.23 2.23 0 0 0 2.13 1.51c.57-.05.88-.42.62-.88a1.72 1.72 0 0 0-2.75-.63zm51.93 12.36a1.42 1.42 0 0 1-2 1.56 4.33 4.33 0 0 1-2.34-1.82c-.47-.73.36-2.13 1.25-2.29a2.77 2.77 0 0 1 3.09 2.55zm-1.66.1c.1-1.09-.31-1.35-1.3-1.09a1.3 1.3 0 0 0 1.28 1.09zM308.74 99.11a1.63 1.63 0 0 1 2.18-1.72 3.7 3.7 0 0 1 2.39 2.7 1.43 1.43 0 0 1-1.2 1.66c-1.76.42-3.58-1.03-3.37-2.64zm2.7 1.61c.57 0 .94-.36.62-.78a4.82 4.82 0 0 0-1.4-1.3c-.47-.26-.88.16-.83.78a1.4 1.4 0 0 0 1.61 1.3zm18.72 128.45c.1-1.4.78-2.13 1.92-2.08a2.33 2.33 0 0 1 2.18 2.34 2 2 0 0 1-2.24 1.92 2.33 2.33 0 0 1-1.86-2.18zm1.4.42a1.34 1.34 0 0 0 .47.47.87.87 0 0 0 .94-.83.83.83 0 0 0-.73-.78c-.47 0-.68.31-.68 1.14zm36.7-50.43c-.26-.1-.73-.21-1.2-.36a1.29 1.29 0 0 1-.83-1.14c-.05-.31-.05-.57-.1-.83a1.54 1.54 0 0 1 1.72-1.72 3.46 3.46 0 0 1 2.5 2.29c.1.98-.68 1.76-2.09 1.76zm-.42-2.76a1.45 1.45 0 0 0-.42.62.73.73 0 0 0 .78.83.69.69 0 0 0 .78-.68 1.13 1.13 0 0 0-1.14-.78zm-18.19-53.33a2.71 2.71 0 0 1-2.55-3c.1-1.09 2.24-1.77 3-.94s1.35 1.66.83 3a1.27 1.27 0 0 1-1.28.94zm.05-1.35c.26-.73.16-1.09-.26-1.3a.94.94 0 0 0-1.3.31 1.71 1.71 0 0 0 1.56 1zm-24.06 54.69c-.05 1.3-.62 1.92-1.82 1.92s-2.34-.83-2.29-1.82a2.54 2.54 0 0 1 2.24-2.24 2.06 2.06 0 0 1 1.87 2.14zm-1.3-.05a.68.68 0 0 0-.57-.78 1 1 0 0 0-.73.94.54.54 0 0 0 .62.57.56.56 0 0 0 .68-.73zm7.22 42.88a2 2 0 0 1 .83-1.61 1.74 1.74 0 0 1 1.87.05c1.25.68 1.61 1.35 1.35 2.39a1.44 1.44 0 0 1-1.14 1.35 2 2 0 0 1-2.24-.62 12.88 12.88 0 0 1-.67-1.56zm2.91.36a1.11 1.11 0 0 0-.94-.83.63.63 0 0 0-.52.78.78.78 0 0 0 .78.83.75.75 0 0 0 .68-.78zm120.71-38.31l1.14.16a2.09 2.09 0 0 1 1.56 1.82 1.39 1.39 0 0 1-1.77 1.35 7.35 7.35 0 0 1-2-1.09 1.24 1.24 0 0 1-.52-1.51 1.4 1.4 0 0 1 1.59-.73zm1 1.4l-.16.1.36.42.16-.1zm-202.96-9.46a3.48 3.48 0 0 1 2 .83 1.37 1.37 0 0 1 .42 1.46 1.41 1.41 0 0 1-1.14 1 2.82 2.82 0 0 1-2.39-.36c-.83-.62-1.09-1.09-.83-1.92.28-.69.85-1.01 1.94-1.01zm-.68 1.61a4.79 4.79 0 0 0 1 .68.64.64 0 0 0 .57-.16 1.09 1.09 0 0 0-.16-.73c-.36-.42-.83-.36-1.4.21zm145.92-76.98v-.57a1.11 1.11 0 0 1 1.77-1.09 5.09 5.09 0 0 1 1.66 1.66 1.14 1.14 0 0 1-1.09 1.82 4 4 0 0 1-.83-.1 1.52 1.52 0 0 1-1.51-1.72zm1.77.62l.21-.1-.26-.38-.16.1zm18.3 75.52c-.1 0-.31-.05-.42-.05a1.93 1.93 0 0 1-1.72-1.66 2.24 2.24 0 0 1 1.77-1.66c1.25-.16 1.51-.05 2 1.09a1.37 1.37 0 0 1-1.14 2.24 1.6 1.6 0 0 1-.49.04zm.62-1.4c-.16-.57-.36-.88-.94-.73a.6.6 0 0 0-.26.36c.1.47.47.57 1.2.36zm-137.91-2.38c.36-.42.68-.88 1.09-1.3a1.25 1.25 0 0 1 .62-.36 3.29 3.29 0 0 1 3.17 1.61 1.09 1.09 0 0 1-.62 1.3 3.85 3.85 0 0 1-4.26-1.25zm3.53.31a.92.92 0 0 0-.88-.94.51.51 0 0 0-.62.57.81.81 0 0 0 .94.68 3.11 3.11 0 0 0 .57-.31zm7.65-.36a3.52 3.52 0 0 1-2.91-1.87 1 1 0 0 1 .83-1.56 2.8 2.8 0 0 1 3.33 1.4 1.37 1.37 0 0 1 .1 1.4 1.43 1.43 0 0 1-1.35.63zm.26-1.51a1.18 1.18 0 0 0-1.25-1.14.59.59 0 0 0-.68.62 1.4 1.4 0 0 0 1.35 1 1.73 1.73 0 0 0 .57-.47zm65.08 11.64a4 4 0 0 1 .1-.83 1.08 1.08 0 0 1 1.4-.83A3 3 0 0 1 361 180a1.38 1.38 0 0 1-.83 2.13 2 2 0 0 1-.78.1c-1.11 0-1.58-.52-1.63-1.93zm1.2-.1l.68.62a.55.55 0 0 0 .21-.31c0-.36-.21-.57-.88-.31zm77.97-1.2a2.43 2.43 0 0 1-2.18-2 1.52 1.52 0 0 1 .83-1.4 1 1 0 0 1 1.3.05 10.54 10.54 0 0 1 1.2.94 1.29 1.29 0 0 1 .36 1.66 2.15 2.15 0 0 1-1.51.75zm-.73-2.18a.87.87 0 0 0 .94.83.76.76 0 0 0-.94-.88zM329.43 240a2 2 0 0 1-2.08-1.56 2.14 2.14 0 0 1 1.66-2.08 2.22 2.22 0 0 1 1.92 2.08 1.49 1.49 0 0 1-1.51 1.56zm-.43-1.11a2.27 2.27 0 0 0 .47-.57.54.54 0 0 0-.26-.36l-.57.47zM361.19 188a1.32 1.32 0 0 1-1.25 1.46 2.47 2.47 0 0 1-2.65-2.34 1.09 1.09 0 0 1 1.46-1.09 2.47 2.47 0 0 1 2.18 1.4 1.92 1.92 0 0 1 .26.57zm-1.61.42a.81.81 0 0 0 .31-.42.84.84 0 0 0-.78-.78.51.51 0 0 0-.57.52 1.07 1.07 0 0 0 1 .68zM260.71 173a2.83 2.83 0 0 1 2.34 1.4 1.09 1.09 0 0 1-.68 1.77 2.43 2.43 0 0 1-3.07-2.29.75.75 0 0 1 .36-.57 2.65 2.65 0 0 1 1.05-.31zm.21 1.3a.62.62 0 0 0 .42.88.44.44 0 0 0 .42-.31c.05-.47-.31-.57-.68-.57 0-.05-.05 0-.16 0zM312 143.34c.57-.42 1-.73 1.4-1a1.5 1.5 0 0 1 1.87-.16 1.7 1.7 0 0 1 .78 2 1.31 1.31 0 0 1-1.61.88 3 3 0 0 1-2.24-1.2 3.58 3.58 0 0 1-.2-.52zm1.92.1l.05.36c.26.1.57.36.83-.05a.88.88 0 0 0-.05-.36zm-16.15 21.27a3.66 3.66 0 0 1 2.76 1.46 1.36 1.36 0 0 1 .1 1.4 1.12 1.12 0 0 1-1.3.57 3.87 3.87 0 0 1-2.5-1.92l-.1-.21c-.52-1.01-.31-1.3 1.04-1.3zm1.51 2.55c.1-1.09-.05-1.3-1-1.09a1.08 1.08 0 0 0 1 1.09zm128.24 5.87a1.8 1.8 0 0 1 1.87 2.24 1.37 1.37 0 0 1-2.13.83 4.21 4.21 0 0 1-1.3-1.4.83.83 0 0 1 .47-1.3 8.83 8.83 0 0 1 1.09-.37zm.78 2c-.36-.73-.36-.73-1-.57a.79.79 0 0 0 1 .57zm-150.44-1.95c-.1.83-.31 1.09-1.09 1.09a2.26 2.26 0 0 1-2.55-1.66 1.19 1.19 0 0 1 1.35-1.51 4.07 4.07 0 0 1 1.72.83 6.94 6.94 0 0 1 .57 1.25zm-1.4.21c-.05-.47.05-.88-.52-1a.43.43 0 0 0-.31.21c-.05.47.1.78.83.83zm101.99-18.87a8.32 8.32 0 0 1-1-.42 1.29 1.29 0 0 1-.26-1.87c.1-.1.16-.21.31-.36.88-1.09 1.56-1 2.24.31a2.65 2.65 0 0 1 .36.88c.17 1.04-.3 1.56-1.65 1.46zm.05-1.2c.1-.1.21-.16.31-.26a.74.74 0 0 1-.1-.21c-.1.1-.26.1-.36.21zM269 175.37a2.12 2.12 0 0 1-2.24-2.08.75.75 0 0 1 .47-.57 3.08 3.08 0 0 1 3.38.83 1.14 1.14 0 0 1-.57 1.77 6 6 0 0 0-1.04.05zm-1-1.87a3 3 0 0 0 .62.88.65.65 0 0 0 .68-.16.38.38 0 0 0-.26-.62 4.2 4.2 0 0 0-1.04-.11zm136.55-81.41a2.5 2.5 0 0 1 2.5 1.66 1 1 0 0 1-1.09 1.35 3.2 3.2 0 0 1-2.55-1.87.74.74 0 0 1 .52-1 2.74 2.74 0 0 1 .62-.14zm1 1.4a.55.55 0 0 0-.26-.1.35.35 0 0 0-.16.21.69.69 0 0 0 .26.16.69.69 0 0 1 .16-.26zM286.34 80.65c-1.3-.05-1.82-.42-1.82-1.35a1.83 1.83 0 0 1 1.87-1.56 1.67 1.67 0 0 1 1.46 1.77 1.27 1.27 0 0 1-1.51 1.14zM377.57 140a1.31 1.31 0 0 1-1.51 1.25 1.63 1.63 0 0 1-1.61-1.77 1.53 1.53 0 0 1 1.66-1.2 1.66 1.66 0 0 1 1.46 1.72zm-35.82-28.11v-.42a1.14 1.14 0 0 1 .68-1 .89.89 0 0 1 1.09.36 6.21 6.21 0 0 1 .78 1.82.93.93 0 0 1-1 1.09c-.98.08-1.55-.65-1.55-1.85zm14.25 3.23a1.49 1.49 0 0 1 1.77 1.56 1.21 1.21 0 0 1-1.09 1.3h-.31a2 2 0 0 1-1.46-1c-.58-1.13-.11-1.86 1.09-1.86zm-29.74 74.49a1.3 1.3 0 0 1-.88 1.2 1 1 0 0 1-1.3-.57 4 4 0 0 1-.36-1.56 1 1 0 0 1 1.61-.78 2.14 2.14 0 0 1 .93 1.71zm-12.89-11.49a1.37 1.37 0 0 1-1.51-1.25 2.06 2.06 0 0 1 1.77-1.35 1 1 0 0 1 1 1.14 1.27 1.27 0 0 1-1.26 1.46zm151.01 7.38a1 1 0 0 1-1.3.88 3.21 3.21 0 0 1-1.3-1 .81.81 0 0 1 .05-1.09 1.53 1.53 0 0 1 1.46-.52 2.49 2.49 0 0 1 1.09 1.73zM308.9 152.86a1 1 0 0 1-1.09 1.09 1.81 1.81 0 0 1-1.77-1.46 1.19 1.19 0 0 1 1.3-1 1.4 1.4 0 0 1 1.56 1.37zm17.31 95.33a6.31 6.31 0 0 1-1-.47 1 1 0 0 1 .31-1.77 1.79 1.79 0 0 1 1.92.57 1 1 0 0 1-.16 1.3.05.05 0 0 0-.05.05 2.7 2.7 0 0 0-1.02.32zm-82.4-73.5a2.16 2.16 0 0 1 3.07-.16 1.05 1.05 0 0 1 .31.83.82.82 0 0 1-.73.47 2.44 2.44 0 0 1-2.65-1.14zm71.9-40.69c.88.05 1.2.31 1.14.88a1.21 1.21 0 0 1-1.25 1.12h-.05a1.22 1.22 0 0 1-1.2-1.3 1.3 1.3 0 0 1 1.36-.7zm7.74 118.92a5 5 0 0 1 .88.47 1.19 1.19 0 0 1 .36 1.25 1.21 1.21 0 0 1-1.35.36 2.74 2.74 0 0 1-.83-1c-.25-.66.01-1.08.94-1.08zm84.73-165.61a2.27 2.27 0 0 1 2.24.31.82.82 0 0 1 .42 1.09.7.7 0 0 1-1.09.26c-.68-.36-1.51-.62-1.57-1.66zm5-4.84a11.44 11.44 0 0 1 1.35.78.77.77 0 0 1 .21.68.64.64 0 0 1-.57.36 1.83 1.83 0 0 1-1.61-1c-.16-.45.1-.66.62-.82zM240 174c-1 .68-1.56.47-2-.73.77-.61 1.14-.5 2 .73zm42.39-99.07a1.07 1.07 0 0 1 .88 1.2.56.56 0 0 1-.62.57 1.12 1.12 0 0 1-1-1.09.78.78 0 0 1 .74-.68z"/><path class="cls-1" d="M347.52 171.88c-.68-.16-1.4-.31-2.08-.52a3.1 3.1 0 0 1-2.24-3.22 2.21 2.21 0 0 1 1.14-1.61 14.56 14.56 0 0 1 1.77-1.09 1.18 1.18 0 0 1 1.3-.05c1.92 1.2 2.86 2.44 2.24 4.73a1.85 1.85 0 0 1-2.13 1.76zm2.55-17.1a11 11 0 0 1-2.34-.52 2.69 2.69 0 0 1-1.87-3.22 1.51 1.51 0 0 0 0-.83 1.6 1.6 0 0 1 .1-1.46 3.56 3.56 0 0 1 3.43-2.18 6.91 6.91 0 0 1 3.53 1.09 4.78 4.78 0 0 1 1.92 4.37 2.49 2.49 0 0 1-2 2.08 13.78 13.78 0 0 1-2.77.67zm9.77-17.93a4.25 4.25 0 0 1-4-3.17c-.36-1 .36-2.08 1.56-2.6a8.51 8.51 0 0 1 2-.52 2.38 2.38 0 0 1 2.24.83 4.7 4.7 0 0 1 1.3 2c.36 1.61-.16 2.7-1.77 3.17a6.2 6.2 0 0 1-1.33.29zm8.01 23.49a4 4 0 0 1-.57.88c-1.35 1.3-2.08 1.46-3.79.62a8.59 8.59 0 0 1-1.35-.73 2.29 2.29 0 0 1-.36-3.74 3.26 3.26 0 0 0 .57-.62 2.72 2.72 0 0 1 4.11-.05 5 5 0 0 1 1.39 3.64zm-34.47-3.06a5.31 5.31 0 0 1-2.6-.73 1.26 1.26 0 0 1-.73-1.25 1.87 1.87 0 0 1 .83-1.51 3.84 3.84 0 0 1 3.12-.26 2.36 2.36 0 0 1 1.77 2.29c-.15.94-.93 1.51-2.39 1.46zm6.92-17.94a4.3 4.3 0 0 1-2.5-.78c-.88-.62-1-1.09-.36-2a8.9 8.9 0 0 1 .94-1c1.72-1.66 1.3-1.4 3.64-.88a2.58 2.58 0 0 1 1.51 2.7 3.21 3.21 0 0 1-3.23 1.96zm-.47 42.37l-.88.42a3.08 3.08 0 0 1 2.5-1.77 2.38 2.38 0 0 1 2.24.57 2.33 2.33 0 0 1 .83 1.61 1.78 1.78 0 0 1-2 1.82 7.59 7.59 0 0 1-1.77-.52c-.92-.37-1.08-1.09-.92-2.13zm-6.66-54.84a2.5 2.5 0 0 1 2.6 2.65c0 .57-.16.78-.83.73a3.39 3.39 0 0 1-1.25-.31 10.08 10.08 0 0 1-1.35-1.2 1.25 1.25 0 0 1-.36-1.3 1.08 1.08 0 0 1 1.19-.57zm42.68 35.97a3.93 3.93 0 0 1 2.76-1.46 1.65 1.65 0 0 1 1.92 1.3.31.31 0 0 1 .05.21c.1.57.36 1.3-.1 1.72a1.88 1.88 0 0 1-2.24.21 5.91 5.91 0 0 1-2.39-1.98zm-35.76 31.03a11.36 11.36 0 0 1-1.77-.52 1.45 1.45 0 0 1-.83-.83 1.19 1.19 0 0 1 .68-1.35 3.25 3.25 0 0 1 1.56-.21 3.15 3.15 0 0 1 1.46.83 1 1 0 0 1-.36 1.92 5.53 5.53 0 0 1-.74.16zm26.51-66.07c-.57-.73-1.09-1.46-1.66-2.13a.72.72 0 0 1 .68-1.25 2.69 2.69 0 0 1 2 2 1.11 1.11 0 0 1-1.02 1.38zm21.57 39.2l.83-.42c.1-.36.05-.47-.73-1 .52-1.09 1.25-1.4 2.08-.94a1.25 1.25 0 0 1 .52.52 18.51 18.51 0 0 1 .31 2.29.89.89 0 0 1-1.14.83 2.49 2.49 0 0 1-1.87-1.28zm-61.34-47.26a3 3 0 0 1 2.81 1.56c.52.94.1 1.56-1 1.56a1.78 1.78 0 0 1-2-2c0-.26-.05-.52-.05-.78a.4.4 0 0 0 .24-.34zM290.7 82.89c.73.26 1.4.21 1.82.83a.71.71 0 0 1 .05.88.6.6 0 0 1-.83.21c-.42-.21-.88-.36-1.3-.57a1.07 1.07 0 0 1-.42-.78 1.48 1.48 0 0 1 .68-.57zm17.16 82.39a2.13 2.13 0 0 1-1.56-2.81 1 1 0 0 1 1.09-.47 2.83 2.83 0 0 1 1.92 1.51c.52.99-.15 1.82-1.45 1.77zm71.89-50.37a1.16 1.16 0 0 1 1.4-.78 1.79 1.79 0 0 1 1.46 1.3c.16.62-.1 1-.83.88a2.28 2.28 0 0 1-2.03-1.4zM316 163.25a2.23 2.23 0 0 1-2-1.35 1.75 1.75 0 0 1 .57-1.77.74.74 0 0 1 1-.16 2.83 2.83 0 0 1 1.56 1.72 1.12 1.12 0 0 1-1.13 1.56zm4.8-50.25a3 3 0 0 1 2.44 1.25c.36.36.36.36.16 1.14-1.61.25-2.6-.58-2.6-2.39zm73.66-10.15c1 .78 1.09 1.09.73 2a1.75 1.75 0 0 1-1.46-.88.93.93 0 0 1 .73-1.12zm-97.99-14.5c.83-.83 1.72-.83 2.29.05a.78.78 0 0 1 .05 1 .68.68 0 0 1-.94.21 2.86 2.86 0 0 1-1.4-1.26zm91.65 20.74c0 1.09-.36 1.3-1.09.88a1.52 1.52 0 0 1-.78-1.61.75.75 0 0 1 1.3-.26c.26.36.45.83.57.99zm-71.06-1.3c-1.51.05-1.82-1.09-2.44-2a.73.73 0 0 1 1-.1 2.72 2.72 0 0 1 1.44 2.1zm19.8 92.89a4.42 4.42 0 0 1 .88.31 1.11 1.11 0 0 1 .42 1.25.8.8 0 0 1-1 .57 3.74 3.74 0 0 1-1.46-.68.59.59 0 0 1 .16-1.09 5 5 0 0 1 1-.36zm-15.23-43.2a2.21 2.21 0 0 1 2 2.24.59.59 0 0 1-.36.42c-1 .36-2.65-1-2.5-2.13.08-.47.45-.53.86-.53zm51.73-10.6l-.83-1.3a1.37 1.37 0 0 1 1.3.83 1.16 1.16 0 0 1-.16.52zm36.23 24.95a1.42 1.42 0 0 1-1.82.1.91.91 0 0 1-.47-1.09 1.4 1.4 0 0 1 .88-.62.77.77 0 0 1 1 .42 4.65 4.65 0 0 1 .41 1.19zM304 92.4a1.79 1.79 0 0 1 1.87.78.49.49 0 0 1-.42.83 2.18 2.18 0 0 1-1.09-.42 1 1 0 0 1-.36-1.19zm68.63 27.97a1.38 1.38 0 0 1 1.56.83.51.51 0 0 1-.52.78 5.52 5.52 0 0 1-1.3-.57.92.92 0 0 1-.31-.68 1.24 1.24 0 0 1 .57-.36zm-37.27 90.97a.87.87 0 0 1-.94-.83.6.6 0 0 1 .57-.73 1.06 1.06 0 0 1 1 .94c.09.36-.17.57-.63.62zM396.75 168a1.76 1.76 0 0 1 2.76.57c.26.52-.05.88-.62.88a2.21 2.21 0 0 1-2.14-1.45zM447 180.46a1.26 1.26 0 0 1-1.3-1.09c1.06-.31 1.37 0 1.3 1.09zm-135.56-79.74a1.36 1.36 0 0 1-1.56-1.3.62.62 0 0 1 .83-.78 4.21 4.21 0 0 1 1.4 1.3c.27.41-.04.78-.67.78zm20.12 128.86c0-.78.26-1.09.68-1.09a.79.79 0 0 1 .73.78.88.88 0 0 1-.94.83 1.34 1.34 0 0 1-.47-.52zm36.29-53.17a1 1 0 0 1 1.09.78.69.69 0 0 1-.78.68.75.75 0 0 1-.78-.83 3.87 3.87 0 0 0 .47-.63zm-18.15-54.69a1.73 1.73 0 0 1-1.56-1 1 1 0 0 1 1.3-.31 1 1 0 0 1 .26 1.31zm-25.36 54.63a.59.59 0 0 1-.62.78.51.51 0 0 1-.62-.57.92.92 0 0 1 .73-.94.6.6 0 0 1 .51.73zm10.13 43.25a.72.72 0 0 1-.73.78.75.75 0 0 1-.78-.83.63.63 0 0 1 .52-.78 1 1 0 0 1 .99.83zm121.69-36.9l.36.42-.16.1-.36-.42zm-203.61-7.85c.57-.57 1-.57 1.4-.21a.82.82 0 0 1 .16.73.64.64 0 0 1-.57.16c-.32-.16-.54-.42-.99-.68zm147.68-76.37L400 98l.16-.1.26.42zm18.92 74.08c-.78.16-1.14.1-1.2-.31a.39.39 0 0 1 .26-.36.72.72 0 0 1 .94.67zm-134.37-2.03a1.15 1.15 0 0 1-.57.26.81.81 0 0 1-.94-.68.59.59 0 0 1 .62-.57 1.1 1.1 0 0 1 .89.99zm7.9-1.87a1.52 1.52 0 0 1-.52.47 1.34 1.34 0 0 1-1.35-1 .57.57 0 0 1 .68-.62 1.19 1.19 0 0 1 1.19 1.15zM359 180.2c.68-.26.88-.05.94.36a.55.55 0 0 1-.21.31zm77.2-3.43a.76.76 0 0 1 .94.83.84.84 0 0 1-.94-.83zM329 238.89l-.36-.47.57-.47a.68.68 0 0 1 .26.36 1.52 1.52 0 0 1-.47.58zm30.58-50.42a.91.91 0 0 1-1-.68.48.48 0 0 1 .57-.52.84.84 0 0 1 .78.78 1 1 0 0 1-.35.42zm-98.66-14.14c.05 0 .1-.05.16-.05.36.05.73.16.68.57a.52.52 0 0 1-.42.31c-.47-.05-.47-.47-.42-.83zm52.97-30.88l.83-.1a1 1 0 0 1 .05.36c-.26.36-.52.16-.83.05zm-14.61 23.81a1.08 1.08 0 0 1-1-1.09c.95-.17 1.16-.01 1 1.09zm128.97 7.9a.78.78 0 0 1-1-.57c.64-.16.64-.16 1 .57zm-151.79-1.77c-.73-.05-.88-.36-.83-.83a.43.43 0 0 1 .31-.21c.57.1.52.52.52 1.04zm102.04-20.07l-.21-.26a1.3 1.3 0 0 1 .36-.21.18.18 0 0 1 .1.21.33.33 0 0 1-.25.26zM268 173.49a4.73 4.73 0 0 1 1.09.1c.31.1.47.36.26.62a.65.65 0 0 1-.68.16 2.22 2.22 0 0 1-.67-.88zm137.53-80c-.05.1-.1.16-.16.26-.1-.05-.16-.1-.26-.16a.35.35 0 0 1 .16-.21.88.88 0 0 1 .26.11z"/></svg>