<svg xmlns="http://www.w3.org/2000/svg" width="2694.2" height="2085.4" viewBox="0 0 2694.2 2085.4"><title>coralright</title><path fill="none" d="M164.7 1868.9c.7.2 1.4.2 2.1.1 21.2-10.2 44-14.8 66.9-19.3 11.4-2.3 22.9-4.5 34.1-7.5 20.9-5.6 41.5-12.1 62.4-17.7 23.1-6.2 46.3-12.6 69.7-17.5 44.3-9.2 88.8-17.6 133.3-26 19.3-3.7 38.7-6.5 58.1-9.7 6.9-1.1 13.8-2.2 20.7-3.1 9.5-1.3 19.1-2.9 28.7-3.5 25.3-1.6 50.5-2.8 75.8-4 20.3-1 40.6-2.1 60.9-2.7 16-.4 31.9-.2 47.9-.2 23.9 0 47.9-.3 71.8 0 22.6.3 45.3 2.3 67.9 1.3 30.4-1.3 60.5.9 90.8 3.5 26.5 2.2 52.9 7 79.7 3.6 24.1-3.1 48.4-4.8 71.6-13 1.1-.4 2.5 0 4.8 0-.2 5 0 9.7-.9 14.1-.4 2.3-2.4 5.3-4.4 6-14.3 5-24.9 15.2-36.3 24.4-5.1 4.1-8.2 9.4-11.2 15-9.7 18.3-9.4 37.8-8.1 57.5.6 10 .5 9.3-8.3 14.2-8.4 4.6-16.3 10.1-23.6 16.4-5.7 4.9-5.5 11.3-1.1 18.7 3.8-2.5 7.5-5.1 11.4-7.4 8.8-5.2 17.6-10.6 26.7-15.4 5-2.6 10.6-4 15.9-6 19.3-7.3 38.7-9.2 58.4-1.5 4.3 1.7 8.9 2.7 13.4 4 14.4 4.2 29 7.5 43 12.8 11.6 4.4 22.8 4.4 34.3 2 18.9-4 37.7-8.6 56.5-12.9 13-3 26-5.7 38.9-9 23.6-6 46-4.1 67.1 9.2 9.1-5 9.8-8.8 2.5-15.2-1.2-1.1-2.8-1.8-4.1-2.8-4-2.9-7.9-5.8-12.1-8.8.7-1.6 1-3 1.9-3.9 10.8-12 15.5-25.9 15.4-42 0-8.5-1.2-15.7-7.8-21.6-10.5-9.3-13.9-21.5-12.7-35.1.3-3.3.8-6.6 1.1-9.9 1.1-13.5 4.3-26.9 1.3-40.6-1.4-6.3-1-13-1.5-19.3 7.3-2.1 11.7 1.6 16.5 4.8 8.4 5.6 15.3 3.5 19.5-5.5 1.4-3 2.5-6 3.8-9.1 8-.9 15.6-2 23.2-2.5 17.9-1.2 35.8-1.5 53.5-5.9 26.5-6.6 53.1-12.3 79.7-18.5 8.1-1.9 16.2-3.5 24.2-5.7 12.8-3.5 25.5-7.4 38.3-11.1 11.2-3.2 22.6-5.8 33.5-9.6 19.1-6.8 38.2-13.8 56.9-21.6 13.8-5.7 27-12.7 40.4-19.3 11.7-5.7 23-12.1 34.9-17.3 7.3-3.2 14.4-6.3 21.1-11 7-4.9 15.2-8.1 22.7-12.1 5.6-3 11-6.2 16.5-9.4 3.2-1.8 6-4.4 9.3-5.7 20.4-7.8 37.3-21.7 56.2-32.1 14.5-8 28.1-17.8 42.9-25.3 16-8.1 32.8-14.4 49.3-21.5 16.8-7.2 34-13.4 48.8-24.8 7.9-6.1 16.8-10.8 25.6-15.5 16.4-8.8 32.9-17.3 49.4-25.9 1.5-.8 3-1.4 4.5-2.1 14.5-6.7 29-13.4 43.6-20 6.1-2.7 12.3-5 18.4-7.6 6.3-2.7 12.5-5.6 20.4-9.1.6 10.2 1.9 19.1 1.5 27.8-.5 11.6-2.6 23.1-3.3 34.7-1.2 19.2-1.8 38.5-2.8 57.8-.2 3.3-.6 6.6-1.3 9.9-2.1 9.3-.9 12.2 8.3 14 9.5 1.9 19.4 2 28.1-3.2 7.1-4.3 13.7-9.4 20.7-13.9 4.8-3.1 6.4-7.1 5.6-12.7-1.4-9.2-2.4-18.4-3.1-27.7-.5-6.6 0-13.3-.7-19.9-2.7-26.4-5.7-52.8-8.4-79.3-.4-3.8.4-7.8.5-10.3 7-3.4 12.7-5.9 18.2-9 7.3-4 14-9 21.5-12.6 12.9-6.2 26.1-11.8 39.2-17.5 8.5-3.7 17-7.7 25.7-10.9 17.2-6.3 35-11.2 51.7-18.4 26-11.2 53.1-19.5 79.6-29.2 26.1-9.6 50.8-21.6 72.6-39 6.7-5.3 7.3-11.6.9-17.6-3.2-3-4.4-6.2-5.1-10.3-1.5-9.2-3.2-18.4-5.6-27.4-1.4-5.4-1.2-9.4 2.6-13.7 3.4-4.1 6.5-8.5 9.1-13.1 3.7-6.2 3.8-12.8 1.6-19.8-8 11.2-15 22.8-22.2 34.2-3 4.4-3.8 10-2.1 15.1 1.8 6.4 2.9 13 3.4 19.6.7 7.9 2.8 14.8 10.4 20.3-16.6 13.1-34.7 21.6-53.1 31.8-4.3-9.9-8.7-18.4-11.6-27.4-3.9-12-8-23.7-16-33.8-4.9-6.2-6.3-7.4-14-5.5-5 1.2-10.1 1.9-17.5 3.3 3.5-5.9 5-10 7.9-12.9 10.3-10.5 13.4-24.4 17.6-37.6s5.4-27.2 6.7-41.1c2-21.7.8-43.1-.4-64.5-.2-4.8-2.1-9.6-3.3-14.4-1-4.2-2.3-8.3-3-12.6-2-11.1-3.7-22.3-5.8-33.3-1.3-6.8-3.2-13.6-4.8-20.4-2.5-11-5.6-21.8-7.3-32.9-2.3-15.1-3.2-30.4-5.1-45.5-1.3-10.2-3.4-20.2-4.9-30.3-1-7.3-1.3-14.5 3.3-21.2 1.9-2.7 3.2-6.3 0-9.1s-6-.9-9.1.8c-12.6 7.2-23.6 16-31.6 28.3-6.5 10.1-15.5 15.9-28.1 16.1-6.6.1-13.2 1.7-19.8 2.8-26.1 4.4-31.1 3-50.6-14.5-.5-.4-.9-1-1.4-1.4-10.8-9.4-14.6-21.8-15.7-35.5-1.1-13.1 3.8-24.8 8.2-36.6 1.4-3.6 5.1-6.3 9.2-11.1 1.6 4.9 2.9 7.5 3.3 10.2 1.1 7.2 1.4 14.6 2.7 21.8.9 4.8 2.1 9.9 4.7 13.8 9.6 14.2 23.2 18.9 40.1 14.2 21.6-6 41-17.3 61.2-26.8 4.6-2.2 5.9-5.5 4.1-10.7-2.7-7.5-5.4-15.2-6.8-23-2.7-15.4-5.9-30.5-13-44.7-4.9-9.8-7.8-11.8-19.3-10.7-19.1 1.9-37.9 1.2-55.6-7.4-6.7-3.1-13.1-6.6-19.3-10.4-4.1-2.7-8.4-6.1-8-11.8.6-9.1 8.9-16.9 18.4-17.8 6-.6 12-.7 17.9-1.6 8.3-1.3 16.1-3.9 21.5-12.9-9.1-5.8-6.4-15-6.3-23.5 0-3.9 1.6-7.8 2.5-11.6.7-3.2 2.4-6.6 2-9.7-1.4-10.8-3.5-21.6-6.1-32.2-2.7-10-4.5-19.9-3.9-30.3 1-17.6 1.7-35.2 2.7-52.8 1.3-23-6.8-43.8-15.8-64.2-2.3-5.3-6.7-9.7-10.8-15.3 10.2-2.1 11.9-9.1 10.7-16.9-1.2-7.5-2.9-15.1-6-22-3.6-8.1-8.9-15.5-13.4-23.2-9-15.6-25.4-22.9-43.1-20.1-21.7 3.3-43.4 6-65.6 4-21.3-1.9-41.3-7.1-59.5-18.4-11.9-7.4-23.2-15.5-34.9-23.3-7.2-4.8-14.7-9.2-21.5-14.4-6.7-5.1-11.9-11.7-14.3-20-2.6-9.1 3.1-19.4 12.4-20.5 11.5-1.3 22.7.5 31.7 8.7 4.5 4 8.7 8.2 12.7 12.8 12.6 14.8 28.2 23.4 47.6 26.6 11.1 1.8 19.5-.8 27.1-8.5 4.9-4.9 5.1-6 1.2-12-.9-1.4-1.9-2.7-3-4-19.7-24.7-15.4-62.5 9.1-85 5-4.5 11.5-7.1 18.2-7.1 7.3-.2 12.4 3.7 12.7 11 .2 7.3.4 14.9-1.8 21.6-6.2 18.8-4.9 36.8 3.9 54.2 2.9 5.8 7.2 11 11.2 16.2 2.6 3.4 6.1 6.2 8.6 9.7 6.9 9.3 17.6 12.8 27.3 17.6 4.7 2.3 8.9-.4 12.4-4s3.1-7.2.9-10.9c-7.7-13.1-10.7-27.9-14.3-42.4-2.4-9.6-5.4-19.8-4.7-29.4 1.6-19.5 5.9-38.7 8.5-58.2 1.4-10.2 3.2-20.7 1.8-30.7-2.3-15.7-5.4-31.4-12.7-45.9-1.7-3.4-2-7.7-2.4-11.6s1.9-6.2 5.8-6.8c8.7-1.4 17.5 1.2 24 7.2 5.4 4.9 9.8 10.9 15 16 9.7 9.5 13.7 21.5 13.4 34.4-.2 9.3-1.9 18.5-5.1 27.3-5.8 15.6-10 31.7-12.4 48.1-2.8 19.2-.2 37.1 6.1 54.9 4.1 11.5 8.6 23 12.9 34.4 1.5 4 8 6.3 13.8 5.2 5-.9 4.9-4.6 4.9-8.4-.1-9-.5-18-.4-26.9.1-5.6.2-11.4 1.4-16.9 4.6-20.8 15.1-38.5 30.3-52.9 11.3-10.7 19.9-23.2 28.3-36 6.4-9.8 8.3-20.2 1.8-31.1-.9-1.5-1.1-3.5-1.7-5.8 2.3-.4 3.9-1 5.4-.9 10.1.9 18 9 21.6 20.7 5 16.2-1 30.4-8.4 43.8-6.3 11-13.5 21.4-21.7 31-10.4 12.7-14.8 27.4-17.2 43-1.3 8.4 2.6 12.7 11.1 12.3 3.3-.3 6.4-1.4 9.2-3.2 8.6-5.7 16.6-12.3 25.4-17.7 15.4-9.5 23.1-24.2 28.9-40.4 2.6-7.2 4.2-14.7 7.2-21.7 1.5-2.8 4.3-4.8 7.4-5.4 4-.4 4.6 4 5.5 7.2 3.8 12.9 3.2 26.7-1.6 39.2-7.1 19.3-16.3 37.1-33.1 50-13.7 10.5-27 21.5-40.3 32.5-20.5 16.9-35.6 37.7-44.1 62.9-1.9 5.8-2.1 12.4-1.9 18.6.3 10.9 5.9 20.4 10.2 30 5.4 12 13.6 14.7 24.8 7.9 8.3-5 16.4-10.1 24.4-15.5 2.3-1.6 4.8-4 5.6-6.6 2-5.6 5.6-8.8 11-10.6 1.8-.6 4.2-1.3 5.1-2.8 4.2-6.8 24.2-28.8 23.7-38.8-.3-4.6 1.9-10 4.6-13.9 1.9-2.8 6.6-5.1 9.9-4.9 2.4.1 5.5 4.5 6.5 7.6 3.2 10.3 4.6 21-.8 31.1-5.1 9.7-11.2 18.9-16.5 28.5-2.4 4.3-5.7 6.8-9.9 9.2-7.9 4.5-15.1 10.1-22.6 15.3-.5.5-.9 1-1.2 1.6-4.2 5.5-8.4 11.1-12.6 16.7-12 16-21.3 33.9-27.6 52.8-4 12.3-6.6 25.1-9.8 37.7-.6 2.3-.8 4.6-.5 6.9 1.6 11.7-1.8 24 5 35 .3.6.4 1.3.3 2-1.4 14.7 2.9 28.2 8.2 41.5 4.1 10.2 7.6 20.6 12.2 30.5 3.8 8.3 10.5 9 16.7 2.4 4.8-5.1 10.2-9.8 13.8-15.7 8.1-12.9 17.5-24.8 25.2-38 8.5-14.4 6.1-28.8 5.4-43.5-.1-1.8-1.7-3.6-2.9-5.1-6.4-8.1-12.6-16.3-19.6-24-6.2-6.9-8.9-14.6-8.1-23.8 1.5-17.6 13-28.7 33-33.7 14.1-3.5 19.5 6.9 17.8 17.2-3.6 22.5-1.3 43.6 13.9 62.2 11.1 13.5 15.8 29.6 11.8 46.8-2.3 9.9-7.4 19.1-11.1 28.6-3.6 9.1-11.4 14.5-18 21-12.2 12.3-25.8 23.1-40.5 32.1-10.2 6.1-20.2 12.8-26.2 22.8 4.2 10.2 7.6 20.3 12.4 29.7 5.1 10 5.6 23.2 19 27.6-2 5.6-7 9.9-3 15.3 5.3 1.5 8.4-1.8 11.8-4.5 7-5.7 13.4-12.2 21-16.8 20.3-12.2 36.9-28.2 51.7-46.4 8.5-10.4 11.8-21 5.1-34.7-2 2.6-3.9 4.4-4.9 6.5-6.4 12.9-15 24.2-24.8 34.7-.7.7-1.3 1.5-1.8 2.4-4.1 8.1-11.5 12.7-18.6 17.8-5.7 4.1-11.3 8.2-17 12.2-3.9 2.7-8 5.3-11.9 7.9-1.4-1.8-2.4-2.5-2.6-3.4-1.7-7.2-4.1-14-9.6-19.4-.6-.8-1.1-1.7-1.3-2.6-2.5-6.8-4.8-13.7-7.4-20.5-2.8-7.2-2.4-9.3 3.7-13.5s12-8.4 18.3-12.2c18.5-11 33.9-25.7 49.1-40.7 10.8-10.6 14.9-25 20.3-38.5 7.4-18.6 4.6-36.6-7.8-52.7-1.7-2-3.3-4.2-4.8-6.4-7.4-12.3-14.9-24.6-11.7-40 .6-2.9 1.2-6.8-.1-8.7-3.3-4.6-2.4-9.5-2.8-14.4-1-10.3-4.7-14.9-14.9-17-3.2-.7-6.7-1.3-9.9-.8-12.7 2.1-25.6 3.5-36.6 11.8-6.6 5-12.6 10.8-14.8 18.3-2.5 8.4-2.3 17.7-2.9 26.6-.1 1.4 1.2 3 2.2 4.4 6.5 9.2 12.5 18.9 19.8 27.4 11.8 13.7 12.7 28.7 5.1 43.6-7.2 14.2-16.6 27.2-25.5 40.5-3.2 4.8-7 4.5-8.9-.5-3.6-9.6-6.9-19.4-9.8-29.2-4.2-14.2-4.8-28.7-4.1-43.4.3-6.6-1.4-13.4-.6-19.9 1.5-10.8 3.1-21.8 6.8-32 5.9-16.5 12.2-33.1 20.6-48.4 8.7-15.5 20.3-29 34.2-40 8.3-6.6 16.6-13.6 23.2-21.8 12.3-15.2 22.2-31.4 17.1-52.9-3.3-14-13.8-23.3-28.2-22.3-14.9 1-25.8 10.7-29.8 25-3 10.5-5.5 21.9-11.4 30.6-9 12.9-20.9 23.6-34.8 31-4.2 2.3-8.9 3.9-13.3 5.8-2.9-4.6-5.7-8-7.2-11.9-4.1-10.1-4.2-20.7-1.7-31 1.5-6.4 4.8-12.5 8.2-18.1 5.3-8.8 10.1-18.5 17.3-25.4 15.3-14.7 32.2-27.7 48.2-41.7 8.2-7.2 16.7-14.3 23.4-22.8 6.1-7.7 9.9-17.1 14.9-25.7 9.6-16.4 11.4-33.7 7.4-52-2.3-10.5-10.8-17.6-23-18.4-14.6-1-21.6 3.3-25.3 15.6-2.1 7-4.1 14-6.3 21-2.9 9.3-6.9 18.1-14.1 25-6.5 6.2-13.2 12.5-22.8 15 1-6.2 1.8-12.4 4.9-17.1 6.6-10 14.7-18.9 21.5-28.7 10.4-15 20.9-30 19.8-49.7-.9-17.3-7.8-31.9-24.1-38.4-10.1-4-22.1-4.6-33.3-4.5-9.9.1-12.7 7.4-7.6 16 .5.9 1.1 1.7 1.6 2.5 5.3 8.6 4.9 16.4-1 25-10.7 15.7-22.6 30.5-35.7 44.2-9.7 10.1-15.6 22.2-19.9 35.3-1.4 4.3-2.5 8.8-7.6 10.6-4.4-9.6-5.3-12.9-4.9-21.5.3-7 1.4-13.9 1.9-20.9.9-14.4 3.7-28.3 10.3-41.3 7.6-15 10.1-30.7 8.1-47.4-.9-8-3.5-14.8-8.9-20.7-5.6-6.2-11.8-11.8-16.8-18.4-11.3-15-38.7-18.6-56.8-3.9-4.6 3.8-8.4 8.3-7 14.5 1.8 8 3.8 16.2 7.3 23.7 9.2 20 12.6 40.6 9 62.2-2.5 15.1-6.4 30-8.8 45.1-1.4 7.8-1.5 15.8-.6 23.7 1.8 12.1 5.2 24 7.8 36.1.5 2.3.1 4.8.1 9.6-7.5-8-15.1-13.4-18.9-20.7-7.8-15.3-12-31.8-5.6-49.1 1.1-3.2 1.9-6.4 2.7-9.6 2.3-8.4 1.7-17.4-1.8-25.4-2.9-6.5-7.6-11.3-15-11.5-10.5-.4-20.7 2-29.3 8.3-31.6 23.1-45.4 57.7-30.2 97.6.7 2.3 1.3 4.6 1.7 6.9-2.2 0-3.5.1-4.7 0-13.5-1.1-23.1-9.4-32.4-18s-17.8-18.5-30.6-23.1c-21.9-7.9-35.9-4.2-50.1 14-9 11.6-10.6 29.9 3.2 41.2 9.5 7.7 19.5 15 29.4 22.2 6.4 4.7 13.3 8.8 19.8 13.4 22.2 15.5 46.6 25.7 73.6 28.9 32.4 3.8 64.1-2.5 96.6-6.6 14.3 11.3 28.3 45.5 23.5 60.1-2.9-1.8-5.7-3.5-8.4-5.1-9.9-6-19.8-12.2-29.8-17.9-5.5-3.1-11.3-3.5-17.7.9 2.6 5.5 5.5 10.6 7.6 16.1 2.6 6.8 5.2 13.7 6.5 20.8 1.7 9.2-6 20.8-14.8 23.4-16.6 4.8-32.5 3.9-45.8-8.3-14.4-13.2-31.2-21.3-49.7-26.6-14.7-4.1-28.5 4-31.8 19s3.8 31.5 18.3 39.9c18.2 10.7 38.6 17 59.6 18.6 12.6.9 25.3.8 37.9 1.3 2 .1 4 1 6.8 1.8-8.3 15.2-19.1 26.9-29.1 39.3-16 19.6-35.6 36-49.3 57.6-7.3 11.5-16.3 22.5-20.6 35-7.8 22.2-12.7 45.5-18.5 68.4-1.4 5.4-2.6 11.3-2.1 16.8 3.3 37.5 6.5 75 10.9 112.3 3.6 30.4 9.1 60.5 13.4 90.8 1.1 7.5.7 15.3 1.9 22.8 1.2 7.9 3.8 15.5 5 23.4 2.5 16.8 4.2 33.7 6.7 50.4 2.2 15.1 5.3 30.1 7.6 45.2.6 3.7-.2 7.5-.3 12-2.3-.9-3.5-1-4-1.6-6.7-8.2-13.4-16.5-19.9-24.9-3.6-4.7-6.8-9.8-10.5-14.5-11-14.2-22.4-28-31.5-43.5-10.5-17.9-14.6-37.7-18.6-57.6-1.3-6.2-2.9-12.3-3.7-18.6-1.7-13.8-3-27.7-4.3-41.5-1.4-14.2-2.4-28.5-4.1-42.7-.9-8.6-2.4-17.1-4.4-25.5-5.9-23.8-20-43.3-33.1-63.4-3.8-5.8-7.5-12-12.6-16.7-18.5-17.3-37.4-33.9-61.9-43-19.5-7.3-40.3-11.9-57.2-25.3-1.9-1.5-4.9-2.2-7.5-2.4-4.2-.4-8.6-.4-12.1 3.8 1.1 1.5 1.9 2.9 2.9 4.2 4.3 5.5 9.5 10.5 13 16.5 10.4 18.2 18.2 37.7 23.3 58 5.7 21.9 4.3 44.3 4.5 66.5.1 12.3-.5 24.5-.4 36.8.3 22.9 1.1 45.7 3.2 68.6 2.2 24.6 9.2 47.7 18.7 69.8 15.1 35.2 39.3 64.8 62.4 94.8 13.6 17.6 29.6 33.2 44.5 49.8 5.1 5.7 10.4 11.3 14.9 17.4 7.3 9.8 14.1 20 22.9 28.7 5.4 5 10.2 10.5 14.4 16.5 11.2 16.5 23.9 31.8 32.3 50.3 6.3 13.8 16 26 23.1 39.4 12.9 24.4 24.6 49.5 32.7 75.9 3.9 12.6 7.2 25.6 6.7 39.1-.2 6-2.2 9.8-8 12.3-26.8 11.8-53.4 24.1-80.1 36-1.9.8-4.2.6-7.8 1 2.1-19.2 3.6-37.4 6.1-55.3 1.9-13.5 5-26.8 7.4-40.3 1.4-7.7-1.1-13.1-7-14.7-3.2-.7-6.6-.8-9.9-.3-16 2-31.1 7-45.5 14.1-3.7 1.8-7.7 3.1-12.8 5.1-.6-5.1-1.5-8.7-1.4-12.1.2-5.9 1.3-11.8 1.6-17.8.3-5.3-.5-10.6.2-15.8 2.7-21.1 6-42.2 4-63.6 0-1.7.2-3.3.5-4.9 1.1-10.3-4.5-21.2-13.8-25.4-9.4-4.4-19.8-6.3-30.2-5.3-12.6 1.3-22.9 10.6-25.6 22.9-2.7 12-5.7 24-7.1 36.2-3.6 31.4-6.4 62.9-9.6 94.3-.2 1.9-1.5 3.7-2.3 5.6-1.6-6.2-1.7-12.1-2.3-17.9-1.2-11.9-3.1-23.8-4.1-35.7-1.2-14.2-1.8-28.5-2.7-42.8-.9-13.9-2.4-27.9-2.6-41.8-.2-14.6.8-29.2 1-43.9.2-13.9-5.6-25.8-13.7-36.7-6.5-8.8-15.2-12.7-26-11.6-5.3.5-10.5 1.9-15.7 2.7-15.2 2.3-24.4 10.5-26.7 25.2-3.1 19.5-3.7 39.1.4 58.6.7 3.6 1.1 7.2 1.3 10.9.7 11.9 1.3 23.8 1.8 35.7.3 7.8 1.2 15.8-4.4 22.9-1.5-1-2.6-1.8-3.6-2.6-17.4-12.6-35.1-6.2-52.3-.2-9.4 3.3-9.5 12.8-10.7 21.1-3.6 25.4-4.6 51-6.1 76.5-1.7 28.2-3.8 56.5-2 84.8.6 5.7-.1 11.4-2 16.7-3.3-6.6-5.4-11.3-7.9-15.7-4.4-7.8-9.2-15.4-13.4-23.3-3.8-7-6.2-14.8-10.6-21.3-3.6-5.4-8.9-9.8-14.1-13.8-3.5-2.7-8.2-2.6-12.4-.3-6.9 3.9-13.9 7.8-20.6 12.1-10.3 6.6-15.4 16.6-16.2 28.4-1.1 16.6-.6 33.2 2.6 49.7 1 4.9 2.9 9.6 3.8 14.5 2.6 14 4.8 28.2 7.3 42.2.5 2.6 2.1 4.9 2.9 7.4 5.5 16.9 14.5 32.8 14.7 51.2 0 3.2.7 6.4 4.8 6.2s5.8-3.3 5.3-7c-.5-5.3-1.4-10.5-2.7-15.6-2.2-8.6-5.7-17-7.2-25.7-3-17.3-4.7-34.8-7.5-52.2-3.4-21.9-8.9-43.4-5.6-66.2 1.8-12.5 7.3-20.2 17.1-26.2 6.7-4.1 10.7-3.1 15.4 3.3 1.3 1.9 2.5 4 3.5 6.1 4 7.6 7.8 15.3 11.8 22.9 3.5 6.7 7.9 13 10.6 20.1 12.7 33.6 25 67.4 37.3 101.1 1.7 4.8-1 13.6-5 15.9-14.7 8.4-29.5 16.6-44.1 24.7l-4.2-4.4c-2.1 3.5-3.2 7.8-5.8 9.1-14.9 8-29.9 16.1-45.4 22.8-23.8 10.2-48.4 18.8-72.1 29.1-22.9 10-46.4 16-71.5 16.3-2.6 0-5.3.3-7.8 1-10.5 3.1-21 6.4-31.5 9.5-20.4 6-40.7 12.9-61.4 17.6-18.1 4.2-36.7 5.9-55.1 8.7-5.6.8-11.2 1.7-16.8 2.3-4.7.5-8.3-.7-10.6-5.5-8.1-17.2-20.2-31.1-35.6-42.2-1.5-1.1-2.8-2.5-5.7-5.1 3.8.3 5.4.4 6.9.6 14.3 2 24.6 11.3 35.3 19.7 7.3 5.8 14.3 12 21.6 17.7 15.4 12 25.5 9.3 40.1-2.5 5.6-4.5 7.1-11.6 4.4-18.1-1.4-3.8-3.3-7.3-5.7-10.5-13.7-16.9-29.3-32-49.6-40.7-8.8-3.8-18.2-6.3-27.7-7.4-10.5-1.2-21.3 0-31.9-.3-4.1-.1-8.2-1.3-13.2-2.2 3.2-5.4 6.7-7.4 11.3-7.7 5.3-.3 10.6-.6 15.9-1.1 25.4-2.2 49.7.6 71.5 15.5 9.9 6.7 20.8 3.1 23.7-8.3 3-12.1 2.9-24.8-5-35.4-6-8.1-14-14.4-23.3-18.2-14.7-6.1-29.8-9.2-45.8-6.9-15.7 2.3-32.2 1.5-46.7 9.3-8.7 4.8-17.1 10.3-25 16.3-12.6 9.4-26.9 9.9-41 7-13.9-2.8-27.4-5-41.4-1.7-5.6 1.5-11.5 0-15.7-4-10-8.8-20.2-17.3-30.3-26-5.7-4.9-12.1-8.4-19.7-9s-15.3-1.9-22.9-1.4c-37.3 2.5-70.8 12.5-89.5 49.2-.3.6-.6 1.2-1 1.7-7.8 9.8-6.5 21.4-5.5 32.6.6 6.4 4.9 9.2 11.3 8.4 7.2-1 13.4-4.2 17.6-10.3 2.6-3.9 4.9-7.9 7-12 7-13 17.6-21.6 32-25.1 3.8-.9 8.2-2.3 12.7 1.1-1.7 1.6-2.7 3.1-4.1 3.8-7.3 3.9-12.2 10-16.9 16.7-8.7 12.5-17.8 24.8-27.1 37-6.2 8.2-10.8 16.8-11.2 27.2-.5 11.2 3.8 17.3 14.7 18.9 4.6.7 9.9-.6 14.4-2.3 11.2-4.3 19.7-12.4 26.6-22 9.8-13.8 23.9-20.8 39.2-26.1 1.6-.6 3.8.4 7.6 1-8.7 7.1-15.4 13-22.6 18.3-9.8 7.5-18 16.9-24.1 27.6-4.8 8.1-2.4 18.6 5.4 23.8 2.6 1.7 5.9 2.2 8.9 3.2.2.7.2 1.3.1 2-.5 1.2-1.1 2.4-1.8 3.5-9.3 13.9-16.6 28.8-20.7 45.1-4.1 16.6-4.5 16.9-22 18.4-1.3.1-2.7.3-4 .3-8.7-.1-17.3 1.5-25.3 4.9-4.4 1.8-9.2 4.2-14.4 1.2-.8-.4-2.4.4-3.6.9-10.2 3.9-20.4 5.5-30.7-.2-1.5-.8-3.1-1.2-4.7-1.3-8.9-.5-17.9-1.1-26.8-1.4-23.3-.7-46.6-1.5-69.9-2-21.6-.4-43.3-.6-64.9-.8-14.6-.2-29.3.6-43.9-.8-26.6-2.5-53.1-1.8-79.7.3-3.6.3-7.3.1-10.9.1-20.3.1-40.6-.2-60.8.4-25.6.7-51.2 2.8-76.8 3-26.7.2-53.3 1.6-79.6 5.7-31.2 4.8-62.2 11.2-93.2 17.3-17 3.3-33.7 8.5-50.8 10.8-38.6 5.3-76.9 12-114.3 23.2-41.5 12.5-84.3 19.5-126.1 30.4-17.4 4.5-35.2 7.6-52.4 12.6-23.3 6.8-46.3 14.5-66.4 29.1-6.3 4.4-13 8.1-20.1 11-22.4 9.6-43 22.5-62.9 36.3-3 2.1-5.8 4.5-8.3 7.2-3.1 3.3-4.7 7.2-1.5 11.8 9.6-.3 17-6.1 24.8-10.1 23.4-11.9 46.5-24.3 69.8-36.5 7.4-3.9 14.7-7.5 20.2-14.3 2.4-2.9 6.3-4.9 10-6.2 11.6-4.1 23.3-7.7 35-11.5.6 0 1.2.2 1.8.5l2.9 2.8zm2344.4-25.5c-4.8-10.3-8.4-20.3-8.7-31.5s-1.1-22.1-7.9-31.4c-4.7-6.5-10.3-12.5-18.5-14.3-6.5-1.4-13.2-1.8-19.8-2.4-18.3-1.6-35.1 1.7-49.2 14.6-7.6 7-13.3 15.3-14.4 25.4-.9 8.1-4.6 12-11.8 13.8-3.5.9-7.1 1.5-10.7 2.4-2.7.7-5.3 1.7-8.4 2.7 7.1 8.3 13.9 9.8 24.6 5.1 17.6-7.7 18.2.7 18.8 12.7-.1 1.1-.4 2.1-.9 3.1-10.6 5.2-23.6-1.5-33.4 7.6 5.2 6.7 11.1 9.2 18.2 8.5 5.6-.5 11.2-1.6 16.8-2.4 2.9-.4 6-1.3 7.7 3.3-2.6 4.1-7.2 5.1-11.4 6.7-14.7 5.6-27.1 14.3-35.7 27.6-2.2 3.4-3.2 7.8-4.1 11.9-2.6 12-4.2 23.9 1.4 35.8 1.6 3.5 1.4 8.4-4.6 11.8-2.3-6.2-4.9-11.6-6.2-17.2-2.8-12-5.4-24-7.4-36.1-1.3-7.8-1.5-15.7-2.1-23.6s-1.6-15.8-7.3-22.3c-5.1-5.7-10-11.6-14.7-17.6-3.3-4.2-6.3-8.6-8.9-13.2-3.1-5.5-1.7-8.8 4.1-10.5 4.5-1.3 9-2.5 13.6-3.4 16.7-3.1 32.5-10.2 45.9-20.7 3.4-2.5 6.5-5.6 9.1-9 2.4-3.3 4.6-4.4 8.4-3 1.7.6 3.4 1 5.2 1.4 4.2-4.5 5-9.3 3.6-14.4-2.1-7.7-3.8-15.6-6.8-23-6-14.8-17.5-21.9-33.5-22.1-4.9-.1-9.8-1.2-14.6-2.2-10.7-2.2-21.2-2.1-31.2 2.8-14.9 7.2-27.6 16.6-37 30.9-10.1 15.5-12 36.3-2.1 51.6 2.6 4.1 6.7 7.3 10.2 10.8 4.4 4.4 9.2 8.6 9.4 15.4-.4.3-.8.5-1.3.6-1.3-.3-2.6-.5-3.9-.6-13.2-.1-26.7-1.9-38.3 7.1-7.1 5.5-14.6 10.4-21.6 15.9-6.8 5.4-9 5.1-12.7-2.3-2.4-4.7-5.3-9.2-7.7-14-5.2-10.4-11.4-20.4-14.9-31.3-4.9-15.2-13.5-27.4-25.2-37.5-3.9-3.1-8.3-5.4-13.1-6.7-17.8-5-35.9-6.6-54.3-3.2-5.5 1-11.3.6-16.9.9-4 .2-8 .3-11.9.8-10.4 1.2-18.6 6.7-26.1 13.6-5.7 5.2-11.4 10.1-14.5 17.4-6 13.8-1.9 32.6 9.3 42.6 10.8 9.7 25.1 15.2 33.9 27.4.4.5 1.2.6 1.7 1 3.5 2.4 7.2 4.7 10.5 7.4 8 6.6 15.7 13.4 25.6 17 6.1 2.2 10.7 6.4 14.5 13.4-4.1 1.5-7.6 3.1-11.2 4.1-14.7 3.8-26.8 10.7-34.7 24.6-4.1 7.1-4.4 13.8-2.1 21 2.5 7.9 5.3 15.8 8.4 23.4 2.6 6.4 5.7 12.7 9.3 18.6 5.6 9 11.7 17.7 17.8 26.4 1.9 2.7 3.8 6.2 6.5 7.4 10 4.5 16.6 12.9 25 19.4 8.9 6.9 17.9 13.7 26.8 20.5 1.1.7 2.4 1.1 3.7 1.3 14.3 2.9 28.6 5.8 43 8.4 4.7.8 8.2 2.3 9.8 7.1.4 1.3 1.6 2.4 2.6 3.9 6-4.6 7.5-10.4 6.8-16.5-2-17.2-5.4-34.1-11.9-50.3-2.8-7.1-7-14.6-2.6-23.4 2 0 4.4-.8 5.8.1 7.1 4.9 15 4.8 23 5 4 .1 6.2 2.2 8.5 5.7 4 6.4 8.1 13.6 14 17.7 18.5 13 37.8 24.9 58.5 34.2 4.2 2 8.5 3.8 12.9 5.4 6.1 2 9.4.1 11.5-6.1.6-1.9 1-3.9 1.2-5.9 2.7-16.9 1.9-33.9.4-50.8-.6-7.3-1.7-14.6-2.1-21.9-.2-3.8-1.3-8.6 4.1-9.9 4.9-1.1 7.1 2.4 8.5 6.5 2.4 6.9 5.1 13.7 7.3 20.6 3.8 12 5.9 24.4 13 35.4 4.6 7 9.3 13.5 15.5 19.1 7.6 7 14.7 14.5 22.2 21.5 5.8 5.4 13.3 7.2 20.9 7.9 4.2.5 8.5.6 12.8.4 3.5-.3 8.3-.3 10-2.5 5.6-7.1 12.5-13.8 12.1-24.4-.3-7.9.7-15.9 1-23.9.2-3.9.8-7.6 5.3-8.5 4-.8 6.2 1.6 7.3 5.1.1.3.3.6.4.9 2.4 3.9 5.7 6.7 10.6 6.1s6.4-4.4 7.4-8.4c1.7-6.8 3.9-13.5 4.7-20.4 1.8-15.1 2.9-30.4 4.2-45.6.4-5.5.6-11 .8-16.4l2.1-.6c2.9 5.8 6.1 11.5 8.8 17.4 9.9 22.2 25 40.7 41.4 58.3 8.4 9 16.5 18.2 26.9 24.9 6.3 3.8 11 9.9 13.2 17 1.2 4.1 3.9 7.3 8.6 6.9 5.2-.4 7.1-4.5 8.1-8.9 4.9-21.9 6.3-44.2 5.2-66.4-1.4-29.2-2.6-58.4-8.5-87.3-3.5-16.8-4-34.3-5.5-51.6-.4-5-.1-10 .8-14.9 3.3-18-1.8-34.3-9.7-50-1.5-3-4.7-6.4-7.7-7.1-6.7-1.6-13.9-2.6-20.6-1.9-8.6.9-17.1 2.9-25.2 6-21.8 8.2-38.5 21.8-45 45.5-1.6 5.9-2.9 12.2-10.7 14.8zm-611.9-117.1c-2.8-8.3-3-9.6-1.3-16.8 2.3-9.7 4.4-19.6 7.5-29 5.1-15.1 6-30.5 5.3-46.3-.3-8.1-3.4-14.9-7.4-21.4-5.5-8.9-19.3-12.5-27.3-7.2-9.9 6.6-16.7 16.9-18.8 28.6-2.4 12.9-2.1 26.4-2.6 39.6-.5 13.6 1 27.2-5.2 40.2-3.4 7-8.1 11.2-15.3 13s-10.1.1-10.5-7.3c-.4-8.3-.1-16.6.7-24.8 1.7-19.4-.5-37.2-17.5-50.2-8.2-6.2-15-6.9-21.8.7-3.4 4.1-6 8.6-7.9 13.6-6.8 16.3-4.7 33.5-3.5 50.2 1.6 21.5 5.6 42.9 8.1 64.3 1.5 13.5 2.2 27.2 3 40.8.3 5.7-1.7 10.5-6.8 13.6-7.9 4.8-15.4 1.8-16.7-7.3-1-6.9-1.4-13.9-1.2-20.8.6-17.1-1-33.1-15.3-45.2-6.5-5.5-13.2-6.3-19.7-.9-5.4 4.6-9.2 10.7-11.1 17.5-3.8 12.7-3.6 25.5-2.3 38.6.7 7.4-.9 15.2-2.1 22.6-.6 3.8-3.5 7.2-7.6 6.4-2-.4-4.2-3.9-5-6.4-3.3-10.9-4-22-3.3-33.5 1.5-24.9 7.5-48.6 17-71.5 4.8-11.5 4.3-23.5 2.6-35.4-.5-4.7-3.1-9-7-11.6-6.3-4.2-12-9.4-18.6-13.3-12.2-7.2-20.8-4.5-28.7 7.3-5.7 8.6-9 17.5-8.7 28.1.3 8.9-2.2 18.2-.7 26.8 2.9 15.7 1.6 31.2.3 46.7-.6 7.7-2.9 15.1-8 21.2-3 3.5-6.5 5.6-11.4 4.6-5.1-1.1-7-4.9-7.6-9.4-1.2-8.3-1.5-16.6 1.6-24.7 1.8-4.7 3.2-9.5 4.2-14.3 2.2-11-1.3-20.5-8.7-28.4-6.7-7.2-15.4-7.1-23.1-1-10.3 8.2-13 19.6-14.3 31.8-2.8 25.6-2.7 51.2 2.1 76.5 1.9 10 4.6 20.3 9.1 29.4 8.4 16.7 23.1 28.3 37.2 40 11 9.1 22.9 17 34.6 25.3 6.5 4.6 12.9 9.5 20 13.2 20.1 10.4 39.9 21.1 58 35.1 7.2 5.6 10.5 11.1 8.1 20.4-3.5 13.6-.3 27.3 2.8 40.5 1.4 6.1 7.2 11 10.1 16.9 4.5 9 11.3 12.5 21.1 11 3.4-.6 7.8 1.2 9.7-3.2s-1.5-7.4-4.1-10.4c-.9-1-2.1-1.7-3-2.7-11.4-14.1-22.7-28-19.4-48.2 3.5-21.7-9.8-35-25.7-45.8-10.7-7.2-22.6-12.7-33.9-19-8.1-4.6-16.2-9.1-23.9-14.2-5.5-3.7-9.8-9.3-15.5-12.5-15.8-9.2-30.5-20.1-44-32.5-11.8-10.7-20.9-22.8-24.1-39.1-3.3-16.7-6.3-33.2-6-50.4.3-13.6-.4-27.2 2.6-40.6.6-2.9 1.7-5.7 3.2-8.2 2.4-3.6 5.3-3.8 8.2-.6 4.3 5 6.9 10.6 4.8 17.4-1.5 4.8-3.2 9.5-4.8 14.2-3.2 9-4.2 18.2-1.8 27.5 3.9 15 13.4 21.4 28.7 20.1 6.8-.6 12.3-3.4 15.7-9.2s7.2-11.6 8.6-17.8c2.7-11.6 4.6-23.4 5.6-35.3.6-7.5-1.7-15.1-1.5-22.7.3-14.3 1.4-28.5 2.5-42.8.4-2.7 1.7-5.1 3.7-6.9 1.9-1.6 4.5-2.4 7-2.3 10.2 1.6 18.2 9.8 19.5 20.1 1.2 9.3 1.3 18.7-2.5 27.5-7.5 17.2-12.2 35.1-15.8 53.5-3.3 16-3.3 32.5-.2 48.6 1.2 6.3 4 13.1 8 18 10 12.2 23.2 11.2 31.7-1.1 3.8-5.5 6.2-11.8 7-18.4 1-10.8-.2-21.9.1-32.8.2-7.9.5-16 2.2-23.7 1.6-7.3 6.3-7.9 11.4-2.3 4.8 5.3 5.6 11.9 5.8 18.6.3 11-.3 22 1 32.9 1.8 15.2 9.4 22.4 19 23.9 11.7 1.7 25-4.6 29.4-14.6 4.3-9.8 5.8-20.6 4.2-31.2-1.8-13.5-3.2-27-4.5-40.6-2.3-23.2-4.6-46.3-6.8-69.5 0-.3-.1-.7-.2-1-3.5-8.9-.4-16.9 3.8-24.7 4.1-7.5 9.3-8 14.1-.8 2.1 3.4 3.4 7.2 3.7 11.2.6 6.2.3 12.6.3 18.9-.1 10.6-.9 21.3-.4 31.9s5.8 16.1 16.1 16.9c10.6.8 20.7-1.4 28.2-9.9 10.1-11.5 14.7-25.2 15-40.3.3-12.3-.1-24.7.7-37 .7-11.4 3.4-22.5 9.9-32.1 4.7-6.8 10.6-6.3 14.8.9 1 1.7 1.7 3.6 2.1 5.6 2.6 13.2 3.8 26.3-.3 39.5-3.6 11.7-6.7 23.7-9.7 35.6-2.7 10.6-2.9 21.1 2 31.3 4 8.4 9.6 10.3 17.7 5.7 1.4-.9 2.7-1.9 4-3 10-8 19-16.4 24.3-28.6 3.3-7.6 9.1-11.2 12.5-9.2 6.4 3.7 4.6 10.1 3.5 15.3-2.7 12.8-7.5 24.7-17.7 33.9-13.9 12.6-25.6 27.1-36.3 42.4-11.5 16.4-16.1 35.7-21.3 54.6-.9 3.3-.1 7.3.9 10.8 1.8 5.9 6.2 9.4 12.4 10 12 1.1 24.3-8.4 27.6-20.2 1.4-4.9 4.1-9.7 7-13.9 1.1-1.7 5-3.1 6.6-2.4s3.7 4.3 3.4 6.3c-.9 6.2-2.7 12.3-4.3 18.3-1.4 5.1-4 10-4.4 15.2-.6 6.9-.2 14.5 6.6 18.8 6.9 4.5 13.7 1.3 19.5-2.8 7.3-5.2 14.4-10.8 21.2-16.6 3.3-2.8 6.4-5.1 10.7-3.2 4.8 2.1 4.9 6.7 4.9 11.1 0 1.7-.3 3.3-.8 4.9-3.3 10.1-5.9 20.6-10.2 30.3-4.8 11-12.3 19.6-25.1 22.2-14 2.8-27.9 6.5-41.9 9.4-21.7 4.4-42.8 10.2-60 25.3-10 8.8-19.8 18-25.9 30.1-3.5 6.8-6.2 14-8.1 21.4-1.4 5.6-2.3 12.4-.4 17.5 2.8 7.6 5.1 14.9 5.3 23 .1 4 2.4 5.9 6.7 5.5 5.3-.6 8.1-2.8 7.6-7.1-.6-5.6-1.7-11.2-2.9-16.7-1.7-7.9-3.1-15.7-.9-23.7 6.2-23.4 20.7-40.3 42.2-50.4 10.6-4.9 21.9-8.2 33.5-9.7 15-1.9 29.2-6.6 43.7-10.4 12.9-3.4 21.9-12.2 29.4-22.7 8.3-11.6 11-25.5 16.2-38.4 3.9-9.8 1.7-18.2-2.1-26.8-3.5-7.9-10.7-10.1-18.2-6-2.9 1.6-5.1 4.2-7.8 6.1-6.9 5.1-13.8 10.3-21 15.1-2.8 1.9-6.8 3-9-.3-1.6-2.8-2.2-6.1-1.6-9.2.8-4.2 3.1-8 4.8-12 3.7-8.6 3.5-17.6 1.9-26.5-1.1-5.8-4.1-11-10.3-12.4-5.3-1.2-9.6 1.8-13.1 5.7-5.4 5.9-10.3 12-12.8 20-2.8 9.4-7.6 11.7-18.6 10 .6-4.1.8-8.3 1.8-12.3 7.8-31 24.8-56.5 47.8-78.1 11.6-10.8 18.9-24.1 23.6-38.8 3.5-11 2.5-21.6-5.6-30.9-6.9-7.9-11.8-8.8-19-1.3-5.4 5.8-10.2 12.2-14.2 19.1-5.5 8.6-12.1 14.9-22.4 18.1zm781.4-50.9l-.2-2.3c-1.8-.4-3.8-1.4-5.4-1-4.1 1.2-8.2 2.7-12 4.6-18.6 9.5-38 16.2-59.3 14.8-20.2-1.3-40.6-2.4-60.7-5-35.6-4.6-71.1-3.7-106.7-2-15 .7-30 1.3-44.9 1.4-7 .1-14.4-.2-20.1-4.8-11-8.9-23-16.2-31.1-29-10.4-16.6-12.8-33.9-10.6-52.5.3-3 1.2-5.9 2.6-8.5 11.2-19.6 25.1-37 44.5-48.9 17.6-10.8 35.6-20.9 53.7-30.8 12-6.6 22.3-15.9 30.2-27.2 14.4-20.4 28.3-41.1 43.4-61 9.4-12.4 19.8-24.5 31.4-34.7 16.8-14.7 36.1-26.4 57-34.4 28.2-10.9 57-15.6 87.1-8.9 2.1.5 4.4.6 6.5.9 2.9-10.2 2.1-12-6.5-14.5-2.5-.8-5.2-1.3-7.8-1.4-12.6.2-25.2.6-37.8 1-37 1.3-67.1 19.9-96.7 39.4-6.3 4.3-12.2 9.2-17.7 14.7-22.1 21.5-39.5 46.6-56 72.4-10.5 16.3-21.9 32-38.7 42.5-16.7 10.3-33.4 20.7-50.6 30-12.8 6.9-24.3 15-33.4 26.4-4.1 5.2-8.6 10.2-12.7 15.4-3.5 4.4-8.3 8.5-10 13.6-4.7 13.9-5.9 28.9-3.3 43.4 3.3 19.2 13.6 35.1 27.9 48.2 5.5 4.8 11.3 9.3 17.3 13.5 2.1 1.7 4.5 2.8 7.1 3.3 11.2 1.4 22.4 3.1 33.7 3.3 13 .2 26-1 38.9-2 41.6-3.3 83.1-1.2 124.5 3.3 21.1 2.3 42.5 2.3 63.6-1 19.5-3.1 36.5-11.9 52.8-22.2zm-315-40.1c1.3 7.5 5.4 9.4 10.1 10.4 14.2 3.1 27.4-4.5 32.4-18.3 1.5-4.4 3.4-8.7 5.5-12.8 8.4-16 20.9-25.5 39.8-25 7.3.2 14.6-.2 22-.5 12.2-.4 21.9-5.7 28.6-15.8 5.8-8.5 10.9-17.5 15.3-26.8 7.9-17.3 19.1-28.9 39.6-30 13.2-.7 20.7-11.1 19.8-24.1-.4-5.3-.9-10.6-1.3-15.9-.9-13.4 8.9-25 22.3-27.2 6.9-1 13.7-2.9 20.1-5.5 10-4.4 17.8-11.2 21.4-22.2 2.6-7.8 7.2-14 15.5-17.2 6.1-2.4 11.9-4 18.2-.9 3.2 1.6 7 2.3 8.8-1.3 2-3.9-1-7.4-4.2-9.1-3.3-1.5-6.9-2.3-10.5-2.2-16.6.1-28.4 8.2-36.1 22.5-4.7 8.6-9.3 17.3-19 20.9-6.8 2.6-13.9 4.8-21.1 5.6-6.3.5-12.2 3.7-16.1 8.8-7.4 9.1-12.3 19-10.4 31.2.5 3 .6 6 .9 8.9.9 9.3-3.6 15.5-12.7 16.9-2 .3-4 .2-6 .4-10.6 1.1-19.6 5-26.9 13.4-6.8 7.7-11 16.4-15.2 25.6-8.8 19.2-21.2 33.9-45.1 32.9-5.9-.3-12 .5-17.9 1.1-12.2 1.3-23.6 4.8-30.7 15.9-5.5 8.7-11 17.4-15.6 26.6-5.4 10.7-10.9 14.5-22.6 13.9-2.7-.3-5.3-.2-8.9-.2zm327-193.5c.1-1.3.5-2.1.2-2.6-.7-1.1-1.4-2.4-2.5-2.9-8.3-3.6-16.6-4.6-24.7.9-19.1 12.9-25.2 31.9-24.7 53.7.4 14.5-3.4 19.8-17.7 22.5-6.2 1.2-12.7 1.8-18.5 4-13.2 5-26.2 10.7-30.9 25.8-1.3 4.1-1.7 8.4-2.4 12.7-1.7 9.8-7.3 15.3-17.1 16.7-4.3.6-8.6.5-12.9 1.2-9.4 1.7-18.5 2.6-26.8 9.3-7.8 6.4-11.6 14.5-15 23-2.2 5.7-6.6 10.1-12.3 12.3-4.4 1.6-8.9 2.5-13.6 2.9-9.6 1-19.2 1.5-28.8 2.5-11 1.2-19.1 7.4-25.1 16.4-1.9 2.9-2.7 6.7-3.2 10.2-.5 3.9 1 7.4 5.6 8.2 4.3.7 7.2-1.4 8.2-5.5 2.4-10.5 10.2-14.5 19.4-16.1 9.5-1.7 19.1-2.6 28.7-2.7 15.6-.1 28.9-8.5 33.3-23.6 2.3-7.9 6.6-13.3 13.4-17.8 5.8-3.9 12.5-6.3 19.5-6.8 5-.4 10-.8 14.9-1.5 8-1.2 13.8-6.2 19.6-11.3 4.4-3.8 3.5-9 4.2-13.9.4-2.3 1.1-4.6 1.3-6.9.6-8.6 5.5-14.1 12.8-17.7 4.2-2.1 8.5-3.8 13-5.1 5.8-1.6 11.8-2.1 17.6-3.6 17.4-4.5 25.6-13.1 24.7-31.9-.3-8.6.5-17.3 2.3-25.7 3.5-17.6 15.5-26.5 33.2-26.1 1.5.4 3-.3 4.3-.6zm-7-63.7c.1-1.8.5-3.3.1-3.6-4.8-3.5-9.3-8.3-14.7-9.8-13.7-3.7-27.8-2.8-41.2 1.7-14 4.6-24.8 13.2-31.8 26.9-7.3 14.1-20 19.7-35.9 18-3.6-.5-7.3-.3-10.9.5-16.9 4.3-29.5 12.4-29.8 31-.1 3.3-.5 6.6-.6 9.9-.6 13.8-6.4 24.1-19.5 30-4.8 2.2-9.5 4.8-14 7.7-4.5 2.8-8.9 5.9-12.9 9.3-7.3 6.5-8.7 15.3-8.7 24.6-.1 11.2-3.4 15.5-14.1 18.7-5.1 1.4-10.3 2.4-15.6 3.2-13.1 2.4-26.6 2.8-38.7 9-11.1 5.7-14.8 12.6-13.3 25 1.1 9.6.4 10.6-8.7 15.3-6.5 3.3-12.7 7.1-18.4 11.5-2.4 1.9-3.7 6.1-4.1 9.4-.5 3.7 2.5 5.3 6 3.9 1.5-.7 2.9-1.6 4.2-2.6 6.5-4.5 12.8-9.5 19.6-13.4 13.7-7.8 15.2-9.7 13-25.4-1-6.9 1.4-11.1 7.1-13.6 5.5-2.5 11.2-4.4 17-5.6 9.5-2 19-3.3 28.7-4 14-.9 22.5-9.1 28.6-20.4 1.7-3.2 2.8-8 1.7-11.3-3.4-10.6 1.8-16.5 10-21.2 6.6-3.8 13.7-6.9 20.2-11 10.1-6.3 18.4-14.4 21-26.7 1.5-7.1 3.3-14.4 3.2-21.6-.1-11.8 5.8-17.9 16.3-20.7 4.8-1.3 9.7-2 14.7-1.9 18 .8 31.5-6.5 41.3-21.3 2-3 4.1-6.1 6.3-9 16.3-22.1 37-21.4 60.1-19.7 3 .2 5.7 3.2 8.6 4.7 1.2 1 2.9 1.6 5.2 2.5zm-220.4 288.7c6.4.9 9.3-3.3 13-5.7 6.4-4.1 12.8-8.2 19.5-11.7 5-2.6 10.2-1.9 15.4.2 5.5 2.3 11.1 4.3 16.8 6 7.1 2.1 14.3 1.8 21.6-.2 12.2-3.2 19.2-12.2 23.8-22.6 6.2-14 16.5-23.9 28-33.2 5.1-4.4 12.1-6.1 18.7-4.7 23 4.4 39.2-6.8 41.9-29.3 1.7-14.4 9.4-23.5 22.5-28.8 2.8-1.1 5.2-3.1 8.2-4.9-6.7-6.1-11-7.5-16.9-4.7-4.2 1.9-8.1 4.5-11.6 7.6-7.2 6.6-11.7 15.6-12.6 25.3-.9 8.4-4.1 15.3-12.1 19.3-6.4 3.2-12.8 4.7-20.2 3.2-5-1-11.4-1.8-15.5.3-12.7 6.5-24.9 14.2-32.4 27.1-3.7 6.3-7.4 12.7-11.3 18.8-8.1 12.7-18.6 17.2-33.1 13.9-4.5-1.1-8.9-2.7-13.1-4.7-8.4-3.9-16.6-4.5-24.6.8-6 4.1-12.3 8-17.8 12.7-4.3 3.7-8.1 8.1-8.2 15.3zM2601.9 839c-8.4-13.4-14.7-39.7-12.7-53.3.7-5.6 1.9-11.2 3.6-16.5 1.1-3.1 3.3-5.7 6.1-7.4 8.6-5 17.5-9.6 26.6-13.7 11.5-5 21.2-12.5 30.6-20.3 7.8-6.5 11.1-15.7 13.4-25.1.8-3.2-.3-6.9-.5-10.3l-2.2-1c-2.2 2.1-4.8 3.9-6.6 6.3-1.9 2.7-3.7 5.6-5.2 8.5-9.6 17.2-24.7 28.2-41.4 37.4-3.8 2.1-7.7 3.7-11.5 5.6-4.1 2-7.9 4.9-12.2 5.9-3.9.9-5.6 2.8-7.1 6-5.1 10.8-7.4 22-5.9 33.9 2.5 20 7.4 39.1 16.2 57.3 3.7 7.8 7.9 8.9 14.7 3.5 1.5-1.3 2.9-2.7 4.2-4.2 17.4-17.8 34.8-35.6 52.3-53.4 3.8-3.8 7.1-7.7 6.5-13.5-6.7-2.9-11.1-.3-15.3 4.3-11.8 13.1-23.8 26-35.7 38.9-4.8 5.2-10.3 9.2-17.9 11.1zm53 171.2c-2.7-5.5-4.8-10.7-7.7-15.4-12.8-20.8-16.7-44.6-22.1-67.8-1-4.1-.3-7.8 3-11 18.2-18.1 28.9-41.4 43.1-62.2 4-5.9 3.6-13.2.7-19.1-3.3 5-6.7 9.9-9.9 14.9-5.5 8.7-10.7 17.6-16.4 26.2-8.8 13.2-16.2 27.6-29.4 37.4-5.1 3.8-6.5 8.8-6 14.9 2.1 22.9 10.2 43.8 20.8 64 4 7.6 7.7 15.4 11.1 23.3s8.8 9.9 15.6 4.6c7.4-5.8 14-12.3 16.6-21.9.6-2 1.9-3.9 3-6.1l4.2 3.9-2.2-5.4c.4-.6.6-1.3.7-2 0-.9-.2-1.8-.7-2.6-7.4-4.3-9.4-3.8-11.7 3.3-1 3.2-1.9 6.4-2.6 9.7-.9 5-3.6 8.4-10.1 11.3zm-10.4 638.7c17.9-2.5 25.6-6.9 26.7-22.9 1.2-17.4 1.7-18.2 18.9-24.2.3 0 .6-.1.9-.3 1-1.2 2.6-2.4 2.6-3.7-.2-1.6-1.1-2.9-2.5-3.7-4.4-1.6-9.1-2.3-13.4.5-8.6 5.6-15.4 12.1-15.7 23.7-.2 11.3-5.1 16.1-16.4 17.5-3.9.4-7.9.3-11.8-.4-12-2.2-21.8 1.2-28.6 11.3-2.7 4-4.2 9-5.9 13.6-1.1 3.1-1.9 7 2.5 8.3 4.2 1.3 7-.9 8.2-5.1.3-1 .6-1.9 1-2.8 4.1-9.7 9.6-13.4 20-13.1 4.5.2 8.8.8 13.5 1.3zm-778-256.2c.3-7.8-1.2-11-5.6-13.1-4-1.9-8.4-3.1-12.2.2-7.1 6.2-11.2 13.9-10.1 23.6 1.1 9 7.6 12.2 15.8 8.1s11.2-11.8 12.1-18.8zM140.1 1878.2l-1.1-1.7-8 5 .9 1.4 8.2-4.7z"/><path fill="#FFC107" stroke="#FFC107" stroke-miterlimit="10" d="M164.7 1868.9l-.8-3.6c-.5-.3-1.2-.5-1.8-.5-11.7 3.8-23.4 7.4-35 11.5-3.6 1.3-7.6 3.3-10 6.2-5.5 6.7-12.9 10.4-20.2 14.3-23.2 12.2-46.4 24.6-69.8 36.5-7.8 4-15.2 9.7-24.8 10.1-3.2-4.6-1.6-8.4 1.5-11.8 2.5-2.7 5.3-5.1 8.3-7.2 19.9-13.9 40.5-26.7 62.9-36.3 7.1-2.9 13.8-6.6 20.1-11 20.1-14.6 43.1-22.2 66.4-29.1 17.2-5.1 35-8.1 52.4-12.6 41.8-10.9 84.6-17.8 126.1-30.4 37.3-11.3 75.6-18 114.3-23.2 17.1-2.3 33.8-7.5 50.8-10.8 31-6.1 62-12.5 93.2-17.3 26.3-4 52.9-5.5 79.6-5.7 25.6-.2 51.2-2.3 76.8-3 20.3-.6 40.5-.3 60.8-.4 3.7 0 7.3.2 10.9-.1 26.5-2.1 53.1-2.7 79.7-.3 14.5 1.3 29.2.6 43.9.8 21.6.3 43.3.4 64.9.8 23.3.5 46.6 1.2 69.9 2 9 .3 17.9.8 26.8 1.4 1.7.1 3.3.5 4.7 1.3 10.2 5.7 20.4 4.2 30.7.2 1.2-.4 2.8-1.3 3.6-.9 5.1 3 10 .6 14.4-1.2 8-3.4 16.6-5 25.3-4.9 1.3 0 2.7-.2 4-.3 17.5-1.5 17.9-1.8 22-18.4 4.1-16.3 11.4-31.2 20.7-45.1.7-1.1 1.3-2.3 1.8-3.5.1-.7.1-1.3-.1-2-3-1-6.3-1.5-8.9-3.2-7.8-5.3-10.2-15.7-5.4-23.8 6-10.8 14.2-20.2 24.1-27.6 7.2-5.3 13.9-11.2 22.6-18.3-3.8-.5-6-1.5-7.6-1-15.3 5.3-29.4 12.3-39.2 26.1-6.8 9.6-15.3 17.8-26.6 22-4.5 1.7-9.8 3-14.4 2.3-10.9-1.7-15.2-7.7-14.7-18.9.4-10.4 5-19.1 11.2-27.2 9.2-12.2 18.3-24.4 27.1-37 4.7-6.7 9.6-12.8 16.9-16.7 1.3-.7 2.3-2.1 4.1-3.8-4.5-3.4-8.9-2-12.7-1.1-14.3 3.5-25 12-32 25.1-2.1 4.1-4.4 8.1-7 12-4.2 6.1-10.4 9.3-17.6 10.3-6.4.8-10.7-2-11.3-8.4-1-11.2-2.3-22.7 5.5-32.6.4-.5.7-1.1 1-1.7 18.7-36.7 52.2-46.6 89.5-49.2 7.6-.5 15.3.7 22.9 1.4s13.9 4.1 19.7 9c10.1 8.7 20.3 17.2 30.3 26 4.2 4 10.1 5.5 15.7 4 14-3.3 27.6-1.1 41.4 1.7 14.1 2.8 28.4 2.3 41-7 7.9-6 16.3-11.5 25-16.3 14.5-7.8 30.9-7 46.7-9.3 16-2.3 31 .8 45.8 6.9 9.3 3.8 17.3 10.1 23.3 18.2 7.9 10.6 8 23.3 5 35.4-2.8 11.5-13.8 15.1-23.7 8.3-21.8-14.9-46.1-17.7-71.5-15.5-5.3.5-10.6.8-15.9 1.1-4.6.3-8.1 2.3-11.3 7.7 5.1.9 9.1 2.1 13.2 2.2 10.6.3 21.4-1 31.9.3 9.5 1.2 18.9 3.7 27.7 7.4 20.3 8.7 35.9 23.8 49.6 40.7 2.4 3.2 4.3 6.7 5.7 10.5 2.7 6.5 1.2 13.6-4.4 18.1-14.7 11.8-24.8 14.5-40.1 2.5-7.3-5.7-14.3-11.9-21.6-17.7-10.7-8.4-21-17.6-35.3-19.7-1.6-.2-3.2-.3-6.9-.6 2.9 2.7 4.2 4 5.7 5.1 15.4 11.1 27.5 25 35.6 42.2 2.2 4.8 5.9 6 10.6 5.5 5.6-.6 11.2-1.5 16.8-2.3 18.4-2.8 37-4.6 55.1-8.7 20.7-4.8 41-11.6 61.4-17.6 10.5-3.1 21-6.5 31.5-9.5 2.6-.7 5.2-1 7.8-1 25-.2 48.6-6.3 71.5-16.3 23.8-10.3 48.3-18.9 72.1-29.1 15.6-6.7 30.5-14.8 45.4-22.8 2.6-1.4 8.1-6.7 9.9-4.7 14.6-8.2 29.4-16.3 44.1-24.7 4.1-2.3 6.8-11.1 5-15.9-12.3-33.7-24.6-67.5-37.3-101.1-2.7-7-7.1-13.4-10.6-20.1-4-7.6-7.9-15.3-11.8-22.9-1-2.1-2.2-4.1-3.5-6.1-4.7-6.3-8.7-7.3-15.4-3.3-9.8 6-15.3 13.7-17.1 26.2-3.3 22.8 2.2 44.3 5.6 66.2 2.7 17.4 4.5 34.9 7.5 52.2 1.5 8.7 5 17.1 7.2 25.7 2.1 8.2.1 10.9 2.7 15.6 4.8 8.9 14 11.1 13.2 15.8-.4 2.1-2.5 3.5-4 4-5.8 1.9-14-6-17.5-13.7-.9-1.7-1.5-3.5-1.8-5.4-.2-18.4-9.2-34.3-14.7-51.2-.8-2.5-2.5-4.8-2.9-7.4-2.6-14-4.7-28.2-7.3-42.2-.9-4.9-2.8-9.6-3.8-14.5-3.2-16.4-3.7-33.1-2.6-49.7.8-11.8 5.9-21.8 16.2-28.4 6.7-4.3 13.7-8.2 20.6-12.1 4.1-2.3 8.8-2.4 12.4.3 5.2 4 10.4 8.5 14.1 13.8 4.4 6.5 6.9 14.3 10.6 21.3 4.2 7.9 9 15.5 13.4 23.3 2.5 4.5 4.6 9.2 7.9 15.7 1.9-5.4 2.6-11.1 2-16.7-1.8-28.3.3-56.6 2-84.8 1.5-25.6 2.5-51.1 6.1-76.5 1.2-8.2 1.3-17.8 10.7-21.1 17.3-6 34.9-12.5 52.3.2 1.1.8 2.1 1.5 3.6 2.6 5.6-7.1 4.7-15.1 4.4-22.9-.5-11.9-1.1-23.8-1.8-35.7-.2-3.7-.6-7.3-1.3-10.9-4.1-19.5-3.5-39.1-.4-58.6 2.3-14.7 11.6-22.9 26.7-25.2 5.3-.8 10.4-2.2 15.7-2.7 10.8-1.1 19.5 2.8 26 11.6 8.1 10.9 13.9 22.8 13.7 36.7-.2 14.6-1.3 29.3-1 43.9.2 14 1.7 27.9 2.6 41.8.9 14.3 1.5 28.5 2.7 42.8 1 11.9 2.9 23.8 4.1 35.7.6 5.8.7 11.6 2.3 17.9.8-1.8 2.1-3.7 2.3-5.6 3.2-31.4 6-62.9 9.6-94.3 1.4-12.2 4.4-24.2 7.1-36.2 2.7-12.4 13-21.6 25.6-22.9 10.4-.9 20.8.9 30.2 5.3 9.3 4.2 14.9 15.1 13.8 25.4-.3 1.6-.5 3.3-.5 4.9 2.1 21.4-1.3 42.5-4 63.6-.7 5.2.1 10.6-.2 15.8-.3 5.9-1.4 11.8-1.6 17.8-.1 3.5.8 7 1.4 12.1 5.1-2 9-3.3 12.8-5.1 14.5-7 29.5-12.1 45.5-14.1 3.3-.5 6.6-.4 9.9.3 5.8 1.6 8.3 7 7 14.7-2.4 13.4-5.6 26.8-7.4 40.3-2.5 18-4 36.1-6.1 55.3 3.6-.4 6-.2 7.8-1 26.7-12 53.4-24.2 80.1-36 5.8-2.5 7.8-6.3 8-12.3.5-13.6-2.8-26.6-6.7-39.1-8.1-26.4-19.8-51.5-32.7-75.9-7.1-13.5-16.8-25.6-23.1-39.4-8.4-18.5-21.1-33.8-32.3-50.3-4.3-6-9.1-11.5-14.4-16.5-8.9-8.6-15.6-18.8-22.9-28.7-4.6-6.1-9.8-11.7-14.9-17.4-14.9-16.6-30.9-32.2-44.5-49.8-23.1-30-47.4-59.6-62.4-94.8-9.5-22.2-16.4-45.2-18.7-69.8-2.1-22.9-2.9-45.7-3.2-68.6-.1-12.3.6-24.5.4-36.8-.3-22.2 1.1-44.6-4.5-66.5-5.1-20.3-12.9-39.8-23.3-58-3.5-6-8.6-11-13-16.5-1-1.2-1.8-2.6-2.9-4.2 3.5-4.2 7.9-4.2 12.1-3.8 2.6.2 5.6.8 7.5 2.4 16.9 13.4 37.7 18 57.2 25.3 24.4 9.1 43.4 25.7 61.9 43 5 4.7 8.7 10.9 12.6 16.7 13.1 20 27.2 39.6 33.1 63.4 2 8.4 3.5 16.9 4.4 25.5 1.6 14.2 2.7 28.5 4.1 42.7 1.4 13.8 2.6 27.7 4.3 41.5.8 6.2 2.4 12.4 3.7 18.6 4.1 19.9 8.1 39.8 18.6 57.6 9.1 15.5 20.5 29.4 31.5 43.5 3.7 4.7 6.8 9.8 10.5 14.5 6.5 8.4 13.2 16.7 19.9 24.9.5.6 1.7.7 4 1.6.2-4.4.9-8.3.3-12-2.4-15.1-5.4-30.1-7.6-45.2-2.5-16.8-4.2-33.6-6.7-50.4-1.2-7.9-3.8-15.5-5-23.4-1.1-7.5-.8-15.3-1.9-22.8-4.4-30.3-9.8-60.4-13.4-90.8-4.4-37.3-7.6-74.9-10.9-112.3-.5-5.5.7-11.3 2.1-16.8 5.8-22.9 10.8-46.1 18.5-68.4 4.4-12.5 13.4-23.6 20.6-35 13.7-21.5 33.3-38 49.3-57.6 10-12.3 20.9-24.1 29.1-39.3-2.9-.8-4.8-1.7-6.8-1.8-12.6-.5-25.3-.4-37.9-1.3-21-1.5-41.4-7.9-59.6-18.5-14.5-8.4-21.6-24.8-18.3-39.9s17.1-23.2 31.8-19c18.5 5.2 35.3 13.4 49.7 26.6 13.3 12.2 29.3 13.1 45.8 8.3 8.9-2.6 16.5-14.2 14.8-23.4-1.3-7.1-3.9-14-6.5-20.8-2.1-5.5-5-10.6-7.6-16.1 6.5-4.4 12.2-4.1 17.7-.9 10.1 5.8 19.9 11.9 29.8 17.9 2.7 1.7 5.5 3.3 8.4 5.1 4.8-14.7-9.2-48.9-23.5-60.1-32.5 4.2-64.2 10.5-96.6 6.6-27-3.2-51.4-13.4-73.6-28.9-6.5-4.5-13.4-8.7-19.8-13.4-9.9-7.2-19.9-14.5-29.4-22.2-13.8-11.2-12.2-29.6-3.2-41.2 14.2-18.2 28.2-21.9 50.1-14 12.8 4.6 21.2 14.4 30.6 23.1s18.9 17 32.4 18c1.3.1 2.6 0 4.7 0-.4-2.3-1-4.6-1.7-6.9-15.1-39.9-1.3-74.5 30.2-97.6 8.6-6.3 18.8-8.6 29.3-8.3 7.4.2 12.1 5 15 11.5 3.5 8 4.1 16.9 1.8 25.4-.7 3.3-1.6 6.5-2.7 9.6-6.4 17.3-2.1 33.8 5.6 49.1 3.7 7.3 11.4 12.7 18.9 20.7 0-4.8.4-7.3-.1-9.6-2.6-12-6-23.9-7.8-36.1-1-7.9-.8-15.9.6-23.7 2.4-15.1 6.3-30 8.8-45.1 3.6-21.6.2-42.3-9-62.2-3.4-7.4-5.4-15.6-7.3-23.7-1.4-6.2 2.3-10.8 7-14.5 18.1-14.6 45.5-11.1 56.8 3.9 5 6.6 11.2 12.3 16.8 18.5 5.3 5.9 7.9 12.7 8.9 20.7 2 16.7-.6 32.5-8.1 47.4-6.5 13-9.3 26.9-10.3 41.3-.4 7-1.5 13.9-1.9 20.9-.4 8.6.5 11.9 4.9 21.5 5.1-1.8 6.1-6.3 7.6-10.6 4.4-13 10.2-25.2 19.9-35.3 13.1-13.7 25.1-28.5 35.7-44.2 5.8-8.6 6.2-16.4 1-25-.5-.9-1.1-1.7-1.6-2.5-5-8.6-2.3-15.9 7.6-16 11.1-.2 23.1.5 33.3 4.5 16.3 6.5 23.2 21 24.1 38.4 1.1 19.6-9.4 34.7-19.8 49.7-6.8 9.8-15 18.8-21.5 28.7-3.1 4.7-4 10.9-4.9 17.1 9.6-2.5 16.3-8.8 22.8-15 7.1-6.8 11.1-15.7 14.1-25 2.2-7 4.2-14 6.3-21 3.7-12.3 10.7-16.6 25.3-15.6 12.2.8 20.7 7.9 23 18.4 4 18.3 2.1 35.7-7.4 52-5 8.6-8.8 18-14.9 25.7-6.7 8.5-15.2 15.6-23.4 22.8-16 14-32.9 27-48.2 41.7-7.2 7-12.1 16.6-17.3 25.4-3.4 5.7-6.7 11.8-8.2 18.1-2.5 10.3-2.4 21 1.7 31 1.6 3.9 4.4 7.3 7.2 11.9 4.4-1.9 9.1-3.5 13.3-5.8 13.9-7.4 25.8-18.1 34.8-31 6-8.8 8.5-20.1 11.4-30.6 4.1-14.4 14.9-24.1 29.8-25 14.4-.9 24.9 8.4 28.2 22.3 5.1 21.5-4.7 37.7-17.1 52.9-6.6 8.2-14.9 15.2-23.2 21.8-13.9 11-25.5 24.5-34.2 40-8.4 15.3-14.8 31.9-20.6 48.4-3.6 10.2-5.3 21.2-6.8 32-.9 6.5.9 13.3.6 19.9-.7 14.7 0 29.3 4.1 43.4 2.9 9.8 6.1 19.6 9.8 29.2 1.9 5 5.7 5.3 8.9.5 8.8-13.3 18.3-26.3 25.5-40.5 7.6-14.9 6.7-30-5.1-43.6-7.4-8.5-13.3-18.2-19.8-27.4-.9-1.3-2.3-3-2.2-4.4.7-8.9.4-18.2 2.9-26.6 2.2-7.5 8.1-13.3 14.8-18.3 11-8.3 23.8-9.7 36.6-11.8 3.2-.5 6.7.1 9.9.8 10.1 2.1 13.9 6.6 14.9 17 .4 4.8-.4 9.8 2.8 14.4 1.4 2 .7 5.9.1 8.7-3.1 15.5 4.3 27.8 11.7 40 1.5 2.2 3.1 4.3 4.8 6.4 12.4 16.1 15.2 34 7.8 52.7-5.4 13.4-9.5 27.9-20.3 38.5-15.2 15-30.6 29.6-49.1 40.7-6.3 3.8-12.3 8-18.3 12.2s-6.5 6.3-3.7 13.5c2.6 6.8 4.9 13.7 7.4 20.5.3 1 .7 1.9 1.3 2.6 5.5 5.3 7.9 12.2 9.6 19.4.2.9 1.1 1.5 2.6 3.4 4-2.6 8-5.2 11.9-7.9 5.7-4 11.3-8.1 17-12.2 7-5 14.4-9.7 18.6-17.8.5-.9 1.1-1.7 1.8-2.4 9.8-10.5 18.4-21.8 24.8-34.7 1.1-2.2 2.9-3.9 4.9-6.5 6.6 13.8 3.3 24.3-5.1 34.7-14.8 18.2-31.4 34.2-51.7 46.4-7.6 4.6-14.1 11.2-21 16.8-3.3 2.7-6.5 6-11.8 4.5-3.9-5.5 1.1-9.7 3-15.3-13.4-4.4-13.9-17.6-19-27.6-4.8-9.4-8.2-19.4-12.4-29.7 6-9.9 16-16.7 26.2-22.8 14.8-9 28.4-19.8 40.5-32.1 6.6-6.5 14.4-11.9 18-21 3.8-9.5 8.9-18.8 11.1-28.6 3.9-17.2-.7-33.3-11.8-46.8-15.3-18.6-17.5-39.7-13.9-62.2 1.7-10.3-3.7-20.7-17.8-17.2-19.9 5-31.5 16.1-33 33.7-.8 9.2 1.9 16.8 8.1 23.8 6.9 7.7 13.1 15.9 19.6 24 1.2 1.5 2.8 3.4 2.9 5.1.7 14.7 3.1 29.1-5.4 43.5-7.8 13.2-17.1 25.2-25.2 38-3.7 5.8-9 10.6-13.8 15.7-6.2 6.5-12.9 5.8-16.7-2.4-4.6-9.9-8.1-20.3-12.2-30.5-5.4-13.3-9.7-26.8-8.2-41.5.1-.7 0-1.3-.3-2-6.8-10.9-3.5-23.3-5-35-.3-2.3-.1-4.7.5-6.9 3.1-12.6 5.7-25.4 9.8-37.7 6.3-19 15.6-36.8 27.6-52.9 4.1-5.6 8.4-11.1 12.6-16.7.3-.5.6-1 1-1.4 7.5-5.2 14.7-10.8 22.6-15.3 4.2-2.4 7.6-4.9 9.9-9.2 5.3-9.6 11.4-18.8 16.5-28.5 5.4-10.1 4-20.8.8-31.1-.9-3.1-4.1-7.4-6.5-7.6-3.3-.2-8 2.1-9.9 4.9-3.5 5-4.1 10.1-4.6 13.9-.8 6.2-3.4 15-11.9 25.5-3 2.5-5.6 5.4-7.8 8.6-.9 1.4-2.6 2.5-4 4.7-.9 1.4-3.3 2.2-5.1 2.8-5.4 1.8-9.1 5-11 10.6-.9 2.5-3.3 5-5.6 6.6-8 5.4-16.2 10.6-24.4 15.5-11.2 6.7-19.4 4.1-24.8-7.9-4.3-9.7-9.9-19.1-10.2-30-.2-6.2 0-12.8 1.9-18.6 8.4-25.2 23.6-46 44.1-62.9 13.3-11 26.6-22 40.3-32.5 16.8-13 26-30.8 33.1-50 4.8-12.6 5.3-26.3 1.6-39.2-.9-3.2-1.4-7.6-5.5-7.2-3.2.6-5.9 2.6-7.4 5.4-3 7-4.7 14.5-7.2 21.7-5.8 16.1-13.5 30.9-28.9 40.4-8.8 5.4-16.8 12-25.4 17.7-2.7 1.8-5.9 2.9-9.2 3.2-8.5.4-12.5-4-11.1-12.3 2.5-15.6 6.8-30.3 17.2-43 8.2-9.7 15.4-20.1 21.7-31.1 7.4-13.4 13.4-27.6 8.4-43.8-3.6-11.7-11.5-19.8-21.6-20.7-1.5-.1-3.2.5-5.4.9.6 2.3.8 4.2 1.7 5.8 6.5 10.8 4.6 21.3-1.8 31.1-8.4 12.8-17.1 25.3-28.3 36-15.2 14.5-25.8 32.2-30.3 52.9-1.2 5.5-1.3 11.2-1.4 16.9-.1 9 .2 17.9.4 26.9.1 3.8.1 7.5-4.9 8.4-5.8 1.1-12.3-1.3-13.8-5.2-4.3-11.5-8.8-22.9-12.9-34.4-6.3-17.8-8.9-35.8-6.1-54.9 2.4-16.4 6.6-32.6 12.4-48.1 3.2-8.8 4.9-18 5.1-27.3.3-12.9-3.8-24.9-13.4-34.4-5.2-5.1-9.6-11.1-15-16-6.5-6-15.3-8.6-24-7.2-3.9.6-6.2 2.8-5.8 6.8s.7 8.2 2.4 11.6c7.3 14.5 10.4 30.3 12.7 45.9 1.4 9.9-.4 20.5-1.8 30.7-2.6 19.4-6.9 38.7-8.5 58.2-.8 9.6 2.3 19.7 4.7 29.4 3.6 14.5 6.6 29.2 14.3 42.4 2.2 3.7 2.6 7.4-.9 10.9s-7.7 6.3-12.4 4c-9.7-4.8-20.4-8.2-27.3-17.6-2.6-3.5-6-6.2-8.6-9.7-4-5.2-8.3-10.4-11.2-16.2-8.8-17.4-10.1-35.4-3.9-54.2 2.2-6.7 2.1-14.4 1.8-21.6-.2-7.2-5.4-11.3-12.7-11-6.7.1-13.2 2.6-18.2 7.1-24.5 22.4-28.8 60.2-9.1 85 1.1 1.3 2.1 2.6 3 4 3.9 6 3.7 7-1.2 12-7.6 7.7-15.9 10.3-27.1 8.5-19.4-3.1-35-11.8-47.6-26.6-3.9-4.5-8.2-8.8-12.7-12.8-9.1-8.2-20.2-10-31.7-8.7-9.2 1.1-15 11.3-12.4 20.5 2.4 8.3 7.6 14.9 14.3 20 6.9 5.2 14.4 9.6 21.5 14.4 11.6 7.8 23 16 34.9 23.3 18.2 11.2 38.1 16.5 59.5 18.4 22.2 2 43.9-.7 65.6-4 17.7-2.7 34.1 4.5 43.1 20.1 4.5 7.8 9.8 15.1 13.4 23.2 3 6.9 4.8 14.5 6 22 1.3 7.8-.4 14.8-10.7 16.9 4 5.6 8.4 10 10.8 15.3 9 20.4 17.1 41.2 15.8 64.2-1 17.6-1.7 35.2-2.7 52.8-.6 10.4 1.2 20.3 3.9 30.3 2.7 10.6 4.7 21.4 6.1 32.2.4 3.1-1.2 6.4-2 9.7-.9 3.9-2.5 7.8-2.5 11.6-.1 8.4-2.7 17.6 6.3 23.5-5.4 8.9-13.1 11.6-21.5 12.9-5.9.9-11.9 1-17.9 1.6-9.6.9-17.8 8.7-18.4 17.8-.4 5.8 3.9 9.2 8 11.8 6.2 3.9 12.6 7.4 19.3 10.5 17.7 8.7 36.5 9.3 55.6 7.4 11.5-1.2 14.4.9 19.3 10.7 7.1 14.2 10.3 29.3 13 44.7 1.4 7.8 4.1 15.5 6.8 23 1.8 5.1.5 8.5-4.1 10.7-20.2 9.5-39.6 20.8-61.2 26.8-16.8 4.7-30.4 0-40.1-14.2-2.6-3.9-3.8-9.1-4.7-13.8-1.3-7.2-1.6-14.5-2.7-21.8-.4-2.7-1.7-5.3-3.3-10.2-4.1 4.8-7.9 7.5-9.2 11.1-4.4 11.8-9.3 23.5-8.2 36.6 1.1 13.7 4.9 26.1 15.7 35.5.5.4.9 1 1.4 1.4 19.6 17.5 24.6 18.9 50.6 14.5 6.6-1.1 13.2-2.7 19.8-2.8 12.5-.2 21.6-6 28.1-16.1 8-12.4 19.1-21.1 31.6-28.3 3.1-1.8 6-3.5 9.1-.8s1.8 6.4 0 9.1c-4.6 6.6-4.3 13.9-3.3 21.2 1.4 10.1 3.6 20.2 4.9 30.3 1.9 15.1 2.8 30.4 5.1 45.5 1.7 11.1 4.8 22 7.3 32.9 1.6 6.8 3.5 13.5 4.8 20.4 2.1 11.1 3.8 22.2 5.8 33.3.8 4.2 2 8.4 3 12.6 1.2 4.8 3.1 9.5 3.3 14.4 1.1 21.5 2.4 42.9.4 64.5-1.3 14-2.5 27.9-6.7 41.1s-7.3 27-17.6 37.6c-2.8 2.9-4.4 7.1-7.9 12.9 7.4-1.4 12.5-2.1 17.5-3.3 7.8-1.9 9.1-.6 14 5.5 8.1 10.1 12.1 21.8 16 33.8 2.9 9 7.4 17.5 11.6 27.4 18.4-10.3 36.6-18.8 53.1-31.8-7.6-5.4-9.7-12.4-10.4-20.3-.5-6.6-1.6-13.2-3.4-19.6-1.7-5.1-.9-10.7 2.1-15.1 7.2-11.5 14.2-23 22.2-34.2 2.2 7 2.2 13.7-1.6 19.8-2.6 4.6-5.6 9-9.1 13.1-3.9 4.3-4.1 8.3-2.6 13.7 2.4 9 4.1 18.2 5.6 27.4.7 4.1 1.9 7.3 5.1 10.3 6.4 5.9 5.9 12.2-.9 17.6-21.9 17.4-46.5 29.4-72.6 39-26.6 9.7-53.6 18-79.6 29.2-16.8 7.2-34.5 12.1-51.7 18.4-8.7 3.2-17.2 7.2-25.7 10.9-13.1 5.8-26.3 11.3-39.2 17.5-7.4 3.6-14.2 8.6-21.5 12.6-5.5 3.1-11.3 5.6-18.2 9-.1 2.6-.9 6.5-.5 10.3 2.7 26.4 5.7 52.8 8.4 79.3.7 6.6.1 13.3.7 19.9.8 9.3 1.8 18.5 3.1 27.7.8 5.7-.8 9.6-5.6 12.7-7 4.5-13.6 9.6-20.7 13.9-8.7 5.3-18.6 5.1-28.1 3.2-9.2-1.8-10.4-4.7-8.3-14 .7-3.3 1.1-6.6 1.3-9.9 1-19.3 1.6-38.6 2.8-57.8.7-11.6 2.8-23.1 3.3-34.7.4-8.8-.9-17.6-1.5-27.8-7.9 3.6-14.1 6.4-20.4 9.1-6.1 2.6-12.4 4.9-18.4 7.6-14.6 6.6-29.1 13.3-43.6 20-1.5.7-3.1 1.3-4.5 2.1-16.5 8.6-33 17-49.4 25.9-8.8 4.8-17.8 9.5-25.6 15.5-14.8 11.4-32 17.6-48.8 24.8-16.5 7.1-33.3 13.4-49.3 21.5-14.8 7.5-28.4 17.2-42.9 25.3-18.9 10.5-35.8 24.3-56.2 32.1-3.3 1.3-6.2 3.9-9.3 5.7-5.4 3.2-10.9 6.4-16.5 9.4-7.6 4.1-15.7 7.2-22.7 12.1-6.7 4.6-13.8 7.8-21.1 11-11.9 5.2-23.2 11.6-34.9 17.3-13.4 6.6-26.7 13.6-40.4 19.3-18.7 7.8-37.8 14.9-56.9 21.6-10.9 3.9-22.3 6.4-33.5 9.6-12.8 3.7-25.4 7.6-38.3 11.1-8 2.2-16.2 3.8-24.2 5.7-26.6 6.1-53.3 11.9-79.7 18.5-17.7 4.4-35.6 4.8-53.5 5.9-7.6.5-15.2 1.6-23.2 2.5-1.3 3.1-2.5 6.2-3.8 9.1-4.2 9-11.1 11-19.5 5.5-4.8-3.2-9.2-6.8-16.5-4.8.4 6.4.1 13 1.5 19.3 3.1 13.8-.2 27.1-1.3 40.6-.3 3.3-.8 6.6-1.1 9.9-1.2 13.7 2.2 25.8 12.7 35.1 6.6 5.9 7.8 13.1 7.8 21.6.1 16.1-4.6 30.1-15.4 42-.8.9-1.1 2.3-1.9 3.9 4.1 3 8.1 5.9 12.1 8.8 1.3 1 2.9 1.7 4.1 2.8 7.3 6.4 6.6 10.3-2.5 15.2-21-13.3-43.4-15.2-67.1-9.2-12.9 3.3-25.9 6-38.9 9-18.8 4.3-37.6 8.9-56.5 12.9-11.5 2.4-22.7 2.3-34.3-2-13.9-5.3-28.6-8.6-43-12.8-4.5-1.3-9.1-2.3-13.4-4-19.7-7.7-39.1-5.8-58.4 1.5-5.3 2-10.9 3.4-15.9 6-9.1 4.7-17.9 10.1-26.7 15.4-3.9 2.3-7.6 4.9-11.4 7.4-4.5-7.4-4.6-13.8 1.1-18.7 7.3-6.3 15.2-11.8 23.6-16.4 8.7-4.8 8.9-4.2 8.3-14.2-1.3-19.7-1.6-39.2 8.1-57.5 3-5.7 6.1-10.9 11.2-15 11.4-9.2 22-19.4 36.3-24.4 2-.7 4-3.7 4.4-6 .9-4.4.6-9.1.9-14.1-2.3 0-3.7-.3-4.8 0-23.2 8.2-47.5 9.9-71.6 13-26.8 3.4-53.2-1.3-79.7-3.6-30.2-2.5-60.3-4.8-90.8-3.5-22.6 1-45.3-1.1-67.9-1.3-23.9-.3-47.9 0-71.8 0-16 0-32-.2-47.9.2-20.3.6-40.6 1.7-60.9 2.7-25.3 1.2-50.6 2.4-75.8 4-9.6.6-19.2 2.2-28.7 3.5-6.9.9-13.8 2-20.7 3.1-19.4 3.2-38.8 6-58.1 9.7-44.5 8.4-89 16.8-133.3 26-23.4 4.9-46.6 11.3-69.7 17.5-20.9 5.6-41.5 12.1-62.4 17.7-15.7 4.2-18.8 4-34.1 7.5-18.1 4.3-41.8 10.4-70.8 19.8zM2400.6 436.1c8.4 3.5 6.1 10.1 5.4 15.5-.8 6.6-2.5 13.1-3.9 19.6-4.6 22-10.9 43.4-23 62.5-16.5 26.2-33.8 51.9-42.3 82.1-2.9 10.2-6.9 20.4-8.1 30.8-2.1 17.1-2.3 34.5-3.3 51.8-.6 10.3-1.1 20.6-1.7 30.9-.7 10.9-1.9 21.9-2 32.8-.3 23.3-.3 46.6.2 69.9.3 14 .2 28.2 2.7 41.8 4.9 26.5 11.9 52.6 17.4 78.9 4.1 19.5 7.4 39.3 11 58.9 1.4 7.5 3.1 15 3.9 22.6 1.5 14.2 2 28.6 4 42.7 1.5 11 2.5 21.8.7 32.8-.6 3.6-1.1 7.4-.5 10.9 2.2 12.6 1.8 25.2 1 37.8-.3 5.1-.7 10.4 2.6 15.4 8.9-18.7 11.2-38.3 10.5-57.8-.9-24.9-4.1-49.7-6.5-74.4-1.1-11.6-3.1-23.1-4-34.7-1.8-23.5-1.6-47.1-6.6-70.3-3.1-14-4.6-28.3-7.4-42.3-6.1-29.8-7.3-60.1-7.2-90.3.2-15.6 1.4-31.2 3.6-46.6 5-35.5 20-67.4 36.2-98.8 7.8-15.1 15.7-30.1 22.6-45.6 4.6-10.3 6.8-21.7 11.7-31.8 14.4-30.1 21.1-62.3 27.4-94.7.3-1.3.4-2.7.5-4-.2-14.3-.1-28.6-.8-42.8-1.5-30.7-11.8-57.7-34.1-79.6-4.7-4.6-9.2-9.4-16.6-12 .2 2.8 0 4.8.6 6.5 6.6 18.6 7.7 37-.9 55.4-.7 1.5-.7 3.3-1.4 4.8-4.3 8.9-7.9 18.3-13.3 26.6-7.4 11.1-15.3 21.7-23.9 31.9-9.9 12.1-19.7 24.3-30.9 35.1-11.9 11.4-20.5 25.2-30.4 38-3.8 5-6.9 10.6-9.2 16.5-6.3 16.1-12.2 32.3-17.8 48.7-2.3 7-3.9 14.1-4.9 21.4-3.8 25.6.1 51.2 1.2 76.7.2 4.6 2.2 9 2.9 13.6.9 5.5 2.4 11.3 1.6 16.7-1.1 7.8.1 15.2 1.4 22.7 2.7 15.7 5.2 31.4 7.5 47.1 2 13.4 3.4 26.9 5.4 40.3 1.1 7.9 3.8 15.6 4 23.5.3 10.1 5.7 19.9 1.7 30.2-.3.8.3 1.9.6 2.8 5.1 14.7 6.7 30.1 9 45.4.5 3.3-.3 7 1 9.8 3.9 8.8 4.1 18.1 5.2 27.3 1.9 15.1 3.5 30.2 8.9 44.7 4.7 12.7 8.4 25.9 12.3 38.9 2.8 9.2 6.2 18.4 7.7 27.9 3 18.7 4.8 37.6 7.1 56.4.3 2 .4 4 .1 6-2.9 16.1-2.2 32.4-2.5 48.6 0 2.1.2 4.2.4 6.3 1.9-1.4 3.2-3.6 3.5-6 1.2-16.9 2.3-33.8 3.4-50.7.3-5 .4-10 .6-14.9.3-6.3 1.2-12.6 1.1-18.9-.5-21.2-1.1-42.5-2.2-63.7-1.1-20.2-1.2-40.6-8.6-60-.7-1.8-.6-3.9-.9-5.9-1.7-11.5-2.8-23.2-5.1-34.6-6.2-29.6-14.6-58.6-18.8-88.7-2-14.5-3.2-29.1-3.5-43.7-.5-23.6-.2-47.2.2-70.8.2-12.6 1.5-25.2 2.3-37.8s2.6-25.2 2.4-37.8c-.4-24.6 2.1-48.4 11.6-71.3 3.9-9.5 8-18.9 11.4-28.6 3.5-10.2 9.6-18.9 15.4-27.8 9.1-13.9 18.2-27.9 26.1-42.5 12.2-22.5 17.4-47.3 22.3-72.2.5-2.1 1.2-4 2-5.9zm-88.4 799.9c5.5-6.4 3.7-11.5 2.3-16-2.3-7.2-5.6-14.1-8.2-21.2-5.7-15.6-10.9-31.4-16.7-47-4.1-10.9-8.4-21.7-13.5-32.1-4.7-9.5-9.9-18.8-15.6-27.8-10.2-16.7-20.1-33.7-31.4-49.6-11.1-15.7-25.1-29.3-34.7-46.1-7.3-12.8-18.3-22.8-26.8-34.7-16.6-23.3-31.8-47.5-47.4-71.6-9.4-14.5-14.7-30.3-15-47.8-.4-21.2-1.4-42.4-2.4-63.7-1.3-26.3-6.3-52.1-12.1-77.8-1.8-7.8-.3-16.4.1-24.6 0-1.1 2.1-2.8 3.3-2.9 1.6.1 3 1 3.8 2.4 1.5 4.1 2.7 8.2 3.7 12.4 1.1 4.5 1.7 9.2 2.6 13.7 5.4 26.4 11.7 52.5 12.2 79.7.4 20.6 2.6 41.2 2.8 61.8.2 18.8 9.5 33.7 18.4 48.8 7.6 12.8 16 25.2 24.6 37.4 7.8 11.1 16.2 21.8 24.4 32.6 3 4 6.4 7.7 9.3 11.7 11.7 16.1 22.7 32.9 35.2 48.3 21.7 26.7 38.8 56.4 55.8 86 9.4 16.3 15.9 34.3 23.6 51.6 2.4 5.3 4.3 10.9 7.3 18.7.5-5.2 1.1-8.1 1-10.9-.9-13.3-1.6-26.6-3.2-39.8-2.1-16.5-4.7-33-11.4-48.4-5.8-13.4-10.9-27.1-17.9-39.8-6.1-10.9-14.5-20.7-22-30.8-17.7-23.6-36.5-46.6-53.1-71-8.4-12.4-14.6-26.2-18.3-40.7-5.6-22.2-8.5-45.1-11.6-67.8-2.4-17.8-3.6-35.7-5.1-53.6-1.9-22.4-6.1-44.2-18.4-63.5-3.8-5.9-7.7-11.7-10.7-18-10.4-21.7-26.9-37.8-45.6-52.1-4.8-3.6-9.2-8.1-14.5-10.5-13.1-5.8-26.6-10.6-40-15.5-2.6-1-5.7-.8-9.4-1.2.7 2.9.9 4.8 1.6 6.5 5.8 14.1 12.1 28 17.2 42.3 2.2 6.1 1.2 13.3 2.9 19.7 3.9 14.8 1.8 29.7 2.5 44.6.3 6.9-.2 13.9-.2 20.9-.1 24.3-1.4 48.6.3 72.8 1.6 22.1 4.3 44.3 11.2 65.6 3.8 11.7 7.5 23.6 13.5 34.2 10 17.6 21.4 34.4 33 51 8.7 12.5 18.5 24.2 28.3 35.9 8.8 10.4 18.5 20 27.4 30.4 14.4 17 28.3 34.3 42.6 51.4 7 8.4 14.9 16.2 21.4 24.9 11.9 15.9 25.1 30.9 33.8 49.2 5.8 12.3 12.6 24.1 19.2 36 6.1 11.7 12.7 23.2 19.9 36zM1282 1671.3c-10.5 4.6-18.9 7.7-26.8 11.9-4.3 2.3-8.8 5.6-11.2 9.7-9.1 15.7-19.6 31.1-16.7 50.8.1.9-.4 1.9-.5 2.9-.8 6.5-2.1 13-2.2 19.5-.1 8.4 3.5 12.8 11.5 15.3 21.3 6.6 43 8.8 65 4.4 1.3-.3 2.6-.5 3.9-.7 6.6-.2 8.5 3 5.5 8.7-2.8 5.2-7.4 7.7-12.9 8.1-11.9.9-24 2.8-35.8 1.8-12.6-1-25-3.8-36.7-8.4-10.6-4.3-19.5-5.2-28.9 1.4-2.2 1.5-4.7 2.5-6.9 4.1-13 9.4-24.3 20.2-26 37.2-.7 6.9-.2 14 .2 20.9.6 8.5 5.3 12.5 13.7 12.2 2.3-.2 4.6-.6 6.9-1.1 12.5-1.8 24.9-4.6 37.6-1.2 23.4 6.2 47.1 11.6 70.2 18.8 13.8 4.3 26.6 3.3 40-.7 14-4.1 28.2-7.8 42.5-10.8 15-3.2 30.2-4.8 45.2-8 9.5-2 18.8-4.5 28.5-2.6 5.2 1 9.2-1.1 12.1-5.1 3.8-5 7.3-10.3 10.5-15.7 6.6-11.4 4.9-24.1-4.3-33.8-4-4.2-8-10.7-12.8-11.5s-11 3.6-16.3 6.3c-7.8 3.9-15.6 5.3-23.8 2.9-1.3-8.1-.9-9.2 4.8-10.9 2.2-.7 4.8-.5 6.8-1.5 7.4-3.6 15.6-6.4 21.8-11.6 10.7-9.1 6.8-22.3 8.5-34.9-2.9.5-4.3.4-5.4.9-8 3.3-15.9 6.9-23.9 10.2-9.6 3.9-19.4 6.9-30 6.4-3.4-.2-7.1-.1-8.3-4.1s1.1-7.3 4.4-9.2c4.3-2.4 8.9-4.7 13.7-5.8 14.3-3.3 28.2-7.8 40.9-15.4 9.8-5.9 11.2-8.1 8.9-19.1-.8-3.6-1.7-7.1-2.9-10.6-1.9-6-5.7-7.1-10.1-2.7-2.1 2.1-3.5 4.8-5.2 7.3-5.5 8.3-11.8 10.2-20.3 5.1-5.2-3.1-9.5-7.8-14.1-11.6-4.3 6.3-8.6 13-13.3 19.4s-11.7 11.1-18.9 7.8c-6.9-3.1-14.4-8.8-17.5-15.2-3.8-8-4-18-4.4-27.2-.6-10.8.3-21.8.4-32.6 0-.3-1-.6-1.9-1.1-.7 1-1.9 1.9-2.2 3.1-2.6 10.7-4.7 21.4-7.7 32-1.8 6.2-4.7 12.2-7.6 18.1-2.2 4.4-4.8 8.5-7.8 12.4-2.1 2.8-4.4 6.2-7.4 7.4-6.4 2.5-13.3 3.8-19.5 5.4-2.8-3.6-4.4-6.7-7-8.7-6.3-4.8-7.9-11.3-7.8-18.6.1-6.6.9-13.3 1.2-19.9.4-3.2.3-6.7.3-12.1zm1180.8-543.5c-3.5-1.4-5-1.9-6.5-2.6-10.6-5.3-22.1-9.5-28.1-21-4.6-8.8-9.2-17.7-13.3-26.7-1.2-2.8-1.1-6.4-.7-9.6.5-4.3 1.6-8.5 3.1-12.6 1.9-4.8 3.7-10.7 10.1-11.1 9.4-.6 18.6 2.3 23.9 9.9 5.6 8.1 12.9 11.1 21.4 13 14.5 3.1 21.5-2.2 23.2-16.8 1.1-8.9 2.6-17.7 4.3-26.5 2.8-14.1.1-28.1-.2-42.2-.2-.3-.4-.5-.7-.7-.3-.2-.6-.3-.9-.4-1-.1-2 0-3 .1-21.9 4.5-43.2 2.8-63.2-7.2-13.4-6.7-24.6-16.3-29.4-31.1-2-6.2-1.6-13.1-2.2-19.7-.9-12.1 11.1-28.7 23-31.6 2.6-.5 5.3-.6 7.9-.3 12.2.8 18.7 8.8 23.5 19 4.1 8.8 9.1 10.2 17.3 5.3 6-3.6 11.9-7.4 17.7-11.1 3.3-2.1 4.6-4.7 4.5-9-.6-21.2-2.9-42.6 4-63.4.4-1.9.7-3.8.9-5.7-3.9.3-7.1.4-10.3.7-7.3.9-14.6 1.7-21.8 2.9-19.6 3.3-37 .9-53.2-12.7-11.2-9.4-20.5-18.2-25.7-32.7-8.5-23.9-1.3-43.6 11.8-62.7 1.4-1.9 3-3.6 4.9-5 11.6-9.1 24-4.9 27.2 9.5 2.2 10 3.9 20.2 5.6 30.4 2.7 15.8 13 22.3 28 16.1 14.7-6.1 29.1-13.1 43.4-20.2 7.7-3.8 8-5.1 6-13.5-3.6-14.9-7.3-29.7-11.1-44.5-.8-2.9-1.7-5.7-2.8-8.5-3.3-8.9-3.4-8.8-13-8.4-22 .8-43.1-2.4-62.5-13.7-5.2-3-10.5-5.8-15.9-8.5-2.2-1.1-4.7-1.7-8.2-2.9-7.5 17.1-14.6 33.5-21.9 49.8-16.2 36.4-19.4 75-18.4 114.1.1 5 .1 10 .2 14.9.1 7.3-.5 14.8.6 21.9 2.6 16.4 5.7 32.7 9.3 48.9 2.1 9.3-.9 18.9 3 28 2.2 5.2 4.1 10.7 4.7 16.2 1.8 17.5 3 35 4.3 52.5 1.1 14.9 2.1 29.8 3.3 44.7.9 10.8 1.9 21.7 2.9 32.5.7 6.9 1.7 13.8 2.1 20.8.5 8.6 1.3 17.3.6 25.8-1.5 19.7-6.1 38.8-12.2 57.5-1.3 3.9-3.3 8 .1 13.3 8.9-5.7 18-10.5 25.8-16.9 19.1-15.1 37-31.3 56.6-48.3zm-410.3-23.5l-2.8-.3c-1.1 2.3-2.3 4.5-3.1 6.9-4 10.5-11.9 15.7-22.7 17-11.4 1.4-16.6-3.5-16.4-15 0-2.3.2-4.7.6-6.9 1.1-5.6 4.4-10.1 9.6-12 9-3.3 18.1-4.9 26.5 2 1.3 1.1 3.2 1.3 5.1 2.1.5-11.1-5.2-19.7-12.7-18.1-21.7 4.5-31.2 6.7-34.3 31.6-1.9 14.8-1.4 29.7 0 44.7 2 20.5 2.6 41.1 3.8 61.7.7 11.6 1.5 23.2 2.3 34.8s1.9 23.2 2.4 34.8c.7 16.3 1.1 32.6 1.6 48.8.4 12 1.4 23.9 1.2 35.9-.2 18.3-1.5 36.5-1.5 54.8 0 12.2 1.5 24.5-.5 36.6-1 6.2-.3 11 4.7 16.1 2.4-1 5.2-1.9 7.8-3.2 20.5-10.2 40.5-21.7 61.7-30.2 12.6-5.1 24.8-11 37.5-15.9 7.4-2.8 10.5-7.9 11.6-14.7 1.4-9.5 2.1-19.2 3.1-28.8 2-20.8 3.9-41.7 6.1-62.6 1.7-17.2 4.2-34.3 5.4-51.6 1.9-26.5 3-53.1 4.6-79.7.4-6.6 1.7-13.3 1.6-19.9-.3-18.6-6.4-23.6-24.9-21.3-.7 0-1.3.1-2 .2-7.3 1.7-11.9 7.1-12 14.8 2.6-1.4 4.8-2.7 7.1-3.8 7.1-3.5 15.7-2 21.2 3.7 4.6 4.4 5.4 11.4 1.4 16.3-6.8 8.2-22.4 13.8-31.6 8.3-1.8-.9-3.6-1.8-5.5-2.5-.8 2.2-1.8 3.7-1.9 5.2-1.4 14.8-2.9 29.7-4.1 44.6-1 12.6-1 25.2-2.6 37.7-3 23.7-6.7 47.3-10.4 70.8-2.4 15.3-.9 31.3-7.2 46.1-.6 1.4-.2 3.3 0 4.9.8 7.9 1.9 15.9 2.3 23.8.4 4.3 0 8.6-1.1 12.8-.7 2.2-3.8 4.6-6.2 5.1-1.4.3-4.5-2.8-5.1-4.9-1.5-5.4-2.5-11-3-16.6-2.1-26.1.3-52.4-3.2-78.6-4.2-31.6-3.2-63.7-8-95.2-1-6.9-1-13.9-1.4-20.9-.9-14.6-2.1-29.2-2.4-43.8-.5-19.6-.1-39.2-.4-58.9-.3-5.7-1.5-11.2-2.2-16.7zm483.3-306.2c-2.1.9-3.7 1.1-4.3 2-7.7 10.5-14.7 21.4-18.6 33.9-3.6 11.1-5.2 22.8-4.5 34.5 1 16.2.8 32.6 2.5 48.8 1.4 13.9 4.5 27.6 3.2 41.7-.3 2.9.5 5.9.8 8.9.6 6.3 1.6 12.6 1.7 18.8.4 19-2.5 37.7-5.2 56.4-3 20.9-10.2 40.1-19 58.6-7.7 16.4-18.4 31.6-32.3 43.9-9.2 8.1-18.7 16-28.2 23.8-11.1 9-22.4 17.8-33.5 26.8-6.3 5.1-12.5 10.3-18.7 15.5 2.1 1.3 3.4 1.3 4.6 1 13.3-4.4 27.1-7.7 39.6-13.6 15.3-7.2 29.6-16.5 44.2-25.1 1.9-1.3 3.7-2.9 5.1-4.7 9-9.4 18.2-18.6 26.7-28.3 6-6.7 11.3-13.9 16-21.6 14-23.5 20.8-49.7 25.4-76.4 1.6-9 .6-18.6-.5-27.7-2.7-22.6-9.6-44.1-16.6-65.7-3.8-11.9-5.6-24.6-7.3-37.1-.5-3.8 1.6-8.2 3.4-12 .7-1.5 3.9-2.6 5.8-2.4 1.2.1 2.8 2.7 3.2 4.4.7 2.9.6 6 .9 8.9 1.2 9.6 1.6 19.3 4 28.6 4.3 16.4 10.6 32.2 14.5 48.6 3.3 13.8 8.1 27.6 5.9 42.2-1.3 8.5-2.5 17.1-4 25.6-4.4 25.2-13 49-27.4 70.1-8.2 12-18.8 22.4-28.1 33.7-16.5 20.1-37.4 34-61 44-17.4 7.4-35.5 13.2-53.5 19.2-15.5 5.1-25.6 17.8-26.2 35.1 1.7-.3 3.4-.3 4.7-.9 13.2-6.4 26.4-12.8 39.4-19.4 20.5-10.3 41-20.8 61.4-31.3 7.4-3.8 14.6-7.9 21.6-12.4 7.8-5.1 15-11 22.7-16.3 9.9-6.8 19.9-13.3 26.2-24.1 1.1-1.9 3.5-3.1 4.9-4.9 7.7-9.9 17.2-19 22.4-30.1 8.1-17 13.3-35.4 13.6-54.7.1-11 1.1-21.9 1.1-32.9 0-17.3-.1-34.9-5.2-51.4-2.9-9.3-4.4-18.6-6.4-27.9-1.6-7.4-2.1-15.1-4.1-22.4-4.1-15.4-9-30.5-11-46.4-3.4-27.9-6.5-55.9-9.9-85.3zm-597.5 459c-2 1.5-2.9 1.9-3 2.3-1.7 11.8-3.9 23.6-4.9 35.4-1.1 12.9-1.2 25.9-1.8 38.8-.7 15.6-1.7 31.2-2.2 46.8-.2 5.6 1 11.2 1.2 16.8.6 16.8-.1 33.8 1.7 50.5 2 19.1 5.9 38 12.8 56.1 4.6 11.9 6.7 13.4 19 9.7 2.5-.8 4.7-2.4 6.9-3.8 7.3-4.6 14.6-9.1 21.8-13.8 6-3.9 11.9-8 18.1-12.2-1.6-2.9-2.5-5.1-3.7-6.9-6.2-9.2-10.1-18.8-10.1-30.4.1-15.8.6-31.6-1.3-47.6-2.9-24.7-2.7-49.8-4.1-74.7-1.6-27.2-3.1-54.4-5.4-81.6-.9-10.7-5.8-16.4-12.7-17-9.9-.8-19.2 1.9-27.8 6.5-3.4 1.8-6 5.3-2.6 9.4.5.1 1 .1 1.5.1 1.6-1.1 3.2-2.3 4.8-3.5 8.2-6.2 17.9-5.9 25.6.8 6 5.3 7.1 12.3 1.7 18.4-3.4 4-7.6 7.2-12.3 9.6-11 5-14.5 3.7-21.6-6.4-.7-.9-1.2-2.1-1.6-3.3zm663.4-40.3c-4.1-10.7-8-20.5-11.7-30.4-2.9-7.8-5.4-15.7-8.5-23.4-2.6-6.5-4.3-7.1-10.6-6-7.9 1.3-15.7 2.6-23.6 3.7-5.9.8-10.8 2.7-13.7 8.5-1.1 2.2-3.4 4.1-5.5 5.6-7.4 5.7-14.7 11.4-22.4 16.7-10.7 7.3-21.3 14.8-32.6 21-14.8 8.1-30.5 14.7-45.5 22.4-11.5 6-22.4 13-33.8 19.2-9.9 5.4-20.1 10.3-30.2 15.3-8.6 4.2-9.3 5.2-7.8 14.5 1.2 7.2 2.5 14.4 4.2 21.5 2.2 9.2 5.4 10.2 13.3 5.5 10.3-6 20.5-12.5 31.4-17.3 22.5-9.9 45.2-19.4 68.1-28 38.8-14.7 78-28.6 116.9-42.9 4.1-1.5 7.8-3.7 12-5.9zm-383 62.9c-3.5.2-5.5 0-7.4.4-14.1 3.2-26.9 9.6-39 17.4-8.8 5.7-9.6 14.9-9.1 24.4 2.6-2.6 5.1-5.2 6.3-8.4 3.8-9.4 10.8-14.8 20.1-18 4.4-1.5 8.6-3.8 12.9.3 4.1 4.1 5.1 10.5 2.4 15.7-1.8 3.6-4.1 6.9-6.8 9.8-5.2 5.8-12.4 9.4-20.1 10-4.8.4-9.9-2.4-16.1-4.1-1 3.1-1.9 6.3-2.5 9.6-.9 5.6-1.2 11.2-1.8 16.8-.5 5-1.1 9.9-1.7 14.9-1.4 11.8-2.8 23.7-4.4 35.4-.8 5.6 1.7 8.5 7.2 7.2 2.5-.8 5-1.8 7.3-3.2 8.6-4.3 17-9.3 25.9-12.8 10.4-4.1 16.1-11.3 18.4-21.8.9-4.2 1.7-8.5 2.3-12.7 2-14.5 3.1-29.1 5.9-43.4 2.6-12.4 1.6-24.3.2-37.5zm276.8-363.5c-3.3.8-5.2 1.2-7 1.8-6.2 2.2-12.2 5.3-18.5 6.6-14.7 3.1-20.1.2-27.6-12.9-1-1.7-2.1-3.4-3.2-5.1-5.7-9.1-10.5-9.1-17.2-.3-5.7 7.5-8 15-7.2 24.8 1.4 17 10.9 32.1 26.7 38.5 12 4.8 24.7 5.4 37.2 5.7 5.7.1 11.6-2.5 17.1-4.7 1.8-.7 3.3-3.9 3.7-6.1.7-4.9 1.1-9.8 1.1-14.8.3-11.2-4.1-21.7-5.1-33.5zM2380 399.4c-9.2 1.4-17.1 3.1-25 3.6-6.2.4-12.8.6-18.6-1.2-11.8-3.7-22.5-10.1-31.3-18.9-8.4-8.4-19.4-12.9-30.6-16.1-7.9-2.3-11.3-.4-15.7 6.9-6.2 10.2-3.3 26.5 7 34 6 4.2 12.5 7.5 19.5 9.7 26.1 8.6 53.2 7.7 80.1 7.7 2.2 0 5.5-1.6 6.6-3.4 3.9-6.5 7.5-13.2 8-22.3zm-39.8 891.7l-2.7.5c-.7 1.4-1.3 2.9-1.8 4.4-2.2 10.4.1 20.4 2.4 30.4.4 1.9 1.8 4.2 1.2 5.6-4.8 11.1-3.1 22.9-4.1 34.3-3.3 37.4-5.6 74.8-8.4 112.2-.5 7.1 3.2 10.2 9.7 7.2 4.2-1.9 7.6-5.3 11.6-7.6 8.7-5 11.1-12.3 9.5-21.8-1.5-8.5-2.5-17.1-3.1-25.7-.3-5.2 1.8-10.7 1-15.8-2.9-18.3.5-37.2-5.5-55.2-.8-2.5-.6-5.3-.8-7.9-.2-4 .4-8.2-.8-11.9-2.5-8.2-2.4-16.3-1.6-24.6 1-9.1-4.3-16.1-6.6-24.1zm-1018.5 275.3c.8 1.7 2.2 3.3 2.5 5.1 2.5 13.1 11.9 16.3 23.5 16.8 5.6.1 11.2.8 16.7 2.1 14.8 3.8 29 .8 43.1-3.2 3.2-.9 8-2.4 6.9-7.1-.9-3.5-3.3-7.8-6.2-9.4-10.8-5.7-21.6-11.1-33.6-14.6-13.1-3.8-25.6-3.1-38.3.2-5.8 1.5-11.1 4.4-14.6 10.1zm-23.6 4.4c-7-3.3-11.9-6.1-17.1-8-24.7-9.1-43.9-4.9-63.5 18.6-8.6 10.1-16.7 20.7-24.2 31.7-4.3 6.4-10.5 12-11.7 21.5 3.2-.7 5.8-.8 8.1-1.8 10-3.8 18.7-10.5 24.8-19.4 10-14.7 25.1-22.7 40.7-29 11.9-4.8 24.9-7.1 37.3-10.6 1.3-.4 2.3-1.2 5.6-3zm121.6-7.4c4.4-3.2 8-5.5 11.2-8.3 5.4-5 12.6-7.8 20-7.8 3 0 6-.1 9-.4 20.6-2.7 41.5.1 60.6 8.1 5.2 2.1 9.8 5.5 14.9 7.9 3.2 1.6 6.9 3.6 10.2.5 3.7-3.4 3.6-7.8 1.5-12-1.1-2.1-2.5-3.9-4.2-5.5-14.5-13.7-31.8-20.2-51.8-18.8-6.3.4-12.6 1.3-18.9 1.4-13.8 0-26.3 4.6-38.1 10.8-7.2 3.8-13.5 9.2-20.6 14.2l6.2 9.9zm-74.5 41c-1.3.3-2.3.2-3.1.7-1.4.9-2.7 1.9-3.8 3.2-10 12.3-20.8 24.1-26.8 39.2-2.2 5.5-4.6 11.2-8 16-8.8 12.5-9.5 26.6-9.6 40.9-.1 7.4 3.2 9.4 10.2 6.6 10-4 15.7-11.8 18.6-21.9 7-24.2 11.9-49 22.3-72.1 1.7-3.8 2.7-8.2.2-12.6zm1141.6-527c-6.1 0-11.1.4-16-.1-13.1-1.3-23.7-7.4-33-16.8-6.5-6.6-10.1-5.1-11.4 3.9-.3 3.3-.2 6.6.3 9.8 1.1 8.6 7.6 14.5 11 22s9.5 12 15.7 16.3c7.7 5.4 14.5 4.3 19.2-2.8 6.2-9.2 11.7-19.1 14.2-32.3zm-1102.7 533.3l-3.3-.5c-1.3 2.8-2.9 5.5-3.8 8.4-2.8 9.2-4.1 19-8.3 27.5-6.4 13.1-6.7 27-7.3 40.8-.3 6.3 2.7 12.9 5 19.1 2 5.1 5 5.9 9.4 2.9 2.9-1.9 5.9-4.8 7.2-7.9 2.2-5.5 4.1-11.5 4.2-17.3.1-20.9-.5-41.8-1.1-62.7-.2-3.4-1.3-6.8-2-10.3zm79-15.1c4.8 2.2 7.8 3.6 10.7 5 13.4 6.7 26 14.3 36.1 25.9 5.4 6.2 11.8 11.5 18.2 16.6 4.6 3.6 13.2 2.1 17.3-2 3.3-3.4 2.9-6.2-2-13.2-.5-.9-1.1-1.7-1.8-2.4-10.2-10-21.2-18.8-34.6-24.3s-26.8-10-43.9-5.6zm-297-34.7l2 1.9c2.6-2.9 5.7-5.4 7.7-8.7 6.7-11.1 17.3-17.2 28.5-22.4 7-3.2 14.8-4.2 22.4-2.8 9.2 1.4 18.5 2 27.7 3.6 18 3.1 35.8 6.9 49.9 20 .8.7 2.8.1 4.3.1-.1-1.4.1-2.3-.3-2.6-7.3-7.2-14.2-15-22.3-21.3-5.3-4.2-12-8-18.5-9.2-15.4-2.7-31.1-3.9-46.3 1.7-6.9 2.5-13.9 4.6-20.7 7.3-15.7 6.3-27 17.3-34.4 32.4zm73.5 94.6c14.3.8 25.5-5 34.8-14.5 12.5-12.8 25-25.7 37.4-38.6.9-.9 1.1-2.4 2.7-5.7-29.2 16.9-56.9 31.5-74.9 58.8zM2455 605.4c-7.9-12.1-8.1-22.8-5.1-33.8.8-2.9 1.9-5.7 2.7-8.5 2.1-7.3 2.1-14.3-3.4-21.8-8.2 10-6.9 22.7-12.1 32.7-5.5 10.5-9.2 21.5-13 34.4l30.9-3zm-968.5 1073.7c-7-24.7-37.7-55.5-53.3-53.2 4.9 8.5 9.7 16.4 17 23.1 8.8 7.9 16.4 17.1 24.5 25.8 3.1 3.3 6 6.3 11.8 4.3zm-67.5-30.2c-7.8 6.6-5 31.1 4.8 44.8 8.2-8.9 6.5-26.1-4.8-44.8zm1090.1 194.5c7.8-2.6 9.1-8.9 10.6-14.3 6.4-23.8 23.2-37.3 45-45.5 8.1-3.1 16.6-5.1 25.2-6 6.8-.7 13.9.3 20.6 1.9 3 .7 6.2 4.1 7.7 7.1 7.8 15.7 13 32 9.7 50-.9 4.9-1.2 9.9-.8 14.9 1.5 17.2 2.1 34.7 5.5 51.6 5.9 28.9 7.1 58.1 8.5 87.3 1.1 22.1-.3 44.5-5.2 66.4-1 4.4-2.9 8.5-8.1 8.9-4.8.4-7.4-2.8-8.6-6.9-2.1-7.1-6.8-13.2-13.2-17-10.5-6.7-18.6-15.9-26.9-24.9-16.4-17.6-31.6-36-41.4-58.3-2.6-5.9-5.8-11.6-8.8-17.4l-2.1.6c-.3 5.5-.4 11-.8 16.4-1.3 15.2-2.4 30.4-4.2 45.6-.8 6.9-3 13.6-4.7 20.4-1 4-2.6 7.9-7.4 8.4s-8.1-2.2-10.6-6.1c-.2-.3-.3-.6-.4-.9-1.2-3.6-3.3-6-7.3-5.1-4.5.9-5.1 4.6-5.3 8.5-.4 8-1.4 16-1 23.9.4 10.6-6.4 17.2-12.1 24.4-1.7 2.1-6.6 2.2-10 2.5-4.3.3-8.5.1-12.8-.4-7.6-.8-15.1-2.5-20.9-7.9-7.6-7-14.6-14.6-22.2-21.5-6.1-5.6-10.9-12.1-15.5-19.1-7.1-11-9.3-23.4-13-35.4-2.2-7-4.9-13.7-7.3-20.6-1.4-4.1-3.5-7.7-8.5-6.5-5.4 1.2-4.3 6.1-4.1 9.9.4 7.3 1.5 14.6 2.1 21.9 1.5 16.9 2.3 33.9-.4 50.8-.2 2-.7 3.9-1.2 5.9-2.1 6.1-5.4 8-11.5 6.1-4.4-1.5-8.7-3.3-12.9-5.4-20.7-9.3-40-21.2-58.5-34.2-5.9-4.2-10-11.4-14-17.7-2.2-3.6-4.5-5.6-8.5-5.7-8-.2-15.9-.1-23-5-1.3-.9-3.8-.1-5.8-.1-4.4 8.8-.2 16.3 2.6 23.4 6.4 16.2 9.9 33.1 11.9 50.3.7 6.1-.7 11.9-6.8 16.5-1.1-1.5-2.2-2.6-2.6-3.9-1.5-4.9-5.1-6.3-9.8-7.1-14.4-2.6-28.7-5.5-43-8.4-1.3-.2-2.6-.6-3.7-1.3-9-6.8-17.9-13.6-26.8-20.5-8.3-6.4-15-14.9-25-19.4-2.7-1.2-4.6-4.7-6.5-7.4-6.1-8.7-12.2-17.3-17.8-26.4-3.6-5.9-6.7-12.2-9.3-18.6-3.2-7.7-5.9-15.5-8.4-23.4-2.3-7.2-2-13.9 2.1-21 7.9-13.9 20-20.8 34.7-24.6 3.6-.9 7.1-2.6 11.2-4.1-3.8-7.1-8.4-11.2-14.5-13.4-9.9-3.6-17.7-10.4-25.6-17-3.3-2.7-7-4.9-10.5-7.4-.5-.4-1.4-.5-1.7-1-8.8-12.2-23.1-17.7-33.9-27.4-11.1-10-15.3-28.8-9.3-42.6 3.2-7.3 8.9-12.3 14.5-17.4 7.5-6.9 15.7-12.4 26.1-13.6 3.9-.5 7.9-.6 11.9-.8 5.6-.3 11.4.1 16.9-.9 18.4-3.4 36.5-1.8 54.3 3.2 4.8 1.3 9.3 3.5 13.1 6.7 11.7 10.1 20.4 22.3 25.2 37.5 3.5 10.9 9.7 21 14.9 31.3 2.4 4.8 5.3 9.2 7.7 14 3.7 7.4 5.9 7.7 12.7 2.3 7-5.6 14.5-10.4 21.6-15.9 11.6-9 25.1-7.2 38.3-7.1 1.3.1 2.6.3 3.9.6.5-.1.9-.4 1.3-.6-.2-6.9-5-11-9.4-15.4-3.5-3.5-7.6-6.7-10.2-10.8-9.9-15.3-8-36.1 2.1-51.6 9.3-14.3 22.1-23.7 37-30.9 10-4.9 20.5-5 31.2-2.8 4.8 1 9.8 2.1 14.6 2.2 16 .2 27.5 7.3 33.5 22.1 3 7.3 4.7 15.2 6.8 23 .6 2.3.2 4 .3 7.3.1 8.2-.4 16.4-1.4 24.6-.9-9.9-3.9-17.3-7.7-18.8-1.3-.6-2.8-.7-4.2-.4-1.5.4-2.8 1.6-4.1 3.4-2.6 3.4-5.6 6.5-9.1 9-13.4 10.5-29.2 17.6-45.9 20.7-4.6.9-9.1 2.1-13.6 3.4-5.9 1.7-7.3 5-4.1 10.5 2.7 4.6 5.6 9 8.9 13.2 4.7 6 9.6 11.9 14.7 17.6 5.7 6.4 6.6 14.2 7.3 22.3s.8 15.8 2.1 23.6c2 12.1 4.5 24.2 7.4 36.1 1.3 5.7 3.9 11 6.2 17.2 6-3.3 6.2-8.3 4.6-11.8-5.6-11.9-4.1-23.8-1.4-35.8.9-4.1 1.9-8.5 4.1-11.9 8.6-13.4 21-22 35.7-27.6 4.2-1.6 8.9-2.6 11.4-6.7-1.6-4.6-4.8-3.7-7.7-3.3-5.6.8-11.2 1.9-16.8 2.4-7.1.7-13-1.8-18.2-8.5 9.8-9.1 22.7-2.4 33.4-7.6.5-1 .8-2 .9-3.1-.6-12-1.3-20.3-18.8-12.7-10.7 4.7-17.5 3.1-24.6-5.1 3-1 5.7-2 8.4-2.7 3.5-.9 7.1-1.5 10.7-2.4 7.1-1.8 10.9-5.7 11.8-13.8 1.1-10.1 6.8-18.4 14.4-25.4 14.1-12.9 30.9-16.1 49.2-14.6 6.6.6 13.3 1 19.8 2.4 8.2 1.8 13.8 7.8 18.5 14.3 6.8 9.3 7.6 20.4 7.9 31.4s3.9 20.6 8.7 30.9zm106.8 3.5c-5.4 2.5-8.7 3.8-11.8 5.4-5 2.6-9.7 5.9-14.9 8.2-13.6 5.8-27.4 10.5-42.6 6.9-3.5-.8-6.9-2.3-10.5-3.1-3.3-.7-6.8-1-8.8 2.8-3.3 6.2 2 19.2 8.7 20.6 5.2 1.1 10.5 1.6 15.8 1.6 7.6 0 15.3-1.1 22.9-1.2 2.2 0 4.4 1.8 6.6 2.8-1.4 2.1-2.4 5.4-4.2 6-7 2.1-14 3.7-21.2 4.8-4.2.7-8.7-.2-13 .3-7.7.8-9.3 3.4-7.3 10.5.6 2.2 1.5 4.4 2.1 6.7 2 7.3 1.9 7.4 9.2 7 10-.5 19.9-1.3 29.9-1.5 2.1 0 5.4 1.6 6.1 3.4 1.4 3.3-1.8 4.6-4.4 5.1-3 .5-5.9.7-8.9.8-4.6.3-9.3.2-13.9.8-8.2 1-10.4 4.3-8.3 12 3 11.1 9.1 20.6 16.5 29.2 6.9 8 14.3 15.7 20.8 24 5.4 7 12.6 13 14.1 22.6.3 1.7 1.9 3.6 3.4 4.7 6.1 4.4 12.5 8.6 18.8 12.9 5-3.8 6.5-8.9 6.8-14.2.7-14.3 2.2-28.5.3-42.9-.5-4-.6-7.9-.5-11.9.2-13.6-3.1-16.2-16-12.4-1.9.6-3.8 1.1-5.8 1.6-4.4 1-8.4.1-12.6-3.2 1.8-1.7 3-3.4 4.6-4 5.3-1.8 10.8-3.3 16.2-4.8 8.8-2.6 11.4-6 11.1-15-.1-3-.6-6-.9-8.9-2.1-18.8-4.1-37.7-6.2-56.5-.7-6.4-1.3-12.5-2.1-21.1zm-285.6 53.1c-4.6 1.9-9.3 3.1-13.1 5.6-11.8 7.7-24.7 8.9-38.3 8.4-12.6-.4-25.3-.3-37.9-.3-6.2 0-9.1 2.7-8.4 8.4 1 8.4 3.6 16.3 9.6 22.6 4.5 4.7 9.6 7 16.1 4 8.7-4 18-4.2 27.4-4.7 3.3-.2 6.8.2 9.9-.7 6.4-1.7 11.4.6 16.8 4.3-3.8 5.1-8.6 3.7-13.1 3.8-6.3.2-12.7-.1-18.8 1-8.1 1.4-16.1 3.9-24.1 6.1-6 1.6-7.4 5.4-3.9 10.4 2.4 3.6 5.1 7 8.1 10.1 1.7 1.8 4.3 3.7 6.6 3.9 9.5.9 19.1 1.3 28.7 1.6 7.8.2 15.6 0 23.6 0-1 7.2-5 7.7-10.2 7.7-9.9 0-19.9.5-29.8 1.7-6.5.9-7.4 4.7-3.3 9.9.8 1.1 1.7 2 2.7 2.9 18.4 14.9 38.1 27.7 60.1 36.9 6.9 2.9 9.7 1.6 11.6-5.6.7-2.9 1-5.9.8-8.9-.3-10.6-.6-21.3-1.2-31.9-1.4-25.6-5.8-50.9-10.6-76-1.3-7.2-2.1-15.2-9.3-21.2zm-250-55c2.5 3.2 3.6 5.1 5.2 6.5 3.4 3.2 7.2 5.9 10.5 9.2 10.6 10.9 23.3 18.3 37.6 23.3 12 4.2 23.5 9.2 31.8 19.6.6.8 1.4 1.4 2.3 1.9 12.7 6.1 18.7 17.3 23 29.9 2.3 6.6 4 13.4 6.8 19.8 1.8 4.1 4.6 8.4 8.1 10.9 8.7 6 18.2 10.8 27.3 16.3 2.9 1.8 6.4 4.4 8.8 1 1.5-2.1.5-6.1.4-9.2 0-.9-.9-1.7-1.3-2.7-5.7-16-11.5-31.9-16.8-47.9-3-9.2-4.9-18.7-7.7-27.9-1.8-6-3.6-6.7-9.7-5.4-4.2.9-8.4 2.4-12.6 3.1s-7.3-.5-6.1-6.2c2.9-.8 5.8-1.6 8.6-2.4s5.8-1.6 8.6-2.5c8.6-2.7 12.6-11.6 9.1-20-3-7.2-7.4-7.4-17-3.8-9.3 3.4-19.2 5-28.9 7.1-3.4.7-7.1-.3-8-4.2-1.1-4.5 2.7-5.5 5.9-6.5 4.1-1.3 8.5-1.8 12.4-3.6 6.5-2.8 12.9-5.3 19.9-2.3 6.2-8.7.4-15.2-3.1-21.5-3.7-6.5-6.7-7-12.9-2.4-9 6.7-19.2 8.8-30.1 9.1-4.3 0-8.6.2-12.9.8-11.8 1.9-23.5 4.3-35.3 6.4-7.3 1.1-14.5 2.2-23.9 3.6zm393.3 111.8c-1.9-.1-3.9-.1-5.8 0-13.4 2.3-26.8 4.8-40.2 7.2-7.4 1.4-7.3 1.4-11.1-5.9 7.3-7.4 17.4-11.3 27.8-11 7.8.2 14.3-2.8 20.8-5.9 8.3-4 8.6-8.8 1-16.2-14.9 11.8-33.8 12.5-51.3 17.7-1.3.3-2.6.3-3.9 0-8.5-1.3-17.1-2.5-25.6-4.1-9.5-1.9-12.5 1.2-9.4 10.7 5.1 15.5 10.4 30.8 15.5 46.3.8 3.3 3.6 5.7 7 6.1 4.7.9 9.3 1.5 13.5-1.4 8.8-6 19-5.1 28.9-5.4 3.1-.1 7.6 0 8.8 6.2l-45.8 10.5c-2.9 5.7-2 10.7 1.7 15.2 4.4 5.3 10.1 9.8 13.7 15.6 5.7 9.2 11.6 17.7 21.7 22.5.9.4 1.7 1 2.4 1.8 4.3 5.7 10.5 5.2 16.4 4.9 5.2-.4 9.5-4.2 10.5-9.3 1.9-11.4 5-22.5 4.8-34.3-.5-20.5.1-41.1.1-61.7-.1-3-1-6.2-1.5-9.5zm-354.4 44.8c2.7 8.5 7.3 13.3 15.2 13.7 5.3.3 10.5.1 15.8-.5 8.2-1 16.4-2.6 24.7-3.6 2-.3 4.1.5 6.8.9-2.6 7-8.3 6.4-12.8 7-5.2.7-9.7 2.2-13.5 5.8s-4 7.7.3 11c4.7 3.7 9.4 7.7 14.7 10.1 11.4 5.2 23.2 9.7 35.1 14 3.6 1.3 7.8 1.4 11.8 1.4 9.6-.1 13.1-5.4 9.8-14.4-3.5-9.5-6-19.2-10.2-28.7-7.4-16.3-13.6-33.1-22.8-48.6-4.3-7.3-8.5-9-16.2-5.7-9.8 4.1-19.7 8-30.7 7-13.2-1.1-26.7.1-39.3-5.6-1.5-.8-3.2-1.1-4.8-1-2.1.3-5.4.8-6 2.2-.9 2-.4 5.2.7 7.1 2 3.4 5.3 6 7.3 9.4 4.3 7.5 11 7.9 18.2 6.8 2.9-.5 5.6-2 8.5-2.7 6.4-1.6 12.8-2.5 19.8 1.3-8.8 10-22.7 5.7-32.4 13.1zm378.1-77c-1.9 1.2-3.3 2-4.7 2.8-9.6 5.5-9.6 5.5-7.8 16.9.1.7.1 1.3.1 2 .6 13.9 1.2 27.9 1.9 41.8.2 4.6.6 9.3 1.2 13.9.8 6.1 3.2 8 9.2 8.1 7.3.2 11.5-3.1 12.4-12.7 1.7-19.8 3.2-39.8 3.4-59.6.2-14.6-1.4-29.2-2.9-43.8-.9-8.9-2.7-17.8-5.3-26.3-4.5-14.6-5.6-14.6-20.9-12.2-4.2.6-8.5.4-12.7-.4-1.7-.3-2.9-3.1-4.3-4.7 1.7-1.3 3.1-3.4 5-3.9 5.1-1.3 10.5-1.9 15.7-2.8 4.7-.9 6.7-3.8 6.4-8.6-.4-7.1-4-10.5-11.1-9.1-7.5 1.5-14.9 3.5-22.2 5.9-6.9 2.5-14.3 3.2-21.6 2.1-5.9-.9-11.9-1.2-17.9-1-6.4.1-9.8 4.2-7.2 8.7 5.3 9.2 11.3 18 22.1 21.8 3.5 1.2 7 2.1 10.5 3.2 12.2 3.7 21.9 10.5 28.5 21.7 3.7 6.2 3 12.8 3.1 19.4.2 9.2.3 9.1 9.2 10.1 4.2.5 8.5.4 9.9 6.7zm-417.6-97.9c6.6-.7 14.5-1.4 22.4-2.2 15.9-1.6 31.7-3 47.5-5 6.2-.9 12.4-2.6 18.2-4.9 7-2.7 10.6-9.4 8-15.1-5.2-11.2-13.1-20.1-25.9-22.8-10.6-2.2-21.8-1.7-31.5-7.7-1.3-.8-3.2-.8-4.8-1.1-8.2-1.5-16.3 0-24.4.3-8.6.4-15.4 3.2-22.3 6.7-8.7 4.4-15.8 11.4-20.2 20.1-6.9 13.5 0 27.4 14.7 30 5.5 1 11.2 1.1 18.3 1.7zm239.1-87.3c-17.3 1.6-36.6 25-36.4 45.3 0 4.8 2 8 6.3 10.4 9.9 5.5 20.5 6.8 30.8 3.4 14.2-4.4 28.1-10 41.4-16.6 11.9-6 20.2-16.2 21.5-30.4 1-10.4-4.2-16.9-14.7-17.2-7.9-.3-15.8.5-23.5 2.5-9 2.5-17.5 7-27 11l1.6-8.4zm-50.9 160v.7h16.9c13.4.1 26.5-4.1 37.2-12.1 5.7-4.1 8.5-19.2 4.1-24.5-3.7-4.5-8.1-9.4-13.3-11.7-20.9-9.7-42-12-62.3 2.1-9.6 6.7-18.9 13.6-24.5 24.3-3.6 6.8-3 9.6 2.6 14.8s12.4 6.1 19.4 6.4c6.6.3 13.2.1 19.9 0zm142.4 30.5c8.2-1.4 16.5-2.4 24.5-4.5 7.4-1.9 14.5-4.5 21.4-7.8 4.8-2.2 9.2-6.1 8.5-12.3-.9-7.8-.4-16.3-8.1-21.5-2-1.2-4.3-1.6-6.6-1.4-3.9.4-6.6-1.3-10-3-8.7-4.2-18.5-6.4-27.9-4-14.1 3.7-25.7 12.2-35.5 22.9-6.6 7.2-5.1 14.9 2.1 21.7 9.1 8.9 20.8 7.7 31.6 9.9zm180.2-140.5c-21.7-2.7-50.8 18.4-57.6 35.8-1.8 4.6-2.5 9.5-2.1 14.4.3 3 3.1 7.4 5.8 8.3 9.9 3.3 19.7 7.5 30.9 5.2 14-2.8 26-10.1 38.7-15.7 5.5-2.2 8.8-7.9 8-13.8-1.1-8.2-2.9-16.2-5.2-24.1-2.6-9-4.1-9.8-13.3-10.3-2 .1-4 .2-5.2.2zm-146.3 31.5c9.2-1.7 20.7-3.5 32-5.9 4.8-1 8.4-4 9.5-9.2 2.8-13.4-3.6-25.6-16.7-29.9-5.2-1.7-11.1-2-16.6-2-4.9 0-9.9 1.3-14.8 1.9-15.6 2.1-25.2 12.2-32.7 24.8-4.4 7.4-1.1 14.8 7.4 16.4 9.8 1.8 19.7 2.5 31.9 3.9zm-305.6 137.7c10.1-1.2 17.9-1.1 25.1-3.2 15.2-4.3 16.8-8.2 11.8-23.1-.8-2.5-1.6-5.2-3.2-7.2-1.9-2.3-4.3-4-7-5.1-9.6-3.3-19.4-6.3-29.2-9.2-1.2-.4-2.5-.4-3.8 0-7.6 2.3-15.5 4.1-22.7 7.4-5.1 2.4-9.5 5.9-12.9 10.3-5.2 6.9-4.9 9.6 1.4 15.5 4.2 4 9.2 8.1 14.6 9.7 9.1 2.9 18.8 3.7 25.9 4.9z"/><path fill="#FFC107" stroke="#FFC107" stroke-miterlimit="10" d="M1897.2 1726.3c10.3-3.2 16.9-9.5 22.2-18.1 4.1-6.8 8.8-13.2 14.2-19.1 7.1-7.5 12.1-6.6 19 1.3 8.1 9.2 9.1 19.9 5.6 30.9-4.7 14.7-12 28-23.6 38.8-23.1 21.6-40.1 47.1-47.8 78.1-1 4-1.2 8.2-1.8 12.3 11 1.7 15.7-.6 18.6-10 2.4-8 7.3-14.1 12.8-20 3.5-3.8 7.8-6.9 13.1-5.7 6.2 1.4 9.2 6.5 10.3 12.4 1.7 8.9 1.8 17.9-1.9 26.5-1.7 4-4 7.8-4.8 12-.6 3.2 0 6.4 1.6 9.2 2.2 3.4 6.2 2.2 9 .3 7.2-4.8 14-10 21-15.1 2.7-2 4.9-4.6 7.8-6.1 7.5-4.1 14.6-1.9 18.2 6 3.8 8.6 6.1 17 2.1 26.8-5.2 12.9-8 26.8-16.2 38.4-7.5 10.5-16.5 19.3-29.4 22.7-14.5 3.8-28.6 8.5-43.7 10.4-11.6 1.5-22.9 4.7-33.5 9.7-21.5 10.1-35.9 27-42.2 50.4-2.2 8-.7 15.8.9 23.7 1.2 5.5 2.2 11.1 2.9 16.7.5 4.3-2.3 6.5-7.6 7.1-4.2.5-6.6-1.5-6.7-5.5-.2-8.1-2.5-15.4-5.3-23-1.9-5.1-1-11.9.4-17.5 1.9-7.4 4.6-14.6 8.1-21.4 6.1-12.1 15.9-21.2 25.9-30.1 17.2-15.1 38.3-20.9 60-25.3 14-2.9 27.9-6.6 41.9-9.4 12.8-2.6 20.3-11.2 25.1-22.2 4.2-9.7 6.9-20.2 10.2-30.3.5-1.6.8-3.2.8-4.9 0-4.4-.1-9-4.9-11.1-4.3-1.9-7.4.4-10.7 3.2-6.8 5.8-13.9 11.4-21.2 16.6-5.8 4.1-12.6 7.2-19.5 2.8-6.7-4.3-7.2-11.9-6.6-18.8.4-5.2 3-10.1 4.4-15.2 1.7-6.1 3.4-12.1 4.3-18.3.3-2-1.6-5.6-3.4-6.3s-5.5.7-6.6 2.4c-2.9 4.3-5.7 9-7 13.9-3.2 11.8-15.6 21.3-27.6 20.2-6.2-.6-10.7-4.1-12.4-10-1-3.4-1.8-7.5-.9-10.8 5.2-18.9 9.9-38.2 21.3-54.6 10.7-15.3 22.5-29.8 36.3-42.4 10.2-9.2 14.9-21.1 17.7-33.9 1.1-5.2 2.9-11.6-3.5-15.3-3.4-2-9.3 1.7-12.5 9.2-5.3 12.2-14.3 20.7-24.3 28.6-1.3 1.1-2.6 2.1-4 3-8.1 4.6-13.7 2.8-17.7-5.7-4.9-10.2-4.6-20.7-2-31.3 3-11.9 6.1-23.9 9.7-35.6 4.1-13.2 2.9-26.3.3-39.5-.4-2-1.1-3.8-2.1-5.6-4.2-7.2-10.1-7.8-14.8-.9-6.5 9.6-9.2 20.7-9.9 32.1-.8 12.3-.4 24.6-.7 37-.3 15.2-4.9 28.8-15 40.3-7.5 8.5-17.6 10.7-28.2 9.9-10.3-.8-15.6-6.2-16.1-16.9s.3-21.3.4-31.9c.1-6.3.3-12.6-.3-18.9-.3-4-1.6-7.8-3.7-11.2-4.8-7.2-10-6.7-14.1.8-4.2 7.7-7.3 15.7-3.8 24.7.1.3.2.7.2 1 2.3 23.2 4.5 46.4 6.8 69.5 1.4 13.6 2.7 27.1 4.5 40.6 1.6 10.6.1 21.4-4.2 31.2-4.4 10-17.7 16.3-29.4 14.6-9.6-1.4-17.2-8.6-19-23.9-1.3-10.8-.6-21.9-1-32.9-.2-6.7-1-13.3-5.8-18.6-5.1-5.6-9.9-5-11.4 2.3-1.7 7.7-2 15.8-2.2 23.7-.3 10.9 1 22-.1 32.8-.8 6.6-3.2 12.9-7 18.4-8.4 12.2-21.7 13.3-31.7 1.1-4-4.9-6.7-11.7-8-18-3.2-16-3.1-32.6.2-48.6 3.7-18.4 8.3-36.3 15.8-53.5 3.9-8.9 3.8-18.2 2.5-27.5-1.3-10.3-9.3-18.5-19.5-20.1-2.5-.2-5.1.6-7 2.3-2 1.8-3.3 4.2-3.7 6.9-1.1 14.2-2.2 28.5-2.5 42.8-.2 7.6 2.1 15.2 1.5 22.7-1 11.9-2.8 23.7-5.6 35.3-1.5 6.3-5.3 12.1-8.6 17.8s-8.9 8.6-15.7 9.2c-15.4 1.4-24.8-5.1-28.7-20.1-2.4-9.3-1.4-18.5 1.8-27.5 1.7-4.7 3.3-9.4 4.8-14.2 2.1-6.8-.5-12.5-4.8-17.4-2.8-3.3-5.8-3.1-8.2.6-1.5 2.5-2.6 5.3-3.2 8.2-3 13.4-2.3 27-2.6 40.6-.3 17.2 2.7 33.7 6 50.4 3.2 16.3 12.3 28.5 24.1 39.1 13.5 12.4 28.2 23.3 44 32.5 5.7 3.3 10 8.8 15.5 12.5 7.7 5.2 15.8 9.7 23.9 14.2 11.3 6.4 23.2 11.8 33.9 19 15.9 10.8 29.3 24.1 25.7 45.8-3.3 20.2 8 34.1 19.4 48.2.8 1 2.1 1.7 3 2.7 2.6 3 6 5.9 4.1 10.4s-6.2 2.6-9.7 3.2c-9.8 1.6-16.6-2-21.1-11-3-5.9-8.7-10.8-10.1-16.9-3.1-13.2-6.3-26.8-2.8-40.5 2.4-9.2-.9-14.8-8.1-20.4-18-14-37.9-24.6-58-35.1-7-3.7-13.5-8.6-20-13.2-11.7-8.3-23.6-16.2-34.6-25.3-14-11.7-28.8-23.3-37.2-40-4.6-9.1-7.2-19.4-9.1-29.4-4.9-25.3-4.9-50.9-2.1-76.5 1.3-12.2 4-23.6 14.3-31.8 7.7-6.1 16.5-6.2 23.1 1 7.4 8 10.9 17.5 8.7 28.4-1 4.9-2.4 9.7-4.2 14.3-3.1 8.1-2.8 16.4-1.6 24.7.6 4.5 2.5 8.3 7.6 9.4 4.8 1 8.4-1.1 11.4-4.6 5.2-6.1 7.4-13.5 8-21.2 1.3-15.6 2.6-31-.3-46.7-1.6-8.6 1-17.9.7-26.8-.4-10.6 2.9-19.5 8.7-28.1 7.9-11.8 16.6-14.4 28.7-7.3 6.5 3.8 12.2 9.1 18.6 13.3 3.9 2.6 6.5 6.9 7 11.6 1.8 11.9 2.2 23.9-2.6 35.4-9.6 22.9-15.6 46.6-17 71.5-.7 11.5-.1 22.6 3.3 33.5.8 2.5 2.9 6 5 6.4 4.1.8 7-2.6 7.6-6.4 1.2-7.5 2.8-15.2 2.1-22.6-1.3-13.1-1.5-25.8 2.3-38.6 1.9-6.8 5.7-12.9 11.1-17.5 6.5-5.4 13.2-4.6 19.7.9 14.3 12.1 15.9 28.1 15.3 45.2-.2 7 .2 13.9 1.2 20.8 1.3 9.2 8.8 12.2 16.7 7.3 5.1-3.1 7.1-7.9 6.8-13.6-.8-13.6-1.4-27.3-3-40.8-2.4-21.5-6.5-42.8-8.1-64.3-1.2-16.7-3.3-34 3.5-50.2 1.9-4.9 4.6-9.5 7.9-13.6 6.8-7.7 13.7-7 21.8-.7 17 13.1 19.2 30.8 17.5 50.2-.8 8.2-1 16.5-.7 24.8.4 7.5 3.3 9.1 10.5 7.3s11.9-6 15.3-13c6.3-13 4.8-26.6 5.2-40.2.5-13.2.2-26.7 2.6-39.6 2.1-11.7 8.9-22 18.8-28.6 8-5.3 21.7-1.7 27.3 7.2 4 6.5 7.1 13.2 7.4 21.4.7 15.8-.2 31.1-5.3 46.3-3.2 9.4-5.2 19.3-7.5 29-1.6 7.2-1.4 8.5 1.5 16.8zm781.4-50.9c-16.3 10.3-33.4 19.1-52.7 22.1-21.1 3.3-42.4 3.3-63.6 1-41.4-4.5-82.9-6.6-124.5-3.3-12.9 1-25.9 2.2-38.9 2-11.2-.1-22.5-1.9-33.7-3.3-2.6-.5-5.1-1.6-7.1-3.3-6-4.2-11.8-8.7-17.3-13.5-14.4-13.1-24.6-29-27.9-48.2-2.6-14.5-1.5-29.4 3.3-43.4 1.8-5.1 6.5-9.2 10-13.6 4.2-5.2 8.6-10.2 12.7-15.4 9.1-11.4 20.6-19.5 33.4-26.4 17.2-9.3 34-19.7 50.6-30 16.9-10.4 28.2-26.1 38.7-42.5 16.6-25.8 33.9-50.9 56-72.4 5.4-5.4 11.3-10.3 17.7-14.7 29.6-19.5 59.6-38.1 96.7-39.4 12.6-.4 25.2-.8 37.8-1 2.7.1 5.3.5 7.8 1.4 8.5 2.5 9.3 4.3 6.5 14.5-2.1-.3-4.3-.4-6.5-.9-30-6.6-58.9-2-87.1 8.9-20.9 8-40.2 19.7-57 34.4-11.7 10.2-22 22.3-31.4 34.7-15.1 19.8-29 40.6-43.4 61-7.8 11.2-18.2 20.5-30.2 27.2-18.1 10-36.1 20-53.7 30.8-19.4 12-33.4 29.3-44.5 48.9-1.4 2.6-2.3 5.5-2.6 8.5-2.2 18.6.2 35.9 10.6 52.5 8 12.8 20 20.2 31.1 29 5.7 4.6 13.1 4.8 20.1 4.8 15-.2 30-.7 44.9-1.4 35.6-1.7 71.2-2.6 106.7 2 20.1 2.6 40.4 3.7 60.7 5 21.3 1.4 40.6-5.3 59.3-14.8 3.8-1.9 7.9-3.5 12-4.6 1.6-.4 3.6.6 5.4 1l.1 2.4z"/><path fill="#FFC107" stroke="#FFC107" stroke-miterlimit="10" d="M2363.6 1635.3c3.6 0 6.2-.1 8.7 0 11.7.6 17.2-3.3 22.6-13.9 4.6-9.2 10.1-17.9 15.6-26.6 7.1-11.2 18.4-14.6 30.7-15.9 5.9-.7 12-1.4 17.9-1.1 23.9 1 36.3-13.7 45.1-32.9 4.2-9.1 8.4-17.9 15.2-25.6 7.4-8.3 16.3-12.2 26.9-13.4 2-.2 4-.1 6-.4 9-1.4 13.6-7.6 12.7-16.9-.3-3-.4-6-.9-8.9-1.9-12.2 3-22.2 10.4-31.2 3.9-5 9.7-8.2 16.1-8.8 7.2-.8 14.3-3 21.1-5.6 9.7-3.7 14.4-12.3 19-20.9 7.7-14.3 19.6-22.4 36.1-22.5 3.6-.1 7.2.7 10.5 2.2 3.2 1.7 6.1 5.1 4.2 9.1-1.8 3.6-5.6 2.9-8.8 1.3-6.3-3.1-12.1-1.5-18.2.9-8.2 3.2-12.9 9.4-15.5 17.2-3.6 11-11.4 17.9-21.4 22.2-6.4 2.7-13.2 4.5-20.1 5.5-13.4 2.2-23.2 13.8-22.3 27.2.4 5.3.9 10.6 1.3 15.9.9 13.1-6.7 23.4-19.8 24.1-20.5 1.1-31.7 12.7-39.6 30-4.4 9.3-9.5 18.2-15.3 26.8-6.6 10.1-16.4 15.3-28.6 15.8-7.3.3-14.6.7-22 .5-18.9-.6-31.4 9-39.8 25-2.1 4.1-4 8.4-5.5 12.8-5 13.8-18.2 21.4-32.4 18.3-4.5-.8-8.6-2.7-9.9-10.2z"/><path fill="#FFC107" stroke="#FFC107" stroke-miterlimit="10" d="M2690.6 1441.8c-1.3.3-2.8 1-4.2 1-17.7-.5-29.7 8.5-33.2 26.1-1.8 8.4-2.6 17.1-2.3 25.7.9 18.8-7.3 27.4-24.7 31.9-5.8 1.5-11.8 2.1-17.6 3.6-4.5 1.3-8.8 3-13 5.1-7.3 3.6-12.2 9.1-12.8 17.7-.1 2.3-.9 4.6-1.3 6.9-.7 4.8.2 10-4.2 13.9-5.9 5-11.7 10.1-19.6 11.3-4.9.7-9.9 1.1-14.9 1.5-7 .6-13.7 2.9-19.5 6.8-6.7 4.5-11 9.8-13.4 17.8-4.5 15.1-17.7 23.5-33.3 23.6-9.6.1-19.2 1-28.7 2.7-9.2 1.6-17.1 5.7-19.4 16.1-.9 4.1-3.9 6.2-8.2 5.5-4.5-.8-6-4.2-5.6-8.2.4-3.5 1.3-7.3 3.2-10.2 5.9-8.9 14-15.2 25.1-16.4 9.6-1 19.2-1.5 28.8-2.5 4.6-.3 9.2-1.3 13.6-2.9 5.7-2.2 10.1-6.6 12.3-12.3 3.5-8.5 7.2-16.6 15-23 8.2-6.7 17.4-7.7 26.8-9.3 4.2-.8 8.6-.7 12.9-1.2 9.8-1.3 15.4-6.9 17.1-16.7.7-4.2 1.2-8.6 2.4-12.7 4.7-15.2 17.8-20.8 30.9-25.8 5.9-2.2 12.3-2.9 18.5-4 14.3-2.7 18.1-8 17.7-22.5-.6-21.8 5.6-40.8 24.7-53.7 8.1-5.5 16.4-4.5 24.7-.9 1.1.5 1.8 1.8 2.5 2.9.2 0-.2.9-.3 2.2zm-7.1-63.7c-2.1-.9-3.9-1.5-5.5-2.3-2.9-1.6-5.6-4.5-8.6-4.7-23.1-1.7-43.8-2.4-60.1 19.7-2.2 2.9-4.2 6-6.3 9-9.8 14.8-23.3 22.1-41.3 21.3-5-.1-9.9.5-14.7 1.9-10.4 2.7-16.4 8.9-16.3 20.7.1 7.2-1.7 14.5-3.2 21.6-2.6 12.3-10.9 20.4-21 26.7-6.5 4.1-13.5 7.2-20.2 11-8.1 4.7-13.4 10.6-10 21.2 1.1 3.3 0 8.1-1.7 11.3-6.1 11.3-14.6 19.5-28.6 20.4-9.6.7-19.2 2-28.7 4-5.8 1.3-11.5 3.2-17 5.6-5.8 2.5-8.1 6.7-7.1 13.6 2.2 15.7.6 17.5-13 25.4-6.9 3.9-13.1 8.9-19.6 13.4-1.3 1-2.7 1.9-4.2 2.6-3.5 1.4-6.5-.3-6-3.9.4-3.3 1.7-7.5 4.1-9.4 5.8-4.4 12-8.2 18.4-11.5 9-4.8 9.8-5.7 8.7-15.3-1.5-12.4 2.2-19.3 13.3-25 12.1-6.2 25.7-6.6 38.7-9 5.3-.8 10.5-1.9 15.6-3.2 10.7-3.1 14.1-7.5 14.1-18.7 0-9.3 1.4-18.1 8.7-24.6 4-3.5 8.4-6.6 12.9-9.3 4.5-2.9 9.2-5.5 14-7.7 13.1-5.8 18.9-16.2 19.5-30 .1-3.3.6-6.6.6-9.9.3-18.7 12.9-26.7 29.8-31 3.6-.8 7.2-1 10.9-.5 15.9 1.7 28.6-3.9 35.9-18 7.1-13.7 17.9-22.2 31.8-26.9 13.4-4.4 27.5-5.3 41.2-1.7 5.4 1.4 9.9 6.3 14.7 9.8.8.1.3 1.6.2 3.4zm-220.3 288.7c.2-7.1 4-11.5 8.1-15.1 5.5-4.7 11.7-8.6 17.8-12.7 8-5.4 16.2-4.7 24.6-.8 4.2 2 8.6 3.6 13.1 4.7 14.6 3.3 25.1-1.2 33.1-13.9 3.9-6.2 7.6-12.5 11.3-18.8 7.6-12.9 19.8-20.6 32.4-27.1 4.2-2.2 10.5-1.3 15.5-.3 7.4 1.4 13.8 0 20.2-3.2 8-4 11.2-10.9 12.1-19.3.9-9.7 5.4-18.7 12.6-25.3 3.4-3.1 7.3-5.7 11.6-7.6 5.9-2.8 10.2-1.4 16.9 4.7-2.9 1.8-5.4 3.8-8.2 4.9-13.2 5.2-20.8 14.4-22.5 28.8-2.7 22.6-18.9 33.7-41.9 29.3-6.6-1.4-13.5.3-18.7 4.7-11.4 9.3-21.8 19.2-28 33.2-4.6 10.4-11.5 19.3-23.8 22.6-7.4 1.9-14.4 2.3-21.6.2-5.7-1.7-11.3-3.8-16.8-6-5.2-2.1-10.5-2.8-15.4-.2-6.7 3.5-13.1 7.6-19.5 11.7-3.7 2.2-6.5 6.4-12.9 5.5zM2601.9 839c7.6-1.9 13.1-5.9 17.9-11.1 11.9-12.9 23.9-25.8 35.7-38.9 4.2-4.6 8.6-7.2 15.3-4.3.6 5.8-2.8 9.6-6.5 13.5-17.5 17.8-34.9 35.6-52.3 53.5-1.3 1.5-2.7 2.9-4.2 4.2-6.9 5.4-11 4.3-14.7-3.5-8.8-18.2-13.7-37.3-16.2-57.3-1.5-12 .8-23.1 5.9-33.9 1.5-3.2 3.2-5.1 7.1-6 4.3-1 8.1-3.9 12.2-5.9 3.8-1.9 7.8-3.6 11.5-5.6 16.7-9.2 31.8-20.2 41.4-37.4 1.5-3 3.2-5.8 5.2-8.5 1.9-2.4 4.4-4.2 6.6-6.3l2.2 1c.2 3.5 1.3 7.1.5 10.3-2.3 9.5-5.6 18.6-13.4 25.1-9.5 7.9-19.1 15.3-30.6 20.3-9.1 4.1-18 8.6-26.6 13.7-2.8 1.7-4.9 4.3-6.1 7.4-1.7 5.4-2.9 10.9-3.6 16.5-2 13.5 4.3 39.8 12.7 53.2zm53 171.2c6.6-2.8 9.2-6.3 10.2-11.2.7-3.3 1.5-6.5 2.6-9.7 2.3-7.1 4.3-7.7 11.7-3.3 3.5-13.7 2.3-7.3 2.3 10l-4.2-3.9c-1.1 2.3-2.5 4.1-3 6.1-2.6 9.6-9.3 16.1-16.6 21.9-6.8 5.3-12.2 3.3-15.6-4.6s-7.1-15.7-11.1-23.3c-10.6-20.2-18.7-41.1-20.8-64-.6-6.1.8-11.1 6-14.9 13.2-9.8 20.6-24.2 29.4-37.4 5.7-8.6 10.9-17.5 16.4-26.2 3.2-5 6.6-9.9 9.9-14.9 2.9 5.9 3.3 13.2-.7 19.1-14.3 20.8-25 44.1-43.1 62.2-3.2 3.2-3.9 6.9-3 11 5.4 23.2 9.2 47 22.1 67.8 2.7 4.6 4.8 9.8 7.5 15.3zm-10.4 638.7c-4.7-.4-9-1.1-13.3-1.2-10.4-.3-15.9 3.4-20 13.1-.4.9-.7 1.9-1 2.8-1.2 4.2-4.1 6.3-8.2 5.1-4.4-1.3-3.6-5.2-2.5-8.3 1.6-4.7 3.2-9.6 5.9-13.6 6.8-10.1 16.6-13.5 28.6-11.3 3.9.7 7.9.9 11.8.4 11.3-1.4 16.1-6.2 16.4-17.5.2-11.5 7.1-18 15.7-23.7 4.3-2.8 9-2.1 13.4-.5 1.4.7 2.3 2.1 2.5 3.7 0 1.3-1.6 2.5-2.6 3.7-.3.2-.6.3-.9.3-17.2 6.1-17.7 6.8-18.9 24.2-1.4 15.9-9.1 20.3-26.9 22.8zm-778-256.2c-.9 7.1-3.8 14.6-12.1 18.7s-14.8.9-15.8-8.1c-1.1-9.6 3-17.4 10.1-23.6 3.7-3.2 8.1-2.1 12.2-.2 4.4 2.2 5.8 5.3 5.6 13.2z"/><path fill="none" stroke="#FFC107" stroke-miterlimit="10" d="M2400.6 436.1c-.8 1.9-1.5 3.8-2 5.8-4.9 24.9-10.2 49.7-22.3 72.2-7.9 14.6-17 28.6-26.1 42.5-5.9 8.9-11.9 17.5-15.4 27.8-3.3 9.7-7.4 19.2-11.4 28.6-9.5 22.9-12 46.8-11.6 71.3.2 12.6-1.6 25.2-2.4 37.8s-2.1 25.2-2.3 37.8c-.4 23.6-.7 47.2-.2 70.8.3 14.6 1.4 29.2 3.5 43.7 4.2 30.1 12.6 59.1 18.8 88.7 2.4 11.4 3.5 23 5.1 34.6.3 2 .2 4.1.9 5.9 7.4 19.4 7.5 39.8 8.6 60 1.1 21.2 1.7 42.4 2.2 63.7.1 6.3-.7 12.6-1.1 18.9-.3 5-.3 10-.6 14.9-1.1 16.9-2.1 33.8-3.4 50.7-.3 2.4-1.5 4.6-3.5 6-.1-2.1-.4-4.2-.4-6.3.2-16.2-.4-32.5 2.5-48.6.3-2 .2-4-.1-6-2.3-18.8-4.1-37.7-7.1-56.4-1.5-9.5-4.9-18.7-7.7-27.9-3.9-13-7.6-26.1-12.3-38.9-5.4-14.5-7-29.6-8.9-44.7-1.1-9.2-1.3-18.5-5.2-27.3-1.3-2.8-.5-6.5-1-9.8-2.3-15.3-3.9-30.7-9-45.4-.3-.9-.9-2.1-.6-2.8 4-10.3-1.4-20.1-1.7-30.2-.2-7.8-2.9-15.6-4-23.5-2-13.4-3.4-26.9-5.4-40.3-2.3-15.7-4.8-31.5-7.5-47.1-1.3-7.5-2.5-14.9-1.4-22.7.8-5.4-.8-11.2-1.6-16.7-.7-4.6-2.7-9.1-2.9-13.6-1.1-25.6-5-51.1-1.2-76.7 1-7.3 2.6-14.4 4.9-21.4 5.5-16.3 11.5-32.6 17.8-48.7 2.3-5.9 5.3-11.5 9.2-16.5 9.9-12.8 18.5-26.6 30.4-38 11.2-10.8 21-23 30.9-35.1 8.6-10.2 16.5-20.8 23.9-31.9 5.4-8.3 9-17.7 13.3-26.6.7-1.5.7-3.3 1.4-4.8 8.6-18.3 7.5-36.8.9-55.4-.6-1.7-.4-3.6-.6-6.5 7.5 2.6 12 7.5 16.6 12 22.3 21.8 32.6 48.9 34.1 79.6.7 14.3.6 28.6.8 42.8 0 1.3-.2 2.7-.5 4-6.4 32.4-13 64.6-27.4 94.7-4.9 10.2-7.1 21.6-11.7 31.8-7 15.5-14.9 30.5-22.6 45.6-16.2 31.5-31.3 63.4-36.2 98.8-2.3 15.4-3.5 31-3.6 46.6-.1 30.3 1.2 60.5 7.2 90.3 2.9 14 4.4 28.3 7.4 42.3 5.1 23.2 4.9 46.8 6.6 70.3.9 11.6 2.9 23.1 4 34.7 2.4 24.8 5.6 49.6 6.5 74.4.7 19.5-1.6 39.1-10.5 57.8-3.3-5.1-2.9-10.4-2.6-15.4.8-12.7 1.3-25.2-1-37.8-.6-3.5-.1-7.3.5-10.9 1.8-11 .8-21.8-.7-32.8-2-14.1-2.4-28.5-4-42.7-.8-7.6-2.5-15.1-3.9-22.6-3.6-19.6-6.9-39.4-11-58.9-5.6-26.4-12.5-52.5-17.4-78.9-2.5-13.6-2.5-27.8-2.7-41.8-.4-23.3-.5-46.6-.2-69.9.1-10.9 1.4-21.9 2-32.8.6-10.3 1.1-20.6 1.7-30.9 1-17.3 1.2-34.6 3.3-51.8 1.2-10.5 5.3-20.6 8.1-30.8 8.5-30.3 25.8-56 42.3-82.1 12-19.1 18.4-40.5 23-62.5 1.4-6.5 3.1-13 3.9-19.6.7-5.3 3-11.9-5.4-15.4zm-88.4 799.9c-7.2-12.8-13.8-24.3-20.1-35.8-6.6-11.9-13.4-23.7-19.2-36-8.7-18.2-21.9-33.2-33.8-49.2-6.5-8.8-14.4-16.5-21.4-24.9-14.2-17.1-28.2-34.4-42.6-51.4-8.8-10.4-18.6-20-27.4-30.4-9.8-11.7-19.5-23.4-28.3-35.9-11.6-16.6-23-33.4-33-51-6-10.5-9.8-22.5-13.5-34.2-6.8-21.3-9.6-43.5-11.2-65.6-1.7-24.2-.4-48.5-.3-72.8 0-7 .5-13.9.2-20.9-.7-14.9 1.4-29.8-2.5-44.6-1.7-6.4-.7-13.5-2.9-19.7-5.1-14.3-11.4-28.2-17.2-42.3-.7-1.7-.9-3.7-1.6-6.5 3.8.4 6.8.2 9.4 1.2 13.4 4.9 26.9 9.8 40 15.5 5.3 2.3 9.8 6.9 14.5 10.5 18.7 14.3 35.2 30.4 45.6 52.1 3 6.3 7 12.1 10.7 18 12.4 19.4 16.5 41.1 18.4 63.5 1.6 17.9 2.7 35.8 5.1 53.6 3.1 22.7 6 45.6 11.6 67.8 3.7 14.5 9.9 28.3 18.3 40.7 16.6 24.4 35.3 47.4 53.1 71 7.6 10.1 15.9 19.8 22 30.8 7.1 12.6 12.2 26.4 17.9 39.8 6.7 15.4 9.3 31.9 11.4 48.4 1.7 13.2 2.3 26.5 3.2 39.8.2 2.8-.5 5.6-1 10.9-3-7.8-4.9-13.3-7.3-18.7-7.7-17.3-14.2-35.2-23.6-51.6-17-29.7-34.1-59.3-55.8-86-12.5-15.5-23.5-32.2-35.2-48.3-2.9-4-6.3-7.7-9.3-11.7-8.2-10.8-16.6-21.5-24.4-32.6-8.6-12.2-17-24.6-24.6-37.4-8.9-15.1-18.3-30-18.4-48.8-.2-20.6-2.4-41.2-2.8-61.8-.5-27.2-6.9-53.4-12.2-79.7-.9-4.6-1.5-9.2-2.6-13.7-.9-4.2-2.2-8.4-3.7-12.4-.8-1.4-2.2-2.3-3.8-2.4-1.2.1-3.2 1.8-3.3 2.9-.3 8.2-1.8 16.8-.1 24.6 5.8 25.7 10.8 51.5 12.1 77.8 1 21.2 2 42.4 2.4 63.7.3 17.5 5.7 33.3 15 47.8 15.5 24 30.8 48.2 47.4 71.6 8.4 11.8 19.4 21.8 26.8 34.7 9.6 16.8 23.6 30.4 34.7 46.1 11.3 16 21.2 32.9 31.4 49.6 5.7 9 10.9 18.3 15.6 27.8 5 10.4 9.4 21.3 13.5 32.1 5.8 15.6 11.1 31.3 16.7 47 2.6 7.1 5.9 14 8.2 21.2 1.6 4.3 3.4 9.4-2.1 15.8zM1282 1671.3c0 5.4.1 8.9 0 12.4-.3 6.6-1.1 13.3-1.2 19.9-.2 7.2 1.5 13.7 7.8 18.6 2.5 2 4.2 5.1 7 8.7 6.2-1.6 13.1-2.9 19.5-5.4 3-1.2 5.3-4.6 7.4-7.4 3-3.9 5.6-8.1 7.8-12.4 2.9-5.9 5.8-11.8 7.6-18.1 3-10.5 5.1-21.3 7.7-32 .3-1.1 1.4-2.1 2.2-3.1.9.5 1.9.8 1.9 1.1-.1 10.9-1 21.8-.4 32.6.5 9.2.6 19.2 4.4 27.2 3.1 6.5 10.6 12.1 17.5 15.2 7.3 3.3 14.2-1.6 18.9-7.8s9-13.1 13.3-19.4c4.6 3.8 8.9 8.5 14.1 11.6 8.6 5.2 14.8 3.2 20.3-5.1 1.7-2.5 3.1-5.2 5.2-7.3 4.4-4.4 8.2-3.3 10.1 2.7 1.1 3.5 2.1 7 2.9 10.6 2.3 10.9.9 13.2-8.9 19.1-12.7 7.7-26.6 12.1-40.9 15.4-4.8 1.1-9.3 3.4-13.7 5.8-3.3 1.8-5.6 5-4.4 9.2s4.9 3.9 8.3 4.1c10.6.5 20.4-2.5 30-6.4 8-3.2 15.9-6.8 23.9-10.2 1.1-.5 2.5-.4 5.4-.9-1.8 12.6 2.1 25.8-8.5 34.9-6.1 5.2-14.3 8-21.8 11.6-2 1-4.6.8-6.8 1.5-5.7 1.7-6.1 2.8-4.8 10.9 8.3 2.4 16.1 1.1 23.8-2.9 5.3-2.7 11.3-7.1 16.3-6.3s8.7 7.3 12.8 11.5c9.2 9.6 10.8 22.3 4.3 33.8-3.2 5.4-6.7 10.7-10.5 15.7-2.9 4-6.9 6.1-12.1 5.1-9.8-1.9-19 .5-28.5 2.6-14.9 3.2-30.2 4.9-45.2 8-14.3 3-28.5 6.6-42.5 10.8-13.4 4-26.2 5-40 .7-23.1-7.2-46.8-12.6-70.2-18.8-12.7-3.4-25.1-.7-37.6 1.2-2.3.5-4.6.9-6.9 1.1-8.4.3-13.2-3.8-13.7-12.2-.5-6.9-.9-14-.2-20.9 1.7-17.1 13-27.9 26-37.2 2.2-1.6 4.7-2.6 6.9-4.1 9.4-6.6 18.3-5.7 28.9-1.4 11.8 4.6 24.1 7.4 36.7 8.4 11.8 1 23.9-.9 35.8-1.8 5.6-.4 10.2-2.9 12.9-8.1 3-5.7 1-8.9-5.5-8.7-1.3.1-2.6.3-3.9.7-22.1 4.4-43.7 2.2-65-4.4-7.9-2.5-11.6-6.9-11.5-15.3.1-6.5 1.4-13 2.2-19.5.1-1 .7-2 .5-2.9-2.9-19.7 7.6-35.2 16.7-50.8 2.3-4.1 6.9-7.4 11.2-9.7 7.6-4.5 16-7.7 26.5-12.2z"/><path fill="none" stroke="#FFC107" stroke-miterlimit="10" d="M2462.8 1127.8c-19.6 17.1-37.5 33.3-56.1 48.6-7.8 6.4-16.9 11.2-25.8 16.9-3.4-5.3-1.4-9.4-.1-13.3 6.1-18.8 10.6-37.8 12.2-57.5.7-8.5-.1-17.2-.6-25.8-.4-6.9-1.4-13.8-2.1-20.8-1-10.8-2.1-21.7-2.9-32.5-1.2-14.9-2.2-29.8-3.3-44.7-1.3-17.5-2.5-35.1-4.3-52.5-.6-5.5-2.5-11.1-4.7-16.2-3.8-9.1-.9-18.7-3-28-3.6-16.2-6.7-32.5-9.3-48.9-1.1-7.2-.5-14.6-.6-21.9-.1-5-.1-10-.2-14.9-.9-39.2 2.2-77.7 18.4-114.1 7.3-16.3 14.4-32.8 21.9-49.8 3.5 1.2 6 1.8 8.2 2.9 5.4 2.7 10.7 5.4 15.9 8.5 19.4 11.3 40.5 14.5 62.5 13.7 9.6-.4 9.6-.6 13 8.4 1.1 2.8 2 5.6 2.8 8.5 3.8 14.8 7.4 29.7 11.1 44.5 2 8.3 1.7 9.7-6 13.5-14.3 7-28.6 14.1-43.4 20.2-14.9 6.2-25.3-.3-28-16.1-1.7-10.2-3.4-20.3-5.6-30.4-3.2-14.4-15.6-18.6-27.2-9.5-1.9 1.4-3.5 3.1-4.9 5-13.1 19.2-20.3 38.8-11.8 62.7 5.2 14.5 14.5 23.3 25.7 32.7 16.2 13.6 33.6 16 53.2 12.7 7.2-1.2 14.5-2 21.8-2.9 3.2-.4 6.4-.5 10.3-.7-.2 1.9-.5 3.8-.9 5.7-6.9 20.8-4.6 42.2-4 63.4.1 4.4-1.2 7-4.5 9-5.9 3.7-11.8 7.5-17.7 11.1-8.2 4.9-13.1 3.5-17.3-5.3-4.8-10.2-11.2-18.2-23.5-19-2.6-.3-5.3-.2-7.9.3-11.8 2.9-23.9 19.5-23 31.6.5 6.6.2 13.5 2.2 19.7 4.7 14.8 16 24.5 29.4 31.1 20.1 10 41.4 11.7 63.2 7.2 1-.2 2-.2 3-.1.3.1.6.2.9.4.3.2.5.4.7.7.2 14.1 3 28.1.2 42.2-1.7 8.8-3.2 17.6-4.3 26.5-1.8 14.6-8.8 19.9-23.2 16.8-8.6-1.8-15.9-4.8-21.4-13-5.2-7.6-14.4-10.5-23.9-9.9-6.4.4-8.2 6.2-10.1 11.1-1.5 4.1-2.6 8.3-3.1 12.6-.4 3.2-.6 6.8.7 9.6 4 9.1 8.7 17.9 13.3 26.7 5.9 11.5 17.4 15.7 28.1 21 1 .3 2.5.8 6 2.3zm-410.3-23.5c.7 5.5 1.9 11 2 16.6.3 19.6 0 39.2.4 58.9.4 14.6 1.6 29.2 2.4 43.8.4 7 .3 14 1.4 20.9 4.8 31.6 3.7 63.7 8 95.2 3.5 26.2 1.1 52.5 3.2 78.6.5 5.6 1.5 11.2 3 16.6.6 2.1 3.7 5.2 5.1 4.9 2.4-.4 5.5-2.8 6.2-5.1 1.1-4.2 1.5-8.5 1.1-12.8-.5-8-1.6-15.9-2.3-23.8-.2-1.7-.6-3.6 0-4.9 6.3-14.8 4.8-30.7 7.2-46.1 3.7-23.6 7.4-47.2 10.4-70.8 1.6-12.5 1.6-25.2 2.6-37.7 1.2-14.9 2.6-29.7 4.1-44.6.1-1.5 1.1-3 1.9-5.2 1.9.7 3.7 1.6 5.5 2.5 9.2 5.5 24.8-.1 31.6-8.3 4-4.8 3.2-11.8-1.4-16.3-5.5-5.7-14.1-7.2-21.2-3.7-2.3 1.1-4.5 2.4-7.1 3.8.2-7.8 4.8-13.2 12-14.8.7-.1 1.3-.2 2-.2 18.5-2.3 24.6 2.7 24.9 21.3.1 6.6-1.2 13.2-1.6 19.9-1.6 26.6-2.7 53.2-4.6 79.7-1.2 17.2-3.7 34.4-5.4 51.6-2.1 20.8-4 41.7-6.1 62.6-.9 9.6-1.7 19.2-3.1 28.8-1 6.8-4.2 11.9-11.6 14.7-12.6 4.9-24.9 10.8-37.5 15.9-21.2 8.5-41.2 20-61.7 30.2-2.6 1.3-5.3 2.2-7.8 3.2-5-5.1-5.8-9.9-4.7-16.1 2-12.1.5-24.4.5-36.6.1-18.3 1.3-36.5 1.5-54.8.1-11.9-.8-23.9-1.2-35.9-.6-16.3-.9-32.6-1.6-48.8-.5-11.6-1.6-23.2-2.4-34.8s-1.6-23.2-2.3-34.8c-1.2-20.6-1.8-41.2-3.8-61.7-1.5-15-1.9-29.8 0-44.7 3.1-24.9 12.6-27.1 34.3-31.6 7.5-1.6 13.2 7 12.7 18.1-1.9-.7-3.8-1-5.1-2.1-8.4-6.8-17.6-5.2-26.5-2-5.2 1.9-8.5 6.4-9.6 12-.4 2.3-.6 4.6-.6 6.9-.3 11.5 4.9 16.4 16.4 15 10.8-1.3 18.7-6.5 22.7-17 .9-2.3 2.1-4.6 3.1-6.9l3 .4z"/><path fill="none" stroke="#FFC107" stroke-miterlimit="10" d="M2535.8 798.1c3.4 29.3 6.6 57.4 10 85.4 2 15.8 6.9 31 11 46.4 1.9 7.3 2.5 15 4.1 22.4 2 9.3 3.6 18.7 6.4 27.9 5.1 16.5 5.2 34.1 5.2 51.4 0 11-.9 21.9-1.1 32.9-.3 19.3-5.5 37.7-13.6 54.7-5.3 11.1-14.7 20.2-22.4 30.1-1.4 1.8-3.8 3-4.9 4.9-6.3 10.8-16.3 17.3-26.2 24.1-7.6 5.3-14.9 11.2-22.7 16.3-7 4.5-14.2 8.6-21.6 12.4-20.4 10.6-40.8 21-61.4 31.3-13.1 6.6-26.2 13-39.4 19.4-1.4.7-3.1.6-4.7.9.6-17.3 10.7-30 26.2-35.1 18-5.9 36.1-11.8 53.5-19.2 23.5-9.9 44.5-23.9 61-44 9.3-11.3 19.9-21.7 28.1-33.7 14.4-21.1 23-44.9 27.4-70.1 1.5-8.5 2.7-17 4-25.6 2.2-14.6-2.6-28.5-5.9-42.2-3.9-16.4-10.3-32.3-14.5-48.6-2.4-9.2-2.8-19-4-28.6-.4-3-.2-6-.9-8.9-.4-1.7-2-4.3-3.2-4.4-1.9-.2-5 .9-5.8 2.4-1.8 3.7-3.9 8.2-3.4 12 1.7 12.5 3.5 25.2 7.3 37.1 6.9 21.6 13.9 43.1 16.6 65.7 1.1 9.2 2 18.8.5 27.7-4.6 26.7-11.4 52.8-25.4 76.4-4.7 7.7-10 14.9-16 21.6-8.5 9.8-17.7 18.9-26.7 28.3-1.5 1.8-3.2 3.4-5.1 4.7-14.6 8.5-28.9 17.9-44.2 25.1-12.6 5.9-26.4 9.2-39.6 13.6-1.2.4-2.5.4-4.6-1 6.2-5.2 12.4-10.4 18.7-15.5 11.1-9 22.4-17.7 33.5-26.8 9.5-7.8 18.9-15.7 28.2-23.8 13.9-12.3 24.6-27.5 32.3-43.9 8.7-18.5 16-37.7 19-58.6 2.7-18.8 5.6-37.4 5.2-56.4-.1-6.3-1.1-12.6-1.7-18.8-.3-3-1-6-.8-8.9 1.3-14.1-1.8-27.8-3.2-41.7-1.6-16.2-1.5-32.5-2.5-48.8-.6-11.7.9-23.4 4.5-34.5 3.9-12.5 10.9-23.4 18.6-33.9.5-.9 2.1-1.1 4.2-2.1zm-597.5 459.1c.4 1.2.9 2.4 1.6 3.4 7.2 10.1 10.6 11.5 21.6 6.4 4.7-2.3 8.9-5.6 12.3-9.6 5.4-6.1 4.3-13.1-1.7-18.4-7.7-6.7-17.4-7-25.6-.8-1.6 1.2-3.2 2.4-4.8 3.5-.5.1-1 0-1.5-.1-3.4-4.1-.9-7.7 2.6-9.4 8.6-4.5 17.9-7.3 27.8-6.5 6.8.6 11.7 6.3 12.7 17 2.3 27.1 3.9 54.4 5.4 81.6 1.4 24.9 1.3 50 4.1 74.7 1.8 16 1.3 31.7 1.3 47.6 0 11.6 3.8 21.2 10.1 30.4 1.3 1.9 2.2 4 3.7 6.9-6.2 4.2-12.1 8.3-18.2 12.2-7.2 4.7-14.5 9.3-21.8 13.8-2.2 1.4-4.4 3-6.9 3.8-12.3 3.8-14.4 2.2-19-9.7-6.9-18.1-10.8-37-12.8-56.1-1.8-16.7-1.1-33.7-1.7-50.5-.2-5.6-1.3-11.2-1.2-16.8.5-15.6 1.5-31.2 2.2-46.8.6-13 .6-25.9 1.8-38.8 1-11.9 3.2-23.6 4.9-35.4.2-.6 1.1-.9 3.1-2.4zm663.4-40.4c-4.2 2.1-7.9 4.3-11.8 5.8-39 14.3-78.1 28.2-116.9 42.9-23 8.7-45.7 18.1-68.1 28-10.9 4.8-21 11.3-31.4 17.3-8 4.7-11.1 3.6-13.3-5.5-1.7-7.1-3-14.3-4.2-21.5-1.6-9.2-.9-10.2 7.8-14.5 10.1-5 20.3-9.9 30.2-15.3 11.4-6.2 22.3-13.2 33.8-19.2 15-7.8 30.7-14.3 45.5-22.4 11.3-6.2 21.9-13.7 32.6-21 7.7-5.2 15-11 22.4-16.7 2.1-1.6 4.3-3.4 5.5-5.6 2.9-5.8 7.8-7.7 13.7-8.5 7.9-1.1 15.7-2.4 23.6-3.7 6.3-1 8-.4 10.6 6 3.1 7.7 5.6 15.6 8.5 23.4 3.5 10 7.4 19.9 11.5 30.5zm-383 63c1.4 13.2 2.4 25.1 0 37.4-2.8 14.3-4 29-5.9 43.4-.6 4.3-1.4 8.5-2.3 12.7-2.3 10.5-8 17.7-18.4 21.8-8.9 3.5-17.3 8.5-25.9 12.8-2.3 1.3-4.8 2.4-7.3 3.2-5.4 1.4-7.9-1.6-7.2-7.2 1.6-11.8 3-23.6 4.4-35.4.6-5 1.1-9.9 1.7-14.9.6-5.6 1-11.2 1.8-16.8.7-3.2 1.5-6.4 2.5-9.6 6.2 1.7 11.3 4.5 16.1 4.1 7.7-.6 15-4.2 20.1-10 2.7-2.9 5-6.2 6.8-9.8 2.7-5.2 1.7-11.5-2.4-15.7-4.3-4.1-8.5-1.8-12.9-.3-9.3 3.2-16.3 8.6-20.1 18-1.3 3.2-3.8 5.8-6.3 8.4-.5-9.6.3-18.7 9.1-24.4 12-7.8 24.8-14.2 39-17.4 1.7-.4 3.7-.2 7.2-.3z"/><path fill="none" stroke="#FFC107" stroke-miterlimit="10" d="M2495.4 916.2c1.1 11.8 5.5 22.2 5.1 33.6-.1 4.9-.4 9.9-1.1 14.8-.4 2.2-1.9 5.4-3.7 6.1-5.5 2.2-11.4 4.9-17.1 4.7-12.5-.3-25.2-.9-37.2-5.7-15.8-6.4-25.3-21.5-26.7-38.5-.8-9.8 1.5-17.4 7.2-24.8 6.7-8.8 11.5-8.8 17.2.3 1.1 1.7 2.2 3.3 3.2 5.1 7.5 13.1 13 15.9 27.6 12.9 6.4-1.3 12.4-4.4 18.5-6.6 1.8-.7 3.7-1 7-1.9zM2380 399.4c-.5 9.1-4.1 15.8-8 22.3-1.1 1.8-4.3 3.4-6.6 3.4-26.9 0-54.1.9-80.1-7.7-6.9-2.2-13.5-5.5-19.5-9.7-10.3-7.4-13.2-23.8-7-34 4.4-7.2 7.7-9.1 15.7-6.9 11.2 3.2 22.2 7.7 30.6 16.1 8.8 8.7 19.5 15.2 31.3 18.9 5.8 1.9 12.4 1.6 18.6 1.2 7.9-.5 15.8-2.2 25-3.6zm-39.8 891.7c2.3 8 7.6 15 6.8 24-.8 8.3-1 16.4 1.6 24.6 1.1 3.7.5 7.9.8 11.9.2 2.7 0 5.5.8 7.9 6 18 2.7 36.9 5.5 55.2.8 5.1-1.3 10.6-1 15.8.6 8.6 1.6 17.2 3.1 25.7 1.6 9.6-.8 16.8-9.5 21.8-4 2.3-7.5 5.7-11.6 7.6-6.5 3-10.2-.1-9.7-7.2 2.7-37.4 5-74.9 8.4-112.2 1-11.4-.7-23.3 4.1-34.3.6-1.4-.8-3.7-1.2-5.6-2.3-10-4.6-20-2.4-30.4.5-1.5 1-3 1.8-4.4l2.5-.4zm-1018.5 275.3c3.5-5.8 8.8-8.6 14.6-10.1 12.7-3.3 25.2-4 38.3-.2 11.9 3.5 22.8 8.9 33.6 14.6 3 1.6 5.3 5.9 6.2 9.4 1.2 4.7-3.7 6.2-6.9 7.1-14.1 4-28.3 7-43.1 3.2-5.5-1.3-11.1-2-16.7-2.1-11.6-.5-21-3.7-23.5-16.8-.3-1.8-1.7-3.4-2.5-5.1zm-23.6 4.4c-3.2 1.7-4.3 2.6-5.5 2.9-12.5 3.5-25.4 5.8-37.3 10.6-15.7 6.3-30.8 14.4-40.7 29-6.1 8.8-14.7 15.6-24.8 19.4-2.3.9-4.9 1.1-8.1 1.8 1.2-9.5 7.4-15.1 11.7-21.5 7.5-11 15.6-21.5 24.2-31.7 19.6-23.5 38.8-27.6 63.5-18.6 5.1 2 10 4.8 17 8.1zm121.6-7.4l-6.2-10c7.1-5 13.4-10.5 20.6-14.2 11.8-6.2 24.3-10.7 38.1-10.8 6.3 0 12.6-.9 18.9-1.4 20-1.4 37.2 5.1 51.8 18.8 1.7 1.6 3.1 3.4 4.2 5.5 2.1 4.2 2.1 8.5-1.5 12-3.3 3.1-7 1.1-10.2-.5-5.1-2.4-9.7-5.8-14.9-7.9-19.1-8-40.1-10.8-60.6-8.1-3 .3-6 .5-9 .4-7.4 0-14.6 2.7-20 7.8-3.2 2.9-6.8 5.2-11.2 8.4zm-74.5 41.1c2.5 4.3 1.5 8.7-.2 12.4-10.4 23.1-15.4 47.9-22.3 72.1-2.9 10.1-8.6 17.9-18.6 21.9-7 2.8-10.2.8-10.2-6.6.1-14.3.8-28.5 9.6-40.9 3.4-4.8 5.8-10.4 8-16 6-15.1 16.8-26.8 26.8-39.2 1.1-1.2 2.4-2.3 3.8-3.2.7-.3 1.8-.3 3.1-.5zm1141.6-527c-2.5 13.1-7.9 23-14.2 32.4-4.7 7-11.5 8.2-19.2 2.8-6.2-4.3-12.3-8.8-15.7-16.3s-9.8-13.4-11-22c-.6-3.2-.7-6.5-.3-9.8 1.3-9 4.9-10.5 11.4-3.9 9.3 9.4 19.9 15.5 33 16.8 4.9.4 9.9 0 16 0zm-1102.7 533.2c.7 3.4 1.8 6.8 1.9 10.3.6 20.9 1.2 41.8 1.1 62.7 0 5.8-2 11.8-4.2 17.3-1.2 3.1-4.3 5.9-7.2 7.9-4.4 3-7.5 2.2-9.4-2.9-2.3-6.2-5.3-12.8-5-19.1.6-13.8.9-27.6 7.3-40.8 4.1-8.5 5.5-18.3 8.3-27.5.9-2.9 2.5-5.6 3.8-8.4l3.4.5zm79-15.1c17.1-4.4 30.5.2 43.9 5.6s24.4 14.3 34.6 24.3c.7.7 1.3 1.5 1.8 2.4 4.9 7 5.3 9.8 2 13.2-4.1 4.1-12.7 5.6-17.3 2-6.4-5.1-12.9-10.4-18.2-16.6-10-11.6-22.7-19.2-36.1-25.9-2.9-1.4-5.9-2.8-10.7-5z"/><path fill="none" stroke="#FFC107" stroke-miterlimit="10" d="M1166.1 1560.8c7.3-15.1 18.7-26.1 34.4-32.4 6.8-2.7 13.8-4.8 20.7-7.3 15.3-5.6 30.9-4.4 46.3-1.7 6.6 1.2 13.2 4.9 18.5 9.2 8 6.3 14.9 14.1 22.3 21.3.3.3.2 1.2.3 2.6-1.5 0-3.5.6-4.3-.1-14.1-13.1-31.9-16.9-49.9-20-9.2-1.6-18.5-2.2-27.7-3.6-7.6-1.3-15.4-.3-22.4 2.8-11.2 5.2-21.8 11.3-28.5 22.4-2 3.2-5.1 5.8-7.7 8.7l-2-1.9zm73.5 94.7c18-27.3 45.7-41.9 74.9-58.9-1.5 3.4-1.8 4.8-2.7 5.7-12.4 12.9-24.9 25.8-37.4 38.6-9.3 9.6-20.5 15.4-34.8 14.6zM2455 605.4l-31 3.1c3.9-12.9 7.6-23.9 13-34.4 5.2-10 3.9-22.7 12.1-32.7 5.5 7.5 5.5 14.5 3.4 21.8-.8 2.9-1.9 5.7-2.7 8.5-2.9 10.9-2.7 21.5 5.2 33.7zm-968.5 1073.7c-5.8 2-8.8-1.1-11.8-4.3-8.1-8.7-15.8-17.9-24.5-25.8-7.3-6.6-12.2-14.6-17-23.1 15.7-2.3 46.3 28.5 53.3 53.2zm-67.5-30.2c11.3 18.7 13 35.9 4.8 44.8-9.8-13.7-12.6-38.2-4.8-44.8zm1196.9 198c.8 8.5 1.3 14.7 2 20.8 2 18.8 4.1 37.7 6.2 56.5.3 3 .8 6 .9 8.9.3 9.1-2.3 12.5-11.1 15-5.4 1.6-10.9 3-16.2 4.8-1.6.6-2.8 2.3-4.6 4 4.2 3.4 8.2 4.3 12.6 3.3 1.9-.4 3.9-1 5.8-1.6 12.9-3.8 16.2-1.2 16 12.4-.1 4 .1 8 .5 11.9 2 14.3.5 28.6-.3 42.9-.3 5.4-1.8 10.5-6.8 14.2-6.3-4.3-12.7-8.5-18.8-12.9-1.5-1.1-3.1-3-3.4-4.7-1.5-9.6-8.6-15.6-14.1-22.6-6.5-8.3-13.9-16-20.8-24-7.4-8.6-13.4-18.1-16.5-29.2-2.1-7.7.1-11 8.3-12 4.6-.6 9.3-.5 13.9-.8 3-.1 6-.4 8.9-.8 2.7-.5 5.9-1.8 4.4-5.1-.7-1.7-4-3.4-6.1-3.4-10 .2-19.9 1-29.9 1.5-7.2.4-7.2.3-9.2-7-.6-2.2-1.5-4.4-2.1-6.7-2-7.2-.4-9.7 7.3-10.5 4.3-.4 8.7.4 13-.3 7.2-1.1 14.3-2.7 21.2-4.8 1.8-.6 2.8-3.9 4.2-6-2.2-1-4.4-2.8-6.6-2.8-7.6.1-15.3 1.1-22.9 1.2-5.3 0-10.6-.5-15.8-1.6-6.7-1.4-12-14.4-8.7-20.6 2-3.8 5.5-3.4 8.8-2.8 3.6.7 6.9 2.2 10.5 3.1 15.1 3.6 29-1 42.6-6.9 5.2-2.2 9.9-5.5 14.9-8.2 3.2-1.4 6.5-2.7 11.9-5.2zm-285.6 53.1c7.1 6 8 13.9 9.4 21.1 4.9 25.1 9.3 50.4 10.6 76 .6 10.6.9 21.3 1.2 31.9.2 3-.1 6-.8 8.9-1.9 7.2-4.6 8.5-11.6 5.6-21.9-9.2-41.6-22-60.1-36.9-1-.9-1.9-1.8-2.7-2.9-4.1-5.1-3.2-9 3.3-9.9 9.9-1.2 19.8-1.8 29.8-1.7 5.2 0 9.2-.5 10.2-7.7-8 0-15.8.2-23.6 0-9.6-.3-19.2-.7-28.7-1.6-2.3-.2-4.9-2.1-6.6-3.9-3-3.1-5.7-6.5-8.1-10.1-3.5-5.1-2.1-8.8 3.9-10.4 8-2.2 15.9-4.6 24.1-6.1 6.1-1.1 12.5-.8 18.8-1 4.5-.1 9.3 1.3 13.1-3.8-5.4-3.7-10.3-6-16.8-4.3-3.2.8-6.6.5-9.9.7-9.3.5-18.7.8-27.4 4.7-6.5 3-11.6.7-16.1-4-6-6.3-8.6-14.2-9.6-22.6-.7-5.7 2.2-8.4 8.4-8.4 12.6 0 25.3-.1 37.9.3 13.6.5 26.5-.7 38.3-8.4 3.7-2.4 8.4-3.5 13-5.5zm-250-54.9c9.4-1.5 16.6-2.5 23.7-3.8 11.8-2.1 23.5-4.4 35.3-6.4 4.3-.6 8.6-.8 12.9-.8 10.9-.3 21-2.5 30.1-9.1 6.2-4.6 9.2-4.1 12.9 2.4 3.6 6.3 9.3 12.8 3.1 21.5-7-3.1-13.4-.6-19.9 2.3-3.9 1.7-8.3 2.2-12.4 3.6-3.1 1-7 2-5.9 6.5 1 3.9 4.6 4.9 8 4.2 9.7-2 19.7-3.7 28.9-7.1 9.6-3.5 14-3.4 17 3.8 3.5 8.5-.4 17.3-9.1 20-2.9.9-5.7 1.7-8.6 2.5s-5.7 1.6-8.6 2.4c-1.2 5.7 1.9 6.8 6.1 6.2s8.4-2.2 12.6-3.1c6.1-1.3 7.8-.5 9.7 5.4 2.9 9.2 4.7 18.7 7.7 27.9 5.3 16.1 11.2 32 16.8 47.9.3.9 1.2 1.8 1.3 2.7.1 3.1 1.1 7.1-.4 9.2-2.4 3.3-5.9.7-8.8-1-9.1-5.4-18.6-10.3-27.3-16.3-3.6-2.4-6.3-6.8-8.1-10.9-2.9-6.3-4.6-13.2-6.8-19.8-4.3-12.5-10.3-23.8-23-29.9-.9-.5-1.7-1.1-2.3-1.9-8.3-10.3-19.8-15.3-31.8-19.6-14.3-5-27-12.5-37.6-23.3-3.2-3.3-7.1-6-10.5-9.2-1.4-1.3-2.5-3.2-5-6.3zm393.3 111.7c.5 3.3 1.4 6.5 1.4 9.7 0 20.6-.6 41.1-.1 61.7.3 11.8-2.8 22.9-4.8 34.3-1 5.1-5.3 8.9-10.5 9.3-5.9.3-12.2.8-16.4-4.9-.6-.8-1.4-1.4-2.4-1.8-10-4.8-16-13.3-21.7-22.5-3.6-5.8-9.3-10.3-13.7-15.6-3.7-4.4-4.6-9.5-1.7-15.2l45.8-10.5c-1.2-6.2-5.6-6.3-8.8-6.2-9.8.3-20-.6-28.9 5.4-4.2 2.9-8.8 2.2-13.5 1.4-3.4-.4-6.2-2.8-7-6.1-5.1-15.5-10.4-30.8-15.5-46.3-3.1-9.5-.1-12.6 9.4-10.7 8.5 1.7 17 2.8 25.6 4.1 1.3.3 2.6.3 3.9 0 17.4-5.2 36.4-5.9 51.3-17.7 7.6 7.4 7.3 12.3-1 16.2-6.5 3.1-13 6.1-20.8 5.9-10.4-.3-20.5 3.6-27.8 11 3.7 7.3 3.7 7.2 11.1 5.9 13.4-2.5 26.8-4.9 40.2-7.2 2-.3 3.9-.3 5.9-.2zm-354.4 44.8c9.7-7.4 23.7-3.1 32.4-13.1-6.9-3.8-13.4-2.9-19.8-1.3-2.9.7-5.6 2.2-8.5 2.7-7.2 1.1-13.9.7-18.2-6.8-2-3.4-5.3-6-7.3-9.4-1.1-2-1.6-5.2-.7-7.1.6-1.4 3.9-1.9 6-2.2 1.7-.1 3.3.2 4.8 1 12.6 5.6 26.1 4.4 39.3 5.6 11.1.9 20.9-2.9 30.7-7 7.7-3.2 11.9-1.6 16.2 5.7 9.2 15.5 15.4 32.3 22.8 48.6 4.3 9.4 6.8 19.2 10.2 28.7 3.3 9-.3 14.3-9.8 14.4-3.9 0-8.1-.1-11.8-1.4-11.8-4.3-23.6-8.8-35.1-14-5.3-2.4-10-6.4-14.7-10.1-4.2-3.3-4.2-7.3-.3-11s8.3-5.1 13.5-5.8c4.5-.6 10.2 0 12.8-7-2.7-.4-4.8-1.2-6.8-.9-8.2 1.1-16.4 2.7-24.7 3.6-5.2.6-10.5.8-15.8.5-7.9-.4-12.5-5.2-15.2-13.7z"/><path fill="none" stroke="#FFC107" stroke-miterlimit="10" d="M2497.3 1924.7c-1.4-6.3-5.7-6.2-9.5-6.7-8.9-1-8.9-.9-9.2-10.1-.2-6.6.5-13.1-3.1-19.4-6.6-11.3-16.3-18-28.5-21.7-3.5-1.1-7.1-2-10.5-3.2-10.8-3.7-16.8-12.5-22.1-21.8-2.6-4.4.8-8.6 7.2-8.7 6-.2 12 .1 17.9 1 7.2 1.2 14.7.4 21.6-2.1 7.2-2.5 14.7-4.5 22.2-5.9 7.1-1.4 10.7 2 11.1 9.1.2 4.7-1.7 7.7-6.4 8.6-5.2 1-10.6 1.5-15.7 2.8-1.9.5-3.4 2.5-5 3.9 1.4 1.6 2.6 4.4 4.3 4.7 4.2.8 8.5 1 12.7.4 15.3-2.4 16.3-2.3 20.9 12.2 2.6 8.6 4.4 17.4 5.3 26.3 1.6 14.5 3.1 29.2 2.9 43.8-.2 19.9-1.7 39.8-3.4 59.6-.8 9.5-5 12.8-12.4 12.7-6-.1-8.4-2.1-9.2-8.1-.6-4.6-1-9.3-1.2-13.9-.7-13.9-1.3-27.9-1.9-41.8 0-.7 0-1.3-.1-2-1.8-11.4-1.8-11.4 7.8-16.9 1-.8 2.3-1.7 4.3-2.8zm-417.6-98c-7.1-.6-12.8-.7-18.3-1.7-14.7-2.6-21.6-16.5-14.7-30 4.4-8.7 11.5-15.7 20.2-20.1 6.9-3.5 13.7-6.3 22.3-6.7 8.1-.4 16.2-1.8 24.4-.3 1.6.3 3.5.3 4.8 1.1 9.7 6 20.9 5.5 31.5 7.7 12.8 2.7 20.7 11.6 25.9 22.8 2.6 5.6-1.1 12.4-8 15.1-5.9 2.4-12 4-18.2 4.9-15.8 2-31.7 3.4-47.5 5-7.9.8-15.9 1.6-22.4 2.2zm26.2-10.2c8.9-1.6 16.8-2.9 24.6-4.4 7-1.4 11.3-6.6 9.8-13.5-1.7-7.9-5.1-15.2-13.9-17.7-18.8-5.3-35.5-.7-50.2 11.3-7.3 6-6 13.8 2.8 17 9 3.2 18.5 5.1 26.9 7.3zm212.8-77l-1.5 8.4c9.5-4 17.9-8.5 27-11 7.7-2 15.6-2.8 23.5-2.5 10.4.3 15.6 6.8 14.7 17.2-1.3 14.2-9.6 24.3-21.5 30.4-13.4 6.6-27.2 12.1-41.4 16.6-10.3 3.3-21 2.1-30.8-3.4-4.3-2.4-6.2-5.6-6.3-10.4-.2-20.4 19-43.7 36.3-45.3zm1.8 40.4c10.8-.2 20-4.4 28.1-11.2 3.7-3.5 5-8.8 3.3-13.6-1.9-4.7-6.6-7.9-12.3-6.2-7.9 2.4-15.4 6.1-22.8 9.6-1.9.9-3.5 3.1-4.6 5.1-4.2 7.4.4 16.4 8.3 16.3zm-52.6 119.6c-6.6 0-13.2.2-19.9-.1-7-.3-13.9-1.2-19.4-6.4s-6.2-8-2.6-14.8c5.6-10.6 14.9-17.6 24.5-24.3 20.3-14.1 41.4-11.8 62.3-2.1 5.2 2.4 9.5 7.2 13.3 11.7 4.4 5.3 1.6 20.4-4.1 24.5-10.7 8-23.8 12.2-37.2 12.1-5.6-.1-11.3 0-16.9 0v-.6zm16.6-41.6c-6.3 1.5-12.5 2.5-18.4 4.5-6.9 2.3-10.4 7.9-11.6 14.9-1.4 7.8 3 13.1 10.9 12.8 12.6-.6 23.7-6 33.2-13.9 5.7-4.7 4.1-12.3-2.6-15.1-3.7-1.6-7.7-2.2-11.5-3.2z"/><path fill="none" stroke="#FFC107" stroke-miterlimit="10" d="M2410.3 1929.9c-10.9-2.2-22.6-1-31.7-9.8-7.1-6.8-8.7-14.5-2.1-21.7 9.8-10.7 21.4-19.2 35.5-22.9 9.4-2.5 19.2-.3 27.9 4 3.4 1.6 6.1 3.4 10 3 2.3-.3 4.6.2 6.6 1.4 7.7 5.1 7.2 13.7 8.1 21.5.7 6.2-3.7 10.1-8.5 12.3-6.9 3.2-14.1 5.8-21.4 7.8-7.9 2-16.1 3-24.4 4.4zm22.6-33.8c1.6-10.1-5.7-13-13.5-12-6.6.9-13.6 7.6-15 14.2-2.6 12.8 1 16.4 13.6 13.8l1.9-.4c10.2-2.2 12.7-5.2 13-15.6zm157.6-106.7c1.2 0 3.2-.1 5.2 0 9.1.5 10.7 1.3 13.3 10.3 2.4 7.9 4.1 15.9 5.2 24.1.8 5.9-2.5 11.6-8 13.8-12.8 5.5-24.8 12.8-38.7 15.7-11.2 2.3-21-1.9-30.9-5.2-2.7-.9-5.5-5.3-5.8-8.3-.4-4.9.3-9.9 2.1-14.4 6.8-17.6 35.9-38.7 57.6-36zm-6 14.3c-18.1-1.2-25.1 9-26.2 24.5-.6 8 3 10.3 11.1 9.1 12.8-1.9 19.5-12 27-20.4 5.1-5.7 1.2-12.4-6.6-13.2-1.8 0-3.5-.1-5.3 0zm-140.3 17.2c-12.2-1.4-22.2-2.1-31.9-3.8-8.5-1.6-11.9-9-7.4-16.4 7.5-12.5 17.2-22.7 32.7-24.8 4.9-.7 9.9-1.9 14.8-1.9 5.6 0 11.4.3 16.6 2 13.1 4.2 19.6 16.5 16.7 29.9-1.1 5.2-4.7 8.2-9.5 9.2-11.3 2.3-22.7 4.1-32 5.8zm2.8-34.8c-6.2-1.3-11.5 1.6-14.9 8.4-2.5 5.2-1.2 8.9 4.1 11.2s18.4-.5 22.4-4.7c2.7-2.8 3.8-6.1 2.5-10s-4.4-4.6-7.8-4.9c-1.6-.1-3.3 0-6.3 0zm-308.4 172.5c-7.2-1.2-16.8-2-25.9-4.7-5.4-1.6-10.4-5.8-14.6-9.7-6.2-5.9-6.6-8.7-1.4-15.5 3.4-4.4 7.9-7.9 12.9-10.3 7.2-3.3 15-5.1 22.7-7.4 1.2-.4 2.5-.4 3.8 0 9.8 3 19.5 5.9 29.2 9.2 2.7 1.1 5.1 2.8 7 5.1 1.6 1.9 2.4 4.7 3.2 7.2 5 14.9 3.5 18.8-11.8 23.1-7.1 1.9-15 1.8-25.1 3zm-2-11.1c7.3 0 11.6-4.9 11.6-13.1-.1-7.7-4.6-12-12.7-11.9-8.8.1-15.4 5.4-15.4 12.2-.1 8.4 5.7 12.8 16.5 12.8z"/><path fill="#FFC107" stroke="#FFC107" stroke-miterlimit="10" d="M2105.9 1816.5c-8.4-2.2-17.9-4-26.9-7.3-8.8-3.2-10.1-11-2.8-17 14.7-12 31.4-16.6 50.2-11.3 8.9 2.5 12.2 9.8 13.9 17.7 1.5 6.8-2.8 12.1-9.8 13.5-7.8 1.5-15.7 2.8-24.6 4.4zm214.5-36.6c-7.8.1-12.4-8.8-8.3-16.4 1.1-2 2.7-4.2 4.6-5.1 7.5-3.5 15-7.2 22.8-9.6 5.6-1.7 10.3 1.5 12.3 6.2 1.7 4.8.4 10.2-3.3 13.6-8 6.9-17.3 11.1-28.1 11.3zm-35.9 78c3.8 1 7.8 1.6 11.4 3.1 6.7 2.8 8.3 10.5 2.6 15.1-9.6 7.8-20.6 13.3-33.2 13.9-7.9.4-12.2-4.9-10.9-12.8 1.2-6.9 4.7-12.6 11.6-14.9 6-1.9 12.2-2.9 18.5-4.4zm148.4 38.2c-.3 10.4-2.8 13.4-12.9 15.5l-1.9.4c-12.6 2.6-16.1-1-13.6-13.8 1.3-6.5 8.4-13.3 15-14.2 7.7-.9 15 2 13.4 12.1zm151.6-92.4c1.7-.1 3.5-.1 5.2 0 7.8.8 11.7 7.4 6.6 13.2-7.5 8.4-14.2 18.5-27 20.4-8.1 1.2-11.6-1.1-11.1-9.1 1.2-15.5 8.1-25.7 26.3-24.5zm-137.5-17.6c3 0 4.7-.1 6.3 0 3.4.3 6.6 1.1 7.8 4.9s.2 7.2-2.5 10c-4 4.2-17.1 6.9-22.4 4.7s-6.6-6-4.1-11.2c3.4-6.8 8.7-9.7 14.9-8.4zm-310.4 161.4c-10.8 0-16.6-4.4-16.6-12.8 0-6.8 6.7-12.1 15.4-12.2 8.1-.1 12.6 4.1 12.7 11.9.1 8.2-4.2 13.1-11.5 13.1z"/></svg>