<?xml version="1.0" encoding="utf-8"?>
<!-- Generator: Adobe Illustrator 19.2.1, SVG Export Plug-In . SVG Version: 6.00 Build 0)  -->
<svg version="1.1" id="Layer_1" xmlns="http://www.w3.org/2000/svg" xmlns:xlink="http://www.w3.org/1999/xlink" x="0px" y="0px"
	 viewBox="0 0 682.7 784.3" enable-background="new 0 0 682.7 784.3" xml:space="preserve">
<title>jelly2</title>
<path fill="none" d="M0,784.3V0h682.7v784.3H0z M441.4,299.1l0.3-0.8c1.2,0,2.3-0.1,3.5,0c1.7,0.1,3.5,0.3,5.2,0.5
	c3.7,0.3,7.4,0.3,11.1,0.9c6.9,1.2,13.7,2.7,20.2,5.5c7.2,3.1,14.8,5.3,21.1,10.1c1.6,1.2,3.2,2.6,4.9,3.8
	c5.5,3.8,9.9,8.7,14.4,13.5c3.7,4,7.1,8.3,10.4,12.6c2.5,3.3,5.2,6.4,7.1,10.1c4.1,7.7,8,15.6,11.6,23.6c2.4,5.5,4.2,11.4,6.2,17.1
	c0.9,2.7,1.7,5.5,2.5,8.3c1.7,6.3,3.3,12.7,5,19.1c0.4,1.7,1,3.4,1.3,5.1c0.8,4.5,1.5,8.9,2.4,13.4c1.6,8.3,3.6,16.5,4,25
	c0.2,3.1,0.7,6.1,1,9.2c0.3,4.6,0.5,9.2,0.8,13.8c0,0.5,0.2,1,0.3,1.5c0.7,5,1.6,10,1.9,15c0.3,8.9,1.1,17.7,3,26.4
	c0.7,2.9,1.2,5.9,2.3,8.7c2.1,5.1,4.5,10.1,6.9,15.1c2.4,5,5.5,9.4,9.7,13c0.7,0.6,1.2,1.5,1.8,2.1c3.2,3,6.2,6.4,9.7,9
	c8.2,6.2,17.5,10.4,27.4,13.2c2.1,0.6,4.1,1.5,5.8,2.8c3.7,2.8,7.6,5.4,11.5,7.9c2.7,1.7,4.8,1.6,6.7-0.6c1.9-2.2,2.5-5,2-7.8
	c-0.1-0.7-0.8-1.5-1.4-2c-1.9-1.7-3.8-3.4-5.8-5.1c-1.3-1.1-2.5-2.3-4-2.9c-5-2.2-10-4.5-15.2-6c-5.6-1.6-10.2-5-14.8-8.2
	c-4.2-3-7.9-6.6-11.7-10.1c-1.6-1.5-3.1-3.3-4.3-5.2c-2.7-4.1-4.8-8.6-6.2-13.4c-1.3-4.6-3.2-9.2-4.3-13.9
	c-1.2-4.7-1.9-9.5-2.5-14.2c-0.7-5.3-2.3-10.5-2.2-15.9c0-3.6-0.6-7.2-1-10.7c-0.5-4.5-1-9-1.4-13.5c-0.3-4.2-0.5-8.4-0.8-12.6
	c-0.2-2.4-0.2-4.7-0.7-7c-0.6-3.6-1.5-7.2-2.3-10.8c-1.2-5.6-1.6-11.4-3.4-16.9c-3.3-9.8-4.2-20.2-8.3-29.7c-0.2-0.5-0.3-1-0.3-1.5
	c-0.5-2.6-0.6-5.4-1.5-7.9c-2.8-7.8-5.7-15.5-9.4-23c-1.1-2.2-2.1-4.5-3.3-6.6c-2-3.5-4.3-6.8-6.3-10.3c-3-5-6.5-9.5-10.6-13.6
	c-4-4-8.2-7.8-12.4-11.7c-2.9-2.7-5.9-5.5-9.1-7.9c-6.9-5.2-14-10.1-21.1-15.2c-7.7-5.6-16.3-9.8-25.4-12.4
	c-7.7-2.2-15.5-4.1-23.4-5.9c-4.4-1-8.9-1.7-13.4-2.5c-2-0.3-3.3-1.3-4-3.3c-0.6-1.5-1.4-2.8-2.5-3.9c-4.2-4.4-8.6-8.5-13.7-12
	c-1.6-1.1-3.2-2.3-4.9-3.3c-4-2.3-8.2-4.4-12.1-6.7c-5.3-3.2-10.4-6.7-15.8-9.7c-6.9-4-13.9-7.7-20.9-11.4c-3.8-2-7.8-3.8-11.4-6.1
	c-2.6-1.6-5.5-2.9-8.5-3.7c-0.8-0.2-1.6-0.5-2.4-0.7c-4.3-1.3-8.7-2.5-13-3.9c-2.3-0.7-4.5-1.4-6.8-2.2c-0.8-0.3-1.4-0.8-2-1.5
	c-1.5-1.7-2.8-3.5-4.2-5.4c-2.7-3.9-5.3-7.8-7.9-11.8c-0.7-1-1.3-2.1-1.9-3.2c-0.3-0.7-0.3-1.5-0.1-2.3c4-9.9,1.5-19.3-2-28.6
	c-1.2-3.1-2.5-6.1-3.7-9.2c-2.4-6-5.5-11.8-9.1-17.2c-2-2.9-4.3-5.8-5.9-8.9c-1.5-2.9-3.6-5.3-5.5-7.8c-4.2-5.6-9.3-10.5-14.6-15.1
	c-2-1.7-4-3.5-6.1-5c-4.6-3.3-9.3-6.5-13.9-9.8c-0.3-0.2-0.6-0.6-0.9-0.8c-1.5-1.1-2.9-2.3-4.4-3.3c-1.4-1-2.8-2-4.3-3
	c-1.9-1.4-3.7-3-5.8-4.2c-4.6-2.4-9.3-4.9-14.2-6.8c-5.1-2.1-10.4-4-16-4.7c-2.4-0.3-4.8-0.4-7-1.1c-7.7-2.4-15.5-2.4-23.4-1.9
	c-5.2,0.3-10.1,1.7-15.1,2.7c-2.4,0.5-4.7,1.6-7.1,2.1c-3,0.6-5.9,1.7-8.5,3.4c-3.4,2.1-6.9,4.2-10.3,6.3c-2.1,1.3-4.1,2.7-6.2,4.1
	c-4.8,3.1-9.7,6.2-14.5,9.4c-1.5,1-2.8,2.4-4.2,3.6c-4.5,3.8-9.2,7.3-13.4,11.4c-4.4,4.2-8.4,8.9-12.3,13.5
	c-3.7,4.4-7.2,9-10.7,13.6c-2.1,2.8-3.7,5.9-5.6,8.9c-1,1.5-1.9,3.2-2.7,4.9c-1.7,4-3.5,7.9-4.9,12c-1.9,5.2-3.8,10.5-5,15.9
	c-1.3,6-2.2,12.2-1.1,18.4c0.6,3.6,0.7,7.2,1.4,10.7c0.9,4.6,1.7,9.4,3.1,13.8c2.1,6.7,4.5,13.2,7.7,19.5c2.5,4.9,5.1,9.6,8.4,13.9
	c4.1,5.3,8.5,10.4,13,15.3c3.5,3.8,7.3,7.2,11.1,10.7c2.4,2.1,4.9,4.2,7.6,5.8c5.7,3.4,11.1,7.5,17.1,10.6c4.2,2.2,8,5,12.4,6.8
	c7,3,14,5.9,21.3,8.2c4.7,1.5,9.7,2.3,13.6,5.7c0.6,0.5,1.5,0.7,2.3,0.9c3.9,1,7.8,2,11.9,1.1c2-0.5,3.6,0.2,4.9,1.9
	c1.8,2.4,3.5,4.8,5.4,7.1c4.4,5.5,7.4,11.9,10.1,18.3c2.5,6.1,4.3,12.5,6.1,18.8c0.7,2.6,0.9,5.5,1.1,8.3c0.5,7.4,0.7,14.8,1.3,22.2
	c0.4,5.1,1.6,10.2,1.1,15.4c0,0.6,0,1.2,0.2,1.9c1.1,6.1,2,12.2,3.4,18.2c2.1,9.2,4,18.5,7,27.5c1,3.1,2.3,6.2,3.7,9.2
	c1.8,3.8,3.9,7.5,5.9,11.2c1.2,2.4,2.3,4.8,3.5,7.2c2,4,4,7.9,6.1,11.8c1.1,2.1,2.3,4.2,3.6,6.1c2.1,3.1,4.6,6.1,6.7,9.2
	c4.8,7.3,10.2,14.2,16,20.8c5.5,6.3,12.7,10.9,18.5,16.8c0.2,0.2,0.5,0.3,0.8,0.5c2.9,2.3,6.1,4.3,8.7,6.8
	c6.4,6.1,12.5,12.5,18.8,18.7c5.5,5.4,9.6,12,13.1,18.7c2.6,4.9,6.1,9.2,8.4,14.3c2,4.3,4.6,8.2,6.9,12.4c1.2,2.3,2.2,4.6,3.3,7
	c1.4,3.3,2.8,6.7,4.2,9.9c1.4,3.2,2.8,6.4,4.4,9.5c2.6,4.9,5.1,9.9,8.3,14.4c3,4.2,6.8,8,10.4,11.8c3.2,3.5,6.5,6.8,10,10.1
	c3.1,2.9,6.4,5.5,9.7,8.2c5.5,4.5,11.1,9,17.9,11.5c1,0.4,1.8,1,2.7,1.5c3.1,1.6,6.1,3.5,9.4,4.7c6.2,2.2,12.5,4.3,18.9,5.8
	c5.3,1.2,10.7,2.2,16.2,1.7c2.4-0.2,4.8-0.2,7.1,0.1c2.9,0.4,5.8-0.1,8.5-0.8c2.6-0.7,5.1-1.7,7.7-2.2c3.6-0.7,6.5-2.7,9.2-4.9
	c2.4-1.9,2.1-5-0.6-6.4c-1.6-0.8-3.4-1.3-5.3-1.4c-7.3-0.2-14.7,0-22-0.1c-6.5-0.1-12.9-0.8-19-3.7c-0.5-0.2-1-0.4-1.5-0.5
	c-6.3-2-12.6-4-18.8-6c-3.3-1.1-6.6-2.3-9.9-3.6c-1.7-0.7-3.4-1.5-4.9-2.5c-2.6-1.7-5-3.6-7.7-5.2c-2.5-1.6-4.9-3.4-6.8-5.8
	c-1.5-2-3-3.9-4.5-5.9c-1.5-2-3-3.9-4.5-5.9c-1.9-2.6-3.8-5.1-5.5-7.8c-0.9-1.5-1.2-3.3-2-4.8c-3.8-7.5-8.4-14.7-11.2-22.7
	c-0.2-0.7-0.6-1.3-0.9-1.9c-2.1-3.7-4.6-7.3-6.4-11.2c-3.5-7.6-7.4-14.9-12.8-21.3c-0.4-0.5-0.7-1-1-1.6c-0.9-1.7-1.7-3.6-2.8-5.2
	c-4.7-6.8-8.7-14.2-15.2-19.8c-3-2.5-5.9-5.2-8.8-7.7c-2.7-2.3-5.5-4.3-8.2-6.6c-1.6-1.4-3.1-3-4.7-4.4c-3.3-2.8-6.5-5.7-9.8-8.5
	c-2.9-2.5-5.9-4.9-8.5-7.7c-4.7-5-9.3-10.2-13.8-15.4c-2.5-2.8-5-5.7-7.3-8.8c-3.1-4.2-5.9-8.6-8.8-13c-4.7-6.9-9.3-13.8-12.8-21.5
	c-2.7-5.9-5.9-11.5-8.6-17.4c-3.5-7.4-4.6-15.6-5.9-23.6c-1.1-6.4-2.2-12.9-2.2-19.5c0-1.9,0-3.7-0.1-5.5c-0.2-4.6-0.7-9.2-0.8-13.8
	c-0.2-6-0.2-11.9-1-17.9c-1.1-7.7-1.6-15.5-3.5-23.2c-1.3-5.1-2.8-10.1-4.3-15.1c-0.3-1.2-1.1-2.2-1.5-3.4c-1.9-6-4.5-11.7-7.8-17.1
	c-4.1-6.9-9.1-12.9-16.4-16.7c-1.9-1-3.4-2.3-4.3-4.3c-0.9-1.9-1.6-3.8-2.6-5.6c-1.8-3.2-2.2-6.6-2.1-10.2c0-1.4,0.2-2.8,0.3-4.2
	l0.7-0.3c0.6,0.6,1.4,1,1.8,1.7c2.8,4.8,5.6,9.6,8.1,14.6c2,4.1,3.9,8.2,7.3,11.4c1.5,1.4,3,2.8,4.2,4.5c3.1,4.3,7.1,7.8,10.7,11.5
	c4.9,5,9.6,10.3,14,15.6c6.3,7.7,12.5,15.6,18.6,23.5c1.7,2.2,3.3,4.5,4.6,6.9c1.3,2.4,2.2,5.1,3.1,7.7c0.8,2.2,1.5,4.4,2.1,6.7
	c0.6,2.2,1,4.4,1.4,6.7c0.3,1.6,0.6,3.3,0.7,4.9c0.4,4.1,0.8,8.2,1.1,12.3c0.5,5.9,1.1,11.7,1.4,17.6c0.2,4.3-0.5,8.8,0.5,12.9
	c1.6,7.5,3.8,15,6.4,22.2c2,5.4,3.4,11,6.9,15.8c1.5,2,2.6,4.5,4.1,6.5c1.8,2.6,4.2,4.9,5.8,7.6c2.3,3.9,5.9,6.6,8.8,9.9
	c0.8,1,1.7,1.8,2.7,2.5c3.6,2.5,7.2,5.1,11,7.5c1.4,0.9,2.9,1.6,4.5,2c2.4,0.6,3.6,2,4.3,4.3c1.7,5.9,3.5,11.8,5.4,17.7
	c1.2,3.8,2.8,7.6,4.2,11.3c2.3,5.7,4,11.7,8.9,16.1c0.4,0.3,0.6,0.8,0.9,1.3c4.3,6.1,8.7,12.1,14.5,16.8c7.1,5.8,11.9,5.7,17.7,1.6
	c4.8-3.4,5.1-6.5,0.7-10.6c-0.2-0.2-0.5-0.4-0.7-0.6c-2.5-2.3-5-4.7-7.6-6.8c-3.4-2.7-6.8-5.3-10.4-7.7c-4.3-3-7.1-7.1-9.5-11.6
	c-2.1-4-4-8.1-5.7-12.3c-0.9-2.2-1.2-4.7-2-7.6c3.4,0.8,5.9,2.3,8.2,3.9c4.6,3.2,9.6,5.1,14.8,6.8c2,0.7,4.1,1.3,6.2,2.1
	c1.5,0.5,2.8,1.4,4.3,1.7c5.5,1.1,10.9,2.1,16.4,3.2c3.8,0.7,7.3,1.7,10.3,4.6c1.6,1.6,3.9,2.6,6.1,3.6c2.9,1.3,6,2.3,8.9,3.4
	c4.5,1.8,8.2,4.7,11.6,8.1c4.6,4.7,6.3,11,8.6,16.9c1.1,2.8,1.5,5.9,3,8.4c4.3,6.9,10.5,11.9,17.9,15.1c2.8,1.3,6.1,1.5,9-0.2
	c2.3-1.3,4.6-2.7,6.8-4.2c2-1.4,3.5-1.4,4.9,0.4c2.9,3.7,5.9,7.4,8.4,11.5c2.7,4.3,5,8.8,7.2,13.3c1.4,2.9,2.5,5.9,3.5,8.9
	c1.7,5.6,3.3,11.3,4.8,16.9c1.1,4.1,3.3,7.8,3,12.2c0,0.4,0.2,0.8,0.4,1.2c1.4,4.3,3,8.5,4.1,12.9c2,8.1,7.1,14.4,11.9,20.7
	c2.5,3.3,5.8,6.2,9.1,8.8c4.1,3.1,8.5,6,13.8,6.5c3.7,0.3,7.4,0.3,11.1,0.2c2.4-0.1,3.4-1.7,2.8-4.1c-0.2-1-0.7-2-1.4-2.7
	c-1.4-1.4-2.9-2.5-4.6-3.5c-3.1-1.8-6.6-3.1-9.5-5.1c-8.9-6.1-14.7-14.7-19-24.3c-2.9-6.7-5.5-13.5-6.9-20.8
	c-0.5-2.3-1.1-4.6-1.9-6.8c-3.1-8.6-6.1-17.3-9.4-25.8c-1.6-4.3-3.6-8.5-5.8-12.6c-3.1-5.5-6.3-10.9-10.9-15.6
	c1.2-0.1,2.3,0,3.3,0.5c6,2.6,11.6,5.9,16,10.8c2.4,2.7,5.1,5,8.6,6.4c2.4,1,5,1.2,7.6,0.5c2.9-0.8,4.8-3.1,7.3-4.5
	c2.9-1.7,3.2-5.2,5.2-7.5c0.2-0.3,0-1,0-1.5c-0.1-4.3-3-6.9-6-9.3c-2.6-2-5.5-3.7-8.1-5.7c-1.9-1.5-3.9-3.2-5.2-5.2
	c-2.3-3.5-3.1-7.6-3.7-11.6c-0.7-4.6,0.1-9.2-1.5-13.7c-0.7-2.1-1.7-3.9-3.4-5c-6.5-4.4-13.6-6.6-21.6-6.1c-3.3,0.2-6.6,0.2-9.9-0.2
	c-2.2-0.2-4.6-1-6.3-2.2c-4-3-6.2-7.3-6.8-12.3c-0.4-3.8-0.5-7.6-0.8-11.4c-0.1-1.4-0.2-3-0.9-4.2c-2.3-3.7-5-7.2-9-9.1
	c-2.8-1.3-5.6-1.5-8.6,0.1c-3.5,2-7.1,3.7-10.8,5.2c-4.7,1.9-8.7,0.8-11.1-3.1c-1.2-1.9-2.5-3.8-3.6-5.8c-2.8-5.1-2.3-10.1,0.8-14.9
	c0.8-1.3,1.6-2.6,2.3-4c1.1-2,0.8-4.1-0.6-5.8c-1.5-1.8-2.9-3.8-4.7-5.2c-4.7-3.7-9.7-7-14.5-10.5c-3.7-2.8-7.2-5.8-9.3-10.2
	c-1.5-3.3-0.5-6.7,2-8.9c1.1-1,2.2-1.9,3.1-3c1.3-1.7,2.3-3.7,3.5-5.4c1.5-2,1.6-4.2,0.8-6.4c-1-2.8-2.8-5-4.9-7
	c-5.4-5.1-10.7-10.3-16.9-14.5c-0.7-0.4-1.1-1.2-1.6-1.8c-2.1-2.6-2.2-5.7-2.4-8.8c-0.4-4.4,1.6-7.7,5.1-10.3
	c1.8-1.3,3.5-2.8,5.4-4.1c2.6-1.8,3.2-4.3,2.8-7.1c-0.6-4-2.4-7.7-5.3-10.6c-5.2-5.1-11.5-7.9-18.9-8c-2.3,0-5-0.1-6.9-1.2
	c-6.6-3.6-11.3-8.9-12.4-16.6c-0.4-2.5-0.5-5-0.7-7.8c1.1,0.2,1.8,0.1,2.4,0.4c1.8,0.8,3.6,1.6,5.3,2.5c6.3,3.4,12.7,6.8,19.4,9.5
	c5,2,9.9,4.2,14.4,7.1c5.6,3.7,11,7.7,16,12.1c5.2,4.6,9.4,10.1,12.4,16.4c3.8,8,5.6,16.6,7.5,25.1c1.4,6.2,2.4,12.5,3.5,18.8
	c1.3,7.7,5.3,13.8,11.1,18.8c2.2,1.9,4.9,2.6,7.8,2.3c3-0.4,4.2-2.3,3.7-5.3c-0.6-2.9-2.3-5-4.6-6.8c-1.1-0.8-2.3-1.5-3-2.6
	c-4.1-5.8-6.6-12-5.8-19.3c0.2-1.6-0.1-3.3-0.2-4.9c-0.3-4.1-0.6-8.2-1-12.3c-0.3-3.2-0.3-6.4-1.1-9.5c-1-3.7-2.6-7.3-4-11
	c-2-5-4.8-9.6-8.4-13.6c-5.3-6-11.2-11.6-17.5-16.6c-4.3-3.5-8.9-6.7-14.2-8.6c-6.3-2.3-12.5-4.9-18.8-7c-7.3-2.4-14.4-5-20.8-9.4
	c-2.8-1.9-5.3-4.3-8.7-5.3c-0.7-0.2-1.3-1.3-1.6-2.1c-1.6-4.8-4.9-8.1-9.4-10.1c-2.9-1.3-5.9-2.4-8.9-3.6c-2.3-0.9-4.6-1.8-6.7-3
	c-3.2-1.7-5.7-4.3-8-7.1c-2-2.4-3.5-5.3-4.4-8.4c-1.4-5.2-2.4-10.4-3.7-15.6c-0.8-3.1-1.6-6.3-2.9-9.1c-2.1-4.7-5.6-8.6-9.3-12.2
	c-3.9-3.7-8-7.1-12-10.7c-0.8-0.7-1.8-1.4-1.6-2.7c1.4-0.8,2.6-0.2,3.5,0.6c2.6,2.3,5.4,3.7,8.9,3.9c1.3,0.1,2.3,0.8,3,2
	c2,3.5,4.3,6.8,5.9,10.4c4.8,10.3,11.5,19.3,18.9,27.8c1.8,2.1,3.7,4.2,5.5,6.2c2.9,3.3,5.8,6.7,8.7,10.1c1.4,1.5,2.6,3.2,4.2,4.4
	c5.9,4.6,11.9,9.1,18.5,12.9c6.8,3.8,13.4,8,20.2,12c3.1,1.8,6.3,3.5,9.4,5.3c7,3.8,13.9,7.7,20.9,11.4c3.5,1.8,7,3.5,10.7,4.9
	c12.5,4.8,22.9,12.5,31.9,22.3c1.2,1.4,2.7,2.5,3.9,3.9c5.3,6.3,10.6,12.6,15.9,19c1.3,1.6,2.8,3.1,3.8,4.9c3,5.7,4.6,12,4.7,18.4
	c0,2.1,0.2,4.2-0.2,6.2c-1.4,6.4-3,12.8-4.6,19.2c-1.1,4.3-1.9,8.7-1.4,13.2c0.4,4,0.9,8,1.7,11.9c1.5,7.6,3.1,15.1,4.9,22.6
	c0.9,4,2.2,7.9,3.4,11.9c1.9,6.2,4.4,12,9.1,16.7c3.2,3.2,6.4,6.4,9.7,9.5c2.4,2.4,4.8,4.9,7.6,6.8c9.3,6.3,17.7,13.9,25.1,22.3
	c2.2,2.6,4.6,5,6.7,7.7c4.4,5.5,8.6,11.1,13,16.5c1.6,2,3.9,3.5,5.3,5.6c3.7,5.5,7.6,10.7,9.5,17.3c1,3.6,2.7,6.9,3.6,10.5
	c1.3,4.9,2.3,9.8,3,14.8c0.6,4.3,2.2,8.1,3.9,12c1.6,3.5,5.4,4.4,8.5,2c1.8-1.4,3.1-3,1.8-5.5c-0.5-0.9-0.3-2.2-0.3-3.3
	c0.2-4.3-0.3-8.5-1.2-12.6c-1.2-5.7-2.7-11.4-4.1-17.1c-0.5-2.2-1.2-4.4-2-6.5c-1.3-3.4-2.9-6.8-4.3-10.3c-2.5-6.2-5.6-12-10.2-16.9
	c-5.6-5.9-11.4-11.7-17.2-17.4c-5.5-5.4-11.2-10.7-16.8-16c-3.3-3.1-6.6-6.3-9.9-9.4c-7.4-7-14.7-14.1-19.6-23.3
	c-3.2-5.9-7.2-11.3-8.8-18c-0.1-0.5-0.3-1-0.6-1.4c-2.1-2.3-2-5.4-2.5-8.1c-1.7-9.9-2.5-20-2.3-30.1c0.1-2.6-0.2-5.2,0.3-7.7
	c0.5-2.4,0.7-4.9,0.6-7.3c-0.1-1.7-0.3-3.5,1.3-5c2,0.6,2.7,2.4,3.5,4c3.6,7.1,5.9,14.7,8.4,22.2c1.6,4.9,2.8,9.9,3.6,15
	c1,7,2.7,14,4.4,20.9c0.7,2.8,1.8,5.5,3.3,8c4.9,8.5,11.9,15,19.2,21.3c4.1,3.5,8.6,6.3,12.7,9.9c3.6,3.1,6.9,6.5,9.9,10.1
	c2.9,3.3,5.3,7.1,7.9,10.7c1.4,2,3.3,3.5,5.5,4.4c2.3,1,4.6,1,6.4-0.7c1.7-1.6,1.8-3.8,1-6c-1.4-4-3.1-7.8-6.5-10.7
	c-3.1-2.7-5.7-5.9-8.8-8.6c-4-3.4-8.3-6.5-12.3-9.9c-7.8-6.5-15-13.6-19.6-22.8c-1.5-3-3.7-5.8-4.8-9c-2.2-6.4-3.9-12.9-5.6-19.5
	c-2-7.7-3.5-15.4-5.6-23c-1.7-6-4.1-11.9-6.1-17.8c-0.3-0.9-0.8-1.7-1-2.6c-1-5.7-3.6-10.7-6.4-15.7c-1.8-3.1-3.6-6.3-5.2-9.5
	c-1.2-2.6-2.2-5.5-1.7-8.4c0.7-3.8,0-7.3-0.6-11c-1.1-6.7-5.2-12.3-7-18.7c-0.7-2.7-2.1-5.1-3.2-7.7c-0.8-1.8-1.9-3.4-2.5-5.3
	c-1.1-3.4-2.9-6.6-5.1-9.5c-0.7-0.9-1.3-1.9-1.7-2.9c-1.3-2.9-3.3-5.5-5.7-7.6c-0.4-0.4-1.1-0.5-2-0.8c1.6,3.7,2.7,7.2,4.6,10.2
	c1.5,2.2,2.9,4.4,3.8,6.9c0.6,1.7,1.1,3.3,1.8,4.9c2.4,5,5,9.9,6.6,15.3c1.2,4.2,2.9,8.1,4.3,12.2c0.9,2.5,1.6,5.1,2.4,7.7
	c0.2,0.6,0.1,1.3,0.2,2.8c-1.4-1.1-2.3-1.6-3-2.4c-2.1-2.4-4.1-4.9-6.3-7.2c-2.2-2.4-4-4.9-4-8.4c0-0.8-0.3-1.6-0.6-2.4
	c-1.8-5.6-3.7-11.2-5.3-16.8c-1.8-6.2-5-11.7-7.8-17.5c-0.3-0.7-1-1.3-1.5-2L441.4,299.1L441.4,299.1z"/>
<path fill="#FFC107" stroke="#FFC107" stroke-miterlimit="10" d="M441.4,299.1l3.3,4.3c0.5,0.7,1.1,1.2,1.5,2
	c2.7,5.8,6,11.3,7.8,17.5c1.6,5.6,3.5,11.2,5.3,16.8c0.2,0.8,0.6,1.6,0.6,2.4c0,3.5,1.7,6,4,8.4c2.2,2.3,4.1,4.9,6.3,7.2
	c0.7,0.8,1.7,1.3,3,2.4c-0.1-1.5,0-2.2-0.2-2.8c-0.7-2.6-1.5-5.1-2.4-7.7c-1.4-4.1-3.1-8.1-4.3-12.2c-1.6-5.4-4.2-10.3-6.6-15.3
	c-0.7-1.6-1.3-3.3-1.8-4.9c-0.8-2.5-2.3-4.7-3.8-6.9c-2-2.9-3-6.5-4.6-10.2c0.9,0.3,1.6,0.4,2,0.8c2.4,2.1,4.4,4.7,5.7,7.6
	c0.5,1,1.1,2,1.7,2.9c2.2,2.8,4,6,5.1,9.5c0.6,1.8,1.7,3.5,2.5,5.3c1.1,2.5,2.4,5,3.2,7.7c1.8,6.4,5.9,12,7,18.7
	c0.6,3.7,1.3,7.2,0.6,11c-0.6,2.9,0.4,5.8,1.7,8.4c1.5,3.3,3.4,6.4,5.2,9.5c2.8,5,5.4,10,6.4,15.7c0.2,0.9,0.7,1.7,1,2.6
	c2.1,5.9,4.4,11.8,6.1,17.8c2.1,7.6,3.7,15.4,5.6,23c1.7,6.5,3.4,13.1,5.6,19.5c1.1,3.2,3.2,5.9,4.8,9c4.6,9.2,11.8,16.3,19.6,22.8
	c4,3.4,8.3,6.4,12.3,9.9c3.1,2.7,5.7,6,8.8,8.6c3.4,2.9,5.1,6.6,6.5,10.7c0.8,2.2,0.7,4.4-1,6c-1.8,1.7-4.1,1.7-6.4,0.7
	c-2.2-1-4.1-2.5-5.5-4.4c-2.6-3.6-5-7.3-7.9-10.7c-3.1-3.6-6.4-7-9.9-10.1c-4-3.5-8.6-6.4-12.7-9.9c-7.3-6.3-14.3-12.8-19.2-21.3
	c-1.5-2.5-2.5-5.2-3.3-8c-1.7-6.9-3.3-13.8-4.4-20.9c-0.7-5.1-2-10.1-3.6-15c-2.5-7.5-4.8-15.1-8.4-22.2c-0.8-1.6-1.5-3.4-3.5-4
	c-1.6,1.5-1.4,3.3-1.3,5c0.1,2.4-0.1,4.9-0.6,7.3c-0.5,2.5-0.2,5.1-0.3,7.7c-0.2,10.1,0.6,20.2,2.3,30.1c0.5,2.7,0.4,5.8,2.5,8.1
	c0.3,0.4,0.5,0.9,0.6,1.4c1.6,6.6,5.6,12.1,8.8,18c4.9,9.1,12.1,16.3,19.6,23.3c3.3,3.1,6.6,6.2,9.9,9.4c5.6,5.3,11.2,10.6,16.8,16
	c5.8,5.7,11.6,11.4,17.2,17.4c4.6,4.9,7.7,10.7,10.2,16.9c1.4,3.4,2.9,6.8,4.3,10.3c0.8,2.1,1.5,4.3,2,6.5
	c1.4,5.7,2.9,11.4,4.1,17.1c0.9,4.1,1.4,8.3,1.2,12.6c-0.1,1.1-0.2,2.4,0.3,3.3c1.3,2.6,0,4.2-1.8,5.5c-3,2.4-6.8,1.5-8.5-2
	c-1.7-3.8-3.3-7.7-3.9-12c-0.7-5-1.8-9.9-3-14.8c-0.9-3.6-2.5-7-3.6-10.5c-1.9-6.5-5.8-11.8-9.5-17.3c-1.4-2.1-3.7-3.6-5.3-5.6
	c-4.4-5.5-8.6-11.1-13-16.5c-2.1-2.7-4.5-5.1-6.7-7.7c-7.4-8.5-15.9-16-25.1-22.3c-2.8-1.9-5.1-4.5-7.6-6.8
	c-3.3-3.1-6.5-6.3-9.7-9.5c-4.6-4.7-7.2-10.5-9.1-16.7c-1.2-3.9-2.4-7.9-3.4-11.9c-1.8-7.5-3.4-15.1-4.9-22.6
	c-0.8-3.9-1.3-7.9-1.7-11.9c-0.5-4.5,0.3-8.8,1.4-13.2c1.6-6.4,3.2-12.8,4.6-19.2c0.4-2,0.3-4.1,0.2-6.2c-0.1-6.4-1.7-12.7-4.7-18.4
	c-0.9-1.8-2.4-3.3-3.8-4.9c-5.3-6.3-10.6-12.7-15.9-19c-1.2-1.4-2.7-2.6-3.9-3.9c-9-9.8-19.4-17.5-31.9-22.3
	c-3.7-1.4-7.2-3.1-10.7-4.9c-7-3.7-13.9-7.6-20.9-11.4c-3.2-1.7-6.3-3.4-9.4-5.3c-6.7-4-13.4-8.2-20.2-12
	c-6.6-3.7-12.5-8.3-18.5-12.9c-1.6-1.2-2.9-2.9-4.2-4.4c-2.9-3.3-5.8-6.7-8.7-10.1c-1.8-2.1-3.7-4.2-5.5-6.2
	c-7.4-8.5-14.1-17.5-18.9-27.8c-1.7-3.6-4-7-5.9-10.4c-0.7-1.2-1.6-1.9-3-2c-3.4-0.2-6.3-1.6-8.9-3.9c-0.9-0.8-2.1-1.3-3.5-0.6
	c-0.2,1.3,0.8,2,1.6,2.7c4,3.6,8.1,7,12,10.7c3.7,3.6,7.2,7.4,9.3,12.2c1.3,2.9,2.1,6,2.9,9.1c1.3,5.2,2.3,10.5,3.7,15.6
	c0.8,3.1,2.3,5.9,4.4,8.4c2.3,2.8,4.8,5.4,8,7.1c2.1,1.2,4.5,2,6.7,3c2.9,1.2,6,2.2,8.9,3.6c4.5,2,7.8,5.3,9.4,10.1
	c0.3,0.8,0.9,1.9,1.6,2.1c3.4,1,5.9,3.4,8.7,5.3c6.4,4.4,13.5,7,20.8,9.4c6.3,2.1,12.5,4.7,18.8,7c5.3,1.9,9.9,5.2,14.2,8.6
	c6.3,5,12.1,10.6,17.5,16.6c3.6,4,6.4,8.6,8.4,13.6c1.4,3.6,3,7.2,4,11c0.8,3,0.9,6.3,1.1,9.5c0.4,4.1,0.7,8.2,1,12.3
	c0.1,1.6,0.3,3.3,0.2,4.9c-0.8,7.3,1.7,13.5,5.8,19.3c0.7,1.1,2,1.8,3,2.6c2.3,1.8,4,3.9,4.6,6.8c0.6,3-0.7,4.9-3.7,5.3
	c-2.9,0.4-5.6-0.4-7.8-2.3c-5.8-5-9.8-11.1-11.1-18.8c-1.1-6.3-2.1-12.6-3.5-18.8c-2-8.5-3.7-17.2-7.5-25.1
	c-3-6.3-7.2-11.9-12.4-16.4c-5-4.4-10.4-8.4-16-12.1c-4.6-2.9-9.5-5-14.4-7.1c-6.7-2.8-13.1-6.1-19.4-9.5c-1.7-0.9-3.5-1.7-5.3-2.5
	c-0.6-0.2-1.3-0.2-2.4-0.4c0.2,2.8,0.4,5.4,0.7,7.8c1.1,7.7,5.9,13,12.4,16.6c2,1.1,4.6,1.1,6.9,1.2c7.4,0.1,13.7,2.9,18.9,8
	c2.9,2.9,4.7,6.6,5.3,10.6c0.4,2.8-0.2,5.3-2.8,7.1c-1.9,1.3-3.6,2.8-5.4,4.1c-3.5,2.5-5.5,5.8-5.1,10.3c0.3,3.1,0.3,6.2,2.4,8.8
	c0.5,0.6,1,1.4,1.6,1.8c6.2,4.2,11.6,9.3,16.9,14.5c2.1,2,3.9,4.2,4.9,7c0.8,2.3,0.7,4.4-0.8,6.4c-1.3,1.7-2.2,3.7-3.5,5.4
	c-0.9,1.1-2,2-3.1,3c-2.5,2.2-3.6,5.6-2,8.9c2.1,4.4,5.5,7.4,9.3,10.2c4.8,3.6,9.8,6.9,14.5,10.5c1.8,1.4,3.3,3.4,4.7,5.2
	c1.4,1.7,1.7,3.7,0.6,5.8c-0.7,1.4-1.5,2.7-2.3,4c-3,4.8-3.7,9.8-0.8,14.9c1.1,2,2.4,3.8,3.6,5.8c2.4,4,6.4,5,11.1,3.1
	c3.7-1.5,7.3-3.3,10.8-5.2c2.9-1.7,5.8-1.4,8.6-0.1c4.1,1.9,6.7,5.4,9,9.1c0.7,1.1,0.7,2.8,0.9,4.2c0.3,3.8,0.4,7.6,0.8,11.4
	c0.5,5,2.7,9.3,6.8,12.3c1.7,1.3,4.1,2,6.3,2.2c3.3,0.4,6.6,0.4,9.9,0.2c8-0.5,15.1,1.7,21.6,6.1c1.7,1.1,2.6,2.9,3.4,5
	c1.6,4.5,0.9,9.2,1.5,13.7c0.6,4.1,1.4,8.2,3.7,11.6c1.3,2,3.3,3.7,5.2,5.2c2.6,2,5.5,3.6,8.1,5.7c3,2.4,5.9,5,6,9.3
	c0,0.5,0.2,1.2,0,1.5c-2,2.3-2.3,5.8-5.2,7.5c-2.5,1.4-4.4,3.7-7.3,4.5c-2.5,0.7-5.2,0.5-7.6-0.5c-3.4-1.4-6.2-3.7-8.6-6.4
	c-4.5-4.9-10-8.2-16-10.8c-1-0.4-2.1-0.5-3.3-0.5c4.6,4.7,7.8,10.1,10.9,15.6c2.2,4.1,4.2,8.3,5.8,12.6c3.3,8.5,6.3,17.2,9.4,25.8
	c0.8,2.2,1.5,4.5,1.9,6.8c1.4,7.2,4,14.1,6.9,20.8c4.2,9.6,10.1,18.3,19,24.3c2.9,2,6.4,3.3,9.5,5.1c1.7,1,3.2,2.2,4.6,3.5
	c0.7,0.7,1.1,1.7,1.4,2.7c0.6,2.3-0.5,4-2.8,4.1c-3.7,0.2-7.4,0.1-11.1-0.2c-5.4-0.4-9.7-3.4-13.8-6.5c-3.3-2.5-6.6-5.5-9.1-8.8
	c-4.9-6.3-10-12.6-11.9-20.7c-1.1-4.4-2.7-8.6-4.1-12.9c-0.1-0.4-0.4-0.8-0.4-1.2c0.3-4.4-1.9-8.2-3-12.2
	c-1.5-5.7-3.1-11.3-4.8-16.9c-0.9-3.1-2.1-6-3.5-8.9c-2.2-4.5-4.5-9-7.2-13.3c-2.5-4-5.5-7.7-8.4-11.5c-1.4-1.8-2.8-1.7-4.9-0.4
	c-2.2,1.5-4.5,2.9-6.8,4.2c-2.9,1.6-6.1,1.4-9,0.2c-7.4-3.3-13.6-8.2-17.9-15.1c-1.5-2.5-1.9-5.6-3-8.4c-2.3-5.9-4-12.2-8.6-16.9
	c-3.3-3.4-7-6.3-11.6-8.1c-3-1.1-6-2.1-8.9-3.4c-2.1-1-4.4-2-6.1-3.6c-2.9-2.9-6.5-3.9-10.3-4.6c-5.5-1.1-10.9-2-16.4-3.2
	c-1.5-0.3-2.8-1.1-4.3-1.7c-2-0.7-4.1-1.4-6.2-2.1c-5.2-1.8-10.2-3.7-14.8-6.8c-2.3-1.6-4.8-3.1-8.2-3.9c0.7,2.9,1,5.3,2,7.6
	c1.7,4.2,3.6,8.3,5.7,12.3c2.4,4.4,5.2,8.6,9.5,11.6c3.5,2.5,7,5,10.4,7.7c2.7,2.1,5.1,4.5,7.6,6.8c0.2,0.2,0.5,0.4,0.7,0.6
	c4.4,4.1,4.1,7.2-0.7,10.6c-5.8,4.1-10.6,4.3-17.7-1.6c-5.8-4.7-10.2-10.7-14.5-16.8c-0.3-0.4-0.5-0.9-0.9-1.3
	c-4.8-4.3-6.6-10.3-8.9-16.1c-1.5-3.7-3-7.5-4.2-11.3c-1.9-5.9-3.7-11.8-5.4-17.7c-0.7-2.3-1.9-3.7-4.3-4.3c-1.6-0.4-3.1-1.1-4.5-2
	c-3.7-2.4-7.3-4.9-11-7.5c-1-0.7-1.9-1.6-2.7-2.5c-2.9-3.3-6.5-6-8.8-9.9c-1.6-2.7-3.9-5-5.8-7.6c-1.5-2.1-2.5-4.5-4.1-6.5
	c-3.6-4.7-5-10.4-6.9-15.8c-2.6-7.2-4.8-14.7-6.4-22.2c-0.9-4.2-0.2-8.6-0.5-12.9c-0.3-5.9-0.9-11.7-1.4-17.6
	c-0.3-4.1-0.7-8.2-1.1-12.3c-0.2-1.6-0.4-3.3-0.7-4.9c-0.4-2.2-0.8-4.5-1.4-6.7c-0.6-2.3-1.3-4.5-2.1-6.7c-1-2.6-1.9-5.2-3.1-7.7
	c-1.3-2.4-2.8-4.8-4.6-6.9c-6.1-7.9-12.2-15.8-18.6-23.5c-4.5-5.4-9.1-10.6-14-15.6c-3.7-3.8-7.7-7.2-10.7-11.5
	c-1.2-1.7-2.7-3.1-4.2-4.5c-3.3-3-5.2-7.1-7.2-11.2c-2.5-5-5.3-9.8-8.1-14.6c-0.4-0.7-1.2-1.1-1.8-1.7l-0.7,0.3
	c-0.1,1.4-0.3,2.8-0.3,4.2c0,3.5,0.3,7,2.1,10.2c1,1.8,1.8,3.7,2.6,5.6c0.9,2,2.4,3.3,4.3,4.3c7.3,3.7,12.3,9.8,16.4,16.7
	c3.3,5.4,5.9,11.1,7.8,17.1c0.4,1.2,1.1,2.2,1.5,3.4c1.5,5,3,10,4.3,15.1c1.9,7.6,2.5,15.4,3.5,23.2c0.8,6,0.9,11.9,1,17.9
	c0.1,4.6,0.6,9.2,0.8,13.8c0.1,1.9,0.1,3.7,0.1,5.5c0,6.6,1.1,13.1,2.2,19.5c1.3,8,2.4,16.1,5.9,23.6c2.8,5.9,6,11.5,8.6,17.4
	c3.5,7.7,8.1,14.6,12.8,21.5c2.9,4.3,5.7,8.8,8.8,13c2.2,3.1,4.8,5.9,7.3,8.8c4.6,5.2,9.1,10.4,13.8,15.4c2.6,2.8,5.6,5.1,8.5,7.7
	c3.3,2.8,6.6,5.6,9.8,8.5c1.6,1.4,3.1,3,4.7,4.4c2.7,2.3,5.5,4.3,8.2,6.6c3,2.5,5.9,5.2,8.8,7.7c6.5,5.5,10.4,12.9,15.2,19.8
	c1.1,1.6,1.9,3.4,2.8,5.2c0.2,0.6,0.6,1.1,1,1.6c5.4,6.4,9.4,13.7,12.8,21.3c1.8,3.9,4.2,7.5,6.4,11.2c0.4,0.6,0.7,1.3,0.9,1.9
	c2.8,8,7.4,15.1,11.2,22.7c0.8,1.5,1.1,3.4,2,4.8c1.7,2.7,3.6,5.3,5.5,7.8c1.5,2,3,3.9,4.5,5.9c1.5,2,3,3.9,4.5,5.9
	c1.8,2.4,4.2,4.2,6.8,5.8c2.6,1.6,5,3.6,7.7,5.2c1.5,1,3.2,1.9,4.9,2.5c3.3,1.3,6.5,2.5,9.9,3.6c6.3,2,12.5,4,18.8,6
	c0.5,0.2,1,0.3,1.5,0.5c6,3,12.4,3.7,19,3.7c7.3,0.1,14.7-0.1,22,0.1c1.9,0.1,3.7,0.5,5.3,1.4c2.7,1.4,2.9,4.5,0.6,6.4
	c-2.7,2.2-5.6,4.2-9.2,4.9c-2.6,0.5-5.1,1.5-7.7,2.2c-2.8,0.7-5.6,1.2-8.5,0.8c-2.4-0.3-4.7-0.3-7.1-0.1c-5.5,0.5-11-0.5-16.2-1.7
	c-6.4-1.5-12.7-3.6-18.9-5.8c-3.3-1.1-6.3-3.1-9.4-4.7c-0.9-0.5-1.8-1.1-2.7-1.5c-6.8-2.5-12.3-7.1-17.9-11.5
	c-3.3-2.7-6.6-5.3-9.7-8.2c-3.5-3.2-6.8-6.6-10-10.1c-3.6-3.8-7.4-7.6-10.4-11.8c-3.2-4.5-5.7-9.5-8.3-14.4c-1.6-3.1-3-6.3-4.4-9.5
	c-1.5-3.3-2.8-6.6-4.2-9.9c-1-2.4-2-4.7-3.3-7c-2.2-4.2-4.9-8.1-6.9-12.4c-2.3-5.1-5.9-9.4-8.4-14.3c-3.5-6.7-7.5-13.3-13.1-18.7
	c-6.3-6.2-12.5-12.6-18.8-18.7c-2.7-2.5-5.8-4.6-8.7-6.8c-0.3-0.2-0.5-0.3-0.8-0.5c-5.9-5.9-13-10.5-18.5-16.8
	c-5.8-6.6-11.1-13.5-16-20.8c-2.1-3.2-4.5-6.1-6.7-9.2c-1.3-2-2.5-4-3.6-6.1c-2.1-3.9-4.1-7.9-6.1-11.8c-1.2-2.4-2.3-4.8-3.5-7.2
	c-1.9-3.7-4.1-7.4-5.9-11.2c-1.4-3-2.6-6-3.7-9.2c-3-9-4.9-18.3-7-27.5c-1.4-6-2.3-12.1-3.4-18.2c-0.1-0.6-0.2-1.2-0.2-1.9
	c0.4-5.2-0.7-10.3-1.1-15.4c-0.7-7.4-0.8-14.8-1.3-22.2c-0.2-2.8-0.3-5.6-1.1-8.3c-1.8-6.3-3.6-12.8-6.1-18.8
	c-2.7-6.4-5.6-12.8-10.1-18.3c-1.9-2.3-3.6-4.7-5.4-7.1c-1.2-1.7-2.9-2.4-4.9-1.9c-4.1,1-8-0.1-11.9-1.1c-0.8-0.2-1.7-0.4-2.3-0.9
	c-3.9-3.4-8.9-4.3-13.6-5.7c-7.3-2.3-14.3-5.2-21.3-8.2c-4.4-1.9-8.2-4.7-12.4-6.8c-6-3.1-11.3-7.1-17.1-10.6
	c-2.7-1.6-5.2-3.7-7.6-5.8c-3.8-3.4-7.7-6.9-11.1-10.7c-4.6-4.9-9-9.9-13-15.3c-3.3-4.3-5.9-9-8.4-13.9c-3.2-6.3-5.5-12.9-7.7-19.5
	c-1.4-4.5-2.3-9.2-3.1-13.8c-0.7-3.5-0.8-7.2-1.4-10.7c-1.1-6.3-0.2-12.4,1.1-18.4c1.1-5.4,3.2-10.7,5-15.9c1.5-4.1,3.2-8,4.9-12
	c0.8-1.7,1.7-3.3,2.7-4.9c1.8-3,3.5-6,5.6-8.9c3.4-4.6,6.9-9.2,10.7-13.6c3.9-4.6,7.9-9.3,12.3-13.5c4.2-4.1,8.9-7.6,13.4-11.4
	c1.4-1.2,2.7-2.6,4.2-3.6c4.8-3.2,9.6-6.3,14.5-9.4c2.1-1.3,4.1-2.8,6.2-4.1c3.4-2.1,6.9-4.2,10.3-6.3c2.6-1.6,5.5-2.8,8.6-3.4
	c2.4-0.5,4.7-1.6,7.1-2.1c5-1,10-2.4,15.1-2.7c7.9-0.5,15.7-0.4,23.4,1.9c2.2,0.7,4.7,0.8,7,1.1c5.6,0.7,10.8,2.6,16,4.7
	c4.9,2,9.5,4.4,14.2,6.8c2.1,1.1,3.8,2.8,5.8,4.2c1.4,1,2.8,2,4.3,3c1.5,1.1,2.9,2.2,4.4,3.3c0.3,0.2,0.6,0.6,0.9,0.8
	c4.6,3.3,9.3,6.4,13.9,9.8c2.1,1.5,4.2,3.3,6.1,5c5.3,4.6,10.4,9.4,14.6,15.1c1.9,2.5,4,4.9,5.5,7.8c1.6,3.2,3.9,6,5.9,8.9
	c3.7,5.4,6.7,11.1,9.1,17.2c1.2,3.1,2.5,6.1,3.7,9.2c3.5,9.3,6,18.7,2,28.6c-0.2,0.7-0.2,1.5,0.1,2.3c0.5,1.1,1.1,2.2,1.9,3.2
	c2.6,3.9,5.2,7.9,7.9,11.8c1.3,1.9,2.7,3.6,4.2,5.4c0.5,0.7,1.2,1.1,2,1.5c2.2,0.8,4.5,1.5,6.8,2.2c4.3,1.3,8.7,2.6,13,3.9
	c0.8,0.2,1.6,0.5,2.4,0.7c3,0.8,5.9,2,8.5,3.7c3.6,2.3,7.6,4.1,11.4,6.1c7,3.8,14,7.5,20.9,11.4c5.4,3.1,10.5,6.6,15.8,9.7
	c4,2.4,8.1,4.4,12.1,6.7c1.7,1,3.3,2.2,4.9,3.3c5,3.5,9.5,7.6,13.7,12c1.1,1.1,1.9,2.4,2.5,3.9c0.7,2,2.1,3,4,3.3
	c4.5,0.8,9,1.4,13.4,2.5c7.8,1.8,15.6,3.7,23.4,5.9c9.1,2.7,17.7,6.8,25.4,12.4c7,5,14.2,10,21.1,15.2c3.2,2.4,6.1,5.2,9.1,7.9
	c4.2,3.8,8.4,7.7,12.4,11.7c4.1,4.1,7.6,8.7,10.6,13.6c2.1,3.4,4.3,6.8,6.3,10.3c1.2,2.1,2.2,4.4,3.3,6.6c3.7,7.5,6.6,15.2,9.4,23
	c0.9,2.5,1,5.2,1.5,7.9c0,0.5,0.2,1,0.3,1.5c4.2,9.5,5.1,19.9,8.3,29.7c1.8,5.5,2.2,11.2,3.4,16.9c0.8,3.6,1.6,7.2,2.3,10.8
	c0.4,2.3,0.5,4.7,0.7,7c0.3,4.2,0.5,8.4,0.8,12.6c0.4,4.5,0.9,9,1.4,13.5c0.4,3.6,1,7.2,1,10.7c-0.1,5.5,1.5,10.6,2.2,15.9
	c0.7,4.8,1.4,9.6,2.5,14.2c1.1,4.7,3,9.2,4.3,13.9c1.4,4.7,3.5,9.3,6.2,13.4c1.2,1.9,2.7,3.7,4.3,5.2c3.8,3.5,7.5,7.1,11.7,10.1
	c4.6,3.3,9.2,6.6,14.8,8.2c5.2,1.5,10.2,3.8,15.2,6c1.5,0.7,2.7,1.9,4,2.9c2,1.6,3.9,3.3,5.8,5.1c0.6,0.5,1.2,1.3,1.4,2
	c0.5,2.8-0.1,5.6-2,7.8c-1.9,2.2-4,2.4-6.7,0.6c-3.9-2.5-7.7-5.1-11.5-7.9c-1.7-1.3-3.7-2.3-5.8-2.8c-9.9-2.8-19.2-7-27.4-13.2
	c-3.5-2.6-6.5-6-9.7-9c-0.7-0.7-1.1-1.5-1.8-2.1c-4.3-3.6-7.3-8.1-9.7-13s-4.8-10-6.9-15.1c-1.1-2.8-1.6-5.7-2.3-8.7
	c-1.9-8.7-2.6-17.5-3-26.4c-0.2-5-1.2-10-1.9-15c-0.1-0.5-0.3-1-0.3-1.5c-0.3-4.6-0.4-9.2-0.8-13.8c-0.2-3.1-0.8-6.1-1-9.2
	c-0.5-8.5-2.4-16.7-4-25c-0.8-4.5-1.5-8.9-2.4-13.4c-0.3-1.7-0.9-3.4-1.3-5.1c-1.7-6.4-3.3-12.7-5-19.1c-0.7-2.8-1.5-5.5-2.5-8.3
	c-2-5.7-3.8-11.6-6.2-17.1c-3.6-8-7.4-15.9-11.6-23.6c-1.9-3.6-4.6-6.8-7.1-10.1c-3.3-4.3-6.8-8.6-10.4-12.6
	c-4.5-4.9-8.9-9.8-14.4-13.5c-1.7-1.2-3.2-2.5-4.9-3.8c-6.3-4.8-13.9-7.1-21.1-10.1c-6.5-2.8-13.4-4.3-20.2-5.5
	c-3.6-0.6-7.4-0.6-11.1-0.9c-1.7-0.2-3.5-0.4-5.2-0.5c-1.2-0.1-2.3,0-3.5,0L441.4,299.1L441.4,299.1z M202,259.8l0,0.5
	c2.9,0,5.8,0.1,8.7,0c2.5-0.1,5-0.4,7.2-1.8c2.7-1.6,5-3.8,5-7c0-3.6-1.1-7.2-3-10.2c-2.7-4.2-4.1-8.7-4.6-13.6
	c-0.4-3.5,2.4-8.3,5.4-9.4c7.1-2.7,14.1-3.6,21.3-0.2c2.2,1.1,5,1.4,7.5,1.4c5.2,0,9-4.3,8.8-9.4c-0.1-0.9-0.2-1.9-0.3-2.8
	c-1-6.3-2.1-12.6-3-18.9c-0.2-1.6-0.2-3.3,0.1-4.9c0.6-4,5.5-8.7,9.2-9c5.9-0.6,11.3,0.5,16.5,3c4.2,2,7.4,4.7,9,9.2
	c0.7,2.1,2.7,2.9,4.9,3.2c4,0.4,7.7-3.4,8.2-7.3c0.7-6.3-0.7-12.4-2.8-18.2c-2-5.5-4.5-10.8-6.9-16.2c-3-6.6-6.7-12.8-10.9-18.6
	c-0.7-1-1.2-2.1-2-3.1c-2.4-3.4-4.3-7.2-7.2-10c-5.1-4.9-9.9-10.3-15.7-14.4c-3.7-2.6-7-5.6-10.7-8.3c-5.2-3.9-10.5-7.6-15.8-11.3
	c-6-4.3-12.2-8-19.4-10.1c-0.4-0.1-0.7-0.4-1.1-0.5c-1.6-0.6-3.2-1.4-4.8-1.9c-2.4-0.7-5.1-0.5-7.2-2.4c-0.4-0.4-1.4-0.2-2.1-0.3
	s-1.5,0-2.1-0.1c-4.3-0.7-8.6-1.9-12.9-2c-5.3-0.2-10.5,0.1-15.7,0.9c-5.3,0.7-10.5,2-15.7,3.4c-3.5,0.9-7,1.9-10.2,3.5
	c-5.1,2.7-9.9,6-14.7,9.1c-4.9,3.1-9.9,6-14.5,9.5c-5.7,4.2-11.2,8.8-16.4,13.6c-8.2,7.7-15.5,16.2-22.3,25.2
	c-5.2,7-9.6,14.4-13.1,22.3c-2.7,5.9-4.7,12.1-6.2,18.4c-1.6,6.8-2.4,13.6-1.6,20.5c0.8,7,1.8,13.9,3.7,20.6c0.7,2.6,1.7,5,2.4,7.6
	c2.1,7.2,5.3,13.8,9.1,20.2c5.9,10.1,14.1,18.5,22.2,26.9c4.6,4.7,9.9,8.7,15.3,12.5c10.2,7,20.8,13.4,32.1,18.5
	c8.2,3.7,16.7,6.6,25.3,9.1c1.8,0.5,3.4,1.5,5.1,2.2c0.9,0.4,1.8,0.9,2.8,1.2c4.8,1.3,9-0.1,12.7-3.2c1.5-1.3,2.4-5,2-7.1
	c-0.7-4-3.1-7.1-4.8-10.6c-2.3-4.6-3.4-9.7-3.4-14.9c0-6.9,6.5-12.9,12.2-13.5C192.3,260.4,197.2,260.2,202,259.8L202,259.8z
	 M476.2,532.3c-2.3,0-4.2,0-6,0c-6.5,0.1-11.6-2.4-15.1-8c-2-3.2-3.5-6.6-3.8-10.3c-0.5-4.5-1-9-1.2-13.5c-0.2-2.3-1.3-3.8-2.8-5.3
	c-0.7-0.7-1.6-1.2-2.4-1.9c-2.8-2.2-5.9-2.2-9-0.7c-2.9,1.5-5.7,3.3-8.6,4.8c-5,2.6-10.2,2.6-14.2-1.6c-4-4.1-6.8-9.1-8.3-14.6
	c-0.7-2.4-0.5-5,0.5-7.3c1.1-2.5,2.3-5.1,3.6-7.5c1-1.9,1.1-3.6-0.3-5.1c-1.5-1.7-2.9-3.5-4.7-4.8c-4.5-3.3-9.1-6.4-13.8-9.5
	c-3.9-2.6-6.9-5.8-8.9-10.1c-2.7-5.8-1.7-10,3-13.6c3-2.4,5.1-5.8,5.8-9.6c0.3-1.5,0.2-3-0.9-4.1c-5.2-4.8-10.3-9.8-15.8-14.2
	c-2.4-2-4.8-3.9-6.5-6.5c-3.2-4.8-3.2-10.3-1.8-15.5c0.8-3.1,3-5.8,5.9-7.7c1.4-0.9,2.7-1.9,3.9-3c2.8-2.4,3-5.2,1.5-8.4
	c-3-6.6-8.9-9.5-15.4-11.2c-3-0.8-6.2-0.6-9.2-1.1c-2.2-0.4-4.5-1-6.3-2.2c-5.2-3.3-9-8-10.7-13.9c-1.1-3.7-1.8-7.6-2.4-11.5
	c-1.3-7.3-2.5-14.6-5.4-21.5c-1.1-2.6-2.6-4.7-4.8-6.3c-2.9-2.1-6.1-3.8-9.7-4.7c-3.8-0.9-7.4-2.3-10.7-4.6
	c-5.6-3.8-9.6-8.8-11.4-15.2c-1.8-6.1-3.2-12.4-4.4-18.6c-1.1-5.5-4-10-7.5-14c-4.1-4.6-8.8-8.6-13.4-12.8c-1.2-1.2-2.1-1-3.4,0.2
	c-1.6,1.4-3.2,3-5.1,4c-2.7,1.4-5.5,3.2-8.7,2.7c-2.3-0.3-4.8-0.7-6.9-1.6c-5.1-2.2-10.2-2.9-15.7-1.4c-3.9,1-6,3.7-5.4,7.7
	c0.3,1.6,0.6,3.3,1.3,4.8c1.6,3.6,3.9,6.7,7.8,8.3c3,1.2,6.3,2.1,8.6,4.6c0.5,0.6,1.5,0.7,2.2,1.1c1.5,0.7,3,1.4,4.4,2.2
	c2.3,1.3,4.6,2.8,6.9,4.2c5,3.1,10,6,14.1,10.5c2.9,3.2,6.1,6.1,9.3,9.1c2.1,2,4.4,4,6.5,6.1c2.7,2.8,5.3,5.8,7.9,8.7
	c3.2,3.5,6.4,6.9,9.5,10.5c5.3,6.1,10.5,12.2,15.6,18.4c3.6,4.4,7.1,8.8,9.6,14c1.9,3.9,3.7,7.8,5.9,11.6c4.5,7.7,9,15.5,12.7,23.7
	c2.2,4.6,3.9,9.5,5.8,14.3c1.5,3.9,3.1,7.8,4.6,11.8c2.4,6.1,4.8,12.3,7.2,18.5c2.9,7.6,5.8,15.2,8.7,22.8c0.6,1.5,1.3,3,2.1,4.5
	c3.6,7.1,7.2,14.1,9.8,21.6c0.4,1.1,0.9,2.1,1.5,3.1c2,3.6,3.9,7.2,6,10.7c1.6,2.6,3.7,4.9,4.7,7.9c0.1,0.4,0.7,0.7,1.1,1.1
	c0.7,0.9,1.5,1.7,2.1,2.6c4.2,7.4,9.3,14.4,15.1,20.7c3.8,4.2,8.1,7.9,12.3,11.6c5.1,4.5,10.6,8.5,16.4,12.2
	c6.2,4,12.5,7.6,19.3,10.3c5.2,2.1,10.3,4.2,15.3,6.7c5.1,2.5,9.8,5.7,13.4,10.2c1.7,2.1,3.4,4.1,5.1,6.2c2.6,3.2,5.5,6.2,7.9,9.5
	c3.5,4.7,7.3,9.2,11.8,13c2.3,2,5.2,3.3,7.9,4.8c0.5,0.3,1.8,0.1,2.2-0.3c2.4-2.8,1.8-7.1-1.1-9.4c-2.6-2-5.5-3.7-8-5.8
	c-2.7-2.3-5.6-4.7-7.6-7.6c-4.4-6.1-5.2-13.4-4.9-20.7c0.2-4.8-1.7-8.5-5.8-10.6C488.5,532.6,482.3,531.9,476.2,532.3L476.2,532.3z
	 M224.5,259c1,0.4,2,0.9,3.1,1.4c4,1.7,8.2,3.5,10,7.7c2,4.5,3.4,9.3,4.9,14c0.7,2.3,0.9,4.6,1.4,7c1.4,7.5,7.4,13.3,15,14.4
	c3.6,0.5,7.2,0.9,10.7,1.3c10,1.1,17.3,5.9,21.5,15.3c2.4,5.4,2.8,11.1,4.5,16.6c1.4,4.9,2.3,9.9,7.8,12.1c1.1,0.5,2.3,1,3.4,1.5
	c3.7,1.6,7.4,3.1,11,4.8c3.4,1.7,5,4.8,5.6,8.4c0.3,1.6,0.4,3.3,1,4.8c1.2,3.4,1.1,7,0.4,10.4c-1,5.1-1.8,10.1-0.9,15.3
	c0.3,2.1,1,4.2,1.5,6.3c1.2,4.6,3.6,8.6,7.6,11.2c3,2,6.2,3.7,9.3,5.5c1.5,0.9,3,1.8,4.2,3c3.6,3.5,5.1,8.2,7,12.6
	c0.1,0.4,0.2,0.8,0.2,1.2c0,3.9,0,7.8-0.1,11.8c-0.1,6.8,0.6,13.6,3.1,20c2.3,5.7,6.1,10.2,11.8,12.9c3.5,1.7,6.4,4.1,9,6.9
	c1.7,1.8,2.9,4.1,3.2,6.5c1.1,8.1,2.4,16.1,3.5,24.2c0.4,2.9,1.1,5.6,2.8,8.1c0.8,1.1,1.2,2.6,1.9,3.9c0.7,1.3,1.5,2.8,2.4,3.9
	c2.8,3.3,6.4,5.9,10.6,7.3c2,0.7,4.1,1.3,6.2,2c5,1.7,9.5,4.7,13,8.6c3.6,4,5.8,8.7,7.3,13.8c1,3.3,1.8,6.6,3.2,9.6
	c1.1,2.5,2.8,4.8,4.6,6.9c1.3,1.6,3.1,2.7,4.6,4.1c2.8,2.4,5.6,4.5,9.1,5.8c2,0.7,4.1,0.8,5.9-0.4c1.9-1.3,3.8-2.5,5.6-3.9
	c3.5-2.6,6.7-5.4,10.6-7.4c3.6-1.9,7.1-1.8,10.7-0.6c5.7,1.9,10.6,5,15.2,8.7c0.7,0.6,1.4,1.2,2,2c1.8,2.6,4.4,4.4,7,5.9
	c1.3,0.8,2.8,1.3,4.3,1.5c2.2,0.4,4.2-1,4.9-3.1c-1.9-1.3-4.2-2.3-5.8-4c-4.3-4.4-8.3-9.1-12.4-13.7c-2.6-2.9-5-6-7.5-9
	c-1.1-1.2-2.5-2.2-3.6-3.4c-4.4-5.2-9.2-10-15.5-12.9c-4.1-1.9-8-4.3-12.1-6.1c-5.5-2.4-11.6-3.7-16.7-7.1c-4.3-2.9-8.9-5.3-13-8.3
	c-9.2-6.8-17.8-14.3-25.5-22.8c-1.9-2.1-3.8-4.3-5.7-6.4c-0.5-0.6-1-1.3-1.5-2c-1.6-2.6-3.1-5.4-4.9-7.9
	c-5.9-8.1-11.1-16.7-15.3-25.7c-3.2-6.9-6.2-13.9-9.3-20.8c-2.9-6.5-5.7-13-8.6-19.5c-0.4-0.8-0.7-1.7-1-2.6
	c-1.7-4.7-3.3-9.5-5-14.2c-2-5.5-4.1-11-6.2-16.5c-1.5-3.8-3.4-7.6-4.6-11.5c-2.4-8-6.1-15.2-10-22.5c-4-7.7-8.6-15-12.7-22.6
	c-3.4-6.3-7.5-12-11.8-17.6c-1-1.3-1.9-2.7-2.8-4.1c-0.6-0.9-1.3-1.8-2.1-2.7c-3.3-3.5-6.7-6.9-9.9-10.5c-5.1-5.8-10-11.8-15.3-17.4
	c-5.4-5.7-11.2-11-16.8-16.4c-1.6-1.5-3.3-3-5.1-4.4c-1.5-1.1-3.1-2-4.7-2.9c-1.1-0.7-2.1-1.3-3.1-2c-4.7-2.7-9.4-5.4-14.2-8
	c-1.6-0.9-3.3-1.7-5-2.5c-0.7-0.3-1.5-0.2-2.6-0.4c0.2,2.7,0.9,5,0.6,7.3S225.4,256.4,224.5,259L224.5,259z M311.8,485.3
	c0.2-1.2,0.5-2,0.5-2.8c0.2-7.9,0.3-15.9,0.3-23.8c0-6.6-0.2-13.2-0.2-19.8c0-1.5-0.2-2.9-0.2-4.3c-0.2-3.3-0.3-6.6-0.6-9.9
	c-0.3-4.4-0.5-8.9-1.1-13.3c-0.5-3.9-1.6-7.7-2.4-11.5c-1.5-7.4-4-14.5-7-21.4c-1.5-3.4-3.1-6.8-5.6-9.5c-3.5-3.9-7.1-7.7-10.7-11.5
	c-3.2-3.4-6.4-6.7-9.7-10c-1.9-1.9-3.8-3.8-5.9-5.5c-4.7-3.9-9.6-7.8-14.4-11.7c-2.4-2-4.7-4-7.1-6c-1.5-1.2-3.1-2.4-4.6-3.6
	c-2.7-2-5.6-3.9-8.1-6.1c-2.6-2.3-5.1-4.7-7.5-7.4c-5-5.7-10-11.3-12.6-18.8c-2.5-7.3-6.1-14.2-9.4-21.2c-1.5-3.2-4.6-4.3-7.9-3.3
	c-1.7,0.6-2.7,2.1-2.3,3.8c0.6,2.4,1.4,4.7,2.3,7c1.1,2.4,2.5,4.7,3.7,7.1c2.8,6.1,7.1,11.3,11.1,16.8c2.7,3.7,6.1,7,9.5,10.2
	c4,3.9,8.2,7.5,12.3,11.2c3.7,3.4,7.5,6.8,11,10.4c2.8,2.8,5.3,5.7,7.7,8.9c1.8,2.4,3.1,5.1,4.6,7.7c3.1,5.5,6.2,10.9,9.2,16.5
	c2.4,4.5,3.8,9.3,4.8,14.3c1.6,8,3,16,3.7,24.1c0.5,5.5,0.8,11.1,1.5,16.6c1.3,11.4,3.8,22.5,8.4,33.1c1.7,3.9,3.3,7.8,5.3,11.5
	c3.8,7,9.3,12.8,15.1,18.3C307.1,483,309,484.6,311.8,485.3L311.8,485.3z M658.1,598.8c-2.9-5.4-7.1-8.9-12.7-10.9
	c-4.3-1.5-8.5-3.1-12.7-4.8c-1.5-0.5-2.8-1.2-4.2-2c-7.2-4.4-14-9.5-20.4-15c-1.7-1.5-3.4-3.1-4.6-5c-3.9-6.2-7.5-12.6-8.7-20
	c-0.1-0.5-0.2-1-0.4-1.5c-2.4-5.9-3.5-12-4.5-18.3c-1-6.3-1.7-12.6-2.5-19c-0.7-5.9-1.4-11.9-1.9-17.8c-0.4-5.1-0.3-10.3-0.7-15.4
	c-0.7-9.5-2.2-18.8-4.2-28.1c-2-9.3-4.3-18.5-6.5-27.7c-1.2-5.2-2.4-10.4-3.8-15.6c-1.4-4.9-3-9.6-4.6-14.4
	c-1.3-3.8-2.6-7.6-4.2-11.3c-1.1-2.7-2.7-5.1-4-7.7c-3.5-7.2-7.7-14.1-12.6-20.5c-5.2-7-11.7-12.7-18.3-18.4
	c-4.8-4.2-9.9-8.1-14.9-12c-3-2.4-6.1-4.6-9.2-6.8c-8.5-5.8-16.8-12-27.1-14.5c-0.5-0.2-1-0.3-1.4-0.6c-7.2-3-14.8-4.5-22.3-6.2
	c-4.2-1-8.5-1.5-12.7-2.4c-4.7-1-9.4-2.2-14.1-3.3c-3.9-0.9-7.8-1.7-11.7-2.5c-0.6-0.2-1.2-0.4-1.7-0.7c-1.5-0.6-3-1.3-4.6-1.8
	c-7.7-2.9-15.6-5.2-23.1-8.9c-6.3-3-12.5-6.2-18.3-10.2c-4.7-3.2-9.4-6.4-14.2-9.4c-7.9-4.8-14.7-10.9-20.8-17.8
	c-3.3-3.7-6.7-7.3-10-11c-5.3-5.8-10.1-11.9-13.8-18.9c-1-1.8-2.2-3.5-3.4-5.1c-0.8-1.1-2-1.1-3.3-0.2c-1.1,0.7-1.1,1.6-0.5,2.7
	c1.7,2.9,3.3,5.9,5.1,8.8c1,1.6,2.3,3,3,4.6c2.6,5.7,5.9,10.8,9.7,15.8c1.2,1.6,2.6,3.2,3.7,4.9c4.1,6.5,9.4,12,14.9,17.3
	c4.4,4.3,9.4,7.9,14.3,11.7c2.3,1.8,4.8,3.2,7.2,4.7c3.1,1.8,6.3,3.4,9.4,5.3c2.4,1.4,4.5,3.3,6.9,4.6c6.3,3.4,12.6,6.5,18.9,9.8
	c0.8,0.4,1.7,0.8,2.6,1c5.6,1.4,11.2,2.6,16.8,4c2.2,0.6,4.3,1.5,6.5,2.1c3.4,0.9,6.8,1.9,10.2,2.3c5.2,0.7,10.4,1,15.7,1.5
	c1.7,0.2,3.5,0.6,5.2,0.7c3.6,0.3,7.2,0.4,10.8,0.8c6.8,0.8,13.5,1.9,19.8,4.6c2.5,1,5,1.9,7.5,2.9c5.1,2.2,10.3,4.2,15.2,6.8
	c3.7,2,7,4.7,10.2,7.5c3.7,3.1,7.1,6.5,10.5,9.9c4.1,4.1,7.4,8.8,11.1,13.3c5.7,7,10.2,14.6,14.5,22.5c0.8,1.5,1.4,3.2,2.1,4.8
	c1.3,2.8,2.8,5.5,3.9,8.4c2.3,6.2,4.3,12.4,6.3,18.7c1.4,4.3,2.7,8.6,3.9,13c1.5,5,2.7,10.2,4.3,15.1c0.7,2,0.9,4,0.7,6.1
	c-0.2,1.3,0,2.7,0.4,3.9c1.3,3.8,1.9,7.8,2.5,11.8c0.5,3.4,1.2,6.7,1.5,10.1c0.7,7.2,2.4,14.4,3.4,21.6c0.5,3.4,0.2,7,0.5,10.5
	c0.5,5.8,1.1,11.6,1.7,17.5c0.2,1.7,0.5,3.5,0.6,5.2c0.2,3.6,0,7.2,0.4,10.8c0.7,5,2.9,9.9,3.1,15c0,0.3,0.2,0.6,0.4,0.9
	c1.2,3.5,2.5,6.9,4.6,10c1.9,2.8,3,6.1,4.6,9.1c0.7,1.4,1.6,2.6,2.6,3.8c2.2,2.6,4.7,4.9,6.9,7.6c4.1,5,9,9.4,14.6,12.7
	c6.8,4.1,14.1,7.4,21.7,9.8c2.7,0.9,5.2,2.4,7.7,3.9c2.6,1.6,5.1,3.5,7.6,5.3C656,599.7,657.1,600.2,658.1,598.8L658.1,598.8z
	 M183,312.1c2.2,3,4.1,5.9,6.3,8.5c5.1,6.2,9.4,12.8,12.5,20.1c0.7,1.7,1.4,3.4,2.1,5.2c2.9,7.1,4.8,14.5,5.5,22.1
	c0.4,3.7,0.3,7.4,0.6,11.1c0.5,6,1.3,12.1,1.8,18.2c0.3,3.6,0.2,7.2,0.8,10.8c1,6.7,2.4,13.4,3.6,20.1c0.3,1.6,0.6,3.3,1,4.8
	c0.6,2.3,1.5,4.5,1.9,6.8c1.5,7.3,3.9,14.3,7.2,21c3.4,7.2,7.3,14.1,10.8,21.2c3.3,6.6,6.6,13.1,11.2,18.8c2.4,3,4.3,6.3,6.6,9.3
	c3.4,4.6,6.4,9.6,10.6,13.6c3.3,3.2,6.3,6.5,9.5,9.7c1.5,1.4,3.2,2.6,4.8,3.9c4.4,3.5,8.9,6.7,13.1,10.4c7.4,6.4,14.4,13.3,21,20.6
	c2.9,3.2,5.9,6.4,8.3,10c4.4,6.7,8.5,13.6,12.6,20.5c4.3,7.2,8.5,14.4,11.6,22.2c1.1,2.8,2.2,5.8,3.5,8.5c2,4.1,4.2,8,6.2,12.1
	c3.6,7.2,7.4,14.2,13.2,20c0.3,0.3,0.6,0.6,0.8,1c3.3,4.8,7.6,8.7,11.9,12.5c5.3,4.7,11,9,16.6,13.4c2.3,1.8,4.7,3.4,7.2,4.8
	c7.7,4.5,15.8,8,24.3,10.8c8.6,2.8,17.2,5,26.4,4.6c1.5-0.1,3.1,0,4.6,0.1c6.8,0.6,13.3-1.4,19.7-3.3c0.6-0.2,1-0.8,1.6-1.2
	c-1.4-1.6-3-1.3-4.5-1.4c-1.2,0-2.5,0.1-3.7,0.1c-3.9-0.1-7.8-0.2-11.7-0.3c-2-0.1-4.1,0-6.2,0.2c-3.1,0.4-6.2,0.2-9.2-0.7
	c-4.1-1.2-8.1-2.2-12.2-3.4c-1.7-0.5-3.3-1.1-5-1.6c-2.4-0.8-4.6-1.7-7-2.4c-7.5-2.2-14.9-4.7-21.9-8.3c-7.4-3.8-13.6-8.9-18.3-15.7
	c-2-3-4.2-5.9-6.2-8.8c-2.1-3.2-4.4-6.3-6.1-9.6c-5.9-11.6-11.7-23.2-17.3-34.9c-2.6-5.6-5.6-11-8.8-16.3
	c-4.3-6.9-8.8-13.7-13.3-20.5c-2.1-3.2-4.4-6.2-6.8-9.2c-1.4-1.9-3.1-3.6-4.8-5.2c-7.9-6.7-15.8-13.2-23.7-19.9
	c-3.9-3.3-7.7-6.6-11.4-10c-2.7-2.5-5.4-5-8-7.7c-2-2-4-4.2-5.8-6.4c-3.7-4.3-7.7-8.4-10.9-13c-6-8.5-11.6-17.3-17.3-26
	c-1.4-2-2.6-4.2-3.7-6.4c-2.7-5.6-5.2-11.2-7.8-16.9c-1.9-4.2-4.3-8.3-5.5-12.8c-1.9-7.5-3.4-15.1-4.5-22.7
	c-0.9-5.8-0.9-11.7-1.2-17.6c-0.3-5.5-0.7-10.9-0.8-16.4c-0.2-10.9-1.3-21.8-2.9-32.6c-1-6.7-2.7-13.3-4.6-19.8
	c-1.3-4.7-3.4-9.2-5.2-13.8c-0.5-1.3-1.2-2.6-1.8-3.9c-1-1.9-1.9-3.9-3-5.7c-1-1.8-2.2-3.5-3.5-5.1c-2-2.6-4.2-5-6.4-7.5
	c-1-1.1-2-0.8-2.6,0.6c-0.2,0.5-0.3,1-0.3,1.5c-0.1,2.4-1.3,4.1-3,5.6C184.7,310.5,184.1,311.1,183,312.1L183,312.1z M381.2,521.6
	c-0.7-3.8-1.5-7-1.8-10.3c-0.4-6.1-1.2-12.1-2.5-18.1c-0.5-2.4-1.6-4.6-3.3-6.5c-2.1-2.4-4.6-4.3-7.8-5.4c-1.5-0.5-2.8-1.3-4-2.2
	c-6.6-5.2-9.9-12.2-11.2-20.3c-1-6.1-1.1-12.3-0.6-18.5c0.5-4.9-0.5-9.2-3.2-13.2c-0.3-0.4-0.5-0.9-0.8-1.3c-1.6-2.8-4-5-6.9-6.5
	c-5-2.6-10.2-5-13.9-9.6c-0.6-0.7-1.3-1-2.2-0.2c0.2,0.7,0.3,1.3,0.4,2c0.8,5.6,2.8,11,2.7,16.7c0,1.7,0.1,3.5,0,5.2
	c-0.1,3.7-0.2,7.4-0.3,11.1c0,3.1,0,6.2,0.1,9.2c0.1,3.2,0.4,6.3,0.6,9.5c0.2,4,0.1,8,0.3,12c0.3,4.9,1,9.9,1.3,14.8
	c0.1,2.2,0.8,4.2,2.2,5.9c3.4,4.5,7.6,8.2,12.5,10.8c5.7,3,11.6,5.8,17.7,8.2c5.8,2.4,11.9,4.2,17.8,6.1
	C379.2,521.5,380,521.4,381.2,521.6L381.2,521.6z M557,523.2c-0.1-0.5-0.2-1.1-0.3-1.6c-1.9-4.9-5.1-9-8.5-12.8
	c-2.3-2.6-5.3-4.6-7.9-6.9c-5.7-5.2-11.2-10.7-17.5-15.1c-2.5-1.8-4.8-3.9-6.9-6.2c-4.2-4.4-7-9.6-9.7-15c-1.5-3-2.7-6.2-3.7-9.5
	c-1.2-4.2-2-8.6-2.9-12.9l-3.7-16.8c-0.2-1-0.4-2-0.8-3c-2.8-8.6-5.6-17.2-8.6-25.8c-1.4-4.1-3-8.1-4.9-12c-1.5-3.2-3.6-6.3-5.4-9.3
	c-0.8-1.3-1.8-2.5-2.5-3.9c-2.6-5.1-5.5-10.1-9.5-14.3c-2.4-2.5-4.8-5.1-7-7.8c-3.7-4.5-7.3-9-11.7-12.7c-3-2.6-5.8-5.6-9.1-7.9
	c-4.6-3.2-9-6.5-13.9-9.2c-7.5-4-14.7-8.7-22.6-12c-7.6-3.1-15.1-6.6-22.6-10c-5.5-2.4-11-4.8-16.2-7.7c-4.9-2.6-9.4-5.9-14.1-8.9
	c-5.5-3.4-10.3-7.6-15-11.9c-2.5-2.3-4.6-5-7.1-7.3c-6-5.5-11.9-10.9-16.3-18c-3.3-5.3-7.6-10-11.4-15c-2.3-3.1-4.8-6.1-6.3-9.5
	c-2.8-6.1-5-12.5-5.8-19.2c-0.5-4.5-0.9-9-1.1-13.5c-0.1-1.9-1.1-3.6-2.7-4.6c-1.1-0.8-2.4-2.3-3.8-1.4c-1.6,1-1,2.9-0.7,4.6
	c0.3,1.9,0.6,3.8,0.8,5.8c0.1,0.7,0.1,1.5,0.2,2.1c0.7,3.5,1.4,7,2.2,10.5c0.6,2.6,0.9,5.3,1.9,7.7c1.5,3.5,3.4,6.8,5.2,10.2
	c2.1,3.8,4.1,7.6,6.4,11.2c3.7,5.8,7.2,11.8,12.5,16.5c0.8,0.7,1.4,1.8,2.2,2.6c3.4,3.7,5.9,8.2,10,11.3c0.8,0.6,1.2,1.6,1.8,2.4
	c1.5,1.8,2.9,3.7,4.6,5.3c2,1.9,4.2,3.5,6.4,5.2c1.9,1.5,3.9,3,6,4.3c5,3.1,10.1,6,15.1,9c3.7,2.2,7.4,4.5,11.1,6.7
	c3.4,2,6.9,3.7,10.3,5.6c3.4,1.9,6.8,3.9,10.2,5.9c2.8,1.6,5.5,3.2,8.3,4.7c1.1,0.6,2.2,1,3.4,1.4c3.3,1.2,6.8,2,9.7,3.7
	c6,3.5,12.6,6.1,18.2,10.4c2.9,2.2,6,4.3,8.1,7.5c0.7,1.1,2,1.8,2.9,2.7c2.7,2.5,6,4.5,7.8,7.8c2.2,3.9,5.3,7,8.4,10.2
	c6.5,6.6,12.6,13.4,16.7,22c1.3,2.7,3.3,5.2,5.3,7.5c2.4,2.7,4.4,5.7,5.9,9c0.8,1.7,1.4,3.5,2.5,5c2.3,3,3.7,6.3,5.1,9.8
	c2.5,6.4,5.2,12.7,6.7,19.5c1,4.6,2.1,9.2,3.1,13.8c1.2,5.7,2.4,11.5,3.6,17.3c0.9,3.9,2.2,7.8,4.6,11c4.9,6.4,10.3,12.5,16.9,17.1
	c6.1,4.3,11.4,9.5,16.8,14.6c0.9,0.9,1.9,1.7,2.6,2.7c3.7,4.9,7.3,9.9,11,14.8C552.7,522.4,554.3,523.9,557,523.2L557,523.2z
	 M300,225.5c1.3,2,2.4,4,3.7,5.9c2.2,3.1,4.5,6.1,6.8,9.2c1.3,1.8,2.7,3.7,4.1,5.5c4.4,5.7,9.9,10.4,15,15.5
	c2.8,2.8,5.4,5.8,8.5,8.1c7.8,5.8,15.3,12.2,24.2,16.5c4.6,2.2,9.1,4.7,13.8,6.8c6.6,3,13.2,5.7,19.8,8.6c4,1.7,7.9,3.5,11.8,5.4
	c3.5,1.7,7,3.6,10.4,5.5c2.4,1.3,4.7,3,7.2,4.2c5.2,2.4,9.6,6,14.1,9.5c4.3,3.3,8.3,7.1,12.4,10.7c0.8,0.7,1.8,1.2,3,1.9
	c0-0.8,0.1-1.1,0-1.3c-1.5-5.1-3-10.3-4.6-15.4c-0.7-2.4-1.4-4.8-2.5-7c-1.7-3.4-3.7-6.6-5.5-9.9c-3.4-5.9-8.6-8.6-15.2-9
	c-2.6-0.2-5.1-0.7-7.6-1.3c-3.6-0.9-7.1-2.2-10.7-3.2c-6.4-1.9-12.9-3.7-19.2-5.7c-1.9-0.6-3.6-1.6-5.4-2.4
	c-6.1-2.6-11.8-5.9-17.5-9.2c-4.4-2.6-8.8-5.4-13-8.3c-4.6-3-9.1-6-13.4-9.4c-6.8-5.5-13.2-11.5-18.6-18.5c-1.6-2-3.1-4.1-4.6-6.2
	c-0.8-1.1-1.8-2.3-3.3-1.7c-2.4,0.8-4.2-0.1-6-1.3C305.4,227.3,302.9,226,300,225.5L300,225.5z M567.2,612.9
	c1.3-2.2,1.7-4.2,1.4-6.1c-0.7-5.2-1.1-10.5-2.7-15.5c-0.4-1.3-0.6-2.6-1-3.9c-1.5-4.9-2.9-9.9-4.6-14.7c-1.2-3.4-2.9-6.6-4.2-9.9
	c-2.8-7.2-7.5-13.3-12.8-18.8c-5.8-6-11.9-11.7-18-17.4c-4.1-3.9-8.4-7.6-12.5-11.5c-3.2-3.2-6.3-6.4-10.1-9.1
	c-0.2-0.2-0.4-0.4-0.6-0.7c-3.2-3.3-6.5-6.6-9.6-10c-1.8-2-3.6-4-4.9-6.2c-2.9-4.8-5.5-9.9-8.1-14.8c-1.3-2.4-2.7-4.7-3.5-7.2
	c-1.9-5.5-4.1-10.8-4.6-16.6c-0.4-4.7-1.2-9.4-1.6-14.1c-0.2-2.1,0.3-4.3,0.2-6.5c-0.3-5.2-0.6-10.3,0.8-15.4c0.2-0.5,0.2-1,0.2-1.5
	c-0.3-2.1,0.2-4,0.7-6c0.5-2-0.2-4.2-0.3-6.3c0-0.3,0.1-0.6,0.1-0.9c0.5-4.9-0.8-9.2-4.3-12.7c-0.4-0.4-1-0.5-1.7-0.9
	c-0.2,0.7-0.5,1.2-0.4,1.7c0.5,3.2,0.3,6.4-0.3,9.5c-0.7,3.8-1.5,7.7-2.2,11.5c-0.9,4.4-2,8.9-2.6,13.3c-0.4,2.9-0.4,5.9,0,8.9
	c1.3,7.7,3,15.4,4.6,23c0.5,2.2,0.9,4.5,1.5,6.6c1.2,4.4,2.6,8.7,3.7,13c1.5,6.1,4.1,11.6,8.4,16.3c2.9,3.2,5.9,6.3,9,9.3
	c2.8,2.6,5.6,5.1,8.6,7.4c2.4,1.9,5.2,3.4,7.7,5.2c2.9,2.1,5.9,4.1,8.5,6.6c3.5,3.2,6.7,6.8,9.9,10.3c3.2,3.5,6.2,7.1,9.2,10.7
	c1.7,2,3.5,4.1,5.1,6.2c1.8,2.3,3.4,4.9,5.5,7c3.8,3.7,7.1,8.1,9.6,12.8c4.1,7.7,7.3,15.6,8.9,24.2c0.7,3.7,1.2,7.5,2.1,11.2
	c0.8,3.2,1.9,6.3,3,9.4C565.4,611,566.3,611.7,567.2,612.9L567.2,612.9z M312.9,499.4c1.1-4.4-0.2-7.9-3.2-10.1
	c-2.3-1.6-4.5-3.3-6.7-4.9c-11.2-8.2-18.1-19.7-23.1-32.2c-2.5-6.3-4.1-12.9-5.9-19.5c-0.9-3.2-1.5-6.4-1.9-9.7
	c-0.6-6.9-0.8-13.8-1.3-20.7c-0.8-10.4-2.4-20.6-5.5-30.6c-1.4-4.5-3.3-8.6-5.7-12.6c-3.2-5.5-6.5-11-9.5-16.6
	c-2.6-4.8-6.2-8.7-10.2-12.3c-1.7-1.5-3.3-3-5-4.6c-0.8-0.8-1.6-1.5-2.4-2.4c-3.6-3.6-8.5-5.8-11.5-10.2c-1-1.5-2.2-2.9-3.6-4.2
	c-2.8-2.7-5.5-5.5-7.9-8.6c-5.1-6.5-9.2-13.6-13-20.9c-0.4-0.7-0.7-1.5-0.7-2.4c-0.2-3.9-2.3-7.2-3.4-10.8c-0.5-1.6-2.3-2.1-3.8-1.5
	c-3.9,1.5-4.5,3.2-2.5,6.9c0.2,0.4,0.4,0.7,0.7,1.1c2.5,4.2,5.2,8.2,7.3,12.5c4.2,8.3,10,15.3,16.5,21.8c3.7,3.7,7.5,7.3,11.1,11.2
	c3.1,3.4,5.8,7.2,9.3,10.3c0.9,0.7,1.7,1.5,2.4,2.4c2.3,3.1,4.5,6.4,6.9,9.5c3.9,5.1,8,10,11.8,15.1c3.9,5.2,6.9,11,8.1,17.6
	c1.3,7.9,2.5,15.9,3.5,23.8c0.6,5.2,0.8,10.5,1.1,15.7c0.2,4.6,0.2,9.2,0.7,13.8c0.8,7.1,2.7,13.9,5.5,20.5c0.5,1.1,0.9,2.3,1.3,3.5
	c2.1,6.6,4.6,13,8.3,18.9c3.8,6,8.3,11.6,13.4,16.5c4.7,4.6,9.9,8.7,15.6,12.1C310.4,498.4,311.5,498.8,312.9,499.4L312.9,499.4z
	 M318.2,394.1c1.3-2.1,1.3-2.1,1.4-4c0.2-2.7,0-5.5,0.7-8c1.8-6.5,0.5-12.7-1.1-18.9c-1-3.8-3.7-6.3-7.4-7.8
	c-4.8-1.9-9.5-3.9-14.2-6c-2-0.8-3.6-2.6-4.2-4.7c-1.4-5-2.5-10-3.8-15c-0.7-2.5-1.1-5-2.1-7.4c-2.2-5.3-5.5-9.6-10.6-12.5
	c-4.6-2.5-9.7-2.7-14.7-3.2c-5.4-0.5-10.7-1.2-15.2-4.5c-0.2-0.2-0.7-0.2-1.8-0.4c1,1.3,1.5,2.1,2.1,2.7
	c7.2,7.2,14.3,14.5,21.6,21.7c4.1,4.1,8.3,7.9,12.3,12.1c4.8,4.9,10.3,9.1,14.3,14.7c2.8,3.8,5.9,7.4,8.2,11.5
	c3.4,6.1,6.2,12.5,9.2,18.8C314.6,386.9,316.4,390.4,318.2,394.1L318.2,394.1z M308.5,385.9c0.1,1.1,0,1.6,0.2,2.1
	c1.1,3.8,2.4,7.5,3.2,11.3c1.2,5.5,2.3,11.1,2.9,16.7c0.7,5.6,0.9,11.3,1.1,16.9c0.1,2.3-0.1,4.5-0.2,6.8c0,0.7-0.1,1.4-0.1,2.1
	c0.2,3.8,0.5,7.6,0.5,11.3c0,3.7-0.4,7.6-0.3,11.4c0.1,4.1,0.7,8.2,0.6,12.3c-0.1,8.3,0.1,16.6,1.7,24.8c0.3,1.7,0,3.6,0.6,5.2
	c2.1,5.6,3.1,11.5,5.5,16.9c1.8,3.9,3,8.1,4.8,12c1.7,3.7,3.4,7.6,5.7,10.9c3.7,5.2,7.8,10.1,11.8,15.1c2.7,3.3,5.8,6.2,9.7,8
	c3.4,1.6,6.5,0.7,9.2-2.5c-0.5-0.8-1-1.8-1.7-2.4c-3.7-3.1-7.4-6.2-11.2-9.2c-2.2-1.7-4.6-3.2-6.8-4.7c-3.3-2.3-5.4-5.6-7.7-8.8
	c-3.7-5.1-6.4-10.8-8.5-16.8c-1.8-5.1-3.5-10.4-3.5-15.9c0-0.3-0.1-0.6-0.1-0.9c-0.4-3.7-1-7.3-1.3-11c-0.3-3-0.3-6-0.6-8.9
	c-0.7-7.6-1.6-15.1-1.4-22.8c0.1-3.6-0.4-7.2-0.6-10.8c-0.1-2-0.1-4.1-0.1-6.2c0.1-4.7,0.5-9.4,0.5-14.2c0-10.3-2.3-20.3-5-30.1
	c-1.6-6-4.7-11.6-7.2-17.4C310.2,386.9,309.4,386.6,308.5,385.9L308.5,385.9z M421.4,398.9l0.7-0.1c0.3-2.1,1.1-4.2,0.9-6.3
	c-0.4-7.2-1-14.4-1.9-21.5c-0.4-3-1.5-5.9-2.5-8.8c-2-5.7-4.6-11.3-8.5-16c-5.4-6.5-11.5-12.4-18.2-17.6c-5.7-4.4-11.6-8.2-18.7-9.8
	c-2.3-0.5-4.5-1.4-6.8-2.2c-3.8-1.5-7.6-3-11.5-4.5c-6.6-2.4-13.5-4-18.7-9.1c-0.7-0.7-1.6-0.9-2.5,0.5c2.6,2,5.2,3.9,7.7,5.9
	c0.9,0.7,1.9,1.3,2.3,2.3c0.6,1.4,1.6,2,2.9,2.5c1.4,0.5,2.6,1.1,3.9,1.9c1.5,0.9,2.8,2.2,4.3,2.9c6,2.8,11.9,5.7,18.1,7.9
	c6.4,2.4,11.7,6.4,17.2,10.3c5.1,3.7,9.5,8.1,13.8,12.8c3.8,4.2,6.4,9,8.3,14c2.5,6.5,4,13.4,5.9,20.1c0.4,1.4,0.8,2.8,1.1,4.2
	c0.6,3.2,1.1,6.5,1.6,9.7C420.8,398.3,421.1,398.6,421.4,398.9L421.4,398.9z M327.8,219.3l-0.3,0.7c0.5,0.6,0.9,1.3,1.4,1.9
	c1.5,1.8,3.1,3.5,4.6,5.3c2.2,2.7,4.7,4.8,8.3,5.6c2.2,0.5,4.5,1,6.5,1.9c4.6,2,9.1,4.3,13.7,6.5c5.1,2.4,10.3,4.8,14.7,8.5
	c1.5,1.2,3.2,2.3,4.9,3.3c8,4.8,15.8,9.7,23.1,15.4c1.5,1.2,3,2.5,4.6,3.7c1.2,0.8,2.4,1.4,3.8,1.9c2.8,0.8,5.6,1.4,8.4,2
	c1.5,0.3,3.1,0.6,4.7,0.9l0.4-0.7c-1.1-1-2-2.1-3.2-3c-3.6-2.9-6.9-6.3-10.9-8.6c-5.7-3.3-10.8-7.5-16.8-10.3c-3.8-1.7-6.8-5-11-6.2
	c-0.3-0.1-0.6-0.2-0.8-0.4c-4.7-2.7-9.3-5.5-14.1-8.2c-7.7-4.2-15.9-7.7-22.9-13.2c-0.3-0.2-0.7-0.4-1.1-0.5
	c-5.2-2-10.4-3.9-15.6-5.9C329.4,219.4,328.6,219.4,327.8,219.3L327.8,219.3z M296.7,363.5l0.6-0.4c-0.1-0.6-0.1-1.3-0.4-1.7
	c-2.5-3.2-4.9-6.4-7.6-9.3c-2.9-3.1-6.2-5.7-9.3-8.6c-5.7-5.5-11.2-11.2-16.9-16.8c-3.9-3.8-8.1-7.3-11.9-11.3
	c-4.2-4.4-8.1-9-12.2-13.6c-2.2-2.5-4.5-4.9-6.4-7.5c-3.9-5.4-7.7-11-11.3-16.6c-1.9-3-3.4-6.1-4.6-9.4c-1.7-4.5-4.4-5.5-8.6-2.8
	c1.7,3,3.6,6,5.1,9.1c1.7,3.5,3.2,7.2,4.8,10.7c1.7,3.6,3.2,7.4,5.4,10.7c2.3,3.4,5.1,6.5,8,9.4c2.8,2.8,5.4,5.9,8.9,8.1
	c4.6,2.9,9.4,5.6,12.7,10.1c0.2,0.3,0.7,0.5,1,0.7c5,4,10,7.9,15,11.9c2.6,2.1,5.2,4.1,7.5,6.4c5.7,5.8,11.3,11.7,16.9,17.6
	C294.6,361.4,295.6,362.4,296.7,363.5L296.7,363.5z M542.7,698.6c-1.5-2.6-4.1-3.6-6.4-4.7c-3.1-1.5-6.6-2.8-9.2-4.9
	c-9.5-7.6-16.3-17.1-19.9-28.7c-1.8-5.7-3.8-11.3-5.3-17.1c-1.6-6.1-3.4-12.1-5.8-17.9c-1.4-3.5-2.1-7.3-3.4-10.9
	c-2.4-6.7-5-13.3-8.3-19.6c-1.8-3.5-3.8-6.8-5.8-10.2c-2-3.3-3.9-3.7-7.2-1.7c-2.8,1.8-2.9,2.5-0.7,5c2.1,2.2,4.7,4.2,6.4,6.7
	c3.6,5.2,7.9,10,10.3,16c1.6,4.1,3.6,8.1,5.1,12.2c1.4,3.9,2.3,7.9,3.5,11.8c1.1,3.7,2.7,7.3,3.4,11.2c0.9,4.9,2.4,9.6,3.7,14.3
	c1.9,6.6,4.6,12.7,8.7,18.3c3.4,4.7,7.3,9.1,11.7,13c3.7,3.3,7.7,5.9,12.5,7.1C538,699.1,540.3,699.6,542.7,698.6L542.7,698.6z
	 M329.6,502.5c-0.2,4.4,0.7,7.7,4.9,9.6c4.6,2.1,8.9,4.8,13.4,7c4.2,2,8.5,3.7,12.9,5.2c3.8,1.2,7.8,1.8,11.7,2.7
	c2.8,0.6,5.6,1.3,8.5,1.8c0.9,0.2,1.9,0,3,0c-0.7-2.2-2.1-2.8-3.6-3.3c-2.4-0.9-4.9-1.5-7.3-2.4c-5.8-1.9-11.6-3.7-17.3-5.9
	c-4.1-1.6-7.9-3.8-11.9-5.7c-3.3-1.5-6.3-3.4-8.8-6.2C333.8,504,332.3,502.3,329.6,502.5L329.6,502.5z M239.8,293.8
	c-0.7-4.6-1.4-8.9-2.1-13.3c-0.3-1.9-0.8-3.8-1.3-5.6c-0.6-1.9-1.6-3.6-1.9-5.5c-0.5-2.5-1.8-4.1-3.9-5.3c-1.2-0.7-2.4-1.6-3.8-2.1
	c-2.2-0.8-4.5-1.5-6.7,0.7c0.4,1.4,0.6,2.8,1.2,4.1c2,3.9,3.8,8.1,6.3,11.6c2.9,4,5.7,8.1,8,12.5
	C236.3,292.5,237.4,293.9,239.8,293.8L239.8,293.8z M272.2,198.8l0.8-0.3c0.1-1.1,0.3-2.1,0.2-3.2c-0.3-3.5-0.8-6.9-1.2-10.4
	c-0.6-5.5,0.2-6.8-7.7-6.5c-3.7,0.1-5.5,2.3-5.5,5.9c-0.1,3.6,0.5,6.5,4.1,8.4C266.2,194.5,269.1,196.8,272.2,198.8L272.2,198.8z
	 M396.1,267.7l0.3-0.8c-1.4-0.8-2.8-1.6-4.1-2.5c-4.2-2.8-8.2-6-12.5-8.6c-6.8-4.1-12.8-9.5-20.4-12.2c-0.3-0.1-0.6-0.3-0.8-0.5
	c-3.8-2-7.7-4.1-11.5-6c-1.1-0.5-2.2-1.5-3.9-0.7c0.4,0.5,0.6,0.8,0.8,1c4.4,3,8.9,6,13.3,9c1.1,0.7,2.1,1.6,3.3,2.3
	c5.2,3.3,10.3,6.7,15.7,9.8c4.4,2.5,9,4.5,13.6,6.7C392,266.1,394.1,266.9,396.1,267.7L396.1,267.7z M288.1,192
	c-0.3,1-0.7,1.7-0.6,2.3c0.5,3.3,1.1,6.7,1.7,10c0.3,1.7,1.6,2.8,3.2,3.6c2.5,1.1,5,2.4,7.6,3.6c1,0.5,2,0.9,2.9,1.3l0.6-0.5
	c-0.4-1-0.6-2.1-1.1-3c-2-3.9-4.2-7.8-6.3-11.7c-1-1.8-2.3-3.2-4.2-3.9C290.7,193.3,289.6,192.7,288.1,192L288.1,192z M311.9,226.9
	l0.6-0.7c-1.1-1.4-2.4-2.6-3-4.2c-1.2-3.1-3.6-4.4-6.5-5c-1.6-0.3-3.1-1-4.4-2.1c-1.5-1.2-3.2-1.7-5.3-1.2c-0.2,2,0.2,3.7,1.8,4.6
	c2,1.2,4.2,2.1,6.3,3.1c1.1,0.5,2.2,1.1,3.3,1.7C307,224.4,309.5,225.7,311.9,226.9L311.9,226.9z M261.3,197.2
	c-0.9,3.7-0.4,5.1,2.8,7.3c3.5,2.3,7.2,4.4,10.7,6.6c0.4,0.2,0.9,0.3,1.6,0.5c0.1-3-0.6-5.2-3.3-6.8c-3.3-1.9-6.3-4.3-9.4-6.4
	C263,197.9,262.1,197.6,261.3,197.2L261.3,197.2z M436.3,422.9c-0.2-2.7-0.3-3.2-2.8-5.4c-3.6-3.2-6.6-6.7-8.7-11.1
	c-0.4-0.8-1.2-1.5-2-2.4C421.2,410.2,429.9,422.2,436.3,422.9z"/>
<path fill="none" stroke="#FFC107" stroke-miterlimit="10" d="M202,259.8c-4.8,0.4-9.7,0.7-14.4,1.2c-5.7,0.7-12.2,6.7-12.2,13.5
	c0,5.2,1.1,10.3,3.4,14.9c1.7,3.5,4.1,6.6,4.8,10.6c0.3,2-0.5,5.8-2,7.1c-3.7,3-7.9,4.4-12.7,3.2c-1-0.2-1.9-0.8-2.8-1.2
	c-1.7-0.7-3.3-1.6-5.1-2.2c-8.6-2.6-17.1-5.5-25.3-9.2c-11.3-5.1-21.9-11.5-32.1-18.5c-5.5-3.7-10.7-7.8-15.3-12.5
	c-8.1-8.3-16.3-16.7-22.2-26.9c-3.7-6.4-7-13-9.1-20.2c-0.7-2.6-1.7-5.1-2.4-7.6c-2-6.8-2.9-13.7-3.7-20.6c-0.8-7,0-13.8,1.6-20.5
	c1.5-6.3,3.5-12.5,6.2-18.4c3.6-7.9,8-15.4,13.1-22.3c6.7-9,14.1-17.6,22.3-25.2c5.2-4.8,10.7-9.4,16.4-13.6
	c4.6-3.5,9.6-6.4,14.5-9.5c4.9-3.1,9.6-6.4,14.7-9.1c3.1-1.7,6.7-2.6,10.2-3.5c5.2-1.3,10.4-2.7,15.7-3.4c5.2-0.7,10.5-1,15.7-0.9
	c4.3,0.2,8.6,1.4,12.9,2c0.7,0.1,1.4,0,2.1,0.1c0.7,0.1,1.7-0.1,2.1,0.3c2.1,2,4.8,1.7,7.2,2.4c1.6,0.5,3.2,1.2,4.8,1.9
	c0.4,0.2,0.7,0.4,1.1,0.5c7.1,2.1,13.4,5.8,19.4,10.1c5.3,3.8,10.6,7.5,15.8,11.3c3.6,2.7,7,5.8,10.7,8.3
	c5.9,4.1,10.6,9.4,15.7,14.4c2.9,2.8,4.9,6.6,7.2,10c0.7,1,1.2,2.2,2,3.1c4.3,5.8,7.9,12,10.9,18.6c2.4,5.3,5,10.7,6.9,16.2
	c2.1,5.8,3.5,11.9,2.8,18.2c-0.5,4-4.2,7.8-8.2,7.3c-2.2-0.2-4.2-1.1-4.9-3.2c-1.6-4.5-4.9-7.2-9-9.2c-5.2-2.5-10.6-3.6-16.5-3
	c-3.7,0.4-8.5,5-9.2,9c-0.3,1.6-0.3,3.3-0.1,4.9c0.9,6.3,2,12.6,3,18.9c0.2,0.9,0.3,1.8,0.3,2.8c0.2,5.1-3.7,9.4-8.8,9.4
	c-2.5,0-5.3-0.3-7.5-1.4c-7.2-3.4-14.2-2.4-21.3,0.2c-3,1.1-5.8,5.9-5.4,9.4c0.5,4.8,1.9,9.4,4.6,13.6c2,3,3,6.6,3,10.2
	c0,3.2-2.3,5.4-5,7c-2.2,1.3-4.6,1.7-7.2,1.8c-2.9,0.1-5.8,0-8.7,0L202,259.8L202,259.8z M150.8,264.7c-1.2-0.6-1.8-0.8-2.4-1.1
	c-3.1-1.3-6.3-2.4-9.2-4.1c-2.9-1.7-5.4-4-8-6.1c-1.2-1-2.4-2-4.2-0.9c-0.7,2.5,0.5,4.5,2.1,6.3c2,2.3,4.6,3.7,7.2,5.2
	c2.9,1.6,5.9,2.2,9.1,2.4C147,266.4,148.7,266,150.8,264.7z M162.2,222.2c3.3,2.3,6.6,4.4,9.7,6.7c1.5,1.1,2.9,2.3,4.3,3.5
	c1.3,1.1,2.7,1.3,4.4,0.5c-0.2-0.7-0.3-1.3-0.6-1.8c-2.9-4.7-7-8-12-10.3c-1-0.5-2.2-0.6-3.3-0.8
	C163.2,219.8,162.3,220.5,162.2,222.2z M206,208.3c-0.2-1.5-0.2-2.2-0.4-2.8c-2.3-6.4-7-10.4-12.9-13.3c-0.7-0.3-1.5-0.5-2.4-0.6
	c-0.9-0.1-1.9-0.1-2.1,1.1c-0.2,1,0.1,1.9,1.1,2.3c4.8,2,8.1,5.8,11.7,9.3C202.3,205.6,203.9,206.7,206,208.3L206,208.3z M159.2,250
	c-3.6-3.1-7.1-6.2-10.6-9.1c-1.1-0.9-2.4-1.5-3.8-1.9c-1.3-0.3-2.8,0.1-3.5,1.4c-0.8,1.5,0.7,2.1,1.7,2.8c3.1,2.2,6.2,4.4,9.2,6.7
	C154.4,251.6,156.7,251.5,159.2,250z M213.6,169.3l-1,2.5c0.3,0.4,0.4,0.6,0.6,0.7c3.9,2.2,7.1,5.2,9.9,8.7c1.2,1.6,2.9,2.7,4.8,3.2
	C226,176.3,221.5,171.5,213.6,169.3L213.6,169.3z M259.7,134.7c-0.1,0.4-0.2,0.6-0.2,0.6c0.2,0.2,0.3,0.5,0.6,0.7
	c3.7,2.8,7.2,5.8,9,10.2c0.4,1,1.2,2.2,3,1.9c0.6-4.1-1.5-7.2-4-9.9C265.9,135.9,263.3,133.8,259.7,134.7L259.7,134.7z M252.7,157.7
	c1-1.9,0.2-3.2-0.8-4.4c-2.6-3-6.3-4.5-9.9-5.9c-0.3-0.2-0.6-0.2-0.9-0.1c-0.6,0.2-1.5,0.5-1.6,0.9c-0.1,0.5,0.4,1.3,0.8,1.7
	c0.7,0.5,1.7,0.7,2.5,1.1C246.1,153.1,249.2,155.3,252.7,157.7z"/>
<path fill="none" stroke="#FFC107" stroke-miterlimit="10" d="M476.2,532.3c6-0.4,12.3,0.2,18.2,3.2c4.1,2,6,5.7,5.8,10.6
	c-0.3,7.3,0.5,14.6,4.9,20.7c2,2.9,4.9,5.3,7.6,7.6c2.5,2.1,5.4,3.8,8,5.8c3,2.2,3.5,6.6,1.1,9.4c-0.4,0.4-1.6,0.6-2.2,0.3
	c-2.7-1.5-5.6-2.8-7.9-4.8c-4.5-3.8-8.3-8.3-11.8-13c-2.4-3.3-5.3-6.3-7.9-9.5c-1.7-2-3.4-4.1-5.1-6.2c-3.6-4.5-8.4-7.7-13.4-10.2
	c-5-2.5-10.1-4.6-15.3-6.7c-6.8-2.7-13.1-6.3-19.3-10.3c-5.7-3.7-11.2-7.7-16.4-12.2c-4.2-3.7-8.5-7.5-12.3-11.6
	c-5.8-6.3-10.9-13.2-15.1-20.6c-0.6-1-1.4-1.8-2.1-2.6c-0.3-0.4-0.9-0.7-1.1-1.1c-1-3-3.1-5.3-4.7-7.9c-2.1-3.5-4.1-7.2-6-10.7
	c-0.6-1-1.1-2-1.5-3.1c-2.6-7.5-6.2-14.6-9.8-21.6c-0.7-1.5-1.5-2.9-2.1-4.5c-2.9-7.6-5.8-15.2-8.7-22.8c-2.4-6.2-4.8-12.3-7.2-18.5
	c-1.5-3.9-3.1-7.8-4.6-11.8c-1.9-4.8-3.6-9.7-5.8-14.3c-3.8-8.1-8.2-15.9-12.7-23.7c-2.2-3.7-4-7.7-5.9-11.6c-2.5-5.1-6-9.6-9.6-14
	c-5.1-6.2-10.3-12.3-15.6-18.4c-3.1-3.6-6.3-7-9.5-10.5c-2.6-2.9-5.2-5.9-7.9-8.7c-2-2.1-4.3-4.1-6.5-6.1c-3.1-3-6.3-5.9-9.3-9.1
	c-4-4.4-9.1-7.4-14.1-10.5c-2.3-1.4-4.6-2.8-6.9-4.2c-1.4-0.8-2.9-1.5-4.4-2.2c-0.7-0.4-1.7-0.5-2.2-1.1c-2.4-2.5-5.6-3.4-8.6-4.6
	c-3.9-1.6-6.1-4.7-7.8-8.3c-0.7-1.5-1-3.2-1.3-4.8c-0.7-4,1.5-6.7,5.3-7.7c5.5-1.5,10.5-0.8,15.7,1.4c2.1,0.9,4.6,1.2,6.9,1.6
	c3.3,0.5,6-1.2,8.7-2.7c1.9-1,3.5-2.5,5.1-4c1.3-1.2,2.2-1.4,3.4-0.2c4.5,4.2,9.2,8.2,13.4,12.8c3.6,4,6.4,8.5,7.5,14
	c1.2,6.3,2.6,12.5,4.4,18.6c1.8,6.4,5.8,11.5,11.4,15.2c3.3,2.2,6.9,3.6,10.7,4.6c3.6,0.9,6.8,2.5,9.7,4.7c2.2,1.6,3.7,3.7,4.8,6.3
	c2.9,6.9,4.1,14.2,5.4,21.5c0.7,3.8,1.4,7.7,2.4,11.5c1.7,5.9,5.5,10.6,10.7,13.9c1.9,1.2,4.2,1.8,6.3,2.2c3,0.6,6.2,0.4,9.2,1.1
	c6.5,1.7,12.4,4.6,15.4,11.2c1.5,3.2,1.3,6-1.5,8.4c-1.2,1.1-2.6,2.1-3.9,3c-2.9,1.9-5.1,4.6-5.9,7.7c-1.4,5.2-1.4,10.7,1.8,15.5
	c1.7,2.6,4.1,4.5,6.5,6.5c5.5,4.4,10.6,9.4,15.8,14.2c1.1,1.1,1.2,2.6,0.9,4.1c-0.7,3.8-2.7,7.2-5.8,9.6c-4.7,3.6-5.7,7.8-3,13.6
	c2,4.2,5,7.5,8.9,10.1c4.6,3.1,9.3,6.2,13.8,9.5c1.8,1.3,3.2,3.1,4.7,4.8c1.4,1.6,1.3,3.3,0.3,5.1c-1.3,2.4-2.5,5-3.6,7.5
	c-1,2.3-1.2,4.9-0.5,7.3c1.5,5.5,4.3,10.6,8.3,14.6c4.1,4.2,9.3,4.2,14.2,1.6c2.9-1.5,5.7-3.3,8.6-4.8c3.1-1.5,6.2-1.6,9,0.7
	c0.8,0.6,1.7,1.2,2.4,1.9c1.5,1.4,2.7,3,2.8,5.3c0.3,4.5,0.8,9,1.2,13.5c0.4,3.8,1.8,7.2,3.8,10.3c3.5,5.6,8.6,8,15.1,8
	C472.1,532.3,474,532.3,476.2,532.3L476.2,532.3z"/>
<path fill="none" stroke="#FFC107" stroke-miterlimit="10" d="M224.5,259c0.9-2.6,2.1-4.7,2.4-7c0.3-2.3-0.3-4.6-0.6-7.3
	c1.1,0.2,1.9,0.1,2.6,0.4c1.7,0.7,3.3,1.6,5,2.5c4.7,2.6,9.5,5.3,14.2,8c1.1,0.6,2.1,1.3,3.1,2c1.6,1,3.2,1.8,4.7,2.9
	c1.8,1.4,3.5,2.8,5.1,4.4c5.6,5.4,11.4,10.7,16.8,16.4c5.3,5.6,10.1,11.6,15.3,17.4c3.2,3.6,6.6,7,9.9,10.5c0.7,0.8,1.5,1.7,2.1,2.7
	c1,1.3,1.8,2.8,2.8,4.1c4.3,5.6,8.4,11.4,11.8,17.6c4.1,7.6,8.7,15,12.7,22.6c3.8,7.2,7.6,14.5,10,22.5c1.2,3.9,3.1,7.7,4.6,11.5
	c2.1,5.5,4.2,11,6.2,16.5c1.7,4.7,3.3,9.5,5,14.2c0.3,0.9,0.7,1.7,1,2.6c2.8,6.5,5.7,13,8.6,19.5c3.1,6.9,6.1,13.9,9.3,20.8
	c4.3,9,9.4,17.7,15.3,25.7c1.8,2.5,3.3,5.2,4.9,7.9c0.4,0.7,0.9,1.4,1.5,2c1.9,2.2,3.8,4.3,5.7,6.4c7.7,8.5,16.3,16,25.5,22.8
	c4.1,3.1,8.7,5.5,13,8.3c5.1,3.5,11.2,4.7,16.7,7.1c4.2,1.8,8.1,4.2,12.1,6.1c6.3,2.9,11.1,7.7,15.5,12.9c1.1,1.2,2.5,2.2,3.6,3.4
	c2.5,2.9,4.9,6.1,7.5,9c4.1,4.6,8.1,9.3,12.4,13.7c1.6,1.6,3.8,2.7,5.8,4c-0.8,2.1-2.8,3.5-4.9,3.1c-1.5-0.2-3-0.7-4.3-1.5
	c-2.6-1.6-5.2-3.3-7-5.9c-0.6-0.7-1.2-1.4-2-2c-4.6-3.7-9.5-6.8-15.2-8.7c-3.7-1.2-7.1-1.3-10.7,0.6c-3.9,2-7.2,4.8-10.6,7.4
	c-1.8,1.4-3.7,2.6-5.6,3.9c-1.9,1.3-3.9,1.1-5.9,0.4c-3.5-1.2-6.3-3.4-9.1-5.8c-1.5-1.3-3.3-2.5-4.6-4.1c-1.7-2.1-3.4-4.4-4.6-6.9
	c-1.4-3.1-2.2-6.4-3.2-9.6c-1.5-5.1-3.8-9.9-7.3-13.8c-3.5-3.9-8-6.9-13-8.6c-2-0.7-4.1-1.3-6.2-2c-4.1-1.4-7.8-4-10.6-7.3
	c-1-1.2-1.7-2.6-2.4-3.9c-0.7-1.3-1.1-2.7-1.9-3.9c-1.7-2.4-2.4-5.2-2.8-8.1c-1.2-8.1-2.4-16.1-3.5-24.2c-0.4-2.5-1.5-4.8-3.2-6.5
	c-2.6-2.8-5.5-5.2-9-6.9c-5.7-2.7-9.5-7.2-11.8-12.9c-2.6-6.4-3.2-13.2-3.1-20c0.1-3.9,0.1-7.8,0.1-11.8c0-0.4,0-0.8-0.2-1.2
	c-1.9-4.4-3.4-9.1-7-12.6c-1.2-1.2-2.8-2.1-4.2-3c-3.1-1.9-6.3-3.6-9.3-5.5c-4.1-2.7-6.4-6.6-7.6-11.2c-0.5-2.1-1.1-4.2-1.5-6.3
	c-0.9-5.1-0.1-10.2,0.9-15.3c0.7-3.4,0.8-6.9-0.4-10.4c-0.6-1.5-0.7-3.2-1-4.8c-0.6-3.7-2.2-6.8-5.6-8.4c-3.6-1.8-7.3-3.3-11-4.8
	c-1.1-0.5-2.3-1-3.4-1.5c-5.5-2.2-6.4-7.3-7.8-12.1c-1.6-5.5-2.1-11.3-4.5-16.6c-4.2-9.5-11.4-14.2-21.5-15.3
	c-3.6-0.4-7.2-0.8-10.7-1.3c-7.6-1.1-13.6-6.9-15-14.4c-0.4-2.3-0.7-4.7-1.4-7c-1.5-4.7-2.9-9.4-4.9-14c-1.9-4.2-6-6-10-7.7
	C226.5,259.9,225.4,259.4,224.5,259L224.5,259z"/>
<path fill="none" stroke="#FFC107" stroke-miterlimit="10" d="M311.8,485.3c-2.8-0.7-4.6-2.3-6.3-3.8c-5.8-5.5-11.2-11.2-15.1-18.3
	c-2-3.7-3.6-7.7-5.3-11.5c-4.6-10.6-7.1-21.7-8.4-33.1c-0.6-5.5-0.9-11.1-1.5-16.6c-0.8-8.1-2.2-16.1-3.7-24.1
	c-1-5-2.4-9.8-4.8-14.3c-2.9-5.5-6.1-11-9.2-16.5c-1.5-2.6-2.8-5.3-4.6-7.7c-2.4-3.1-4.9-6.1-7.7-8.9c-3.5-3.6-7.3-6.9-11-10.4
	c-4.1-3.8-8.3-7.4-12.3-11.2c-3.3-3.2-6.8-6.4-9.5-10.2c-3.9-5.4-8.2-10.6-11.1-16.8c-1.1-2.4-2.6-4.7-3.7-7.1
	c-0.9-2.3-1.7-4.6-2.3-7c-0.5-1.8,0.5-3.3,2.3-3.8c3.3-1,6.4,0.2,7.9,3.3c3.3,7,6.8,13.9,9.4,21.2c2.6,7.5,7.6,13.1,12.6,18.8
	c2.3,2.6,4.8,5.1,7.5,7.4c2.6,2.2,5.4,4.1,8.1,6.1c1.5,1.2,3.1,2.4,4.6,3.6c2.4,2,4.7,4,7.1,6c4.8,3.9,9.6,7.7,14.4,11.7
	c2.1,1.7,4,3.6,5.9,5.5c3.3,3.3,6.5,6.7,9.7,10c3.6,3.8,7.2,7.6,10.7,11.5c2.5,2.8,4.2,6.1,5.6,9.5c2.9,6.9,5.5,14,7,21.4
	c0.8,3.8,1.9,7.6,2.4,11.5c0.6,4.4,0.7,8.8,1.1,13.3c0.2,3.3,0.4,6.6,0.6,9.9c0.1,1.5,0.2,2.9,0.2,4.3c0.1,6.6,0.3,13.2,0.2,19.8
	c0,7.9-0.2,15.9-0.3,23.8C312.2,483.3,312,484.1,311.8,485.3L311.8,485.3z M658.1,598.8c-1.1,1.5-2,1-3,0.2c-2.5-1.8-5-3.7-7.6-5.3
	c-2.4-1.5-5-3-7.7-3.9c-7.6-2.4-14.8-5.7-21.7-9.8c-5.5-3.4-10.5-7.7-14.6-12.7c-2.2-2.6-4.6-5-6.9-7.6c-1-1.1-1.9-2.4-2.6-3.8
	c-1.6-3-2.7-6.3-4.6-9.1c-2.1-3.2-3.4-6.5-4.6-10c-0.1-0.3-0.3-0.6-0.4-0.9c-0.2-5.2-2.4-10-3.1-15c-0.5-3.6-0.2-7.2-0.4-10.8
	c-0.1-1.7-0.4-3.5-0.6-5.2c-0.6-5.8-1.2-11.6-1.7-17.5c-0.3-3.5-0.1-7-0.5-10.5c-1-7.2-2.7-14.3-3.4-21.6c-0.3-3.4-1.1-6.8-1.5-10.1
	c-0.6-4-1.1-7.9-2.5-11.8c-0.4-1.3-0.5-2.6-0.4-3.9c0.2-2-0.1-4.1-0.7-6.1c-1.6-5-2.8-10.1-4.3-15.1c-1.3-4.3-2.5-8.7-3.9-13
	c-2-6.3-4.1-12.5-6.3-18.7c-1.1-2.9-2.6-5.6-3.9-8.4c-0.7-1.6-1.3-3.3-2.1-4.8c-4.3-7.8-8.8-15.5-14.5-22.5
	c-3.6-4.5-7-9.2-11.1-13.3c-3.4-3.4-6.9-6.8-10.5-9.9c-3.2-2.7-6.5-5.5-10.2-7.5c-4.9-2.7-10.1-4.6-15.2-6.8c-2.4-1.1-5-1.9-7.5-2.9
	c-6.3-2.7-13-3.8-19.8-4.6c-3.6-0.4-7.2-0.5-10.8-0.8c-1.7-0.2-3.5-0.6-5.2-0.7c-5.2-0.5-10.5-0.8-15.7-1.5
	c-3.4-0.5-6.8-1.5-10.2-2.3c-2.2-0.6-4.3-1.5-6.5-2.1c-5.6-1.4-11.2-2.7-16.8-4c-0.9-0.2-1.8-0.6-2.6-1c-6.3-3.2-12.7-6.4-18.9-9.8
	c-2.4-1.3-4.6-3.2-6.9-4.6c-3.1-1.9-6.3-3.5-9.4-5.3c-2.5-1.5-5-2.9-7.2-4.7c-4.9-3.8-9.9-7.4-14.3-11.7
	c-5.5-5.3-10.7-10.8-14.9-17.3c-1.1-1.7-2.4-3.3-3.7-4.9c-3.8-4.9-7.1-10.1-9.7-15.8c-0.8-1.7-2.1-3.1-3-4.6
	c-1.7-2.9-3.4-5.9-5.1-8.8c-0.6-1-0.7-1.9,0.5-2.7c1.3-0.8,2.4-0.9,3.3,0.2c1.2,1.6,2.5,3.3,3.4,5.1c3.7,7,8.5,13.1,13.8,18.9
	c3.3,3.7,6.7,7.3,10,11c6.1,6.9,12.9,13,20.8,17.8c4.8,2.9,9.5,6.2,14.2,9.4c5.8,4,12,7.2,18.3,10.2c7.5,3.6,15.4,6,23.1,8.9
	c1.5,0.6,3.1,1.2,4.6,1.8c0.6,0.2,1.1,0.5,1.7,0.7c3.9,0.9,7.8,1.6,11.7,2.5c4.7,1.1,9.4,2.3,14.1,3.3c4.2,0.9,8.5,1.5,12.7,2.4
	c7.5,1.7,15.1,3.1,22.3,6.2c0.5,0.2,0.9,0.4,1.4,0.6c10.3,2.4,18.6,8.7,27.1,14.5c3.2,2.1,6.2,4.4,9.2,6.8c5,3.9,10.1,7.9,14.9,12
	c6.6,5.6,13.1,11.4,18.3,18.4c4.9,6.4,9.1,13.3,12.6,20.5c1.2,2.6,2.8,5,4,7.7c1.5,3.7,2.9,7.5,4.2,11.3c1.6,4.8,3.2,9.5,4.6,14.4
	c1.5,5.1,2.6,10.4,3.8,15.6c2.2,9.2,4.5,18.4,6.5,27.7c2,9.3,3.5,18.6,4.2,28.1c0.4,5.1,0.3,10.3,0.7,15.4
	c0.5,5.9,1.2,11.9,1.9,17.8c0.7,6.3,1.5,12.7,2.5,19c1,6.2,2,12.4,4.5,18.3c0.2,0.5,0.3,1,0.4,1.5c1.3,7.4,4.8,13.8,8.7,20
	c1.2,1.9,2.9,3.5,4.6,5c6.4,5.5,13.1,10.7,20.4,15c1.3,0.8,2.7,1.4,4.2,2c4.2,1.6,8.5,3.3,12.7,4.8
	C651,589.9,655.2,593.4,658.1,598.8L658.1,598.8z"/>
<path fill="none" stroke="#FFC107" stroke-miterlimit="10" d="M183,312.1c1.1-1,1.7-1.5,2.3-2.1c1.6-1.5,2.9-3.2,3-5.6
	c0-0.5,0.1-1,0.3-1.5c0.6-1.4,1.6-1.7,2.6-0.6c2.2,2.4,4.4,4.9,6.4,7.5c1.3,1.6,2.4,3.3,3.5,5.1c1.1,1.9,2,3.8,3,5.7
	c0.7,1.3,1.3,2.6,1.8,3.9c1.8,4.6,3.9,9.1,5.2,13.8c1.9,6.5,3.6,13.1,4.6,19.8c1.6,10.8,2.8,21.7,2.9,32.6
	c0.1,5.5,0.5,10.9,0.8,16.4c0.3,5.9,0.4,11.8,1.2,17.6c1.1,7.7,2.6,15.2,4.5,22.7c1.2,4.4,3.6,8.5,5.5,12.8
	c2.5,5.6,5.1,11.3,7.8,16.9c1.1,2.2,2.4,4.3,3.7,6.4c5.7,8.7,11.3,17.5,17.3,26c3.3,4.6,7.2,8.7,10.9,13c1.9,2.2,3.8,4.3,5.8,6.4
	c2.6,2.6,5.3,5.2,8,7.7c3.7,3.4,7.5,6.7,11.4,10c7.9,6.6,15.9,13.2,23.7,19.9c1.8,1.6,3.4,3.3,4.8,5.2c2.4,3,4.6,6,6.8,9.2
	c4.5,6.8,9,13.6,13.3,20.5c3.3,5.3,6.2,10.7,8.8,16.3c5.6,11.7,11.4,23.3,17.3,34.9c1.7,3.4,4,6.5,6.1,9.6c2,3,4.2,5.9,6.2,8.8
	c4.7,6.8,11,11.9,18.3,15.7c7,3.6,14.4,6.1,21.9,8.3c2.4,0.7,4.7,1.6,7,2.4c1.6,0.6,3.3,1.1,5,1.6c4.1,1.1,8.1,2.2,12.2,3.4
	c3,0.9,6.1,1.1,9.2,0.7c2-0.2,4.1-0.3,6.2-0.2c3.9,0,7.8,0.2,11.7,0.3c1.2,0,2.5-0.1,3.7-0.1c1.5,0,3.1-0.2,4.5,1.4
	c-0.6,0.5-1.1,1.1-1.6,1.2c-6.4,2-12.8,3.9-19.7,3.3c-1.5-0.1-3.1-0.2-4.6-0.1c-9.1,0.4-17.7-1.7-26.4-4.6
	c-8.5-2.8-16.6-6.3-24.3-10.8c-2.5-1.5-4.9-3.1-7.2-4.8c-5.6-4.4-11.3-8.7-16.6-13.4c-4.3-3.8-8.6-7.7-11.9-12.5
	c-0.2-0.3-0.5-0.7-0.8-1c-5.8-5.7-9.6-12.8-13.2-20c-2-4.1-4.3-8-6.2-12.1c-1.3-2.8-2.4-5.7-3.5-8.5c-3.1-7.8-7.2-15-11.6-22.2
	c-4.2-6.9-8.2-13.8-12.6-20.5c-2.4-3.6-5.4-6.8-8.3-10c-6.6-7.3-13.6-14.2-21-20.6c-4.2-3.6-8.7-6.9-13.1-10.4
	c-1.6-1.3-3.3-2.5-4.8-3.9c-3.2-3.2-6.3-6.6-9.5-9.7c-4.2-4.1-7.2-9-10.6-13.6c-2.3-3.1-4.2-6.4-6.6-9.3
	c-4.6-5.8-7.9-12.3-11.2-18.8c-3.5-7.1-7.4-14.1-10.8-21.2c-3.3-6.7-5.7-13.7-7.2-21c-0.5-2.3-1.3-4.5-1.9-6.8
	c-0.4-1.6-0.7-3.2-1-4.8c-1.2-6.7-2.5-13.4-3.6-20.1c-0.6-3.6-0.5-7.2-0.8-10.8c-0.6-6-1.3-12.1-1.8-18.2c-0.3-3.7-0.2-7.4-0.6-11.1
	c-0.8-7.6-2.6-15-5.5-22.1c-0.7-1.7-1.4-3.5-2.1-5.2c-3.2-7.3-7.5-14-12.5-20.1C187.2,318,185.2,315.1,183,312.1L183,312.1z"/>
<path fill="none" stroke="#FFC107" stroke-miterlimit="10" d="M381.2,521.6c-1.1-0.1-1.9-0.1-2.6-0.3c-5.9-2-12-3.8-17.8-6.1
	c-6-2.4-11.9-5.1-17.7-8.2c-4.9-2.6-9.1-6.4-12.5-10.8c-1.3-1.7-2.1-3.8-2.2-5.9c-0.2-4.9-1-9.9-1.3-14.8c-0.2-4-0.2-8-0.3-12
	c-0.1-3.2-0.4-6.3-0.6-9.5c-0.1-3.1-0.2-6.1-0.1-9.2c0-3.7,0.2-7.4,0.3-11.1c0-1.7-0.1-3.5,0-5.2c0.1-5.7-1.9-11.1-2.7-16.7
	c-0.1-0.7-0.3-1.4-0.4-2c0.9-0.8,1.6-0.5,2.2,0.2c3.7,4.6,8.9,7,13.9,9.6c2.9,1.5,5.3,3.7,6.9,6.5c0.2,0.4,0.5,0.9,0.8,1.3
	c2.7,4,3.7,8.3,3.2,13.2c-0.6,6.2-0.4,12.4,0.6,18.5c1.2,8.1,4.6,15.1,11.2,20.3c1.2,1,2.6,1.7,4,2.2c3.1,1.1,5.6,3,7.8,5.4
	c1.7,1.8,2.8,4.1,3.3,6.5c1.2,5.9,2,12,2.5,18.1C379.6,514.6,380.5,517.8,381.2,521.6z M557,523.2c-2.7,0.7-4.3-0.8-5.6-2.5
	c-3.7-4.9-7.3-9.9-11-14.8c-0.7-1-1.7-1.8-2.6-2.7c-5.4-5.1-10.7-10.3-16.8-14.6c-6.6-4.7-12-10.7-16.9-17.1c-2.4-3.1-3.7-7-4.6-11
	c-1.2-5.8-2.4-11.5-3.6-17.3c-1-4.6-2.1-9.2-3.1-13.8c-1.4-6.8-4.2-13.1-6.7-19.5c-1.4-3.5-2.8-6.8-5.1-9.8c-1.1-1.4-1.7-3.3-2.5-5
	c-1.5-3.3-3.5-6.3-5.9-9c-2-2.3-4-4.8-5.3-7.5c-4-8.5-10.2-15.3-16.7-22c-3.1-3.1-6.2-6.3-8.4-10.2c-1.9-3.3-5.1-5.3-7.8-7.8
	c-1-0.9-2.2-1.6-2.9-2.7c-2.1-3.2-5.2-5.2-8.1-7.5c-5.5-4.3-12.1-6.9-18.2-10.4c-3-1.7-6.5-2.4-9.7-3.7c-1.2-0.4-2.3-0.9-3.4-1.4
	c-2.8-1.5-5.5-3.1-8.3-4.7c-3.4-2-6.8-3.9-10.2-5.9c-3.4-1.9-6.9-3.7-10.3-5.6c-3.7-2.2-7.4-4.5-11.1-6.7c-5-3-10.1-5.9-15.1-9
	c-2.1-1.3-4.1-2.8-6-4.3c-2.2-1.7-4.4-3.3-6.4-5.2c-1.7-1.6-3.1-3.5-4.6-5.3c-0.7-0.8-1.1-1.9-1.8-2.4c-4.1-3.1-6.6-7.6-10-11.3
	c-0.8-0.8-1.4-1.8-2.2-2.6c-5.3-4.6-8.7-10.7-12.5-16.5c-2.3-3.6-4.4-7.4-6.4-11.2c-1.8-3.3-3.8-6.7-5.2-10.2
	c-1-2.4-1.3-5.1-1.9-7.7c-0.8-3.5-1.5-7-2.2-10.5c-0.2-0.7-0.2-1.4-0.2-2.1c-0.2-1.9-0.5-3.9-0.8-5.8c-0.3-1.6-0.9-3.5,0.7-4.6
	c1.4-0.9,2.7,0.7,3.8,1.4c1.6,1,2.6,2.7,2.7,4.6c0.2,4.5,0.6,9,1.1,13.5c0.8,6.7,3,13.1,5.8,19.2c1.5,3.4,4,6.4,6.3,9.5
	c3.7,5,8.1,9.7,11.4,15c4.4,7,10.3,12.5,16.3,18c2.5,2.3,4.6,5,7.1,7.3c4.7,4.3,9.5,8.5,15,11.9c4.7,2.9,9.3,6.2,14.1,8.9
	c5.2,2.8,10.7,5.2,16.2,7.7c7.5,3.4,15,6.8,22.6,10c8,3.3,15.1,8,22.6,12c5,2.6,9.4,6,13.9,9.2c3.3,2.3,6,5.3,9.1,7.9
	c4.4,3.8,8,8.3,11.7,12.7c2.2,2.7,4.6,5.3,7,7.8c4,4.2,6.8,9.2,9.5,14.3c0.7,1.4,1.7,2.6,2.5,3.9c1.8,3.1,3.9,6.1,5.4,9.3
	c1.8,3.9,3.5,7.9,4.9,12c3,8.5,5.8,17.2,8.6,25.8c0.3,1,0.6,2,0.8,3l3.7,16.8c1,4.3,1.8,8.7,2.9,12.9c0.9,3.3,2.1,6.4,3.7,9.5
	c2.7,5.3,5.5,10.6,9.7,15c2.1,2.2,4.4,4.4,6.9,6.2c6.3,4.5,11.8,10,17.5,15.1c2.6,2.3,5.6,4.3,7.9,6.9c3.4,3.8,6.5,8,8.5,12.8
	C556.8,522.1,556.9,522.6,557,523.2L557,523.2z"/>
<path fill="none" stroke="#FFC107" stroke-miterlimit="10" d="M300,225.5c2.9,0.5,5.4,1.8,7.7,3.3c1.9,1.2,3.7,2.2,6,1.3
	c1.5-0.5,2.5,0.6,3.3,1.7c1.5,2.1,3.1,4.1,4.6,6.2c5.4,6.9,11.7,13,18.6,18.5c4.3,3.4,8.9,6.4,13.4,9.4c4.3,2.8,8.6,5.6,13,8.3
	c5.7,3.4,11.4,6.6,17.5,9.2c1.8,0.8,3.5,1.8,5.4,2.4c6.4,2,12.8,3.8,19.2,5.7c3.6,1.1,7.1,2.3,10.7,3.2c2.5,0.7,5,1.1,7.6,1.3
	c6.6,0.5,11.8,3.2,15.2,9c1.9,3.3,3.8,6.5,5.5,9.9c1.1,2.2,1.8,4.6,2.5,7c1.6,5.1,3.1,10.3,4.6,15.4c0.1,0.3,0,0.6,0,1.3
	c-1.2-0.7-2.2-1.2-3-1.9c-4.2-3.5-8.1-7.3-12.4-10.7c-4.5-3.4-8.9-7.1-14.1-9.5c-2.5-1.2-4.8-2.8-7.2-4.2c-3.4-1.9-6.9-3.7-10.4-5.5
	c-3.9-1.9-7.8-3.7-11.8-5.4c-6.6-2.9-13.3-5.6-19.8-8.6c-4.7-2.1-9.2-4.6-13.8-6.8c-8.9-4.3-16.4-10.7-24.2-16.5
	c-3.1-2.3-5.8-5.3-8.5-8.1c-5.1-5.1-10.6-9.8-15-15.5c-1.4-1.8-2.7-3.6-4.1-5.5c-2.3-3.1-4.6-6.1-6.8-9.2
	C302.3,229.5,301.2,227.6,300,225.5L300,225.5z M567.2,612.9c-0.9-1.2-1.8-1.9-2.2-2.8c-1.1-3.1-2.3-6.2-3-9.4
	c-0.9-3.7-1.4-7.5-2.1-11.2c-1.6-8.6-4.8-16.5-8.9-24.2c-2.5-4.7-5.8-9-9.6-12.8c-2.1-2.1-3.6-4.7-5.5-7c-1.7-2.1-3.4-4.2-5.1-6.2
	c-3-3.6-6.1-7.2-9.2-10.7c-3.2-3.5-6.4-7-9.9-10.3c-2.6-2.4-5.6-4.5-8.5-6.6c-2.5-1.8-5.2-3.3-7.7-5.2c-3-2.3-5.9-4.8-8.6-7.4
	c-3.1-3-6.1-6.1-9-9.3c-4.3-4.6-6.8-10.2-8.4-16.3c-1.1-4.4-2.5-8.7-3.7-13c-0.6-2.2-1-4.4-1.5-6.6c-1.5-7.7-3.3-15.3-4.6-23
	c-0.4-2.9-0.4-5.9,0-8.9c0.6-4.5,1.7-8.9,2.6-13.3c0.7-3.8,1.5-7.7,2.2-11.5c0.7-3.1,0.7-6.3,0.3-9.5c-0.1-0.4,0.2-0.9,0.4-1.7
	c0.7,0.4,1.3,0.5,1.7,0.9c3.5,3.5,4.8,7.8,4.3,12.7c-0.1,0.3-0.1,0.6-0.1,0.9c0.1,2.1,0.8,4.3,0.3,6.3c-0.5,2-1,3.9-0.7,6
	c0.1,0.5,0,1-0.2,1.5c-1.3,5.1-1.1,10.2-0.8,15.4c0.1,2.1-0.4,4.3-0.2,6.5c0.4,4.7,1.2,9.4,1.6,14.1c0.5,5.8,2.8,11.2,4.6,16.6
	c0.9,2.5,2.3,4.8,3.5,7.2c2.7,5,5.3,10,8.1,14.8c1.3,2.3,3.2,4.3,4.9,6.2c3.1,3.4,6.4,6.7,9.6,10c0.2,0.2,0.4,0.5,0.6,0.7
	c3.7,2.6,6.8,5.9,10.1,9.1c4,4,8.4,7.6,12.5,11.5c6,5.8,12.2,11.4,18,17.4c5.3,5.5,10,11.5,12.8,18.8c1.3,3.3,3.1,6.5,4.2,9.9
	c1.7,4.9,3.1,9.8,4.6,14.7c0.4,1.3,0.6,2.6,1,3.9c1.6,5,1.9,10.3,2.7,15.5C568.9,608.7,568.5,610.7,567.2,612.9L567.2,612.9z
	 M312.9,499.4c-1.3-0.6-2.4-1-3.5-1.6c-5.6-3.4-10.9-7.5-15.6-12.1c-5-5-9.5-10.5-13.4-16.5c-3.7-5.9-6.2-12.3-8.3-18.9
	c-0.4-1.2-0.8-2.3-1.3-3.5c-2.8-6.5-4.7-13.4-5.5-20.5c-0.6-4.6-0.5-9.2-0.7-13.8c-0.3-5.2-0.5-10.5-1.1-15.7
	c-1-8-2.2-15.9-3.5-23.8c-1.1-6.5-4.1-12.3-8.1-17.6c-3.8-5.1-7.9-10-11.8-15.1c-2.4-3.1-4.6-6.3-6.9-9.5c-0.7-0.9-1.5-1.7-2.4-2.4
	c-3.5-3-6.2-6.8-9.3-10.3c-3.5-3.9-7.3-7.5-11.1-11.2c-6.5-6.5-12.4-13.5-16.5-21.8c-2.2-4.3-4.9-8.4-7.3-12.5
	c-0.2-0.4-0.4-0.7-0.7-1.1c-2-3.7-1.5-5.3,2.5-6.9c1.5-0.6,3.3-0.1,3.8,1.5c1.1,3.6,3.3,6.9,3.4,10.8c0.1,0.8,0.3,1.6,0.7,2.4
	c3.8,7.3,7.9,14.4,13,20.9c2.4,3.1,5,6,7.9,8.6c1.3,1.2,2.5,2.7,3.6,4.2c3,4.4,7.9,6.6,11.5,10.2c0.8,0.8,1.6,1.6,2.4,2.4
	c1.6,1.5,3.3,3,5,4.6c4,3.6,7.6,7.5,10.2,12.3c3.1,5.6,6.3,11.1,9.5,16.6c2.4,4,4.3,8.1,5.7,12.6c3,10,4.7,20.2,5.5,30.6
	c0.5,6.9,0.7,13.8,1.3,20.7c0.3,3.3,1,6.5,1.9,9.7c1.8,6.5,3.4,13.2,5.9,19.5c5,12.6,11.9,24,23.1,32.2c2.2,1.6,4.5,3.3,6.7,4.9
	C312.7,491.5,313.9,495,312.9,499.4z M318.2,394.1c-1.8-3.7-3.5-7.1-5.2-10.6c-3.1-6.3-5.8-12.7-9.2-18.8c-2.3-4.1-5.5-7.7-8.2-11.5
	c-4.1-5.6-9.6-9.8-14.3-14.7c-4-4.2-8.3-8-12.3-12.1c-7.2-7.2-14.4-14.4-21.6-21.7c-0.6-0.6-1.1-1.4-2.1-2.7
	c1.1,0.2,1.5,0.2,1.8,0.4c4.6,3.3,9.9,4,15.2,4.5c5,0.5,10.1,0.7,14.7,3.2c5.1,2.8,8.5,7.2,10.6,12.5c1,2.4,1.4,4.9,2.1,7.4
	c1.3,5,2.5,10,3.8,15c0.6,2.1,2.2,3.9,4.2,4.7c4.7,2.1,9.4,4.1,14.2,6c3.7,1.5,6.3,3.9,7.4,7.8c1.7,6.2,2.9,12.4,1.1,18.9
	c-0.7,2.5-0.6,5.3-0.7,8C319.5,391.9,319.5,391.9,318.2,394.1L318.2,394.1z M308.5,385.9c1,0.7,1.7,1,1.9,1.5
	c2.5,5.8,5.6,11.4,7.2,17.4c2.6,9.8,5,19.8,5,30.1c0,4.7-0.3,9.4-0.5,14.2c-0.1,2,0,4.1,0.1,6.2c0.2,3.6,0.7,7.2,0.6,10.8
	c-0.2,7.7,0.7,15.2,1.4,22.8c0.3,3,0.3,6,0.6,8.9c0.3,3.7,0.9,7.3,1.3,11c0.1,0.3,0.1,0.6,0.1,0.9c0,5.5,1.7,10.8,3.5,15.9
	c2,5.9,4.7,11.6,8.5,16.8c2.3,3.2,4.3,6.5,7.7,8.8c2.3,1.6,4.7,3,6.8,4.7c3.8,3,7.5,6.1,11.2,9.2c0.7,0.6,1.2,1.6,1.7,2.4
	c-2.6,3.2-5.8,4.1-9.2,2.5c-3.9-1.8-7-4.7-9.7-8c-4.1-5-8.2-9.9-11.8-15.1c-2.3-3.3-4-7.2-5.7-10.9c-1.8-3.9-3-8.1-4.8-12
	c-2.5-5.5-3.5-11.4-5.5-16.9c-0.6-1.6-0.3-3.5-0.6-5.2c-1.6-8.2-1.9-16.5-1.7-24.8c0.1-4.1-0.6-8.2-0.6-12.3
	c-0.1-3.8,0.4-7.6,0.3-11.4c0-3.8-0.4-7.6-0.5-11.3c0-0.7,0-1.4,0.1-2.1c0.1-2.3,0.3-4.5,0.2-6.8c-0.3-5.6-0.5-11.3-1.1-16.9
	c-0.7-5.6-1.7-11.2-2.9-16.7c-0.8-3.8-2.1-7.5-3.2-11.3C308.5,387.5,308.5,387,308.5,385.9L308.5,385.9z M421.4,398.9
	c-0.2-0.3-0.5-0.6-0.6-1c-0.6-3.2-1-6.5-1.6-9.7c-0.2-1.4-0.7-2.8-1.1-4.2c-1.9-6.7-3.4-13.6-5.9-20.1c-1.9-5-4.5-9.8-8.3-14
	c-4.3-4.6-8.7-9.1-13.8-12.8c-5.4-3.9-10.7-8-17.2-10.3c-6.2-2.3-12.1-5.2-18.1-7.9c-1.5-0.7-2.8-2-4.3-2.9
	c-1.2-0.7-2.5-1.4-3.9-1.9c-1.3-0.5-2.3-1.1-2.9-2.5c-0.4-0.9-1.5-1.6-2.3-2.3c-2.5-2-5.1-4-7.7-5.9c0.9-1.4,1.8-1.2,2.5-0.5
	c5.3,5.1,12.2,6.7,18.7,9.1c3.8,1.4,7.7,3,11.5,4.5c2.2,0.8,4.4,1.7,6.8,2.2c7.2,1.6,13,5.4,18.7,9.8c6.7,5.2,12.8,11.1,18.2,17.6
	c3.9,4.7,6.4,10.3,8.5,16c1,2.9,2.1,5.8,2.5,8.8c0.9,7.2,1.4,14.3,1.9,21.5c0.1,2.1-0.6,4.2-0.9,6.3L421.4,398.9L421.4,398.9z
	 M327.8,219.3c0.8,0.1,1.6,0.1,2.3,0.4c5.2,1.9,10.4,3.9,15.6,5.9c0.4,0.1,0.8,0.3,1.1,0.5c7,5.5,15.1,9,22.9,13.2
	c4.8,2.6,9.4,5.5,14.1,8.2c0.2,0.2,0.5,0.3,0.8,0.4c4.2,1.2,7.2,4.4,11,6.2c6,2.8,11.2,7,16.8,10.3c3.9,2.3,7.3,5.7,10.9,8.6
	c1.1,0.9,2.1,2,3.2,3l-0.4,0.7c-1.5-0.3-3.1-0.6-4.7-0.9c-2.8-0.7-5.6-1.2-8.4-2c-1.4-0.4-2.6-1.1-3.8-1.9c-1.6-1.1-3.1-2.4-4.6-3.7
	c-7.3-5.7-15.2-10.6-23.1-15.4c-1.7-1-3.3-2.1-4.9-3.3c-4.4-3.7-9.5-6.1-14.7-8.5c-4.6-2.1-9-4.4-13.7-6.5c-2-0.9-4.3-1.4-6.5-1.9
	c-3.6-0.7-6.1-2.9-8.3-5.6c-1.5-1.8-3.1-3.6-4.6-5.3c-0.5-0.6-0.9-1.3-1.4-1.9L327.8,219.3L327.8,219.3z"/>
<path fill="none" stroke="#FFC107" stroke-miterlimit="10" d="M296.7,363.5c-1.1-1.1-2.1-2.1-3.2-3.2c-5.6-5.9-11.2-11.8-16.9-17.6
	c-2.3-2.3-5-4.3-7.5-6.4c-5-4-10-7.9-15-11.9c-0.3-0.2-0.7-0.4-1-0.7c-3.3-4.5-8.1-7.2-12.7-10.1c-3.5-2.2-6.1-5.3-8.9-8.1
	c-2.9-2.9-5.7-6-8-9.4c-2.2-3.3-3.7-7.1-5.4-10.7c-1.6-3.5-3.1-7.2-4.8-10.7c-1.5-3.1-3.4-6.1-5.1-9.1c4.2-2.7,6.9-1.7,8.6,2.8
	c1.2,3.3,2.8,6.4,4.6,9.4c3.6,5.6,7.4,11.2,11.3,16.6c1.9,2.7,4.2,5,6.4,7.5c4,4.6,8,9.2,12.2,13.6c3.8,3.9,8,7.5,11.9,11.3
	c5.7,5.5,11.2,11.2,16.9,16.8c3,2.9,6.3,5.6,9.3,8.6c2.8,2.9,5.1,6.2,7.6,9.3c0.3,0.4,0.3,1.1,0.4,1.7L296.7,363.5L296.7,363.5z
	 M542.7,698.6c-2.4,1.1-4.6,0.5-6.8,0c-4.8-1.2-8.8-3.8-12.5-7.1c-4.4-3.9-8.3-8.3-11.7-13c-4.1-5.6-6.8-11.7-8.7-18.3
	c-1.4-4.7-2.8-9.4-3.7-14.3c-0.7-3.8-2.3-7.4-3.4-11.2c-1.2-3.9-2.1-8-3.5-11.8c-1.5-4.2-3.5-8.1-5.1-12.2c-2.4-6-6.8-10.8-10.3-16
	c-1.7-2.5-4.2-4.5-6.4-6.7c-2.3-2.4-2.2-3.2,0.7-5c3.2-2,5.1-1.7,7.2,1.7s4,6.7,5.8,10.2c3.3,6.3,5.9,12.9,8.3,19.6
	c1.3,3.6,2,7.4,3.4,10.9c2.4,5.8,4.2,11.8,5.8,17.9c1.5,5.8,3.5,11.4,5.3,17.1c3.7,11.6,10.5,21.2,19.9,28.7
	c2.7,2.1,6.1,3.3,9.2,4.9C538.6,695,541.1,696,542.7,698.6L542.7,698.6z M329.6,502.5c2.7-0.2,4.2,1.4,5.5,2.9
	c2.5,2.8,5.5,4.6,8.8,6.2c4,1.9,7.8,4.1,11.9,5.7c5.6,2.2,11.5,3.9,17.3,5.9c2.4,0.8,4.9,1.5,7.3,2.4c1.4,0.5,2.9,1.1,3.6,3.3
	c-1.1,0-2.1,0.2-3,0c-2.8-0.5-5.6-1.2-8.5-1.8c-3.9-0.9-7.9-1.5-11.7-2.7c-4.4-1.5-8.7-3.2-12.9-5.2c-4.6-2.1-8.8-4.9-13.4-7
	C330.3,510.2,329.3,506.9,329.6,502.5L329.6,502.5z"/>
<path fill="none" stroke="#FFC107" stroke-miterlimit="10" d="M239.8,293.8c-2.3,0.1-3.4-1.3-4.2-2.9c-2.3-4.4-5.1-8.5-7.9-12.5
	c-2.5-3.6-4.3-7.7-6.3-11.6c-0.6-1.2-0.8-2.7-1.2-4.1c2.1-2.3,4.5-1.5,6.7-0.7c1.3,0.5,2.5,1.4,3.8,2.1c2,1.2,3.4,2.8,3.9,5.3
	c0.4,1.9,1.4,3.7,1.9,5.5c0.6,1.9,1,3.7,1.3,5.6C238.4,284.9,239,289.2,239.8,293.8L239.8,293.8z M272.2,198.8c-3.1-2-6-4.3-9.2-6
	c-3.6-1.9-4.2-4.8-4.1-8.4c0.1-3.7,1.9-5.8,5.5-5.9c7.9-0.2,7.1,1,7.7,6.5c0.3,3.5,0.8,6.9,1.2,10.4c0.1,1.1-0.1,2.1-0.2,3.2
	L272.2,198.8L272.2,198.8z M396.1,267.7c-2-0.8-4.1-1.5-6.1-2.5c-4.6-2.2-9.2-4.2-13.6-6.7c-5.4-3-10.5-6.5-15.7-9.8
	c-1.1-0.7-2.2-1.5-3.3-2.3c-4.4-3-8.9-6-13.3-9c-0.3-0.2-0.5-0.6-0.8-1c1.6-0.8,2.8,0.2,3.9,0.7c3.9,1.9,7.7,4,11.5,6
	c0.2,0.2,0.5,0.3,0.8,0.5c7.6,2.8,13.6,8.1,20.4,12.2c4.3,2.6,8.3,5.7,12.5,8.6c1.3,0.9,2.8,1.7,4.1,2.5L396.1,267.7L396.1,267.7z
	 M288.1,192c1.5,0.7,2.6,1.3,3.7,1.7c1.9,0.8,3.3,2.2,4.2,3.9c2.1,3.9,4.2,7.8,6.3,11.7c0.5,0.9,0.7,2,1.1,3l-0.6,0.5
	c-1-0.4-2-0.9-2.9-1.3c-2.5-1.2-5-2.4-7.6-3.6c-1.6-0.7-2.8-1.8-3.2-3.6c-0.7-3.3-1.2-6.7-1.7-10C287.5,193.7,287.9,193,288.1,192
	L288.1,192z M311.9,226.9c-2.4-1.2-4.9-2.5-7.3-3.7c-1.1-0.6-2.2-1.1-3.3-1.7c-2.1-1-4.3-1.9-6.3-3.1c-1.6-1-2-2.7-1.8-4.6
	c2.1-0.5,3.8,0,5.3,1.2c1.2,1.1,2.8,1.8,4.4,2.1c2.9,0.6,5.3,1.9,6.5,5c0.6,1.5,2,2.8,3,4.2L311.9,226.9z M261.3,197.2
	c0.8,0.4,1.7,0.7,2.4,1.2c3.1,2.1,6.1,4.6,9.4,6.4c2.8,1.6,3.4,3.8,3.3,6.8c-0.7-0.2-1.2-0.2-1.6-0.5c-3.6-2.2-7.2-4.3-10.7-6.6
	C260.9,202.3,260.4,200.9,261.3,197.2L261.3,197.2z M436.3,422.9c-6.3-0.7-15.1-12.7-13.4-18.8c0.8,1,1.6,1.6,2,2.4
	c2,4.4,5,7.9,8.7,11.1C435.9,419.7,436.1,420.2,436.3,422.9L436.3,422.9z"/>
<path fill="#FFC107" stroke="#FFC107" stroke-miterlimit="10" d="M150.8,264.7c-2.1,1.4-3.7,1.7-5.5,1.6c-3.2-0.2-6.3-0.7-9.1-2.4
	c-2.6-1.5-5.2-2.8-7.2-5.2c-1.6-1.8-2.8-3.8-2.1-6.3c1.9-1.1,3-0.1,4.2,0.9c2.6,2.1,5.1,4.5,8,6.1c2.9,1.7,6.2,2.7,9.2,4.1
	C149,263.8,149.6,264.1,150.8,264.7L150.8,264.7z M162.2,222.2c0.2-1.8,1.1-2.4,2.5-2.2c1.1,0.2,2.3,0.3,3.3,0.8
	c5,2.3,9.1,5.6,12,10.3c0.3,0.5,0.4,1.1,0.6,1.8c-1.7,0.8-3.1,0.6-4.4-0.5c-1.4-1.2-2.8-2.4-4.3-3.5
	C168.7,226.6,165.5,224.5,162.2,222.2z M206,208.3c-2-1.6-3.6-2.7-5-4c-3.6-3.5-7-7.3-11.7-9.3c-1-0.4-1.3-1.3-1.1-2.3
	c0.2-1.3,1.2-1.3,2.1-1.1c0.8,0.1,1.6,0.3,2.4,0.6c5.9,2.8,10.6,6.9,12.9,13.3C205.8,206.1,205.8,206.9,206,208.3z M159.2,250
	c-2.5,1.5-4.8,1.6-7.1-0.1c-3.1-2.2-6.2-4.4-9.2-6.7c-0.9-0.7-2.5-1.3-1.7-2.8c0.7-1.3,2.2-1.7,3.5-1.4c1.4,0.3,2.7,1,3.8,1.9
	C152.1,243.8,155.6,246.9,159.2,250z M213.6,169.3c7.9,2.3,12.4,7.1,14.2,15.1c-1.9-0.5-3.6-1.6-4.8-3.2c-2.8-3.6-5.9-6.5-9.9-8.7
	c-0.2-0.1-0.2-0.3-0.6-0.7L213.6,169.3L213.6,169.3z M259.7,134.7c3.6-0.9,6.3,1.2,8.5,3.5c2.5,2.6,4.5,5.8,4,9.9
	c-1.8,0.3-2.6-0.8-3-1.9c-1.9-4.4-5.3-7.4-9-10.2c-0.2-0.2-0.4-0.4-0.6-0.7C259.5,135.3,259.5,135.1,259.7,134.7L259.7,134.7z
	 M252.7,157.7c-3.5-2.4-6.7-4.6-9.9-6.8c-0.7-0.5-1.8-0.6-2.5-1.1c-0.5-0.3-1-1.2-0.8-1.7c0.1-0.4,1-0.7,1.6-0.9
	c0.3-0.1,0.6,0,0.9,0.1c3.6,1.5,7.2,2.9,9.9,5.9C252.9,154.4,253.7,155.7,252.7,157.7z"/>
</svg>
