<?xml version="1.0" encoding="utf-8"?>
<!-- Generator: Adobe Illustrator 19.2.1, SVG Export Plug-In . SVG Version: 6.00 Build 0)  -->
<svg version="1.1" id="Layer_1" xmlns="http://www.w3.org/2000/svg" xmlns:xlink="http://www.w3.org/1999/xlink" x="0px" y="0px"
	 viewBox="0 0 265.2 506.9" enable-background="new 0 0 265.2 506.9" xml:space="preserve">
<title>jelly</title>
<path fill="none" d="M0,0h265.2v506.9H0V0z M118.9,138.5c5.5-0.2,10.3-0.5,15-0.7c1.4-0.1,2.5,0.2,2,2.1c-2,7.3-4.9,14.4-4.9,22.1
	c0,4.1-1,8.3-0.2,12.2c1.7,7.6,4.4,15,6.6,22.5c1.4,4.7,3.3,9.3,4,14.1c1.1,8.1-1,16.1-2.2,24.1c-1,6.1-2.4,12.1-3,18.2
	c-0.5,5.4-0.2,10.8-0.1,16.2c0.1,2.1,0.3,4.3,0.9,6.3c1.2,4.3,2.5,8.5,4,12.7c2.2,6.1,4.5,12.2,7.3,18c3.9,8.5,9.7,16.4,9.7,26.4
	c0,6.6,0.8,13.3-0.2,19.7c-1.8,11.9-4.5,23.6-7.1,35.4c-1.4,6.8-1.7,13.7,1.1,20.1c2.9,6.5,6.6,12.6,8.5,19.5
	c1.4,4.8,2.2,9.6,0.5,14.5c-0.5,1.4-0.9,3.1-0.7,4.4c0.3,1.3,1.4,3.1,2.4,3.3c1.2,0.3,3.2-0.5,4-1.5c1.3-1.7,2-3.9,2.8-6
	c3-7.2,2.2-14.1-1.1-20.9c-1.9-3.8-3.8-7.6-5.6-11.5c-3.4-7.3-3.8-15.2-3.1-23c0.9-10.3,5.9-19.9,6.1-30.4c0.1-5.7,3-11.3,1.5-17.2
	c-2-8.2-3.5-16.6-6.1-24.6c-3.2-9.7-7.4-19-11.1-28.6c-3.7-9.7-6.6-19.7-6.3-30.3c0.1-2.4,0.3-4.9,0.5-7.3c0.4-3.6,0.8-7.1,1.4-10.7
	c1.3-7,3.2-13.9,3.9-21c0.8-8.3-2.1-16-5.3-23.6c-2.8-6.6-5.2-13.2-4.4-20.5c0.1-0.5-0.1-1.1-0.1-1.6c0.1-4.6-0.4-9.4,0.4-13.9
	c1-6.3,3-12.4,4.6-18.6c0.5-2,2.4-2.7,3.9-1.3c0.6,0.5,1.1,1.2,1.4,2c2.3,6.3,4.9,12.5,6.6,18.9c1.3,4.8,1.3,10,1.7,14.9
	c1,9.8,1.3,19.5-2.6,29c-4.4,10.7-7.1,21.8-5.1,33.6c1.6,10,3.4,19.9,6.9,29.3c2.8,7.4,8.6,11.6,15.6,14.4c1.1,0.4,2.5,0.3,3.7,0.5
	c5.9,0.8,11.7,0.3,16.5-3.1c4.2-2.8,7.8-6.7,11.2-10.5c3.4-3.9,5.7-8.7,6.7-13.8c0.9-5,3.1-9.7,6.3-13.7c6.7-7.9,13.9-11.2,24.8-6.3
	c3.2,1.4,6.6,2.6,9.8,3.9c1.8,0.7,3.7,0.8,4.5-1.2c0.8-2-0.3-3.7-2.1-4.8c-5.1-3.3-10.4-5.5-16.6-6.2c-5.9-0.7-11.4-0.1-16.5,2.1
	c-6.8,3-10.9,8.8-13.9,15.5c-2.7,6.2-5.4,12.4-8.2,18.5c-2.5,5.5-6.3,8.9-12.5,10.3c-8.5,1.9-13.6,0.8-18.4-6.5
	c-2.7-4-4.5-8.9-6-13.6c-3.1-10-3.2-20.1-1-30.3c2-9.4,4-18.8,5.5-28.3c1.6-10.4,1.1-21.2-1.6-31.4c-2.1-7.8-5-15.4-7.7-23
	c-0.7-2-0.5-3,1.6-4c3.1-1.6,6.8-3.3,7.4-7.1c0.8-4.6,0.9-9.4,0.5-14c-0.5-5.9-2-11.8-3-17.7c-0.9-5.5-1.5-11-2.6-16.4
	c-1.1-5.3-3-10.4-3.9-15.8c-2-10.8-5.2-20.9-12.4-29.7c-6.4-7.9-13.2-15-22.2-20.2c-8.4-4.9-17-4.8-25.9-3.4
	c-5.9,0.9-11.6,2.4-17.3,4.3c-6.2,2.1-12.6,4.3-18.1,7.7c-7.7,4.8-13.3,12-18.4,19.4C36.7,50,30,59.8,23.3,69.6
	c-4.5,6.6-7.2,14.3-7.7,22.2c-0.3,5.9-0.2,11.7,0,17.6c0.1,5.3,0.5,10.6,1.1,15.9c0.5,3.4,1.9,6.6,5.1,8.7c0.9,0.6,1.5,1.5,1.7,2.6
	c0.5,5.5,1.1,10.9,1.1,16.4c-0.1,5.6-0.5,11.2-1.4,16.6c-1.5,9.5-3.3,18.9-3.3,28.5c0,3.9,0.2,7.8,0.5,11.6
	c0.3,3.4,0.5,6.8,1.5,10.1c4,13.7,8.2,27.2,12.4,40.8c2.4,7.7,5,15.2,7,23c1.7,6.7,2.7,13.7,3.8,20.5c1.1,7.3,2.5,14.6,2.5,21.9
	c0,9.1-1.3,18.3-2,27.5c-0.7,8.5-1.5,17-2.2,25.5c-0.7,8.5-1.4,17.1-1.6,25.6c-0.2,6.5,0.1,13.1,0.5,19.6c0.2,4.6,2.4,9,6.1,11.8
	c0.9,0.7,2.8,0.9,4,0.4c0.9-0.3,1.7-2,1.7-3c-0.1-2.2-0.2-4.6-1.1-6.6c-3.9-8.4-3.1-17.2-2.6-26c0.5-8.3,1.4-16.5,2.1-24.7
	c0.4-3.7,0.9-7.5,1.4-11.2c0.8-6.6,1.9-13.1,2.4-19.7c0.3-4.6-0.2-9.2-0.4-13.8c-0.5-8.5-0.9-17-1.7-25.4c-0.5-5.5-1-11.1-2.2-16.5
	c-1.6-7.2-3.3-14.4-6.1-21.3c-5.3-13.1-11.9-25.8-15.2-39.6c-1.5-6.4-3.3-12.8-4.2-19.3c-0.8-6.2-1-12.5-0.5-18.7
	c0.9-7.6,2.4-15.3,3.8-22.9c2-10.3,5.4-20.2,5.2-30.9c0-0.6,0.9-1.8,1.4-1.8c2.1,0,4.3,0.2,6.4,0.5c0.7,0.3,1.2,0.9,1.4,1.6
	c0.7,5.5,1.5,11,1.6,16.6c0.1,11-2,21.7-5.1,32.2c-2,6.4-2.6,13.2-0.2,19.6c1.9,5,4.8,9.7,7.5,14.4c2.5,4.2,5.9,7.8,7.9,12.1
	c2.8,6.1,4.9,12.6,6.8,19.1c1.3,4,2,8.1,2.1,12.4c0,5.5-1.3,11-1.4,16.6c-0.2,6.2,0.1,12.3,0.5,18.5c0.3,3.4,1.3,6.8,2.2,10.1
	c3,9.8,9.2,18.6,9.9,29.2c0.3,4.6,0.9,9.5-0.1,13.9c-1.9,8.7-5,17.2-7.2,25.9c-1.4,5.6-2.5,11.3-3.3,17.1c-0.3,2,0.5,4.5,3.2,4.9
	c2.7,0.4,4.2-1.1,4.9-3.6c0.2-0.5,0.4-1,0.5-1.5c1.6-12.3,6.5-23.6,10.7-35.2c2.4-6.6,3.1-13.2,1.5-20c-1.4-5.6-3-11.2-5-16.6
	c-2.5-6.9-5.5-13.7-8.2-20.6c-1.8-4.5-2.7-9.2-1.7-14.2c1-5.2,2-10.4,2.2-15.6c0.3-8.6,0.3-17.3-2-25.8c-2.3-8.3-4.8-16.4-10.3-23.2
	c-5.2-6.5-10.4-13-11.4-21.7c-0.4-4.3-1.7-8.7-1.1-12.9c1.2-7.4,4.2-14.5,4.4-22.3c0.2-7,0.7-13.9-0.2-20.9
	c-0.4-3.1-0.8-6.1-1.3-9.7l11.2,0.8c0.1,1.1,0.1,2.2,0,3.3c-0.9,6.5-2.3,13-1,19.5c1.3,6.9,2.1,14,4.2,20.7
	c3.9,12.2,8.7,24.1,13,36.1c3.4,9.6,6.8,19.2,7.3,29.5c0.4,7.8-0.7,15.7-0.9,23.6c-0.3,7-1.1,14.1-0.3,21
	c1.1,10.6,4.9,20.6,8.6,30.5c3.5,9.2,5.5,18.9,5.9,28.7c0.4,9.8-1.6,19.2-4.8,28.4c-3.1,9.2-6,18.6-8.5,28.1
	c-2.4,8.6-3,17.6-2.5,26.5c0.2,2.3,0.6,4.6,1.3,6.8c2.5,7.9,5.2,15.7,7.6,23.6c2.4,7.8,3,15.7,1.4,23.8c-0.5,2.7-0.9,5.5-1,8.4
	c-0.1,2.4,1.7,4.5,4,5c2.2,0.3,5.2-1.7,5.7-4c0.5-3,1.1-6,1.1-9c-0.1-4.9-0.5-9.7-1.1-14.5c-0.5-4.7-1.4-9.4-2.5-13.9
	c-1.4-5.5-3.4-10.9-5.1-16.3c-3-9.2-2.1-18.6-0.8-27.9c1-6.5,2.5-12.9,4.4-19.2c2.4-7.8,5.4-15.4,8.4-23c2.2-5.6,3.7-11.4,2.5-17.1
	c-2.2-10.9-5.4-21.8-8.1-32.6c-2.5-10.1-5.2-20.1-7.6-30.2c-1.8-7.7-0.8-15.5-0.5-23.2c0.2-4.2,1.2-8.3,1.5-12.5
	c0.4-4.6,1.1-9.4,0.4-13.8c-1.2-7.1-3.3-14-5.4-20.9c-2.2-7.2-4.7-14.2-7.3-21.2c-2.9-7.8-6.1-15.4-9-23.1
	c-4.2-10.7-3.7-21.9-2.6-33.1c0.7-6.9,1-6.9,8.3-6.8c1.7,0,2.9,0.5,3.3,2.1c1.1,4.1,2.7,8.2,3,12.4c0.5,7.2-0.1,14.4,0.2,21.6
	c0.1,3.9,0.9,7.8,1.4,11.7c1.3,8.6,5.2,16.3,9.2,23.8c6.4,12,8.6,24.9,8.7,38.1c0.1,7.5-1.6,15.1-2.6,22.6c-0.8,6.5-1.3,13,1.1,19.2
	c2.6,6.5,5.6,12.7,8.4,19.1c2.2,4.9,4,9.7,3.6,15.2c-0.5,6.6-0.7,13.3-0.5,19.9c0.2,4.8,1.3,9.6,2.2,14.3c0.9,4.5,2.8,9,3,13.5
	c0.4,9-3,17.3-6.5,25.5c-2.9,7-4.9,14.1-4.3,21.7c0.3,4.6,0.5,9.4,1.2,14c0.4,3,1.5,5.9,4.8,7.3c2.7,1.1,4.9,0.2,4.9-2.7
	c-0.1-4.4-0.4-8.8-0.8-13.2c-0.4-4-1.6-7.9-1-12.2c1.3-7.7,5-14.4,7.4-21.7c2-6.1,4.6-12.1,4.3-18.7c-0.3-6.2-2.1-12.1-4.3-17.8
	c-1.9-4.8-3.3-10-2.4-14.9c1.3-6.8,0.8-13.2-0.8-19.7c-2.1-9.3-4.9-18.4-7.1-27.7c-1-4.2-1.6-8.5-1.6-12.7
	c0.1-5.7,1.2-11.4,1.4-17.2c0.3-9.7-0.1-19.5-2.2-29c-1.4-6.2-2.8-12.5-4.9-18.5c-2.1-6.2-5-12.2-7.7-18.2
	c-4.9-10.8-5.9-22.3-6-33.9c0-5.4,0.1-10.8-1.6-16.1c-0.7-2.3-0.9-4.8-1.4-7.8c4.5,0.3,8.4,0.7,12.4,0.7c1.8,0,2.7,0.7,3.2,2.2
	c1.4,4.5,2.8,9,4,13.6c1.5,6.1,3.6,12.2,4,18.5c0.9,12,0.9,24.1,1.3,36.1c0.1,2.5,0.4,5,0.9,7.4c2.4,10.8,5,21.5,7.3,32.3
	c1.8,7.9,1.5,16.2-0.8,24c-1.6,5.4-3.8,10.6-3.2,16.6c0.9,9.4,4.1,17.8,8.9,25.8c2.4,4,4.4,8.4,5.9,12.9c3.1,9.2,4.6,18.8,5.7,28.5
	c0.8,6.8,0,13.7-2.5,20c-2.1,5.3-4.2,10.7-3.7,16.6c0.2,2.6,2.6,5.4,4.8,5.2c2-0.1,3.3-2.3,3.5-5c0.2-2.5,0.3-5.1,1.3-7.3
	c3.3-7.3,5.1-14.9,5.1-22.9c-0.1-6.3-0.8-12.6-1.6-18.8c-0.7-5.2-1.3-10.6-3.1-15.4c-3.1-8.5-7.1-16.7-10.7-25
	c-2.5-5.6-5-11.2-4.1-17.6c0.5-3.9,1.6-7.7,2.4-11.5c2-8.8,2-18,0.1-26.8c-1.7-8-3.6-16-5.2-24c-1.9-9.7-2.8-19.6-2.7-29.5
	c0-2.6,0.2-5.1-0.1-7.7c-0.7-7.7-1.3-15.4-2.1-23.1c-0.5-4.8-1.2-9.6-2-14.3C120.5,145.7,119.7,142.2,118.9,138.5L118.9,138.5z"/>
<path fill="#FFC107" d="M118.9,138.5c0.8,3.7,1.6,7.2,2.1,10.7c0.8,4.8,1.5,9.6,2,14.3c0.8,7.7,1.5,15.4,2.1,23.1
	c0.2,2.5,0.1,5.1,0.1,7.7c-0.1,9.9,0.8,19.8,2.7,29.5c1.6,8,3.5,16,5.2,24c1.9,8.8,1.9,18-0.1,26.8c-0.8,3.8-1.9,7.6-2.4,11.5
	c-0.9,6.3,1.6,11.9,4.1,17.6c3.7,8.3,7.6,16.5,10.7,25c1.8,4.9,2.4,10.2,3.1,15.4c0.8,6.2,1.6,12.5,1.6,18.8
	c0.1,7.9-1.8,15.5-5.1,22.9c-1,2.2-1.1,4.9-1.3,7.3c-0.2,2.8-1.5,5-3.5,5c-2.2,0.1-4.6-2.7-4.8-5.2c-0.4-5.9,1.6-11.3,3.7-16.6
	c2.5-6.3,3.3-13.2,2.5-20c-1.1-9.7-2.6-19.3-5.7-28.5c-1.5-4.5-3.5-8.8-5.9-12.9c-4.8-8-7.9-16.4-8.9-25.8c-0.6-6,1.6-11.2,3.2-16.6
	c2.3-7.8,2.6-16,0.8-24c-2.3-10.8-4.9-21.5-7.3-32.3c-0.5-2.5-0.8-5-0.9-7.4c-0.4-12-0.4-24.1-1.3-36.1c-0.5-6.2-2.5-12.4-4-18.5
	c-1.1-4.5-2.7-9-4-13.6c-0.5-1.6-1.4-2.2-3.2-2.2c-3.9-0.1-7.9-0.4-12.4-0.7c0.5,2.9,0.7,5.4,1.4,7.8c1.6,5.2,1.5,10.7,1.6,16.1
	c0.1,11.6,1.1,23.1,6,33.9c2.7,6,5.5,12,7.7,18.2c2.1,6,3.5,12.3,4.9,18.5c2.1,9.6,2.5,19.3,2.2,29c-0.2,5.7-1.4,11.4-1.4,17.2
	c0,4.3,0.5,8.6,1.6,12.7c2.2,9.2,4.9,18.4,7.1,27.7c1.5,6.5,2,13,0.8,19.7c-0.9,4.9,0.5,10.1,2.4,14.9c2.3,5.7,4,11.6,4.3,17.8
	c0.3,6.6-2.2,12.6-4.3,18.7c-2.4,7.2-6.1,14-7.4,21.7c-0.7,4.3,0.5,8.1,1,12.2c0.4,4.4,0.8,8.8,0.8,13.2c0,2.9-2.2,3.9-4.9,2.7
	c-3.3-1.4-4.3-4.3-4.8-7.3c-0.7-4.6-0.9-9.3-1.2-14c-0.5-7.6,1.4-14.7,4.3-21.7c3.4-8.1,6.8-16.5,6.5-25.5c-0.2-4.5-2.1-9-3-13.5
	c-0.9-4.8-2-9.5-2.2-14.3c-0.2-6.6,0-13.3,0.5-19.9c0.4-5.5-1.4-10.4-3.6-15.2c-2.8-6.3-5.9-12.6-8.4-19.1c-2.5-6.2-2-12.7-1.1-19.2
	c1-7.5,2.7-15.1,2.6-22.6c-0.2-13.2-2.4-26.1-8.7-38.1c-4-7.5-8-15.2-9.2-23.8c-0.5-3.9-1.3-7.8-1.4-11.7
	c-0.2-7.2,0.3-14.4-0.2-21.6c-0.3-4.2-1.9-8.3-3-12.4c-0.4-1.6-1.6-2.1-3.3-2.1c-7.2-0.1-7.6-0.1-8.3,6.8c-1,11.2-1.5,22.3,2.6,33.1
	c3,7.7,6.2,15.4,9.1,23.1c2.6,7,5.1,14.1,7.3,21.2c2.1,6.9,4.2,13.8,5.4,20.9c0.8,4.4,0,9.2-0.4,13.8c-0.3,4.2-1.4,8.3-1.5,12.5
	c-0.3,7.7-1.3,15.5,0.5,23.2c2.4,10.1,5,20.2,7.6,30.2c2.7,10.9,5.8,21.7,8.1,32.6c1.2,5.7-0.3,11.5-2.5,17.1c-3,7.6-6,15.2-8.4,23
	c-2,6.3-3.4,12.7-4.4,19.2c-1.4,9.3-2.2,18.7,0.8,27.9c1.7,5.4,3.7,10.8,5.1,16.3c1.1,4.6,2,9.2,2.5,13.9c0.6,4.8,1,9.7,1.1,14.5
	c0.1,3-0.5,6.1-1.1,9c-0.4,2.4-3.4,4.3-5.7,4c-2.4-0.4-4.1-2.6-4-5c0.2-2.8,0.5-5.6,1-8.4c1.6-8.1,0.9-16-1.4-23.8
	c-2.4-7.9-5.1-15.7-7.6-23.6c-0.7-2.2-1.1-4.5-1.3-6.8c-0.5-9,0.1-17.9,2.5-26.5c2.6-9.4,5.4-18.8,8.5-28.1
	c3.1-9.2,5.2-18.6,4.8-28.4c-0.4-9.8-2.4-19.5-5.9-28.8c-3.8-9.9-7.5-19.9-8.6-30.5c-0.7-6.9,0.1-14,0.3-21
	c0.3-7.9,1.3-15.7,0.9-23.6c-0.5-10.2-3.9-19.9-7.3-29.5c-4.3-12.1-9.1-24-13-36.1c-2.1-6.7-2.9-13.7-4.2-20.7
	c-1.2-6.6,0.2-13,1-19.5c0.1-1.1,0.1-2.2,0-3.3l-11.1-0.8c0.5,3.6,0.9,6.6,1.3,9.7c0.9,6.9,0.3,13.9,0.2,20.9
	c-0.2,7.8-3.2,14.8-4.4,22.3c-0.7,4.1,0.6,8.5,1.1,12.9c0.9,8.7,6.2,15.3,11.4,21.7c5.5,6.9,8,15,10.3,23.3c2.4,8.5,2.4,17.2,2,25.8
	c-0.2,5.2-1.1,10.5-2.2,15.7c-1,5-0.1,9.6,1.7,14.2c2.7,6.8,5.7,13.6,8.2,20.6c2,5.4,3.7,10.9,5,16.6c1.6,6.7,0.9,13.5-1.5,20
	c-4.1,11.5-9,22.9-10.7,35.2c-0.2,0.5-0.3,1-0.5,1.5c-0.7,2.5-2.2,4-4.9,3.6c-2.6-0.4-3.5-2.9-3.2-4.9c0.8-5.7,1.9-11.4,3.3-17.1
	c2.2-8.7,5.3-17.2,7.2-25.9c1-4.4,0.3-9.2,0.1-13.9c-0.7-10.6-6.9-19.4-9.9-29.2c-1-3.3-2-6.7-2.2-10.1c-0.5-6.1-0.7-12.3-0.5-18.5
	c0.2-5.5,1.4-11.1,1.4-16.6c-0.1-4.2-0.8-8.4-2.1-12.4c-1.9-6.5-4-13-6.8-19.1c-2-4.3-5.4-7.9-7.9-12.1c-2.7-4.6-5.6-9.4-7.5-14.4
	c-2.5-6.4-1.8-13.2,0.1-19.6c3.2-10.6,5.2-21.2,5.1-32.2c-0.1-5.5-1-11.1-1.6-16.6c-0.2-0.7-0.7-1.3-1.4-1.6
	c-2.1-0.4-4.3-0.5-6.4-0.5c-0.5,0-1.4,1.2-1.4,1.8c0.2,10.6-3.3,20.6-5.2,30.9c-1.5,7.7-2.8,15.3-3.4,23c-0.5,6.2-0.3,12.5,0.5,18.7
	c0.8,6.5,2.6,12.9,4.2,19.3c3.4,13.8,9.9,26.5,15.2,39.6c2.7,6.8,4.4,14.1,6.1,21.3c1.1,5.6,1.7,11.2,2.2,16.6
	c0.7,8.4,1.2,16.9,1.7,25.4c0.3,4.6,0.8,9.2,0.4,13.8c-0.4,6.6-1.5,13.2-2.4,19.7c-0.4,3.7-1,7.4-1.4,11.2
	c-0.8,8.3-1.6,16.5-2.1,24.7c-0.5,8.7-1.4,17.6,2.6,26c0.9,1.9,1.1,4.3,1.1,6.6c0,1-0.9,2.7-1.7,3c-1.1,0.4-3.1,0.3-4-0.4
	c-3.7-2.9-5.9-7.2-6.1-11.8c-0.4-6.5-0.7-13.1-0.5-19.6c0.3-8.5,1-17.1,1.6-25.6c0.6-8.6,1.5-17,2.2-25.5c0.8-9.1,2-18.3,2-27.5
	c0-7.3-1.4-14.6-2.5-21.9c-1-6.9-2.1-13.8-3.8-20.5c-2-7.8-4.6-15.3-7-23c-4.2-13.6-8.4-27.2-12.4-40.8c-0.9-3.2-1.2-6.7-1.5-10.1
	c-0.3-3.9-0.5-7.8-0.5-11.6c0.1-9.6,1.9-19.1,3.3-28.5c0.9-5.5,1.4-11,1.4-16.6c0.1-5.5-0.5-10.9-1.1-16.4c-0.2-1.1-0.8-2-1.7-2.7
	c-3.3-2-4.6-5.3-5.1-8.7c-0.7-5.2-1.1-10.6-1.1-15.9c-0.2-5.9-0.3-11.7,0-17.6c0.4-8,3.1-15.6,7.7-22.2C30.3,59.8,37,50,43.7,40.3
	c5.2-7.4,10.8-14.7,18.4-19.4c5.5-3.4,11.9-5.6,18.1-7.7c5.6-1.9,11.4-3.3,17.3-4.3c8.9-1.4,17.4-1.4,25.9,3.4
	c9,5.2,15.8,12.3,22.2,20.2c7.1,8.7,10.4,18.9,12.4,29.7c1,5.3,2.8,10.5,3.9,15.8c1.1,5.4,1.7,10.9,2.6,16.4c1,5.9,2.4,11.8,3,17.7
	c0.4,4.6,0.2,9.4-0.5,14c-0.6,3.8-4.3,5.5-7.4,7.1c-2.1,1-2.3,2-1.6,4c2.7,7.7,5.6,15.2,7.7,23c2.7,10.2,3.3,20.9,1.6,31.4
	c-1.4,9.5-3.5,18.9-5.5,28.3c-2.2,10.2-2.1,20.3,1,30.3c1.5,4.7,3.3,9.5,6,13.6c4.9,7.3,10,8.4,18.4,6.5c6.1-1.4,10-4.9,12.5-10.3
	c2.8-6.2,5.5-12.4,8.2-18.5c3-6.7,7.1-12.5,13.9-15.5c5.1-2.2,10.7-2.7,16.5-2.1c6.2,0.7,11.5,2.9,16.6,6.2c1.8,1.2,3,2.7,2.1,4.8
	c-0.9,2.1-2.7,1.9-4.5,1.2c-3.3-1.3-6.6-2.5-9.8-3.9c-10.9-4.8-18.1-1.6-24.8,6.3c-3.2,3.9-5.4,8.6-6.3,13.7
	c-1,5.1-3.3,9.9-6.7,13.8c-3.4,3.8-7,7.7-11.2,10.5c-4.8,3.3-10.7,3.9-16.5,3.1c-1.3-0.2-2.6-0.1-3.7-0.5c-7-2.8-12.8-7-15.6-14.4
	c-3.6-9.5-5.3-19.4-6.9-29.3c-2-11.8,0.8-22.9,5.1-33.6c3.9-9.5,3.6-19.1,2.6-29c-0.5-5-0.5-10.1-1.7-14.9
	c-1.7-6.5-4.3-12.6-6.6-18.9c-0.3-0.8-0.8-1.4-1.4-2c-1.5-1.4-3.4-0.7-3.9,1.3c-1.6,6.2-3.6,12.4-4.6,18.6
	c-0.8,4.5-0.3,9.3-0.4,13.9c0,0.5,0.1,1.1,0.1,1.6c-0.8,7.3,1.6,13.9,4.4,20.5c3.2,7.5,6.1,15.3,5.3,23.6c-0.7,7.1-2.6,14-3.9,21
	c-0.6,3.5-1,7.1-1.4,10.7c-0.3,2.4-0.5,4.9-0.5,7.3c-0.2,10.6,2.6,20.5,6.3,30.3c3.7,9.6,7.9,18.9,11.1,28.6
	c2.6,8,4.1,16.4,6.1,24.6c1.5,5.9-1.4,11.5-1.5,17.2c-0.2,10.6-5.2,20.1-6.1,30.4c-0.7,7.8-0.3,15.7,3.1,23
	c1.8,3.9,3.8,7.7,5.6,11.5c3.3,6.8,4.1,13.8,1.1,20.9c-0.9,2-1.5,4.3-2.8,6c-0.8,1-2.8,1.8-4,1.5c-1-0.3-2.1-2-2.4-3.3
	c-0.3-1.4,0.2-3,0.7-4.4c1.6-4.9,0.8-9.7-0.5-14.5c-2-6.9-5.6-13-8.5-19.5c-2.8-6.4-2.6-13.2-1.1-20.1c2.5-11.8,5.2-23.5,7.1-35.4
	c1-6.5,0.2-13.1,0.2-19.7c0-10-5.7-17.8-9.7-26.4c-2.7-5.9-5-12-7.3-18c-1.5-4.2-2.8-8.4-4-12.7c-0.5-2.1-0.9-4.2-0.9-6.3
	c-0.1-5.4-0.4-10.8,0.1-16.2c0.6-6.1,2-12.1,3-18.2c1.3-8,3.3-16,2.2-24.1c-0.7-4.8-2.6-9.4-4-14.1c-2.2-7.5-4.9-14.9-6.6-22.5
	c-0.9-3.8,0.2-8.1,0.2-12.2c0-7.8,2.9-14.9,4.9-22.1c0.5-2-0.5-2.2-2-2.1C129.2,138,124.4,138.2,118.9,138.5L118.9,138.5z
	 M132.8,135.6c7.8,0.6,15.9-1.5,24-3.5c2.8-0.7,6.3-3,7.5-5.5c1.5-3.3,1.5-7.6,1.2-11.4c-0.4-6-1.7-12-2.6-18
	c-0.7-4.8-1.1-9.6-2.1-14.3c-1.1-5.7-2.6-11.4-4-17.2c-1.3-5.5-2.2-11-4-16.3c-3.3-9.5-9.4-17.2-16.2-24.4
	c-3.2-3.4-6.9-6.3-10.7-9.1c-6.2-4.6-13.1-7.1-20.9-6.1c-5.7,0.8-11.5,1.6-17.1,2.8c-3.7,0.8-7.2,2.5-10.8,3.7
	c-3.2,1.1-6.6,1.7-9.5,3.4c-9.5,5.7-16.5,13.9-22.7,22.9c-4.6,6.8-9.1,13.7-14.1,20.2s-9.2,13.2-11.5,21c-2.1,6.9-2.1,14.1-1.7,21.3
	c0.4,7,0.3,14,2.1,20.9c0.9,3.2,2.7,5.6,5.5,5.7c4.3,0.2,8.5,0.3,12.7,0.5c7.1,0.5,14.2,1.1,21.3,1.6c8.1,0.5,16.3,0.8,24.4,1.1
	c7.1,0.3,14.2,0.5,21.2,0.5C113.9,135.7,123,135.6,132.8,135.6L132.8,135.6z M96.2,494.5c0-0.3-0.2,0.4,0.1,0.8
	c0.5,0.8,1.2,1.6,1.9,2.4c0.4-0.8,1.2-1.5,1.3-2.2c0.5-3.3,1-6.6,1-9.9c0-3.1-0.9-6.2-1-9.4c-0.1-8.9-1.9-17.4-4.9-25.7
	c-3.3-9.4-5.5-18.9-3.9-28.9c0.4-2.6,0.4-5.2,1-7.7c1.7-6.5,3.6-13,5.6-19.5c2.1-6.8,4.2-13.6,6.8-20.2c3.4-8.6,4.6-17.2,2-26.2
	c-3.7-12.8-7.4-25.6-10.7-38.6c-1.9-7.3-3.8-14.7-4.5-22.2c-0.7-6.7,0.1-13.6,0.4-20.3c0.2-3.2,1.1-6.3,1.4-9.5
	c0.4-5.1,1.3-10.4,0.5-15.4c-1-6.9-3.1-13.7-5.4-20.3c-3.7-11-7.4-22.1-12-32.8c-4.7-10.8-7.5-21.8-7.5-33.5
	c0.1-4.9,0.7-9.7,1.8-14.4c0.7-2.8-0.2-3.7-2.5-4.2c-2.4-0.5-3.6,0.4-3.8,3.2c-0.3,6-0.5,12-0.5,18c-0.1,6.9,1.6,13.7,3.8,20.2
	c5.1,14.8,10.4,29.5,15.5,44.3c4.3,12.5,6.8,25.2,4.9,38.7c-1.2,8.5-0.8,17.3-0.7,25.9c0.2,9.5,3.3,18.4,6.5,27.2
	c5.2,14.4,9.9,29,8.1,44.6c-0.6,5.3-1.6,10.6-3,15.7c-3.1,11-6.8,21.9-9.7,33c-1.4,5.4-1.9,11.1-2.5,16.7
	c-0.9,8.4,1.7,16.2,4.5,23.8c2.8,7.7,5.8,15.3,6.7,23.5c0.3,2.8,0.4,5.6,0.2,8.5C97.6,484.6,96.9,489.2,96.2,494.5L96.2,494.5z
	 M116.7,436.8l1.1-0.3c-0.4-4.6-0.4-9.3-1.2-13.8c-1.2-6.5-1.4-12.6,1.3-18.8c3-7.2,5.4-14.7,8.1-22c2.1-5.9,2.3-12.4,0.5-18.4
	c-1.4-4.7-3-9.3-4.2-14.1c-0.9-3.7-2.4-7.8-1.5-11.2c1.5-5.7,0.9-11-0.2-16.4c-1.4-7.5-3.3-14.9-5.6-22.2
	c-4.1-12.1-3.3-24.4-2.4-36.8c0.5-6.7,0.1-13.5,0-20.3c-0.1-2-0.4-3.9-0.8-5.9c-0.9-4.9-1.6-9.9-3-14.7c-2.1-6.9-4.2-14.1-7.4-20.6
	c-4.8-9.4-7.7-19.7-8.4-30.2c-0.5-8.6-0.4-17.2-1.3-25.8c-0.7-7.5-1.7-8.2-7.7-7.6c-0.2,0.1-0.3,0.2-0.4,0.3c0.5,1,1,2,1.4,3.1
	c1,3.8,2.6,7.5,2.8,11.3c0.6,8.4,0.4,16.9,0.7,25.3c0.2,3.4,0.3,7.1,1.5,10.3c2.9,7.9,6,15.9,9.8,23.4c5.4,10.6,7.7,21.8,7.7,33.4
	c0,7.5-1,15.1-2.2,22.5c-1.4,8.1-1.2,16,1.7,23.5c2.6,6.9,6,13.6,9.2,20.2c1.9,4,2.8,8.5,2.7,13c-0.1,6.5-1,12.9-0.7,19.2
	c0.3,5.4,1.5,10.8,3,16c1.7,5.9,3.2,11.8,2,17.8c-1.4,6.5-3.2,12.7-5.6,18.9c-2.5,6.5-4.6,13-4.9,19.9c-0.2,4.7,0.8,9.5,1.4,14.2
	C114.5,432.4,114.5,435.1,116.7,436.8L116.7,436.8z M163,446.9l0.8,0.2c3.9-3.1,3.9-7.9,3.8-12c-0.2-4.9-2.1-9.8-3.6-14.7
	c-2.1-6.3-4.9-12.4-6.7-18.8c-1.1-3.8-1.9-8.1-1.2-12c2-12,4.6-24,7.2-35.9c1.4-6.3,1.6-12.9,0.6-19.2c-1.2-6.6-2.9-13-5.2-19.3
	c-2.7-7.9-6.1-15.5-9.3-23.3c-5.7-13.8-8.7-27.8-7.3-42.9c0.9-9.4,3.7-18.4,5-27.7c0.7-4.7,0.9-9.3-0.3-13.8c-1.4-5-3-9.8-4.9-14.7
	c-2.2-5.7-4.2-11.4-4.5-17.5c-0.5-10.5,0.6-20.8,4.2-30.8c0.8-2.3,1-4.8,1.5-7.2c-4.4-0.3-4.8-0.1-5.7,3.7c-0.2,0.6-0.3,1.2-0.5,1.8
	c-2.4,7.1-3.9,14.5-4.3,22c-0.8,10.8,3.1,20.6,6.6,30.4c2.5,6.9,5.5,13.7,4.8,21.3c-0.5,5.5-1.2,11-2.2,16.5
	c-1.9,9.8-3.6,19.6-3.3,29.7c0.2,7.2,0.9,14.1,3.3,20.8c3,8.3,5.8,16.6,10.1,24.4c5.3,9.5,9.8,19.4,9.5,30.6
	c-0.2,6.9-0.5,13.9-1.7,20.7c-1.9,10.7-5.4,21.1-6.6,31.9c-0.5,4.5-0.9,9.1,0.8,13.3c2.4,6.3,5.6,12.3,8.1,18.6
	c2.6,6.7,4.6,13.6,1.3,20.8C162.7,444.8,163,446,163,446.9z M70.5,397c1.7-6.6,3.1-12.8,5-18.9c2.2-7.2,4.8-14.2,7.2-21.2
	c2.1-6.1,2.5-12.6,0.7-18.6c-3-10.2-6.6-20.3-10.7-30.1c-3.3-8-4.6-15.7-2.8-24.3c1.1-5.8,1.7-11.8,1.7-17.7
	c0-5.2-0.5-10.4-1.6-15.5c-2.1-9.6-5.2-18.9-11.4-26.8c-3.8-4.8-8.3-9.4-9.6-15.6c-1.3-6-3.1-12.2-2.7-18.2c0.5-7.4,4.1-14.4,4.3-22
	c0.1-4,0.7-8.1,0.8-12.1c0.1-2.4-0.3-4.9-0.5-7.3c-0.2-2.4-0.4-4.6-0.6-7c-0.2-1.5-0.1-3.2-0.7-4.5c-0.4-0.9-2-1.4-3-2.1
	c-0.4,0.6-1.1,1.3-1.1,1.8c0.4,3.3,1.4,6.7,1.5,10.1c0.2,7.5,0.7,15-0.2,22.5c-0.9,8-3.2,15.9-4.8,23.8c-1.3,6.5,0.3,12.5,3.3,18
	c5.1,9.4,12.9,17.3,16.3,27.8c2.6,8.1,5.9,15.9,5.6,24.7c-0.4,9.2-0.8,18.5-1.1,27.7c-0.2,6.6,1.3,13.1,3.7,19.1
	c3.3,8.7,8.5,16.8,9.2,26.4c0.4,5.4,1,10.9-0.1,16.1c-2,9-5.3,17.7-7.8,26.6c-1.3,4.6-2,9.4-2.7,14.2
	C68.2,395.3,68.6,396.8,70.5,397L70.5,397z M109.9,138.7c1.9,6.7,3.4,12.7,5.2,18.7c1.9,6.3,3.3,12.6,3.6,19.1
	c0.3,9.2,0.2,18.3,0.7,27.5c0.3,5.1,0.9,10.2,1.9,15.2c1.7,10.2,6.1,19.7,7.1,30.1c0.7,7.8,1.1,15.3-0.9,22.9
	c-1.4,5.3-4.2,10.2-3.3,16.3c1.2,8.9,4.2,16.9,8.1,24.8c2.2,4.3,4.9,8.5,6.1,13c2.5,8.9,4,18,6.2,27.1c1.7,7.1,0.8,14-1.3,20.9
	c-1.6,5.2-3.2,10.6-4.6,15.9c-0.7,2.6,0.4,4.8,1.7,5.3c1.1-4.3,1.9-8.7,3.4-12.8c2.4-6.3,4.2-12.6,3.8-19.3
	c-0.4-8.3-1.2-16.5-2.2-24.7c-0.5-4.4-1.5-8.6-3-12.7c-3-7.5-6.6-14.8-10-22.2c-3.5-7.6-4.9-15.1-2.5-23.6
	c2.8-9.9,4.2-20.2,1.9-30.6c-2.2-9.9-4.3-19.9-6.3-29.8c-0.9-4.5-1.9-9-1.8-13.6c0.1-13.7-0.8-27.5-2.4-41.1
	c-0.9-8.3-2.5-16.4-3.8-24.6c-0.1-0.8-1.1-2-1.7-2C113.9,138.3,111.9,138.6,109.9,138.7L109.9,138.7z M50.6,434.3l1-0.3
	c-0.4-2-0.3-4.2-1.2-5.9c-4-7.9-2.9-16.5-2.7-24.8c0.2-7.8,1.3-15.6,2.1-23.4c0.4-4.1,0.7-8.3,1.3-12.3c0.9-6.3,2.7-12.7,2.9-19
	c0.3-11.3,0.1-22.7-0.7-34.1c-0.5-8.5-2.1-17-3.6-25.5c-1.5-9.4-4.4-18.5-8.4-27.2c-5.5-11.3-9.9-23.1-13.2-35.2
	c-1.9-7-3.3-14.2-3-21.5c0-0.7-0.1-1.4-0.2-2.1c-0.3-5.6-1.4-11.3-0.7-16.7c1.3-9.6,3.7-19,5.7-28.5c1.5-6.9,2.7-13.8,2.2-20.8
	c-0.1-0.8-0.8-2.1-1.3-2.2c-1.7-0.2-3.5,0.1-5.1,0.2c0.6,4,1.3,7.3,1.5,10.6c0.4,9.4-0.2,18.8-1.9,28c-1.1,6.7-2.5,13.4-2.8,20.2
	c-0.3,5.9,0.7,11.9,0.9,17.8c0.3,8.1,2.7,15.8,5,23.5c3.4,11.2,7.4,22.3,11,33.5c1.9,5.6,3.9,11.3,5.1,17.1
	c1.6,7.4,2.8,14.9,3.9,22.4c0.9,6.6,1.7,13.2,2.1,19.8c0.3,3.9-0.2,7.9-0.5,11.9c-0.5,6.5-1.1,12.9-1.6,19.4
	c-0.7,8.9-1.5,17.8-2.2,26.6c-0.2,2.8-0.3,5.6-0.6,8.4c-0.9,9.9-1.8,19.8-0.5,29.7C46,427.7,47.8,431.4,50.6,434.3L50.6,434.3z
	 M151.5,136.5c0.7,1.5,1.4,3.1,2,4.6c2.1,6,4.6,12,6.2,18.1c1.3,4.9,1.8,10.1,2.2,15.1c0.3,5,0.8,10.2-0.2,15
	c-1.4,7.4-3.8,14.6-6.1,21.8c-2.4,7.4-3.3,14.9-2.5,22.7c1,9.2,3.1,18.3,6.1,27.1c2.2,6.2,5.1,12,11.8,14c4.7,1.4,9.8,1.7,14.8,2.1
	c2,0.1,3.9-0.5,5.5-1.7c4.1-3.2,8-6.7,11.6-10.5c2.8-3.1,4.9-6.9,5.8-11c1-4,2.4-8,4.2-11.8c2.8-5.9,7.4-10.8,13.6-12.8
	c6.9-2.2,14.1-0.9,20.4,3.1c2.8,2,6.4,2.6,9.8,1.9c-1.4-1.4-2.3-2.7-3.5-3.5c-6.3-3.7-13-5.7-20.6-5.1c-9.9,0.7-16.6,5.6-20.9,14.1
	c-3.3,6.5-5.7,13.5-8.9,20c-1.6,3.2-3.7,6.5-6.3,8.7c-4.8,4-10.9,5.5-17.2,4.8c-5.5-0.5-10.6-2.7-13.6-7.7c-5.1-8.5-7-18.1-8.1-27.8
	c-0.9-7.8,1-15.3,2.8-22.9c1.7-7,3.3-14.1,4.1-21.3c0.7-6.8,0.9-13.6,0.5-20.4c-0.2-4.4-0.9-8.7-2.1-12.9
	c-2.1-7.7-4.8-15.1-7.1-22.7C154.9,134.4,154.5,134.2,151.5,136.5L151.5,136.5z"/>
<path fill="none" d="M132.8,135.6c-9.8,0-19,0.1-28.1,0c-7.1-0.1-14.2-0.3-21.2-0.5c-8.1-0.3-16.3-0.6-24.4-1.1
	c-7.1-0.4-14.2-1.1-21.3-1.6c-4.3-0.3-8.5-0.4-12.7-0.5c-2.7-0.1-4.6-2.5-5.5-5.7c-1.9-6.9-1.7-13.9-2.1-20.9
	c-0.4-7.2-0.3-14.4,1.7-21.3c2.3-7.8,6.6-14.5,11.5-21s9.4-13.4,14.1-20.2c6.2-9,13.3-17.2,22.9-22.9c2.8-1.7,6.3-2.4,9.5-3.4
	c3.6-1.3,7.1-2.9,10.8-3.7c5.6-1.3,11.4-2,17.1-2.8c7.8-1.1,14.8,1.4,20.9,6.1c3.7,2.8,7.5,5.7,10.7,9.1c6.8,7.2,12.9,15,16.2,24.4
	c1.9,5.2,2.7,10.8,4,16.3c1.4,5.7,2.8,11.4,4,17.2c0.9,4.7,1.4,9.6,2.1,14.3c0.9,6,2.1,12,2.6,18c0.3,3.8,0.3,8-1.2,11.4
	c-1.1,2.5-4.6,4.8-7.5,5.5C148.7,134.1,140.6,136.2,132.8,135.6L132.8,135.6z M46.3,54.1c0.2,1.4,0.4,2.7,0.8,4
	c1.1,3.2,3.7,4.7,6.8,5.3c2.5,0.5,4.3-1,5.4-2.9c1-1.8,1.3-4,1.9-6c0.7-2.1,1.4-4.4,2.5-6.3c1.5-2.8,3.9-5.2,5.1-8.1
	c0.7-1.5,0.1-3.9-0.7-5.4c-1.1-2-3.2-3.8-5.6-2.8c-2.6,1.1-5.6,2.6-7.2,4.8c-3,4.3-5.3,9.2-7.8,13.9C47,51.8,46.6,52.9,46.3,54.1z
	 M79.8,21.9c-1.7,1-4.9,2.3-7.1,4.5c-1.3,1.3-2,4.6-1.1,6.1c0.9,1.6,3.8,2.7,5.9,2.9c3.7,0.3,8-3.4,9-6.9
	C87.5,24.7,85.4,21.9,79.8,21.9L79.8,21.9z M83.7,47.4c0.2-2.4-1.8-3.7-3.6-4c-2.9-0.5-6.1-3.2-8.9,0.2C71,43.8,71,44,70.9,44.1
	c-0.7,2.2-1.4,4.3-2,6.5c-0.6,2.4,0.8,4.6,3,5.7C76,58.4,83.3,53,83.7,47.4z M96.2,494.5c0.6-5.3,1.3-9.8,1.6-14.4
	c0.2-2.8,0.1-5.7-0.2-8.5c-0.9-8.2-3.9-15.8-6.7-23.5c-2.8-7.6-5.5-15.5-4.5-23.8c0.6-5.6,1-11.3,2.5-16.7c3-11,6.7-21.9,9.7-33
	c1.4-5.1,2.4-10.4,3-15.7c1.7-15.6-3-30.2-8.1-44.6c-3.2-8.8-6.3-17.7-6.5-27.2c-0.2-8.6-0.5-17.4,0.7-25.9
	c1.9-13.5-0.6-26.1-4.9-38.7c-5.1-14.8-10.4-29.5-15.5-44.3c-2.2-6.5-3.9-13.2-3.8-20.2c0.1-6,0.3-12,0.5-18
	c0.1-2.7,1.4-3.7,3.8-3.2c2.2,0.5,3.1,1.4,2.5,4.2c-1.1,4.7-1.7,9.6-1.7,14.4c-0.1,11.7,2.8,22.7,7.4,33.5
	c4.6,10.7,8.3,21.8,12,32.8c2.2,6.6,4.3,13.5,5.4,20.3c0.8,5-0.1,10.3-0.5,15.4c-0.2,3.2-1.1,6.3-1.4,9.5
	c-0.4,6.8-1.1,13.7-0.4,20.3c0.8,7.5,2.6,14.9,4.5,22.2c3.3,12.9,7.1,25.7,10.7,38.6c2.6,9,1.4,17.6-2,26.2
	c-2.6,6.6-4.7,13.4-6.8,20.2c-2,6.5-3.9,12.9-5.6,19.5c-0.7,2.5-0.6,5.1-1,7.7c-1.6,10.1,0.7,19.5,3.9,28.9
	c2.9,8.3,4.8,16.8,4.9,25.7c0.1,3.1,1,6.2,1,9.4c0,3.3-0.6,6.6-1,9.9c-0.1,0.8-0.9,1.5-1.3,2.2c-0.7-0.7-1.3-1.5-1.9-2.4
	C96.1,494.8,96.2,494.2,96.2,494.5L96.2,494.5z"/>
<path fill="none" d="M116.7,436.8c-2.2-1.6-2.2-4.3-2.5-6.7c-0.6-4.7-1.6-9.5-1.4-14.2c0.3-6.9,2.4-13.4,4.9-19.9
	c2.4-6.1,4.3-12.5,5.6-18.9c1.2-6-0.3-11.9-2-17.8c-1.5-5.2-2.7-10.6-3-16c-0.3-6.4,0.7-12.9,0.7-19.2c0.1-4.5-0.8-8.9-2.7-13
	c-3.2-6.7-6.6-13.3-9.2-20.2c-2.9-7.5-3-15.5-1.7-23.5c1.3-7.4,2.2-15,2.2-22.5c0-11.6-2.4-22.8-7.7-33.4
	c-3.8-7.5-6.8-15.5-9.8-23.4c-1.1-3.2-1.4-6.8-1.5-10.3c-0.3-8.4-0.2-16.9-0.7-25.3c-0.3-3.8-1.8-7.6-2.8-11.3
	c-0.4-1-0.9-2.1-1.4-3.1c0.1-0.1,0.3-0.2,0.4-0.3c6-0.5,7,0.1,7.7,7.6c0.8,8.5,0.7,17.2,1.3,25.8c0.7,10.5,3.6,20.8,8.4,30.2
	c3.2,6.5,5.2,13.6,7.4,20.6c1.4,4.8,2.1,9.7,3,14.7c0.4,1.9,0.7,3.9,0.8,5.9c0.1,6.8,0.5,13.6,0,20.3c-1,12.4-1.7,24.7,2.4,36.8
	c2.4,7.3,4.3,14.7,5.6,22.2c1,5.4,1.6,10.7,0.2,16.4c-0.9,3.4,0.6,7.5,1.5,11.2c1.1,4.8,2.8,9.4,4.2,14.1c1.8,6,1.6,12.5-0.5,18.4
	c-2.7,7.4-5.1,14.8-8.1,22c-2.6,6.2-2.5,12.4-1.3,18.8c0.8,4.5,0.9,9.2,1.2,13.8L116.7,436.8L116.7,436.8z M163,446.9
	c0-1-0.3-2.2,0.1-3.1c3.3-7.2,1.3-14.1-1.3-20.8c-2.5-6.3-5.6-12.3-8.1-18.6c-1.6-4.2-1.2-8.7-0.8-13.3c1.1-10.9,4.6-21.2,6.6-31.9
	c1.2-6.8,1.5-13.8,1.7-20.7c0.3-11.2-4.2-21.1-9.5-30.6c-4.4-7.8-7.2-16.1-10.1-24.4c-2.5-6.8-3.2-13.7-3.3-20.8
	c-0.3-10.1,1.4-19.9,3.3-29.7c1-5.5,1.7-10.9,2.2-16.5c0.7-7.5-2.3-14.3-4.8-21.3c-3.6-9.8-7.3-19.7-6.6-30.4
	c0.4-7.5,1.9-14.9,4.3-22c0.2-0.6,0.4-1.2,0.5-1.8c1-3.8,1.4-4,5.7-3.7c-0.5,2.5-0.7,5-1.5,7.2c-3.6,10-4.7,20.2-4.2,30.8
	c0.3,6.1,2.3,11.8,4.5,17.5c1.9,4.8,3.5,9.7,4.9,14.7c1.3,4.5,1,9.1,0.3,13.8c-1.3,9.3-4,18.3-5,27.7c-1.4,15.1,1.6,29.2,7.3,42.9
	c3.2,7.7,6.6,15.4,9.4,23.3c2.3,6.3,4,12.7,5.2,19.3c1,6.4,0.8,12.9-0.6,19.2c-2.6,11.9-5.2,23.8-7.2,35.9c-0.7,3.8,0.1,8.1,1.2,12
	c1.9,6.4,4.6,12.5,6.7,18.8c1.6,4.8,3.4,9.7,3.6,14.7c0.2,4,0.2,8.9-3.8,12L163,446.9L163,446.9z M70.5,397
	c-1.9-0.1-2.3-1.7-2.1-3.2c0.8-4.8,1.5-9.5,2.7-14.2c2.5-8.9,5.8-17.6,7.8-26.6c1.1-5.1,0.4-10.7,0.1-16.1
	c-0.7-9.6-5.9-17.7-9.2-26.4c-2.3-6.1-3.8-12.5-3.7-19.1c0.3-9.2,0.7-18.5,1.1-27.7c0.4-8.7-3-16.6-5.6-24.7
	c-3.4-10.5-11.2-18.4-16.3-27.8c-3.1-5.5-4.7-11.6-3.3-18c1.6-7.9,3.9-15.8,4.8-23.8c0.8-7.4,0.4-15,0.2-22.5
	c-0.1-3.3-1-6.7-1.5-10.1c-0.1-0.5,0.7-1.2,1.1-1.8c1,0.7,2.5,1.1,3,2.1c0.7,1.3,0.5,3,0.7,4.5c0.2,2.4,0.4,4.6,0.6,7
	c0.2,2.4,0.5,4.9,0.5,7.3c-0.1,4-0.7,8.1-0.8,12.1c-0.2,7.6-3.8,14.6-4.3,22c-0.4,6,1.4,12.2,2.7,18.2c1.3,6.2,5.8,10.8,9.6,15.6
	c6.2,8,9.3,17.2,11.4,26.8c1.1,5.1,1.6,10.3,1.6,15.5c0,6-0.5,11.9-1.7,17.7c-1.7,8.5-0.5,16.4,2.8,24.3c4.1,9.8,7.7,19.9,10.7,30.1
	c1.7,6,1.4,12.5-0.7,18.6c-2.4,7.1-5,14.1-7.2,21.2C73.6,384.2,72.2,390.5,70.5,397L70.5,397z M109.9,138.7c2.1-0.1,4-0.4,5.9-0.2
	c0.7,0.1,1.6,1.3,1.7,2c1.4,8.2,2.9,16.4,3.8,24.6c1.6,13.7,2.4,27.4,2.4,41.1c-0.1,4.5,0.9,9.1,1.8,13.6c2,10,4,19.9,6.3,29.8
	c2.3,10.4,0.9,20.7-1.9,30.6c-2.4,8.5-1,16,2.5,23.6c3.4,7.4,6.9,14.7,10,22.2c1.5,4.1,2.6,8.4,3,12.7c1,8.2,1.8,16.5,2.2,24.7
	c0.3,6.7-1.4,13.1-3.8,19.3c-1.6,4.1-2.4,8.5-3.4,12.8c-1.4-0.4-2.5-2.7-1.7-5.3c1.5-5.3,3.1-10.6,4.6-15.9c2.1-6.8,3-13.7,1.3-20.9
	c-2.1-9-3.7-18.2-6.2-27.1c-1.3-4.5-4-8.7-6.1-13c-4-7.8-6.9-15.9-8.1-24.8c-0.8-6.1,1.9-10.9,3.3-16.3c2-7.7,1.6-15.1,0.9-22.9
	c-1-10.4-5.3-20-7.1-30.1c-0.9-5-1.5-10.1-1.9-15.2c-0.4-9.1-0.3-18.3-0.7-27.5c-0.2-6.6-1.6-12.9-3.6-19.1
	C113.3,151.5,111.7,145.5,109.9,138.7L109.9,138.7z M50.6,434.3c-2.8-2.8-4.6-6.5-5.2-10.5c-1.4-9.9-0.4-19.9,0.5-29.7
	c0.3-2.8,0.4-5.6,0.6-8.4c0.7-8.9,1.4-17.8,2.2-26.6c0.5-6.5,1.1-12.9,1.6-19.4c0.3-3.9,0.7-8,0.5-11.9c-0.4-6.6-1.1-13.2-2.1-19.8
	c-1.1-7.5-2.2-15-3.9-22.4c-1.3-5.8-3.3-11.4-5.1-17.1c-3.7-11.2-7.7-22.2-11-33.5c-2.4-7.7-4.8-15.3-5-23.5
	c-0.2-6-1.2-11.9-0.9-17.8c0.4-6.8,1.6-13.5,2.8-20.2c1.7-9.2,2.3-18.6,1.9-28c-0.2-3.3-0.9-6.5-1.5-10.6c1.6-0.1,3.4-0.3,5.1-0.2
	c0.5,0.1,1.2,1.4,1.3,2.2c0.5,7.1-0.7,13.9-2.2,20.8c-2.1,9.5-4.4,18.9-5.7,28.5c-0.7,5.5,0.4,11.2,0.7,16.7
	c0.1,0.7,0.2,1.4,0.2,2.1c-0.4,7.4,1,14.5,3,21.5c3.3,12.1,7.8,23.9,13.2,35.2c4,8.6,6.8,17.8,8.4,27.1c1.5,8.5,3,17,3.6,25.5
	c0.8,11.3,1,22.7,0.7,34.1c-0.2,6.4-2,12.7-2.9,19c-0.6,4.1-0.9,8.2-1.3,12.3c-0.8,7.8-1.9,15.6-2.1,23.4
	c-0.2,8.3-1.4,16.8,2.7,24.8c0.9,1.7,0.8,3.9,1.2,5.9L50.6,434.3L50.6,434.3z"/>
<path fill="none" d="M151.5,136.5c3.1-2.4,3.4-2.2,4.4,1.3c2.3,7.6,4.9,15,7.1,22.7c1.2,4.2,1.9,8.5,2.1,12.9
	c0.3,6.8,0.1,13.6-0.5,20.4c-0.8,7.2-2.4,14.2-4.1,21.3c-1.8,7.5-3.7,15.1-2.8,22.9c1.1,9.7,3,19.2,8.1,27.8c3,4.9,8,7.1,13.6,7.7
	c6.2,0.7,12.3-0.8,17.2-4.8c2.7-2.2,4.8-5.5,6.3-8.7c3.2-6.6,5.6-13.5,8.9-20c4.2-8.5,10.9-13.3,20.9-14.1
	c7.6-0.5,14.2,1.4,20.6,5.1c1.3,0.7,2.1,2.1,3.5,3.5c-3.4,0.8-6.9,0.1-9.8-1.9c-6.3-4-13.4-5.3-20.4-3.1c-6.2,2-10.8,6.8-13.6,12.8
	c-1.8,3.8-3.2,7.7-4.2,11.8c-0.9,4.1-3,7.9-5.8,11c-3.7,3.8-7.5,7.3-11.6,10.5c-1.6,1.2-3.5,1.8-5.5,1.7c-5-0.4-10.1-0.7-14.8-2.1
	c-6.7-2-9.6-7.8-11.8-14c-3.1-8.7-5.1-17.8-6.1-27.1c-0.9-7.9,0.1-15.3,2.5-22.7c2.3-7.2,4.7-14.4,6.1-21.8c0.9-4.8,0.5-10,0.2-15
	c-0.3-5.1-0.9-10.2-2.2-15.1c-1.6-6.2-4-12.1-6.2-18.1C152.8,139.6,152.1,138.1,151.5,136.5L151.5,136.5z"/>
<path fill="#FFC107" d="M46.3,54.1c0.3-1.2,0.7-2.4,1.2-3.5c2.5-4.7,4.8-9.6,7.9-14c1.6-2.2,4.5-3.7,7.2-4.8c2.4-1,4.5,0.9,5.6,2.8
	c0.8,1.5,1.3,3.9,0.7,5.4c-1.3,2.9-3.6,5.3-5.1,8.1c-1.1,2-1.7,4.2-2.5,6.3c-0.7,2-0.9,4.2-1.9,6c-1,1.9-2.9,3.4-5.4,2.9
	c-3.2-0.6-5.7-2.1-6.8-5.3C46.8,56.8,46.5,55.5,46.3,54.1L46.3,54.1z M67.2,37.5c-0.5-2.7-2.2-4.6-3.8-3.7c-2,1.1-4.2,2.4-5.4,4.2
	c-2.8,4.5-5.5,9.1-7.9,13.9c-0.7,1.4-1.3,3.3-0.8,4.6c0.7,1.9,1.9,3.4,3.5,4.6c1.5,1.1,2.9-0.3,3.8-1.6c0.8-1,1.6-2.2,1.7-3.4
	c0.4-5.1,1.9-9.5,5.9-13.1C65.7,41.6,66.3,39.3,67.2,37.5z M79.8,21.9c5.6,0,7.7,2.8,6.6,6.6c-1,3.5-5.4,7.2-9,6.9
	c-2.1-0.2-5-1.3-5.9-2.9c-0.8-1.5-0.1-4.9,1.1-6.1C74.9,24.2,78.1,22.9,79.8,21.9L79.8,21.9z M77.1,33.4c3.1,0.1,6.9-3.6,7.2-6.6
	c0.1-1.6-0.7-2.6-2.1-2.4c-2.9,0.4-5.5,1.7-6.8,4.5C74.1,31.4,74.9,33.3,77.1,33.4L77.1,33.4z M83.7,47.4c-0.4,5.6-7.7,11-11.8,8.9
	c-2.1-1.1-3.6-3.3-3-5.7c0.5-2.2,1.3-4.3,2-6.5c0.1-0.2,0.1-0.3,0.2-0.5c2.8-3.3,6-0.7,8.9-0.2C81.9,43.7,83.9,45,83.7,47.4z
	 M76,43.7c-1.1,0.7-2.7,1.1-3.1,2c-0.9,2.3-1.4,4.7-1.7,7.2c-0.1,0.5,1.2,1.7,1.9,1.7c2.6,0.1,5.1-1.2,6.5-3.4c0.9-1.4,2-3.8,1.4-5
	C80.4,45,77.9,44.6,76,43.7z"/>
<path fill="none" d="M67.2,37.5c-0.9,1.9-1.5,4.2-2.9,5.5c-4,3.6-5.4,8-5.9,13.1c-0.1,1.2-1,2.4-1.7,3.4c-0.9,1.3-2.4,2.6-3.8,1.6
	c-1.6-1.1-2.8-2.7-3.5-4.6c-0.4-1.3,0.1-3.2,0.8-4.6c2.4-4.8,5-9.4,7.9-13.9c1.2-1.8,3.4-3.1,5.4-4.2C65,32.8,66.7,34.7,67.2,37.5z
	 M77.1,33.4c-2.1-0.1-3-1.9-1.8-4.4c1.3-2.8,3.9-4.1,6.8-4.5c1.4-0.2,2.2,0.8,2.1,2.4C84,29.8,80.1,33.4,77.1,33.4L77.1,33.4z
	 M76,43.7c2,0.9,4.4,1.1,5,2.4c0.6,1.1-0.5,3.5-1.4,5c-1.4,2.2-3.9,3.6-6.5,3.4c-0.7-0.1-2-1.3-1.9-1.7c0.3-2.5,0.9-4.8,1.7-7.2
	C73.3,44.8,74.8,44.5,76,43.7z"/>
</svg>
