<svg xmlns="http://www.w3.org/2000/svg" viewBox="0 0 265.2 506.9"><title>jelly</title><path fill="none" d="M0 0h265.2v506.9H0V0zm118.9 138.5c5.5-.2 10.3-.5 15-.7 1.4-.1 2.5.2 2 2.1-2 7.3-4.9 14.4-4.9 22.1 0 4.1-1 8.3-.2 12.2 1.7 7.6 4.4 15 6.6 22.5 1.4 4.7 3.3 9.3 4 14.1 1.1 8.1-1 16.1-2.2 24.1-1 6.1-2.4 12.1-3 18.2-.5 5.4-.2 10.8-.1 16.2.1 2.1.3 4.3.9 6.3 1.2 4.3 2.5 8.5 4 12.7 2.2 6.1 4.5 12.2 7.3 18 3.9 8.5 9.7 16.4 9.7 26.4 0 6.6.8 13.3-.2 19.7-1.8 11.9-4.5 23.6-7.1 35.4-1.4 6.8-1.7 13.7 1.1 20.1 2.9 6.5 6.6 12.6 8.5 19.5 1.4 4.8 2.2 9.6.5 14.5-.5 1.4-.9 3.1-.7 4.4.3 1.3 1.4 3.1 2.4 3.3 1.2.3 3.2-.5 4-1.5 1.3-1.7 2-3.9 2.8-6 3-7.2 2.2-14.1-1.1-20.9-1.9-3.8-3.8-7.6-5.6-11.5-3.4-7.3-3.8-15.2-3.1-23 .9-10.3 5.9-19.9 6.1-30.4.1-5.7 3-11.3 1.5-17.2-2-8.2-3.5-16.6-6.1-24.6-3.2-9.7-7.4-19-11.1-28.6-3.7-9.7-6.6-19.7-6.3-30.3.1-2.4.3-4.9.5-7.3.4-3.6.8-7.1 1.4-10.7 1.3-7 3.2-13.9 3.9-21 .8-8.3-2.1-16-5.3-23.6-2.8-6.6-5.2-13.2-4.4-20.5.1-.5-.1-1.1-.1-1.6.1-4.6-.4-9.4.4-13.9 1-6.3 3-12.4 4.6-18.6.5-2 2.4-2.7 3.9-1.3.6.5 1.1 1.2 1.4 2 2.3 6.3 4.9 12.5 6.6 18.9 1.3 4.8 1.3 10 1.7 14.9 1 9.8 1.3 19.5-2.6 29-4.4 10.7-7.1 21.8-5.1 33.6 1.6 10 3.4 19.9 6.9 29.3 2.8 7.4 8.6 11.6 15.6 14.4 1.1.4 2.5.3 3.7.5 5.9.8 11.7.3 16.5-3.1 4.2-2.8 7.8-6.7 11.2-10.5 3.4-3.9 5.7-8.7 6.7-13.8.9-5 3.1-9.7 6.3-13.7 6.7-7.9 13.9-11.2 24.8-6.3 3.2 1.4 6.6 2.6 9.8 3.9 1.8.7 3.7.8 4.5-1.2.8-2-.3-3.7-2.1-4.8-5.1-3.3-10.4-5.5-16.6-6.2-5.9-.7-11.4-.1-16.5 2.1-6.8 3-10.9 8.8-13.9 15.5-2.7 6.2-5.4 12.4-8.2 18.5-2.5 5.5-6.3 8.9-12.5 10.3-8.5 1.9-13.6.8-18.4-6.5-2.7-4-4.5-8.9-6-13.6-3.1-10-3.2-20.1-1-30.3 2-9.4 4-18.8 5.5-28.3 1.6-10.4 1.1-21.2-1.6-31.4-2.1-7.8-5-15.4-7.7-23-.7-2-.5-3 1.6-4 3.1-1.6 6.8-3.3 7.4-7.1.8-4.6.9-9.4.5-14-.5-5.9-2-11.8-3-17.7-.9-5.5-1.5-11-2.6-16.4-1.1-5.3-3-10.4-3.9-15.8-2-10.8-5.2-20.9-12.4-29.7-6.4-7.9-13.2-15-22.2-20.2-8.4-4.9-17-4.8-25.9-3.4-5.9.9-11.6 2.4-17.3 4.3-6.2 2.1-12.6 4.3-18.1 7.7-7.7 4.8-13.3 12-18.4 19.4C36.7 50 30 59.8 23.3 69.6c-4.5 6.6-7.2 14.3-7.7 22.2-.3 5.9-.2 11.7 0 17.6.1 5.3.5 10.6 1.1 15.9.5 3.4 1.9 6.6 5.1 8.7.9.6 1.5 1.5 1.7 2.6.5 5.5 1.1 10.9 1.1 16.4-.1 5.6-.5 11.2-1.4 16.6-1.5 9.5-3.3 18.9-3.3 28.5 0 3.9.2 7.8.5 11.6.3 3.4.5 6.8 1.5 10.1 4 13.7 8.2 27.2 12.4 40.8 2.4 7.7 5 15.2 7 23 1.7 6.7 2.7 13.7 3.8 20.5 1.1 7.3 2.5 14.6 2.5 21.9 0 9.1-1.3 18.3-2 27.5-.7 8.5-1.5 17-2.2 25.5-.7 8.5-1.4 17.1-1.6 25.6-.2 6.5.1 13.1.5 19.6.2 4.6 2.4 9 6.1 11.8.9.7 2.8.9 4 .4.9-.3 1.7-2 1.7-3-.1-2.2-.2-4.6-1.1-6.6-3.9-8.4-3.1-17.2-2.6-26 .5-8.3 1.4-16.5 2.1-24.7.4-3.7.9-7.5 1.4-11.2.8-6.6 1.9-13.1 2.4-19.7.3-4.6-.2-9.2-.4-13.8-.5-8.5-.9-17-1.7-25.4-.5-5.5-1-11.1-2.2-16.5-1.6-7.2-3.3-14.4-6.1-21.3-5.3-13.1-11.9-25.8-15.2-39.6-1.5-6.4-3.3-12.8-4.2-19.3-.8-6.2-1-12.5-.5-18.7.9-7.6 2.4-15.3 3.8-22.9 2-10.3 5.4-20.2 5.2-30.9 0-.6.9-1.8 1.4-1.8 2.1 0 4.3.2 6.4.5.7.3 1.2.9 1.4 1.6.7 5.5 1.5 11 1.6 16.6.1 11-2 21.7-5.1 32.2-2 6.4-2.6 13.2-.2 19.6 1.9 5 4.8 9.7 7.5 14.4 2.5 4.2 5.9 7.8 7.9 12.1 2.8 6.1 4.9 12.6 6.8 19.1 1.3 4 2 8.1 2.1 12.4 0 5.5-1.3 11-1.4 16.6-.2 6.2.1 12.3.5 18.5.3 3.4 1.3 6.8 2.2 10.1 3 9.8 9.2 18.6 9.9 29.2.3 4.6.9 9.5-.1 13.9-1.9 8.7-5 17.2-7.2 25.9-1.4 5.6-2.5 11.3-3.3 17.1-.3 2 .5 4.5 3.2 4.9 2.7.4 4.2-1.1 4.9-3.6.2-.5.4-1 .5-1.5 1.6-12.3 6.5-23.6 10.7-35.2 2.4-6.6 3.1-13.2 1.5-20-1.4-5.6-3-11.2-5-16.6-2.5-6.9-5.5-13.7-8.2-20.6-1.8-4.5-2.7-9.2-1.7-14.2 1-5.2 2-10.4 2.2-15.6.3-8.6.3-17.3-2-25.8-2.3-8.3-4.8-16.4-10.3-23.2-5.2-6.5-10.4-13-11.4-21.7-.4-4.3-1.7-8.7-1.1-12.9 1.2-7.4 4.2-14.5 4.4-22.3.2-7 .7-13.9-.2-20.9-.4-3.1-.8-6.1-1.3-9.7l11.2.8c.1 1.1.1 2.2 0 3.3-.9 6.5-2.3 13-1 19.5 1.3 6.9 2.1 14 4.2 20.7 3.9 12.2 8.7 24.1 13 36.1 3.4 9.6 6.8 19.2 7.3 29.5.4 7.8-.7 15.7-.9 23.6-.3 7-1.1 14.1-.3 21 1.1 10.6 4.9 20.6 8.6 30.5 3.5 9.2 5.5 18.9 5.9 28.7.4 9.8-1.6 19.2-4.8 28.4-3.1 9.2-6 18.6-8.5 28.1-2.4 8.6-3 17.6-2.5 26.5.2 2.3.6 4.6 1.3 6.8 2.5 7.9 5.2 15.7 7.6 23.6 2.4 7.8 3 15.7 1.4 23.8-.5 2.7-.9 5.5-1 8.4-.1 2.4 1.7 4.5 4 5 2.2.3 5.2-1.7 5.7-4 .5-3 1.1-6 1.1-9-.1-4.9-.5-9.7-1.1-14.5-.5-4.7-1.4-9.4-2.5-13.9-1.4-5.5-3.4-10.9-5.1-16.3-3-9.2-2.1-18.6-.8-27.9 1-6.5 2.5-12.9 4.4-19.2 2.4-7.8 5.4-15.4 8.4-23 2.2-5.6 3.7-11.4 2.5-17.1-2.2-10.9-5.4-21.8-8.1-32.6-2.5-10.1-5.2-20.1-7.6-30.2-1.8-7.7-.8-15.5-.5-23.2.2-4.2 1.2-8.3 1.5-12.5.4-4.6 1.1-9.4.4-13.8-1.2-7.1-3.3-14-5.4-20.9-2.2-7.2-4.7-14.2-7.3-21.2-2.9-7.8-6.1-15.4-9-23.1-4.2-10.7-3.7-21.9-2.6-33.1.7-6.9 1-6.9 8.3-6.8 1.7 0 2.9.5 3.3 2.1 1.1 4.1 2.7 8.2 3 12.4.5 7.2-.1 14.4.2 21.6.1 3.9.9 7.8 1.4 11.7 1.3 8.6 5.2 16.3 9.2 23.8 6.4 12 8.6 24.9 8.7 38.1.1 7.5-1.6 15.1-2.6 22.6-.8 6.5-1.3 13 1.1 19.2 2.6 6.5 5.6 12.7 8.4 19.1 2.2 4.9 4 9.7 3.6 15.2-.5 6.6-.7 13.3-.5 19.9.2 4.8 1.3 9.6 2.2 14.3.9 4.5 2.8 9 3 13.5.4 9-3 17.3-6.5 25.5-2.9 7-4.9 14.1-4.3 21.7.3 4.6.5 9.4 1.2 14 .4 3 1.5 5.9 4.8 7.3 2.7 1.1 4.9.2 4.9-2.7-.1-4.4-.4-8.8-.8-13.2-.4-4-1.6-7.9-1-12.2 1.3-7.7 5-14.4 7.4-21.7 2-6.1 4.6-12.1 4.3-18.7-.3-6.2-2.1-12.1-4.3-17.8-1.9-4.8-3.3-10-2.4-14.9 1.3-6.8.8-13.2-.8-19.7-2.1-9.3-4.9-18.4-7.1-27.7-1-4.2-1.6-8.5-1.6-12.7.1-5.7 1.2-11.4 1.4-17.2.3-9.7-.1-19.5-2.2-29-1.4-6.2-2.8-12.5-4.9-18.5-2.1-6.2-5-12.2-7.7-18.2-4.9-10.8-5.9-22.3-6-33.9 0-5.4.1-10.8-1.6-16.1-.7-2.3-.9-4.8-1.4-7.8 4.5.3 8.4.7 12.4.7 1.8 0 2.7.7 3.2 2.2 1.4 4.5 2.8 9 4 13.6 1.5 6.1 3.6 12.2 4 18.5.9 12 .9 24.1 1.3 36.1.1 2.5.4 5 .9 7.4 2.4 10.8 5 21.5 7.3 32.3 1.8 7.9 1.5 16.2-.8 24-1.6 5.4-3.8 10.6-3.2 16.6.9 9.4 4.1 17.8 8.9 25.8 2.4 4 4.4 8.4 5.9 12.9 3.1 9.2 4.6 18.8 5.7 28.5.8 6.8 0 13.7-2.5 20-2.1 5.3-4.2 10.7-3.7 16.6.2 2.6 2.6 5.4 4.8 5.2 2-.1 3.3-2.3 3.5-5 .2-2.5.3-5.1 1.3-7.3 3.3-7.3 5.1-14.9 5.1-22.9-.1-6.3-.8-12.6-1.6-18.8-.7-5.2-1.3-10.6-3.1-15.4-3.1-8.5-7.1-16.7-10.7-25-2.5-5.6-5-11.2-4.1-17.6.5-3.9 1.6-7.7 2.4-11.5 2-8.8 2-18 .1-26.8-1.7-8-3.6-16-5.2-24-1.9-9.7-2.8-19.6-2.7-29.5 0-2.6.2-5.1-.1-7.7-.7-7.7-1.3-15.4-2.1-23.1-.5-4.8-1.2-9.6-2-14.3-.3-3.7-1.1-7.2-1.9-10.9z"/><path fill="#FFC107" d="M118.9 138.5c.8 3.7 1.6 7.2 2.1 10.7.8 4.8 1.5 9.6 2 14.3.8 7.7 1.5 15.4 2.1 23.1.2 2.5.1 5.1.1 7.7-.1 9.9.8 19.8 2.7 29.5 1.6 8 3.5 16 5.2 24 1.9 8.8 1.9 18-.1 26.8-.8 3.8-1.9 7.6-2.4 11.5-.9 6.3 1.6 11.9 4.1 17.6 3.7 8.3 7.6 16.5 10.7 25 1.8 4.9 2.4 10.2 3.1 15.4.8 6.2 1.6 12.5 1.6 18.8.1 7.9-1.8 15.5-5.1 22.9-1 2.2-1.1 4.9-1.3 7.3-.2 2.8-1.5 5-3.5 5-2.2.1-4.6-2.7-4.8-5.2-.4-5.9 1.6-11.3 3.7-16.6 2.5-6.3 3.3-13.2 2.5-20-1.1-9.7-2.6-19.3-5.7-28.5-1.5-4.5-3.5-8.8-5.9-12.9-4.8-8-7.9-16.4-8.9-25.8-.6-6 1.6-11.2 3.2-16.6 2.3-7.8 2.6-16 .8-24-2.3-10.8-4.9-21.5-7.3-32.3-.5-2.5-.8-5-.9-7.4-.4-12-.4-24.1-1.3-36.1-.5-6.2-2.5-12.4-4-18.5-1.1-4.5-2.7-9-4-13.6-.5-1.6-1.4-2.2-3.2-2.2-3.9-.1-7.9-.4-12.4-.7.5 2.9.7 5.4 1.4 7.8 1.6 5.2 1.5 10.7 1.6 16.1.1 11.6 1.1 23.1 6 33.9 2.7 6 5.5 12 7.7 18.2 2.1 6 3.5 12.3 4.9 18.5 2.1 9.6 2.5 19.3 2.2 29-.2 5.7-1.4 11.4-1.4 17.2 0 4.3.5 8.6 1.6 12.7 2.2 9.2 4.9 18.4 7.1 27.7 1.5 6.5 2 13 .8 19.7-.9 4.9.5 10.1 2.4 14.9 2.3 5.7 4 11.6 4.3 17.8.3 6.6-2.2 12.6-4.3 18.7-2.4 7.2-6.1 14-7.4 21.7-.7 4.3.5 8.1 1 12.2.4 4.4.8 8.8.8 13.2 0 2.9-2.2 3.9-4.9 2.7-3.3-1.4-4.3-4.3-4.8-7.3-.7-4.6-.9-9.3-1.2-14-.5-7.6 1.4-14.7 4.3-21.7 3.4-8.1 6.8-16.5 6.5-25.5-.2-4.5-2.1-9-3-13.5-.9-4.8-2-9.5-2.2-14.3-.2-6.6 0-13.3.5-19.9.4-5.5-1.4-10.4-3.6-15.2-2.8-6.3-5.9-12.6-8.4-19.1-2.5-6.2-2-12.7-1.1-19.2 1-7.5 2.7-15.1 2.6-22.6-.2-13.2-2.4-26.1-8.7-38.1-4-7.5-8-15.2-9.2-23.8-.5-3.9-1.3-7.8-1.4-11.7-.2-7.2.3-14.4-.2-21.6-.3-4.2-1.9-8.3-3-12.4-.4-1.6-1.6-2.1-3.3-2.1-7.2-.1-7.6-.1-8.3 6.8-1 11.2-1.5 22.3 2.6 33.1 3 7.7 6.2 15.4 9.1 23.1 2.6 7 5.1 14.1 7.3 21.2 2.1 6.9 4.2 13.8 5.4 20.9.8 4.4 0 9.2-.4 13.8-.3 4.2-1.4 8.3-1.5 12.5-.3 7.7-1.3 15.5.5 23.2 2.4 10.1 5 20.2 7.6 30.2 2.7 10.9 5.8 21.7 8.1 32.6 1.2 5.7-.3 11.5-2.5 17.1-3 7.6-6 15.2-8.4 23-2 6.3-3.4 12.7-4.4 19.2-1.4 9.3-2.2 18.7.8 27.9 1.7 5.4 3.7 10.8 5.1 16.3 1.1 4.6 2 9.2 2.5 13.9.6 4.8 1 9.7 1.1 14.5.1 3-.5 6.1-1.1 9-.4 2.4-3.4 4.3-5.7 4-2.4-.4-4.1-2.6-4-5 .2-2.8.5-5.6 1-8.4 1.6-8.1.9-16-1.4-23.8-2.4-7.9-5.1-15.7-7.6-23.6-.7-2.2-1.1-4.5-1.3-6.8-.5-9 .1-17.9 2.5-26.5 2.6-9.4 5.4-18.8 8.5-28.1 3.1-9.2 5.2-18.6 4.8-28.4-.4-9.8-2.4-19.5-5.9-28.8-3.8-9.9-7.5-19.9-8.6-30.5-.7-6.9.1-14 .3-21 .3-7.9 1.3-15.7.9-23.6-.5-10.2-3.9-19.9-7.3-29.5-4.3-12.1-9.1-24-13-36.1-2.1-6.7-2.9-13.7-4.2-20.7-1.2-6.6.2-13 1-19.5.1-1.1.1-2.2 0-3.3l-11.1-.8c.5 3.6.9 6.6 1.3 9.7.9 6.9.3 13.9.2 20.9-.2 7.8-3.2 14.8-4.4 22.3-.7 4.1.6 8.5 1.1 12.9.9 8.7 6.2 15.3 11.4 21.7 5.5 6.9 8 15 10.3 23.3 2.4 8.5 2.4 17.2 2 25.8-.2 5.2-1.1 10.5-2.2 15.7-1 5-.1 9.6 1.7 14.2 2.7 6.8 5.7 13.6 8.2 20.6 2 5.4 3.7 10.9 5 16.6 1.6 6.7.9 13.5-1.5 20-4.1 11.5-9 22.9-10.7 35.2-.2.5-.3 1-.5 1.5-.7 2.5-2.2 4-4.9 3.6-2.6-.4-3.5-2.9-3.2-4.9.8-5.7 1.9-11.4 3.3-17.1 2.2-8.7 5.3-17.2 7.2-25.9 1-4.4.3-9.2.1-13.9-.7-10.6-6.9-19.4-9.9-29.2-1-3.3-2-6.7-2.2-10.1-.5-6.1-.7-12.3-.5-18.5.2-5.5 1.4-11.1 1.4-16.6-.1-4.2-.8-8.4-2.1-12.4-1.9-6.5-4-13-6.8-19.1-2-4.3-5.4-7.9-7.9-12.1-2.7-4.6-5.6-9.4-7.5-14.4-2.5-6.4-1.8-13.2.1-19.6 3.2-10.6 5.2-21.2 5.1-32.2-.1-5.5-1-11.1-1.6-16.6-.2-.7-.7-1.3-1.4-1.6-2.1-.4-4.3-.5-6.4-.5-.5 0-1.4 1.2-1.4 1.8.2 10.6-3.3 20.6-5.2 30.9-1.5 7.7-2.8 15.3-3.4 23-.5 6.2-.3 12.5.5 18.7.8 6.5 2.6 12.9 4.2 19.3 3.4 13.8 9.9 26.5 15.2 39.6 2.7 6.8 4.4 14.1 6.1 21.3 1.1 5.6 1.7 11.2 2.2 16.6.7 8.4 1.2 16.9 1.7 25.4.3 4.6.8 9.2.4 13.8-.4 6.6-1.5 13.2-2.4 19.7-.4 3.7-1 7.4-1.4 11.2-.8 8.3-1.6 16.5-2.1 24.7-.5 8.7-1.4 17.6 2.6 26 .9 1.9 1.1 4.3 1.1 6.6 0 1-.9 2.7-1.7 3-1.1.4-3.1.3-4-.4-3.7-2.9-5.9-7.2-6.1-11.8-.4-6.5-.7-13.1-.5-19.6.3-8.5 1-17.1 1.6-25.6.6-8.6 1.5-17 2.2-25.5.8-9.1 2-18.3 2-27.5 0-7.3-1.4-14.6-2.5-21.9-1-6.9-2.1-13.8-3.8-20.5-2-7.8-4.6-15.3-7-23-4.2-13.6-8.4-27.2-12.4-40.8-.9-3.2-1.2-6.7-1.5-10.1-.3-3.9-.5-7.8-.5-11.6.1-9.6 1.9-19.1 3.3-28.5.9-5.5 1.4-11 1.4-16.6.1-5.5-.5-10.9-1.1-16.4-.2-1.1-.8-2-1.7-2.7-3.3-2-4.6-5.3-5.1-8.7-.7-5.2-1.1-10.6-1.1-15.9-.2-5.9-.3-11.7 0-17.6.4-8 3.1-15.6 7.7-22.2 6.3-9.8 13-19.6 19.7-29.3 5.2-7.4 10.8-14.7 18.4-19.4 5.5-3.4 11.9-5.6 18.1-7.7 5.6-1.9 11.4-3.3 17.3-4.3 8.9-1.4 17.4-1.4 25.9 3.4 9 5.2 15.8 12.3 22.2 20.2 7.1 8.7 10.4 18.9 12.4 29.7 1 5.3 2.8 10.5 3.9 15.8 1.1 5.4 1.7 10.9 2.6 16.4 1 5.9 2.4 11.8 3 17.7.4 4.6.2 9.4-.5 14-.6 3.8-4.3 5.5-7.4 7.1-2.1 1-2.3 2-1.6 4 2.7 7.7 5.6 15.2 7.7 23 2.7 10.2 3.3 20.9 1.6 31.4-1.4 9.5-3.5 18.9-5.5 28.3-2.2 10.2-2.1 20.3 1 30.3 1.5 4.7 3.3 9.5 6 13.6 4.9 7.3 10 8.4 18.4 6.5 6.1-1.4 10-4.9 12.5-10.3 2.8-6.2 5.5-12.4 8.2-18.5 3-6.7 7.1-12.5 13.9-15.5 5.1-2.2 10.7-2.7 16.5-2.1 6.2.7 11.5 2.9 16.6 6.2 1.8 1.2 3 2.7 2.1 4.8-.9 2.1-2.7 1.9-4.5 1.2-3.3-1.3-6.6-2.5-9.8-3.9-10.9-4.8-18.1-1.6-24.8 6.3-3.2 3.9-5.4 8.6-6.3 13.7-1 5.1-3.3 9.9-6.7 13.8-3.4 3.8-7 7.7-11.2 10.5-4.8 3.3-10.7 3.9-16.5 3.1-1.3-.2-2.6-.1-3.7-.5-7-2.8-12.8-7-15.6-14.4-3.6-9.5-5.3-19.4-6.9-29.3-2-11.8.8-22.9 5.1-33.6 3.9-9.5 3.6-19.1 2.6-29-.5-5-.5-10.1-1.7-14.9-1.7-6.5-4.3-12.6-6.6-18.9-.3-.8-.8-1.4-1.4-2-1.5-1.4-3.4-.7-3.9 1.3-1.6 6.2-3.6 12.4-4.6 18.6-.8 4.5-.3 9.3-.4 13.9 0 .5.1 1.1.1 1.6-.8 7.3 1.6 13.9 4.4 20.5 3.2 7.5 6.1 15.3 5.3 23.6-.7 7.1-2.6 14-3.9 21-.6 3.5-1 7.1-1.4 10.7-.3 2.4-.5 4.9-.5 7.3-.2 10.6 2.6 20.5 6.3 30.3 3.7 9.6 7.9 18.9 11.1 28.6 2.6 8 4.1 16.4 6.1 24.6 1.5 5.9-1.4 11.5-1.5 17.2-.2 10.6-5.2 20.1-6.1 30.4-.7 7.8-.3 15.7 3.1 23 1.8 3.9 3.8 7.7 5.6 11.5 3.3 6.8 4.1 13.8 1.1 20.9-.9 2-1.5 4.3-2.8 6-.8 1-2.8 1.8-4 1.5-1-.3-2.1-2-2.4-3.3-.3-1.4.2-3 .7-4.4 1.6-4.9.8-9.7-.5-14.5-2-6.9-5.6-13-8.5-19.5-2.8-6.4-2.6-13.2-1.1-20.1 2.5-11.8 5.2-23.5 7.1-35.4 1-6.5.2-13.1.2-19.7 0-10-5.7-17.8-9.7-26.4-2.7-5.9-5-12-7.3-18-1.5-4.2-2.8-8.4-4-12.7-.5-2.1-.9-4.2-.9-6.3-.1-5.4-.4-10.8.1-16.2.6-6.1 2-12.1 3-18.2 1.3-8 3.3-16 2.2-24.1-.7-4.8-2.6-9.4-4-14.1-2.2-7.5-4.9-14.9-6.6-22.5-.9-3.8.2-8.1.2-12.2 0-7.8 2.9-14.9 4.9-22.1.5-2-.5-2.2-2-2.1-5.2.3-10 .5-15.5.8zm13.9-2.9c7.8.6 15.9-1.5 24-3.5 2.8-.7 6.3-3 7.5-5.5 1.5-3.3 1.5-7.6 1.2-11.4-.4-6-1.7-12-2.6-18-.7-4.8-1.1-9.6-2.1-14.3-1.1-5.7-2.6-11.4-4-17.2-1.3-5.5-2.2-11-4-16.3-3.3-9.5-9.4-17.2-16.2-24.4-3.2-3.4-6.9-6.3-10.7-9.1-6.2-4.6-13.1-7.1-20.9-6.1-5.7.8-11.5 1.6-17.1 2.8-3.7.8-7.2 2.5-10.8 3.7-3.2 1.1-6.6 1.7-9.5 3.4-9.5 5.7-16.5 13.9-22.7 22.9-4.6 6.8-9.1 13.7-14.1 20.2s-9.2 13.2-11.5 21c-2.1 6.9-2.1 14.1-1.7 21.3.4 7 .3 14 2.1 20.9.9 3.2 2.7 5.6 5.5 5.7 4.3.2 8.5.3 12.7.5 7.1.5 14.2 1.1 21.3 1.6 8.1.5 16.3.8 24.4 1.1 7.1.3 14.2.5 21.2.5 9.1.3 18.2.2 28 .2zM96.2 494.5c0-.3-.2.4.1.8.5.8 1.2 1.6 1.9 2.4.4-.8 1.2-1.5 1.3-2.2.5-3.3 1-6.6 1-9.9 0-3.1-.9-6.2-1-9.4-.1-8.9-1.9-17.4-4.9-25.7-3.3-9.4-5.5-18.9-3.9-28.9.4-2.6.4-5.2 1-7.7 1.7-6.5 3.6-13 5.6-19.5 2.1-6.8 4.2-13.6 6.8-20.2 3.4-8.6 4.6-17.2 2-26.2-3.7-12.8-7.4-25.6-10.7-38.6-1.9-7.3-3.8-14.7-4.5-22.2-.7-6.7.1-13.6.4-20.3.2-3.2 1.1-6.3 1.4-9.5.4-5.1 1.3-10.4.5-15.4-1-6.9-3.1-13.7-5.4-20.3-3.7-11-7.4-22.1-12-32.8-4.7-10.8-7.5-21.8-7.5-33.5.1-4.9.7-9.7 1.8-14.4.7-2.8-.2-3.7-2.5-4.2-2.4-.5-3.6.4-3.8 3.2-.3 6-.5 12-.5 18-.1 6.9 1.6 13.7 3.8 20.2 5.1 14.8 10.4 29.5 15.5 44.3 4.3 12.5 6.8 25.2 4.9 38.7-1.2 8.5-.8 17.3-.7 25.9.2 9.5 3.3 18.4 6.5 27.2 5.2 14.4 9.9 29 8.1 44.6-.6 5.3-1.6 10.6-3 15.7-3.1 11-6.8 21.9-9.7 33-1.4 5.4-1.9 11.1-2.5 16.7-.9 8.4 1.7 16.2 4.5 23.8 2.8 7.7 5.8 15.3 6.7 23.5.3 2.8.4 5.6.2 8.5 0 4.5-.7 9.1-1.4 14.4zm20.5-57.7l1.1-.3c-.4-4.6-.4-9.3-1.2-13.8-1.2-6.5-1.4-12.6 1.3-18.8 3-7.2 5.4-14.7 8.1-22 2.1-5.9 2.3-12.4.5-18.4-1.4-4.7-3-9.3-4.2-14.1-.9-3.7-2.4-7.8-1.5-11.2 1.5-5.7.9-11-.2-16.4-1.4-7.5-3.3-14.9-5.6-22.2-4.1-12.1-3.3-24.4-2.4-36.8.5-6.7.1-13.5 0-20.3-.1-2-.4-3.9-.8-5.9-.9-4.9-1.6-9.9-3-14.7-2.1-6.9-4.2-14.1-7.4-20.6-4.8-9.4-7.7-19.7-8.4-30.2-.5-8.6-.4-17.2-1.3-25.8-.7-7.5-1.7-8.2-7.7-7.6-.2.1-.3.2-.4.3.5 1 1 2 1.4 3.1 1 3.8 2.6 7.5 2.8 11.3.6 8.4.4 16.9.7 25.3.2 3.4.3 7.1 1.5 10.3 2.9 7.9 6 15.9 9.8 23.4 5.4 10.6 7.7 21.8 7.7 33.4 0 7.5-1 15.1-2.2 22.5-1.4 8.1-1.2 16 1.7 23.5 2.6 6.9 6 13.6 9.2 20.2 1.9 4 2.8 8.5 2.7 13-.1 6.5-1 12.9-.7 19.2.3 5.4 1.5 10.8 3 16 1.7 5.9 3.2 11.8 2 17.8-1.4 6.5-3.2 12.7-5.6 18.9-2.5 6.5-4.6 13-4.9 19.9-.2 4.7.8 9.5 1.4 14.2.4 2.4.4 5.1 2.6 6.8zm46.3 10.1l.8.2c3.9-3.1 3.9-7.9 3.8-12-.2-4.9-2.1-9.8-3.6-14.7-2.1-6.3-4.9-12.4-6.7-18.8-1.1-3.8-1.9-8.1-1.2-12 2-12 4.6-24 7.2-35.9 1.4-6.3 1.6-12.9.6-19.2-1.2-6.6-2.9-13-5.2-19.3-2.7-7.9-6.1-15.5-9.3-23.3-5.7-13.8-8.7-27.8-7.3-42.9.9-9.4 3.7-18.4 5-27.7.7-4.7.9-9.3-.3-13.8-1.4-5-3-9.8-4.9-14.7-2.2-5.7-4.2-11.4-4.5-17.5-.5-10.5.6-20.8 4.2-30.8.8-2.3 1-4.8 1.5-7.2-4.4-.3-4.8-.1-5.7 3.7-.2.6-.3 1.2-.5 1.8-2.4 7.1-3.9 14.5-4.3 22-.8 10.8 3.1 20.6 6.6 30.4 2.5 6.9 5.5 13.7 4.8 21.3-.5 5.5-1.2 11-2.2 16.5-1.9 9.8-3.6 19.6-3.3 29.7.2 7.2.9 14.1 3.3 20.8 3 8.3 5.8 16.6 10.1 24.4 5.3 9.5 9.8 19.4 9.5 30.6-.2 6.9-.5 13.9-1.7 20.7-1.9 10.7-5.4 21.1-6.6 31.9-.5 4.5-.9 9.1.8 13.3 2.4 6.3 5.6 12.3 8.1 18.6 2.6 6.7 4.6 13.6 1.3 20.8-.6 1-.3 2.2-.3 3.1zM70.5 397c1.7-6.6 3.1-12.8 5-18.9 2.2-7.2 4.8-14.2 7.2-21.2 2.1-6.1 2.5-12.6.7-18.6-3-10.2-6.6-20.3-10.7-30.1-3.3-8-4.6-15.7-2.8-24.3 1.1-5.8 1.7-11.8 1.7-17.7 0-5.2-.5-10.4-1.6-15.5-2.1-9.6-5.2-18.9-11.4-26.8-3.8-4.8-8.3-9.4-9.6-15.6-1.3-6-3.1-12.2-2.7-18.2.5-7.4 4.1-14.4 4.3-22 .1-4 .7-8.1.8-12.1.1-2.4-.3-4.9-.5-7.3-.2-2.4-.4-4.6-.6-7-.2-1.5-.1-3.2-.7-4.5-.4-.9-2-1.4-3-2.1-.4.6-1.1 1.3-1.1 1.8.4 3.3 1.4 6.7 1.5 10.1.2 7.5.7 15-.2 22.5-.9 8-3.2 15.9-4.8 23.8-1.3 6.5.3 12.5 3.3 18 5.1 9.4 12.9 17.3 16.3 27.8 2.6 8.1 5.9 15.9 5.6 24.7-.4 9.2-.8 18.5-1.1 27.7-.2 6.6 1.3 13.1 3.7 19.1 3.3 8.7 8.5 16.8 9.2 26.4.4 5.4 1 10.9-.1 16.1-2 9-5.3 17.7-7.8 26.6-1.3 4.6-2 9.4-2.7 14.2-.2 1.4.2 2.9 2.1 3.1zm39.4-258.3c1.9 6.7 3.4 12.7 5.2 18.7 1.9 6.3 3.3 12.6 3.6 19.1.3 9.2.2 18.3.7 27.5.3 5.1.9 10.2 1.9 15.2 1.7 10.2 6.1 19.7 7.1 30.1.7 7.8 1.1 15.3-.9 22.9-1.4 5.3-4.2 10.2-3.3 16.3 1.2 8.9 4.2 16.9 8.1 24.8 2.2 4.3 4.9 8.5 6.1 13 2.5 8.9 4 18 6.2 27.1 1.7 7.1.8 14-1.3 20.9-1.6 5.2-3.2 10.6-4.6 15.9-.7 2.6.4 4.8 1.7 5.3 1.1-4.3 1.9-8.7 3.4-12.8 2.4-6.3 4.2-12.6 3.8-19.3-.4-8.3-1.2-16.5-2.2-24.7-.5-4.4-1.5-8.6-3-12.7-3-7.5-6.6-14.8-10-22.2-3.5-7.6-4.9-15.1-2.5-23.6 2.8-9.9 4.2-20.2 1.9-30.6-2.2-9.9-4.3-19.9-6.3-29.8-.9-4.5-1.9-9-1.8-13.6.1-13.7-.8-27.5-2.4-41.1-.9-8.3-2.5-16.4-3.8-24.6-.1-.8-1.1-2-1.7-2-1.9-.2-3.9.1-5.9.2zM50.6 434.3l1-.3c-.4-2-.3-4.2-1.2-5.9-4-7.9-2.9-16.5-2.7-24.8.2-7.8 1.3-15.6 2.1-23.4.4-4.1.7-8.3 1.3-12.3.9-6.3 2.7-12.7 2.9-19 .3-11.3.1-22.7-.7-34.1-.5-8.5-2.1-17-3.6-25.5-1.5-9.4-4.4-18.5-8.4-27.2-5.5-11.3-9.9-23.1-13.2-35.2-1.9-7-3.3-14.2-3-21.5 0-.7-.1-1.4-.2-2.1-.3-5.6-1.4-11.3-.7-16.7 1.3-9.6 3.7-19 5.7-28.5 1.5-6.9 2.7-13.8 2.2-20.8-.1-.8-.8-2.1-1.3-2.2-1.7-.2-3.5.1-5.1.2.6 4 1.3 7.3 1.5 10.6.4 9.4-.2 18.8-1.9 28-1.1 6.7-2.5 13.4-2.8 20.2-.3 5.9.7 11.9.9 17.8.3 8.1 2.7 15.8 5 23.5 3.4 11.2 7.4 22.3 11 33.5 1.9 5.6 3.9 11.3 5.1 17.1 1.6 7.4 2.8 14.9 3.9 22.4.9 6.6 1.7 13.2 2.1 19.8.3 3.9-.2 7.9-.5 11.9-.5 6.5-1.1 12.9-1.6 19.4-.7 8.9-1.5 17.8-2.2 26.6-.2 2.8-.3 5.6-.6 8.4-.9 9.9-1.8 19.8-.5 29.7.9 3.8 2.7 7.5 5.5 10.4zm100.9-297.8c.7 1.5 1.4 3.1 2 4.6 2.1 6 4.6 12 6.2 18.1 1.3 4.9 1.8 10.1 2.2 15.1.3 5 .8 10.2-.2 15-1.4 7.4-3.8 14.6-6.1 21.8-2.4 7.4-3.3 14.9-2.5 22.7 1 9.2 3.1 18.3 6.1 27.1 2.2 6.2 5.1 12 11.8 14 4.7 1.4 9.8 1.7 14.8 2.1 2 .1 3.9-.5 5.5-1.7 4.1-3.2 8-6.7 11.6-10.5 2.8-3.1 4.9-6.9 5.8-11 1-4 2.4-8 4.2-11.8 2.8-5.9 7.4-10.8 13.6-12.8 6.9-2.2 14.1-.9 20.4 3.1 2.8 2 6.4 2.6 9.8 1.9-1.4-1.4-2.3-2.7-3.5-3.5-6.3-3.7-13-5.7-20.6-5.1-9.9.7-16.6 5.6-20.9 14.1-3.3 6.5-5.7 13.5-8.9 20-1.6 3.2-3.7 6.5-6.3 8.7-4.8 4-10.9 5.5-17.2 4.8-5.5-.5-10.6-2.7-13.6-7.7-5.1-8.5-7-18.1-8.1-27.8-.9-7.8 1-15.3 2.8-22.9 1.7-7 3.3-14.1 4.1-21.3.7-6.8.9-13.6.5-20.4-.2-4.4-.9-8.7-2.1-12.9-2.1-7.7-4.8-15.1-7.1-22.7-.9-3.1-1.3-3.3-4.3-1z"/><path fill="none" d="M132.8 135.6c-9.8 0-19 .1-28.1 0-7.1-.1-14.2-.3-21.2-.5-8.1-.3-16.3-.6-24.4-1.1-7.1-.4-14.2-1.1-21.3-1.6-4.3-.3-8.5-.4-12.7-.5-2.7-.1-4.6-2.5-5.5-5.7-1.9-6.9-1.7-13.9-2.1-20.9-.4-7.2-.3-14.4 1.7-21.3 2.3-7.8 6.6-14.5 11.5-21s9.4-13.4 14.1-20.2c6.2-9 13.3-17.2 22.9-22.9 2.8-1.7 6.3-2.4 9.5-3.4 3.6-1.3 7.1-2.9 10.8-3.7 5.6-1.3 11.4-2 17.1-2.8 7.8-1.1 14.8 1.4 20.9 6.1 3.7 2.8 7.5 5.7 10.7 9.1 6.8 7.2 12.9 15 16.2 24.4 1.9 5.2 2.7 10.8 4 16.3 1.4 5.7 2.8 11.4 4 17.2.9 4.7 1.4 9.6 2.1 14.3.9 6 2.1 12 2.6 18 .3 3.8.3 8-1.2 11.4-1.1 2.5-4.6 4.8-7.5 5.5-8.2 1.8-16.3 3.9-24.1 3.3zM46.3 54.1c.2 1.4.4 2.7.8 4 1.1 3.2 3.7 4.7 6.8 5.3 2.5.5 4.3-1 5.4-2.9 1-1.8 1.3-4 1.9-6 .7-2.1 1.4-4.4 2.5-6.3 1.5-2.8 3.9-5.2 5.1-8.1.7-1.5.1-3.9-.7-5.4-1.1-2-3.2-3.8-5.6-2.8-2.6 1.1-5.6 2.6-7.2 4.8-3 4.3-5.3 9.2-7.8 13.9-.5 1.2-.9 2.3-1.2 3.5zm33.5-32.2c-1.7 1-4.9 2.3-7.1 4.5-1.3 1.3-2 4.6-1.1 6.1.9 1.6 3.8 2.7 5.9 2.9 3.7.3 8-3.4 9-6.9 1-3.8-1.1-6.6-6.7-6.6zm3.9 25.5c.2-2.4-1.8-3.7-3.6-4-2.9-.5-6.1-3.2-8.9.2-.2.2-.2.4-.3.5-.7 2.2-1.4 4.3-2 6.5-.6 2.4.8 4.6 3 5.7 4.1 2.1 11.4-3.3 11.8-8.9zm12.5 447.1c.6-5.3 1.3-9.8 1.6-14.4.2-2.8.1-5.7-.2-8.5-.9-8.2-3.9-15.8-6.7-23.5-2.8-7.6-5.5-15.5-4.5-23.8.6-5.6 1-11.3 2.5-16.7 3-11 6.7-21.9 9.7-33 1.4-5.1 2.4-10.4 3-15.7 1.7-15.6-3-30.2-8.1-44.6-3.2-8.8-6.3-17.7-6.5-27.2-.2-8.6-.5-17.4.7-25.9 1.9-13.5-.6-26.1-4.9-38.7-5.1-14.8-10.4-29.5-15.5-44.3-2.2-6.5-3.9-13.2-3.8-20.2.1-6 .3-12 .5-18 .1-2.7 1.4-3.7 3.8-3.2 2.2.5 3.1 1.4 2.5 4.2-1.1 4.7-1.7 9.6-1.7 14.4-.1 11.7 2.8 22.7 7.4 33.5 4.6 10.7 8.3 21.8 12 32.8 2.2 6.6 4.3 13.5 5.4 20.3.8 5-.1 10.3-.5 15.4-.2 3.2-1.1 6.3-1.4 9.5-.4 6.8-1.1 13.7-.4 20.3.8 7.5 2.6 14.9 4.5 22.2 3.3 12.9 7.1 25.7 10.7 38.6 2.6 9 1.4 17.6-2 26.2-2.6 6.6-4.7 13.4-6.8 20.2-2 6.5-3.9 12.9-5.6 19.5-.7 2.5-.6 5.1-1 7.7-1.6 10.1.7 19.5 3.9 28.9 2.9 8.3 4.8 16.8 4.9 25.7.1 3.1 1 6.2 1 9.4 0 3.3-.6 6.6-1 9.9-.1.8-.9 1.5-1.3 2.2-.7-.7-1.3-1.5-1.9-2.4-.4-.5-.3-1.1-.3-.8z"/><path fill="none" d="M116.7 436.8c-2.2-1.6-2.2-4.3-2.5-6.7-.6-4.7-1.6-9.5-1.4-14.2.3-6.9 2.4-13.4 4.9-19.9 2.4-6.1 4.3-12.5 5.6-18.9 1.2-6-.3-11.9-2-17.8-1.5-5.2-2.7-10.6-3-16-.3-6.4.7-12.9.7-19.2.1-4.5-.8-8.9-2.7-13-3.2-6.7-6.6-13.3-9.2-20.2-2.9-7.5-3-15.5-1.7-23.5 1.3-7.4 2.2-15 2.2-22.5 0-11.6-2.4-22.8-7.7-33.4-3.8-7.5-6.8-15.5-9.8-23.4-1.1-3.2-1.4-6.8-1.5-10.3-.3-8.4-.2-16.9-.7-25.3-.3-3.8-1.8-7.6-2.8-11.3-.4-1-.9-2.1-1.4-3.1.1-.1.3-.2.4-.3 6-.5 7 .1 7.7 7.6.8 8.5.7 17.2 1.3 25.8.7 10.5 3.6 20.8 8.4 30.2 3.2 6.5 5.2 13.6 7.4 20.6 1.4 4.8 2.1 9.7 3 14.7.4 1.9.7 3.9.8 5.9.1 6.8.5 13.6 0 20.3-1 12.4-1.7 24.7 2.4 36.8 2.4 7.3 4.3 14.7 5.6 22.2 1 5.4 1.6 10.7.2 16.4-.9 3.4.6 7.5 1.5 11.2 1.1 4.8 2.8 9.4 4.2 14.1 1.8 6 1.6 12.5-.5 18.4-2.7 7.4-5.1 14.8-8.1 22-2.6 6.2-2.5 12.4-1.3 18.8.8 4.5.9 9.2 1.2 13.8l-1.2.2zm46.3 10.1c0-1-.3-2.2.1-3.1 3.3-7.2 1.3-14.1-1.3-20.8-2.5-6.3-5.6-12.3-8.1-18.6-1.6-4.2-1.2-8.7-.8-13.3 1.1-10.9 4.6-21.2 6.6-31.9 1.2-6.8 1.5-13.8 1.7-20.7.3-11.2-4.2-21.1-9.5-30.6-4.4-7.8-7.2-16.1-10.1-24.4-2.5-6.8-3.2-13.7-3.3-20.8-.3-10.1 1.4-19.9 3.3-29.7 1-5.5 1.7-10.9 2.2-16.5.7-7.5-2.3-14.3-4.8-21.3-3.6-9.8-7.3-19.7-6.6-30.4.4-7.5 1.9-14.9 4.3-22 .2-.6.4-1.2.5-1.8 1-3.8 1.4-4 5.7-3.7-.5 2.5-.7 5-1.5 7.2-3.6 10-4.7 20.2-4.2 30.8.3 6.1 2.3 11.8 4.5 17.5 1.9 4.8 3.5 9.7 4.9 14.7 1.3 4.5 1 9.1.3 13.8-1.3 9.3-4 18.3-5 27.7-1.4 15.1 1.6 29.2 7.3 42.9 3.2 7.7 6.6 15.4 9.4 23.3 2.3 6.3 4 12.7 5.2 19.3 1 6.4.8 12.9-.6 19.2-2.6 11.9-5.2 23.8-7.2 35.9-.7 3.8.1 8.1 1.2 12 1.9 6.4 4.6 12.5 6.7 18.8 1.6 4.8 3.4 9.7 3.6 14.7.2 4 .2 8.9-3.8 12l-.7-.2zM70.5 397c-1.9-.1-2.3-1.7-2.1-3.2.8-4.8 1.5-9.5 2.7-14.2 2.5-8.9 5.8-17.6 7.8-26.6 1.1-5.1.4-10.7.1-16.1-.7-9.6-5.9-17.7-9.2-26.4-2.3-6.1-3.8-12.5-3.7-19.1.3-9.2.7-18.5 1.1-27.7.4-8.7-3-16.6-5.6-24.7-3.4-10.5-11.2-18.4-16.3-27.8-3.1-5.5-4.7-11.6-3.3-18 1.6-7.9 3.9-15.8 4.8-23.8.8-7.4.4-15 .2-22.5-.1-3.3-1-6.7-1.5-10.1-.1-.5.7-1.2 1.1-1.8 1 .7 2.5 1.1 3 2.1.7 1.3.5 3 .7 4.5.2 2.4.4 4.6.6 7 .2 2.4.5 4.9.5 7.3-.1 4-.7 8.1-.8 12.1-.2 7.6-3.8 14.6-4.3 22-.4 6 1.4 12.2 2.7 18.2 1.3 6.2 5.8 10.8 9.6 15.6 6.2 8 9.3 17.2 11.4 26.8 1.1 5.1 1.6 10.3 1.6 15.5 0 6-.5 11.9-1.7 17.7-1.7 8.5-.5 16.4 2.8 24.3 4.1 9.8 7.7 19.9 10.7 30.1 1.7 6 1.4 12.5-.7 18.6-2.4 7.1-5 14.1-7.2 21.2-1.9 6.2-3.3 12.5-5 19zm39.4-258.3c2.1-.1 4-.4 5.9-.2.7.1 1.6 1.3 1.7 2 1.4 8.2 2.9 16.4 3.8 24.6 1.6 13.7 2.4 27.4 2.4 41.1-.1 4.5.9 9.1 1.8 13.6 2 10 4 19.9 6.3 29.8 2.3 10.4.9 20.7-1.9 30.6-2.4 8.5-1 16 2.5 23.6 3.4 7.4 6.9 14.7 10 22.2 1.5 4.1 2.6 8.4 3 12.7 1 8.2 1.8 16.5 2.2 24.7.3 6.7-1.4 13.1-3.8 19.3-1.6 4.1-2.4 8.5-3.4 12.8-1.4-.4-2.5-2.7-1.7-5.3 1.5-5.3 3.1-10.6 4.6-15.9 2.1-6.8 3-13.7 1.3-20.9-2.1-9-3.7-18.2-6.2-27.1-1.3-4.5-4-8.7-6.1-13-4-7.8-6.9-15.9-8.1-24.8-.8-6.1 1.9-10.9 3.3-16.3 2-7.7 1.6-15.1.9-22.9-1-10.4-5.3-20-7.1-30.1-.9-5-1.5-10.1-1.9-15.2-.4-9.1-.3-18.3-.7-27.5-.2-6.6-1.6-12.9-3.6-19.1-1.8-5.9-3.4-11.9-5.2-18.7zM50.6 434.3c-2.8-2.8-4.6-6.5-5.2-10.5-1.4-9.9-.4-19.9.5-29.7.3-2.8.4-5.6.6-8.4.7-8.9 1.4-17.8 2.2-26.6.5-6.5 1.1-12.9 1.6-19.4.3-3.9.7-8 .5-11.9-.4-6.6-1.1-13.2-2.1-19.8-1.1-7.5-2.2-15-3.9-22.4-1.3-5.8-3.3-11.4-5.1-17.1-3.7-11.2-7.7-22.2-11-33.5-2.4-7.7-4.8-15.3-5-23.5-.2-6-1.2-11.9-.9-17.8.4-6.8 1.6-13.5 2.8-20.2 1.7-9.2 2.3-18.6 1.9-28-.2-3.3-.9-6.5-1.5-10.6 1.6-.1 3.4-.3 5.1-.2.5.1 1.2 1.4 1.3 2.2.5 7.1-.7 13.9-2.2 20.8-2.1 9.5-4.4 18.9-5.7 28.5-.7 5.5.4 11.2.7 16.7.1.7.2 1.4.2 2.1-.4 7.4 1 14.5 3 21.5 3.3 12.1 7.8 23.9 13.2 35.2 4 8.6 6.8 17.8 8.4 27.1 1.5 8.5 3 17 3.6 25.5.8 11.3 1 22.7.7 34.1-.2 6.4-2 12.7-2.9 19-.6 4.1-.9 8.2-1.3 12.3-.8 7.8-1.9 15.6-2.1 23.4-.2 8.3-1.4 16.8 2.7 24.8.9 1.7.8 3.9 1.2 5.9l-1.3.5z"/><path fill="none" d="M151.5 136.5c3.1-2.4 3.4-2.2 4.4 1.3 2.3 7.6 4.9 15 7.1 22.7 1.2 4.2 1.9 8.5 2.1 12.9.3 6.8.1 13.6-.5 20.4-.8 7.2-2.4 14.2-4.1 21.3-1.8 7.5-3.7 15.1-2.8 22.9 1.1 9.7 3 19.2 8.1 27.8 3 4.9 8 7.1 13.6 7.7 6.2.7 12.3-.8 17.2-4.8 2.7-2.2 4.8-5.5 6.3-8.7 3.2-6.6 5.6-13.5 8.9-20 4.2-8.5 10.9-13.3 20.9-14.1 7.6-.5 14.2 1.4 20.6 5.1 1.3.7 2.1 2.1 3.5 3.5-3.4.8-6.9.1-9.8-1.9-6.3-4-13.4-5.3-20.4-3.1-6.2 2-10.8 6.8-13.6 12.8-1.8 3.8-3.2 7.7-4.2 11.8-.9 4.1-3 7.9-5.8 11-3.7 3.8-7.5 7.3-11.6 10.5-1.6 1.2-3.5 1.8-5.5 1.7-5-.4-10.1-.7-14.8-2.1-6.7-2-9.6-7.8-11.8-14-3.1-8.7-5.1-17.8-6.1-27.1-.9-7.9.1-15.3 2.5-22.7 2.3-7.2 4.7-14.4 6.1-21.8.9-4.8.5-10 .2-15-.3-5.1-.9-10.2-2.2-15.1-1.6-6.2-4-12.1-6.2-18.1-.8-1.8-1.5-3.3-2.1-4.9z"/><path fill="#FFC107" d="M46.3 54.1c.3-1.2.7-2.4 1.2-3.5 2.5-4.7 4.8-9.6 7.9-14 1.6-2.2 4.5-3.7 7.2-4.8 2.4-1 4.5.9 5.6 2.8.8 1.5 1.3 3.9.7 5.4-1.3 2.9-3.6 5.3-5.1 8.1-1.1 2-1.7 4.2-2.5 6.3-.7 2-.9 4.2-1.9 6-1 1.9-2.9 3.4-5.4 2.9-3.2-.6-5.7-2.1-6.8-5.3-.4-1.2-.7-2.5-.9-3.9zm20.9-16.6c-.5-2.7-2.2-4.6-3.8-3.7-2 1.1-4.2 2.4-5.4 4.2-2.8 4.5-5.5 9.1-7.9 13.9-.7 1.4-1.3 3.3-.8 4.6.7 1.9 1.9 3.4 3.5 4.6 1.5 1.1 2.9-.3 3.8-1.6.8-1 1.6-2.2 1.7-3.4.4-5.1 1.9-9.5 5.9-13.1 1.5-1.4 2.1-3.7 3-5.5zm12.6-15.6c5.6 0 7.7 2.8 6.6 6.6-1 3.5-5.4 7.2-9 6.9-2.1-.2-5-1.3-5.9-2.9-.8-1.5-.1-4.9 1.1-6.1 2.3-2.2 5.5-3.5 7.2-4.5zm-2.7 11.5c3.1.1 6.9-3.6 7.2-6.6.1-1.6-.7-2.6-2.1-2.4-2.9.4-5.5 1.7-6.8 4.5-1.3 2.5-.5 4.4 1.7 4.5zm6.6 14c-.4 5.6-7.7 11-11.8 8.9-2.1-1.1-3.6-3.3-3-5.7.5-2.2 1.3-4.3 2-6.5.1-.2.1-.3.2-.5 2.8-3.3 6-.7 8.9-.2 1.9.3 3.9 1.6 3.7 4zM76 43.7c-1.1.7-2.7 1.1-3.1 2-.9 2.3-1.4 4.7-1.7 7.2-.1.5 1.2 1.7 1.9 1.7 2.6.1 5.1-1.2 6.5-3.4.9-1.4 2-3.8 1.4-5-.6-1.2-3.1-1.6-5-2.5z"/><path fill="none" d="M67.2 37.5c-.9 1.9-1.5 4.2-2.9 5.5-4 3.6-5.4 8-5.9 13.1-.1 1.2-1 2.4-1.7 3.4-.9 1.3-2.4 2.6-3.8 1.6-1.6-1.1-2.8-2.7-3.5-4.6-.4-1.3.1-3.2.8-4.6 2.4-4.8 5-9.4 7.9-13.9 1.2-1.8 3.4-3.1 5.4-4.2 1.5-1 3.2.9 3.7 3.7zm9.9-4.1c-2.1-.1-3-1.9-1.8-4.4 1.3-2.8 3.9-4.1 6.8-4.5 1.4-.2 2.2.8 2.1 2.4-.2 2.9-4.1 6.5-7.1 6.5zM76 43.7c2 .9 4.4 1.1 5 2.4.6 1.1-.5 3.5-1.4 5-1.4 2.2-3.9 3.6-6.5 3.4-.7-.1-2-1.3-1.9-1.7.3-2.5.9-4.8 1.7-7.2.4-.8 1.9-1.1 3.1-1.9z"/></svg>