<?xml version="1.0" encoding="utf-8"?>
<!-- Generator: Adobe Illustrator 19.2.1, SVG Export Plug-In . SVG Version: 6.00 Build 0)  -->
<svg version="1.1" id="Layer_1" xmlns="http://www.w3.org/2000/svg" xmlns:xlink="http://www.w3.org/1999/xlink" x="0px" y="0px"
	 viewBox="0 0 608.9 429" enable-background="new 0 0 608.9 429" xml:space="preserve">
<title>lampfish</title>
<path fill="none" d="M0,429V0h608.9v429H0z M124.7,253.5c-0.3-2.2,0.4-3.6,0.9-5c0.9-2.5,1.9-4.9,3.1-7.3c0.8-1.7,0.6-2.8-1-3.7
	c-1.1-0.5-2,0.1-2.8,0.6c-3,2.1-5.5,4.8-7.7,7.7c-2,2.5-4.1,4.9-6.6,7c-2.7,2.2-5.2,4.7-7.4,7.5c-3,3.9-4,8.6-5.3,13.3
	c-0.2,0.8-0.3,1.7-0.7,2.5c-0.9,2.4-1,4.9-0.8,7.4c0,0.4,0.2,0.9,0.1,1.3c-0.4,3.9,0,7.7,0.5,11.6c0.9,6.1,2.6,11.7,6,16.8
	c3.9,5.9,9.1,10.4,14.8,14.5c1.9,1.4,3.9,2.7,5.8,4c2.2,1.5,4.4,3.3,6.7,4.6c7,4,13.4,8.8,20.6,12.4c4.4,2.2,8.6,4.9,12.8,7.4
	c1,0.6,2,1.1,2.9,1.8c3,2.5,6.4,4.3,9.9,5.9c2.7,1.2,5.4,2.5,7.8,4c4.8,3.1,9.9,5.7,14.4,9.3c3.4,2.7,7.1,5,10.7,7.5
	c1.8,1.3,3.5,2.8,5.4,3.9c2.7,1.6,5.2,3.5,7.6,5.5c4.5,3.7,9.2,7.3,14.4,10c1.3,0.6,2.3,1.7,3.6,2.3c2.8,1.2,5.7,2.2,8.6,3.2
	c1.6,0.6,3.2,1.2,5,0.8c0.6-0.1,1.2,0.3,1.9,0.4c3.1,0.8,6.2,1.9,9.5,1.5c3.1-0.3,6.1-0.9,9.1-1.5c3.6-0.8,7-1.9,10.2-3.9
	c4.1-2.6,8.4-4.9,12.5-7.5c2.6-1.7,4.9-3.7,7.3-5.7c2.3-1.9,4.5-3.8,6.5-5.9c2.2-2.2,4-4.6,6.1-6.9c3.4-3.7,6.9-7.3,10.3-11
	c0.8-0.8,1.4-1.6,2-2.5c2.1-3.3,4.4-6.5,7.1-9.4c3.1-3.4,6.1-6.9,9.1-10.4c1.9-2.2,3.8-4.5,5.6-6.8c2.4-3.3,4.7-6.6,7.7-9.4
	c0.8-0.8,1.5-1.7,2.2-2.6c3.4-4.4,6.9-8.8,10.3-13.1c1.5-1.9,3.2-3.7,4.7-5.6c1.3-1.6,2.6-3.2,3.9-4.8c1.7-2,3.5-3.8,5.1-5.8
	c3.2-4.2,6.4-8.4,9.9-12.4c2.8-3.2,5.4-6.6,8.2-9.9c2.6-3.1,5.4-6,8.1-9.1c2.4-2.8,4.7-5.6,7.5-7.9c1.9-1.6,3.4-3.6,5.1-5.5
	c0.3-0.3,0.6-0.6,0.9-0.9c1.7-1.5,3.4-3,5.1-4.5c2.5-2.2,4.9-4.3,7.5-6.4c1.3-1.1,2.7-2.3,4.2-3.2c1.7-1.1,3.7-1.9,5.4-3
	c2.2-1.4,4.3-3,6.4-4.5c1.2-0.9,2.3-2.1,3.6-3c1-0.7,2.2-1,3.2-1.8c3.1-2.4,6.9-3.6,10.5-4.9c4.6-1.6,9.4-2.5,14.1-3.7
	c0.3-0.1,0.7-0.1,1.1-0.2c6.7-0.6,13.4-1.2,20.1-1.9c2-0.2,4-0.4,6-0.6c1.9-0.2,3.7-0.2,5.6-0.4c2.6-0.3,5.2-1,7.9-1
	c6.5-0.1,12.8-1.2,18.9-3.4c3-1.1,5.5-2.8,7.4-5.3c1.2-1.6,1.4-3.8,0.2-5.2c-2-2.2-4.4-3.8-7.6-4c-1.7-0.2-3.4-0.5-5-1.1
	c-2-0.7-2-1.4-0.9-3.2c0.8-1.4,1.7-2.9,2.2-4.4c0.9-2.6-0.4-4.9-3-5.8c-0.7-0.2-1.4-0.3-2.1-0.5c-1.6-0.5-3.1-1.2-3.9-3
	c0.4-0.6,0.8-1.2,1.2-1.7c1.4-1.6,2.9-3.2,4.2-4.8c2.2-2.8,1.5-6-1.7-7.7c-1.2-0.6-2.4-1.3-3.5-2c-3-1.7-3-1.9-1.1-4.7
	c1.3-1.9,2.7-3.7,4-5.6c1.1-1.6,0.9-3.3,0.1-4.9c-0.8-1.5-2.4-1.5-3.8-1.5c-1.6,0-3.1,0.3-4.7,0.4c-1,0.1-2,0.4-2.8-0.6
	c0.2-0.4,0.3-0.8,0.5-1.1c0.9-1.1,1.9-2.2,2.7-3.3c1.9-2.3,0.9-5.2-2-5.9c-1.1-0.3-2.3-0.4-3.4-0.4c-3.3,0.1-6.5,1.2-9.6,2
	c-3.1,0.8-6.1,1.7-9.1,2.6c-4.9,1.4-9.8,2.7-14.6,4.3c-3.7,1.2-7.2,2.7-10.8,4c-3.3,1.2-6.5,2.6-9.5,4.5c-2.9,1.9-5.9,3.5-8.9,5.1
	c-3.8,2-7.9,2.9-12,4c-7.3,2-14.7,3.1-22.1,4.3c-0.9,0.2-1.9,0.3-2.8,0.5c-3.3,0.7-6.6,1.4-9.8,2.2c-3.4,0.8-7,0.5-10.2,2.2
	c-0.2,0.1-0.6,0.1-0.8,0.2c-4.5,0.5-9.1,1-13.6,1.5c-5.7,0.7-11.4,1.5-17,2.2c-1.2,0.2-2.4,0.3-3.6,0.3c-1.3,0-1.6-0.8-0.9-1.9
	c0.2-0.3,0.5-0.6,0.7-0.8c1.4-1.6,2.9-3.2,4.3-4.8c1.3-1.4,2.5-3.1,4-4.1c2.5-1.6,4.1-3.9,5.9-6.2c1.2-1.5,2-3.5,1.1-5.2
	c-0.9-1.9-3.1-2.2-5.1-2c-3,0.3-6,0.9-8.9,1.3c-0.8,0.1-1.6,0.2-2.3,0.1c-1.8-0.2-2.2-0.6-2.3-2.4c0-1.1,0-2.3-0.1-3.4
	c-0.2-2-0.6-2.4-2.4-3.1c-2.7-0.9-5.2-0.4-7.8,0.5c-1.8,0.6-3.6,1.1-5.4,1.5c-0.7,0.2-1.4,0.2-2.1,0c-1.7-0.3-2.1-1-1.9-2.7
	c0.1-1.2,0.4-2.4,0.3-3.6c-0.1-3.5-2.1-5.6-5.6-5.9c-1.1-0.1-2.3,0-3.4,0.1c-3.3,0.2-6.6,0.6-9.9,0.7c-1.4,0-2.7-0.1-4-0.4
	c-1.5-0.3-1.9-0.9-1.8-2.4c0.1-0.7,0.2-1.4,0.5-2.1c0.4-1.1,0.9-2.3,1.3-3.4c0.9-2.5-0.3-4.5-2.9-4.8c-0.9-0.1-1.9,0-2.8,0.2
	c-2,0.5-4,1.1-6,1.5c-1.2,0.3-2.5,0.5-3.8,0.7c-1.7,0.2-2.8-1.3-2.2-3c0.2-0.7,0.6-1.3,0.8-2c1.3-4.5-1.2-7.7-5.7-7.7
	c-0.9,0-1.9,0-2.8,0.1c-1.3,0.1-2.6,0.2-3.9,0.3c-4.8,0.3-9.6,0.8-14.2,2c-2.3,0.6-4.6,1.2-6.9,1.7c-5,0.9-10,1.9-15,2.5
	c-2.8,0.4-5.7,1.2-8.1-1.2c-0.2-0.2-0.5-0.2-0.8-0.3c-5-1.5-10-2.5-15.4-2c-4.6,0.4-9,1.7-13.3,3.2c-5.5,2-11,4.2-16.4,6.4
	c-1.7,0.7-3.3,1.8-4.9,2.7c-1.1,0.6-2.1,1.2-3.2,1.7c-1.6,0.7-2.1,0.5-3.1-0.8c-3.2-4.3-6.2-9-9.1-13.5c-1.5-2.3-2.9-4.8-4.4-7.1
	c-1.8-2.8-3.6-5.5-5.5-8.2c-0.7-1.1-1.3-2.3-2.1-3.2c-3.7-4.6-6.9-9.5-9.8-14.6c-3.2-5.4-5.9-10.9-9-16.3c-2.4-4.1-5-8-7.5-12
	c-0.2-0.4-0.5-0.7-0.7-1.1c-2.1-2.6-4.2-5.3-6.2-8c-2.8-3.7-6-7.1-9.4-10.3c-4.6-4.5-8.8-9.5-14-13.3c-2.1-1.5-4-3.2-6.3-4.5
	c-3.7-2-7.7-2.5-11.8-1.2c-1.2,0.4-2.3,0.7-3.5,1.1c-2.2,0.9-4.4,1.7-6.1,3.5c-0.9,1-1.9,1.9-2.9,2.8c-1.7,1.5-3.4,2.8-5,4.4
	c-2.9,2.8-4.9,6.3-7.1,9.7c-0.4,0.5-0.8,1-1.2,1.5c-1.5,1.9-3.2,3.7-4.6,5.6c-1.6,2-3.1,4.1-4.5,6.3c-1.4,2-2.6,4.1-3.9,6.2
	c-2.1,3.4-4,6.9-6.2,10.3c-2.7,4-5.3,8-7.1,12.5c-0.9,2.3-1.8,4.6-2.9,6.9c-1.2,2.6-2.7,5-3.8,7.6c-1.7,4-2.8,8.1-3,12.4
	c-0.2,3.5-1.3,6.9-3.3,9.9c-1.6,2.5-2.6,5.1-3.5,7.8c-0.7,2-0.5,4,1.2,5.6c1.1,1.1,2.2,2.2,3.4,3.2c0.6,0.5,1.4,0.7,2.2,0.8
	c1.4,0.1,2.9,0,4.3-0.2c2.8-0.5,5.1-1.7,6.5-4.4c0.3-0.6,0.7-1.1,1.1-1.6c1.6-1.9,2.2-4.1,2.2-6.4c0-3.6-0.4-7.1-0.6-10.7
	c-0.1-2,0.1-4,0.6-5.9c1.2-4.4,3.6-8.3,5.5-12.3c0.4-0.9,0.9-1.8,1.4-2.6c2-3.2,4.1-6.4,6-9.6c1.2-2,2.1-4.1,3.2-6
	c1.1-1.8,2.3-3.4,3.4-5.2c0.8-1.2,1.3-2.6,2-3.8c3.2-4.9,6.6-9.9,9.9-14.8c2.3-3.5,4.8-6.9,7.6-10.1c2.6-2.9,5-5.9,7.2-9
	c0.9-1.3,1.9-2.6,3.3-3.2c2.4-1.1,4.8-1.5,7.4-0.1c2.2,1.2,3.5,3.6,6.1,4.3c0.2,0.1,0.3,0.5,0.5,0.6c0.4,0.4,0.7,1,1.2,1.2
	c1.5,0.6,1.7,1.8,1.8,3.1c0.1,1.9,1.1,3.3,2.5,4.6c0.9-0.3,1.6-0.6,2.3,0.3c2,2.8,4.2,5.6,6.2,8.5c1.1,1.6,2,3.5,3,5.2
	c1,1.6,2.3,3.1,3.3,4.7c2,3.1,3.9,6.2,5.9,9.3c2.1,3.2,4.2,6.5,6.3,9.8c1.9,3.1,3.6,6.2,5.4,9.3c1.4,2.5,2.8,5,4.3,7.4
	c2.6,3.9,5.5,7.5,7.7,11.6c2.1,3.9,4.6,7.5,7.3,11.1c4.1,5.6,7.7,11.6,11.4,17.4c1.5,2.4,1.3,2.9-1.2,4.2c-0.1,0-0.3,0.1-0.4,0.2
	c-2.3,1.5-4.8,2.6-6.7,4.6c-0.5,0.5-1.1,0.9-1.7,1.2c-5.2,3.2-10.5,6.3-15.3,10.2c-3.1,2.5-6.3,4.9-9.3,7.5c-2.8,2.3-6,4.2-8.2,7.2
	c-0.5,0.8-1.1,1.6-1.9,2.1c-1.8,1.3-2.3,3.2-2.9,5.1c-0.4,1.2-1,2.3-1.7,3.4c-1.9,2.7-3.9,5.3-5.8,8c-2.9,4-3.9,8.7-4.6,13.5
	c-0.3,1.9-0.3,3.9-0.3,5.8c0,1.2,1.1,2.2,2.3,2.5c1.1,0.2,1.8-0.3,2.2-1.2c0.5-0.9,1-1.7,1.4-2.7c1.4-3.9,3.8-7.2,5.8-10.8
	c0.3-0.6,0.7-1.4,2-1.2c-0.4,1-0.7,2-1,2.9s-0.9,1.9-1,2.8c-0.3,3.3-0.5,6.6-0.6,9.9c-0.1,1.4,1,2.6,2.2,2.8
	c1.1,0.2,1.9-0.5,2.5-1.9c0.4-0.8,0.8-1.5,1.2-2.2c0.6-1,1.3-2,2-3c0.5-0.8,0.9-1.6,2.2-1.8c0.5,1.2,0.5,2.4,0.6,3.5
	c0.2,1.3,0.4,2.7,1,3.9c0.9,1.9,2.8,2.3,4.7,1.1c0.4-0.2,0.8-0.4,1.2-0.6c0,0.9,0,1.6,0,2.3c0.1,2.4,0.2,4.8,0.4,7.3
	c0.1,0.7,0.5,1.5,1.4,1.3c1.4-0.2,2.8-0.2,4-1.2c0.8-0.6,1.7-1.1,2.6-1.4c1.9-0.5,2.5,0.2,2.1,2.1c-0.3,1.7-0.5,3.4-0.5,5.1
	c0,1.9,1.2,2.6,3.1,2.3c0.4-0.1,0.8-0.2,1.2-0.4c2.4-1.2,5.1-1.1,7.9-1.2c0.2,1.1,0.2,2.3,0.5,3.3c0.6,1.7,1.1,3.4-0.1,5.1
	c-0.2,0.3,0.2,1.1,0.5,1.5c0.2,0.2,0.9,0.2,1.3,0c0.9-0.4,1.7-0.5,2.7-0.2c0.5,0.2,1.1,0.2,1.7,0c1.3-0.6,2.2-0.1,2.9,1
	c1.2,1.7,2.3,3.4,3.6,5.1c3.9,5,6.8,10.6,9.4,16.3c3.4,7.5,5.6,15.5,8.2,23.3c1.7,5.2,3.2,10.5,4.8,15.8c0.5,1.5,1.1,3,1.3,4.5
	c0.3,2.7,1.2,5.1,2.2,7.6c0.5,1.2,0.6,2.6,0.7,4c0,1.1-0.7,1.9-1.7,2.2c-1,0.3-1.8-0.1-2.5-0.8c-1.7-1.6-3.5-3.1-5.3-4.6
	c-3.1-2.5-6.2-4.9-9.3-7.3c-1.5-1.1-2.9-2.3-4.6-3.2c-2.9-1.5-5.9-2.8-8.9-4.3c-0.6-0.3-1.1-0.8-1.7-1.2l1-1.2l-0.2-0.4l-2.6,0.6
	c-0.7-0.6-1.4-1.1-2-1.6c-1.1-0.9-1.9-2-2-3.4c-0.2-3.2-1.8-5.9-3.6-8.4c-1.5-2-2.5-2.3-4.8-1.4c-0.4,0.2-0.8,0.3-1.2,0.6
	c-3,1.6-3,1.6-4.7-1.2c-1.2-2.1-3.2-2.6-5.3-1.3c-1.1,0.7-2.2,1.3-3.4,1.9c-1.4,0.6-1.9,0.3-2.2-1.3c-0.4-2.6-0.5-5.1,0.2-7.7
	c0.3-1.1,0.2-2.1-0.8-2.7c-1-0.6-1.9-0.2-2.7,0.5c-1.1,0.9-2.2,1.9-3.2,2.8c-0.7,0.6-1.4,1.2-2.4,1.2c0.2-1.2,0.4-2.3,0.4-3.5
	c0.1-2.2,0.1-4.3,0.2-6.5c0-0.4,0-0.7,0-1.1c-0.3-1.7-1.9-2.3-3.2-1.3c-0.8,0.6-1.4,1.3-1.8,2.1c-0.9,1.9-2.4,3.1-4.1,4.9
	c0.2-1.1,0.2-1.9,0.3-2.5c0.7-2.5,1.3-5,2.2-7.4c0.3-1.1,0.5-1.9-0.5-2.7c-0.9-0.8-1.8-0.6-2.8,0
	C126.1,252.9,125.5,253.1,124.7,253.5L124.7,253.5z"/>
<path fill="#FFC107" d="M175.8,293.7c0.6,0.4,1.1,0.9,1.7,1.2c2.9,1.4,6,2.7,8.9,4.3c1.6,0.9,3.1,2,4.6,3.2c3.1,2.4,6.2,4.8,9.3,7.3
	c1.8,1.5,3.6,3.1,5.3,4.6c0.8,0.7,1.5,1,2.5,0.8c1.1-0.3,1.8-1.1,1.7-2.2c0-1.3-0.2-2.8-0.7-4c-1-2.5-1.9-4.9-2.2-7.6
	c-0.2-1.5-0.9-3-1.3-4.5c-1.6-5.3-3.1-10.6-4.8-15.8c-2.5-7.8-4.7-15.8-8.2-23.3c-2.6-5.7-5.5-11.3-9.4-16.3
	c-1.3-1.6-2.5-3.4-3.6-5.1c-0.7-1.1-1.5-1.6-2.9-1c-0.5,0.2-1.1,0.2-1.7,0c-1-0.3-1.8-0.2-2.7,0.2c-0.4,0.2-1.1,0.2-1.3,0
	c-0.3-0.3-0.7-1.2-0.5-1.5c1.1-1.7,0.7-3.4,0.1-5.1c-0.4-1.1-0.4-2.2-0.5-3.3c-2.8,0.1-5.4,0-7.9,1.2c-0.4,0.2-0.8,0.3-1.2,0.4
	c-1.9,0.3-3-0.4-3.1-2.3c0-1.7,0.2-3.4,0.5-5.1c0.4-1.9-0.2-2.6-2.1-2.1c-1,0.3-1.9,0.7-2.6,1.4c-1.2,1-2.7,1-4,1.2
	c-0.9,0.2-1.3-0.6-1.4-1.3c-0.2-2.4-0.3-4.8-0.4-7.3c0-0.7,0-1.3,0-2.3c-0.4,0.2-0.8,0.4-1.2,0.6c-1.9,1.2-3.7,0.8-4.7-1.1
	c-0.6-1.2-0.8-2.6-1-3.9c-0.1-1.2-0.1-2.4-0.6-3.5c-1.2,0.2-1.6,1.1-2.2,1.8c-0.7,1-1.4,2-2,3c-0.5,0.7-0.9,1.5-1.2,2.2
	c-0.7,1.4-1.5,2.1-2.5,1.9c-1.2-0.2-2.2-1.3-2.2-2.8c0.1-3.3,0.3-6.6,0.6-9.9c0.1-1,0.7-1.9,1-2.8c0.3-0.9,0.6-1.8,1-2.9
	c-1.3-0.2-1.7,0.6-2,1.2c-2,3.5-4.4,6.9-5.8,10.8c-0.3,0.9-0.9,1.8-1.4,2.7c-0.5,0.9-1.1,1.5-2.2,1.2c-1.2-0.3-2.3-1.3-2.3-2.5
	c0-1.9,0-3.9,0.3-5.8c0.8-4.7,1.7-9.4,4.6-13.5c1.9-2.7,3.9-5.3,5.8-8c0.7-1,1.3-2.2,1.7-3.4c0.6-1.9,1.1-3.8,2.9-5.1
	c0.7-0.5,1.3-1.3,1.9-2.1c2.2-3,5.4-4.8,8.2-7.2c3-2.6,6.2-5,9.3-7.5c4.8-3.9,10.1-7,15.4-10.2c0.6-0.4,1.2-0.7,1.7-1.2
	c1.9-2,4.5-3.1,6.7-4.6c0.1-0.1,0.3-0.1,0.4-0.2c2.6-1.2,2.8-1.8,1.2-4.2c-3.7-5.9-7.3-11.8-11.4-17.4c-2.6-3.6-5.2-7.2-7.3-11.1
	c-2.2-4.2-5.1-7.8-7.7-11.6c-1.6-2.4-2.9-4.9-4.3-7.4c-1.8-3.1-3.5-6.3-5.4-9.3c-2-3.3-4.2-6.5-6.3-9.8c-2-3.1-3.9-6.2-5.9-9.3
	c-1.1-1.6-2.3-3.1-3.3-4.7c-1.1-1.7-1.9-3.5-3-5.2c-2-2.9-4.2-5.6-6.2-8.5c-0.7-0.9-5.1-7.5-6.6-8.1c-0.5-0.2-0.8-0.8-1.2-1.2
	c-0.2-0.2-0.3-0.6-0.5-0.6c-2.5-0.7-3.9-3.1-6.1-4.3c-2.6-1.4-5-1-7.4,0.1c-1.4,0.6-2.4,1.9-3.3,3.2c-2.3,3.1-4.7,6.1-7.2,9
	c-2.8,3.2-5.4,6.5-7.6,10.1c-3.2,5-6.6,9.9-9.9,14.8c-0.8,1.2-1.3,2.5-2,3.8c-1.1,1.8-2.4,3.4-3.4,5.2c-1.2,2-2,4.1-3.2,6
	c-1.9,3.2-4,6.4-6,9.6c-0.5,0.9-1,1.7-1.4,2.6c-1.9,4.1-4.3,7.9-5.5,12.3c-0.5,1.9-0.7,4-0.6,5.9c0.2,3.6,0.5,7.1,0.6,10.7
	c0,2.3-0.6,4.5-2.2,6.4c-0.4,0.5-0.8,1-1.1,1.6c-1.3,2.7-3.7,3.9-6.5,4.4c-1.4,0.2-2.8,0.3-4.3,0.2c-0.8,0-1.5-0.3-2.2-0.8
	c-1.2-1-2.3-2.1-3.4-3.2c-1.7-1.6-1.9-3.5-1.2-5.6c0.9-2.7,1.9-5.3,3.5-7.8c2-2.9,3.1-6.3,3.3-9.9c0.2-4.3,1.3-8.5,3-12.4
	c1.1-2.6,2.6-5.1,3.8-7.6c1.1-2.3,1.9-4.6,2.9-6.9c1.8-4.5,4.4-8.5,7.1-12.5c2.2-3.3,4.2-6.8,6.2-10.2c1.3-2.1,2.5-4.2,3.9-6.2
	c1.4-2.1,2.9-4.2,4.5-6.3c1.5-1.9,3.1-3.7,4.6-5.6c0.4-0.5,0.8-1,1.2-1.5c2.2-3.4,4.2-6.8,7.1-9.7c1.6-1.6,3.3-2.9,5-4.4
	c1-0.9,2-1.8,2.9-2.8c1.7-1.8,3.9-2.6,6.1-3.5c1.1-0.5,2.3-0.8,3.5-1.1c4.1-1.4,8.1-0.9,11.8,1.2c2.2,1.2,4.2,2.9,6.3,4.5
	c5.2,3.8,9.4,8.8,14,13.3c3.4,3.2,6.6,6.6,9.4,10.3c2,2.7,4.1,5.3,6.2,8c0.3,0.3,0.5,0.7,0.7,1.1c2.5,4,5.1,7.9,7.5,12
	c3.1,5.4,5.9,11,9,16.3c3,5.1,6.1,10,9.8,14.6c0.8,1,1.4,2.2,2.1,3.2c1.8,2.8,3.7,5.5,5.5,8.2c1.5,2.3,2.9,4.8,4.4,7.1
	c2.9,4.6,5.8,9.2,9.1,13.5c1,1.4,1.5,1.5,3.1,0.8c1.1-0.5,2.1-1.2,3.2-1.7c1.6-0.9,3.2-2,4.9-2.7c5.4-2.2,10.9-4.5,16.4-6.4
	c4.3-1.5,8.6-2.8,13.3-3.2c5.4-0.5,10.4,0.5,15.4,2c0.3,0.1,0.6,0.1,0.8,0.3c2.4,2.3,5.4,1.5,8.1,1.2c5-0.7,10-1.6,15-2.5
	c2.3-0.4,4.6-1.1,6.9-1.7c4.7-1.2,9.4-1.7,14.2-2c1.3-0.1,2.6-0.2,3.9-0.3c0.9-0.1,1.9-0.1,2.8-0.1c4.6,0,7,3.3,5.7,7.7
	c-0.2,0.7-0.5,1.3-0.8,2c-0.6,1.7,0.5,3.1,2.2,3c1.3-0.1,2.6-0.3,3.8-0.7c2-0.5,4-1.1,6-1.5c0.9-0.2,1.9-0.2,2.8-0.2
	c2.6,0.3,3.8,2.3,2.9,4.8c-0.4,1.1-0.9,2.3-1.3,3.4c-0.2,0.7-0.4,1.4-0.5,2.1c-0.2,1.5,0.2,2.1,1.8,2.4c1.3,0.3,2.7,0.4,4,0.4
	c3.3-0.2,6.6-0.5,9.9-0.7c1.1-0.1,2.3-0.1,3.4-0.1c3.5,0.3,5.5,2.4,5.6,5.9c0,1.2-0.2,2.4-0.3,3.6c-0.2,1.7,0.2,2.4,1.9,2.7
	c0.7,0.1,1.4,0.1,2.1,0c1.8-0.4,3.6-0.9,5.4-1.5c2.6-0.9,5.1-1.4,7.8-0.5c1.9,0.7,2.3,1,2.4,3.1c0.1,1.1,0,2.3,0.1,3.4
	c0,1.8,0.4,2.3,2.3,2.4c0.8,0,1.6,0,2.3-0.1c3-0.4,5.9-0.9,8.9-1.3c2-0.2,4.2,0.1,5.1,2c0.9,1.7,0.1,3.7-1.1,5.2
	c-1.7,2.2-3.4,4.5-5.9,6.2c-1.6,1-2.7,2.7-4,4.1c-1.5,1.6-2.9,3.2-4.3,4.8c-0.3,0.3-0.5,0.5-0.7,0.8c-0.7,1.1-0.3,1.9,0.9,1.9
	c1.2,0,2.4-0.1,3.6-0.3c5.7-0.7,11.4-1.5,17-2.2c4.5-0.6,9.1-1,13.6-1.5c0.3,0,0.6,0,0.8-0.2c3.2-1.8,6.8-1.4,10.2-2.2
	c3.2-0.8,6.5-1.5,9.8-2.2c0.9-0.2,1.8-0.4,2.8-0.5c7.4-1.1,14.9-2.2,22.1-4.3c4.1-1.1,8.2-2,12-4c3-1.6,6-3.3,8.9-5.1
	c3-1.9,6.2-3.2,9.5-4.5c3.6-1.4,7.2-2.9,10.8-4c4.8-1.5,9.7-2.9,14.6-4.3c3-0.9,6-1.8,9.1-2.6c3.2-0.8,6.3-1.9,9.6-2
	c1.1,0,2.3,0.1,3.4,0.4c2.9,0.7,3.8,3.5,2,5.9c-0.9,1.1-1.9,2.2-2.7,3.3c-0.2,0.3-0.4,0.8-0.5,1.1c0.8,1,1.8,0.8,2.8,0.6
	c1.6-0.2,3.1-0.4,4.7-0.4c1.4,0,3,0,3.8,1.5c0.9,1.6,1,3.3-0.1,4.9c-1.3,1.9-2.7,3.7-4,5.6c-1.9,2.8-1.8,3,1.1,4.7
	c1.2,0.7,2.4,1.4,3.5,2c3.2,1.7,3.9,4.9,1.7,7.7c-1.3,1.7-2.8,3.2-4.2,4.8c-0.4,0.6-0.8,1.1-1.2,1.7c0.9,1.8,2.3,2.5,3.9,3
	c0.7,0.2,1.4,0.3,2.1,0.5c2.6,0.8,3.9,3.2,3,5.8c-0.5,1.5-1.4,3-2.2,4.4c-1.1,1.9-1.1,2.5,0.9,3.2c1.6,0.6,3.3,1,5,1.1
	c3.2,0.2,5.5,1.9,7.6,4c1.3,1.3,1,3.5-0.2,5.2c-1.9,2.5-4.4,4.3-7.4,5.3c-6.1,2.2-12.5,3.3-18.9,3.4c-2.6,0-5.2,0.7-7.9,1
	c-1.9,0.2-3.7,0.3-5.6,0.4c-2,0.2-4,0.4-6,0.6c-6.7,0.6-13.4,1.2-20.1,1.9c-0.4,0-0.7,0.1-1.1,0.2c-4.7,1.2-9.6,2.1-14.1,3.7
	c-3.6,1.2-7.3,2.5-10.5,4.9c-0.9,0.7-2.2,1.1-3.2,1.8c-1.3,0.9-2.3,2.1-3.6,3c-2.1,1.6-4.2,3.1-6.4,4.5c-1.7,1.1-3.7,1.9-5.4,3
	c-1.5,0.9-2.8,2.1-4.2,3.2c-2.5,2.1-5,4.3-7.5,6.4c-1.7,1.5-3.4,3-5.1,4.5c-0.3,0.3-0.6,0.6-0.9,0.9c-1.7,1.8-3.2,3.9-5.1,5.5
	c-2.8,2.4-5.1,5.2-7.5,7.9c-2.7,3.1-5.4,6-8.1,9.1c-2.8,3.2-5.4,6.6-8.2,9.9c-3.5,4-6.6,8.2-9.9,12.4c-1.5,2-3.4,3.9-5.1,5.8
	c-1.3,1.6-2.6,3.2-3.9,4.8c-1.5,1.9-3.2,3.7-4.7,5.6c-3.5,4.4-6.9,8.8-10.3,13.1c-0.7,0.9-1.4,1.8-2.2,2.6c-3,2.8-5.3,6.2-7.7,9.4
	c-1.8,2.3-3.6,4.6-5.6,6.8c-3,3.5-6,7-9.1,10.4c-2.6,2.9-5,6.1-7.1,9.4c-0.6,0.9-1.3,1.7-2,2.5c-3.4,3.7-6.9,7.3-10.3,11
	c-2.1,2.3-3.9,4.7-6.1,6.9c-2,2.1-4.3,4-6.5,5.9c-2.4,2-4.7,4-7.3,5.7c-4.1,2.6-8.4,4.9-12.5,7.5c-3.1,2-6.6,3.1-10.2,3.9
	c-3,0.7-6,1.2-9.1,1.5c-3.3,0.3-6.4-0.8-9.5-1.5c-0.6-0.2-1.3-0.5-1.9-0.4c-1.8,0.5-3.4-0.2-5-0.8c-2.9-1-5.8-2-8.6-3.2
	c-1.3-0.5-2.3-1.6-3.6-2.3c-5.2-2.7-9.9-6.3-14.4-10c-2.4-2-5-3.8-7.6-5.5c-1.9-1.1-3.5-2.7-5.4-3.9c-3.5-2.5-7.3-4.8-10.7-7.5
	c-4.5-3.6-9.6-6.3-14.4-9.3c-2.5-1.5-5.2-2.8-7.8-4c-3.5-1.6-6.9-3.4-9.9-5.9c-0.9-0.7-1.9-1.2-2.9-1.8c-4.3-2.5-8.4-5.2-12.8-7.4
	c-7.2-3.6-13.6-8.4-20.6-12.4c-2.3-1.3-4.5-3.1-6.7-4.6c-1.9-1.3-3.9-2.7-5.8-4c-5.7-4-10.9-8.6-14.8-14.5c-3.4-5.1-5.1-10.8-6-16.8
	c-0.5-3.9-0.9-7.7-0.5-11.6c0-0.4-0.1-0.9-0.1-1.3c-0.2-2.5-0.2-5,0.8-7.4c0.3-0.8,0.4-1.7,0.7-2.5c1.3-4.6,2.3-9.4,5.3-13.3
	c2.2-2.8,4.6-5.3,7.4-7.5c2.5-2.1,4.6-4.5,6.6-7c2.3-2.9,4.7-5.6,7.7-7.7c0.8-0.6,1.7-1.2,2.8-0.6c1.7,0.8,1.9,2,1,3.7
	c-1.2,2.4-2.2,4.8-3.1,7.3c-0.5,1.4-1.3,2.9-0.9,5c0.8-0.4,1.4-0.6,1.9-0.9c0.9-0.6,1.8-0.8,2.8,0c0.9,0.8,0.8,1.6,0.5,2.7
	c-0.8,2.4-1.5,4.9-2.2,7.4c-0.2,0.7-0.2,1.4-0.3,2.5c1.7-1.8,3.2-3,4.1-4.9c0.4-0.8,1-1.5,1.8-2.1c1.4-1,2.9-0.4,3.2,1.3
	c0.1,0.4,0.1,0.7,0,1.1c0,2.2-0.1,4.3-0.2,6.5c-0.1,1.1-0.3,2.2-0.4,3.5c1.1,0,1.7-0.6,2.4-1.2c1.1-0.9,2.2-1.9,3.2-2.8
	c0.8-0.7,1.7-1.1,2.7-0.5c1,0.6,1.1,1.6,0.8,2.7c-0.7,2.5-0.6,5.1-0.2,7.7c0.2,1.6,0.8,1.9,2.2,1.3c1.2-0.5,2.3-1.2,3.4-1.9
	c2-1.2,4.1-0.8,5.3,1.3c1.7,2.8,1.7,2.8,4.7,1.2c0.4-0.2,0.8-0.4,1.2-0.6c2.3-0.9,3.3-0.7,4.8,1.4c1.8,2.5,3.4,5.2,3.6,8.4
	c0.1,1.5,0.9,2.5,2,3.4c0.6,0.5,1.3,1.1,2,1.6 M112.7,257.7l-1.4,1.5c-0.6,0.6-1.1,1.4-1.7,1.9c-1.8,1.2-3.1,3-3.8,5.1
	c-1.3,3.8-3,7.6-3.2,11.7c-0.3,4-1.1,7.9-0.4,12c0.2,1.2,0.3,2.4,0.2,3.6c-0.1,4,1.1,7.6,2.7,11.1c1.2,2.6,2.8,5,4.4,7.4
	c1.2,1.7,2.6,3.2,4,4.7c0.7,0.8,1.6,1.4,2.4,2.1c1.9,1.6,3.7,3.4,5.8,4.8c5.7,3.9,11.5,7.8,17.3,11.6c5.3,3.4,10.7,6.6,16.2,9.8
	c6.7,3.9,13.5,7.6,20.2,11.3c3.8,2.1,7.7,4.1,11.4,6.4c4.7,3,9.3,6.2,13.9,9.3c6.3,4.3,12.5,8.6,18.7,13c3.1,2.2,6.2,4.7,9.3,6.9
	c4,2.9,8,5.8,12,8.7c0.4,0.3,0.9,0.5,1.3,0.7c3.9,1.8,7.8,3.2,12,4.1c2,0.4,4,1.2,6,1.6c5.6,1.2,11.1,0.4,16.6-0.9
	c0.5-0.1,1-0.3,1.4-0.5c4.3-2.3,8.6-4.5,12.8-7c2.9-1.7,5.8-3.4,8.3-5.7c2-1.9,4.2-3.7,6.3-5.6c2.5-2.4,5.1-4.7,7.2-7.4s4.7-5,7-7.6
	c2.6-2.9,5.3-5.8,7.9-8.8c3.2-3.8,6.3-7.6,9.4-11.5c3.7-4.5,7.4-9.1,11.1-13.7c1.5-1.8,2.9-3.7,4.4-5.6c1.7-2,3.4-3.9,5.1-5.8
	c2.1-2.6,4.2-5.3,6.3-7.9c2.1-2.7,4.3-5.3,6.5-8c2.2-2.8,4.4-5.6,6.7-8.4c1.9-2.3,4.1-4.3,5.9-6.8c1.1-1.6,2.6-3,3.9-4.6
	c1-1.3,1.8-2.8,2.9-4c3.2-3.2,5.7-7.1,9-10.3c2.9-2.8,5.1-6.1,7.9-9.1c5.8-6.3,11.7-12.5,17.6-18.8c0.8-0.8,1.6-1.6,2.5-2.4
	c2.4-2.2,4.7-4.4,7.3-6.4c3.4-2.6,7.1-4.9,10.6-7.3c1.5-1.1,3.1-2.1,4.5-3.3c3.2-2.5,6.4-4.8,10.1-6.5c0.7-0.3,1.4-1,1.9-1.7
	c3.7-4.8,6.2-10.1,7.1-16.2c0.6-4.8,0.9-9.6,1.4-14.3c0-0.5,0-1-0.1-1.5c-0.8-4.6-1.5-9.2-2.4-13.8c-0.9-4.3-2.9-8.2-6.3-11.2
	c-1.1-1-2.3-1.8-3.9-1.5c-2.7,0.5-5.3,1.1-8,1.7c-1.7,0.4-3.3,0.8-5,1.1c-2.9,0.5-5.8,0.7-8.7,1.2c-5.3,1-10.5,2.1-15.8,3.1
	c-3.1,0.6-6.3,1.2-9.4,1.9c-5.6,1.1-11.2,2.5-17,2.6c-0.5,0-1,0.1-1.5,0.2c-2.3,0.3-4.7,0.7-7,0.9c-2.5,0.2-5,0.3-7.5,0.5
	c-3.1,0.3-6.2,0.9-9.4,1.2c-1.8,0.2-3.5,0.5-5.2,1c-1.7,0.5-3.7,0-5.5,0c-2.4,0-4.7,0.3-7.1,0.3c-3.5,0-7-0.1-10.5-0.3
	c-2.7-0.2-5.5-0.3-8.1-0.9c-4.2-0.9-8.3-2.1-12.4-3.3c-4.8-1.4-9.3-3.3-13.5-5.9c-3.6-2.3-7.1-4.8-10.8-7
	c-6.2-3.7-11.2-8.7-16.4-13.4c-3.1-2.8-5.9-5.8-8.9-8.7c-1.1-1.1-2.2-2.1-3.2-3.2c-5.5-6.1-10.9-12.3-17.6-17.3
	c-1.2-0.9-2.5-1.9-3.9-2.5c-1.4-0.6-3.1-0.8-4.5-1.3c-2.6-0.9-5.2-0.6-7.8,0.1c-0.6,0.2-1.2,0.4-1.9,0.5c-4.3,0.7-8.2,2.4-12.3,3.8
	c-3.3,1.2-6.5,2.6-9.7,4c-2.7,1.1-5.4,2.3-8,3.5c-0.5,0.2-1,0.5-1.5,0.8c-2.4,1.5-4.8,3.1-7.2,4.7c-2.9,1.9-5.9,3.7-8.8,5.7
	c-3.8,2.7-7.4,5.7-11.1,8.4c-3.1,2.3-6.3,4.3-9.5,6.6c-2.4,1.7-4.7,3.5-7,5.3c-3.7,3-7.4,6-11.1,9.1c-0.4,0.3-0.7,0.9-1.1,1.3
	c-1.2,1.7-2.2,3.5-3.9,4.8c-0.4,0.3-0.7,0.8-0.8,1.2c-0.5,2-0.7,4,0.3,5.9c1.2,2.3,2.5,4.7,4.6,6.4c1.3,1,2.5,2.2,3.6,3.3
	c0.9,0.9,1.8,1.8,2.7,2.8c0.5,0.5,1,1,1.4,1.6c2.4,3.6,4.8,7.3,7.2,10.9c0.3,0.5,0.8,0.9,1.1,1.3c1.8,2,3.7,3.8,5.3,5.9
	c1.4,1.9,3.2,3.5,5.1,4.9c3.1,2.2,6.3,4.3,8.6,7.4c1.7,2.3,3.5,4.7,5.3,7c4.5,5.8,9,11.5,12.1,18.2c2.2,4.8,4.4,9.7,6.3,14.6
	c1.2,3.1,2,6.4,3,9.6c1.2,3.9,2.5,7.8,3.7,11.7c0.8,2.9,1.4,5.9,2.2,8.7c2.1,7.3,3.7,14.7,4.1,22.3c0.1,1.4-1.3,4-2.6,4.4
	c-1.4,0.5-2.8,0.1-4-0.8c-0.4-0.3-0.8-0.6-1.1-1c-1.9-1.6-3.7-3.3-5.7-4.9c-3.2-2.5-6.5-4.9-9.6-7.5c-3.9-3.3-8.5-5.6-12.9-8.1
	c-5.6-3.2-11.2-6.3-16.8-9.5c-1.8-1-3.5-2-5.4-2.7c-3.5-1.3-7.2-2.5-10.8-3.7c-2.6-0.9-5.4-1.5-7.9-2.8c-4.2-2.3-8.8-3.8-13.1-5.9
	c-0.9-0.4-1.8-0.9-2.5-1.6c-3.8-3.8-7-8-8.4-13.3C113.4,259.3,113.1,258.7,112.7,257.7L112.7,257.7z M532.7,148.7c-1,0-1.7,0-2.4,0
	c-1.3,0.1-2.6,0.5-3.9,0.4c-1.5-0.1-3-0.2-4.3-0.9c-2.6-1.2-2.8-3.3-0.9-5.4c0.4-0.4,0.9-0.8,1.2-1.2c0.5-0.7,1-1.4,1.4-2.2
	c0.5-1.1,0.1-1.7-1.1-1.6c-1.2,0.1-2.4,0.3-3.6,0.6c-6.2,1.6-12.4,3.1-18.5,4.8c-5.9,1.7-11.7,3.7-17.6,5.6
	c-1.3,0.4-2.6,0.9-3.8,1.4c-3.4,1.5-6.7,3.1-10.1,4.7c-3.2,1.4-5.9,3.5-8.4,5.8c-0.1,0.1-0.1,0.3-0.1,0.6c0.4,0.3,0.9,0.7,1.4,1.1
	c2.6,2.2,4.9,4.5,6.5,7.6c1.4,2.9,2.3,5.9,2.9,9c0.5,2.7,1,5.5,1.4,8.2c0.3,2.3,0.8,4.6,0.6,6.8c-0.4,3.7-0.3,7.4-1,11.1
	c-0.8,4-2.1,7.9-4,11.4c-0.5,0.9-0.9,1.8-1.3,2.7c1.2,0.6,2.1,0.2,3-0.2c4.9-2.2,10.2-3.5,15.5-4.1c7.6-0.8,15.1-1.4,22.7-2.1
	c5-0.5,10-0.9,15-1.3c2.1-0.2,4.3-0.3,6.4-0.5c5.9-0.6,11.8-1.6,17.2-4.3c1.1-0.6,2.1-1.5,3-2.4c0.8-0.8,0.8-1.6-0.1-2.4
	c-1.5-1.5-3.1-2.5-5.2-2.7c-2.1-0.2-4.2-0.7-6.3-1.3c-1-0.3-1.9-1-2.7-1.7c-0.9-0.6-1-1.5-0.5-2.5c0.3-0.6,0.7-1.2,1.1-1.9
	c0.6-1.2,1.4-2.3,1.9-3.6c0.8-2.1,0.4-2.8-1.6-3.6c-0.8-0.3-1.7-0.5-2.4-1c-1.3-0.8-2.6-1.5-3.7-2.5c-1.6-1.5-1.6-3.3-0.3-5
	c0.6-0.9,1.4-1.6,2.2-2.4c1-1.1,2.2-2.1,3-3.3c1.3-1.9,1.1-2.8-0.7-4.2c-0.4-0.3-0.8-0.5-1.3-0.8c-1.5-0.9-3-1.7-4.4-2.7
	c-2.3-1.7-2.5-2.9-0.8-5.3c1.1-1.7,2.3-3.3,3.5-4.9C532,151.7,532.5,150.5,532.7,148.7L532.7,148.7z M254.9,120
	c1.4,1.3,2.7,2.4,3.9,3.6c2.7,2.8,5.4,5.7,8,8.6c1.1,1.2,2,2.5,3.1,3.5c2.5,2.5,5.1,4.8,7.7,7.2c1.3,1.2,2.8,2.3,3.9,3.7
	c2.8,3.4,6.3,6,9.8,8.7c2.6,2.1,5.4,3.9,8.2,5.8c3.1,2.1,6.1,4.3,9.4,6c4.3,2.3,8.7,4.2,13.5,5.4c4.7,1.2,9.3,2.7,14.2,3.2
	c6.9,0.7,13.8,0.8,20.8-0.2c1.2-0.2,2-0.6,2.7-1.5c3.5-4.8,7.6-9,11.6-13.2c1.5-1.5,3.2-2.9,4.7-4.4c0.8-0.8,1.6-1.6,1.1-3.1
	c-0.8,0-1.6,0-2.3,0.1c-2.5,0.4-4.9,0.7-7.4,1.2c-1.6,0.3-3.2,0-4.6-0.8c-2.1-1.2-3.8-2.8-3.4-5.7c0.2-0.9-0.2-1.9-0.4-3l-7.1,1.8
	c-3.7,1-7.3,1.2-10.6-1.5c-1.6-1.3-2.1-2.8-1.7-4.7c0.2-1.1,0.4-2.3,0.5-3.4c0.1-1.3-0.2-1.7-1.5-1.8c-0.6-0.1-1.1-0.1-1.7,0
	c-4.2,0.3-8.4,0.6-12.6,1.1c-2.1,0.3-4,0-5.8-1c-2.6-1.5-3.3-3-3.1-6c0.1-1.7,0.9-3.1,1.6-4.6c0.5-1.1,0.1-1.7-1.1-1.6
	c-1.1,0.1-2.1,0.3-3.1,0.6c-3.2,1-6.3,1.6-9.7,0.5c-3.2-1.1-4.6-3.4-3.5-6.6c0.4-1.1,0.8-2.3,1.1-3.5c0.3-1.4-0.3-2.1-1.8-1.9
	c-4.7,0.4-9.4,0.4-14.1,1.3c-1.4,0.3-2.9,0.3-4.2,0.7c-7,2-14,3.5-21.3,3.9C258.2,118.6,256.5,118.5,254.9,120L254.9,120z
	 M188.3,129.7c-1.3-2.3-2.6-4.5-3.9-6.7c-1.9-2.9-3.9-5.6-5.8-8.5c-3.9-5.8-7.7-11.6-11.6-17.3c-2.3-3.5-4.8-7-7-10.5
	c-2.1-3.3-4-6.8-6-10.2c-1.6-2.7-3-5.5-4.6-8.2c-1.7-2.9-3.6-5.7-5.4-8.5c-0.6-1-1.3-2-2-3c-2-2.9-4.2-5.6-6.1-8.6
	c-2.7-4.3-5.6-8.5-9.3-12c-1.7-1.6-3.3-3.2-4.8-4.9c-3.7-3.9-7.3-7.9-11.1-11.7c-2-2-4.1-3.7-7.2-3.9c-1.6-0.1-3-0.6-4.5,0.3
	c-0.3,0.2-0.7,0.2-1,0.2c-2.1,0-3.9,0.9-5.6,2c-2,1.4-4.1,2.6-6,4.1c-1.2,0.9-2.3,2.2-3.5,3.1c-1.7,1.2-2.8,2.8-4,4.5
	c-2.2,3.1-3.9,6.6-6.5,9.6c-3.8,4.4-7.4,8.9-10.3,13.9c-2.4,4.1-4.7,8.2-7.1,12.2c-1,1.7-2,3.3-3,4.9c-0.8,1.3-1.8,2.6-2.4,4
	c-1.6,3.8-4,7.3-5.1,11.3c-0.1,0.5-0.5,0.9-0.7,1.3c-1.6,4-3.3,7.9-4.8,11.9c-0.4,1-0.3,2.3-0.6,3.4c-0.6,1.6-1.3,3.2-2.1,4.7
	c-1.1,2.2-2.2,4.3-3.3,6.5c-1.3,2.6-2.5,5.1-2.9,8c-0.3,2,0.7,3.7,2.4,4.3c1.4,0.5,6.6-0.5,7.7-2c1.9-2.6,3.4-5.3,3.1-8.7
	c-0.3-3.1-0.8-6.2-0.8-9.4c0-4.9,1.3-9.4,3.4-13.8c1.1-2.4,2.6-4.6,3.9-6.9c3.5-6.2,6.9-12.5,10.5-18.7c1.7-3,3.6-6,5.5-9
	c1.7-2.6,3.8-5.1,5.3-7.8c2.4-4.3,5.5-8.2,8.5-12.1c0.9-1.2,1.9-2.3,2.7-3.6c1.7-2.6,3.9-4.8,5.4-7.6c0.1-0.2,0.3-0.3,0.5-0.4
	c1.4-1.2,2.7-2.3,4.1-3.5c4.6-4,8.7-3.3,13.6-1.2c1.9,0.8,3.4,2.3,5,3.6c1.4,1.1,2.7,2.3,4,3.6c1.7,1.7,3.5,3.4,5.1,5.2
	c1.8,2.1,3.4,4.3,5,6.5c1,1.3,1.9,2.6,2.9,4c2.2,3.2,4.3,6.4,6.5,9.6c0.2,0.3,0.5,0.6,0.6,0.9c2.9,4.8,5.9,9.5,9.2,14
	c0.2,0.2,0.3,0.5,0.5,0.7c2.4,4.1,4.6,8.2,7.1,12.2c3.4,5.4,7.1,10.6,10.6,15.9c0.7,1.1,1.3,2.2,1.9,3.3c1.6,2.7,3.1,5.5,4.9,8
	c3.4,4.7,7.4,9.1,10.1,14.4c0.1,0.2,0.3,0.3,0.4,0.5c1.2,1.7,2.5,3.5,3.7,5.2C184.8,132.1,185.3,132.2,188.3,129.7L188.3,129.7z
	 M135.8,198.4c1.7-1.5,3.3-2.7,4.7-4c0.5-0.5,0.4-1.1,0-1.5c-0.9-0.9-1.9-1.9-2.8-2.9C136.6,192,135.5,196.6,135.8,198.4
	L135.8,198.4z M163.4,223.9c1.4,0,2.5-1,2.6-2.4c0-1.3-1.3-2.6-2.6-2.6c-1.2,0-2.4,1.3-2.4,2.6C160.9,222.8,162,223.9,163.4,223.9
	L163.4,223.9z M152.5,214.5c1.3-0.7,2.1-1.1,2.9-1.5c0.6-0.4,1-1,0.5-1.6c-0.8-1.1-1.3-2.4-2.8-3
	C151.8,210.2,152.3,212.1,152.5,214.5L152.5,214.5z M132.3,266.4l-0.4-0.3c-1.1,1-2.2,2-3.1,3.1c-0.3,0.3-0.4,1.3-0.2,1.5
	c0.7,0.5,1.5,0.9,2.4,1.1c0.2,0,0.9-0.7,0.9-1.1C132.2,269.2,132.2,267.8,132.3,266.4L132.3,266.4z M123.8,260.3l-4.2,0.6
	c0.9,1.7,1.5,3.2,3.3,4C123.9,263.4,123.6,261.9,123.8,260.3L123.8,260.3z M165.3,286.2c-0.4-1.8-0.5-3.2-1.5-4.3
	c-1.5,0.2-2.2,1.2-2.9,2.3C161.9,285.6,163.3,285.8,165.3,286.2z M141,275.1c-0.2-1.1-0.1-2-1.2-2.1c-0.8-0.1-1.8,0.7-1.9,1.4
	s1,1.8,1.9,1.6C140.3,276,140.7,275.4,141,275.1L141,275.1z M118.3,254.9c0.9-1.6,1.6-2.9,1.2-4.6
	C117.3,251.8,117,252.7,118.3,254.9z M131.8,183.6c2.2-0.3,2.2-0.4,0.9-1.7L131.8,183.6z M176,231.1l-1.6-1.7l-0.4,0.2l0.5,2
	L176,231.1L176,231.1z M146.5,200.1c-0.3,0.8-0.4,1.4,0.4,1.9C147.8,201.2,147.3,200.7,146.5,200.1z"/>
<path fill="none" d="M112.7,257.7c0.4,1,0.7,1.6,0.9,2.3c1.4,5.3,4.6,9.5,8.4,13.3c0.7,0.7,1.6,1.2,2.5,1.6
	c4.3,2.1,8.9,3.6,13.1,5.9c2.4,1.3,5.2,1.9,7.9,2.8c3.6,1.2,7.2,2.3,10.8,3.7c1.9,0.7,3.6,1.7,5.4,2.7c5.6,3.1,11.3,6.2,16.8,9.5
	c4.4,2.6,9,4.8,12.9,8.1c3.1,2.6,6.5,5,9.6,7.5c2,1.5,3.8,3.2,5.7,4.9c0.4,0.3,0.8,0.7,1.1,1c1.2,0.9,2.6,1.4,4,0.8
	c1.3-0.5,2.6-3.1,2.6-4.4c-0.4-7.6-2-15-4.1-22.3c-0.8-2.9-1.4-5.9-2.2-8.7c-1.1-3.9-2.5-7.8-3.7-11.7c-1-3.2-1.7-6.5-3-9.6
	c-1.9-4.9-4.1-9.8-6.3-14.6c-3.1-6.7-7.7-12.4-12.1-18.2c-1.8-2.3-3.5-4.7-5.3-7c-2.3-3.1-5.4-5.2-8.6-7.4c-2-1.3-3.7-3-5.1-4.9
	c-1.6-2.1-3.5-4-5.3-5.9c-0.4-0.4-0.8-0.8-1.1-1.3c-2.4-3.6-4.8-7.3-7.3-10.8c-0.4-0.6-0.9-1.1-1.4-1.6c-0.9-0.9-1.8-1.9-2.7-2.8
	c-1.2-1.1-2.3-2.3-3.6-3.3c-2.2-1.7-3.4-4-4.6-6.4c-1-1.9-0.8-3.9-0.3-5.9c0.1-0.5,0.4-0.9,0.8-1.2c1.7-1.3,2.7-3.2,3.9-4.8
	c0.3-0.5,0.6-1,1.1-1.3c3.7-3.1,7.4-6.1,11.1-9.1c2.3-1.8,4.6-3.6,7-5.3c3.1-2.2,6.4-4.3,9.5-6.6c3.7-2.7,7.3-5.7,11.1-8.4
	c2.8-2,5.8-3.8,8.8-5.7c2.4-1.6,4.8-3.1,7.2-4.7c0.5-0.3,1-0.6,1.5-0.8c2.7-1.2,5.3-2.3,8-3.5c3.2-1.4,6.4-2.8,9.7-4
	c4-1.5,8-3.1,12.3-3.8c0.6-0.1,1.2-0.3,1.9-0.5c2.6-0.6,5.2-1,7.8-0.1c1.5,0.5,3.1,0.7,4.5,1.3c1.4,0.6,2.7,1.6,3.9,2.5
	c6.6,5,12,11.2,17.6,17.3c1,1.1,2.1,2.1,3.2,3.2c2.9,2.9,5.8,6,8.9,8.7c5.2,4.7,10.3,9.8,16.4,13.4c3.7,2.2,7.2,4.7,10.8,7
	c4.2,2.7,8.8,4.5,13.5,5.9c4.1,1.2,8.2,2.4,12.4,3.3c2.6,0.6,5.4,0.7,8.1,0.9c3.5,0.2,7,0.3,10.5,0.3c2.3,0,4.7-0.2,7.1-0.3
	c1.9,0,3.8,0.5,5.5,0c1.7-0.5,3.4-0.9,5.2-1c3.1-0.3,6.2-0.9,9.4-1.2c2.5-0.3,5-0.3,7.5-0.5c2.3-0.2,4.7-0.6,7-0.9
	c0.5-0.1,1-0.2,1.5-0.2c5.8-0.1,11.3-1.5,17-2.6c3.1-0.6,6.3-1.2,9.4-1.9c5.3-1,10.5-2.1,15.8-3.1c2.9-0.5,5.8-0.8,8.7-1.2
	c1.7-0.3,3.4-0.7,5-1.1c2.7-0.6,5.3-1.2,8-1.7c1.6-0.3,2.7,0.5,3.9,1.5c3.5,3,5.4,6.8,6.3,11.2c1,4.6,1.6,9.2,2.4,13.8
	c0.1,0.5,0.1,1,0.1,1.5c-0.4,4.8-0.7,9.6-1.4,14.3c-0.8,6-3.4,11.4-7.1,16.2c-0.5,0.7-1.2,1.4-1.9,1.7c-3.7,1.6-6.9,4-10.1,6.5
	c-1.5,1.1-3,2.2-4.5,3.3c-3.5,2.4-7.2,4.7-10.6,7.3c-2.6,1.9-4.9,4.2-7.3,6.4c-0.9,0.8-1.7,1.5-2.5,2.4
	c-5.9,6.3-11.8,12.5-17.6,18.8c-2.7,2.9-5,6.3-7.9,9.1c-3.3,3.2-5.8,7.1-9,10.3c-1.1,1.2-1.9,2.7-2.9,4c-1.2,1.6-2.7,3-3.9,4.6
	c-1.7,2.5-3.9,4.5-5.9,6.8c-2.3,2.8-4.5,5.6-6.7,8.4c-2.1,2.7-4.3,5.3-6.5,8c-2.1,2.6-4.2,5.3-6.3,7.9c-1.6,2-3.4,3.9-5.1,5.8
	c-1.5,1.8-2.9,3.7-4.4,5.6c-3.7,4.6-7.4,9.1-11.1,13.7c-3.1,3.8-6.2,7.7-9.4,11.5c-2.5,3-5.2,5.9-7.9,8.8c-2.3,2.5-4.8,4.9-7,7.6
	c-2.2,2.7-4.7,5-7.2,7.4c-2,1.9-4.2,3.7-6.3,5.6c-2.5,2.3-5.4,4-8.3,5.7c-4.2,2.5-8.5,4.7-12.8,7c-0.5,0.2-0.9,0.4-1.4,0.5
	c-5.5,1.3-11,2.2-16.6,0.9c-2-0.5-4-1.2-6-1.6c-4.2-0.8-8.1-2.3-12-4.1c-0.5-0.2-0.9-0.4-1.3-0.7c-4-2.9-8-5.7-12-8.7
	c-3.1-2.3-6.1-4.7-9.3-6.9c-6.2-4.4-12.4-8.7-18.7-13c-4.6-3.2-9.2-6.4-13.9-9.3c-3.7-2.3-7.6-4.3-11.4-6.4
	c-6.8-3.8-13.5-7.5-20.2-11.3c-5.4-3.2-10.8-6.4-16.2-9.8c-5.9-3.7-11.6-7.6-17.3-11.6c-2-1.4-3.9-3.2-5.8-4.8
	c-0.8-0.7-1.7-1.3-2.4-2.1c-1.4-1.5-2.8-3-4-4.7c-1.6-2.4-3.2-4.8-4.4-7.4c-1.7-3.5-2.9-7.1-2.7-11.1c0.1-1.2,0-2.4-0.2-3.6
	c-0.7-4,0.2-8,0.4-12c0.3-4.2,2-7.9,3.2-11.7c0.7-2.1,2-3.9,3.8-5.1c0.7-0.5,1.2-1.2,1.7-1.9L112.7,257.7L112.7,257.7z M338.4,206.1
	c0.1-1.5,0.5-3,1.3-4.3c1.9-3.4,0.1-6.8-3.8-6.9c-3-0.1-5.9,0.3-8.5,1.9c-1,0.6-2.1,0.9-3.2,1.3c-3.8,1.4-7.7,2.2-11.2,4.3
	c-2.6,1.6-5.4,3-8,4.7c-4.3,2.8-8.6,5.6-12.8,8.6c-3.7,2.6-7.2,5.4-11.3,7.4c-3.7,1.8-7.5,3.5-11.3,5.2c-1.9,0.9-3.8,1.2-5.9,0.7
	c-0.9-0.2-1.7-0.7-2.6-1c-2-0.7-3.8,0.5-3.9,2.6c0,0.9,0,1.7,0.2,2.6c1,4.3,1.7,8.6,3.6,12.8c2.2,4.8,4.9,9.2,8,13.4
	c1,1.4,2.4,2.3,4.2,2.4c4.3,0.2,8.6,0.3,12.9,0.3c1.9,0,3.8-0.6,5.7-1.1c3.5-0.9,7-2.1,10.5-3.1c6.5-1.9,12.9-3.8,19.4-5.7
	c3.2-0.9,6.4-1.7,9.5-2.6c8-2.3,16-4.8,24.1-7.1c4.1-1.2,8.2-2.6,11.9-4.6c2.8-1.5,4.3-3.9,4.8-6.9c0.5-3.1-0.8-4.5-3.9-4.4
	c-2.1,0-4.3,0.1-6.4,0.2c-1.9,0.1-2.4-0.5-1.8-2.3c0.6-1.7,1.3-3.3,1.9-5c1.3-3.5-0.1-5.3-3.7-5c-1.9,0.2-3.9,0.4-5.8,0.5
	c-1,0.1-2,0.1-2.4-0.7c0.7-1.6,1.4-2.9,1.7-4.4c0.8-3.7-0.1-4.8-3.9-4.5c-2.3,0.2-4.5,0.7-6.8,0.9
	C340.1,206.2,339.3,206.1,338.4,206.1L338.4,206.1z M185.5,167.9c0,2.5,1,4.2,2.5,4.5c0.9,0.2,1.9,0.3,2.8,0.3
	c3.2-0.2,6.3-3.9,4.3-7.1c-0.9-1.5-2.3-2.5-3.9-3.2c-0.7-0.2-1.4-0.2-2,0.1C186.9,163.9,185.6,165.8,185.5,167.9L185.5,167.9z"/>
<path fill="none" d="M532.7,148.7c-0.2,1.8-0.7,3-1.5,4.1c-1.2,1.6-2.4,3.2-3.5,4.9c-1.6,2.3-1.5,3.5,0.8,5.3c1.4,1,2.9,1.8,4.4,2.7
	c0.5,0.2,0.9,0.5,1.3,0.8c1.8,1.4,2,2.3,0.7,4.2c-0.9,1.2-2,2.2-3,3.3c-0.7,0.8-1.5,1.5-2.2,2.4c-1.3,1.7-1.2,3.6,0.3,5
	c1.1,1,2.4,1.8,3.7,2.5c0.7,0.4,1.6,0.6,2.4,1c2,0.8,2.4,1.6,1.6,3.6c-0.5,1.2-1.2,2.4-1.9,3.6c-0.3,0.6-0.8,1.2-1.1,1.9
	c-0.5,0.9-0.3,1.9,0.5,2.5c0.9,0.6,1.7,1.4,2.7,1.7c2,0.6,4.2,1.1,6.3,1.3c2.2,0.2,3.8,1.2,5.2,2.7c0.8,0.8,0.9,1.7,0.1,2.4
	c-0.9,0.9-1.9,1.8-3,2.4c-5.4,2.7-11.2,3.8-17.2,4.3c-2.1,0.2-4.3,0.3-6.4,0.5c-5,0.4-10,0.9-15,1.3c-7.6,0.7-15.1,1.3-22.7,2.1
	c-5.4,0.5-10.6,1.9-15.5,4.1c-0.9,0.4-1.9,0.7-3,0.2c0.5-1,0.9-1.9,1.3-2.7c1.9-3.6,3.2-7.4,4-11.4c0.7-3.7,0.7-7.4,1-11.1
	c0.2-2.2-0.3-4.5-0.6-6.8c-0.4-2.8-0.8-5.5-1.4-8.2c-0.6-3.1-1.5-6.1-2.9-9c-1.5-3.1-3.9-5.5-6.5-7.6c-0.5-0.4-1-0.8-1.4-1.1
	c0.1-0.4,0-0.6,0.1-0.6c2.6-2.3,5.3-4.3,8.4-5.8c3.4-1.5,6.7-3.1,10.1-4.7c1.2-0.5,2.5-1,3.8-1.4c5.9-1.9,11.7-3.9,17.6-5.6
	c6.1-1.8,12.3-3.2,18.5-4.8c1.2-0.3,2.4-0.5,3.6-0.6c1.2-0.1,1.6,0.5,1.1,1.6c-0.4,0.8-0.8,1.5-1.4,2.2c-0.3,0.5-0.8,0.8-1.2,1.2
	c-1.9,2.1-1.7,4.2,0.9,5.4c1.3,0.6,2.9,0.8,4.3,0.9c1.3,0.1,2.6-0.3,3.9-0.4C531,148.6,531.7,148.7,532.7,148.7L532.7,148.7z
	 M498.9,163.6l-0.3,0.4 M254.9,120c1.5-1.5,3.3-1.4,4.9-1.5c7.3-0.5,14.3-2,21.3-3.9c1.4-0.4,2.8-0.5,4.2-0.7
	c4.6-0.9,9.4-0.9,14.1-1.3c1.4-0.1,2,0.5,1.8,1.9c-0.2,1.2-0.7,2.3-1.1,3.5c-1.1,3.2,0.3,5.5,3.5,6.6c3.4,1.1,6.5,0.5,9.7-0.5
	c1-0.3,2.1-0.5,3.1-0.6c1.2-0.1,1.5,0.4,1.1,1.6c-0.6,1.5-1.5,2.9-1.6,4.6c-0.2,3,0.5,4.5,3.1,6c1.8,1,3.7,1.3,5.8,1
	c4.2-0.5,8.4-0.8,12.6-1.1c0.6,0,1.1,0,1.7,0c1.3,0.2,1.6,0.5,1.5,1.8c-0.1,1.1-0.3,2.3-0.5,3.4c-0.4,1.9,0.2,3.4,1.7,4.7
	c3.3,2.7,6.8,2.5,10.6,1.5l7.1-1.8c0.2,1.1,0.5,2.1,0.4,3c-0.5,2.9,1.3,4.5,3.4,5.7c1.4,0.8,3,1.1,4.6,0.8c2.5-0.4,4.9-0.8,7.4-1.2
	c0.8-0.1,1.5-0.1,2.3-0.1c0.5,1.5-0.3,2.3-1.1,3.1c-1.6,1.5-3.2,2.8-4.7,4.4c-4.1,4.2-8.2,8.4-11.6,13.2c-0.7,0.9-1.5,1.4-2.7,1.5
	c-6.9,0.9-13.8,0.9-20.8,0.2c-4.9-0.5-9.5-2-14.2-3.2c-4.8-1.2-9.2-3.2-13.5-5.4c-3.3-1.7-6.3-3.9-9.4-6c-2.8-1.9-5.6-3.7-8.2-5.8
	c-3.4-2.7-6.9-5.3-9.8-8.7c-1.1-1.4-2.6-2.4-3.9-3.7c-2.6-2.4-5.1-4.8-7.7-7.2c-1.1-1.1-2-2.4-3.1-3.5c-2.6-2.9-5.3-5.8-8-8.6
	C257.6,122.4,256.3,121.3,254.9,120L254.9,120z M188.3,129.7c-3,2.4-3.5,2.3-5.4-0.5c-1.2-1.8-2.5-3.5-3.7-5.2
	c-0.2-0.2-0.3-0.3-0.4-0.5c-2.8-5.2-6.7-9.6-10.1-14.4c-1.8-2.5-3.3-5.4-4.9-8c-0.7-1.1-1.2-2.3-1.9-3.3
	c-3.5-5.3-7.2-10.5-10.6-15.9c-2.5-4-4.7-8.1-7.1-12.2c-0.1-0.3-0.3-0.5-0.5-0.7c-3.3-4.5-6.3-9.2-9.2-14c-0.2-0.3-0.4-0.6-0.6-0.9
	c-2.2-3.2-4.3-6.4-6.5-9.6c-0.9-1.4-1.9-2.7-2.9-4c-1.6-2.2-3.2-4.4-5-6.5c-1.6-1.8-3.4-3.5-5.1-5.2c-1.3-1.2-2.6-2.5-4-3.6
	c-1.6-1.3-3.1-2.8-5-3.6c-4.9-2.1-9-2.8-13.6,1.2c-1.4,1.2-2.7,2.3-4.1,3.5c-0.2,0.1-0.4,0.2-0.5,0.4c-1.5,2.8-3.7,5-5.4,7.6
	c-0.8,1.2-1.8,2.4-2.7,3.6c-3,3.9-6.1,7.7-8.5,12.1c-1.5,2.7-3.6,5.1-5.3,7.8c-1.9,2.9-3.8,5.9-5.5,9c-3.5,6.2-7,12.5-10.5,18.7
	c-1.3,2.3-2.7,4.6-3.9,6.9c-2,4.3-3.4,8.8-3.4,13.8c0,3.2,0.5,6.3,0.8,9.4c0.3,3.4-1.2,6.1-3.1,8.7c-1.1,1.5-6.3,2.5-7.7,2
	c-1.7-0.6-2.7-2.4-2.4-4.3c0.4-2.9,1.6-5.5,2.9-8c1.1-2.2,2.2-4.3,3.3-6.5c0.8-1.5,1.5-3.1,2.1-4.7c0.4-1.1,0.2-2.3,0.6-3.4
	c1.5-4,3.2-8,4.8-11.9c0.2-0.5,0.5-0.9,0.7-1.3c1.1-4,3.5-7.5,5.1-11.3c0.6-1.4,1.6-2.7,2.4-4c1-1.6,2-3.3,3-4.9
	c2.4-4.1,4.7-8.2,7.1-12.2c2.9-5,6.6-9.6,10.3-13.9c2.5-3,4.3-6.4,6.5-9.6c1.2-1.6,2.3-3.3,4-4.5c1.3-0.9,2.3-2.2,3.5-3.1
	c2-1.4,4-2.7,6-4.1c1.7-1.1,3.4-2,5.6-2c0.4,0,0.7-0.1,1-0.2c1.5-0.9,2.9-0.4,4.5-0.3c3.1,0.3,5.2,1.9,7.2,3.9
	c3.8,3.8,7.4,7.8,11.1,11.7c1.6,1.7,3.2,3.3,4.8,4.9c3.7,3.5,6.6,7.7,9.3,12c1.9,3,4,5.7,6.1,8.6c0.7,1,1.4,2,2,3
	c1.9,2.8,3.7,5.6,5.4,8.5c1.6,2.7,3.1,5.5,4.6,8.2c2,3.4,3.9,6.8,6,10.2c2.3,3.6,4.7,7,7,10.5c3.9,5.8,7.7,11.6,11.6,17.3
	c1.9,2.8,3.9,5.6,5.8,8.5C185.7,125.2,187,127.5,188.3,129.7L188.3,129.7z M135.8,198.4c-0.3-1.9,0.8-6.5,1.9-8.4
	c1,1,1.9,1.9,2.8,2.9c0.5,0.5,0.6,1.1,0,1.5C139.1,195.7,137.5,196.9,135.8,198.4L135.8,198.4z M163.4,223.9c-1.4,0-2.5-1.1-2.5-2.4
	s1.2-2.6,2.4-2.6c1.3,0,2.7,1.4,2.6,2.6C165.9,222.9,164.7,223.9,163.4,223.9L163.4,223.9z M152.5,214.5c-0.2-2.4-0.7-4.3,0.7-6.2
	c1.5,0.6,2,2,2.8,3c0.5,0.6,0.1,1.2-0.5,1.6C154.6,213.4,153.8,213.8,152.5,214.5L152.5,214.5z M132.3,266.4
	c-0.1,1.4-0.1,2.8-0.3,4.2c-0.1,0.4-0.7,1.2-0.9,1.1c-0.9-0.2-1.7-0.6-2.4-1.1c-0.2-0.2-0.1-1.2,0.2-1.5c1-1.1,2.1-2,3.1-3.1
	L132.3,266.4L132.3,266.4z M123.8,260.3c-0.2,1.6,0.2,3.1-0.9,4.6c-1.8-0.8-2.4-2.3-3.3-4L123.8,260.3L123.8,260.3z M165.3,286.2
	c-2-0.4-3.4-0.6-4.5-1.9c0.8-1.1,1.4-2.2,2.9-2.3C164.8,283,164.8,284.4,165.3,286.2L165.3,286.2z M141,275.1
	c-0.3,0.3-0.7,0.8-1.2,0.9c-0.9,0.2-2-0.9-1.9-1.6s1.1-1.5,1.9-1.4C140.9,273.1,140.7,274.1,141,275.1L141,275.1z M118.3,254.9
	c-1.3-2.2-1.1-3.1,1.2-4.6C119.9,252.1,119.2,253.4,118.3,254.9z M176,231.1l-1.5,0.5l-0.5-2l0.4-0.2L176,231.1L176,231.1z
	 M146.5,200.1c0.8,0.6,1.3,1,0.4,1.9C146.1,201.6,146.2,201,146.5,200.1z"/>
<path fill="#FFC107" d="M338.4,206.1c0.9,0,1.7,0.1,2.5,0c2.3-0.3,4.5-0.8,6.8-0.9c3.8-0.3,4.7,0.8,3.9,4.5
	c-0.3,1.4-1.1,2.8-1.7,4.4c0.4,0.8,1.5,0.8,2.4,0.7c1.9-0.1,3.9-0.3,5.8-0.5c3.7-0.3,5,1.5,3.7,5c-0.6,1.7-1.3,3.3-1.9,5
	c-0.6,1.8-0.1,2.3,1.8,2.3c2.1-0.1,4.3-0.1,6.4-0.2c3.1,0,4.4,1.4,3.9,4.4c-0.5,3-2,5.4-4.8,6.9c-3.8,2-7.8,3.4-11.9,4.6
	c-8,2.3-16,4.8-24.1,7.1c-3.2,0.9-6.3,1.7-9.5,2.6c-6.5,1.9-12.9,3.8-19.4,5.7c-3.5,1-7,2.2-10.5,3.1c-1.9,0.5-3.8,1-5.7,1.1
	c-4.3,0.1-8.6-0.1-12.9-0.3c-1.7-0.1-3.1-1-4.2-2.4c-3.1-4.2-5.8-8.6-8-13.4c-1.9-4.1-2.6-8.4-3.6-12.8c-0.2-0.8-0.3-1.7-0.2-2.6
	c0.1-2.1,1.9-3.3,3.9-2.6c0.9,0.3,1.7,0.7,2.6,1c2,0.5,4,0.2,5.9-0.7c3.8-1.7,7.5-3.5,11.3-5.2c4.1-1.9,7.6-4.7,11.3-7.4
	c4.2-3,8.5-5.8,12.8-8.6c2.6-1.7,5.3-3.1,8-4.7c3.5-2.1,7.4-2.9,11.2-4.3c1.1-0.4,2.2-0.7,3.2-1.3c2.6-1.6,5.5-2,8.5-1.9
	c3.9,0.1,5.7,3.5,3.8,6.9C338.9,203.1,338.5,204.6,338.4,206.1L338.4,206.1z M283.8,258.8c2.8,0,5.4-0.7,8-1.7
	c2.8-1.1,5.6-2.1,8.5-3.1c2.7-0.9,5.5-1.6,8.3-2.4c9.1-2.5,18.2-5.1,27.3-7.6c7.6-2.1,15.2-4.1,22.7-6.4c2.6-0.8,5.1-2.2,7.6-3.5
	c1-0.6,1.8-1.7,2.3-2.7c0.6-1.2-0.1-2.1-1.4-2.2c-1.1-0.1-2.3,0.1-3.4,0.1c-1.6,0-3.2,0.1-4.7-0.1c-3.2-0.5-4.3-2.7-3.1-5.6
	c0.6-1.3,1.4-2.5,1.9-3.8c0.8-1.7,0.1-2.5-1.8-2.4c-2,0.2-4,0.2-6,0.1c-1.3-0.1-2.5-0.5-3.7-1c-1.2-0.5-1.5-1.4-0.9-2.6
	c0.5-1.1,1-2.2,1.5-3.3c0.6-1.2,0.1-2.2-1.3-2.3c-0.5,0-1,0.1-1.5,0.2c-1.7,0.3-3.4,0.8-5.1,0.8c-1.4,0-2.8-0.6-4-1.2
	c-0.5-0.3-0.9-1.3-1-2c-0.1-0.7,0.3-1.5,0.5-2.3c0.3-1.2,0.7-2.5,0.9-3.7c0.2-1.5-0.5-2-1.9-1.6c-1.1,0.3-2.1,0.9-3.2,1.3
	c-6.6,2.1-12.8,5.3-18.7,9.1c-8,5.1-16.1,9.9-24.2,14.7c-1.2,0.7-2.5,1.3-3.8,2c-3.4,1.7-6.7,3.5-10.2,5c-2.4,1-4.7,2.5-7.6,1.9
	c-0.4-0.1-0.8,0.1-1.3,0.2c-1.4,0.3-1.8,0.9-1.5,2.3c0.2,0.8,0.6,1.5,0.7,2.3c0.3,3.9,2.3,7.2,3.9,10.6c1.1,2.4,2.8,4.5,4.5,6.6
	c1.4,1.8,3.1,3.2,5.4,3.6C279.5,258.4,281.6,258.6,283.8,258.8L283.8,258.8z M185.5,167.9c0.1-2.2,1.4-4.1,3.6-5.4
	c0.6-0.3,1.4-0.4,2-0.1c1.6,0.7,3,1.7,3.9,3.2c2,3.2-1.1,6.9-4.3,7.1c-0.9,0-1.9-0.1-2.8-0.3C186.4,172.1,185.5,170.4,185.5,167.9
	L185.5,167.9z"/>
<path fill="none" d="M283.8,258.8c-2.1-0.3-4.3-0.5-6.4-0.8c-2.3-0.4-4.1-1.8-5.4-3.6c-1.6-2.1-3.4-4.2-4.5-6.6
	c-1.6-3.4-3.6-6.7-3.9-10.6c-0.1-0.8-0.5-1.5-0.7-2.3c-0.3-1.4,0.1-2,1.5-2.3c0.4-0.1,0.9-0.3,1.3-0.2c2.8,0.6,5.2-0.8,7.6-1.9
	c3.5-1.5,6.8-3.3,10.2-5c1.3-0.6,2.6-1.2,3.8-2c8.1-4.9,16.2-9.7,24.2-14.7c5.9-3.7,12-6.9,18.7-9.1c1.1-0.3,2.1-1,3.2-1.3
	c1.5-0.4,2.1,0.1,1.9,1.6c-0.1,1.3-0.6,2.5-0.9,3.7c-0.2,0.8-0.6,1.5-0.5,2.3c0.1,0.7,0.4,1.7,1,2c1.2,0.6,2.7,1.1,4,1.2
	c1.7,0,3.4-0.5,5.1-0.8c0.5-0.1,1-0.2,1.5-0.2c1.3,0.1,1.8,1,1.3,2.3c-0.5,1.1-1,2.2-1.5,3.3c-0.5,1.2-0.3,2.1,0.9,2.6
	c1.2,0.5,2.4,0.9,3.7,1c2,0.1,4,0.1,6-0.1c1.9-0.1,2.5,0.6,1.8,2.4c-0.6,1.3-1.4,2.5-1.9,3.8c-1.3,2.9-0.1,5.1,3.1,5.6
	c1.5,0.2,3.1,0.1,4.7,0.1c1.1,0,2.3-0.2,3.4-0.1c1.4,0.1,2,1,1.4,2.2c-0.5,1-1.3,2.2-2.3,2.7c-2.4,1.4-4.9,2.8-7.6,3.5
	c-7.5,2.3-15.1,4.3-22.7,6.4c-9.1,2.5-18.2,5.1-27.3,7.6c-2.8,0.8-5.5,1.5-8.3,2.4c-2.9,0.9-5.7,2-8.5,3.1
	C289.2,258.2,286.6,258.8,283.8,258.8L283.8,258.8z M132.6,183.6h-0.9c-4,4.5-3.7,5.1-3.7,5.1"/>
</svg>
