<?xml version="1.0" encoding="utf-8"?>
<!-- Generator: Adobe Illustrator 19.2.1, SVG Export Plug-In . SVG Version: 6.00 Build 0)  -->
<svg version="1.1" id="Layer_1" xmlns="http://www.w3.org/2000/svg" xmlns:xlink="http://www.w3.org/1999/xlink" x="0px" y="0px"
	 viewBox="0 0 444 273.5" enable-background="new 0 0 444 273.5" xml:space="preserve">
<title>nautilus</title>
<path fill="none" d="M0,273.5V0h444v273.5H0z M135.4,103.4c-2.9,3.1-5.5,5.9-8.3,8.6c-1.7,1.5-3.5,2.8-5.6,3.7c-2,1-4.2,1.5-6.2,2.5
	c-2.1,1.1-2.5,3.6-0.6,4.6c3.3,1.7,6.8,3.2,10.7,1.5c4.2-2,7.9-4.7,11.2-7.9c4.9-4.8,11.1-7.4,17.9-8c0.6,0,1.2,0,1.8,0.2
	c-2.4,1.7-4.4,3.3-6.6,4.8c-5.7,4.1-10.7,9.3-17.6,11.5c-4.3,1.3-8.6,3-13,3.4c-8.8,0.7-17.3,1.7-25,6.6C88.9,138,84,141.1,82,147.4
	c-1.9,5.6-3.3,11.2-1.4,17.2c0.8,2.4,1.4,5.2,0.9,7.5c-1.2,5.7-4.1,10.6-9.2,13.9c-1.7,1.1-4,0.6-5.2-1.2c-0.3-0.5-0.5-1.1-0.6-1.7
	c-0.2-2.7-0.2-5.3,3-6.5c1.1-0.4,2-1.2,2.8-2.1c0.8-0.9,1.6-2.2,1.5-3.3c0-1-1.1-2.3-2.1-2.8c-3.9-1.8-10.4-0.2-13.2,3
	c-5,5.8-4.6,13.6,0.6,19.1c4.8,5.2,10.7,5.8,16.9,4.5c8.3-1.8,13-8.2,17.5-14.6c2.9-4.1,2.4-9.2,2.3-14c-0.1-4-0.5-8-0.3-11.9
	c0.2-3.5,1.5-6.8,4.3-9.3c4-3.4,8.9-4.8,13.9-5.1c7-0.5,14-0.4,21-1.8c6.4-1.3,12.7-3.2,18.2-6.7c4.8-3.1,9.2-6.8,14.1-9.9
	c4-2.5,8.3-4.3,12.5-6.4c0.4-0.2,1.1,0,1.6,0c-1.6,2-3,3.8-4.4,5.6c-2,2.9-3.7,6.1-6,8.8c-6.2,7.1-14,11.5-23.2,13.9
	c-6.7,1.7-13.5,3.6-19.1,7.9c-3.9,2.9-7.5,6.1-9.5,10.8c-1.3,3.4-2.7,6.8-4.5,9.9c-3.5,5.7-8.2,10.3-13.2,14.6
	c-5.5,4.7-10.7,9.7-16.5,14.1c-3,2.3-6.6,4.5-10.2,5c-7.9,1.1-15.8-0.3-23.4-2.5c-8.3-2.4-16.5-2.8-24.6,0.5
	c-6.7,2.8-10.3,8.6-10.1,15.1c0,2.7,2.3,4.8,5.2,5.2c2.8,0.4,3.8-0.4,5.1-3.3c1.1-2.4,1.4-5.3,4.3-6.7c2.8-1.3,5.6-3.2,8.8-2.6
	c3.5,0.6,6.9,2,10.3,3.1c3.2,1.1,6.3,2.7,9.7,3.2c4.1,0.7,8.4,0.4,12.6,0.6c3.7,0.2,7.5-0.3,11.1-1.3c7.5-2.2,14.2-5.4,19.8-10.8
	c9.4-9,17.8-18.7,24.6-29.9c2.1-3.3,4.4-6.5,6.8-9.6c4.2-5.3,10.3-8,16.3-10.8c3.7-1.8,7.4-4,11.9-3.8c-0.2,0.4-0.5,0.8-0.8,1.1
	c-3.8,3.2-5.4,7.6-7.2,11.9c-0.4,0.8-0.4,1.7-0.5,2.6c-0.3,1.5-0.3,3.1-0.9,4.4c-1.6,3.2-3.4,6.4-5.2,9.5c-2.9,5-6.6,9.2-12,11.6
	c-4.3,1.9-8.7,3.8-12.5,6.6c-2.9,2.1-5.2,5.4-6.9,8.6c-1.5,2.8-1.6,6.3-2.4,9.4c-0.8,3.1-1.6,6-4.3,8.1c-2.5,2-4.8,3.6-8.4,2.6
	c-4.8-1.4-9.6-0.8-13.5,2.7c-1.2,1.2-1.8,2.7-1.9,4.4c0,0.9,1.4,2.2,2.5,2.8c0.9,0.5,2.3,0.2,3.4,0.2c2.6-0.1,5.2-0.3,7.8-0.3
	c5.8-0.1,11.8,0.8,17.3-1.9c1.6-0.8,2.9-1.9,4-3.2c3.1-4.5,5.8-9.2,8.8-13.7c2.2-3.2,4.2-6.7,7-9.4c4.2-4,9-7.5,13.4-11.2
	c2.4-2,4.8-4.1,6.8-6.4c3.4-4,6.4-8.2,9.8-12.4c0.1,0.7,0.1,1.4,0.1,2.1c-0.1,1.6-0.6,3.2-0.6,4.8c0.2,5.9-0.7,11.6-1.8,17.4
	c-1.3,6.7-5.2,11.4-10.8,14.9c-6.9,4.3-13.6,8.7-17.8,16c-2.2,3.9-4,7.9-3.9,12.5c0.1,2.5,0.4,5.1,1,7.6c0.2,0.9,1.1,1.7,1.8,2.5
	c0.6,0.6,1.5,1,2,1.7c3.6,5.1,9,5,14.2,4.4c4.4-0.5,7.5-3.6,9.9-7.3c1.9-2.9,3.7-5.9,3-9.5c-0.3-1.4-1.1-2.6-2.2-3.4
	c-1.4-1-2.9-0.1-3.8,1.2c-1.3,1.8-2.5,3.7-3.5,5.8c-1,2.3-2.7,3.7-4.9,3.7c-2.4,0-4.4-1.4-5.6-3.6c-1.9-3.7-0.8-7.2,1.4-10
	c2.9-3.6,6.2-6.8,9.8-9.7c3.8-3,8.1-5.3,12.1-8.2c4.4-3.2,8.3-7.1,10-12.4c2.8-8.7,3.6-17.7,3.6-26.8c0-2.8,0-5.6,0.5-8.3
	c1-5.2,2.1-10.3,3.5-15.5c1.8-6.7,4.2-13.1,8.4-18.7c2.5-3.3,5.9-5.3,10.6-5c-2.7,2.6-4.1,5.6-4.2,9.1c0,1.8-0.5,4.2,0.4,5.2
	c1.8,2,4.4,3.2,7.5,2.6c1.2-0.2,2.8,0,3.6,0.6c2,1.7,4,3.6,5.6,5.6c3.8,4.8,7.2,10,11.1,14.7c3.3,4,7.1,7.6,10.8,11.3
	c2.4,2.4,4.8,4.8,7.5,6.7c3.7,2.6,7.6,5,11.6,7.1c3.8,2.1,7.6,4.3,11.7,5.6c9.2,3.1,18.5,5.9,27.8,8.4c4.2,1.2,8.7,2.2,13.1,2.1
	c7.5-0.1,15-1.2,22.6-1.6c4.9-0.3,9.6-1.5,14.3-2.9c4.6-1.4,9-3,13.5-4.6c1.4-0.5,2.8-1.2,4.1-1.9c3.2-1.6,6.3-3.4,9.4-5.1
	c2.7-1.5,5.6-2.8,8.1-4.6c8.2-6,15.9-12.8,23-20.2c2.5-2.7,5.4-5.2,7.3-8.2c3.5-5.5,6.6-11.3,9.3-17.2c2.5-5.3,4.6-10.8,6.1-16.4
	c1.2-4.7,2.4-9.5,2.4-14.5c0-3.9,0.7-7.7,0.8-11.6c0.1-4.7,0.1-9.4-0.5-14c-0.7-5.8-1.8-11.5-3.3-17c-1.8-6.4-4.8-12.5-8.7-17.9
	c-4.4-6.1-7.8-12.8-13.5-17.9c-2.7-2.4-5.1-5.2-7.6-7.7c-2-2-4-4.1-6.3-5.6c-3.8-2.6-7.8-4.8-11.8-7c-3.5-2-6.8-4.3-10.5-5.6
	c-4.6-1.6-9.4-2.5-14.2-3.2c-7.8-1.1-15.6-1-23.4,0.1c-6,0.8-11.8,2.6-17.1,5.5c-3.6,1.9-7.4,3.4-11.1,4.9
	c-6.9,2.8-12.3,7-13.9,14.9c-0.7,3.5-1.2,3.6-5.2,3.9c-2.4,0.1-2.7-1.8-3.3-3.4c-0.8-1.8-1.6-3.6-3.8-4.2c-2.6-0.7-5.2-1.7-7.8-1.6
	c-3.2,0.1-6.4,1.1-9.5,2.1c-7.2,2.4-14.5,4.6-21.4,7.5c-9.1,3.8-15.5,10.6-19.2,19.8c-1.4,3.5-2.4,7-0.4,10.6c0.2,0.4,0.2,0.8,0,1.2
	c-1.2,1.6-2.4,3.5-4,4.7c-2.2,1.6-4.7,2.8-7.2,4.1c-4.9,2.5-10.2,3.8-15.6,4.4c-3.6,0.4-7.3,0.8-10.9,0.8c-3.2,0.1-6.4-0.3-9.7-0.4
	c-1.2,0-2.5,0.5-3.7,0.4c-4.8-0.5-9.5-1-14.3-1.8c-7.2-1.2-14.1-3.2-20.1-7.7c-2.1-1.6-4.4-3.4-6.9-4c-5.3-1.5-10.5-3.6-16.3-2.9
	c-4.7,0.6-9.1,1.8-13.1,4.3c-4.8,2.8-8.9,6.8-14.6,7.9c-4.1,0.8-8.3,1.5-12.4,2c-8.1,1.1-13.1,6.8-15,14c-0.5,1.9,0.3,3.5,1.9,4.5
	c1.7,1.1,3.4,0.9,4.9-0.4c0.9-0.9,1.7-1.8,2.4-2.8c4.4-5.1,9.9-7.4,16.7-6.6c5.4,0.6,10.7,0.1,15.7-2.7c8.5-4.9,17.5-5.9,27-3.6
	c1,0.3,1.9,0.7,2.8,1.1c-0.8,0.3-0.9,0.4-1.2,0.5c-5.5,1.9-11,3.6-16.4,5.7c-8.9,3.5-16.1,9.9-24.1,14.7c-4.9,2.9-9.8,6-15,8.2
	c-4.8,2-9.9,3-15.4,2.1c-4.6-0.8-8.3-2.6-11.3-6.2c-1.1-1.4-2.1-3-3.6-3.9c-1.6-1-3.8-1.9-5.6-1.6c-2.3,0.4-3.4,2.8-3.6,5
	c-0.2,2.2-0.3,4.8,0.6,6.7c1.5,3.4,3.2,6.7,6.3,9.1c2,1.6,4.3,2.7,6.3,4.3c5.5,4.3,11.8,4.9,18.2,3.7c6.9-1.3,14-2.2,20.6-5.2
	c4.9-2.2,10.1-3.6,14.3-7.1c3.1-2.6,6.1-5.2,9.4-7.5c4-2.8,8.1-5.4,12.4-7.5c4.3-2.1,8.9-3.5,13.4-5.1
	C133.1,103.5,134.1,103.5,135.4,103.4L135.4,103.4z"/>
<path fill="#FFC107" d="M135.4,103.4c-1.2,0.1-2.3,0.1-3.2,0.4c-4.5,1.6-9.1,3-13.4,5.1c-4.4,2.1-8.4,4.8-12.4,7.5
	c-3.3,2.3-6.3,4.9-9.4,7.5c-4.2,3.6-9.4,5-14.3,7.1c-6.6,2.9-13.7,3.8-20.6,5.2c-6.4,1.2-12.7,0.6-18.2-3.7c-2-1.6-4.3-2.7-6.3-4.3
	c-3-2.4-4.8-5.8-6.3-9.1c-0.8-2-0.8-4.5-0.6-6.7s1.3-4.6,3.6-5c1.7-0.3,3.9,0.7,5.6,1.6c1.4,0.8,2.4,2.5,3.6,3.9
	c2.9,3.6,6.7,5.5,11.3,6.2c5.4,0.9,10.6-0.1,15.4-2.1c5.2-2.2,10.2-5.2,15-8.2c8.1-4.9,15.2-11.2,24.1-14.7
	c5.4-2.1,10.9-3.8,16.4-5.7c0.2,0,0.4-0.2,1.2-0.5c-0.9-0.4-1.9-0.8-2.8-1.1c-9.5-2.4-18.5-1.3-27,3.6c-4.9,2.8-10.3,3.4-15.7,2.7
	c-6.8-0.8-12.3,1.5-16.7,6.6c-0.8,1-1.6,1.9-2.4,2.8c-1.5,1.4-3.2,1.6-4.9,0.4c-1.6-1.1-2.4-2.7-1.9-4.5c1.9-7.2,7-12.9,15-14
	c4.2-0.6,8.3-1.2,12.4-2c5.7-1.2,9.9-5.1,14.6-7.9c4-2.4,8.4-3.7,13.1-4.3c5.8-0.7,11,1.5,16.3,2.9c2.5,0.7,4.8,2.4,6.9,4
	c5.9,4.6,12.9,6.6,20.1,7.7c4.8,0.8,9.5,1.3,14.3,1.8c1.2,0.1,2.4-0.4,3.7-0.4c3.2,0,6.4,0.4,9.7,0.4c3.6-0.1,7.3-0.4,10.9-0.8
	c5.4-0.6,10.7-1.9,15.6-4.4c2.4-1.2,5-2.4,7.2-4.1c1.6-1.2,2.7-3,4-4.7c0.2-0.4,0.1-0.8,0-1.2c-2-3.6-0.9-7.1,0.4-10.6
	c3.7-9.2,10.1-16,19.2-19.8c7-2.9,14.3-5.2,21.4-7.5c3.1-1,6.3-2,9.5-2.1c2.6-0.1,5.2,0.9,7.8,1.6c2.1,0.5,3,2.4,3.8,4.2
	c0.7,1.6,0.9,3.5,3.3,3.4c4-0.3,4.5-0.4,5.2-3.9c1.6-7.9,7-12,13.9-14.9c3.8-1.6,7.5-3,11.1-4.9c5.3-2.8,11.1-4.7,17-5.5
	c7.8-1.1,15.6-1.2,23.4-0.1c4.8,0.7,9.6,1.6,14.2,3.2c3.7,1.3,7.1,3.6,10.5,5.6c4,2.3,8,4.5,11.8,7c2.3,1.6,4.3,3.7,6.3,5.6
	c2.6,2.5,4.9,5.3,7.6,7.6c5.8,5.1,9.2,11.8,13.5,17.9c3.9,5.4,6.9,11.5,8.7,17.9c1.5,5.6,2.6,11.3,3.3,17c0.6,4.6,0.5,9.3,0.5,14
	c0,3.9-0.8,7.7-0.8,11.6c0,5-1.2,9.8-2.4,14.5c-1.6,5.6-3.6,11.1-6.1,16.4c-2.8,5.9-5.9,11.6-9.3,17.2c-1.9,3.1-4.8,5.6-7.3,8.2
	c-7,7.4-14.7,14.2-22.9,20.2c-2.5,1.8-5.4,3.1-8.1,4.6c-3.1,1.7-6.3,3.4-9.4,5.1c-1.3,0.7-2.7,1.3-4.1,1.9c-4.5,1.6-9,3.2-13.5,4.6
	c-4.7,1.4-9.3,2.7-14.3,2.9c-7.5,0.4-15,1.5-22.6,1.6c-4.4,0-8.8-1-13.1-2.1c-9.3-2.6-18.6-5.3-27.8-8.4c-4.1-1.4-7.9-3.6-11.7-5.6
	c-4-2.2-7.9-4.6-11.6-7.1c-2.7-2-5.2-4.4-7.5-6.7c-3.7-3.7-7.5-7.3-10.8-11.3c-4-4.8-7.4-9.9-11.1-14.7c-1.6-2.1-3.5-4-5.6-5.6
	c-0.8-0.7-2.4-0.8-3.6-0.6c-3.1,0.6-5.7-0.7-7.5-2.6c-0.9-1.1-0.5-3.5-0.4-5.2c0.1-3.6,1.6-6.6,4.2-9.1c-4.6-0.3-8,1.6-10.6,5
	c-4.2,5.6-6.6,12.1-8.4,18.7c-1.4,5.1-2.5,10.3-3.5,15.5c-0.5,2.7-0.5,5.6-0.5,8.3c0,9.1-0.8,18.1-3.6,26.8
	c-1.7,5.3-5.6,9.2-10,12.4c-4,2.8-8.3,5.1-12.1,8.2c-3.6,2.8-6.9,6.1-9.8,9.7c-2.2,2.8-3.3,6.3-1.4,10c1.2,2.3,3.2,3.6,5.6,3.6
	c2.3,0,3.9-1.5,4.9-3.7c1-2,2.1-4,3.5-5.8c0.9-1.2,2.4-2.1,3.8-1.2c1.1,0.8,1.9,2,2.2,3.4c0.7,3.6-1.1,6.6-3,9.5
	c-2.4,3.6-5.4,6.8-9.9,7.3c-5.2,0.6-10.6,0.7-14.2-4.4c-0.5-0.7-1.4-1-2-1.7c-0.7-0.8-1.6-1.6-1.8-2.5c-0.5-2.5-0.8-5.1-0.9-7.6
	c-0.2-4.6,1.7-8.7,3.9-12.5c4.1-7.3,10.9-11.7,17.8-16c5.6-3.5,9.5-8.3,10.7-14.9c1.1-5.8,2-11.5,1.8-17.4c0-1.6,0.4-3.2,0.6-4.8
	c0-0.7,0-1.4-0.1-2.1c-3.3,4.3-6.4,8.5-9.8,12.4c-2,2.4-4.4,4.4-6.8,6.4c-4.4,3.8-9.2,7.2-13.4,11.2c-2.8,2.7-4.8,6.2-7,9.4
	c-3,4.5-5.8,9.2-8.8,13.7c-1,1.4-2.4,2.5-4,3.2c-5.5,2.7-11.5,1.8-17.3,1.9c-2.6,0-5.2,0.2-7.8,0.3c-1.2,0-2.5,0.3-3.4-0.2
	c-1.1-0.5-2.5-1.8-2.5-2.8c0.1-1.6,0.8-3.2,1.9-4.4c3.9-3.5,8.7-4,13.5-2.7c3.6,1,5.9-0.6,8.4-2.6c2.7-2.1,3.5-5.1,4.3-8.1
	c0.8-3.2,1-6.6,2.4-9.4c1.7-3.2,4-6.5,6.9-8.6c3.7-2.8,8.2-4.7,12.5-6.6c5.5-2.4,9.1-6.6,12-11.6c1.8-3.1,3.6-6.3,5.2-9.5
	c0.6-1.3,0.6-2.9,0.9-4.4c0.2-0.8,0.2-1.8,0.5-2.6c1.8-4.3,3.4-8.8,7.2-11.9c0.3-0.3,0.6-0.7,0.8-1.1c-4.5-0.2-8.2,2-11.9,3.8
	c-5.9,2.8-12,5.5-16.3,10.8c-2.5,3.1-4.8,6.3-6.8,9.6c-6.8,11.1-15.2,20.9-24.6,29.9c-5.7,5.4-12.4,8.7-19.8,10.8
	c-3.6,1-7.3,1.5-11,1.3c-4.2-0.1-8.5,0.1-12.6-0.6c-3.3-0.5-6.4-2.1-9.7-3.2c-3.4-1.1-6.8-2.5-10.3-3.1c-3.2-0.5-5.9,1.2-8.8,2.6
	c-2.9,1.4-3.2,4.3-4.4,6.7c-1.2,2.9-2.3,3.7-5.1,3.3c-2.9-0.4-5.2-2.6-5.2-5.2c-0.1-6.5,3.4-12.3,10.1-15.1c8.1-3.4,16.3-3,24.6-0.5
	c7.6,2.2,15.5,3.6,23.4,2.5c3.6-0.5,7.2-2.7,10.2-5c5.7-4.4,11-9.4,16.5-14.1c5-4.3,9.7-8.9,13.2-14.6c1.9-3.1,3.2-6.5,4.5-9.9
	c1.9-4.8,5.6-7.9,9.4-10.8c5.6-4.3,12.5-6.2,19.1-7.9c9.2-2.4,17-6.8,23.2-13.9c2.3-2.7,4-5.9,6-8.8c1.3-1.9,2.8-3.6,4.4-5.6
	c-0.5,0-1.2-0.2-1.6,0c-4.2,2-8.6,3.9-12.5,6.4c-4.8,3-9.2,6.7-14.1,9.9c-5.6,3.6-11.8,5.4-18.2,6.7c-7,1.5-13.9,1.3-21,1.8
	c-4.9,0.4-9.9,1.7-13.9,5.1c-2.8,2.4-4.1,5.7-4.3,9.3c-0.2,4,0.3,7.9,0.3,11.9c0.1,4.8,0.6,9.9-2.3,14c-4.5,6.4-9.2,12.8-17.5,14.6
	c-6.3,1.3-12.1,0.7-16.9-4.5c-5.2-5.6-5.5-13.3-0.6-19.1c2.8-3.2,9.3-4.8,13.2-3c1,0.4,2,1.8,2.1,2.8c0.1,1.1-0.8,2.4-1.5,3.3
	c-0.8,0.9-1.7,1.6-2.8,2.1c-3.2,1.2-3.2,3.8-3,6.5c0.2,2,2,3.6,4,3.4c0.6,0,1.2-0.2,1.7-0.6c5.1-3.3,7.9-8.3,9.2-13.9
	c0.5-2.4-0.1-5.1-0.9-7.5c-2-6-0.5-11.5,1.4-17.2c2-6.2,7-9.4,12.1-12.6c7.7-4.8,16.2-5.9,25-6.6c4.4-0.4,8.7-2,13-3.4
	c6.9-2.1,11.9-7.4,17.6-11.5c2.1-1.5,4.2-3.1,6.6-4.8c-0.6-0.1-1.2-0.2-1.8-0.2c-6.9,0.6-13,3.2-17.9,8c-3.2,3.2-7.1,5.9-11.2,7.9
	c-3.9,1.8-7.4,0.3-10.7-1.5c-1.9-1-1.5-3.6,0.6-4.6c2-1,4.3-1.5,6.2-2.5c2-1,3.9-2.3,5.6-3.7C129.9,109.3,132.4,106.4,135.4,103.4
	L135.4,103.4z M374.9,40.8c-0.3,0.1-0.6,0.3-0.8,0.4c-2.8,1.7-5.6,3.6-8.5,5.2c-0.6,0.4-1.6,0.1-2.4,0.2c0-0.8-0.1-1.7,0.2-2.4
	c2-4.7,6.3-7.4,9.6-11.1c2-2.3,3.9-4.6,5.6-7.1c0.3-0.4-0.2-1.8-0.7-2.1c-1.5-0.9-3.1-1.6-4.8-2.2c-1.4-0.4-2.9-0.5-3.7,1.4
	c-1.6,3.6-3.2,7.1-4.8,10.7c-1.9,4.1-2.8,8.8-6.4,11.7c-3.2,2.5-6.9,4.3-10.3,6.4c-1.9,1.2-3.9,2.3-5.7,3.6
	c-1.3,0.9-2.4,2.2-3.7,3.1c-0.6,0.4-1.9,0.8-2.3,0.5c-0.6-0.7-0.9-1.6-0.8-2.4c0.3-1.3,0.8-2.8,1.7-3.7c4.7-4.8,9.6-9.5,14.3-14.3
	c1.6-1.6,3.3-3.3,4.5-5.2c2.8-4.4,3.1-9.5,2.7-14.6c0-0.5-0.8-1.3-1.4-1.5c-1.8-0.6-3.8-1-5.6-1.6c-1.6-0.5-1.9,0.3-1.8,1.5
	c0.2,2,0.7,3.9,0.8,5.8c0,1.6,0.7,3.2-0.8,5c-1.5,1.6-1.8,4.3-2.6,6.5c-0.5,1.4-0.7,2.9-1.4,4.1c-0.4,0.7-1.6,0.9-2.5,1.2
	c-0.1,0-0.8-1.2-0.8-1.9c0-1.4,0.4-2.8,0.4-4.1c-0.2-4.8-0.4-9.7-0.9-14.5c-0.5-5.1-1.3-5.6-5.4-5.1c-0.4,0-0.8,0.4-1.2,0.4
	c-2.1-0.2-2.4,1-2.2,2.6c0.9,6.3,2,12.5,2.8,18.7c0.4,2.8,0.7,5.6,0.6,8.5c0,2-0.8,3.9-2.6,5.2c-3.6,2.6-6.8,5.5-7.7,10.2
	c-0.1,0.5-0.4,0.9-0.8,1.2c-0.5,0.4-1.2,0.5-1.8,0.5c-0.4,0-0.8-0.8-0.8-1.3c-0.1-1.5-0.2-3,0.1-4.4c1-5.1,2.9-10,3.2-15.3
	c0.2-4,0-7.8-1.5-11.5c-0.9-2.3-1.9-4.5-2.7-6.9c-1.8-5.2-2-5.3-7.1-2.8c-0.2,0-0.4,0.1-0.6,0.3c-0.6,0.8-1.4,1.6-1.6,2.6
	c-0.9,6.9,1.6,13,4.1,19.1c1.2,3,2,6.1,1.5,9.4c-0.4,2.6-1.1,5.1-1.7,7.6c-0.8,3-1.6,6-2.6,8.9c-0.2,0.6-1.1,1.1-1.6,1.6
	c-0.5-0.6-1.2-1-1.5-1.7c-0.6-1.7-1.1-3.5-1.3-5.2c-0.5-5.9-1.1-11.8-1.3-17.7c-0.2-6-3.2-10.5-7.4-14.3c-2-1.9-3.2-1.6-4.7,0.7
	c-2.6,4.2-3.1,9-1.9,13.5c1.4,5.3,3.5,10.4,5.4,15.6c1.2,3.1,2.2,6.3,3.8,9.2c3.5,6.3,7.2,12.4,10.8,18.6c2.5,4.5,2.4,9.3,1,14
	c-1.9,6.2-5.8,11.1-11,14.8c-2.6,1.9-5.2,4.1-8.1,5.3c-6.5,2.7-13.2,4.7-19.8,7.1c-10.6,4-21.9,5.8-33.3,5.4
	c-5.2-0.2-10.5-0.1-15.8,0c-4,0.1-7.9,0.7-11.8,0.8c-4.6,0.2-7.8,2.5-10.2,6.2c-1,1.5-1.7,3.3-0.6,4.8c0.6,0.8,2.2,1,3.4,1.4
	c2.2,0.7,4.4,1.4,6.6,1.9c1.2,0.3,2.4,0.3,3.6-0.1c4.2-1.6,8.2-3.6,12.4-5.3c9.1-3.8,19-3.4,28.6-4.3c4.5-0.4,9.2,0.4,13.8,0.8
	c1.6,0.1,2.5,1.1,2.6,2.7c0.1,1.6-0.4,2.9-2.1,3.4c-1.3,0.3-2.6,0.5-3.9,0.5c-6,0.2-12.1-0.7-18.2,0.3c-8.2,1.3-15.7,3.8-22.2,9.1
	c-2.1,1.7-3.9,5.2-3,6.7c1.1,1.8,2.4,3.5,3.8,5.5c5.2-8,12.4-12.2,21.3-13.6c3.6-0.6,7.1-1.3,10.7-1.8c0.8-0.1,1.8,0.3,2.7,0.5
	c-0.3,0.8-0.3,1.8-0.8,2.5c-2.3,3.2-5.1,5.6-9.1,6.1c-0.1,0-0.2,0.4-0.5,1.2c3-0.7,5.7-1.1,8.2-1.8c2.4-0.7,4.7-2,7.1-2.7
	c2.8-0.8,4.8-2.3,6.5-4.5c4.4-5.6,8.9-11.1,13.4-16.7c1.1-1.4,2.3-2.7,3.5-4c1.2-1.3,2.5-2.6,3.9-3.7c0.9-0.7,1.9-0.2,1.8,1.1
	c-0.1,1.6-0.5,3.1-0.8,4.7c-0.8,4.3-1.9,8.6-4.5,12.1c-3.1,4.1-6.4,8.1-9.7,12.1c-1.6,2-3.1,4.1-5,5.8c-3.7,3.2-8.1,5.6-12.9,6.8
	c-5.4,1.4-10.6,3.4-15.2,6.7c-3.4,2.4-3.7,5-0.9,7.8c0.2,0.2,0.4,0.4,0.6,0.6c1.3,1.5,2.6,1.3,3.9,0c2.1-2.1,4.8-3.6,7.8-4.1
	c4-0.8,7.2-2.8,10-5.7c3.4-3.6,6.9-7,10.4-10.4c0.6-0.6,1.6-0.7,2.4-1c0.2,1.1,0.7,2.2,0.5,3.1c-0.5,2.1-1.3,4.2-2,6.3
	c-0.5,1.6-0.9,3.2-1.4,4.8c1.7-1.6,3.4-3.3,4.8-5.1c0.7-0.9,1.4-1.9,1.7-3c0.6-2.8,0.9-5.6,1.5-8.3c0.8-4.2,2.4-8,6.2-10.9
	c0.5,1.1,0.8,2.2,0.9,3.4c0.1,0.9,0,1.8,0.1,2.7c0.2,2.2,0.8,4.5,0.8,6.7c0,2.2-0.6,4.3-0.8,6.5c-0.7,7.2-3.6,13.4-8.1,18.9
	c-2.8,3.5-5.5,7.1-8.6,11.1c3.8,1.2,6.8,2.3,9.9,3.2c2.5,0.8,3.3,0,2.7-2.5c-0.8-3.2-0.1-6.1,0.8-9c1-3.2,2.1-6.4,3.1-9.7
	c3.1-11.1,5.3-22.2,5.2-33.8c0-3.3-0.4-6.7,0.2-9.9c1-4.9,2.7-9.7,4.3-14.6c1.2-3.6,6.7-7.5,10.6-7.4c1.1,0,2.4,0.8,3,1.7
	c0.4,0.5,0,1.9-0.4,2.7c-0.4,1-1.4,1.7-1.9,2.7c-1.1,2-2.4,3.9-2.8,6c-1.2,7.1-0.4,14.4-2.2,21.5c-1.4,5.2-1.9,10.7-3.2,16
	c-1.2,4.8-2.6,9.5-2.6,14.5c0,9.2,3.3,17.7,5.8,26.3h4.3c-0.4-3.2-0.8-6.3-1.3-9.5c-0.5-3.3-1.1-6.6-1.7-9.9
	c-0.9-5.4-2.3-10.7-2.6-16.1c-0.2-3.9,0.9-7.8,5.5-9.5c2.1-0.8,4-0.2,4.1,1.6c0.3,4.2,0.8,8.3,0.8,12.5c0,6,2,11.4,5.2,16.2
	c2.9,4.4,6.7,8.4,10.3,12.6c0.4,0.4,1.3,0.6,1.9,0.4c2-0.4,4.1-1,6.1-1.6c1.8-0.6,3.6-1.2,5.9-2c-1-0.8-1.4-1-1.8-1.4
	c-3.9-3.8-8.3-7.2-11.5-11.5c-4.1-5.4-8-11.1-9.6-17.8c-0.4-2.2-1-4.4-1.7-6.5c-2.1-5.9-4.7-11.7-6.4-17.8c-0.8-2.9-0.9-6-0.2-9
	c0.8-2.8,3-5.3,4.7-7.8c0.9-1.3,3.2-0.6,3.9,1.1c0.3,0.9,0.5,1.8,0.5,2.8c0.1,2.4-0.2,4.8,0.1,7.1c0.2,2,0.7,3.8,1.5,5.6
	c1.4,3.3,3.3,6.4,4.7,9.7c1.2,2.8,2,5.9,3.1,8.8c1.8,5.4,4.8,10.3,8.9,14.3c4.9,4.8,10.1,9.4,16.4,12.2c2.8,1.2,6.1,3,9.6,0.3
	c-0.6-0.5-1.2-0.9-1.9-1.3c-4.4-2.4-8.3-5.5-11.5-9.3c-1.5-1.8-4-3.4-3.1-6.6c6.1,1.8,11.6,5.3,18.1,5.6c4.4,0.2,8.7,0.7,13.1,1
	c0.5,0,1.2-0.5,1.6-0.8c1.7-1.4,3.3-2.8,5.2-4.4c-0.8-0.3-1.4-0.8-2-0.8c-6-1.1-12-2.2-18-3.1c-4.4-0.7-9-0.9-13.4-1.9
	c-8.2-1.9-16.1-4.7-21.6-11.7c-2.4-3.1-4.8-6.2-5.5-10.3c-0.5-3-1.4-5.9-2-8.9c-0.2-1.1-0.1-2.3-0.1-3.5c1,0.5,2.2,0.7,2.8,1.5
	c3.6,4.7,7,9.5,10.5,14.2c2.2,2.9,5.4,3.9,9.1,4.5c-0.2-0.4-0.4-0.8-0.7-1.2c-1.7-2.2-3.6-4.4-5.2-6.7c-3.1-4.3-5.9-8.9-9.2-12.9
	c-3.6-4.3-7.9-7.9-11.5-12.1c-4.1-4.8-7.5-10-7.5-16.7c0-2.2,1.6-4.6,3.3-4c1,0.4,1.9,1.5,2.6,2.4c1.6,2.1,2.7,4.5,4.4,6.4
	c2,2.3,4.5,4.1,6.9,6.1c7.2,6.1,11.3,14.7,17.2,21.8c2,2.5,3.8,5.3,6.3,7.3c4.8,3.8,10.2,6.8,15.9,8.7c4.7,1.6,9.6,2.6,14.5,3.7
	c5,1.1,10.1,2,15.1,2.9c0.4,0.1,0.7,0,1-0.2c1.1-1.3,2.1-2.6,3.4-4.4c-2-0.4-3.3-0.6-4.8-0.9c-4.3-1-8.6-2.2-12.9-2.9
	c-6.5-1.1-12-3.4-16.4-8.8c-2.8-3.5-7-5.9-10.4-9c-2.6-2.4-4.7-5.2-7.1-7.8c-1.6-1.6-3.4-3-5-4.7c-0.4-0.4-0.5-1.8-0.1-2.2
	c0.5-0.5,1.7-0.9,2.3-0.7c4.4,1.8,8.6,3.9,12.9,5.6c5.6,2.2,10.7,5.3,15.3,9.1c3.8,3.1,7.6,6.1,12.5,7.1c1.6,0.4,3.2,0.5,4.8,0.8
	c0-0.5-0.2-1-0.6-1.4c-2.4-3.1-4.9-6.1-7.1-9.3c-0.5-0.7,0.3-2.2,0.4-3.4c0.9,0.1,1.8,0.3,2.6,0.5c3.8,1.5,7.5,3,11.2,4.5
	c0.2,0.1,0.4,0.1,0.7,0.1c3.8,0.5,7.6,0.7,11.5,0.5c1.7-0.1,2.8-0.8,3.1-2.4c0.8-4.2,1.6-8.5,2.4-13c-0.8-0.1-1.7-0.1-2.5-0.1
	c-2.5,0.3-5.1,0.5-7.6,0.9c-3.7,0.5-7.5,0.9-11.2,1.8c-5,1.2-10,1.9-15.2,1.7c-3.6-0.1-7.1-0.4-10.7-0.9c-4.8-0.8-9.8-1.6-14.4-3.3
	c-7.9-3-15.5-6.9-23.4-10.1c-3.5-1.4-6.1-3.5-7.7-6.9c-1.8-3.8-3.2-7.6-1.8-12.5c1.8,0.7,3.5,1,4.9,1.9c4.4,2.7,8.5,6.1,13.2,8.3
	c10.4,4.8,21.4,7.7,33,7.2c4.5-0.2,9.1-0.5,13.6-0.9c6.8-0.5,13.5-1.1,20.3-1.8c3-0.3,5.9-0.8,8.8-1.4c0.6-0.1,1.2-1.3,1.3-2.1
	c0.1-1.1-0.4-2.3-0.6-3.6c-1.3,0.2-2.7,0.4-4,0.5c-3.7,0.2-7.3,0.3-11,0.5c-2.2,0.1-4.4,0.3-6.6,0.5c-4,0.4-8,1.1-12,1.2
	s-7.9-0.4-11.9-0.8c-8.2-0.8-16.2-2.5-23.8-5.9c-2.4-1.1-4.4-2.7-6.6-4.2c-0.4-0.3-0.5-1.1-0.8-1.7c0.5-0.2,1-0.6,1.6-0.6
	c2.4,0.1,4.8,0.4,7.2,0.6c5.5,0.6,11,1.3,16.5,2c0.7,0,1.4,0,2-0.2l0.1-0.6c-1.7-0.6-3.4-1.3-5.2-1.9c-4.1-1.2-8.2-2.3-12.3-3.6
	c-0.6-0.2-1-1.1-1.5-1.7c0.6-0.5,1.2-1.3,1.8-1.3c2.6,0,5.3,0.2,7.9,0.6c4.5,0.7,9,1.7,13.5,2.4c7.3,1.2,14.7,2,22,3.2
	c6.1,1.1,12.1,1.5,18-1.2c3.6-1.6,2.8-1.1,2.4-4.5c-0.1-0.5-0.4-0.9-0.5-1.4c-0.4-1.8-1.4-2.5-3.2-2.2c-2.2,0.4-4.5,0.5-6.7,1
	c-4.4,1.1-8.8,2-13.5,0.9c-3.9-1-8.1-1.2-12.1-1.4c-2.1-0.1-4.2,0.4-6.3,0.4c-1.6,0-3.1-0.6-3.3-2.5c-0.2-1.8,0.8-3,2.6-3.2
	c3.2-0.4,6.4-0.5,9.5-0.8c2-0.2,4,0,5.9-0.6c4.1-1.2,8-3,12.1-4.1c2.7-0.7,5.7-0.5,8.5-0.8c0.6,0,1.6-0.5,1.6-0.9
	c0.2-1.3-2.8-5.5-4.2-5.6c-1.8-0.2-3.6-0.2-5.3,0c-3.3,0.2-6.7,0-9.9,0.7c-6.1,1.5-12.1,3.5-18,5.5c-6.7,2.2-13.2,4.6-19.8,7
	c-4.5,1.6-9,3.6-13.5,5.1c-3.2,1.1-6.6,1.6-10.1,0.9c-3-0.5-6.1,0-9.1-0.2c-1.2-0.1-2.5-0.6-3.2-1.4c-0.4-0.5,0-2,0.4-3
	c1.1-2.5,3.2-3.7,5.7-4.5c7.9-2.2,15.9-4.4,23.8-6.9c4.4-1.4,8.6-3.9,13.1-5.2c8-2.4,16.2-4.6,24.3-6.3c5.4-1.1,8.2-5.4,12.7-7.9
	l-8.6-9.1c-3,2.4-6,4.8-9,7.3c-0.9,0.8-1.7,1.6-2.4,2.4c-1.9,2.3-4.4,3.5-7.1,4.4c-5.1,1.7-10,3.7-15.1,5.3
	c-5.5,1.8-11.1,3.3-16.6,4.8c-0.8,0.2-1.6-0.2-2.4-0.3c0.2-0.8,0.2-1.7,0.6-2.4c0.3-0.5,1-0.8,1.6-1.1c6.3-2.7,12.6-5.2,18.7-8.1
	C368.9,47.4,373,45.5,374.9,40.8L374.9,40.8z M21.6,220.4c1.3-2,2.1-3.7,3.3-5.1c4-4.6,8.9-7.5,15.1-7c3.1,0.2,6.2,1.4,9.2,2.3
	c6,1.9,11.8,4.4,18.2,4.7c12.5,0.7,23.5-2.5,32.5-11.5c3.3-3.3,6.3-6.9,9.5-10.3c0.8-0.9,2-1.5,2.8-2.5c4.1-5.9,8.4-11.6,12.1-17.8
	c3.2-5.4,7.1-10,12.3-13.5c8-5.5,17.3-8.5,26.2-12.4c2.9-1.2,6.2-2.2,8.5-4.2c5.5-4.7,10-10.3,14.5-15.9c4.7-5.9,9.5-7.8,16.8-4
	c0.7,0.4,1.1,1.2,1.5,1.8c-1.5,0.8-2.8,1.2-3.6,2c-5.9,6.3-12.7,11.8-16.7,19.7c-2.8,5.5-6.3,10.7-9,16.3
	c-3.2,6.7-4.3,13.9-4.8,21.4c-0.4,6.2-0.8,12.4-1.8,18.5c-0.9,5.7-3,11.2-7.7,15.1c-4.1,3.4-8.5,6.3-12.8,9.5
	c-5.6,4.2-10.4,9.2-12,16.4c-0.8,3.7-0.8,7.7,1.9,10.8c2.7,3.1,5.7,6,10.3,6.1c2.8,0,5.6,0.1,7.7-1.8c3.1-2.7,5.6-5.9,6-10.3
	c0-0.7-0.4-1.4-0.7-2.1c-0.7,0.4-1.6,0.6-2,1.2c-0.8,1.3-1.2,2.8-2,4.1c-4.6,7.6-8.1,7-13.5,2.7c-1.7-1.4-3.2-3.4-3.1-6
	c0-4.9,1.9-8.9,5.3-12.5c4.4-4.5,9.4-8.1,14.7-11.4c4.5-2.8,9.1-5.5,12-10.2c3.2-5.3,4.2-11.2,4.8-17.2c0.5-5.8,0.5-11.6,1-17.4
	c0.4-4.6,1-9.1,1.9-13.6c1.6-7.8,4.6-15.2,8.4-22.3c2.8-5.1,6.7-8.7,12.6-9.9c3.4-0.7,6.8-0.6,10.3-1.5c5-1.4,10.3-1.6,15.6-1.9
	c4.2-0.2,8.5,0.4,12.8,0.3c4.6-0.1,9.2-0.3,13.8-0.8c5.6-0.7,11.3-1.4,16.7-2.7c5.7-1.3,11.2-3.4,16.8-5.2c3-1,6.2-1.8,8.9-3.3
	c4.6-2.7,8-6.7,11.7-10.5c4.6-4.6,4.7-10,3.8-15.5c-1.1-6.2-5.1-11.3-8.1-16.7c-2.4-4.4-5.1-8.7-7-13.4c-2.6-6.4-4.4-13.1-6.7-19.9
	l-6.1,0.8c0.7,2.8,1.3,5.2,2,7.5c1.2,4.4,2.4,8.8,3.6,13.2c1.4,5,1.9,10.3,4.3,15c1.3,2.7,2.2,5.7,3.2,8.5c1,2.8,1.8,5.9,3.2,8.7
	c2.8,6.1-0.9,14.1-7.6,15.2c-3.6,0.6-7.5,0.4-11-1.4c-5.9-3-10.5-7.5-14.6-12.6c-4.4-5.5-9.2-10.7-14.3-15.7
	c-4.6-4.6-10.9-5.8-16.9-7.5c-0.3,0-0.6,0-0.9,0c-3.2-0.1-6.5,0-9.8-0.3c-1.8-0.2-2.9,0.5-4,1.6c-0.4,0.5-0.8,1-1.2,1.5
	c-4,4.5-9.5,6.7-15,8.6c-7.2,2.5-14.8,3.8-22.5,3.7c-10.1,0-20.2-0.2-30.4-1.2c-9.1-0.9-18.3,0.3-27.1,2.8
	c-6.6,1.9-13.1,4.3-19.1,7.5c-8.2,4.5-15.5,10.4-23.6,15.2c-8.7,5.2-17.9,9.1-28.4,8c-7-0.8-12.8-3.6-16.1-10.3
	c-0.3-0.6-1.4-1.2-2-1.1s-1.4,1-1.6,1.7c-0.2,1-0.1,2,0.2,3.1c1.4,4.8,4.7,8.1,8.3,11.1c7.3,5.9,15.7,6.2,24.3,4.8
	c4.8-0.8,9.5-2,14-3.7c4.8-1.6,9.4-3.7,13.8-6.3c3.9-2.3,7.1-5.8,10.9-8.4c4.8-3.3,9.7-6.3,14.8-9.1c2.8-1.5,6.1-1.8,9.1-3
	c10.6-4.2,21.8-5.3,33-5.5c4.2,0,8.5,0.8,12.7,0.8c4.8,0,9.7-0.3,14.5-0.8c5.8-0.7,11.6-1.7,17.4-2.5c1-0.1,2.1,0.4,3.2,0.7
	c-0.6,0.8-1.2,1.5-1.9,2.1c-0.4,0.3-0.9,0.5-1.4,0.6c-6.5,2.6-13.2,4.7-20.1,6.1c-7.9,1.6-15.6,4.2-23.2,6.9
	c-3.6,1.2-7,3.5-10.2,5.6c-5.8,3.8-10.7,9.2-17.4,11.4c-5.9,2-11.9,3.8-18.1,4.5c-7,0.8-13.9,1.6-20,5.3c-3.4,2-7.1,3.9-9.3,7.4
	c-4,6.4-5.2,13.4-3.7,20.9c0.7,3.4,1.1,7.2,0.2,10.5c-1.5,5.8-5.3,10.2-10.4,13.5c-2.7,1.8-5.4,0.3-8,0c-2.8-0.4-4.3-2-4.8-4.8
	c-0.4-2.4,0.8-5.9,2.7-7.1c1.6-1.1,3.2-2,4.6-3.2c0.4-0.4,0.4-1.8,0-2.4c-0.6-1.1-3.5-0.8-5,0.4c-3.2,2.6-4,6.3-4.6,10
	c-0.4,3,0.9,5.2,3.2,7.1c0.4,0.3,0.5,0.9,0.9,1.2c1.2,1.2,2.4,3,3.8,3.2c3.6,0.5,7.3,0.2,10.6-1.6c4.1-2.3,6.7-6,9.5-9.6
	c3.3-4.4,3.6-9.4,3.2-14.7c-0.3-3.7-0.8-7.4-0.4-11c0.4-3.3,1.3-7,3.4-9.5c5.2-6.3,12.7-8.7,20.7-9.4c6.1-0.6,12.3-0.6,18.4-1.4
	c7.6-1,14.7-4.1,20.7-8.8c8.8-6.9,18.2-12.9,29.3-15.7c5.9-1.5,11.8-3.5,18-2.9c1.1,0.1,2.1,0.4,3.1,0.9c0.4,0.2,0.7,0.9,0.8,1.4
	c0,0.2-0.7,0.6-1.2,0.7c-1.3,0.2-2.6,0.3-3.9,0.5c-4.3,0.5-8.4,1.4-12,4.1c-3.9,2.8-7.1,6.4-9.5,10.5c-5.9,10.4-15.1,16.3-26.3,19.4
	c-6,1.6-11.9,3.2-17.2,6.5c-3.4,2.1-7.2,4-9.3,7.7c-1.4,2.4-2.6,4.9-3.6,7.5c-2,5.6-5.2,10.6-9.5,14.7c-3.3,3.2-6.8,6.3-10.3,9.5
	c-1.1,1-2,2.1-3.1,3c-3.2,2.5-6.3,5.1-9.7,7.5c-4.3,3.1-8.8,6.2-14.2,6.8c-8.2,0.8-16.3-0.4-24.3-2.3c-4.2-0.9-8.3-2.2-12.6-2.3
	s-8.3,1.2-12.1,3.6c-3.9,2.4-4.8,5.9-5.1,9.9C20.8,218.4,21.3,219.2,21.6,220.4L21.6,220.4z M272.7,35.7c0.3,1.1,0.8,2.1,0.8,3.1
	c0,5.4,0.3,10.6,3.5,15.3c0.4,0.6-0.1,1.8-0.1,2.7c-0.8-0.4-1.9-0.7-2.4-1.4c-2.7-4.5-5.3-9.1-7.9-13.7c-2.8-5.1-4.4-5.8-9.5-4.2
	c-0.5,0.2-1.3,1.3-1.2,1.6c0.7,1.3,1.4,2.8,2.6,3.7c4.4,3.5,7.3,8.1,10.3,12.6c2.1,3.1,3.1,6.6,4.1,10.2c1.4,4.9,3.3,9.7,5,14.6
	c0.4,1.2,1.4,2.9-0.5,3.6c-1.9,0.7-2.2-1.4-2.7-2.5c-2-4.7-3.9-9.4-5.6-14.2c-2-5.8-5.9-10.1-10.7-13.8c-3.8-2.9-7.7-5.7-11.5-8.6
	c-1.2-0.9-2.6-2.5-3.7-2.4c-2.3,0.3-4.5,1.6-6.9,2.5c1.7,1.9,3.1,3.3,4.5,4.8c1,1.2,1.9,2.6,3.1,3.4c3.2,2.2,6.6,4.2,10,6.1
	c2.8,1.6,5.8,3.1,7.5,5.9c3,5.1,5.8,10.4,8.5,15.7c0.4,0.7-0.2,1.9-0.4,2.9c-0.9-0.4-2-0.6-2.6-1.3c-1.8-2.2-3-4.9-5.1-6.8
	c-7.2-6.7-15.5-12.1-24.5-16c-3.2-1.3-6.8-1.7-10.3-2.4c-1.7-0.3-2.9,0.8-3.6,2.3c-0.5,1.3-1,2.7-1.4,4.1c-1.1,3.5-0.5,6.4,3.8,7.2
	c3.2,0.6,6.4,0.3,9.6,0.5c5.3,0.4,10.5,1.6,15,4.7c2.8,1.9,5.4,4.3,7.9,6.6c3.2,2.8,6.3,5.8,9.3,8.8c3.9,4,7.5,8.3,11.7,11.9
	c3.2,2.7,6.7,5.2,11.5,5c5.2-0.3,7.2-3.6,5.1-8.3c-1.8-4.1-3.4-8.3-4.7-12.6c-1.6-5-3-10.1-4.3-15.2c-1.3-5-2.2-10-3.6-15
	c-1.7-6-3.8-12-5.7-18C276.7,36.8,275.1,35.7,272.7,35.7L272.7,35.7z M198.6,124.9l-0.4-0.9c-1.8,0.8-4,1.1-5.3,2.3
	c-3.5,3.5-6.7,7.3-9.6,11.4c-2.6,3.7-6,6.7-10,9c-6.7,3.8-11.7,9.1-13.9,16.6c-1.9,6.5-3.4,13.1-7.1,19c-3.1,4.9-6.3,9.7-11.4,12.6
	c-3.4,1.9-6.9,3.6-10.5,5.1c-3.6,1.5-6.1,4.4-8.2,7.3c-1.6,2.2-2,5.3-2.8,8.1c-1.5,5.2-2.6,10.5-7.5,13.8c-3.1,2-5.9,4.3-10.1,2.8
	c-1.8-0.7-3.9-0.7-5.9-0.5c-1.3,0-2.7,0.7-3.8,1.3c-0.5,0.3-0.8,1.3-1.1,2c0.7,0.1,1.4,0.2,2.1,0.3c0.6,0,1.2,0,1.8,0
	c5,0,9.9,0.1,14.9,0c4.5-0.1,7.9-2,10.3-6.1c3.6-6.3,7.5-12.6,11.4-18.8c0.9-1.3,2-2.5,3.2-3.5c2.5-2.1,5.3-3.9,7.8-6
	c3.3-2.8,6.5-5.9,9.8-8.8c4.4-3.8,7.8-8.2,9.9-13.8c1.7-4.7,3.8-9.2,6.2-13.5c1.5-2.6,3.9-4.7,5.6-7.2c2.2-3.1,4.3-6.4,6-9.8
	c2.9-5.8,6.9-10.9,11.7-15.2c1.6-1.4,2.7-3.2,4.1-4.8C196.7,126.5,197.6,125.7,198.6,124.9L198.6,124.9z M337.6,149.5l-0.5,0.4
	c0,0.4,0,0.7,0,1.1c1.8,6.2,5.2,11.1,10.8,14.3c2,1.1,4.1,2.3,6.3,3c4.4,1.3,8.8,2.4,13.3,3.2c4.8,0.8,9.6,0.8,14.4,1.5
	c5.1,0.8,10.1,2,15.1,2.9c0.9,0,1.8-0.3,2.4-0.9c2-2.2,4-4.5,5.9-6.8c-0.9-0.2-1.6-0.5-2.3-0.6c-4.8-0.8-9.5-1.4-14.2-2.3
	c-9.4-1.9-17.9-6-25.8-11.1c-6.1-4-10.5-9.9-14.5-16c-3.8-5.7-7.9-11.3-13.1-15.9c-3.1-2.7-6-5.6-9-8.5c-0.8-0.8-1.6-1.8-2.5-2.8
	c-0.1,0.3-0.2,0.7-0.3,1c0.7,6.3,4.4,11.1,8.5,15.5c5.7,6.2,12.6,11.5,16.6,19c3.6,6.9,8.9,11.7,15.5,15.5c1.3,0.8,2.4,2,3.6,2.9
	l-0.4,1.2c-1.2,0-2.4,0.3-3.6,0c-2.4-0.6-4.6-1.7-7-2.4c-7.5-2.1-14.5-4.9-18.2-12.5C338.6,150.3,338,149.9,337.6,149.5L337.6,149.5
	z M426.7,110.6c-0.4-0.1-0.9-0.1-1.4,0c-8.2,2-16.6,1.6-24.9,2.2c-3.5,0.2-7.1,0.2-10.5,1c-5.3,1.2-10.5,0.6-15.6-0.3
	s-10-2.7-15.1-4c-5.7-1.6-11.1-3.8-16-7.1c-2.4-1.6-4.7-3.2-7-4.8c-1.4-0.9-2.2-0.3-2,1.2c0.5,3.1,1.4,6.3,4.1,7.9
	c8.8,5.2,17.9,9.5,27.7,12.5c5.3,1.5,10.7,2.6,16.2,3.2c11.1,1.4,21.7-2,32.5-3.3c3.3-0.4,6.6-0.4,9.9-0.6c1.1,0,1.9-0.2,1.9-1.6
	C426.6,115,426.7,112.9,426.7,110.6L426.7,110.6z M144.6,85.2c-0.8-0.4-1.2-0.7-1.7-0.9c-3.2-1.6-6.6-2.7-9.5-4.7
	c-4.5-3.1-9-5.7-14.4-6.7c-3.6-0.7-7.4-0.7-11,0.1c-5.9,1.3-10.2,5.4-15.3,8c-5.2,2.8-10.7,4.8-16.7,5c-5.8,0.1-10.8,1.7-14.3,6.9
	c-2.4,3.6-3.2,4.8-2.7,7.4c0.9-0.8,1.9-1.4,2.5-2.3c3.5-4.4,8.3-6.6,13.6-7.5c1.6-0.2,3.3-0.3,4.9-0.1c4,0.2,8.1,0.6,11.9-1
	c3-1.2,5.8-2.9,8.8-4.2c3.8-1.6,7.8-2,11.9-2.4c4.8-0.4,9.5-0.3,13.9,1.8c4.6,2.2,9.3,1.8,14.1,1.5C141.8,86,143,85.6,144.6,85.2z
	 M293.3,139.3l-0.8-0.4c-4.1,5.2-8.1,10.6-12.3,15.7c-1.6,1.9-3.3,3.9-5.4,4.9c-4.6,2.3-9.4,4.2-14.2,5.8c-2.1,0.7-4.6,0.6-6.9,0.7
	c-3.2,0.1-6.5,0.2-9.8,0.1c-0.9,0-1.8-0.6-2.8-0.9c0.5-0.7,0.9-1.8,1.6-2.1c1.4-0.7,3-1,4.5-1.5c3.2-0.9,6.4-1.8,9.5-2.8
	c0.7-0.2,1.2-1,1.7-1.6l-0.4-0.8c-2.7,0.5-5.4,1-8.1,1.5c-7,1.3-12.7,4.7-16.5,10.9c-0.8,1.4-0.9,2.8,0.3,4c3.1,3.1,6.3,6.2,9.1,9
	c1.5-1.5,2.6-2.8,4-3.9c5.2-4.1,11.3-6.4,17.7-8c4.4-1.1,8.4-3.2,11.4-6.5c5-5.7,9.7-11.6,14.5-17.5
	C292.2,144.1,293.3,141.9,293.3,139.3L293.3,139.3z M309.6,210.5c-0.2-1.2-0.2-1.7-0.4-2.2c-1.5-5.3-3.1-10.7-4.4-16.1
	c-0.7-2.9-1.3-6-1-8.8c0.5-4.7,2-9.3,2.9-14c0.9-4.4,1.4-8.9,2.4-13.3c1.7-7.1,1.7-14.3,2.5-21.4c0.3-2.4,0.8-4.7,1.7-6.9
	c0.8-1.9,2.3-3.4,3.6-5.2c-1.8-0.9-3.2-0.5-4.5,0.8c-2.7,2.6-4.3,5.9-5.2,9.4c-1.6,6.1-2,12.3-2,18.6c0,6.3-1,12.8-2.1,19
	c-1.2,7-3,13.9-5.2,20.6c-1.3,3.9-2,7.6-1.7,11.5c0.1,1.8,0.7,4.5,1.9,5C301.6,208.9,305.4,209.4,309.6,210.5L309.6,210.5z
	 M324.6,141.1c-2.3,2.1-2.7,3.2-1.9,6c0.9,3.4,1.9,6.8,3.1,10.1c1.7,5,3.8,9.8,5.4,14.8c1.4,4.4,2.8,8.7,5.2,12.7
	c4.4,7.4,10.5,13.7,17.6,18.5c0.4,0.3,0.9,0.4,1.4,0.4c3.7-0.5,7-2.1,10.1-4.4c-0.4-0.3-0.7-0.6-1.1-0.8c-3-1.8-6.3-3.2-9-5.3
	c-4.4-3.4-8.4-7-12.3-11c-3.4-3.5-5.9-7.7-7.7-12.3c-2.6-6.4-4.4-13.1-7.9-19.3C326.1,147.8,325.6,144.3,324.6,141.1z M294.3,161
	l-0.5,0c-0.4,2-0.8,3.9-1.2,5.9c-0.6,3.2-0.4,6.7-2.7,9.5c-2.4,2.8-5,5.6-7,8.7c-3.5,5.3-8.7,5.8-14.2,5.9c-0.5,0-1-0.4-1.3-0.8
	c-0.1-0.3,0.2-1,0.5-1.3c0.9-0.7,1.8-1.5,2.9-1.9c4.5-1.6,7.4-4.8,9.2-9c0.5-1.3,0.5-2.8,0.7-4.2l-0.8-0.2c-1,1.2-1.9,2.5-2.9,3.7
	c-3.6,4.2-7.7,7.7-13.2,9.3c-2.3,0.6-4.5,1.4-6.6,2.4c-1.4,0.7-1.6,2-0.2,3c1.1,0.9,2.3,1.8,3.6,2.5c4,2,8.1,3.9,12.1,5.8
	c4,1.9,5.2,1.5,7.7-2.1c1.7-2.5,3.5-5.1,5.5-7.3c3.8-4,6.5-8.7,7.5-14c0.9-4.6,1-9.4,1.4-14.1C294.8,162.2,294.5,161.6,294.3,161
	L294.3,161z M197.9,97.1l-0.1-0.5l-12.1,1.3c-1.3,0.1-2.6,0.4-3.9,0.4c-3.1,0-6.1,0-9.2,0c-3.9,0-7.9-0.4-11.8,0
	c-3.4,0.3-6.8,1.3-10.2,2.1c-2.9,0.7-6,0.9-8.5,2.3c-3.2,1.8-6.1,4.2-8.6,7c-3.5,4.1-7.3,7.5-12.6,9c-1.3,0.4-2.5,1.2-4.3,2.2
	c2.3,1.3,4.1,2.1,6,1.3c2.3-0.9,4.5-2,6.5-3.4c3.2-2.4,5.9-5.2,9.1-7.5c5.6-4.1,12.2-6.3,19-5.8c4.9,0.3,9.9-0.2,14.6-1.6
	c6-1.6,12-2.9,18.1-4.5C192.6,98.7,195.2,97.9,197.9,97.1L197.9,97.1z M358.4,93.6c0.9,0.5,1.9,0.9,2.9,1.3
	c6.3,2.1,12.6,4.1,19.2,4.4c5.2,0.3,10.4,0.6,15.6,0.3c7.3-0.4,14.5-1.4,21.8-2.1c2.2-0.2,4.4-0.3,6.6-0.4c1.4-0.1,2-0.9,1.8-2.2
	c-0.1-0.8-0.3-1.6-0.4-2.4c-0.2-1.2-0.8-1.4-1.9-1c-2,0.7-3.9,1.6-5.9,1.9c-4.4,0.6-8.7,0.2-13-0.6c-7.5-1.4-15.1-2.8-22.6-4.2
	c-0.8-0.2-1.7-0.3-2.6-0.4c-0.8,0-1.6,0-2.3,0c2.7,2.5,7.3,2.2,9.1,7C376.9,96,367.7,94.8,358.4,93.6z M414.3,58.7
	c-2-2.9-3.8-5.5-5.5-8.1c-0.9-1.5-1.5-1.4-3-0.3c-3.1,2.4-6.2,5.1-9.7,6.3c-6.6,2.4-13.6,3.7-20.4,5.6c-1.7,0.4-3.5,0.6-5,1.4
	c-11.1,5.6-23,8.7-34.9,11.5c-1.7,0.4-3.3,1-5,1.5l0.1,0.6c0.8,0.2,1.6,0.4,2.5,0.5c1.2,0.1,2.6-0.2,3.8,0.1c4,0.9,7.9,0,11.5-1.3
	c7.3-2.6,14.6-5.5,21.9-8.2c4.8-1.8,9.7-3.4,14.5-5.1c8.7-2.9,17.8-4.4,27-4.2C412.8,59,413.5,58.9,414.3,58.7L414.3,58.7z
	 M364.5,130.9l-0.6,0.6c2.2,2.1,4.4,4.3,6.7,6.3c2.5,2.1,5.3,3.9,7.7,6c2.2,2,4.1,4.4,6.2,6.5c0.9,0.9,2,1.6,3.3,2
	c3.4,0.8,6.8,1.2,10.2,1.8c4.7,0.8,9.4,1.8,14.1,2.5c0.7,0.1,1.9-0.3,2.3-0.8c1.2-2,2.3-4.2,3.5-6.5c-3.2-0.2-6-0.4-8.9-0.5
	c-2.8,0-5.6,0.6-8.3,0.3c-3-0.4-5.9-1.1-8.7-2.1c-5-1.9-9-5.5-13.2-8.7C374.5,134.9,369.7,132.4,364.5,130.9L364.5,130.9z
	 M317.6,168.7c-3.2,2-3.9,4.6-3.6,7.2c0.4,3.9,1.6,7.6,2.4,11.5c0.9,4.6,2.1,9.3,2.3,13.9c0.1,3.2,1.6,5.4,2.8,7.9
	c0.4,0.7,1.2,1.1,2,1.2c3.2-0.1,6.4-0.4,9.7-0.7c0.4,0,0.7-0.2,1-0.4c-2.9-3.3-6-6.3-8.6-9.7c-5.2-6.9-7.1-14.8-7.1-23.4
	C318.3,173.9,317.9,171.6,317.6,168.7z M383.2,33.2c-3.2,7.7-7.3,14.6-15.3,18.2c3.2-0.8,6.1-2,9.1-3c3.3-1.1,6.1-3.2,8.1-5.9
	c0.8-1.2,2.1-2,3.2-2.9c1.9-1.6,3.8-3.2,6-5.1c-3.5-2.4-6.6-4.7-9.7-6.9c-2.4-1.6-3.2-1.2-4.8,1.2c-1.8,2.8-4.1,5.2-6.3,7.7
	c-1,1.2-2.2,2.1-3.2,3.2l0.6,0.7l10.5-9C381.4,31.4,383.2,33.2,383.2,33.2z M272.3,143.9l-0.1-1.2c-3.7-0.3-7.5-1-11.1-0.8
	c-5.3,0.2-10.6,1-15.9,1.7c-4.1,0.5-8.2,1.1-12.2,2.1c-3.6,1-7,2.8-10.5,4.2c-4.1,1.7-4.1,1.7-1.9,5.6c2,3.4,2.3,3.4,4.5,0.2
	c0.2-0.3,0.4-0.6,0.8-0.8c5.3-4.1,11.3-7.2,17.8-8.7c7.3-1.6,14.7-2.8,22.3-1.9c1.2,0.1,2.3,0.4,3.5,0.4
	C270.5,144.7,271.4,144.1,272.3,143.9L272.3,143.9z M323.1,16.7c2,5.6,4.4,11,5.7,16.7c1.4,5.9-0.2,11.9-1.5,17.9
	c1.7-1,3.2-2.3,4.7-3.6c0.7-0.7,1.4-1.9,1.4-2.8c0-3.6-0.3-7.3-0.7-10.9c-0.8-5.7-1.9-11.5-2.7-17.2c-0.2-1.7-0.8-2-2.3-1.5
	C326.2,15.9,324.8,16.3,323.1,16.7z M226.3,54.3c4.2,0.7,7.7,0.8,10.7,2c6.1,2.4,12,5.4,17.1,9.8c2,1.8,4.4,3.2,6.6,4.7l0.4-0.5
	c-1.6-3.3-3.6-6.2-7-8.1c-5.6-3.2-11.5-5.9-15.9-11.1c-0.8-0.9-1.5-2.1-2.4-2.8c-0.8-0.5-2.5-0.9-3.1-0.5
	C230.5,49.7,228.7,51.9,226.3,54.3L226.3,54.3z M312,61.6l0.6,0.2c0.4-0.4,0.6-0.9,0.8-1.5c0.5-1.9,1-3.8,1.4-5.7
	c0.4-1.9,1-3.9,0.8-5.8c-0.4-2.8-1.3-5.6-2.3-8.3c-1.7-4.7-3.9-9.3-3.4-14.5c0.1-1.2-0.4-2.5-0.7-4l-7.8,4.6c1.5,1.2,2.9,2.2,4,3.4
	c4.1,4.5,5.5,10.1,5.8,16L312,61.6z M421.8,76.8c-0.2-0.7-0.4-1.2-0.5-1.7c-0.4-2.1-1.6-3.1-3.8-2.8s-4.5,0.2-6.7,0.5
	c-4.9,0.7-9.5,2.5-13.5,5.4c3.8,0.4,7.6,0.9,11.3,0.7c3.9-0.2,7.7-1.1,11.6-1.6C420.7,77.1,421.3,77,421.8,76.8L421.8,76.8z
	 M344.8,49.1l0.4,0.5c3.2-0.3,10.1-4.4,11.8-7.5c3.6-7.1,6.9-14.5,10.4-21.9l-5.6-2.1c-0.1,0.8-0.3,1.6-0.3,2.4
	c0.1,1.5,0.5,2.9,0.4,4.4c-0.8,7.6-4.5,13.8-10.5,18.7C349.1,45.3,346.9,47.2,344.8,49.1z M399.8,137.3l-0.4,0.4
	c0.5,0.9,0.8,2,1.6,2.7c2.4,2,4.8,3.8,8.2,3.5c1.3,0,2.6,0.2,3.8,0.6c5.4,1.6,7.1,1,8.9-3.2c0-0.2,0-0.4-0.1-0.6
	C414.1,141.1,406.8,140.3,399.8,137.3z M264.8,54.5l0.4-0.5c-2.1-2.7-4.3-5.5-6.5-8.1c-1.7-2-3.5-3.8-5.3-5.7
	c-0.4-0.4-1.1-1.2-1.5-1.1c-1.8,0.4-3.6,1.1-5.3,1.7l0,0.9L264.8,54.5L264.8,54.5z M363.6,184.6c0.1,0.3,0.3,0.5,0.5,0.8
	c3.3,3.3,7.4,5.6,11.7,7.4c0.4,0.1,0.8,0.1,1.2,0c2-1.2,4-2.5,5.9-3.8l-0.1-0.8L363.6,184.6L363.6,184.6z M345.8,28l1.2,0.2
	c0.4-1.3,1-2.6,0.9-3.8c0-2.4-0.6-4.9-0.8-7.3c-0.1-2.4-0.1-2.4-2.9-2C344.3,15,345.8,28,345.8,28z M264.8,35.3l5.7,7.8
	c0.1-1.6,0.4-2.7,0.3-3.8C270.3,34.7,268.1,33.4,264.8,35.3L264.8,35.3z"/>
<path fill="none" d="M374.9,40.8c-1.9,4.6-6,6.5-10,8.3c-6.2,2.9-12.5,5.4-18.7,8.1c-0.6,0.3-1.3,0.6-1.6,1.1
	c-0.4,0.7-0.4,1.6-0.6,2.4c0.8,0.1,1.7,0.5,2.4,0.3c5.6-1.6,11.1-3.1,16.6-4.8c5.1-1.6,10-3.6,15.1-5.3c2.8-0.9,5.2-2.1,7.1-4.4
	c0.8-0.9,1.6-1.7,2.4-2.4c3-2.5,6-4.9,9-7.3l8.6,9.1c-4.4,2.5-7.2,6.8-12.7,7.9c-8.2,1.7-16.3,3.9-24.3,6.3
	c-4.5,1.3-8.6,3.8-13.1,5.2c-7.9,2.5-15.8,4.7-23.8,6.9c-2.6,0.7-4.7,2-5.7,4.5c-0.4,0.9-0.8,2.4-0.4,3c0.7,0.8,2.1,1.3,3.2,1.4
	c3,0.2,6.2-0.4,9.1,0.2c3.6,0.6,6.9,0.1,10.1-0.9c4.6-1.5,9-3.5,13.5-5.1c6.6-2.4,13.2-4.8,19.8-7c5.9-2,11.9-4,18-5.5
	c3.2-0.8,6.6-0.5,9.9-0.7c1.8-0.1,3.6-0.1,5.3,0c1.3,0.2,4.4,4.4,4.2,5.6c-0.1,0.4-1,0.9-1.6,0.9c-2.8,0.3-5.8,0.1-8.5,0.8
	c-4.1,1.1-8,2.9-12.1,4.1c-1.9,0.5-4,0.4-5.9,0.6c-3.2,0.3-6.4,0.4-9.5,0.8c-1.8,0.2-2.8,1.4-2.6,3.2c0.2,1.9,1.7,2.5,3.3,2.5
	c2.1,0,4.3-0.5,6.3-0.4c4.1,0.3,8.2,0.4,12.1,1.4c4.7,1.2,9,0.2,13.5-0.9c2.2-0.5,4.4-0.7,6.7-1c1.7-0.3,2.8,0.4,3.2,2.2
	c0.1,0.5,0.4,0.9,0.5,1.4c0.5,3.5,1.2,2.9-2.4,4.5c-5.9,2.7-11.9,2.3-18,1.2c-7.3-1.2-14.7-2.1-22-3.2c-4.5-0.7-9-1.7-13.5-2.4
	c-2.6-0.4-5.2-0.6-7.9-0.6c-0.6,0-1.2,0.9-1.8,1.3c0.5,0.6,0.9,1.5,1.5,1.7c4.1,1.3,8.2,2.4,12.3,3.6c1.8,0.5,3.5,1.2,5.2,1.9
	l-0.1,0.6c-0.7,0.1-1.3,0.2-2,0.2c-5.5-0.6-11-1.3-16.5-2c-2.4-0.3-4.8-0.5-7.2-0.6c-0.5,0-1,0.4-1.6,0.6c0.2,0.6,0.3,1.4,0.8,1.7
	c2.1,1.5,4.2,3.2,6.6,4.2c7.5,3.4,15.5,5.1,23.8,5.9c3.9,0.4,7.9,0.9,11.8,0.8c3.9-0.1,8-0.8,12-1.2c2.2-0.2,4.4-0.4,6.6-0.5
	c3.7-0.2,7.3-0.3,11-0.5c1.4-0.1,2.7-0.3,4-0.5c0.3,1.4,0.7,2.5,0.6,3.6c0,0.8-0.7,2-1.3,2.1c-2.9,0.6-5.9,1.1-8.8,1.4
	c-6.7,0.7-13.5,1.2-20.3,1.8c-4.5,0.4-9.1,0.7-13.6,0.9c-11.6,0.5-22.6-2.4-33-7.2c-4.7-2.1-8.8-5.6-13.2-8.3
	c-1.4-0.8-3.1-1.2-4.9-1.9c-1.4,4.9,0,8.7,1.8,12.5c1.6,3.4,4.2,5.5,7.7,6.9c7.9,3.2,15.4,7.1,23.4,10.1c4.5,1.7,9.5,2.4,14.4,3.3
	c3.6,0.5,7.1,0.8,10.7,0.9c5.2,0.2,10.2-0.5,15.2-1.7c3.7-0.8,7.5-1.2,11.2-1.8c2.5-0.4,5.1-0.6,7.6-0.9c0.8,0,1.7,0,2.5,0.1
	c-0.8,4.5-1.6,8.7-2.4,13c-0.3,1.6-1.3,2.4-3.1,2.4c-3.8,0.2-7.6,0.1-11.5-0.4c-0.2,0-0.4,0-0.7-0.1c-3.7-1.5-7.5-3-11.2-4.5
	c-0.8-0.3-1.7-0.4-2.6-0.5c-0.2,1.2-0.9,2.7-0.4,3.4c2.2,3.2,4.7,6.2,7.1,9.3c0.4,0.4,0.6,0.9,0.6,1.4c-1.6-0.3-3.2-0.4-4.8-0.8
	c-4.9-1.1-8.7-4-12.5-7.1c-4.6-3.8-9.7-6.9-15.3-9.1c-4.4-1.7-8.6-3.9-12.9-5.6c-0.6-0.3-1.9,0.2-2.3,0.7c-0.4,0.4-0.3,1.8,0.1,2.2
	c1.6,1.6,3.4,3,5,4.7c2.4,2.5,4.5,5.4,7.1,7.8c3.3,3.2,7.5,5.5,10.4,9c4.4,5.5,9.9,7.8,16.4,8.8c4.4,0.7,8.6,1.9,12.9,2.9
	c1.4,0.3,2.8,0.5,4.8,0.9c-1.3,1.7-2.3,3.1-3.4,4.4c-0.3,0.2-0.7,0.3-1,0.2c-5.1-0.9-10.1-1.8-15.1-2.9c-4.9-1.1-9.8-2.1-14.5-3.7
	c-5.8-2-11.2-4.9-15.9-8.7c-2.4-2-4.2-4.8-6.3-7.3c-5.9-7.1-9.9-15.7-17.2-21.8c-2.4-2-4.8-3.9-6.9-6.1c-1.7-1.9-2.9-4.3-4.4-6.4
	c-0.7-0.9-1.6-2-2.6-2.4c-1.6-0.6-3.3,1.8-3.3,4c0,6.7,3.5,11.9,7.5,16.7c3.6,4.2,7.9,7.9,11.5,12.1c3.4,4,6.1,8.7,9.2,12.9
	c1.6,2.3,3.5,4.5,5.2,6.7c0.3,0.4,0.5,0.8,0.7,1.2c-3.7-0.6-6.9-1.6-9.1-4.5c-3.5-4.7-6.9-9.5-10.5-14.2c-0.6-0.8-1.9-1-2.8-1.5
	c0,1.2-0.1,2.4,0.1,3.5c0.6,3,1.4,5.9,2,8.9c0.7,4,3.1,7.2,5.5,10.3c5.5,6.9,13.4,9.8,21.6,11.7c4.4,1,8.9,1.2,13.4,1.9
	c6,0.9,12,2,18,3.1c0.7,0.1,1.3,0.5,2,0.8c-1.8,1.6-3.5,3-5.2,4.4c-0.5,0.4-1.1,0.9-1.6,0.8c-4.4-0.3-8.7-0.8-13.1-1
	c-6.5-0.4-11.9-3.8-18.1-5.6c-0.9,3.2,1.6,4.8,3.1,6.6c3.2,3.8,7.1,7,11.5,9.3c0.7,0.4,1.3,0.8,1.9,1.3c-3.5,2.7-6.7,1-9.6-0.3
	c-6.3-2.8-11.5-7.4-16.4-12.2c-4.1-4-7.2-8.9-9-14.3c-1-2.9-1.8-5.9-3.1-8.8c-1.4-3.3-3.3-6.4-4.7-9.7c-0.8-1.8-1.3-3.7-1.5-5.6
	c-0.3-2.4,0-4.7-0.1-7.1c0-0.9-0.2-1.9-0.5-2.8c-0.7-1.7-3-2.4-3.9-1.1c-1.7,2.5-3.9,4.9-4.7,7.8c-0.7,2.9-0.7,6,0.2,9
	c1.8,6,4.4,11.8,6.4,17.8c0.7,2.1,1.3,4.3,1.7,6.5c1.6,6.8,5.6,12.5,9.6,17.8c3.2,4.3,7.6,7.7,11.5,11.5c0.4,0.4,0.8,0.6,1.8,1.4
	c-2.2,0.8-4,1.5-5.9,2c-2,0.6-4,1.2-6.1,1.6c-0.6,0.1-1.5,0-1.9-0.4c-3.6-4.2-7.4-8.2-10.4-12.7c-3.2-4.8-5.2-10.1-5.2-16.2
	c0-4.2-0.5-8.3-0.8-12.5c-0.1-1.7-2.1-2.3-4.1-1.6c-4.5,1.6-5.6,5.6-5.5,9.5c0.3,5.4,1.6,10.7,2.6,16.1c0.6,3.3,1.2,6.6,1.7,9.9
	c0.5,3.1,0.8,6.3,1.3,9.5h-4.3c-2.5-8.6-5.9-17-5.8-26.3c0-5,1.4-9.7,2.6-14.5c1.3-5.3,1.9-10.7,3.2-16c1.9-7.1,1-14.4,2.2-21.5
	c0.4-2.1,1.8-4,2.8-6c0.5-0.9,1.4-1.7,1.9-2.7c0.4-0.8,0.8-2.2,0.4-2.7c-0.7-0.8-2-1.6-3-1.7c-3.8-0.2-9.4,3.8-10.6,7.4
	c-1.6,4.8-3.2,9.6-4.3,14.6c-0.7,3.2-0.3,6.6-0.2,9.9c0.1,11.5-2.1,22.7-5.2,33.8c-0.9,3.3-2.1,6.5-3.1,9.7c-0.9,2.9-1.6,5.9-0.8,9
	c0.7,2.6-0.1,3.3-2.7,2.5c-3.1-0.9-6.2-2-9.9-3.2c3.1-4,5.8-7.6,8.6-11.1c4.5-5.6,7.4-11.7,8.1-18.9c0.2-2.2,0.8-4.3,0.8-6.5
	c0-2.2-0.5-4.5-0.8-6.7c-0.1-0.9,0-1.8-0.1-2.7c-0.1-1.2-0.4-2.3-0.9-3.4c-3.8,2.9-5.4,6.7-6.2,10.9c-0.5,2.8-0.8,5.6-1.5,8.3
	c-0.2,1.1-1,2.1-1.7,3c-1.5,1.9-3.1,3.6-4.8,5.2c0.4-1.6,0.9-3.2,1.4-4.8c0.7-2.1,1.5-4.2,2-6.3c0.2-0.9-0.3-2.1-0.5-3.1
	c-0.8,0.3-1.8,0.4-2.4,1c-3.6,3.4-7,6.9-10.4,10.4c-2.8,2.9-6.1,5-10,5.7c-2.9,0.5-5.7,2-7.8,4.1c-1.3,1.3-2.6,1.5-3.9,0
	c-0.2-0.2-0.4-0.4-0.6-0.6c-2.8-2.8-2.4-5.4,0.9-7.8c4.6-3.3,9.8-5.3,15.2-6.7c4.8-1.2,9.2-3.6,12.9-6.8c1.9-1.7,3.4-3.8,5-5.8
	c3.3-4,6.6-7.9,9.7-12.1c2.7-3.6,3.7-7.8,4.5-12.1c0.3-1.6,0.7-3.1,0.8-4.7c0.1-1.2-0.9-1.7-1.8-1.1c-1.4,1.1-2.7,2.4-3.9,3.7
	c-1.2,1.2-2.4,2.6-3.5,4c-4.5,5.6-8.9,11.2-13.4,16.8c-1.7,2.2-3.7,3.8-6.5,4.5c-2.4,0.7-4.7,2-7.1,2.7c-2.5,0.8-5.2,1.2-8.2,1.8
	c0.4-0.8,0.4-1.2,0.5-1.2c4-0.6,6.9-3,9.1-6.1c0.5-0.7,0.5-1.6,0.8-2.5c-0.9-0.2-1.8-0.6-2.7-0.5c-3.6,0.5-7.1,1.2-10.7,1.8
	c-8.8,1.5-16.1,5.6-21.3,13.6c-1.4-2-2.7-3.6-3.8-5.5c-0.9-1.6,0.8-5,3-6.7c6.5-5.3,14-7.7,22.2-9.1c6.1-1,12.1-0.2,18.2-0.3
	c1.3,0,2.6-0.2,3.9-0.5c1.7-0.4,2.2-1.7,2.1-3.4c-0.1-1.6-1-2.6-2.6-2.7c-4.6-0.4-9.2-1.2-13.8-0.8c-9.6,0.9-19.4,0.5-28.6,4.3
	c-4.1,1.7-8.2,3.6-12.4,5.3c-1.2,0.4-2.4,0.4-3.6,0.1c-2.2-0.5-4.4-1.2-6.6-1.9c-1.2-0.4-2.8-0.5-3.4-1.4c-1.2-1.6-0.4-3.3,0.6-4.8
	c2.4-3.7,5.6-6,10.2-6.2c4-0.2,7.9-0.7,11.8-0.8c5.2-0.1,10.5-0.2,15.8,0c11.3,0.4,22.6-1.5,33.3-5.4c6.6-2.4,13.3-4.5,19.8-7.1
	c2.9-1.2,5.5-3.4,8.1-5.3c5.2-3.8,9.1-8.7,11-14.8c1.5-4.7,1.6-9.5-1-14c-3.6-6.3-7.4-12.3-10.8-18.6c-1.6-2.9-2.6-6.1-3.8-9.2
	c-1.9-5.2-4-10.3-5.4-15.6c-1.2-4.6-0.8-9.3,1.9-13.5c1.4-2.3,2.6-2.6,4.7-0.7c4.1,3.9,7.2,8.3,7.4,14.3c0.2,5.9,0.8,11.8,1.3,17.7
	c0.2,1.8,0.7,3.6,1.3,5.2c0.2,0.7,1,1.2,1.5,1.7c0.5-0.5,1.4-0.9,1.6-1.6c1-2.9,1.9-5.9,2.6-8.9c0.7-2.5,1.3-5.1,1.7-7.6
	c0.5-3.2-0.3-6.4-1.5-9.4c-2.6-6.1-5.1-12.3-4.1-19.1c0.1-0.9,1-1.7,1.6-2.6c0.2-0.1,0.4-0.2,0.6-0.3c5.2-2.5,5.3-2.4,7.1,2.8
	c0.8,2.3,1.8,4.6,2.7,6.9c1.4,3.7,1.7,7.5,1.5,11.5c-0.3,5.3-2.2,10.2-3.2,15.3c-0.3,1.4-0.1,2.9-0.1,4.4c0,0.5,0.4,1.3,0.8,1.3
	c0.6,0,1.2-0.1,1.8-0.5c0.4-0.3,0.7-0.8,0.8-1.2c0.8-4.7,4.1-7.6,7.7-10.2c1.9-1.3,2.6-3.2,2.6-5.2c0-2.8-0.2-5.7-0.6-8.5
	c-0.9-6.3-1.9-12.5-2.8-18.7c-0.2-1.6,0.1-2.8,2.2-2.6c0.4,0,0.8-0.3,1.2-0.4c4.1-0.5,4.9,0,5.4,5.1c0.5,4.8,0.7,9.6,0.9,14.5
	c0,1.4-0.4,2.8-0.4,4.1c0,0.7,0.7,1.9,0.8,1.9c0.9-0.2,2.1-0.4,2.5-1.2c0.8-1.2,0.9-2.7,1.4-4.1c0.8-2.2,1.2-4.9,2.6-6.6
	c1.6-1.8,0.9-3.3,0.8-5c-0.1-2-0.6-3.9-0.8-5.8c-0.1-1.2,0.2-2,1.8-1.5c1.9,0.6,3.8,0.9,5.6,1.6c0.6,0.2,1.3,1,1.4,1.5
	c0.4,5.1,0.1,10.2-2.7,14.6c-1.2,1.9-2.9,3.6-4.5,5.2c-4.8,4.8-9.6,9.5-14.3,14.3c-0.9,0.9-1.4,2.4-1.7,3.7
	c-0.1,0.9,0.2,1.8,0.8,2.4c0.4,0.3,1.6,0,2.3-0.5c1.3-0.9,2.4-2.2,3.7-3.1c1.8-1.3,3.8-2.4,5.7-3.6c3.5-2.1,7.2-3.9,10.3-6.4
	c3.6-2.9,4.6-7.6,6.4-11.7c1.6-3.6,3.3-7.1,4.8-10.7c0.8-1.9,2.4-1.7,3.7-1.4c1.7,0.5,3.3,1.2,4.8,2.2c0.4,0.4,0.9,1.8,0.6,2.1
	c-1.8,2.4-3.6,4.8-5.6,7.1c-3.2,3.7-7.5,6.4-9.6,11.1c-0.3,0.7-0.1,1.6-0.2,2.4c0.8,0,1.8,0.2,2.4-0.2c2.9-1.6,5.7-3.5,8.5-5.2
	C374.3,41.1,374.6,41,374.9,40.8L374.9,40.8z"/>
<path fill="none" d="M21.6,220.4c-0.3-1.2-0.8-2.1-0.8-3c0.3-4,1.2-7.5,5.1-9.9c3.8-2.4,7.9-3.8,12.1-3.6c4.3,0.2,8.4,1.4,12.6,2.3
	c8,1.8,16.2,3.1,24.3,2.3c5.3-0.5,9.9-3.7,14.2-6.8c3.3-2.4,6.5-4.9,9.7-7.5c1.1-0.9,2-2,3.1-3c3.4-3.2,6.9-6.2,10.3-9.5
	c4.2-4.1,7.5-9.2,9.5-14.7c1-2.6,2.2-5.1,3.6-7.5c2.1-3.7,5.9-5.6,9.3-7.7c5.2-3.3,11.2-4.9,17.2-6.5c11.2-3,20.4-9,26.3-19.3
	c2.4-4.1,5.6-7.7,9.5-10.5c3.6-2.7,7.7-3.6,12-4.1c1.3-0.1,2.6-0.3,3.9-0.5c0.4-0.1,1.2-0.5,1.2-0.7c0-0.5-0.4-1.2-0.8-1.4
	c-1-0.5-2-0.8-3.1-0.9c-6.3-0.6-12,1.4-18,2.9c-11.1,2.8-20.4,8.7-29.3,15.7c-6,4.8-13.1,7.8-20.7,8.8c-6.1,0.8-12.3,0.8-18.4,1.4
	c-7.9,0.8-15.5,3.1-20.7,9.4c-2,2.4-2.9,6.2-3.4,9.5c-0.5,3.6,0,7.4,0.4,11c0.4,5.2,0.1,10.3-3.2,14.7c-2.8,3.6-5.4,7.3-9.5,9.6
	c-3.3,1.8-7,2.1-10.6,1.6c-1.4-0.2-2.6-2-3.8-3.2c-0.4-0.4-0.5-0.9-0.9-1.2c-2.2-1.8-3.6-4-3.2-7.1c0.6-3.8,1.5-7.5,4.6-10
	c1.5-1.2,4.4-1.5,5-0.4c0.4,0.6,0.4,2,0,2.4c-1.4,1.2-3.1,2.2-4.6,3.2c-1.9,1.3-3.1,4.7-2.7,7.1c0.4,2.8,2,4.5,4.8,4.8
	c2.7,0.4,5.3,1.8,8,0c5.1-3.3,8.9-7.7,10.4-13.5c0.8-3.3,0.4-7.1-0.2-10.5c-1.5-7.5-0.3-14.4,3.7-20.9c2.2-3.5,5.9-5.3,9.3-7.4
	c6.1-3.7,13-4.5,20-5.3c6.1-0.7,12.2-2.6,18.1-4.5c6.7-2.2,11.6-7.6,17.4-11.4c3.2-2.1,6.6-4.3,10.2-5.6c7.6-2.7,15.4-5.2,23.2-6.9
	c6.9-1.5,13.6-3.5,20.1-6.1c0.5-0.1,1-0.3,1.4-0.6c0.7-0.7,1.3-1.4,1.9-2.1c-1.1-0.3-2.2-0.8-3.2-0.7c-5.8,0.8-11.6,1.9-17.4,2.5
	c-4.8,0.5-9.6,0.8-14.5,0.8c-4.2,0-8.5-0.8-12.7-0.8c-11.2,0.1-22.4,1.2-33,5.5c-2.9,1.2-6.3,1.5-9.1,3c-5.1,2.8-10,5.8-14.8,9.1
	c-3.8,2.6-7,6-10.9,8.4c-4.4,2.5-9,4.6-13.8,6.3c-4.6,1.7-9.2,2.9-14,3.7c-8.6,1.4-17,1.2-24.3-4.8c-3.7-3.1-7-6.4-8.3-11.1
	c-0.3-1-0.4-2-0.2-3.1c0.2-0.7,0.9-1.6,1.6-1.7c0.6-0.1,1.7,0.5,2,1.1c3.3,6.7,9.1,9.6,16.1,10.3c10.5,1.2,19.7-2.8,28.4-8
	c8-4.8,15.4-10.7,23.6-15.2c5.9-3.3,12.5-5.7,19.1-7.5c8.8-2.6,18-3.8,27.1-2.8c10.1,1.1,20.2,1.2,30.4,1.2
	c7.7,0.1,15.3-1.2,22.5-3.7c5.5-2,10.9-4.1,15-8.6c0.4-0.5,0.8-1,1.2-1.5c1.1-1,2.2-1.8,4-1.6c3.2,0.4,6.5,0.3,9.8,0.3
	c0.3,0,0.6,0,0.9,0c6,1.7,12.3,2.8,16.9,7.5c5.1,5,9.8,10.2,14.3,15.7c4.1,5.2,8.7,9.6,14.6,12.6c3.5,1.8,7.3,2,11,1.4
	c6.7-1.1,10.5-9.1,7.6-15.2c-1.3-2.8-2.1-5.8-3.2-8.7s-1.9-5.8-3.2-8.5c-2.4-4.8-2.9-10-4.3-15c-1.2-4.4-2.4-8.8-3.6-13.2
	c-0.6-2.4-1.2-4.8-2-7.5l6.1-0.8c2.3,6.8,4.1,13.5,6.7,19.9c1.9,4.7,4.5,9,7,13.4c3,5.4,7,10.5,8.1,16.7c0.9,5.5,0.8,10.9-3.8,15.5
	c-3.7,3.7-7.1,7.8-11.7,10.5c-2.7,1.6-5.9,2.4-8.9,3.3c-5.6,1.8-11.1,3.9-16.8,5.2c-5.5,1.3-11.1,2-16.7,2.7
	c-4.6,0.5-9.2,0.8-13.8,0.8c-4.3,0.1-8.5-0.5-12.8-0.3c-5.2,0.3-10.6,0.5-15.6,1.9c-3.5,0.9-6.9,0.8-10.3,1.5
	c-5.9,1.2-9.8,4.8-12.6,9.9c-3.8,7.1-6.8,14.4-8.4,22.3c-0.9,4.5-1.6,9-1.9,13.5c-0.5,5.8-0.4,11.6-1,17.4c-0.6,6-1.6,11.9-4.8,17.2
	c-2.9,4.8-7.5,7.5-12,10.2c-5.3,3.3-10.3,6.8-14.7,11.4c-3.4,3.6-5.2,7.6-5.3,12.5c0,2.6,1.4,4.6,3.1,6c5.4,4.3,8.9,4.9,13.5-2.7
	c0.8-1.3,1.2-2.8,2-4.1c0.4-0.6,1.3-0.8,2-1.2c0.3,0.7,0.8,1.4,0.7,2.1c-0.4,4.4-2.9,7.5-6,10.3c-2.1,1.9-5,1.9-7.7,1.8
	c-4.6-0.1-7.6-2.9-10.3-6.1c-2.7-3.2-2.7-7.1-1.9-10.8c1.6-7.1,6.4-12.1,12-16.4c4.2-3.2,8.7-6.1,12.8-9.5c4.7-3.9,6.7-9.4,7.7-15.1
	c1-6.1,1.5-12.3,1.8-18.5c0.5-7.4,1.6-14.7,4.8-21.4c2.7-5.6,6.1-10.7,9-16.3c4.1-7.9,10.8-13.5,16.7-19.7c0.8-0.8,2.1-1.2,3.6-2
	c-0.4-0.6-0.8-1.4-1.5-1.8c-7.2-3.8-12-1.9-16.8,4c-4.5,5.7-9,11.3-14.5,15.9c-2.4,2-5.6,2.9-8.5,4.2c-8.8,3.8-18.1,6.9-26.2,12.4
	c-5.1,3.5-9.1,8.1-12.3,13.5c-3.6,6.2-8,11.9-12.1,17.8c-0.7,1-1.9,1.6-2.8,2.5c-3.2,3.4-6.2,7.1-9.5,10.3c-9,9-20,12.2-32.5,11.5
	c-6.4-0.4-12.3-2.8-18.2-4.7c-3-0.9-6.1-2.1-9.2-2.3c-6.2-0.5-11.1,2.4-15.1,7C23.7,216.7,22.9,218.4,21.6,220.4L21.6,220.4z"/>
<path fill="none" d="M272.7,35.7c2.5,0,4,1.2,4.9,3.7c2,6,4,11.9,5.7,18c1.4,4.9,2.4,10,3.6,15c1.3,5.1,2.7,10.2,4.3,15.2
	c1.3,4.3,2.9,8.5,4.7,12.6c2.1,4.7,0.1,8-5.1,8.3c-4.8,0.3-8.3-2.2-11.5-5c-4.2-3.6-7.8-7.9-11.7-11.9c-3-3-6.1-5.9-9.3-8.8
	c-2.5-2.3-5.1-4.7-7.9-6.6c-4.5-3-9.6-4.3-15-4.7c-3.2-0.3-6.5,0-9.6-0.5c-4.3-0.8-4.9-3.7-3.8-7.2c0.4-1.4,0.9-2.8,1.4-4.1
	c0.7-1.6,1.9-2.6,3.6-2.3c3.5,0.6,7.1,1,10.3,2.4c9.1,3.9,17.3,9.3,24.5,16c2,1.9,3.3,4.6,5.1,6.8c0.5,0.7,1.7,0.8,2.6,1.3
	c0.1-1,0.8-2.2,0.4-2.9c-2.7-5.3-5.4-10.6-8.5-15.7c-1.7-2.8-4.7-4.3-7.5-5.9c-3.4-2-6.7-4-10-6.1c-1.2-0.8-2-2.3-3.1-3.4
	c-1.3-1.5-2.8-2.9-4.5-4.8c2.4-0.9,4.6-2.2,6.9-2.5c1.1-0.1,2.5,1.5,3.7,2.4c3.9,2.8,7.7,5.7,11.5,8.6c4.8,3.6,8.7,7.9,10.7,13.8
	c1.7,4.8,3.6,9.5,5.6,14.2c0.4,1.1,0.8,3.2,2.7,2.5c1.9-0.7,0.9-2.4,0.5-3.6c-1.6-4.8-3.6-9.6-5-14.6c-1-3.6-2-7.1-4.1-10.2
	c-3-4.5-6-9.1-10.3-12.6c-1.2-0.9-1.9-2.4-2.6-3.7c-0.1-0.3,0.6-1.5,1.2-1.6c5.1-1.6,6.7-0.9,9.5,4.2c2.6,4.6,5.2,9.2,7.9,13.8
	c0.4,0.7,1.6,1,2.4,1.4c0.1-0.9,0.6-2.1,0.1-2.7c-3.2-4.7-3.4-9.9-3.5-15.3C273.5,37.7,273,36.8,272.7,35.7L272.7,35.7z
	 M198.6,124.9c-0.9,0.8-1.9,1.6-2.7,2.4c-1.4,1.6-2.6,3.4-4.1,4.8c-4.8,4.3-8.7,9.5-11.7,15.2c-1.8,3.4-3.8,6.7-6,9.8
	c-1.7,2.5-4.2,4.6-5.6,7.2c-2.4,4.4-4.5,8.9-6.2,13.5c-2.1,5.6-5.5,9.9-9.9,13.8c-3.3,2.9-6.4,6-9.8,8.8c-2.5,2.1-5.2,3.9-7.8,6
	c-1.2,1-2.4,2.2-3.2,3.5c-3.9,6.2-7.8,12.4-11.4,18.8c-2.3,4.1-5.8,6-10.3,6.1c-5,0.1-9.9,0-14.9,0c-0.6,0-1.2,0.1-1.8,0
	c-0.7,0-1.4-0.2-2.1-0.3c0.4-0.7,0.5-1.6,1.1-2c1.2-0.7,2.5-1.2,3.8-1.3c2-0.1,4.1-0.1,5.9,0.5c4.2,1.6,7.1-0.7,10.1-2.8
	c4.9-3.3,5.9-8.7,7.5-13.8c0.8-2.8,1.2-5.9,2.8-8.1c2.1-2.9,4.6-5.8,8.2-7.3c3.6-1.5,7.1-3.2,10.5-5.1c5.2-2.9,8.4-7.7,11.4-12.6
	c3.6-5.9,5.2-12.5,7.1-19c2.2-7.5,7.2-12.8,13.9-16.6c4-2.2,7.4-5.2,10-9c2.9-4,6.1-7.8,9.6-11.4c1.2-1.3,3.5-1.6,5.3-2.3
	L198.6,124.9L198.6,124.9z M337.6,149.5c0.4,0.5,1,0.9,1.3,1.4c3.7,7.6,10.7,10.4,18.2,12.5c2.4,0.7,4.6,1.7,7,2.4
	c1.1,0.3,2.4,0,3.6,0l0.4-1.2c-1.2-1-2.3-2.2-3.6-2.9c-6.6-3.7-11.9-8.6-15.5-15.5c-4-7.6-10.9-12.8-16.6-19
	c-4.1-4.4-7.8-9.2-8.5-15.5c0-0.4,0.1-0.7,0.3-1c1,1.1,1.7,2,2.5,2.8c3,2.9,5.9,5.8,9,8.5c5.2,4.6,9.2,10.2,13.1,15.9
	c4,6,8.4,12,14.5,16c7.9,5.2,16.4,9.3,25.8,11.1c4.7,0.9,9.5,1.5,14.2,2.3c0.7,0.1,1.4,0.4,2.3,0.6c-2,2.4-3.9,4.7-5.9,6.8
	c-0.7,0.7-1.6,1-2.5,0.9c-5.1-0.9-10.1-2.2-15.1-2.9c-4.8-0.7-9.6-0.7-14.4-1.5c-4.5-0.8-8.9-1.8-13.3-3.2c-2.2-0.6-4.3-1.8-6.3-3
	c-5.7-3.2-9.1-8.2-10.8-14.3c0-0.4,0-0.7,0-1.1L337.6,149.5L337.6,149.5z M426.7,110.6c0,2.3,0,4.3,0,6.4c0,1.3-0.8,1.5-1.9,1.6
	c-3.3,0.1-6.6,0.2-9.9,0.6c-10.8,1.3-21.5,4.7-32.5,3.3c-5.5-0.6-10.9-1.7-16.2-3.2c-9.7-2.9-18.9-7.4-27.7-12.5
	c-2.8-1.6-3.6-4.8-4.1-7.9c-0.2-1.5,0.5-2.2,2-1.2c2.4,1.6,4.7,3.2,7,4.8c4.9,3.3,10.3,5.6,16,7.1c5,1.4,9.9,3.2,15.1,4
	c5.1,0.8,10.3,1.5,15.6,0.3c3.4-0.8,7-0.8,10.5-1c8.3-0.6,16.7-0.2,24.9-2.2C425.8,110.6,426.2,110.6,426.7,110.6L426.7,110.6z
	 M144.6,85.2c-1.6,0.4-2.8,0.8-3.9,0.8c-4.8,0.4-9.5,0.7-14.1-1.5c-4.4-2.1-9-2.2-13.9-1.8c-4.1,0.4-8.1,0.8-11.9,2.4
	c-3,1.3-5.8,2.9-8.8,4.2c-3.8,1.6-7.9,1.2-11.9,1c-1.6-0.1-3.3-0.1-4.9,0.1c-5.4,1-10.2,3.1-13.6,7.5c-0.7,0.8-1.6,1.4-2.5,2.3
	c-0.4-2.5,0.3-3.9,2.7-7.4c3.5-5.1,8.5-6.7,14.3-6.8c6-0.1,11.5-2.2,16.7-5c5.1-2.7,9.4-6.7,15.3-8c3.6-0.8,7.4-0.8,11-0.1
	c5.4,0.9,9.9,3.6,14.4,6.7c2.9,2,6.3,3.2,9.5,4.7C143.3,84.6,143.7,84.8,144.6,85.2z M293.3,139.3c0,2.6-1.1,4.8-2.7,6.8
	c-4.8,5.9-9.5,11.8-14.5,17.5c-3,3.4-6.9,5.5-11.4,6.5c-6.4,1.6-12.4,3.9-17.7,8c-1.3,1.1-2.5,2.4-4,3.9c-2.8-2.8-6-5.9-9.1-9
	c-1.2-1.2-1.2-2.6-0.3-4c3.8-6.2,9.5-9.5,16.5-10.9c2.7-0.5,5.4-1,8.1-1.5l0.4,0.8c-0.6,0.5-1.1,1.3-1.7,1.6c-3.2,1-6.3,1.9-9.5,2.8
	c-1.5,0.4-3.1,0.8-4.5,1.5c-0.7,0.4-1.1,1.4-1.6,2.1c0.9,0.3,1.8,0.9,2.8,0.9c3.2,0,6.5,0,9.8-0.1c2.3-0.1,4.8,0,6.9-0.7
	c4.8-1.6,9.6-3.6,14.2-5.8c2.1-1.1,3.9-3,5.4-4.9c4.2-5.2,8.2-10.5,12.3-15.7L293.3,139.3L293.3,139.3z M309.6,210.5
	c-4.2-1-8-1.6-11.5-3c-1.2-0.5-1.7-3.2-1.9-5c-0.3-4,0.4-7.7,1.7-11.5c2.2-6.7,3.9-13.6,5.2-20.6c1.2-6.3,2.1-12.7,2.1-19
	s0.4-12.5,2-18.6c0.9-3.6,2.5-6.8,5.2-9.4c1.3-1.2,2.7-1.6,4.5-0.8c-1.2,1.8-2.8,3.4-3.6,5.2c-0.9,2.2-1.5,4.5-1.7,6.9
	c-0.9,7.1-0.8,14.4-2.5,21.4c-1,4.4-1.6,8.8-2.4,13.3c-0.9,4.7-2.4,9.3-2.9,14c-0.4,2.9,0.3,6,1,8.8c1.3,5.4,2.9,10.7,4.4,16.1
	C309.4,208.7,309.4,209.2,309.6,210.5L309.6,210.5z M324.6,141.1c1,3.2,1.5,6.7,3.1,9.5c3.5,6.1,5.3,12.8,7.9,19.3
	c1.8,4.6,4.3,8.8,7.7,12.3c3.9,3.9,7.9,7.6,12.3,11c2.7,2.1,5.9,3.6,9,5.3c0.4,0.3,0.7,0.5,1.1,0.8c-3.2,2.3-6.4,3.9-10.1,4.4
	c-0.5,0-1-0.1-1.4-0.4c-7.1-4.8-13.2-11.1-17.6-18.5c-2.4-4.1-3.8-8.3-5.2-12.7c-1.6-5-3.7-9.9-5.4-14.8c-1.2-3.3-2.1-6.7-3.1-10.1
	C321.9,144.2,322.3,143.2,324.6,141.1L324.6,141.1z M294.3,161c0.2,0.6,0.5,1.2,0.4,1.7c-0.4,4.7-0.4,9.5-1.4,14.1
	c-1.1,5.3-3.8,10-7.5,14c-2.1,2.2-3.8,4.8-5.5,7.3c-2.5,3.6-3.6,4-7.7,2.1c-4-1.9-8.1-3.8-12.1-5.8c-1.3-0.7-2.4-1.6-3.6-2.5
	c-1.3-1.1-1.2-2.4,0.2-3c2.1-1,4.4-1.8,6.6-2.4c5.6-1.5,9.6-5.1,13.2-9.3c1-1.2,2-2.5,2.9-3.7l0.8,0.2c-0.2,1.4-0.2,2.9-0.7,4.2
	c-1.8,4.2-4.7,7.5-9.2,9c-1.1,0.4-2,1.2-2.9,1.9c-0.3,0.3-0.7,1-0.5,1.3c0.3,0.4,0.8,0.8,1.3,0.8c5.5-0.2,10.7-0.7,14.2-5.9
	c2-3.1,4.7-5.8,7-8.7c2.3-2.8,2-6.3,2.7-9.5c0.4-2,0.8-3.9,1.2-5.9L294.3,161L294.3,161z M197.9,97.1c-2.7,0.8-5.3,1.6-8,2.4
	c-6,1.5-12.1,2.9-18.1,4.5c-4.8,1.3-9.7,1.8-14.7,1.5c-6.8-0.5-13.4,1.7-19,5.8c-3.2,2.3-5.9,5.2-9.1,7.5c-2,1.5-4.2,2.5-6.5,3.4
	c-1.9,0.8-3.7,0-6-1.3c1.8-0.9,3-1.8,4.3-2.2c5.3-1.5,9.1-4.9,12.6-9c2.4-2.8,5.3-5.2,8.6-7c2.5-1.4,5.6-1.6,8.5-2.3
	c3.4-0.8,6.7-1.8,10.2-2.1c3.9-0.4,7.8,0,11.8,0c3.1,0,6.1,0,9.2,0c1.3,0,2.6-0.3,3.9-0.4l12.1-1.3L197.9,97.1L197.9,97.1z
	 M358.4,93.6c9.3,1.2,18.5,2.3,28.2,1.7c-1.8-4.8-6.3-4.4-9.1-7c0.7,0,1.5,0,2.3,0c0.8,0.1,1.7,0.2,2.6,0.4
	c7.5,1.4,15.1,2.8,22.6,4.2c4.3,0.8,8.7,1.2,13,0.6c2-0.3,4-1.2,5.9-1.9c1.1-0.4,1.7-0.2,1.9,1c0.1,0.8,0.4,1.6,0.4,2.4
	c0.1,1.3-0.4,2.1-1.8,2.2c-2.2,0.1-4.4,0.2-6.6,0.4c-7.2,0.7-14.5,1.7-21.8,2.1c-5.2,0.3-10.4,0-15.6-0.3
	c-6.7-0.4-12.9-2.4-19.2-4.4C360.3,94.6,359.3,94.2,358.4,93.6z M414.3,58.7c-0.7,0.2-1.4,0.3-2.2,0.4c-9.2-0.1-18.3,1.3-27,4.2
	c-4.8,1.6-9.7,3.3-14.5,5.1c-7.3,2.7-14.6,5.6-21.9,8.2c-3.7,1.3-7.5,2.2-11.5,1.3c-1.2-0.3-2.5,0-3.8-0.1c-0.8-0.1-1.6-0.3-2.5-0.5
	l-0.1-0.6c1.6-0.5,3.3-1.1,5-1.5c12-2.8,23.9-5.9,34.9-11.5c1.5-0.8,3.3-0.9,5-1.4c6.8-1.8,13.8-3.2,20.4-5.6c3.6-1.2,6.7-4,9.7-6.3
	c1.5-1.2,2-1.2,3,0.3C410.4,53.2,412.3,55.8,414.3,58.7L414.3,58.7z M364.5,130.9c5.2,1.6,9.9,4,14.1,7.3c4.2,3.2,8.2,6.8,13.2,8.7
	c2.8,1.1,5.8,1.8,8.8,2.1c2.8,0.3,5.6-0.3,8.3-0.3c2.9,0,5.8,0.3,8.9,0.5c-1.2,2.3-2.2,4.5-3.5,6.5c-0.4,0.5-1.6,0.9-2.3,0.8
	c-4.7-0.8-9.4-1.6-14.1-2.5c-3.4-0.6-6.8-1.1-10.2-1.8c-1.2-0.4-2.4-1-3.3-2c-2.2-2.1-4-4.5-6.2-6.5c-2.4-2.2-5.2-3.9-7.7-6
	c-2.3-2-4.4-4.2-6.7-6.3L364.5,130.9L364.5,130.9z M317.6,168.7c0.3,2.8,0.7,5.2,0.7,7.5c0,8.5,2,16.5,7.1,23.4
	c2.6,3.4,5.7,6.4,8.6,9.7c-0.3,0.2-0.6,0.3-1,0.4c-3.2,0.3-6.4,0.6-9.7,0.7c-0.8,0-1.6-0.5-2-1.2c-1.3-2.5-2.8-4.8-2.8-7.9
	c-0.1-4.7-1.4-9.3-2.3-13.9c-0.8-3.8-1.9-7.6-2.4-11.5C313.7,173.3,314.5,170.8,317.6,168.7z M383.2,33.2l-1.8-2l-10.5,9l-0.6-0.7
	c1.1-1,2.3-2,3.2-3.2c2.2-2.5,4.4-4.9,6.3-7.7c1.6-2.4,2.4-2.8,4.8-1.2c3.2,2.2,6.3,4.4,9.7,6.9c-2.2,1.9-4.2,3.5-6,5.1
	c-1.1,0.9-2.4,1.8-3.2,2.9c-2,2.8-4.8,4.9-8.1,6c-3,1-5.9,2.1-9.1,3C375.9,47.8,380,40.9,383.2,33.2L383.2,33.2z M272.3,143.9
	c-0.9,0.3-1.8,0.8-2.7,0.8c-1.2,0-2.3-0.2-3.5-0.4c-7.5-1-15,0.2-22.3,1.9c-6.5,1.5-12.5,4.5-17.8,8.7c-0.3,0.2-0.5,0.5-0.8,0.8
	c-2.3,3.2-2.6,3.2-4.5-0.2c-2.2-3.9-2.2-3.9,1.9-5.6c3.5-1.5,6.9-3.2,10.5-4.2c4-1.1,8.1-1.6,12.2-2.1c5.3-0.7,10.6-1.5,15.9-1.7
	c3.7-0.2,7.4,0.5,11.1,0.8L272.3,143.9z M323.1,16.7c1.6-0.5,3.1-0.9,4.5-1.4c1.4-0.5,2-0.1,2.3,1.5c0.8,5.7,2,11.5,2.7,17.2
	c0.4,3.6,0.7,7.3,0.7,10.9c0,0.9-0.7,2.1-1.4,2.8c-1.4,1.4-3,2.6-4.7,3.6c1.3-6,2.9-12,1.5-17.9C327.5,27.8,325.1,22.3,323.1,16.7z"
	/>
<path fill="none" d="M226.3,54.3c2.4-2.4,4.3-4.6,6.4-6.4c0.5-0.4,2.2,0,3.1,0.5c1,0.6,1.6,1.8,2.4,2.8c4.3,5.1,10.3,7.9,15.9,11.1
	c3.4,1.9,5.4,4.8,7,8.1l-0.4,0.5c-2.2-1.6-4.5-3-6.6-4.7c-5.1-4.4-11-7.4-17.1-9.8C234,55.1,230.5,55,226.3,54.3L226.3,54.3z
	 M312,61.6c-0.3-5.2-0.5-10.3-0.8-15.5c-0.3-5.9-1.6-11.5-5.8-16c-1.1-1.2-2.5-2.2-4-3.4l7.7-4.6c0.3,1.5,0.8,2.8,0.7,4
	c-0.4,5.2,1.7,9.8,3.4,14.5c1,2.7,1.9,5.5,2.3,8.3c0.3,1.9-0.4,3.9-0.8,5.8c-0.4,1.9-0.8,3.8-1.4,5.7c-0.2,0.5-0.5,1-0.8,1.5
	L312,61.6L312,61.6z M421.8,76.8c-0.5,0.2-1.1,0.3-1.6,0.4c-3.9,0.6-7.7,1.4-11.6,1.6c-3.8,0.2-7.5-0.3-11.3-0.7
	c4-2.8,8.7-4.7,13.5-5.4c2.2-0.3,4.5-0.2,6.7-0.5c2.2-0.3,3.4,0.7,3.8,2.8C421.4,75.7,421.6,76.1,421.8,76.8L421.8,76.8z
	 M344.8,49.1c2.2-1.9,4.4-3.7,6.6-5.6c5.9-4.9,9.6-11,10.4-18.7c0.1-1.4-0.3-2.9-0.4-4.4c0-0.8,0.1-1.6,0.3-2.4l5.6,2.1
	c-3.5,7.5-6.8,14.7-10.4,21.9c-1.6,3.2-8.5,7.2-11.8,7.5L344.8,49.1z M399.8,137.3c7,3,14.3,3.9,21.8,3.4c0.1,0.2,0.1,0.4,0.1,0.6
	c-1.8,4.2-3.4,4.8-8.9,3.2c-1.2-0.4-2.5-0.6-3.8-0.6c-3.4,0.3-5.8-1.6-8.2-3.5c-0.8-0.6-1-1.8-1.6-2.7L399.8,137.3z M264.8,54.5
	l-18.2-12.8l0-0.9c1.8-0.6,3.5-1.2,5.3-1.7c0.4-0.1,1,0.7,1.5,1.1c1.8,1.9,3.6,3.7,5.3,5.7c2.2,2.6,4.3,5.4,6.5,8.1L264.8,54.5
	L264.8,54.5z M363.6,184.6l19.2,3.6l0.1,0.8c-2,1.2-4,2.5-5.9,3.8c-0.4,0.2-0.8,0.2-1.2,0c-4.4-1.8-8.3-4-11.7-7.4
	C363.9,185.1,363.7,184.9,363.6,184.6L363.6,184.6z M345.8,28l-1.5-13c2.8-0.4,2.8-0.4,2.9,2c0.2,2.4,0.7,4.9,0.8,7.3
	c0,1.3-0.6,2.6-0.9,3.8C347,28.1,345.8,28,345.8,28z M264.8,35.3c3.3-2,5.4-0.6,5.9,4c0.1,1.1-0.1,2.1-0.3,3.8L264.8,35.3
	L264.8,35.3z"/>
</svg>
