<svg xmlns="http://www.w3.org/2000/svg" viewBox="0 0 444 273.5"><title>nautilus</title><path fill="none" d="M0 273.5V0h444v273.5H0zm135.4-170.1c-2.9 3.1-5.5 5.9-8.3 8.6-1.7 1.5-3.5 2.8-5.6 3.7-2 1-4.2 1.5-6.2 2.5-2.1 1.1-2.5 3.6-.6 4.6 3.3 1.7 6.8 3.2 10.7 1.5 4.2-2 7.9-4.7 11.2-7.9 4.9-4.8 11.1-7.4 17.9-8 .6 0 1.2 0 1.8.2-2.4 1.7-4.4 3.3-6.6 4.8-5.7 4.1-10.7 9.3-17.6 11.5-4.3 1.3-8.6 3-13 3.4-8.8.7-17.3 1.7-25 6.6-5.2 3.1-10.1 6.2-12.1 12.5-1.9 5.6-3.3 11.2-1.4 17.2.8 2.4 1.4 5.2.9 7.5-1.2 5.7-4.1 10.6-9.2 13.9-1.7 1.1-4 .6-5.2-1.2-.3-.5-.5-1.1-.6-1.7-.2-2.7-.2-5.3 3-6.5 1.1-.4 2-1.2 2.8-2.1.8-.9 1.6-2.2 1.5-3.3 0-1-1.1-2.3-2.1-2.8-3.9-1.8-10.4-.2-13.2 3-5 5.8-4.6 13.6.6 19.1 4.8 5.2 10.7 5.8 16.9 4.5 8.3-1.8 13-8.2 17.5-14.6 2.9-4.1 2.4-9.2 2.3-14-.1-4-.5-8-.3-11.9.2-3.5 1.5-6.8 4.3-9.3 4-3.4 8.9-4.8 13.9-5.1 7-.5 14-.4 21-1.8 6.4-1.3 12.7-3.2 18.2-6.7 4.8-3.1 9.2-6.8 14.1-9.9 4-2.5 8.3-4.3 12.5-6.4.4-.2 1.1 0 1.6 0-1.6 2-3 3.8-4.4 5.6-2 2.9-3.7 6.1-6 8.8-6.2 7.1-14 11.5-23.2 13.9-6.7 1.7-13.5 3.6-19.1 7.9-3.9 2.9-7.5 6.1-9.5 10.8-1.3 3.4-2.7 6.8-4.5 9.9-3.5 5.7-8.2 10.3-13.2 14.6-5.5 4.7-10.7 9.7-16.5 14.1-3 2.3-6.6 4.5-10.2 5-7.9 1.1-15.8-.3-23.4-2.5-8.3-2.4-16.5-2.8-24.6.5-6.7 2.8-10.3 8.6-10.1 15.1 0 2.7 2.3 4.8 5.2 5.2 2.8.4 3.8-.4 5.1-3.3 1.1-2.4 1.4-5.3 4.3-6.7 2.8-1.3 5.6-3.2 8.8-2.6 3.5.6 6.9 2 10.3 3.1 3.2 1.1 6.3 2.7 9.7 3.2 4.1.7 8.4.4 12.6.6 3.7.2 7.5-.3 11.1-1.3 7.5-2.2 14.2-5.4 19.8-10.8 9.4-9 17.8-18.7 24.6-29.9 2.1-3.3 4.4-6.5 6.8-9.6 4.2-5.3 10.3-8 16.3-10.8 3.7-1.8 7.4-4 11.9-3.8-.2.4-.5.8-.8 1.1-3.8 3.2-5.4 7.6-7.2 11.9-.4.8-.4 1.7-.5 2.6-.3 1.5-.3 3.1-.9 4.4-1.6 3.2-3.4 6.4-5.2 9.5-2.9 5-6.6 9.2-12 11.6-4.3 1.9-8.7 3.8-12.5 6.6-2.9 2.1-5.2 5.4-6.9 8.6-1.5 2.8-1.6 6.3-2.4 9.4-.8 3.1-1.6 6-4.3 8.1-2.5 2-4.8 3.6-8.4 2.6-4.8-1.4-9.6-.8-13.5 2.7-1.2 1.2-1.8 2.7-1.9 4.4 0 .9 1.4 2.2 2.5 2.8.9.5 2.3.2 3.4.2 2.6-.1 5.2-.3 7.8-.3 5.8-.1 11.8.8 17.3-1.9 1.6-.8 2.9-1.9 4-3.2 3.1-4.5 5.8-9.2 8.8-13.7 2.2-3.2 4.2-6.7 7-9.4 4.2-4 9-7.5 13.4-11.2 2.4-2 4.8-4.1 6.8-6.4 3.4-4 6.4-8.2 9.8-12.4.1.7.1 1.4.1 2.1-.1 1.6-.6 3.2-.6 4.8.2 5.9-.7 11.6-1.8 17.4-1.3 6.7-5.2 11.4-10.8 14.9-6.9 4.3-13.6 8.7-17.8 16-2.2 3.9-4 7.9-3.9 12.5.1 2.5.4 5.1 1 7.6.2.9 1.1 1.7 1.8 2.5.6.6 1.5 1 2 1.7 3.6 5.1 9 5 14.2 4.4 4.4-.5 7.5-3.6 9.9-7.3 1.9-2.9 3.7-5.9 3-9.5-.3-1.4-1.1-2.6-2.2-3.4-1.4-1-2.9-.1-3.8 1.2-1.3 1.8-2.5 3.7-3.5 5.8-1 2.3-2.7 3.7-4.9 3.7-2.4 0-4.4-1.4-5.6-3.6-1.9-3.7-.8-7.2 1.4-10 2.9-3.6 6.2-6.8 9.8-9.7 3.8-3 8.1-5.3 12.1-8.2 4.4-3.2 8.3-7.1 10-12.4 2.8-8.7 3.6-17.7 3.6-26.8 0-2.8 0-5.6.5-8.3 1-5.2 2.1-10.3 3.5-15.5 1.8-6.7 4.2-13.1 8.4-18.7 2.5-3.3 5.9-5.3 10.6-5-2.7 2.6-4.1 5.6-4.2 9.1 0 1.8-.5 4.2.4 5.2 1.8 2 4.4 3.2 7.5 2.6 1.2-.2 2.8 0 3.6.6 2 1.7 4 3.6 5.6 5.6 3.8 4.8 7.2 10 11.1 14.7 3.3 4 7.1 7.6 10.8 11.3 2.4 2.4 4.8 4.8 7.5 6.7 3.7 2.6 7.6 5 11.6 7.1 3.8 2.1 7.6 4.3 11.7 5.6 9.2 3.1 18.5 5.9 27.8 8.4 4.2 1.2 8.7 2.2 13.1 2.1 7.5-.1 15-1.2 22.6-1.6 4.9-.3 9.6-1.5 14.3-2.9 4.6-1.4 9-3 13.5-4.6 1.4-.5 2.8-1.2 4.1-1.9 3.2-1.6 6.3-3.4 9.4-5.1 2.7-1.5 5.6-2.8 8.1-4.6 8.2-6 15.9-12.8 23-20.2 2.5-2.7 5.4-5.2 7.3-8.2 3.5-5.5 6.6-11.3 9.3-17.2 2.5-5.3 4.6-10.8 6.1-16.4 1.2-4.7 2.4-9.5 2.4-14.5 0-3.9.7-7.7.8-11.6.1-4.7.1-9.4-.5-14-.7-5.8-1.8-11.5-3.3-17-1.8-6.4-4.8-12.5-8.7-17.9-4.4-6.1-7.8-12.8-13.5-17.9-2.7-2.4-5.1-5.2-7.6-7.7-2-2-4-4.1-6.3-5.6-3.8-2.6-7.8-4.8-11.8-7-3.5-2-6.8-4.3-10.5-5.6-4.6-1.6-9.4-2.5-14.2-3.2-7.8-1.1-15.6-1-23.4.1-6 .8-11.8 2.6-17.1 5.5-3.6 1.9-7.4 3.4-11.1 4.9-6.9 2.8-12.3 7-13.9 14.9-.7 3.5-1.2 3.6-5.2 3.9-2.4.1-2.7-1.8-3.3-3.4-.8-1.8-1.6-3.6-3.8-4.2-2.6-.7-5.2-1.7-7.8-1.6-3.2.1-6.4 1.1-9.5 2.1-7.2 2.4-14.5 4.6-21.4 7.5-9.1 3.8-15.5 10.6-19.2 19.8-1.4 3.5-2.4 7-.4 10.6.2.4.2.8 0 1.2-1.2 1.6-2.4 3.5-4 4.7-2.2 1.6-4.7 2.8-7.2 4.1-4.9 2.5-10.2 3.8-15.6 4.4-3.6.4-7.3.8-10.9.8-3.2.1-6.4-.3-9.7-.4-1.2 0-2.5.5-3.7.4-4.8-.5-9.5-1-14.3-1.8-7.2-1.2-14.1-3.2-20.1-7.7-2.1-1.6-4.4-3.4-6.9-4-5.3-1.5-10.5-3.6-16.3-2.9-4.7.6-9.1 1.8-13.1 4.3-4.8 2.8-8.9 6.8-14.6 7.9-4.1.8-8.3 1.5-12.4 2-8.1 1.1-13.1 6.8-15 14-.5 1.9.3 3.5 1.9 4.5 1.7 1.1 3.4.9 4.9-.4.9-.9 1.7-1.8 2.4-2.8 4.4-5.1 9.9-7.4 16.7-6.6 5.4.6 10.7.1 15.7-2.7 8.5-4.9 17.5-5.9 27-3.6 1 .3 1.9.7 2.8 1.1-.8.3-.9.4-1.2.5-5.5 1.9-11 3.6-16.4 5.7-8.9 3.5-16.1 9.9-24.1 14.7-4.9 2.9-9.8 6-15 8.2-4.8 2-9.9 3-15.4 2.1-4.6-.8-8.3-2.6-11.3-6.2-1.1-1.4-2.1-3-3.6-3.9-1.6-1-3.8-1.9-5.6-1.6-2.3.4-3.4 2.8-3.6 5-.2 2.2-.3 4.8.6 6.7 1.5 3.4 3.2 6.7 6.3 9.1 2 1.6 4.3 2.7 6.3 4.3 5.5 4.3 11.8 4.9 18.2 3.7 6.9-1.3 14-2.2 20.6-5.2 4.9-2.2 10.1-3.6 14.3-7.1 3.1-2.6 6.1-5.2 9.4-7.5 4-2.8 8.1-5.4 12.4-7.5 4.3-2.1 8.9-3.5 13.4-5.1 1.1.2 2.1.2 3.4.1z"/><path fill="#FFC107" d="M135.4 103.4c-1.2.1-2.3.1-3.2.4-4.5 1.6-9.1 3-13.4 5.1-4.4 2.1-8.4 4.8-12.4 7.5-3.3 2.3-6.3 4.9-9.4 7.5-4.2 3.6-9.4 5-14.3 7.1-6.6 2.9-13.7 3.8-20.6 5.2-6.4 1.2-12.7.6-18.2-3.7-2-1.6-4.3-2.7-6.3-4.3-3-2.4-4.8-5.8-6.3-9.1-.8-2-.8-4.5-.6-6.7s1.3-4.6 3.6-5c1.7-.3 3.9.7 5.6 1.6 1.4.8 2.4 2.5 3.6 3.9 2.9 3.6 6.7 5.5 11.3 6.2 5.4.9 10.6-.1 15.4-2.1 5.2-2.2 10.2-5.2 15-8.2 8.1-4.9 15.2-11.2 24.1-14.7 5.4-2.1 10.9-3.8 16.4-5.7.2 0 .4-.2 1.2-.5-.9-.4-1.9-.8-2.8-1.1-9.5-2.4-18.5-1.3-27 3.6-4.9 2.8-10.3 3.4-15.7 2.7-6.8-.8-12.3 1.5-16.7 6.6-.8 1-1.6 1.9-2.4 2.8-1.5 1.4-3.2 1.6-4.9.4-1.6-1.1-2.4-2.7-1.9-4.5 1.9-7.2 7-12.9 15-14 4.2-.6 8.3-1.2 12.4-2 5.7-1.2 9.9-5.1 14.6-7.9 4-2.4 8.4-3.7 13.1-4.3 5.8-.7 11 1.5 16.3 2.9 2.5.7 4.8 2.4 6.9 4 5.9 4.6 12.9 6.6 20.1 7.7 4.8.8 9.5 1.3 14.3 1.8 1.2.1 2.4-.4 3.7-.4 3.2 0 6.4.4 9.7.4 3.6-.1 7.3-.4 10.9-.8 5.4-.6 10.7-1.9 15.6-4.4 2.4-1.2 5-2.4 7.2-4.1 1.6-1.2 2.7-3 4-4.7.2-.4.1-.8 0-1.2-2-3.6-.9-7.1.4-10.6 3.7-9.2 10.1-16 19.2-19.8 7-2.9 14.3-5.2 21.4-7.5 3.1-1 6.3-2 9.5-2.1 2.6-.1 5.2.9 7.8 1.6 2.1.5 3 2.4 3.8 4.2.7 1.6.9 3.5 3.3 3.4 4-.3 4.5-.4 5.2-3.9 1.6-7.9 7-12 13.9-14.9 3.8-1.6 7.5-3 11.1-4.9 5.3-2.8 11.1-4.7 17-5.5 7.8-1.1 15.6-1.2 23.4-.1 4.8.7 9.6 1.6 14.2 3.2 3.7 1.3 7.1 3.6 10.5 5.6 4 2.3 8 4.5 11.8 7 2.3 1.6 4.3 3.7 6.3 5.6 2.6 2.5 4.9 5.3 7.6 7.6 5.8 5.1 9.2 11.8 13.5 17.9 3.9 5.4 6.9 11.5 8.7 17.9 1.5 5.6 2.6 11.3 3.3 17 .6 4.6.5 9.3.5 14 0 3.9-.8 7.7-.8 11.6 0 5-1.2 9.8-2.4 14.5-1.6 5.6-3.6 11.1-6.1 16.4-2.8 5.9-5.9 11.6-9.3 17.2-1.9 3.1-4.8 5.6-7.3 8.2-7 7.4-14.7 14.2-22.9 20.2-2.5 1.8-5.4 3.1-8.1 4.6-3.1 1.7-6.3 3.4-9.4 5.1-1.3.7-2.7 1.3-4.1 1.9-4.5 1.6-9 3.2-13.5 4.6-4.7 1.4-9.3 2.7-14.3 2.9-7.5.4-15 1.5-22.6 1.6-4.4 0-8.8-1-13.1-2.1-9.3-2.6-18.6-5.3-27.8-8.4-4.1-1.4-7.9-3.6-11.7-5.6-4-2.2-7.9-4.6-11.6-7.1-2.7-2-5.2-4.4-7.5-6.7-3.7-3.7-7.5-7.3-10.8-11.3-4-4.8-7.4-9.9-11.1-14.7-1.6-2.1-3.5-4-5.6-5.6-.8-.7-2.4-.8-3.6-.6-3.1.6-5.7-.7-7.5-2.6-.9-1.1-.5-3.5-.4-5.2.1-3.6 1.6-6.6 4.2-9.1-4.6-.3-8 1.6-10.6 5-4.2 5.6-6.6 12.1-8.4 18.7-1.4 5.1-2.5 10.3-3.5 15.5-.5 2.7-.5 5.6-.5 8.3 0 9.1-.8 18.1-3.6 26.8-1.7 5.3-5.6 9.2-10 12.4-4 2.8-8.3 5.1-12.1 8.2-3.6 2.8-6.9 6.1-9.8 9.7-2.2 2.8-3.3 6.3-1.4 10 1.2 2.3 3.2 3.6 5.6 3.6 2.3 0 3.9-1.5 4.9-3.7 1-2 2.1-4 3.5-5.8.9-1.2 2.4-2.1 3.8-1.2 1.1.8 1.9 2 2.2 3.4.7 3.6-1.1 6.6-3 9.5-2.4 3.6-5.4 6.8-9.9 7.3-5.2.6-10.6.7-14.2-4.4-.5-.7-1.4-1-2-1.7-.7-.8-1.6-1.6-1.8-2.5-.5-2.5-.8-5.1-.9-7.6-.2-4.6 1.7-8.7 3.9-12.5 4.1-7.3 10.9-11.7 17.8-16 5.6-3.5 9.5-8.3 10.7-14.9 1.1-5.8 2-11.5 1.8-17.4 0-1.6.4-3.2.6-4.8 0-.7 0-1.4-.1-2.1-3.3 4.3-6.4 8.5-9.8 12.4-2 2.4-4.4 4.4-6.8 6.4-4.4 3.8-9.2 7.2-13.4 11.2-2.8 2.7-4.8 6.2-7 9.4-3 4.5-5.8 9.2-8.8 13.7-1 1.4-2.4 2.5-4 3.2-5.5 2.7-11.5 1.8-17.3 1.9-2.6 0-5.2.2-7.8.3-1.2 0-2.5.3-3.4-.2-1.1-.5-2.5-1.8-2.5-2.8.1-1.6.8-3.2 1.9-4.4 3.9-3.5 8.7-4 13.5-2.7 3.6 1 5.9-.6 8.4-2.6 2.7-2.1 3.5-5.1 4.3-8.1.8-3.2 1-6.6 2.4-9.4 1.7-3.2 4-6.5 6.9-8.6 3.7-2.8 8.2-4.7 12.5-6.6 5.5-2.4 9.1-6.6 12-11.6 1.8-3.1 3.6-6.3 5.2-9.5.6-1.3.6-2.9.9-4.4.2-.8.2-1.8.5-2.6 1.8-4.3 3.4-8.8 7.2-11.9.3-.3.6-.7.8-1.1-4.5-.2-8.2 2-11.9 3.8-5.9 2.8-12 5.5-16.3 10.8-2.5 3.1-4.8 6.3-6.8 9.6-6.8 11.1-15.2 20.9-24.6 29.9-5.7 5.4-12.4 8.7-19.8 10.8-3.6 1-7.3 1.5-11 1.3-4.2-.1-8.5.1-12.6-.6-3.3-.5-6.4-2.1-9.7-3.2-3.4-1.1-6.8-2.5-10.3-3.1-3.2-.5-5.9 1.2-8.8 2.6-2.9 1.4-3.2 4.3-4.4 6.7-1.2 2.9-2.3 3.7-5.1 3.3-2.9-.4-5.2-2.6-5.2-5.2-.1-6.5 3.4-12.3 10.1-15.1 8.1-3.4 16.3-3 24.6-.5 7.6 2.2 15.5 3.6 23.4 2.5 3.6-.5 7.2-2.7 10.2-5 5.7-4.4 11-9.4 16.5-14.1 5-4.3 9.7-8.9 13.2-14.6 1.9-3.1 3.2-6.5 4.5-9.9 1.9-4.8 5.6-7.9 9.4-10.8 5.6-4.3 12.5-6.2 19.1-7.9 9.2-2.4 17-6.8 23.2-13.9 2.3-2.7 4-5.9 6-8.8 1.3-1.9 2.8-3.6 4.4-5.6-.5 0-1.2-.2-1.6 0-4.2 2-8.6 3.9-12.5 6.4-4.8 3-9.2 6.7-14.1 9.9-5.6 3.6-11.8 5.4-18.2 6.7-7 1.5-13.9 1.3-21 1.8-4.9.4-9.9 1.7-13.9 5.1-2.8 2.4-4.1 5.7-4.3 9.3-.2 4 .3 7.9.3 11.9.1 4.8.6 9.9-2.3 14-4.5 6.4-9.2 12.8-17.5 14.6-6.3 1.3-12.1.7-16.9-4.5-5.2-5.6-5.5-13.3-.6-19.1 2.8-3.2 9.3-4.8 13.2-3 1 .4 2 1.8 2.1 2.8.1 1.1-.8 2.4-1.5 3.3-.8.9-1.7 1.6-2.8 2.1-3.2 1.2-3.2 3.8-3 6.5.2 2 2 3.6 4 3.4.6 0 1.2-.2 1.7-.6 5.1-3.3 7.9-8.3 9.2-13.9.5-2.4-.1-5.1-.9-7.5-2-6-.5-11.5 1.4-17.2 2-6.2 7-9.4 12.1-12.6 7.7-4.8 16.2-5.9 25-6.6 4.4-.4 8.7-2 13-3.4 6.9-2.1 11.9-7.4 17.6-11.5 2.1-1.5 4.2-3.1 6.6-4.8-.6-.1-1.2-.2-1.8-.2-6.9.6-13 3.2-17.9 8-3.2 3.2-7.1 5.9-11.2 7.9-3.9 1.8-7.4.3-10.7-1.5-1.9-1-1.5-3.6.6-4.6 2-1 4.3-1.5 6.2-2.5 2-1 3.9-2.3 5.6-3.7 2.8-2.9 5.3-5.8 8.3-8.8zm239.5-62.6c-.3.1-.6.3-.8.4-2.8 1.7-5.6 3.6-8.5 5.2-.6.4-1.6.1-2.4.2 0-.8-.1-1.7.2-2.4 2-4.7 6.3-7.4 9.6-11.1 2-2.3 3.9-4.6 5.6-7.1.3-.4-.2-1.8-.7-2.1-1.5-.9-3.1-1.6-4.8-2.2-1.4-.4-2.9-.5-3.7 1.4-1.6 3.6-3.2 7.1-4.8 10.7-1.9 4.1-2.8 8.8-6.4 11.7-3.2 2.5-6.9 4.3-10.3 6.4-1.9 1.2-3.9 2.3-5.7 3.6-1.3.9-2.4 2.2-3.7 3.1-.6.4-1.9.8-2.3.5-.6-.7-.9-1.6-.8-2.4.3-1.3.8-2.8 1.7-3.7 4.7-4.8 9.6-9.5 14.3-14.3 1.6-1.6 3.3-3.3 4.5-5.2 2.8-4.4 3.1-9.5 2.7-14.6 0-.5-.8-1.3-1.4-1.5-1.8-.6-3.8-1-5.6-1.6-1.6-.5-1.9.3-1.8 1.5.2 2 .7 3.9.8 5.8 0 1.6.7 3.2-.8 5-1.5 1.6-1.8 4.3-2.6 6.5-.5 1.4-.7 2.9-1.4 4.1-.4.7-1.6.9-2.5 1.2-.1 0-.8-1.2-.8-1.9 0-1.4.4-2.8.4-4.1-.2-4.8-.4-9.7-.9-14.5-.5-5.1-1.3-5.6-5.4-5.1-.4 0-.8.4-1.2.4-2.1-.2-2.4 1-2.2 2.6.9 6.3 2 12.5 2.8 18.7.4 2.8.7 5.6.6 8.5 0 2-.8 3.9-2.6 5.2-3.6 2.6-6.8 5.5-7.7 10.2-.1.5-.4.9-.8 1.2-.5.4-1.2.5-1.8.5-.4 0-.8-.8-.8-1.3-.1-1.5-.2-3 .1-4.4 1-5.1 2.9-10 3.2-15.3.2-4 0-7.8-1.5-11.5-.9-2.3-1.9-4.5-2.7-6.9-1.8-5.2-2-5.3-7.1-2.8-.2 0-.4.1-.6.3-.6.8-1.4 1.6-1.6 2.6-.9 6.9 1.6 13 4.1 19.1 1.2 3 2 6.1 1.5 9.4-.4 2.6-1.1 5.1-1.7 7.6-.8 3-1.6 6-2.6 8.9-.2.6-1.1 1.1-1.6 1.6-.5-.6-1.2-1-1.5-1.7-.6-1.7-1.1-3.5-1.3-5.2-.5-5.9-1.1-11.8-1.3-17.7-.2-6-3.2-10.5-7.4-14.3-2-1.9-3.2-1.6-4.7.7-2.6 4.2-3.1 9-1.9 13.5 1.4 5.3 3.5 10.4 5.4 15.6 1.2 3.1 2.2 6.3 3.8 9.2 3.5 6.3 7.2 12.4 10.8 18.6 2.5 4.5 2.4 9.3 1 14-1.9 6.2-5.8 11.1-11 14.8-2.6 1.9-5.2 4.1-8.1 5.3-6.5 2.7-13.2 4.7-19.8 7.1-10.6 4-21.9 5.8-33.3 5.4-5.2-.2-10.5-.1-15.8 0-4 .1-7.9.7-11.8.8-4.6.2-7.8 2.5-10.2 6.2-1 1.5-1.7 3.3-.6 4.8.6.8 2.2 1 3.4 1.4 2.2.7 4.4 1.4 6.6 1.9 1.2.3 2.4.3 3.6-.1 4.2-1.6 8.2-3.6 12.4-5.3 9.1-3.8 19-3.4 28.6-4.3 4.5-.4 9.2.4 13.8.8 1.6.1 2.5 1.1 2.6 2.7.1 1.6-.4 2.9-2.1 3.4-1.3.3-2.6.5-3.9.5-6 .2-12.1-.7-18.2.3-8.2 1.3-15.7 3.8-22.2 9.1-2.1 1.7-3.9 5.2-3 6.7 1.1 1.8 2.4 3.5 3.8 5.5 5.2-8 12.4-12.2 21.3-13.6 3.6-.6 7.1-1.3 10.7-1.8.8-.1 1.8.3 2.7.5-.3.8-.3 1.8-.8 2.5-2.3 3.2-5.1 5.6-9.1 6.1-.1 0-.2.4-.5 1.2 3-.7 5.7-1.1 8.2-1.8 2.4-.7 4.7-2 7.1-2.7 2.8-.8 4.8-2.3 6.5-4.5 4.4-5.6 8.9-11.1 13.4-16.7 1.1-1.4 2.3-2.7 3.5-4 1.2-1.3 2.5-2.6 3.9-3.7.9-.7 1.9-.2 1.8 1.1-.1 1.6-.5 3.1-.8 4.7-.8 4.3-1.9 8.6-4.5 12.1-3.1 4.1-6.4 8.1-9.7 12.1-1.6 2-3.1 4.1-5 5.8-3.7 3.2-8.1 5.6-12.9 6.8-5.4 1.4-10.6 3.4-15.2 6.7-3.4 2.4-3.7 5-.9 7.8l.6.6c1.3 1.5 2.6 1.3 3.9 0 2.1-2.1 4.8-3.6 7.8-4.1 4-.8 7.2-2.8 10-5.7 3.4-3.6 6.9-7 10.4-10.4.6-.6 1.6-.7 2.4-1 .2 1.1.7 2.2.5 3.1-.5 2.1-1.3 4.2-2 6.3-.5 1.6-.9 3.2-1.4 4.8 1.7-1.6 3.4-3.3 4.8-5.1.7-.9 1.4-1.9 1.7-3 .6-2.8.9-5.6 1.5-8.3.8-4.2 2.4-8 6.2-10.9.5 1.1.8 2.2.9 3.4.1.9 0 1.8.1 2.7.2 2.2.8 4.5.8 6.7s-.6 4.3-.8 6.5c-.7 7.2-3.6 13.4-8.1 18.9-2.8 3.5-5.5 7.1-8.6 11.1 3.8 1.2 6.8 2.3 9.9 3.2 2.5.8 3.3 0 2.7-2.5-.8-3.2-.1-6.1.8-9 1-3.2 2.1-6.4 3.1-9.7 3.1-11.1 5.3-22.2 5.2-33.8 0-3.3-.4-6.7.2-9.9 1-4.9 2.7-9.7 4.3-14.6 1.2-3.6 6.7-7.5 10.6-7.4 1.1 0 2.4.8 3 1.7.4.5 0 1.9-.4 2.7-.4 1-1.4 1.7-1.9 2.7-1.1 2-2.4 3.9-2.8 6-1.2 7.1-.4 14.4-2.2 21.5-1.4 5.2-1.9 10.7-3.2 16-1.2 4.8-2.6 9.5-2.6 14.5 0 9.2 3.3 17.7 5.8 26.3h4.3c-.4-3.2-.8-6.3-1.3-9.5-.5-3.3-1.1-6.6-1.7-9.9-.9-5.4-2.3-10.7-2.6-16.1-.2-3.9.9-7.8 5.5-9.5 2.1-.8 4-.2 4.1 1.6.3 4.2.8 8.3.8 12.5 0 6 2 11.4 5.2 16.2 2.9 4.4 6.7 8.4 10.3 12.6.4.4 1.3.6 1.9.4 2-.4 4.1-1 6.1-1.6 1.8-.6 3.6-1.2 5.9-2-1-.8-1.4-1-1.8-1.4-3.9-3.8-8.3-7.2-11.5-11.5-4.1-5.4-8-11.1-9.6-17.8-.4-2.2-1-4.4-1.7-6.5-2.1-5.9-4.7-11.7-6.4-17.8-.8-2.9-.9-6-.2-9 .8-2.8 3-5.3 4.7-7.8.9-1.3 3.2-.6 3.9 1.1.3.9.5 1.8.5 2.8.1 2.4-.2 4.8.1 7.1.2 2 .7 3.8 1.5 5.6 1.4 3.3 3.3 6.4 4.7 9.7 1.2 2.8 2 5.9 3.1 8.8 1.8 5.4 4.8 10.3 8.9 14.3 4.9 4.8 10.1 9.4 16.4 12.2 2.8 1.2 6.1 3 9.6.3-.6-.5-1.2-.9-1.9-1.3-4.4-2.4-8.3-5.5-11.5-9.3-1.5-1.8-4-3.4-3.1-6.6 6.1 1.8 11.6 5.3 18.1 5.6 4.4.2 8.7.7 13.1 1 .5 0 1.2-.5 1.6-.8 1.7-1.4 3.3-2.8 5.2-4.4-.8-.3-1.4-.8-2-.8-6-1.1-12-2.2-18-3.1-4.4-.7-9-.9-13.4-1.9-8.2-1.9-16.1-4.7-21.6-11.7-2.4-3.1-4.8-6.2-5.5-10.3-.5-3-1.4-5.9-2-8.9-.2-1.1-.1-2.3-.1-3.5 1 .5 2.2.7 2.8 1.5 3.6 4.7 7 9.5 10.5 14.2 2.2 2.9 5.4 3.9 9.1 4.5-.2-.4-.4-.8-.7-1.2-1.7-2.2-3.6-4.4-5.2-6.7-3.1-4.3-5.9-8.9-9.2-12.9-3.6-4.3-7.9-7.9-11.5-12.1-4.1-4.8-7.5-10-7.5-16.7 0-2.2 1.6-4.6 3.3-4 1 .4 1.9 1.5 2.6 2.4 1.6 2.1 2.7 4.5 4.4 6.4 2 2.3 4.5 4.1 6.9 6.1 7.2 6.1 11.3 14.7 17.2 21.8 2 2.5 3.8 5.3 6.3 7.3 4.8 3.8 10.2 6.8 15.9 8.7 4.7 1.6 9.6 2.6 14.5 3.7 5 1.1 10.1 2 15.1 2.9.4.1.7 0 1-.2 1.1-1.3 2.1-2.6 3.4-4.4-2-.4-3.3-.6-4.8-.9-4.3-1-8.6-2.2-12.9-2.9-6.5-1.1-12-3.4-16.4-8.8-2.8-3.5-7-5.9-10.4-9-2.6-2.4-4.7-5.2-7.1-7.8-1.6-1.6-3.4-3-5-4.7-.4-.4-.5-1.8-.1-2.2.5-.5 1.7-.9 2.3-.7 4.4 1.8 8.6 3.9 12.9 5.6 5.6 2.2 10.7 5.3 15.3 9.1 3.8 3.1 7.6 6.1 12.5 7.1 1.6.4 3.2.5 4.8.8 0-.5-.2-1-.6-1.4-2.4-3.1-4.9-6.1-7.1-9.3-.5-.7.3-2.2.4-3.4.9.1 1.8.3 2.6.5 3.8 1.5 7.5 3 11.2 4.5.2.1.4.1.7.1 3.8.5 7.6.7 11.5.5 1.7-.1 2.8-.8 3.1-2.4.8-4.2 1.6-8.5 2.4-13-.8-.1-1.7-.1-2.5-.1-2.5.3-5.1.5-7.6.9-3.7.5-7.5.9-11.2 1.8-5 1.2-10 1.9-15.2 1.7-3.6-.1-7.1-.4-10.7-.9-4.8-.8-9.8-1.6-14.4-3.3-7.9-3-15.5-6.9-23.4-10.1-3.5-1.4-6.1-3.5-7.7-6.9-1.8-3.8-3.2-7.6-1.8-12.5 1.8.7 3.5 1 4.9 1.9 4.4 2.7 8.5 6.1 13.2 8.3 10.4 4.8 21.4 7.7 33 7.2 4.5-.2 9.1-.5 13.6-.9 6.8-.5 13.5-1.1 20.3-1.8 3-.3 5.9-.8 8.8-1.4.6-.1 1.2-1.3 1.3-2.1.1-1.1-.4-2.3-.6-3.6-1.3.2-2.7.4-4 .5-3.7.2-7.3.3-11 .5-2.2.1-4.4.3-6.6.5-4 .4-8 1.1-12 1.2s-7.9-.4-11.9-.8c-8.2-.8-16.2-2.5-23.8-5.9-2.4-1.1-4.4-2.7-6.6-4.2-.4-.3-.5-1.1-.8-1.7.5-.2 1-.6 1.6-.6 2.4.1 4.8.4 7.2.6 5.5.6 11 1.3 16.5 2 .7 0 1.4 0 2-.2l.1-.6c-1.7-.6-3.4-1.3-5.2-1.9-4.1-1.2-8.2-2.3-12.3-3.6-.6-.2-1-1.1-1.5-1.7.6-.5 1.2-1.3 1.8-1.3 2.6 0 5.3.2 7.9.6 4.5.7 9 1.7 13.5 2.4 7.3 1.2 14.7 2 22 3.2 6.1 1.1 12.1 1.5 18-1.2 3.6-1.6 2.8-1.1 2.4-4.5-.1-.5-.4-.9-.5-1.4-.4-1.8-1.4-2.5-3.2-2.2-2.2.4-4.5.5-6.7 1-4.4 1.1-8.8 2-13.5.9-3.9-1-8.1-1.2-12.1-1.4-2.1-.1-4.2.4-6.3.4-1.6 0-3.1-.6-3.3-2.5-.2-1.8.8-3 2.6-3.2 3.2-.4 6.4-.5 9.5-.8 2-.2 4 0 5.9-.6 4.1-1.2 8-3 12.1-4.1 2.7-.7 5.7-.5 8.5-.8.6 0 1.6-.5 1.6-.9.2-1.3-2.8-5.5-4.2-5.6-1.8-.2-3.6-.2-5.3 0-3.3.2-6.7 0-9.9.7-6.1 1.5-12.1 3.5-18 5.5-6.7 2.2-13.2 4.6-19.8 7-4.5 1.6-9 3.6-13.5 5.1-3.2 1.1-6.6 1.6-10.1.9-3-.5-6.1 0-9.1-.2-1.2-.1-2.5-.6-3.2-1.4-.4-.5 0-2 .4-3 1.1-2.5 3.2-3.7 5.7-4.5 7.9-2.2 15.9-4.4 23.8-6.9 4.4-1.4 8.6-3.9 13.1-5.2 8-2.4 16.2-4.6 24.3-6.3 5.4-1.1 8.2-5.4 12.7-7.9l-8.6-9.1c-3 2.4-6 4.8-9 7.3-.9.8-1.7 1.6-2.4 2.4-1.9 2.3-4.4 3.5-7.1 4.4-5.1 1.7-10 3.7-15.1 5.3-5.5 1.8-11.1 3.3-16.6 4.8-.8.2-1.6-.2-2.4-.3.2-.8.2-1.7.6-2.4.3-.5 1-.8 1.6-1.1 6.3-2.7 12.6-5.2 18.7-8.1 3.6-2.2 7.7-4.1 9.6-8.8zM21.6 220.4c1.3-2 2.1-3.7 3.3-5.1 4-4.6 8.9-7.5 15.1-7 3.1.2 6.2 1.4 9.2 2.3 6 1.9 11.8 4.4 18.2 4.7 12.5.7 23.5-2.5 32.5-11.5 3.3-3.3 6.3-6.9 9.5-10.3.8-.9 2-1.5 2.8-2.5 4.1-5.9 8.4-11.6 12.1-17.8 3.2-5.4 7.1-10 12.3-13.5 8-5.5 17.3-8.5 26.2-12.4 2.9-1.2 6.2-2.2 8.5-4.2 5.5-4.7 10-10.3 14.5-15.9 4.7-5.9 9.5-7.8 16.8-4 .7.4 1.1 1.2 1.5 1.8-1.5.8-2.8 1.2-3.6 2-5.9 6.3-12.7 11.8-16.7 19.7-2.8 5.5-6.3 10.7-9 16.3-3.2 6.7-4.3 13.9-4.8 21.4-.4 6.2-.8 12.4-1.8 18.5-.9 5.7-3 11.2-7.7 15.1-4.1 3.4-8.5 6.3-12.8 9.5-5.6 4.2-10.4 9.2-12 16.4-.8 3.7-.8 7.7 1.9 10.8 2.7 3.1 5.7 6 10.3 6.1 2.8 0 5.6.1 7.7-1.8 3.1-2.7 5.6-5.9 6-10.3 0-.7-.4-1.4-.7-2.1-.7.4-1.6.6-2 1.2-.8 1.3-1.2 2.8-2 4.1-4.6 7.6-8.1 7-13.5 2.7-1.7-1.4-3.2-3.4-3.1-6 0-4.9 1.9-8.9 5.3-12.5 4.4-4.5 9.4-8.1 14.7-11.4 4.5-2.8 9.1-5.5 12-10.2 3.2-5.3 4.2-11.2 4.8-17.2.5-5.8.5-11.6 1-17.4.4-4.6 1-9.1 1.9-13.6 1.6-7.8 4.6-15.2 8.4-22.3 2.8-5.1 6.7-8.7 12.6-9.9 3.4-.7 6.8-.6 10.3-1.5 5-1.4 10.3-1.6 15.6-1.9 4.2-.2 8.5.4 12.8.3 4.6-.1 9.2-.3 13.8-.8 5.6-.7 11.3-1.4 16.7-2.7 5.7-1.3 11.2-3.4 16.8-5.2 3-1 6.2-1.8 8.9-3.3 4.6-2.7 8-6.7 11.7-10.5 4.6-4.6 4.7-10 3.8-15.5-1.1-6.2-5.1-11.3-8.1-16.7-2.4-4.4-5.1-8.7-7-13.4-2.6-6.4-4.4-13.1-6.7-19.9l-6.1.8c.7 2.8 1.3 5.2 2 7.5l3.6 13.2c1.4 5 1.9 10.3 4.3 15 1.3 2.7 2.2 5.7 3.2 8.5s1.8 5.9 3.2 8.7c2.8 6.1-.9 14.1-7.6 15.2-3.6.6-7.5.4-11-1.4-5.9-3-10.5-7.5-14.6-12.6-4.4-5.5-9.2-10.7-14.3-15.7-4.6-4.6-10.9-5.8-16.9-7.5h-.9c-3.2-.1-6.5 0-9.8-.3-1.8-.2-2.9.5-4 1.6l-1.2 1.5c-4 4.5-9.5 6.7-15 8.6-7.2 2.5-14.8 3.8-22.5 3.7-10.1 0-20.2-.2-30.4-1.2-9.1-.9-18.3.3-27.1 2.8-6.6 1.9-13.1 4.3-19.1 7.5-8.2 4.5-15.5 10.4-23.6 15.2-8.7 5.2-17.9 9.1-28.4 8-7-.8-12.8-3.6-16.1-10.3-.3-.6-1.4-1.2-2-1.1s-1.4 1-1.6 1.7c-.2 1-.1 2 .2 3.1 1.4 4.8 4.7 8.1 8.3 11.1 7.3 5.9 15.7 6.2 24.3 4.8 4.8-.8 9.5-2 14-3.7 4.8-1.6 9.4-3.7 13.8-6.3 3.9-2.3 7.1-5.8 10.9-8.4 4.8-3.3 9.7-6.3 14.8-9.1 2.8-1.5 6.1-1.8 9.1-3 10.6-4.2 21.8-5.3 33-5.5 4.2 0 8.5.8 12.7.8 4.8 0 9.7-.3 14.5-.8 5.8-.7 11.6-1.7 17.4-2.5 1-.1 2.1.4 3.2.7-.6.8-1.2 1.5-1.9 2.1-.4.3-.9.5-1.4.6-6.5 2.6-13.2 4.7-20.1 6.1-7.9 1.6-15.6 4.2-23.2 6.9-3.6 1.2-7 3.5-10.2 5.6-5.8 3.8-10.7 9.2-17.4 11.4-5.9 2-11.9 3.8-18.1 4.5-7 .8-13.9 1.6-20 5.3-3.4 2-7.1 3.9-9.3 7.4-4 6.4-5.2 13.4-3.7 20.9.7 3.4 1.1 7.2.2 10.5-1.5 5.8-5.3 10.2-10.4 13.5-2.7 1.8-5.4.3-8 0-2.8-.4-4.3-2-4.8-4.8-.4-2.4.8-5.9 2.7-7.1 1.6-1.1 3.2-2 4.6-3.2.4-.4.4-1.8 0-2.4-.6-1.1-3.5-.8-5 .4-3.2 2.6-4 6.3-4.6 10-.4 3 .9 5.2 3.2 7.1.4.3.5.9.9 1.2 1.2 1.2 2.4 3 3.8 3.2 3.6.5 7.3.2 10.6-1.6 4.1-2.3 6.7-6 9.5-9.6 3.3-4.4 3.6-9.4 3.2-14.7-.3-3.7-.8-7.4-.4-11 .4-3.3 1.3-7 3.4-9.5 5.2-6.3 12.7-8.7 20.7-9.4 6.1-.6 12.3-.6 18.4-1.4 7.6-1 14.7-4.1 20.7-8.8 8.8-6.9 18.2-12.9 29.3-15.7 5.9-1.5 11.8-3.5 18-2.9 1.1.1 2.1.4 3.1.9.4.2.7.9.8 1.4 0 .2-.7.6-1.2.7-1.3.2-2.6.3-3.9.5-4.3.5-8.4 1.4-12 4.1-3.9 2.8-7.1 6.4-9.5 10.5-5.9 10.4-15.1 16.3-26.3 19.4-6 1.6-11.9 3.2-17.2 6.5-3.4 2.1-7.2 4-9.3 7.7-1.4 2.4-2.6 4.9-3.6 7.5-2 5.6-5.2 10.6-9.5 14.7-3.3 3.2-6.8 6.3-10.3 9.5-1.1 1-2 2.1-3.1 3-3.2 2.5-6.3 5.1-9.7 7.5-4.3 3.1-8.8 6.2-14.2 6.8-8.2.8-16.3-.4-24.3-2.3-4.2-.9-8.3-2.2-12.6-2.3s-8.3 1.2-12.1 3.6c-3.9 2.4-4.8 5.9-5.1 9.9.2.6.7 1.4 1 2.6zM272.7 35.7c.3 1.1.8 2.1.8 3.1 0 5.4.3 10.6 3.5 15.3.4.6-.1 1.8-.1 2.7-.8-.4-1.9-.7-2.4-1.4-2.7-4.5-5.3-9.1-7.9-13.7-2.8-5.1-4.4-5.8-9.5-4.2-.5.2-1.3 1.3-1.2 1.6.7 1.3 1.4 2.8 2.6 3.7 4.4 3.5 7.3 8.1 10.3 12.6 2.1 3.1 3.1 6.6 4.1 10.2 1.4 4.9 3.3 9.7 5 14.6.4 1.2 1.4 2.9-.5 3.6-1.9.7-2.2-1.4-2.7-2.5-2-4.7-3.9-9.4-5.6-14.2-2-5.8-5.9-10.1-10.7-13.8-3.8-2.9-7.7-5.7-11.5-8.6-1.2-.9-2.6-2.5-3.7-2.4-2.3.3-4.5 1.6-6.9 2.5 1.7 1.9 3.1 3.3 4.5 4.8 1 1.2 1.9 2.6 3.1 3.4 3.2 2.2 6.6 4.2 10 6.1 2.8 1.6 5.8 3.1 7.5 5.9 3 5.1 5.8 10.4 8.5 15.7.4.7-.2 1.9-.4 2.9-.9-.4-2-.6-2.6-1.3-1.8-2.2-3-4.9-5.1-6.8a86.37 86.37 0 0 0-24.5-16c-3.2-1.3-6.8-1.7-10.3-2.4-1.7-.3-2.9.8-3.6 2.3-.5 1.3-1 2.7-1.4 4.1-1.1 3.5-.5 6.4 3.8 7.2 3.2.6 6.4.3 9.6.5 5.3.4 10.5 1.6 15 4.7 2.8 1.9 5.4 4.3 7.9 6.6 3.2 2.8 6.3 5.8 9.3 8.8 3.9 4 7.5 8.3 11.7 11.9 3.2 2.7 6.7 5.2 11.5 5 5.2-.3 7.2-3.6 5.1-8.3-1.8-4.1-3.4-8.3-4.7-12.6-1.6-5-3-10.1-4.3-15.2-1.3-5-2.2-10-3.6-15-1.7-6-3.8-12-5.7-18-.9-2.3-2.5-3.4-4.9-3.4zm-74.1 89.2l-.4-.9c-1.8.8-4 1.1-5.3 2.3-3.5 3.5-6.7 7.3-9.6 11.4-2.6 3.7-6 6.7-10 9-6.7 3.8-11.7 9.1-13.9 16.6-1.9 6.5-3.4 13.1-7.1 19-3.1 4.9-6.3 9.7-11.4 12.6-3.4 1.9-6.9 3.6-10.5 5.1-3.6 1.5-6.1 4.4-8.2 7.3-1.6 2.2-2 5.3-2.8 8.1-1.5 5.2-2.6 10.5-7.5 13.8-3.1 2-5.9 4.3-10.1 2.8-1.8-.7-3.9-.7-5.9-.5-1.3 0-2.7.7-3.8 1.3-.5.3-.8 1.3-1.1 2l2.1.3h1.8c5 0 9.9.1 14.9 0 4.5-.1 7.9-2 10.3-6.1 3.6-6.3 7.5-12.6 11.4-18.8.9-1.3 2-2.5 3.2-3.5 2.5-2.1 5.3-3.9 7.8-6 3.3-2.8 6.5-5.9 9.8-8.8 4.4-3.8 7.8-8.2 9.9-13.8 1.7-4.7 3.8-9.2 6.2-13.5 1.5-2.6 3.9-4.7 5.6-7.2 2.2-3.1 4.3-6.4 6-9.8 2.9-5.8 6.9-10.9 11.7-15.2 1.6-1.4 2.7-3.2 4.1-4.8.9-1.1 1.8-1.9 2.8-2.7zm139 24.6l-.5.4v1.1c1.8 6.2 5.2 11.1 10.8 14.3 2 1.1 4.1 2.3 6.3 3 4.4 1.3 8.8 2.4 13.3 3.2 4.8.8 9.6.8 14.4 1.5 5.1.8 10.1 2 15.1 2.9.9 0 1.8-.3 2.4-.9 2-2.2 4-4.5 5.9-6.8-.9-.2-1.6-.5-2.3-.6-4.8-.8-9.5-1.4-14.2-2.3-9.4-1.9-17.9-6-25.8-11.1-6.1-4-10.5-9.9-14.5-16-3.8-5.7-7.9-11.3-13.1-15.9-3.1-2.7-6-5.6-9-8.5-.8-.8-1.6-1.8-2.5-2.8-.1.3-.2.7-.3 1 .7 6.3 4.4 11.1 8.5 15.5 5.7 6.2 12.6 11.5 16.6 19 3.6 6.9 8.9 11.7 15.5 15.5 1.3.8 2.4 2 3.6 2.9l-.4 1.2c-1.2 0-2.4.3-3.6 0-2.4-.6-4.6-1.7-7-2.4-7.5-2.1-14.5-4.9-18.2-12.5 0-.9-.6-1.3-1-1.7zm89.1-38.9c-.4-.1-.9-.1-1.4 0-8.2 2-16.6 1.6-24.9 2.2-3.5.2-7.1.2-10.5 1-5.3 1.2-10.5.6-15.6-.3s-10-2.7-15.1-4c-5.7-1.6-11.1-3.8-16-7.1-2.4-1.6-4.7-3.2-7-4.8-1.4-.9-2.2-.3-2 1.2.5 3.1 1.4 6.3 4.1 7.9 8.8 5.2 17.9 9.5 27.7 12.5 5.3 1.5 10.7 2.6 16.2 3.2 11.1 1.4 21.7-2 32.5-3.3 3.3-.4 6.6-.4 9.9-.6 1.1 0 1.9-.2 1.9-1.6.1-1.9.2-4 .2-6.3zM144.6 85.2c-.8-.4-1.2-.7-1.7-.9-3.2-1.6-6.6-2.7-9.5-4.7-4.5-3.1-9-5.7-14.4-6.7-3.6-.7-7.4-.7-11 .1-5.9 1.3-10.2 5.4-15.3 8-5.2 2.8-10.7 4.8-16.7 5-5.8.1-10.8 1.7-14.3 6.9-2.4 3.6-3.2 4.8-2.7 7.4.9-.8 1.9-1.4 2.5-2.3 3.5-4.4 8.3-6.6 13.6-7.5 1.6-.2 3.3-.3 4.9-.1 4 .2 8.1.6 11.9-1 3-1.2 5.8-2.9 8.8-4.2 3.8-1.6 7.8-2 11.9-2.4 4.8-.4 9.5-.3 13.9 1.8 4.6 2.2 9.3 1.8 14.1 1.5 1.2-.1 2.4-.5 4-.9zm148.7 54.1l-.8-.4c-4.1 5.2-8.1 10.6-12.3 15.7-1.6 1.9-3.3 3.9-5.4 4.9-4.6 2.3-9.4 4.2-14.2 5.8-2.1.7-4.6.6-6.9.7-3.2.1-6.5.2-9.8.1-.9 0-1.8-.6-2.8-.9.5-.7.9-1.8 1.6-2.1 1.4-.7 3-1 4.5-1.5 3.2-.9 6.4-1.8 9.5-2.8.7-.2 1.2-1 1.7-1.6l-.4-.8-8.1 1.5c-7 1.3-12.7 4.7-16.5 10.9-.8 1.4-.9 2.8.3 4 3.1 3.1 6.3 6.2 9.1 9 1.5-1.5 2.6-2.8 4-3.9 5.2-4.1 11.3-6.4 17.7-8 4.4-1.1 8.4-3.2 11.4-6.5 5-5.7 9.7-11.6 14.5-17.5 1.8-1.8 2.9-4 2.9-6.6zm16.3 71.2c-.2-1.2-.2-1.7-.4-2.2-1.5-5.3-3.1-10.7-4.4-16.1-.7-2.9-1.3-6-1-8.8.5-4.7 2-9.3 2.9-14 .9-4.4 1.4-8.9 2.4-13.3 1.7-7.1 1.7-14.3 2.5-21.4.3-2.4.8-4.7 1.7-6.9.8-1.9 2.3-3.4 3.6-5.2-1.8-.9-3.2-.5-4.5.8-2.7 2.6-4.3 5.9-5.2 9.4-1.6 6.1-2 12.3-2 18.6 0 6.3-1 12.8-2.1 19-1.2 7-3 13.9-5.2 20.6-1.3 3.9-2 7.6-1.7 11.5.1 1.8.7 4.5 1.9 5 3.5 1.4 7.3 1.9 11.5 3zm15-69.4c-2.3 2.1-2.7 3.2-1.9 6 .9 3.4 1.9 6.8 3.1 10.1 1.7 5 3.8 9.8 5.4 14.8 1.4 4.4 2.8 8.7 5.2 12.7 4.4 7.4 10.5 13.7 17.6 18.5.4.3.9.4 1.4.4 3.7-.5 7-2.1 10.1-4.4-.4-.3-.7-.6-1.1-.8-3-1.8-6.3-3.2-9-5.3-4.4-3.4-8.4-7-12.3-11-3.4-3.5-5.9-7.7-7.7-12.3-2.6-6.4-4.4-13.1-7.9-19.3-1.4-2.7-1.9-6.2-2.9-9.4zM294.3 161h-.5c-.4 2-.8 3.9-1.2 5.9-.6 3.2-.4 6.7-2.7 9.5-2.4 2.8-5 5.6-7 8.7-3.5 5.3-8.7 5.8-14.2 5.9-.5 0-1-.4-1.3-.8-.1-.3.2-1 .5-1.3.9-.7 1.8-1.5 2.9-1.9 4.5-1.6 7.4-4.8 9.2-9 .5-1.3.5-2.8.7-4.2l-.8-.2c-1 1.2-1.9 2.5-2.9 3.7-3.6 4.2-7.7 7.7-13.2 9.3-2.3.6-4.5 1.4-6.6 2.4-1.4.7-1.6 2-.2 3 1.1.9 2.3 1.8 3.6 2.5 4 2 8.1 3.9 12.1 5.8s5.2 1.5 7.7-2.1c1.7-2.5 3.5-5.1 5.5-7.3 3.8-4 6.5-8.7 7.5-14 .9-4.6 1-9.4 1.4-14.1 0-.6-.3-1.2-.5-1.8zm-96.4-63.9l-.1-.5-12.1 1.3c-1.3.1-2.6.4-3.9.4h-9.2c-3.9 0-7.9-.4-11.8 0-3.4.3-6.8 1.3-10.2 2.1-2.9.7-6 .9-8.5 2.3-3.2 1.8-6.1 4.2-8.6 7-3.5 4.1-7.3 7.5-12.6 9-1.3.4-2.5 1.2-4.3 2.2 2.3 1.3 4.1 2.1 6 1.3 2.3-.9 4.5-2 6.5-3.4 3.2-2.4 5.9-5.2 9.1-7.5 5.6-4.1 12.2-6.3 19-5.8 4.9.3 9.9-.2 14.6-1.6 6-1.6 12-2.9 18.1-4.5 2.7-.7 5.3-1.5 8-2.3zm160.5-3.5c.9.5 1.9.9 2.9 1.3 6.3 2.1 12.6 4.1 19.2 4.4 5.2.3 10.4.6 15.6.3 7.3-.4 14.5-1.4 21.8-2.1 2.2-.2 4.4-.3 6.6-.4 1.4-.1 2-.9 1.8-2.2-.1-.8-.3-1.6-.4-2.4-.2-1.2-.8-1.4-1.9-1-2 .7-3.9 1.6-5.9 1.9-4.4.6-8.7.2-13-.6-7.5-1.4-15.1-2.8-22.6-4.2-.8-.2-1.7-.3-2.6-.4h-2.3c2.7 2.5 7.3 2.2 9.1 7-9.8.8-19-.4-28.3-1.6zm55.9-34.9c-2-2.9-3.8-5.5-5.5-8.1-.9-1.5-1.5-1.4-3-.3-3.1 2.4-6.2 5.1-9.7 6.3-6.6 2.4-13.6 3.7-20.4 5.6-1.7.4-3.5.6-5 1.4-11.1 5.6-23 8.7-34.9 11.5-1.7.4-3.3 1-5 1.5l.1.6c.8.2 1.6.4 2.5.5 1.2.1 2.6-.2 3.8.1 4 .9 7.9 0 11.5-1.3 7.3-2.6 14.6-5.5 21.9-8.2 4.8-1.8 9.7-3.4 14.5-5.1 8.7-2.9 17.8-4.4 27-4.2.7 0 1.4-.1 2.2-.3zm-49.8 72.2l-.6.6c2.2 2.1 4.4 4.3 6.7 6.3 2.5 2.1 5.3 3.9 7.7 6 2.2 2 4.1 4.4 6.2 6.5.9.9 2 1.6 3.3 2 3.4.8 6.8 1.2 10.2 1.8 4.7.8 9.4 1.8 14.1 2.5.7.1 1.9-.3 2.3-.8 1.2-2 2.3-4.2 3.5-6.5-3.2-.2-6-.4-8.9-.5-2.8 0-5.6.6-8.3.3-3-.4-5.9-1.1-8.7-2.1-5-1.9-9-5.5-13.2-8.7-4.3-3.4-9.1-5.9-14.3-7.4zm-46.9 37.8c-3.2 2-3.9 4.6-3.6 7.2.4 3.9 1.6 7.6 2.4 11.5.9 4.6 2.1 9.3 2.3 13.9.1 3.2 1.6 5.4 2.8 7.9.4.7 1.2 1.1 2 1.2 3.2-.1 6.4-.4 9.7-.7.4 0 .7-.2 1-.4-2.9-3.3-6-6.3-8.6-9.7-5.2-6.9-7.1-14.8-7.1-23.4-.2-2.3-.6-4.6-.9-7.5zm65.6-135.5c-3.2 7.7-7.3 14.6-15.3 18.2 3.2-.8 6.1-2 9.1-3 3.3-1.1 6.1-3.2 8.1-5.9.8-1.2 2.1-2 3.2-2.9 1.9-1.6 3.8-3.2 6-5.1-3.5-2.4-6.6-4.7-9.7-6.9-2.4-1.6-3.2-1.2-4.8 1.2-1.8 2.8-4.1 5.2-6.3 7.7-1 1.2-2.2 2.1-3.2 3.2l.6.7 10.5-9 1.8 1.8zM272.3 143.9l-.1-1.2c-3.7-.3-7.5-1-11.1-.8-5.3.2-10.6 1-15.9 1.7-4.1.5-8.2 1.1-12.2 2.1-3.6 1-7 2.8-10.5 4.2-4.1 1.7-4.1 1.7-1.9 5.6 2 3.4 2.3 3.4 4.5.2.2-.3.4-.6.8-.8 5.3-4.1 11.3-7.2 17.8-8.7 7.3-1.6 14.7-2.8 22.3-1.9 1.2.1 2.3.4 3.5.4 1 0 1.9-.6 2.8-.8zm50.8-127.2c2 5.6 4.4 11 5.7 16.7 1.4 5.9-.2 11.9-1.5 17.9 1.7-1 3.2-2.3 4.7-3.6.7-.7 1.4-1.9 1.4-2.8 0-3.6-.3-7.3-.7-10.9-.8-5.7-1.9-11.5-2.7-17.2-.2-1.7-.8-2-2.3-1.5-1.5.6-2.9 1-4.6 1.4zm-96.8 37.6c4.2.7 7.7.8 10.7 2 6.1 2.4 12 5.4 17.1 9.8 2 1.8 4.4 3.2 6.6 4.7l.4-.5c-1.6-3.3-3.6-6.2-7-8.1-5.6-3.2-11.5-5.9-15.9-11.1-.8-.9-1.5-2.1-2.4-2.8-.8-.5-2.5-.9-3.1-.5-2.2 1.9-4 4.1-6.4 6.5zm85.7 7.3l.6.2c.4-.4.6-.9.8-1.5.5-1.9 1-3.8 1.4-5.7.4-1.9 1-3.9.8-5.8-.4-2.8-1.3-5.6-2.3-8.3-1.7-4.7-3.9-9.3-3.4-14.5.1-1.2-.4-2.5-.7-4l-7.8 4.6c1.5 1.2 2.9 2.2 4 3.4 4.1 4.5 5.5 10.1 5.8 16l.8 15.6zm109.8 15.2c-.2-.7-.4-1.2-.5-1.7-.4-2.1-1.6-3.1-3.8-2.8s-4.5.2-6.7.5c-4.9.7-9.5 2.5-13.5 5.4 3.8.4 7.6.9 11.3.7 3.9-.2 7.7-1.1 11.6-1.6.5-.2 1.1-.3 1.6-.5zm-77-27.7l.4.5c3.2-.3 10.1-4.4 11.8-7.5 3.6-7.1 6.9-14.5 10.4-21.9l-5.6-2.1c-.1.8-.3 1.6-.3 2.4.1 1.5.5 2.9.4 4.4-.8 7.6-4.5 13.8-10.5 18.7-2.3 1.7-4.5 3.6-6.6 5.5zm55 88.2l-.4.4c.5.9.8 2 1.6 2.7 2.4 2 4.8 3.8 8.2 3.5 1.3 0 2.6.2 3.8.6 5.4 1.6 7.1 1 8.9-3.2 0-.2 0-.4-.1-.6-7.7.4-15-.4-22-3.4zm-135-82.8l.4-.5c-2.1-2.7-4.3-5.5-6.5-8.1-1.7-2-3.5-3.8-5.3-5.7-.4-.4-1.1-1.2-1.5-1.1-1.8.4-3.6 1.1-5.3 1.7v.9l18.2 12.8zm98.8 130.1c.1.3.3.5.5.8 3.3 3.3 7.4 5.6 11.7 7.4.4.1.8.1 1.2 0 2-1.2 4-2.5 5.9-3.8l-.1-.8-19.2-3.6zM345.8 28l1.2.2c.4-1.3 1-2.6.9-3.8 0-2.4-.6-4.9-.8-7.3-.1-2.4-.1-2.4-2.9-2 .1-.1 1.6 12.9 1.6 12.9zm-81 7.3l5.7 7.8c.1-1.6.4-2.7.3-3.8-.5-4.6-2.7-5.9-6-4z"/><path fill="none" d="M374.9 40.8c-1.9 4.6-6 6.5-10 8.3-6.2 2.9-12.5 5.4-18.7 8.1-.6.3-1.3.6-1.6 1.1-.4.7-.4 1.6-.6 2.4.8.1 1.7.5 2.4.3 5.6-1.6 11.1-3.1 16.6-4.8 5.1-1.6 10-3.6 15.1-5.3 2.8-.9 5.2-2.1 7.1-4.4.8-.9 1.6-1.7 2.4-2.4 3-2.5 6-4.9 9-7.3l8.6 9.1c-4.4 2.5-7.2 6.8-12.7 7.9-8.2 1.7-16.3 3.9-24.3 6.3-4.5 1.3-8.6 3.8-13.1 5.2-7.9 2.5-15.8 4.7-23.8 6.9-2.6.7-4.7 2-5.7 4.5-.4.9-.8 2.4-.4 3 .7.8 2.1 1.3 3.2 1.4 3 .2 6.2-.4 9.1.2 3.6.6 6.9.1 10.1-.9 4.6-1.5 9-3.5 13.5-5.1 6.6-2.4 13.2-4.8 19.8-7 5.9-2 11.9-4 18-5.5 3.2-.8 6.6-.5 9.9-.7 1.8-.1 3.6-.1 5.3 0 1.3.2 4.4 4.4 4.2 5.6-.1.4-1 .9-1.6.9-2.8.3-5.8.1-8.5.8-4.1 1.1-8 2.9-12.1 4.1-1.9.5-4 .4-5.9.6-3.2.3-6.4.4-9.5.8-1.8.2-2.8 1.4-2.6 3.2.2 1.9 1.7 2.5 3.3 2.5 2.1 0 4.3-.5 6.3-.4 4.1.3 8.2.4 12.1 1.4 4.7 1.2 9 .2 13.5-.9 2.2-.5 4.4-.7 6.7-1 1.7-.3 2.8.4 3.2 2.2.1.5.4.9.5 1.4.5 3.5 1.2 2.9-2.4 4.5-5.9 2.7-11.9 2.3-18 1.2-7.3-1.2-14.7-2.1-22-3.2-4.5-.7-9-1.7-13.5-2.4-2.6-.4-5.2-.6-7.9-.6-.6 0-1.2.9-1.8 1.3.5.6.9 1.5 1.5 1.7 4.1 1.3 8.2 2.4 12.3 3.6 1.8.5 3.5 1.2 5.2 1.9l-.1.6c-.7.1-1.3.2-2 .2-5.5-.6-11-1.3-16.5-2-2.4-.3-4.8-.5-7.2-.6-.5 0-1 .4-1.6.6.2.6.3 1.4.8 1.7 2.1 1.5 4.2 3.2 6.6 4.2 7.5 3.4 15.5 5.1 23.8 5.9 3.9.4 7.9.9 11.8.8 3.9-.1 8-.8 12-1.2 2.2-.2 4.4-.4 6.6-.5 3.7-.2 7.3-.3 11-.5 1.4-.1 2.7-.3 4-.5.3 1.4.7 2.5.6 3.6 0 .8-.7 2-1.3 2.1-2.9.6-5.9 1.1-8.8 1.4-6.7.7-13.5 1.2-20.3 1.8-4.5.4-9.1.7-13.6.9-11.6.5-22.6-2.4-33-7.2-4.7-2.1-8.8-5.6-13.2-8.3-1.4-.8-3.1-1.2-4.9-1.9-1.4 4.9 0 8.7 1.8 12.5 1.6 3.4 4.2 5.5 7.7 6.9 7.9 3.2 15.4 7.1 23.4 10.1 4.5 1.7 9.5 2.4 14.4 3.3 3.6.5 7.1.8 10.7.9 5.2.2 10.2-.5 15.2-1.7 3.7-.8 7.5-1.2 11.2-1.8 2.5-.4 5.1-.6 7.6-.9.8 0 1.7 0 2.5.1-.8 4.5-1.6 8.7-2.4 13-.3 1.6-1.3 2.4-3.1 2.4-3.8.2-7.6.1-11.5-.4-.2 0-.4 0-.7-.1-3.7-1.5-7.5-3-11.2-4.5-.8-.3-1.7-.4-2.6-.5-.2 1.2-.9 2.7-.4 3.4 2.2 3.2 4.7 6.2 7.1 9.3.4.4.6.9.6 1.4-1.6-.3-3.2-.4-4.8-.8-4.9-1.1-8.7-4-12.5-7.1-4.6-3.8-9.7-6.9-15.3-9.1-4.4-1.7-8.6-3.9-12.9-5.6-.6-.3-1.9.2-2.3.7-.4.4-.3 1.8.1 2.2 1.6 1.6 3.4 3 5 4.7 2.4 2.5 4.5 5.4 7.1 7.8 3.3 3.2 7.5 5.5 10.4 9 4.4 5.5 9.9 7.8 16.4 8.8 4.4.7 8.6 1.9 12.9 2.9 1.4.3 2.8.5 4.8.9-1.3 1.7-2.3 3.1-3.4 4.4-.3.2-.7.3-1 .2-5.1-.9-10.1-1.8-15.1-2.9-4.9-1.1-9.8-2.1-14.5-3.7-5.8-2-11.2-4.9-15.9-8.7-2.4-2-4.2-4.8-6.3-7.3-5.9-7.1-9.9-15.7-17.2-21.8-2.4-2-4.8-3.9-6.9-6.1-1.7-1.9-2.9-4.3-4.4-6.4-.7-.9-1.6-2-2.6-2.4-1.6-.6-3.3 1.8-3.3 4 0 6.7 3.5 11.9 7.5 16.7 3.6 4.2 7.9 7.9 11.5 12.1 3.4 4 6.1 8.7 9.2 12.9 1.6 2.3 3.5 4.5 5.2 6.7.3.4.5.8.7 1.2-3.7-.6-6.9-1.6-9.1-4.5-3.5-4.7-6.9-9.5-10.5-14.2-.6-.8-1.9-1-2.8-1.5 0 1.2-.1 2.4.1 3.5.6 3 1.4 5.9 2 8.9.7 4 3.1 7.2 5.5 10.3 5.5 6.9 13.4 9.8 21.6 11.7 4.4 1 8.9 1.2 13.4 1.9 6 .9 12 2 18 3.1.7.1 1.3.5 2 .8-1.8 1.6-3.5 3-5.2 4.4-.5.4-1.1.9-1.6.8-4.4-.3-8.7-.8-13.1-1-6.5-.4-11.9-3.8-18.1-5.6-.9 3.2 1.6 4.8 3.1 6.6 3.2 3.8 7.1 7 11.5 9.3.7.4 1.3.8 1.9 1.3-3.5 2.7-6.7 1-9.6-.3-6.3-2.8-11.5-7.4-16.4-12.2-4.1-4-7.2-8.9-9-14.3-1-2.9-1.8-5.9-3.1-8.8-1.4-3.3-3.3-6.4-4.7-9.7-.8-1.8-1.3-3.7-1.5-5.6-.3-2.4 0-4.7-.1-7.1 0-.9-.2-1.9-.5-2.8-.7-1.7-3-2.4-3.9-1.1-1.7 2.5-3.9 4.9-4.7 7.8-.7 2.9-.7 6 .2 9 1.8 6 4.4 11.8 6.4 17.8.7 2.1 1.3 4.3 1.7 6.5 1.6 6.8 5.6 12.5 9.6 17.8 3.2 4.3 7.6 7.7 11.5 11.5.4.4.8.6 1.8 1.4-2.2.8-4 1.5-5.9 2-2 .6-4 1.2-6.1 1.6-.6.1-1.5 0-1.9-.4-3.6-4.2-7.4-8.2-10.4-12.7-3.2-4.8-5.2-10.1-5.2-16.2 0-4.2-.5-8.3-.8-12.5-.1-1.7-2.1-2.3-4.1-1.6-4.5 1.6-5.6 5.6-5.5 9.5.3 5.4 1.6 10.7 2.6 16.1.6 3.3 1.2 6.6 1.7 9.9.5 3.1.8 6.3 1.3 9.5h-4.3c-2.5-8.6-5.9-17-5.8-26.3 0-5 1.4-9.7 2.6-14.5 1.3-5.3 1.9-10.7 3.2-16 1.9-7.1 1-14.4 2.2-21.5.4-2.1 1.8-4 2.8-6 .5-.9 1.4-1.7 1.9-2.7.4-.8.8-2.2.4-2.7-.7-.8-2-1.6-3-1.7-3.8-.2-9.4 3.8-10.6 7.4-1.6 4.8-3.2 9.6-4.3 14.6-.7 3.2-.3 6.6-.2 9.9.1 11.5-2.1 22.7-5.2 33.8-.9 3.3-2.1 6.5-3.1 9.7-.9 2.9-1.6 5.9-.8 9 .7 2.6-.1 3.3-2.7 2.5-3.1-.9-6.2-2-9.9-3.2 3.1-4 5.8-7.6 8.6-11.1 4.5-5.6 7.4-11.7 8.1-18.9.2-2.2.8-4.3.8-6.5s-.5-4.5-.8-6.7c-.1-.9 0-1.8-.1-2.7-.1-1.2-.4-2.3-.9-3.4-3.8 2.9-5.4 6.7-6.2 10.9-.5 2.8-.8 5.6-1.5 8.3-.2 1.1-1 2.1-1.7 3-1.5 1.9-3.1 3.6-4.8 5.2.4-1.6.9-3.2 1.4-4.8.7-2.1 1.5-4.2 2-6.3.2-.9-.3-2.1-.5-3.1-.8.3-1.8.4-2.4 1-3.6 3.4-7 6.9-10.4 10.4-2.8 2.9-6.1 5-10 5.7-2.9.5-5.7 2-7.8 4.1-1.3 1.3-2.6 1.5-3.9 0l-.6-.6c-2.8-2.8-2.4-5.4.9-7.8 4.6-3.3 9.8-5.3 15.2-6.7 4.8-1.2 9.2-3.6 12.9-6.8 1.9-1.7 3.4-3.8 5-5.8 3.3-4 6.6-7.9 9.7-12.1 2.7-3.6 3.7-7.8 4.5-12.1.3-1.6.7-3.1.8-4.7.1-1.2-.9-1.7-1.8-1.1-1.4 1.1-2.7 2.4-3.9 3.7-1.2 1.2-2.4 2.6-3.5 4-4.5 5.6-8.9 11.2-13.4 16.8-1.7 2.2-3.7 3.8-6.5 4.5-2.4.7-4.7 2-7.1 2.7-2.5.8-5.2 1.2-8.2 1.8.4-.8.4-1.2.5-1.2 4-.6 6.9-3 9.1-6.1.5-.7.5-1.6.8-2.5-.9-.2-1.8-.6-2.7-.5-3.6.5-7.1 1.2-10.7 1.8-8.8 1.5-16.1 5.6-21.3 13.6-1.4-2-2.7-3.6-3.8-5.5-.9-1.6.8-5 3-6.7 6.5-5.3 14-7.7 22.2-9.1 6.1-1 12.1-.2 18.2-.3 1.3 0 2.6-.2 3.9-.5 1.7-.4 2.2-1.7 2.1-3.4-.1-1.6-1-2.6-2.6-2.7-4.6-.4-9.2-1.2-13.8-.8-9.6.9-19.4.5-28.6 4.3-4.1 1.7-8.2 3.6-12.4 5.3-1.2.4-2.4.4-3.6.1-2.2-.5-4.4-1.2-6.6-1.9-1.2-.4-2.8-.5-3.4-1.4-1.2-1.6-.4-3.3.6-4.8 2.4-3.7 5.6-6 10.2-6.2 4-.2 7.9-.7 11.8-.8 5.2-.1 10.5-.2 15.8 0 11.3.4 22.6-1.5 33.3-5.4 6.6-2.4 13.3-4.5 19.8-7.1 2.9-1.2 5.5-3.4 8.1-5.3 5.2-3.8 9.1-8.7 11-14.8 1.5-4.7 1.6-9.5-1-14-3.6-6.3-7.4-12.3-10.8-18.6-1.6-2.9-2.6-6.1-3.8-9.2-1.9-5.2-4-10.3-5.4-15.6-1.2-4.6-.8-9.3 1.9-13.5 1.4-2.3 2.6-2.6 4.7-.7 4.1 3.9 7.2 8.3 7.4 14.3.2 5.9.8 11.8 1.3 17.7.2 1.8.7 3.6 1.3 5.2.2.7 1 1.2 1.5 1.7.5-.5 1.4-.9 1.6-1.6 1-2.9 1.9-5.9 2.6-8.9.7-2.5 1.3-5.1 1.7-7.6.5-3.2-.3-6.4-1.5-9.4C313.5 35 311 28.8 312 22c.1-.9 1-1.7 1.6-2.6l.6-.3c5.2-2.5 5.3-2.4 7.1 2.8.8 2.3 1.8 4.6 2.7 6.9 1.4 3.7 1.7 7.5 1.5 11.5-.3 5.3-2.2 10.2-3.2 15.3-.3 1.4-.1 2.9-.1 4.4 0 .5.4 1.3.8 1.3.6 0 1.2-.1 1.8-.5.4-.3.7-.8.8-1.2.8-4.7 4.1-7.6 7.7-10.2 1.9-1.3 2.6-3.2 2.6-5.2 0-2.8-.2-5.7-.6-8.5-.9-6.3-1.9-12.5-2.8-18.7-.2-1.6.1-2.8 2.2-2.6.4 0 .8-.3 1.2-.4 4.1-.5 4.9 0 5.4 5.1.5 4.8.7 9.6.9 14.5 0 1.4-.4 2.8-.4 4.1 0 .7.7 1.9.8 1.9.9-.2 2.1-.4 2.5-1.2.8-1.2.9-2.7 1.4-4.1.8-2.2 1.2-4.9 2.6-6.6 1.6-1.8.9-3.3.8-5-.1-2-.6-3.9-.8-5.8-.1-1.2.2-2 1.8-1.5 1.9.6 3.8.9 5.6 1.6.6.2 1.3 1 1.4 1.5.4 5.1.1 10.2-2.7 14.6-1.2 1.9-2.9 3.6-4.5 5.2-4.8 4.8-9.6 9.5-14.3 14.3-.9.9-1.4 2.4-1.7 3.7-.1.9.2 1.8.8 2.4.4.3 1.6 0 2.3-.5 1.3-.9 2.4-2.2 3.7-3.1 1.8-1.3 3.8-2.4 5.7-3.6 3.5-2.1 7.2-3.9 10.3-6.4 3.6-2.9 4.6-7.6 6.4-11.7 1.6-3.6 3.3-7.1 4.8-10.7.8-1.9 2.4-1.7 3.7-1.4 1.7.5 3.3 1.2 4.8 2.2.4.4.9 1.8.6 2.1-1.8 2.4-3.6 4.8-5.6 7.1-3.2 3.7-7.5 6.4-9.6 11.1-.3.7-.1 1.6-.2 2.4.8 0 1.8.2 2.4-.2 2.9-1.6 5.7-3.5 8.5-5.2 1 .3 1.3.2 1.6 0z"/><path fill="none" d="M21.6 220.4c-.3-1.2-.8-2.1-.8-3 .3-4 1.2-7.5 5.1-9.9 3.8-2.4 7.9-3.8 12.1-3.6 4.3.2 8.4 1.4 12.6 2.3 8 1.8 16.2 3.1 24.3 2.3 5.3-.5 9.9-3.7 14.2-6.8 3.3-2.4 6.5-4.9 9.7-7.5 1.1-.9 2-2 3.1-3 3.4-3.2 6.9-6.2 10.3-9.5 4.2-4.1 7.5-9.2 9.5-14.7 1-2.6 2.2-5.1 3.6-7.5 2.1-3.7 5.9-5.6 9.3-7.7 5.2-3.3 11.2-4.9 17.2-6.5 11.2-3 20.4-9 26.3-19.3 2.4-4.1 5.6-7.7 9.5-10.5 3.6-2.7 7.7-3.6 12-4.1 1.3-.1 2.6-.3 3.9-.5.4-.1 1.2-.5 1.2-.7 0-.5-.4-1.2-.8-1.4-1-.5-2-.8-3.1-.9-6.3-.6-12 1.4-18 2.9-11.1 2.8-20.4 8.7-29.3 15.7-6 4.8-13.1 7.8-20.7 8.8-6.1.8-12.3.8-18.4 1.4-7.9.8-15.5 3.1-20.7 9.4-2 2.4-2.9 6.2-3.4 9.5-.5 3.6 0 7.4.4 11 .4 5.2.1 10.3-3.2 14.7-2.8 3.6-5.4 7.3-9.5 9.6-3.3 1.8-7 2.1-10.6 1.6-1.4-.2-2.6-2-3.8-3.2-.4-.4-.5-.9-.9-1.2-2.2-1.8-3.6-4-3.2-7.1.6-3.8 1.5-7.5 4.6-10 1.5-1.2 4.4-1.5 5-.4.4.6.4 2 0 2.4-1.4 1.2-3.1 2.2-4.6 3.2-1.9 1.3-3.1 4.7-2.7 7.1.4 2.8 2 4.5 4.8 4.8 2.7.4 5.3 1.8 8 0 5.1-3.3 8.9-7.7 10.4-13.5.8-3.3.4-7.1-.2-10.5-1.5-7.5-.3-14.4 3.7-20.9 2.2-3.5 5.9-5.3 9.3-7.4 6.1-3.7 13-4.5 20-5.3 6.1-.7 12.2-2.6 18.1-4.5 6.7-2.2 11.6-7.6 17.4-11.4 3.2-2.1 6.6-4.3 10.2-5.6 7.6-2.7 15.4-5.2 23.2-6.9 6.9-1.5 13.6-3.5 20.1-6.1.5-.1 1-.3 1.4-.6.7-.7 1.3-1.4 1.9-2.1-1.1-.3-2.2-.8-3.2-.7-5.8.8-11.6 1.9-17.4 2.5-4.8.5-9.6.8-14.5.8-4.2 0-8.5-.8-12.7-.8-11.2.1-22.4 1.2-33 5.5-2.9 1.2-6.3 1.5-9.1 3-5.1 2.8-10 5.8-14.8 9.1-3.8 2.6-7 6-10.9 8.4-4.4 2.5-9 4.6-13.8 6.3-4.6 1.7-9.2 2.9-14 3.7-8.6 1.4-17 1.2-24.3-4.8-3.7-3.1-7-6.4-8.3-11.1-.3-1-.4-2-.2-3.1.2-.7.9-1.6 1.6-1.7.6-.1 1.7.5 2 1.1 3.3 6.7 9.1 9.6 16.1 10.3 10.5 1.2 19.7-2.8 28.4-8 8-4.8 15.4-10.7 23.6-15.2 5.9-3.3 12.5-5.7 19.1-7.5 8.8-2.6 18-3.8 27.1-2.8 10.1 1.1 20.2 1.2 30.4 1.2 7.7.1 15.3-1.2 22.5-3.7 5.5-2 10.9-4.1 15-8.6l1.2-1.5c1.1-1 2.2-1.8 4-1.6 3.2.4 6.5.3 9.8.3h.9c6 1.7 12.3 2.8 16.9 7.5 5.1 5 9.8 10.2 14.3 15.7 4.1 5.2 8.7 9.6 14.6 12.6 3.5 1.8 7.3 2 11 1.4 6.7-1.1 10.5-9.1 7.6-15.2-1.3-2.8-2.1-5.8-3.2-8.7s-1.9-5.8-3.2-8.5c-2.4-4.8-2.9-10-4.3-15L285.7 51c-.6-2.4-1.2-4.8-2-7.5l6.1-.8c2.3 6.8 4.1 13.5 6.7 19.9 1.9 4.7 4.5 9 7 13.4 3 5.4 7 10.5 8.1 16.7.9 5.5.8 10.9-3.8 15.5-3.7 3.7-7.1 7.8-11.7 10.5-2.7 1.6-5.9 2.4-8.9 3.3-5.6 1.8-11.1 3.9-16.8 5.2-5.5 1.3-11.1 2-16.7 2.7-4.6.5-9.2.8-13.8.8-4.3.1-8.5-.5-12.8-.3-5.2.3-10.6.5-15.6 1.9-3.5.9-6.9.8-10.3 1.5-5.9 1.2-9.8 4.8-12.6 9.9-3.8 7.1-6.8 14.4-8.4 22.3-.9 4.5-1.6 9-1.9 13.5-.5 5.8-.4 11.6-1 17.4-.6 6-1.6 11.9-4.8 17.2-2.9 4.8-7.5 7.5-12 10.2-5.3 3.3-10.3 6.8-14.7 11.4-3.4 3.6-5.2 7.6-5.3 12.5 0 2.6 1.4 4.6 3.1 6 5.4 4.3 8.9 4.9 13.5-2.7.8-1.3 1.2-2.8 2-4.1.4-.6 1.3-.8 2-1.2.3.7.8 1.4.7 2.1-.4 4.4-2.9 7.5-6 10.3-2.1 1.9-5 1.9-7.7 1.8-4.6-.1-7.6-2.9-10.3-6.1-2.7-3.2-2.7-7.1-1.9-10.8 1.6-7.1 6.4-12.1 12-16.4 4.2-3.2 8.7-6.1 12.8-9.5 4.7-3.9 6.7-9.4 7.7-15.1 1-6.1 1.5-12.3 1.8-18.5.5-7.4 1.6-14.7 4.8-21.4 2.7-5.6 6.1-10.7 9-16.3 4.1-7.9 10.8-13.5 16.7-19.7.8-.8 2.1-1.2 3.6-2-.4-.6-.8-1.4-1.5-1.8-7.2-3.8-12-1.9-16.8 4-4.5 5.7-9 11.3-14.5 15.9-2.4 2-5.6 2.9-8.5 4.2-8.8 3.8-18.1 6.9-26.2 12.4-5.1 3.5-9.1 8.1-12.3 13.5-3.6 6.2-8 11.9-12.1 17.8-.7 1-1.9 1.6-2.8 2.5-3.2 3.4-6.2 7.1-9.5 10.3-9 9-20 12.2-32.5 11.5-6.4-.4-12.3-2.8-18.2-4.7-3-.9-6.1-2.1-9.2-2.3-6.2-.5-11.1 2.4-15.1 7-1.4 1.8-2.2 3.5-3.5 5.5z"/><path fill="none" d="M272.7 35.7c2.5 0 4 1.2 4.9 3.7 2 6 4 11.9 5.7 18 1.4 4.9 2.4 10 3.6 15 1.3 5.1 2.7 10.2 4.3 15.2 1.3 4.3 2.9 8.5 4.7 12.6 2.1 4.7.1 8-5.1 8.3-4.8.3-8.3-2.2-11.5-5-4.2-3.6-7.8-7.9-11.7-11.9-3-3-6.1-5.9-9.3-8.8-2.5-2.3-5.1-4.7-7.9-6.6-4.5-3-9.6-4.3-15-4.7-3.2-.3-6.5 0-9.6-.5-4.3-.8-4.9-3.7-3.8-7.2.4-1.4.9-2.8 1.4-4.1.7-1.6 1.9-2.6 3.6-2.3 3.5.6 7.1 1 10.3 2.4 9.1 3.9 17.3 9.3 24.5 16 2 1.9 3.3 4.6 5.1 6.8.5.7 1.7.8 2.6 1.3.1-1 .8-2.2.4-2.9-2.7-5.3-5.4-10.6-8.5-15.7-1.7-2.8-4.7-4.3-7.5-5.9-3.4-2-6.7-4-10-6.1-1.2-.8-2-2.3-3.1-3.4-1.3-1.5-2.8-2.9-4.5-4.8 2.4-.9 4.6-2.2 6.9-2.5 1.1-.1 2.5 1.5 3.7 2.4 3.9 2.8 7.7 5.7 11.5 8.6 4.8 3.6 8.7 7.9 10.7 13.8 1.7 4.8 3.6 9.5 5.6 14.2.4 1.1.8 3.2 2.7 2.5 1.9-.7.9-2.4.5-3.6-1.6-4.8-3.6-9.6-5-14.6-1-3.6-2-7.1-4.1-10.2-3-4.5-6-9.1-10.3-12.6-1.2-.9-1.9-2.4-2.6-3.7-.1-.3.6-1.5 1.2-1.6 5.1-1.6 6.7-.9 9.5 4.2 2.6 4.6 5.2 9.2 7.9 13.8.4.7 1.6 1 2.4 1.4.1-.9.6-2.1.1-2.7-3.2-4.7-3.4-9.9-3.5-15.3 0-1.5-.5-2.4-.8-3.5zm-74.1 89.2c-.9.8-1.9 1.6-2.7 2.4-1.4 1.6-2.6 3.4-4.1 4.8-4.8 4.3-8.7 9.5-11.7 15.2-1.8 3.4-3.8 6.7-6 9.8-1.7 2.5-4.2 4.6-5.6 7.2-2.4 4.4-4.5 8.9-6.2 13.5-2.1 5.6-5.5 9.9-9.9 13.8-3.3 2.9-6.4 6-9.8 8.8-2.5 2.1-5.2 3.9-7.8 6-1.2 1-2.4 2.2-3.2 3.5-3.9 6.2-7.8 12.4-11.4 18.8-2.3 4.1-5.8 6-10.3 6.1-5 .1-9.9 0-14.9 0-.6 0-1.2.1-1.8 0-.7 0-1.4-.2-2.1-.3.4-.7.5-1.6 1.1-2 1.2-.7 2.5-1.2 3.8-1.3 2-.1 4.1-.1 5.9.5 4.2 1.6 7.1-.7 10.1-2.8 4.9-3.3 5.9-8.7 7.5-13.8.8-2.8 1.2-5.9 2.8-8.1 2.1-2.9 4.6-5.8 8.2-7.3 3.6-1.5 7.1-3.2 10.5-5.1 5.2-2.9 8.4-7.7 11.4-12.6 3.6-5.9 5.2-12.5 7.1-19 2.2-7.5 7.2-12.8 13.9-16.6 4-2.2 7.4-5.2 10-9 2.9-4 6.1-7.8 9.6-11.4 1.2-1.3 3.5-1.6 5.3-2.3l.3 1.2zm139 24.6c.4.5 1 .9 1.3 1.4 3.7 7.6 10.7 10.4 18.2 12.5 2.4.7 4.6 1.7 7 2.4 1.1.3 2.4 0 3.6 0l.4-1.2c-1.2-1-2.3-2.2-3.6-2.9-6.6-3.7-11.9-8.6-15.5-15.5-4-7.6-10.9-12.8-16.6-19-4.1-4.4-7.8-9.2-8.5-15.5 0-.4.1-.7.3-1 1 1.1 1.7 2 2.5 2.8 3 2.9 5.9 5.8 9 8.5 5.2 4.6 9.2 10.2 13.1 15.9 4 6 8.4 12 14.5 16 7.9 5.2 16.4 9.3 25.8 11.1 4.7.9 9.5 1.5 14.2 2.3.7.1 1.4.4 2.3.6-2 2.4-3.9 4.7-5.9 6.8-.7.7-1.6 1-2.5.9-5.1-.9-10.1-2.2-15.1-2.9-4.8-.7-9.6-.7-14.4-1.5-4.5-.8-8.9-1.8-13.3-3.2-2.2-.6-4.3-1.8-6.3-3-5.7-3.2-9.1-8.2-10.8-14.3v-1.1l.3-.1zm89.1-38.9v6.4c0 1.3-.8 1.5-1.9 1.6-3.3.1-6.6.2-9.9.6-10.8 1.3-21.5 4.7-32.5 3.3-5.5-.6-10.9-1.7-16.2-3.2-9.7-2.9-18.9-7.4-27.7-12.5-2.8-1.6-3.6-4.8-4.1-7.9-.2-1.5.5-2.2 2-1.2 2.4 1.6 4.7 3.2 7 4.8 4.9 3.3 10.3 5.6 16 7.1 5 1.4 9.9 3.2 15.1 4 5.1.8 10.3 1.5 15.6.3 3.4-.8 7-.8 10.5-1 8.3-.6 16.7-.2 24.9-2.2.3-.1.7-.1 1.2-.1zM144.6 85.2c-1.6.4-2.8.8-3.9.8-4.8.4-9.5.7-14.1-1.5-4.4-2.1-9-2.2-13.9-1.8-4.1.4-8.1.8-11.9 2.4-3 1.3-5.8 2.9-8.8 4.2-3.8 1.6-7.9 1.2-11.9 1-1.6-.1-3.3-.1-4.9.1-5.4 1-10.2 3.1-13.6 7.5-.7.8-1.6 1.4-2.5 2.3-.4-2.5.3-3.9 2.7-7.4 3.5-5.1 8.5-6.7 14.3-6.8 6-.1 11.5-2.2 16.7-5 5.1-2.7 9.4-6.7 15.3-8 3.6-.8 7.4-.8 11-.1 5.4.9 9.9 3.6 14.4 6.7 2.9 2 6.3 3.2 9.5 4.7.3.3.7.5 1.6.9zm148.7 54.1c0 2.6-1.1 4.8-2.7 6.8-4.8 5.9-9.5 11.8-14.5 17.5-3 3.4-6.9 5.5-11.4 6.5-6.4 1.6-12.4 3.9-17.7 8-1.3 1.1-2.5 2.4-4 3.9-2.8-2.8-6-5.9-9.1-9-1.2-1.2-1.2-2.6-.3-4 3.8-6.2 9.5-9.5 16.5-10.9l8.1-1.5.4.8c-.6.5-1.1 1.3-1.7 1.6-3.2 1-6.3 1.9-9.5 2.8-1.5.4-3.1.8-4.5 1.5-.7.4-1.1 1.4-1.6 2.1.9.3 1.8.9 2.8.9 3.2 0 6.5 0 9.8-.1 2.3-.1 4.8 0 6.9-.7 4.8-1.6 9.6-3.6 14.2-5.8 2.1-1.1 3.9-3 5.4-4.9 4.2-5.2 8.2-10.5 12.3-15.7l.6.2zm16.3 71.2c-4.2-1-8-1.6-11.5-3-1.2-.5-1.7-3.2-1.9-5-.3-4 .4-7.7 1.7-11.5 2.2-6.7 3.9-13.6 5.2-20.6 1.2-6.3 2.1-12.7 2.1-19s.4-12.5 2-18.6c.9-3.6 2.5-6.8 5.2-9.4 1.3-1.2 2.7-1.6 4.5-.8-1.2 1.8-2.8 3.4-3.6 5.2-.9 2.2-1.5 4.5-1.7 6.9-.9 7.1-.8 14.4-2.5 21.4-1 4.4-1.6 8.8-2.4 13.3-.9 4.7-2.4 9.3-2.9 14-.4 2.9.3 6 1 8.8 1.3 5.4 2.9 10.7 4.4 16.1.2.4.2.9.4 2.2zm15-69.4c1 3.2 1.5 6.7 3.1 9.5 3.5 6.1 5.3 12.8 7.9 19.3 1.8 4.6 4.3 8.8 7.7 12.3 3.9 3.9 7.9 7.6 12.3 11 2.7 2.1 5.9 3.6 9 5.3.4.3.7.5 1.1.8-3.2 2.3-6.4 3.9-10.1 4.4-.5 0-1-.1-1.4-.4-7.1-4.8-13.2-11.1-17.6-18.5-2.4-4.1-3.8-8.3-5.2-12.7-1.6-5-3.7-9.9-5.4-14.8-1.2-3.3-2.1-6.7-3.1-10.1-1-3-.6-4 1.7-6.1zM294.3 161c.2.6.5 1.2.4 1.7-.4 4.7-.4 9.5-1.4 14.1-1.1 5.3-3.8 10-7.5 14-2.1 2.2-3.8 4.8-5.5 7.3-2.5 3.6-3.6 4-7.7 2.1-4-1.9-8.1-3.8-12.1-5.8-1.3-.7-2.4-1.6-3.6-2.5-1.3-1.1-1.2-2.4.2-3 2.1-1 4.4-1.8 6.6-2.4 5.6-1.5 9.6-5.1 13.2-9.3 1-1.2 2-2.5 2.9-3.7l.8.2c-.2 1.4-.2 2.9-.7 4.2-1.8 4.2-4.7 7.5-9.2 9-1.1.4-2 1.2-2.9 1.9-.3.3-.7 1-.5 1.3.3.4.8.8 1.3.8 5.5-.2 10.7-.7 14.2-5.9 2-3.1 4.7-5.8 7-8.7 2.3-2.8 2-6.3 2.7-9.5.4-2 .8-3.9 1.2-5.9l.6.1zm-96.4-63.9c-2.7.8-5.3 1.6-8 2.4-6 1.5-12.1 2.9-18.1 4.5-4.8 1.3-9.7 1.8-14.7 1.5-6.8-.5-13.4 1.7-19 5.8-3.2 2.3-5.9 5.2-9.1 7.5-2 1.5-4.2 2.5-6.5 3.4-1.9.8-3.7 0-6-1.3 1.8-.9 3-1.8 4.3-2.2 5.3-1.5 9.1-4.9 12.6-9 2.4-2.8 5.3-5.2 8.6-7 2.5-1.4 5.6-1.6 8.5-2.3 3.4-.8 6.7-1.8 10.2-2.1 3.9-.4 7.8 0 11.8 0h9.2c1.3 0 2.6-.3 3.9-.4l12.1-1.3.2.5zm160.5-3.5c9.3 1.2 18.5 2.3 28.2 1.7-1.8-4.8-6.3-4.4-9.1-7h2.3c.8.1 1.7.2 2.6.4 7.5 1.4 15.1 2.8 22.6 4.2 4.3.8 8.7 1.2 13 .6 2-.3 4-1.2 5.9-1.9 1.1-.4 1.7-.2 1.9 1 .1.8.4 1.6.4 2.4.1 1.3-.4 2.1-1.8 2.2-2.2.1-4.4.2-6.6.4-7.2.7-14.5 1.7-21.8 2.1-5.2.3-10.4 0-15.6-.3-6.7-.4-12.9-2.4-19.2-4.4-.9-.4-1.9-.8-2.8-1.4zm55.9-34.9c-.7.2-1.4.3-2.2.4-9.2-.1-18.3 1.3-27 4.2-4.8 1.6-9.7 3.3-14.5 5.1-7.3 2.7-14.6 5.6-21.9 8.2-3.7 1.3-7.5 2.2-11.5 1.3-1.2-.3-2.5 0-3.8-.1-.8-.1-1.6-.3-2.5-.5l-.1-.6c1.6-.5 3.3-1.1 5-1.5 12-2.8 23.9-5.9 34.9-11.5 1.5-.8 3.3-.9 5-1.4 6.8-1.8 13.8-3.2 20.4-5.6 3.6-1.2 6.7-4 9.7-6.3 1.5-1.2 2-1.2 3 .3 1.6 2.5 3.5 5.1 5.5 8zm-49.8 72.2c5.2 1.6 9.9 4 14.1 7.3 4.2 3.2 8.2 6.8 13.2 8.7 2.8 1.1 5.8 1.8 8.8 2.1 2.8.3 5.6-.3 8.3-.3 2.9 0 5.8.3 8.9.5-1.2 2.3-2.2 4.5-3.5 6.5-.4.5-1.6.9-2.3.8-4.7-.8-9.4-1.6-14.1-2.5-3.4-.6-6.8-1.1-10.2-1.8-1.2-.4-2.4-1-3.3-2-2.2-2.1-4-4.5-6.2-6.5-2.4-2.2-5.2-3.9-7.7-6-2.3-2-4.4-4.2-6.7-6.3l.7-.5zm-46.9 37.8c.3 2.8.7 5.2.7 7.5 0 8.5 2 16.5 7.1 23.4 2.6 3.4 5.7 6.4 8.6 9.7-.3.2-.6.3-1 .4-3.2.3-6.4.6-9.7.7-.8 0-1.6-.5-2-1.2-1.3-2.5-2.8-4.8-2.8-7.9-.1-4.7-1.4-9.3-2.3-13.9-.8-3.8-1.9-7.6-2.4-11.5-.1-2.6.7-5.1 3.8-7.2zm65.6-135.5l-1.8-2-10.5 9-.6-.7c1.1-1 2.3-2 3.2-3.2 2.2-2.5 4.4-4.9 6.3-7.7 1.6-2.4 2.4-2.8 4.8-1.2 3.2 2.2 6.3 4.4 9.7 6.9-2.2 1.9-4.2 3.5-6 5.1-1.1.9-2.4 1.8-3.2 2.9-2 2.8-4.8 4.9-8.1 6-3 1-5.9 2.1-9.1 3 8-3.5 12.1-10.4 15.3-18.1zM272.3 143.9c-.9.3-1.8.8-2.7.8-1.2 0-2.3-.2-3.5-.4-7.5-1-15 .2-22.3 1.9-6.5 1.5-12.5 4.5-17.8 8.7-.3.2-.5.5-.8.8-2.3 3.2-2.6 3.2-4.5-.2-2.2-3.9-2.2-3.9 1.9-5.6 3.5-1.5 6.9-3.2 10.5-4.2 4-1.1 8.1-1.6 12.2-2.1 5.3-.7 10.6-1.5 15.9-1.7 3.7-.2 7.4.5 11.1.8v1.2zm50.8-127.2c1.6-.5 3.1-.9 4.5-1.4 1.4-.5 2-.1 2.3 1.5.8 5.7 2 11.5 2.7 17.2.4 3.6.7 7.3.7 10.9 0 .9-.7 2.1-1.4 2.8-1.4 1.4-3 2.6-4.7 3.6 1.3-6 2.9-12 1.5-17.9-1.2-5.6-3.6-11.1-5.6-16.7z"/><path fill="none" d="M226.3 54.3c2.4-2.4 4.3-4.6 6.4-6.4.5-.4 2.2 0 3.1.5 1 .6 1.6 1.8 2.4 2.8 4.3 5.1 10.3 7.9 15.9 11.1 3.4 1.9 5.4 4.8 7 8.1l-.4.5c-2.2-1.6-4.5-3-6.6-4.7-5.1-4.4-11-7.4-17.1-9.8-3-1.3-6.5-1.4-10.7-2.1zm85.7 7.3c-.3-5.2-.5-10.3-.8-15.5-.3-5.9-1.6-11.5-5.8-16-1.1-1.2-2.5-2.2-4-3.4l7.7-4.6c.3 1.5.8 2.8.7 4-.4 5.2 1.7 9.8 3.4 14.5 1 2.7 1.9 5.5 2.3 8.3.3 1.9-.4 3.9-.8 5.8s-.8 3.8-1.4 5.7c-.2.5-.5 1-.8 1.5l-.5-.3zm109.8 15.2c-.5.2-1.1.3-1.6.4-3.9.6-7.7 1.4-11.6 1.6-3.8.2-7.5-.3-11.3-.7 4-2.8 8.7-4.7 13.5-5.4 2.2-.3 4.5-.2 6.7-.5s3.4.7 3.8 2.8c.1.7.3 1.1.5 1.8zm-77-27.7c2.2-1.9 4.4-3.7 6.6-5.6 5.9-4.9 9.6-11 10.4-18.7.1-1.4-.3-2.9-.4-4.4 0-.8.1-1.6.3-2.4l5.6 2.1c-3.5 7.5-6.8 14.7-10.4 21.9-1.6 3.2-8.5 7.2-11.8 7.5l-.3-.4zm55 88.2c7 3 14.3 3.9 21.8 3.4.1.2.1.4.1.6-1.8 4.2-3.4 4.8-8.9 3.2-1.2-.4-2.5-.6-3.8-.6-3.4.3-5.8-1.6-8.2-3.5-.8-.6-1-1.8-1.6-2.7l.6-.4zm-135-82.8l-18.2-12.8v-.9c1.8-.6 3.5-1.2 5.3-1.7.4-.1 1 .7 1.5 1.1 1.8 1.9 3.6 3.7 5.3 5.7 2.2 2.6 4.3 5.4 6.5 8.1l-.4.5zm98.8 130.1l19.2 3.6.1.8c-2 1.2-4 2.5-5.9 3.8-.4.2-.8.2-1.2 0-4.4-1.8-8.3-4-11.7-7.4-.2-.3-.4-.5-.5-.8zM345.8 28l-1.5-13c2.8-.4 2.8-.4 2.9 2 .2 2.4.7 4.9.8 7.3 0 1.3-.6 2.6-.9 3.8-.1 0-1.3-.1-1.3-.1zm-81 7.3c3.3-2 5.4-.6 5.9 4 .1 1.1-.1 2.1-.3 3.8l-5.6-7.8z"/></svg>