<?xml version="1.0" encoding="utf-8"?>
<!-- Generator: Adobe Illustrator 19.2.1, SVG Export Plug-In . SVG Version: 6.00 Build 0)  -->
<svg version="1.1" id="Layer_1" xmlns="http://www.w3.org/2000/svg" xmlns:xlink="http://www.w3.org/1999/xlink" x="0px" y="0px"
	 viewBox="0 0 620 335.8" enable-background="new 0 0 620 335.8" xml:space="preserve">
<title>shrimp</title>
<path fill="none" d="M0,335.8V0h620v335.8H0z M451.2,232.8l0.5,0.3c-0.2,0.7-0.3,1.3-0.5,2c-1.2,3.4-2.4,6.7-3.8,10
	c-1.9,4.5-3.6,9.1-5.1,13.8c-0.7,2.2-1.2,4.5-1.4,6.8c-0.3,3.8,0,7.6,1.3,11.3c1.1,3.2,2.9,5.9,5.1,8.4c1.4,1.6,3,3.1,4.6,4.5
	c0.5,0.5,1.3,0.7,2,0.9c1.2,0.2,1.9-0.4,2-1.6c0.1-1.4-0.3-2.6-1-3.8c-1.5-2.4-3.3-4.8-4.1-7.6c-1-3.4-1.4-6.9-0.3-10.4
	c0.8-2.7,1.9-5.2,3-7.7c1-2.3,1.9-4.6,2.8-6.9c1.4-3.6,3.3-7,4.1-10.9c0.2-0.7,0.6-1.4,0.9-2.1c0.8-1.5,1.6-2.9,1.8-4.6
	c0.3-2.2,1.3-3.9,3.6-4.9c2-0.9,3.8-2.3,5.7-3.6c0.7-0.6,1.6-0.9,2.6-0.9c4.3-0.2,8.3,0.8,12.1,2.6c1.8,0.9,3.7,1.7,5.6,2.4
	c1.5,0.6,2.5,0.1,3.3-1.3c0.1-0.3,0.2-0.6,0.3-0.8c0.4-0.9,0.8-1.1,1.8-0.7c2.5,0.9,5.1,1.8,7.5,2.9c3,1.4,6.1,2.5,9.3,3.5
	c1.7,0.5,3.4,1.2,4.4,2.9c2.5,4.6,4.5,9.5,5.5,14.6c1.2,6.5,2.4,13,2.3,19.7c-0.1,6.1,0.6,12.2,1.7,18.2c0.7,4,2,7.6,4.4,10.9
	c0.6,0.8,1.1,1.8,2.2,1.8c1.8,0.1,3.7,0.1,5.4-0.9c1.1-0.7,2.4-1.3,3.3-2.2c2.1-2.2,4-4.6,6-7c0.6-0.7,0.8-1.6,1.9-2.1
	c0.7,1.8,1.2,3.4,1.9,5.1c0.7,1.9,1.4,3.8,2.3,5.6c1.1,2.1,2.5,4.1,5,4.8c1.4,0.4,2.2,1,2.4,2.5c0,0.1,0.2,0.1,0.3,0.2
	c1.2-0.1,1-1.4,1.7-2c0.7-0.6,2-0.5,2.4-1.5c0.1-0.2,0.2-0.3,0.3-0.4c0.6-0.7,1.2-1.3,1.7-2c1.5-2.3,3.1-4.6,3.6-7.4
	c0.5-2.6,0.7-5.3,1.1-7.9c0.2-1.4,0.5-2.7,0.6-4.1c0.2-2.6,0.2-5.3,0.3-8c0.2-3.6,0.3-7.1-1.1-10.5c-1.5-3.7-2.2-7.8-4.3-11.4
	c-0.9-1.4-1.1-3.2-1.8-4.7c-1.2-2.7-2.4-5.4-3.7-8c-0.8-1.6-1.7-3.3-2.9-4.5c-2.5-2.5-5.4-4.6-8-7c-3.8-3.6-8.3-5.9-13-8
	c-2.5-1.1-5.1-2.2-7.6-3.4c-3.3-1.7-6.7-2.9-10-4.4c-2.9-1.2-6-2.3-8.6-4.1c-2.7-1.8-5.6-3.3-8.5-4.6c-0.4-0.2-0.9-0.5-1.3-0.4
	c-1.2,0.1-1.7-0.7-2.4-1.4c-1.1-1.2-2.2-2.5-3.6-3.2c-3.1-1.6-6.4-2.9-9.7-4.2c-1.7-0.7-3.3-1.3-5-1.9c-0.9-0.3-1.2-0.9-1.3-1.8
	c-0.2-2.2-0.5-4.5-0.9-6.7c-0.2-1-0.5-2.1-1.1-2.9c-1.4-1.6-2.8-3.4-5.1-3.9c-0.4-0.1-0.8-0.4-1.3-0.6c-3-1.1-5.7-2.9-9-3.2
	c-1.2-0.1-2.4-0.2-3.6-0.3c-1.8-0.2-3.6-0.3-5.3-0.5c-2.6-0.3-5.3-0.6-7.9-0.5c-1.1,0.1-1.5-0.6-1.8-1.5c-0.8-2.4-2.3-4.1-4.1-5.8
	c-1.4-1.4-3.2-1.9-5.1-1.8c-2.3,0.1-4.6,0.3-6.9,0.6c-3.3,0.4-6.5,0.9-9.8,1.6c-3.1,0.6-6.1,1.5-9.1,2.3c-1.5,0.4-2.9,1.1-4.5,1.4
	c-4.5,1.1-9.1,2.2-13.7,3.3c-1.7,0.4-3.4,0.9-5,1.4c-0.8,0.2-1.4,0.1-1.9-0.7c-0.6-0.9-1.3-1.8-2-2.6c-2.3-2.8-5.2-4.1-8.9-3.7
	c-2.4,0.2-4.7,0.5-7.1,0.5c-3.3,0.1-6.6,0.2-9.9,0.7c-1.4,0.2-2.9,0.3-4.3,0.5c-1.3,0.2-2.6,0.4-3.9,0.8c-3.1,0.8-5.9,2.5-8.7,4
	c-1.3,0.7-2.5,1.5-3.8,2c-1.8,0.7-2,0.6-3.2-1c-1.2-1.6-2.6-3.1-4.5-3.7c-2.1-0.6-4.2-1.2-6.4-1.5c-2.4-0.3-4.9-0.2-7.3-0.5
	c-3-0.3-6.1-0.7-9.1-1c-1.4-0.2-2.9-0.2-4.3-0.4c-2.3-0.3-4.6-0.7-6.9-1c-0.5,0-0.9,0-1.4,0c-1,0-2,0.1-2.9,0.1
	c-0.8,0.1-1.3-0.3-1.5-1.1c-0.4-2.7-2.2-4.7-3.6-6.8c-0.4-0.5-1-1-1.6-1.3c-4.3-2.4-9-3.8-13.9-3.9c-4.3-0.1-8.6,0.3-12.8,0.6
	c-1.7,0.1-1.9,0.1-2.7-1.5c-0.6-1.3-1.2-2.5-1.8-3.7c-0.6-1-1.3-1.9-1.9-2.9c-1.3-2.3-2.9-4.5-4.7-6.4c-1-1.1-2-2.3-3-3.3
	c-2.3-2.3-4.7-4.6-7.1-6.9c-1.3-1.2-2.7-2.4-4.1-3.5c-1.3-1.1-2.7-2.1-4.1-3.2c-0.3-0.2-0.7-0.4-1-0.6c-1.7-1.3-3.3-2.6-5-3.8
	c-2.5-1.9-5.1-3.7-7.5-5.6c-3.8-3.1-7.6-6.3-11.4-9.5c-1.7-1.4-3.5-2.9-5.3-4.2c-4.4-3.1-9.4-5.2-14.2-7.6c-2.3-1.1-4.5-2.2-7.1-2.8
	c-3.4-0.9-6.6-2.4-10-3.6c-2.1-0.8-4.4-1.2-6.7-0.8c-0.5,0.1-0.9,0.1-1.4,0.1c-2.5-0.3-4.7,0.2-6.8,1.5c-1.7,1.1-3.6,1.4-5.4,0.1
	c-0.5-0.3-1-0.5-1.6-0.7c-2.3-0.8-4.2-2.2-6-3.8c-0.9-0.8-1.7-1.8-1.6-3.1c0.1-1.4,0.1-2.9,0.3-4.3c0.3-1.9,0.8-3.7,1.3-5.6
	c0.6-2.4,1.3-4.8,2-7.2c1.2-4.1,3.1-7.9,5-11.7c0.6-1.3,1.3-2.6,2.2-3.7c2.4-2.9,2.1-3.2,5.8-0.9c1.9,1.2,3.6,2.7,5.5,4
	c3,2.1,6.2,4.1,9.1,6.3c4.4,3.2,8.8,6.2,13.8,8.3c4.8,2,9.6,3.7,14.6,5.1c2.3,0.7,4.8,1,7.1,1.7c3.5,1,7.1,1.6,10.8,2
	c2.4,0.3,4.9,0.1,7.3-0.3c1.8-0.4,3.5-0.8,5.2-1.2c1.5-0.4,3-0.7,4.5-1.3c2.1-0.7,4.1-1.6,6.1-2.5c1-0.5,2-0.5,3,0
	c1,0.5,1.9,1.1,2.8,1.7c1.8,1,3.6,1.9,5.4,2.8c2,1,4.1,1.9,6.1,2.9c0.7,0.3,1.4,0.8,2.2,1c1.7,0.5,3.5,0.9,5.2,1.2
	c4.4,1,8.7,0.8,13-0.8c2.2-0.8,4.3-1.7,6.2-3c2.3-1.5,4.2-3.5,5.6-5.9c0.4-0.7,0.7-1.5,0.5-2.5c-1.6-0.1-2.4,1.1-3.1,2.1
	c-2.2,2.8-4.7,5-8.1,6.4c-3.5,1.4-7,2.6-10.8,2.1c-2.9-0.4-5.7-1.1-8.4-1.9c-4.6-1.4-8.9-3.6-13-6.2c-0.8-0.5-1.4-1.1-2.3-1.9
	c0.8-0.6,1.3-1.1,1.9-1.5c1.5-0.9,3-1.7,4.5-2.6c1.4-0.9,2.8-1.8,4.1-2.9c2.8-2.4,5.4-4.9,8.1-7.4c1.2-1.1,2.5-2,3.8-3.1
	c0.8-0.6,1.7-1.2,2.3-2.1c-0.8-0.3-1.6-0.2-2.3,0.3c-1.2,0.8-2.5,1.5-3.6,2.5c-2.9,2.5-5.8,5.2-8.7,7.7c-1.3,1.1-2.7,2.2-4.1,3.2
	c-1.8,1.2-3.7,2.3-5.6,3.4c-1.9,1.1-3.7,1.6-5.8,0c-4.8-3.7-10.2-6.8-14.7-11.1c-0.1-0.1-0.3-0.2-0.4-0.3c-3.2-2.5-6.5-4.9-9.5-7.5
	c-1.3-1.1-2.7-2.3-4.2-3c-2.2-1-4-2.5-6-3.8c-2.6-1.8-5.1-3.8-7.7-5.6c-3.7-2.5-7.8-4.4-12.2-5.1c-1.7-0.2-3.4-0.6-5-0.5
	c-3.6,0.3-7.2,0.5-10.5,2.1c-1.6,0.8-3.3,1.4-4.9,2.3c-3.9,2.2-7.7,4.5-10.7,7.9c-1.2,1.4-1.6,1.5-3.3,0.5c-1.6-0.9-3.2-1.7-4.9-2.1
	c-1.8-0.3-3.6-0.7-5.5-0.9c-1.1-0.1-2.2,0.2-3.2,0.5c-1.8,0.5-3.6,0.8-5.3,1.5c-2.1,0.8-3.7,2.4-4.7,4.5c-0.9,2.1-2,4.2-2.4,6.5
	c-0.6,4.1-0.6,8.1,0.7,12.1c0.9,3,2.5,5.6,4,8.3c1.8,3,3.9,5.9,5.7,8.9c0.7,1.1,1.1,2.4,1.4,3.7c0.6,2.4,0.9,4.8,1.5,7.1
	c0.8,3,2.1,5.8,3.9,8.3c1.9,2.8,3.2,6,5.5,8.4c0.1,0.1,0,0.3,0,0.5c-0.9,0.2-1.6-0.3-2.3-0.7c-1.1-0.6-2.2-1.3-3.3-2
	c-0.6-0.4-1.2-0.9-1.8-1.3c-0.3-0.2-0.6-0.6-1-0.7c-2.7-1.2-5.2-2.8-7.4-4.7c-0.4-0.3-0.8-0.6-1.3-0.9c-3-1.9-6.4-2.6-9.9-3
	c-2.5-0.2-5-0.3-7.5-0.4c-1.1-0.1-2.3-0.1-3.5,0c-2.9,0.1-5.9,0.4-8.8,1c-2.6,0.5-5.3,0.9-7.7,2.1c-0.8,0.4-1.6,1-2.4,1.3
	c-3,1.1-5.6,3.1-8.3,4.7c-0.6,0.3-1.1,0.7-1.6,1.1c-2.3,2.2-4.5,4.3-6.7,6.5c-1.2,1.2-2.4,2.4-3.2,3.8c-1.7,2.8-3.3,5.7-4.8,8.7
	c-1.3,2.6-2.7,5.3-3.7,8c-1.5,4.3-2.6,8.8-3.9,13.2c-0.2,1-0.4,1.9-0.6,2.9c-0.3,1.7-0.4,3.3-0.7,5c-0.7,3.8-1.5,7.6-2.1,11.4
	c-0.3,1.9-0.5,3.9-0.9,5.9c-0.5,2.6-1,5.2-1.5,7.8c-0.3,1.3-0.4,2.6-0.9,3.7c-1.4,3.6-2.8,7.1-4.5,10.5c-1.5,3-3.9,5.2-7.2,6.1
	c-0.4,0.1-0.8,0.3-1.1,0.5c-0.5,0.3-1,0.7-0.7,1.2c0.2,0.4,0.6,0.6,1,0.7c0.7,0,1.4-0.1,2-0.3c2.2-0.8,4-2.2,5.9-3.7
	c0.3-0.2,0.5-0.6,0.7-1c3.7-6.1,6.3-12.5,7.5-19.5c0.5-2.8,1-5.6,1.5-8.4c0.6-3.6,1.4-7.2,1.9-10.8c0.8-5.9,1.8-11.7,3.4-17.4
	c0.7-2.7,1.4-5.4,2.5-7.9c1.7-4,3.7-7.9,5.7-11.7c1-2,2.4-3.8,3.7-5.6c1.2-1.6,2.6-3.1,4-4.5c3.4-3.5,7.1-6.4,11.6-8.5
	c1.7-0.8,3.4-1.4,5-2.3c1.5-0.8,3.1-1.3,4.8-1.5c1.8-0.2,3.6-0.6,5.3-0.8c1.2-0.2,2.4-0.5,3.6-0.5c6,0,12,0.1,17.8,1.4
	c0.8,0.2,1.5,0.5,2.2,1c0.9,0.7,1.6,1.7,2.4,2.7c-0.2,0.8-0.1,1.7,0.9,2.2c2,1,3.3,2.8,4.6,4.4c2.5,3.2,5.6,5.7,8.7,8.2
	c2.2,1.9,4.6,3.5,6.3,5.9c0.2,0.3,0.5,0.5,0.7,0.7c2.2,1.7,3.7,3.9,5.5,6l6.2,7.5c1.2,1.4,2.4,2.8,3.6,4.2c0.3,0.4,0.6,0.9,1,1.2
	c2.5,2.7,5,5.3,7.5,8c4.1,4.5,8.3,8.9,13.4,12.3c4.7,3.2,8.7,7.3,13.8,9.9c0.1,0.1,0.2,0.1,0.3,0.2c4.6,3.3,9.1,6.8,14.1,9.5
	c3.6,1.9,7.2,3.4,11.3,3.5c1.7,0.1,3,0.7,4,2.1c2.8,4.2,6.8,7.2,10.6,10.4c1.6,1.3,3,2.7,4.5,4.1c0.3,0.3,0.4,0.7,0.7,1.1
	c-0.8,0.5-1.6,1-2.3,1.4c-1,0.5-2,1-2.9,1.5c-1.5,0.7-3,1.5-4.5,2.2c-0.7,0.3-1.4,0.6-2.1,0.9c-3.6,1.8-6.9,4.1-10.1,6.4
	c-2.3,1.6-4.3,3.5-6.4,5.4c-2,1.8-3,3.9-3.7,6.3c-0.2,0.7-0.3,1.4-0.3,2.1c-0.3,2.9-0.6,5.9-0.9,8.8c0,0.5,0,0.9,0.1,1.4
	c0.2,2.3,0.5,4.6,0.8,6.9c0.2,1.6,0.6,3.1,1.5,4.4c1,1.5,3,1.8,4.2,0.6c0.9-1,1.6-2.1,1.7-3.5c0.1-2.1,0.4-4.1,0.7-6.2
	c0.2-1.4,0.4-2.9,0.7-4.3c0.3-2.1,0.6-4.1,1.1-6.1c0.3-1.1,0.9-2.4,1.7-3.1c1.8-1.7,3.8-3.2,5.9-4.5c2-1.3,4.3-2.2,6.4-3.5
	c2.8-1.7,5.5-3.4,8.2-5.3c3.1-2.1,6.1-4.4,9.1-6.7c0.6-0.4,1.1-0.7,1.9-0.4c1.1,0.4,2.3,0.7,3.4,1.2c0.6,0.3,1.3,0.7,1.6,1.2
	c0.5,0.8,1.1,1.4,2,1.9c0.5,0.3,0.9,0.7,1.3,1c-1.5,2.6-3,5-4.5,7.4c-1.3,2-2.8,3.8-4,5.9c-2.1,3.6-4,7.3-5.8,11.1
	c-1.6,3.2-2.9,6.6-4.1,9.9c-1.6,4.7-2.2,9.5-0.3,14.3c0.3,0.6,0.4,1.3,0.6,2c0.6,2,1.1,3.9,1.7,5.8c0.5,1.6,1,3.2,1.6,4.8
	c0.5,1.5,1,3.2,2.2,4.3c0.5,0.4,1.3,0.9,1.8,0.8c1.5-0.3,2.9-0.9,3.5-2.5c0.8-2.2,1.1-4.5,0.5-6.8c-0.8-3.2-1.9-6.3-2.8-9.5
	c-1.3-4.9-1.3-9.7,0.3-14.6c0.4-1.1,1-2.2,1.3-3.4c0.6-2.8,1.8-5.4,3-7.9c0.8-1.8,1.8-3.6,2.7-5.5c0.3-0.7,0.6-1.5,1-2.2
	c0.8-1.4,1.7-2.8,2.5-4.2c0.8-1.5,1.6-3,2.4-4.4c0.7-1.1,1.2-1.3,2.3-0.5c3.2,2.3,6.3,4.6,9.4,6.9c1.7,1.3,2.2,2.9,1.7,4.9
	c-0.7,3.3-1.2,6.7-2.4,9.9c-0.2,0.6-0.4,1.2-0.6,1.8c-0.6,4-1.2,7.9-1.8,11.9c-0.1,1-0.3,1.9-0.4,2.9c-0.1,1.2-0.1,2.4-0.2,3.6
	c-0.3,2.5-0.8,5.1-0.8,7.6c0,4.5,0.4,9,1.3,13.5c0.8,3.8,2.9,6.5,5.5,9c2.3,2.2,4.7,4.2,6.5,6.9c0.5,0.6,1,1.1,1.6,1.6
	c1,0.7,2.8,0.6,3.9-0.2c0.8-0.6,1.2-1.8,0.8-3.2c-1-3.8-3.2-6.7-6.1-9.3c-1.4-1.2-2.8-2.8-3.4-4.5c-1.1-3.4-1-7-0.8-10.5
	c0.2-2.5,0.6-5.1,0.9-7.6c0.5-4.2,0.8-8.4,1.4-12.6c0.5-3.5,1.2-7,1.8-10.4c0.3-2,0.9-4,0.5-6c-0.1-0.4,0.1-0.8,0.2-1.4
	c0.8,0.4,1.4,0.7,2.1,0.9c1.5,0.5,3.1,1.3,4.7,1.3c2.7,0,5.4-0.3,8-1.5c0.6-0.3,1.3-0.4,2-0.6c0.1,0.7,0.3,1.1,0.3,1.6
	c0.1,1.9,0,3.8,0.2,5.7c0.2,2.6,0.6,5.2,1,7.8c0.7,3.8,1.7,7.5,2.4,11.2c0.9,5.5,1.4,11,2.6,16.5c0.9,3.8,1.5,7.6,3,11.2
	c1.6,3.8,4.1,6.6,8.4,7.3c2,0.3,3.9,0.3,5.9,0.7c3.3,0.7,5.8-0.8,8.4-2.4c0.8-0.5,1-1.3,1-2.1c0-1.6-1-2.9-2.5-3.4
	c-2.4-0.7-4.9-1.4-7.3-2.2c-1.8-0.6-3.2-1.7-3.8-3.5c-1.1-3-2.2-6.1-3.1-9.2c-1.3-4.8-2.1-9.7-3.4-14.6c-1.2-4.5-1.9-9.2-2.8-13.8
	c-0.5-2.7-1.1-5.5-1.5-8.2c-0.4-2.5-0.8-5-1-7.6c-0.2-2.2,1.4-3.5,2.9-4.7c0.2-0.2,0.8-0.2,1.2-0.1c0.6,0.2,1.2,0.4,1.8,0.6
	c2.1,0.7,4.2,1.6,6.4,2.1c3.3,0.9,6.7,1.5,10,2.2c3,0.7,6,1.5,9,2.2c1.2,0.3,1.7,1.1,1.9,2.3c0.4,3.7,0.8,7.4,1.3,11s1.2,7.3,2,10.9
	c0.7,3.4,1.5,6.7,2.2,10c0.7,4,1.4,8,3,11.8c1,2.4,2,4.8,3.2,7.1c0.5,0.9,1.3,1.7,2.1,2.5c1.9,1.9,4.3,3.1,6.8,4.2
	c0.9,0.4,1.8,1.1,2.7,1.6c0.4,0.2,1,0.6,1.4,0.5c1.1-0.3,2.2-0.8,3.2-1.3c0.7-0.4,0.9-1.1,0.4-1.8c-1-1.6-1.8-3.3-3.5-4.4
	c-3.4-2.2-5.4-5.6-6.4-9.4c-1.2-4.5-2.1-9.1-3.2-13.7c-0.2-0.8-0.4-1.7-0.6-2.5c-0.8-2.8-1.7-5.6-2.4-8.5c-0.6-2.6-1.1-5.3-1.6-8
	c-0.2-0.9-0.4-1.8-0.6-2.7c-0.4-2.4-0.7-4.7-1.1-7c-0.1-0.4,0.1-0.8,0.1-1.2c0.5-0.1,0.9-0.2,1.3-0.2c2.5-0.3,5-0.5,7.4-0.9
	c2.3-0.4,4.6-1.1,6.9-1.9c1.2-0.4,2.1-0.5,3.1,0.3c0.5,0.4,1.1,0.7,1.6,1c1.6,1.2,3.5,2.1,5.5,2.6c0.3,0.1,0.7,0.2,1,0.4
	c1.4,0.6,1.6,1.1,1.4,2.6c-0.4,2.2-0.9,4.3-1.3,6.5c-0.8,4.6-1.5,9.2-2.2,13.7c-0.5,3.4-1.1,6.7-1.6,10.1c-0.6,4.4,0.5,8.8,1.2,13.1
	c0.2,1.3,0.5,2.6,1,3.9c1.2,3.1,2.5,6.1,3.9,9.1c0.9,1.9,2.1,3.6,3.3,5.3c0.6,0.9,1.2,1.7,1.7,2.6c0.5,0.8,1.1,1.3,2.1,1.3
	c1,0,2.1-0.1,3.1-0.2c1.3-0.2,1.6-0.7,1.5-2.1c-0.1-1.1-0.5-2-1.2-2.8c-3-3.7-5.6-7.6-6.9-12.3c-0.8-3-1.2-6.1-1.2-9.3
	c0-4.6,0.1-9.2,1.1-13.7c0.3-1.3,0.5-2.6,0.7-3.9c0.3-2.5,0.6-4.9,0.9-7.4c0-0.3,0.2-0.7,0.2-1c0.4-2.4,1.1-4.7,1.1-7.2
	c0-1.4,0.3-2.7,0.5-4.2c2.2,0.4,4.2,0.7,6.3,1.1c1.1,0.2,2.2,0.6,3.4,0.9c0.9,0.2,1.4,0.8,1.5,1.7c0,0.5,0,1-0.1,1.6
	c-0.4,3.8-1,7.6-1.3,11.4c-0.5,5.4-0.7,10.9-1.3,16.3c-0.6,5.6-1,11.2-1,16.8c0,4.1,0.6,8,2.5,11.6c1.5,2.8,3.2,5.4,5.1,7.9
	c0.2,0.3,0.5,0.6,0.8,0.9c2.6,2.3,5.3,4.5,7.9,6.8c0.8,0.7,1.7,0.8,2.6,0.4c1.4-0.6,2.2-2.3,1.7-3.8c-0.4-1.1-1-2.2-1.7-3.2
	c-1.6-2.3-3.3-4.6-5.1-6.8c-3.6-4.7-4.8-10-4.3-15.8c0.3-3.7,0.8-7.4,1-11.1c0.2-3.5,0.3-6.9,0.4-10.4c0.1-3.4,0.5-6.7,0.4-10.1
	c-0.1-3.1,0.2-6.3,0.3-9.4c0.1-0.7,0.2-1.4,0.3-2.1c0.2-0.9,0.6-1.1,1.5-0.9c2,0.4,3.9,1,5.9,1.2c2.1,0.3,4.2,0.3,6.4-0.3
	c2.4-0.6,4.6-1.6,6.9-2.4c2.5-0.9,4.4-2.4,5.9-4.6c0.7-1.1,1.3-2.2,2-3.3c1.1,0.2,2.2,0.5,3,1.5c-0.4,0.9-0.9,1.8-1.3,2.6
	c-2.3,4.5-5.4,8.3-8.2,12.5c-2.6,3.8-5.3,7.6-7.7,11.5c-1.7,2.7-3.6,5.3-5.5,7.8c-2,2.5-3.3,5.2-3.2,8.4c0.1,3.8,1.3,7.3,2.4,10.8
	c0.2,0.6,0.5,1.2,0.9,1.7c1.2,1.6,3.4,1.8,4.3,0.3s1.6-2.9,1.6-4.7c0-2.5,0.2-5.1,0.3-7.6c0.2-2.4,0.7-4.8,1.9-7
	c0.6-1,1.3-2.1,1.9-3.1c1.8-2.8,3.5-5.6,5.9-7.9c0.8-0.8,1.6-1.7,2.2-2.7c2.2-3.5,4.4-7.1,6.5-10.7c1.4-2.3,2.7-4.6,4.1-6.8
	C449.8,234.1,450.6,233.5,451.2,232.8L451.2,232.8z"/>
<path fill="#FFC107" stroke="#FFC107" stroke-miterlimit="10" d="M451.2,232.8c-0.6,0.7-1.3,1.3-1.8,2c-1.4,2.2-2.7,4.6-4.1,6.8
	c-2.2,3.6-4.3,7.1-6.5,10.7c-0.6,1-1.4,1.9-2.2,2.7c-2.4,2.3-4.1,5.2-5.9,7.9c-0.7,1-1.3,2.1-1.9,3.1c-1.3,2.1-1.7,4.5-1.9,7
	c-0.2,2.5-0.3,5.1-0.3,7.6c0,1.8-0.7,3.3-1.6,4.7s-3.1,1.3-4.3-0.3c-0.4-0.5-0.7-1.1-0.9-1.7c-1.1-3.5-2.3-7.1-2.4-10.8
	c-0.1-3.2,1.3-5.9,3.2-8.4c2-2.5,3.8-5.1,5.5-7.8c2.5-3.9,5.2-7.7,7.7-11.5c2.8-4.1,5.9-8,8.2-12.5c0.4-0.9,0.9-1.8,1.3-2.6
	c-0.8-1.1-1.8-1.3-3-1.5c-0.7,1.1-1.3,2.2-2,3.3c-1.4,2.2-3.3,3.7-5.9,4.6c-2.3,0.9-4.5,1.8-6.9,2.4c-2.1,0.6-4.2,0.5-6.4,0.3
	c-2-0.3-4-0.8-5.9-1.2c-0.9-0.2-1.3,0-1.5,0.9c-0.2,0.7-0.3,1.4-0.3,2.1c-0.2,3.1-0.4,6.3-0.3,9.4c0.1,3.4-0.4,6.7-0.4,10.1
	c-0.1,3.5-0.1,7-0.4,10.4c-0.2,3.7-0.7,7.4-1,11.1c-0.5,5.8,0.7,11.2,4.3,15.8c1.7,2.2,3.4,4.5,5.1,6.8c0.7,1,1.2,2.1,1.7,3.2
	c0.6,1.5-0.2,3.2-1.7,3.8c-0.9,0.4-1.8,0.3-2.6-0.4c-2.6-2.3-5.3-4.5-7.9-6.8c-0.3-0.3-0.6-0.6-0.8-0.9c-1.9-2.5-3.6-5.1-5.1-7.9
	c-1.9-3.6-2.5-7.5-2.5-11.6c0-5.6,0.3-11.3,1-16.8c0.6-5.4,0.8-10.9,1.3-16.3c0.3-3.8,0.9-7.6,1.3-11.4c0.1-0.5,0.1-1,0.1-1.6
	c-0.1-0.9-0.5-1.5-1.5-1.7c-1.1-0.3-2.2-0.7-3.4-0.9c-2-0.4-4.1-0.7-6.3-1.1c-0.2,1.5-0.5,2.9-0.5,4.2c0.1,2.5-0.7,4.8-1.1,7.2
	c-0.1,0.3-0.2,0.7-0.2,1c-0.3,2.5-0.6,4.9-0.9,7.4c-0.2,1.3-0.5,2.6-0.7,3.9c-1,4.5-1.1,9.1-1.1,13.7c0,3.1,0.4,6.3,1.2,9.3
	c1.3,4.7,3.9,8.6,6.9,12.3c0.7,0.9,1.1,1.7,1.2,2.8c0.2,1.3-0.2,1.9-1.5,2.1c-1,0.1-2.1,0.2-3.1,0.2c-1,0-1.6-0.5-2.1-1.3
	c-0.5-0.9-1.2-1.7-1.7-2.6c-1.1-1.8-2.4-3.5-3.3-5.3c-1.4-3-2.7-6-3.9-9.1c-0.5-1.2-0.7-2.6-1-3.9c-0.7-4.4-1.8-8.7-1.2-13.1
	c0.4-3.4,1-6.8,1.6-10.1c0.7-4.6,1.5-9.2,2.2-13.7c0.4-2.2,0.9-4.3,1.3-6.5c0.3-1.5,0-2-1.4-2.6c-0.3-0.2-0.6-0.3-1-0.4
	c-2-0.5-3.8-1.4-5.5-2.6c-0.5-0.4-1.1-0.6-1.6-1c-1-0.7-1.9-0.7-3.1-0.3c-2.2,0.8-4.5,1.4-6.9,1.9c-2.4,0.5-4.9,0.6-7.4,0.9
	c-0.4,0.1-0.8,0.1-1.3,0.2c-0.1,0.4-0.2,0.8-0.1,1.2c0.3,2.4,0.7,4.7,1.1,7c0.2,0.9,0.4,1.8,0.6,2.7c0.5,2.7,0.9,5.4,1.6,8
	c0.7,2.9,1.6,5.7,2.4,8.5c0.2,0.8,0.5,1.7,0.6,2.5c1,4.6,2,9.2,3.2,13.7c1,3.8,2.9,7.2,6.4,9.4c1.7,1.1,2.6,2.8,3.5,4.4
	c0.4,0.7,0.3,1.4-0.4,1.8c-1,0.6-2.1,1-3.2,1.3c-0.4,0.1-0.9-0.3-1.4-0.5c-0.9-0.5-1.7-1.1-2.7-1.6c-2.4-1.1-4.9-2.2-6.8-4.2
	c-0.8-0.8-1.6-1.6-2.1-2.5c-1.2-2.3-2.2-4.7-3.2-7.1c-1.5-3.8-2.2-7.8-3-11.8c-0.6-3.4-1.5-6.7-2.2-10c-0.7-3.6-1.4-7.3-2-10.9
	c-0.6-3.7-1-7.3-1.3-11c-0.1-1.3-0.6-2-1.9-2.3c-3-0.7-6-1.5-9-2.2c-3.3-0.8-6.7-1.4-10-2.2c-2.2-0.6-4.3-1.4-6.4-2.1
	c-0.6-0.2-1.2-0.5-1.8-0.6c-0.4-0.1-0.9-0.1-1.2,0.1c-1.5,1.2-3,2.5-2.9,4.7c0.2,2.5,0.6,5.1,1,7.6c0.4,2.8,1,5.5,1.5,8.2
	c0.9,4.6,1.6,9.2,2.8,13.8c1.3,4.8,2.2,9.7,3.4,14.6c0.8,3.1,2,6.2,3.1,9.2c0.6,1.8,2,3,3.8,3.5c2.4,0.7,4.9,1.4,7.3,2.2
	c1.5,0.4,2.5,1.8,2.5,3.4c0,0.9-0.2,1.6-1,2.1c-2.6,1.6-5.1,3.2-8.4,2.4c-1.9-0.4-3.9-0.4-5.9-0.7c-4.3-0.7-6.7-3.5-8.4-7.3
	c-1.6-3.6-2.2-7.5-3-11.2c-1.2-5.4-1.7-11-2.6-16.5c-0.6-3.8-1.6-7.5-2.4-11.2c-0.5-2.6-0.8-5.2-1-7.8c-0.2-1.9-0.1-3.8-0.2-5.7
	c0-0.5-0.2-0.9-0.3-1.6c-0.8,0.2-1.4,0.3-2,0.6c-2.5,1.2-5.3,1.5-8,1.5c-1.5,0-3.1-0.8-4.7-1.3c-0.6-0.2-1.3-0.6-2.1-0.9
	c-0.1,0.6-0.3,1-0.2,1.4c0.4,2.1-0.2,4-0.5,6c-0.6,3.5-1.3,6.9-1.8,10.4c-0.6,4.2-0.9,8.4-1.4,12.6c-0.3,2.5-0.7,5.1-0.9,7.6
	c-0.3,3.5-0.3,7.2,0.8,10.5c0.6,1.7,2,3.3,3.4,4.5c2.9,2.6,5.1,5.5,6.1,9.3c0.3,1.3,0,2.6-0.8,3.2c-1.1,0.8-3,0.9-3.9,0.2
	c-0.6-0.4-1.2-1-1.6-1.6c-1.8-2.7-4.2-4.7-6.5-6.9c-2.6-2.6-4.7-5.2-5.5-9c-0.9-4.4-1.4-8.9-1.3-13.5c0-2.5,0.6-5.1,0.8-7.6
	c0.1-1.2,0.1-2.4,0.2-3.6c0.1-1,0.2-2,0.4-2.9c0.6-4,1.2-7.9,1.8-11.9c0.1-0.6,0.3-1.2,0.6-1.8c1.2-3.2,1.7-6.6,2.4-9.9
	c0.4-2,0-3.7-1.7-4.9c-3.1-2.3-6.2-4.6-9.4-6.9c-1.1-0.8-1.6-0.6-2.3,0.5c-0.9,1.4-1.6,3-2.4,4.4c-0.8,1.4-1.7,2.8-2.5,4.2
	c-0.4,0.7-0.7,1.5-1,2.2c-0.9,1.8-1.9,3.6-2.7,5.5c-1.2,2.6-2.4,5.1-3,7.9c-0.2,1.2-0.9,2.2-1.3,3.4c-1.6,4.8-1.6,9.7-0.3,14.6
	c0.9,3.2,2,6.3,2.8,9.5c0.6,2.3,0.3,4.6-0.5,6.8c-0.6,1.6-2,2.2-3.5,2.5c-0.5,0.1-1.3-0.4-1.8-0.8c-1.3-1.1-1.7-2.8-2.2-4.3
	c-0.6-1.6-1.1-3.2-1.6-4.8c-0.6-1.9-1.1-3.9-1.7-5.8c-0.2-0.7-0.3-1.4-0.6-2c-1.9-4.8-1.3-9.6,0.3-14.3c1.2-3.4,2.6-6.7,4.1-9.9
	c1.8-3.8,3.8-7.4,5.8-11.1c1.2-2.1,2.7-3.9,4-5.9c1.5-2.4,2.9-4.8,4.5-7.4c-0.4-0.3-0.9-0.7-1.3-1c-0.8-0.5-1.5-1.1-2-1.9
	c-0.3-0.5-1-1-1.6-1.2c-1.1-0.5-2.3-0.8-3.4-1.2c-0.8-0.3-1.3,0-1.9,0.4c-3,2.2-6,4.5-9.1,6.7c-2.7,1.8-5.4,3.6-8.2,5.3
	c-2.1,1.3-4.4,2.2-6.4,3.5c-2.1,1.4-4.1,2.9-5.9,4.5c-0.8,0.8-1.4,2-1.7,3.1c-0.5,2-0.7,4.1-1.1,6.1c-0.2,1.4-0.5,2.9-0.7,4.3
	c-0.3,2.1-0.5,4.1-0.7,6.2c-0.1,1.4-0.8,2.6-1.7,3.5c-1.2,1.3-3.2,0.9-4.2-0.6c-0.9-1.3-1.3-2.8-1.5-4.4c-0.3-2.3-0.5-4.6-0.8-6.9
	c-0.1-0.5-0.1-0.9-0.1-1.4c0.3-2.9,0.6-5.9,0.9-8.8c0.1-0.7,0.2-1.4,0.3-2.1c0.7-2.4,1.7-4.5,3.7-6.3c2.1-1.9,4.1-3.7,6.4-5.4
	c3.3-2.3,6.6-4.6,10.1-6.4c0.7-0.3,1.4-0.6,2.1-0.9c1.5-0.7,3-1.5,4.5-2.2c1-0.5,2-0.9,2.9-1.5c0.7-0.4,1.5-0.9,2.3-1.4
	c-0.3-0.5-0.4-0.9-0.7-1.1c-1.5-1.4-3-2.8-4.5-4.1c-3.8-3.2-7.8-6.2-10.6-10.4c-1-1.4-2.3-2.1-4-2.1c-4.1-0.2-7.7-1.7-11.3-3.5
	c-5.1-2.7-9.5-6.2-14.1-9.5c-0.1-0.1-0.2-0.2-0.3-0.2c-5.1-2.6-9.2-6.6-13.8-9.9c-5.1-3.5-9.3-7.9-13.4-12.3c-2.5-2.7-5-5.3-7.5-8
	c-0.3-0.4-0.6-0.8-1-1.2c-1.2-1.4-2.4-2.8-3.6-4.2c-2.1-2.5-4.1-5-6.2-7.5c-1.7-2.1-3.3-4.4-5.5-6c-0.3-0.2-0.5-0.5-0.7-0.7
	c-1.6-2.5-4.1-4.1-6.3-5.9c-3-2.6-6.2-5.1-8.7-8.2c-1.3-1.6-2.6-3.4-4.6-4.4c-1-0.5-1.1-1.4-0.9-2.2c-0.9-1-1.6-2-2.4-2.7
	c-0.6-0.5-1.4-0.9-2.1-1c-5.9-1.3-11.8-1.4-17.8-1.4c-1.2,0-2.4,0.3-3.6,0.5c-1.8,0.3-3.6,0.6-5.3,0.8c-1.7,0.2-3.3,0.7-4.8,1.5
	c-1.6,0.9-3.4,1.6-5,2.3c-4.4,2.1-8.2,5-11.6,8.5c-1.4,1.4-2.8,2.9-4,4.5c-1.4,1.8-2.7,3.7-3.7,5.6c-2,3.8-4,7.7-5.7,11.7
	c-1.1,2.5-1.8,5.3-2.5,7.9c-1.6,5.7-2.6,11.5-3.4,17.4c-0.5,3.6-1.3,7.2-1.9,10.8c-0.5,2.8-1,5.6-1.5,8.4c-1.2,7-3.8,13.5-7.5,19.5
	c-0.2,0.3-0.4,0.7-0.7,1c-1.8,1.4-3.6,2.9-5.9,3.7c-0.7,0.2-1.3,0.3-2,0.3c-0.4-0.1-0.8-0.3-1-0.7c-0.3-0.6,0.2-1,0.7-1.2
	c0.4-0.2,0.7-0.3,1.1-0.5c3.3-1,5.7-3.2,7.2-6.1c1.7-3.4,3.1-7,4.5-10.5c0.5-1.2,0.6-2.5,0.9-3.7c0.5-2.6,1.1-5.2,1.5-7.8
	c0.3-1.9,0.5-3.9,0.9-5.9c0.7-3.8,1.4-7.6,2.1-11.4c0.3-1.7,0.5-3.3,0.7-5c0.1-1,0.3-1.9,0.6-2.9c1.3-4.4,2.4-8.8,3.9-13.2
	c1-2.8,2.3-5.4,3.7-8c1.5-2.9,3-5.9,4.8-8.7c0.9-1.4,2.1-2.6,3.2-3.8c2.2-2.2,4.5-4.4,6.7-6.5c0.5-0.4,1-0.8,1.6-1.1
	c2.8-1.6,5.3-3.6,8.3-4.7c0.9-0.3,1.6-0.9,2.4-1.3c2.4-1.3,5.1-1.6,7.7-2.1c2.9-0.6,5.8-0.9,8.8-1c1.1-0.1,2.3,0,3.5,0
	c2.5,0.1,5,0.2,7.5,0.4c3.5,0.3,6.9,1.1,9.9,3c0.5,0.3,0.9,0.6,1.3,0.9c2.2,2,4.7,3.5,7.4,4.7c0.4,0.2,0.6,0.5,1,0.7
	c0.6,0.4,1.2,0.9,1.8,1.3c1.1,0.7,2.2,1.3,3.3,2c0.7,0.4,1.3,1,2.3,0.7c0-0.2,0.1-0.4,0-0.5c-2.4-2.5-3.6-5.7-5.5-8.4
	c-1.8-2.5-3.1-5.3-3.9-8.3c-0.6-2.4-0.9-4.8-1.5-7.1c-0.3-1.3-0.8-2.5-1.4-3.7c-1.8-3-3.9-5.9-5.7-8.9c-1.6-2.6-3.1-5.3-4-8.3
	c-1.2-4-1.3-8-0.7-12.1c0.3-2.3,1.4-4.4,2.4-6.5c0.9-2.1,2.6-3.7,4.6-4.5c1.7-0.7,3.5-1.1,5.3-1.5c1.1-0.3,2.2-0.5,3.2-0.5
	c1.8,0.1,3.7,0.5,5.5,0.9c1.8,0.3,3.4,1.2,4.9,2.1c1.7,1,2.1,0.9,3.3-0.5c3-3.5,6.8-5.7,10.7-7.9c1.6-0.9,3.3-1.5,4.9-2.3
	c3.3-1.6,6.9-1.8,10.5-2.1c1.6-0.2,3.3,0.3,5,0.5c4.5,0.7,8.5,2.5,12.2,5.1c2.6,1.8,5.1,3.8,7.7,5.6c2,1.3,3.8,2.9,6,3.8
	c1.6,0.7,2.9,1.8,4.2,3c3.1,2.6,6.3,5,9.5,7.5c0.1,0.1,0.3,0.2,0.4,0.3c4.4,4.3,9.8,7.3,14.7,11.1c2,1.6,3.8,1.1,5.8,0
	c1.9-1.1,3.8-2.2,5.6-3.4c1.4-1,2.8-2.1,4.1-3.2c2.9-2.5,5.8-5.2,8.7-7.7c1.1-0.9,2.4-1.7,3.6-2.5c0.7-0.5,1.5-0.6,2.3-0.3
	c-0.7,1-1.6,1.5-2.3,2.1c-1.3,1-2.6,2-3.8,3.1c-2.7,2.4-5.3,5-8.1,7.4c-1.3,1.1-2.7,2-4.1,2.9c-1.5,0.9-3,1.7-4.5,2.6
	c-0.6,0.4-1.1,0.9-1.9,1.5c0.9,0.7,1.6,1.4,2.3,1.9c4.1,2.5,8.4,4.8,13,6.2c2.8,0.8,5.6,1.6,8.4,1.9c3.8,0.5,7.3-0.6,10.8-2.1
	c3.3-1.4,5.9-3.6,8.1-6.4c0.7-1,1.5-2.1,3.1-2.1c0.3,0.9,0,1.7-0.5,2.5c-1.4,2.4-3.3,4.4-5.6,5.9c-2,1.3-4,2.2-6.2,3
	c-4.3,1.6-8.6,1.7-13,0.8c-1.7-0.4-3.5-0.7-5.2-1.2c-0.8-0.2-1.5-0.6-2.2-1c-2-0.9-4.1-1.9-6.1-2.9c-1.8-0.9-3.6-1.8-5.4-2.8
	c-1-0.5-1.9-1.1-2.8-1.7c-1-0.6-2-0.5-3,0c-2,0.9-4,1.8-6.1,2.5c-1.5,0.5-3,0.9-4.5,1.3c-1.7,0.4-3.5,0.9-5.2,1.2
	c-2.4,0.5-4.8,0.6-7.3,0.3c-3.7-0.4-7.2-1-10.8-2c-2.3-0.7-4.8-1-7.1-1.7c-4.9-1.4-9.8-3.2-14.6-5.1c-5.1-2.1-9.5-5.1-13.8-8.3
	c-3-2.2-6.1-4.2-9.1-6.3c-1.8-1.3-3.6-2.8-5.5-4c-3.7-2.3-3.3-1.9-5.8,0.9c-0.9,1.1-1.6,2.4-2.2,3.7c-1.8,3.8-3.8,7.6-5,11.7
	c-0.7,2.4-1.4,4.8-2,7.2c-0.5,1.8-1,3.7-1.3,5.6c-0.2,1.4-0.2,2.9-0.3,4.3c-0.1,1.4,0.7,2.3,1.6,3.1c1.8,1.6,3.7,3,6,3.8
	c0.5,0.2,1.1,0.4,1.6,0.7c1.8,1.3,3.7,1,5.4-0.1c2.1-1.3,4.3-1.9,6.8-1.5c0.5,0,0.9,0,1.4-0.1c2.3-0.4,4.5,0,6.7,0.8
	c3.3,1.2,6.5,2.7,10,3.6c2.5,0.6,4.8,1.7,7.1,2.8c4.8,2.4,9.8,4.5,14.2,7.6c1.8,1.3,3.6,2.8,5.3,4.2c3.8,3.1,7.5,6.4,11.4,9.5
	c2.4,2,5,3.7,7.5,5.6c1.7,1.3,3.3,2.5,5,3.8c0.3,0.2,0.7,0.4,1,0.6c1.4,1,2.8,2.1,4.1,3.2c1.4,1.1,2.8,2.3,4.1,3.5
	c2.4,2.3,4.8,4.6,7.1,6.9c1.1,1.1,2,2.2,3,3.3c1.8,2,3.4,4.1,4.7,6.4c0.6,1,1.3,1.9,1.9,2.9c0.7,1.2,1.3,2.5,1.8,3.7
	c0.7,1.6,1,1.6,2.7,1.5c4.3-0.3,8.6-0.7,12.8-0.6c4.9,0.2,9.7,1.5,13.9,3.9c0.6,0.3,1.2,0.7,1.6,1.3c1.5,2.1,3.2,4.1,3.6,6.8
	c0.1,0.8,0.6,1.2,1.5,1.1c1-0.1,2-0.1,2.9-0.1c0.5,0,0.9,0,1.4,0c2.3,0.3,4.6,0.7,6.9,1c1.4,0.2,2.9,0.2,4.3,0.4
	c3,0.3,6.1,0.8,9.1,1c2.4,0.2,4.9,0.1,7.3,0.5c2.2,0.3,4.3,0.9,6.4,1.5c2,0.6,3.3,2.1,4.5,3.7c1.2,1.6,1.4,1.7,3.2,1
	c1.3-0.5,2.6-1.4,3.8-2c2.8-1.4,5.6-3.1,8.7-4c1.3-0.3,2.6-0.6,3.9-0.8c1.4-0.2,2.9-0.3,4.3-0.5c3.3-0.6,6.6-0.7,9.9-0.7
	c2.4,0,4.8-0.2,7.1-0.5c3.7-0.4,6.6,0.9,8.9,3.7c0.7,0.9,1.4,1.7,2,2.6c0.5,0.8,1.1,1,1.9,0.7c1.7-0.5,3.3-1,5-1.4
	c4.5-1.1,9.1-2.2,13.7-3.3c1.5-0.4,3-1,4.5-1.4c3-0.8,6-1.7,9.1-2.3c3.2-0.7,6.5-1.1,9.8-1.6c2.3-0.3,4.6-0.5,6.9-0.6
	c1.9-0.1,3.6,0.5,5.1,1.8c1.7,1.7,3.3,3.4,4.1,5.8c0.3,0.9,0.8,1.6,1.8,1.5c2.7-0.2,5.3,0.1,7.9,0.5c1.8,0.2,3.6,0.4,5.3,0.5
	c1.2,0.1,2.4,0.2,3.6,0.3c3.3,0.3,6,2.1,9,3.2c0.4,0.2,0.8,0.5,1.3,0.6c2.3,0.5,3.7,2.3,5.1,3.9c0.6,0.7,1,1.9,1.1,2.9
	c0.4,2.2,0.7,4.5,0.9,6.7c0.1,0.9,0.5,1.5,1.3,1.8c1.7,0.6,3.4,1.2,5,1.9c3.3,1.4,6.6,2.6,9.7,4.2c1.4,0.7,2.5,2,3.6,3.2
	c0.7,0.7,1.2,1.5,2.4,1.4c0.4,0,0.9,0.2,1.3,0.4c3,1.3,5.8,2.8,8.5,4.6c2.6,1.8,5.7,2.9,8.6,4.1c3.4,1.4,6.8,2.7,10,4.4
	c2.5,1.3,5.1,2.3,7.6,3.4c4.7,2.1,9.2,4.4,13,8c2.6,2.4,5.4,4.5,8,7c1.2,1.2,2.1,2.9,2.9,4.5c1.3,2.6,2.6,5.3,3.7,8
	c0.7,1.5,1,3.3,1.8,4.7c2.1,3.6,2.8,7.6,4.3,11.4c1.4,3.3,1.3,6.9,1.1,10.5c-0.1,2.6-0.2,5.3-0.3,8c-0.1,1.4-0.4,2.8-0.6,4.1
	c-0.4,2.6-0.6,5.3-1.1,7.9c-0.5,2.8-2.1,5.1-3.6,7.4c-0.5,0.7-1.1,1.3-1.7,2c-0.1,0.1-0.2,0.3-0.3,0.4c-0.5,1-1.7,0.9-2.4,1.6
	c-0.7,0.6-0.5,1.9-1.7,2c-0.1-0.1-0.3-0.1-0.3-0.2c-0.2-1.4-1-2.1-2.4-2.5c-2.5-0.7-3.9-2.7-5-4.8c-1-1.8-1.6-3.7-2.3-5.6
	c-0.6-1.7-1.2-3.3-1.9-5.1c-1.1,0.5-1.3,1.4-1.9,2.1c-2,2.4-3.9,4.8-6,7c-0.9,0.9-2.1,1.6-3.3,2.2c-1.7,1-3.6,1-5.4,0.9
	c-1.1,0-1.6-1-2.2-1.8c-2.4-3.2-3.7-6.9-4.4-10.9c-1-6-1.7-12.1-1.7-18.2c0.1-6.7-1.1-13.2-2.3-19.7c-0.9-5.1-3-10-5.5-14.6
	c-0.9-1.7-2.6-2.4-4.4-2.9c-3.2-1-6.3-2.1-9.3-3.5c-2.4-1.1-4.9-2-7.5-2.9c-1-0.4-1.4-0.2-1.8,0.7c-0.1,0.3-0.2,0.6-0.3,0.8
	c-0.7,1.5-1.7,2-3.3,1.3c-1.9-0.7-3.7-1.6-5.6-2.4c-3.8-1.8-7.8-2.8-12.1-2.6c-0.9,0.1-1.8,0.4-2.6,0.9c-1.8,1.3-3.7,2.7-5.7,3.6
	c-2.2,1-3.2,2.8-3.6,4.9c-0.3,1.7-1,3.2-1.8,4.6c-0.4,0.7-0.8,1.3-0.9,2.1c-0.8,3.8-2.7,7.3-4.1,10.9c-0.9,2.3-1.8,4.7-2.8,6.9
	c-1.1,2.5-2.3,5-3,7.7c-1,3.6-0.7,7,0.3,10.4c0.9,2.8,2.6,5.2,4.1,7.6c0.7,1.2,1.2,2.4,1,3.8c-0.1,1.2-0.8,1.8-2,1.6
	c-0.7-0.1-1.5-0.4-2-0.9c-1.6-1.4-3.2-2.9-4.6-4.5c-2.2-2.5-4-5.2-5.1-8.4c-1.3-3.7-1.6-7.5-1.3-11.3c0.2-2.3,0.7-4.6,1.4-6.8
	c1.5-4.7,3.2-9.3,5.1-13.8c1.4-3.3,2.6-6.7,3.8-10c0.2-0.6,0.3-1.3,0.5-2L451.2,232.8L451.2,232.8z M132.6,101.2l-0.4,0.5
	c0.3,0.2,0.6,0.3,0.9,0.5c1,1,2.2,2,3,3.1c2.5,3.3,5.6,6,8.9,8.4c1.4,1,2.9,2,4.1,3.3c2.5,2.6,4.9,5.4,7.3,8.1
	c1,1.1,1.8,2.2,2.8,3.3c1.7,1.9,3.4,3.8,5.2,5.7c4.5,5.1,9,10.1,13.6,15.1c2,2.2,4.2,4.4,6.5,6.2c4,3.2,8.2,6.2,12.4,9.2
	c3,2.2,6.1,4.3,9.2,6.3c3.6,2.4,7.3,4.8,11.1,6.9c3.8,2.1,7.9,3.2,12.3,2c0.2-0.1,0.3-0.1,0.5-0.1c1.6,0.1,2.9-0.7,4-1.8
	c2.4-2.1,4.7-4.3,7.1-6.4c1-0.9,2-1.9,3-2.9c1.5-1.5,3.1-3,4.6-4.5c1.2-1.2,2.3-2.4,2.9-4.1c0.4-1.2,0.7-2.5,1.2-3.6
	c0.5-1,0.4-2,0-3c-1.5-3.7-3.7-6.9-6.1-9.8c-4.1-4.9-8-10.1-13.4-13.8c-4-4.1-8.8-7.1-13.4-10.5c-4.4-3.3-8.7-6.8-13-10.2
	c-2.8-2.2-5.6-4.5-8.4-6.8c-2.6-2.1-5.3-4.1-8.4-5.5c-1.5-0.7-2.9-1.5-4.3-2.2c-2.4-1.2-4.8-2.5-7.3-3.5c-3.5-1.4-7.1-2.5-10.7-3.7
	c-1.2-0.4-2.4-1.1-3.8-0.8c0,0.1,0,0.3,0,0.4c1.1,2.2,2.3,4.3,3.3,6.5c1.5,3.5,1.1,6.9-0.6,10.2c-0.6,1.2-1.4,2.4-2.8,3
	c-3.2,1.3-6.3,2.4-9.8,2.6c-5.3,0.4-10.1-0.9-14.5-3.7C137.1,104.1,134.9,102.6,132.6,101.2L132.6,101.2z M445.6,182.3L445.6,182.3
	l-0.1-1.2c-0.1-4.1-1.1-8-2.8-11.8c-1-2.1-2.6-3.4-5-3.5c-1.4-0.1-2.8-0.1-4.2,0.1c-3.6,0.4-7.1,1-10.7,1.4
	c-0.8,0.1-1.6,0.1-2.4,0.3c-2.9,0.7-5.8,1.6-8.7,2.4c-2.2,0.6-4.5,1.3-6.7,1.7c-5.1,0.7-10,2.5-15,3.8c-2,0.5-2.2,1.5-1.9,3.5
	c0.3,2.1,0.6,4.1,0.6,6.2c0,2.9-0.2,5.9-0.5,8.8c-0.3,3.5-0.7,7-2.1,10.4c-0.4,1.1-0.8,2.2-1.2,3.3c-1.5,5.1-3.5,9.9-6.8,14.1
	c-0.9,1.2-0.8,1.3,0.3,2.2c1.8,1.3,3.8,2.2,5.8,3c3.2,1.2,6.5,2.3,9.6,3.6c2.1,0.9,4.3,1.5,6.5,1.8c3.2,0.5,6.3,0.9,9.4,1.5
	c3.4,0.6,6.8,1.5,10.2,2.1c1.2,0.2,2.4,0.3,3.6,0.2c2.9-0.2,5.6-1.1,8.3-2.4c2.5-1.1,4-2.9,5-5.3c0.9-2.2,1.8-4.5,2.5-6.8
	c0.9-3.1,1.7-6.3,2.5-9.4c0.1-0.4,0.2-0.8,0.2-1.2c0.3-3.9,0.6-7.9,1.5-11.7c0.5-1.9,0.8-3.8,1-5.8c0.3-3.2,0.5-6.4,0.7-9.5
	C445.6,183.6,445.6,182.9,445.6,182.3L445.6,182.3z M319.7,216.7c0.5,0.4,0.6,0.6,0.8,0.7c3.3,1.1,6.6,2.3,9.9,3.2
	c2.5,0.7,5.1,1,7.6,1.6c2.4,0.5,4.7,1.2,7.1,1.7c3.2,0.7,6.4,1.5,9.7,1.8c4.9,0.5,9.7-0.7,14.4-1.8c2-0.4,3.5-1.7,5.3-2.6
	c1.3-0.7,2.4-1.5,3.1-2.7c1.1-2,2.2-4.1,3.1-6.2c1.3-3.3,2.4-6.8,3.4-10.2c0.4-1.3,0.8-2.7,1-4c0.4-3.9,0.7-7.8,1-11.8
	c0.2-2.4,0-4.9-0.6-7.2c-0.2-0.9-0.9-1.7-1-2.6c-0.5-3.7-3.2-5.6-5.9-7.5c-0.4-0.3-1.1-0.4-1.7-0.4c-3.8,0.1-7.6,0.1-11.5,0.3
	c-3.3,0.2-6.6,0.7-9.8,1c-4.2,0.5-8.3,1.8-12.1,3.7c-2.2,1.1-4.4,2.3-6.6,3.4c-0.8,0.4-1.1,1-0.9,1.8c0.5,1.5,0.2,2.9-0.2,4.3
	c-0.8,3-1.7,5.9-2.5,8.9c-0.1,0.2-0.1,0.3-0.2,0.5c-1.1,2.2-2.1,4.5-3.2,6.7c-1.1,2.3-2.3,4.7-3.5,7c-1,1.9-2,3.7-3.4,5.4
	C321.8,213.2,320.9,215,319.7,216.7L319.7,216.7z M265.9,207.1c0.6,0.6,1,1,1.4,1.4c2.4,2.3,5.1,4.3,7.9,6.3
	c2.1,1.4,4.3,2.8,6.2,4.5c3,2.8,6.3,5.3,9.7,7.6c2.5,1.6,5.2,2.4,8.1,2c3-0.4,5.9-1.2,7.9-3.7c0.2-0.2,0.4-0.3,0.6-0.3
	c1.8-0.7,3.1-2,4.2-3.5c0.2-0.3,0.5-0.6,0.8-0.8c1-0.7,1.8-1.4,2.1-2.7c0.1-0.3,0.2-0.6,0.5-0.9c2.1-1.4,3.3-3.7,4.8-5.7
	c1.5-1.9,2.9-3.9,4-6.1c3.1-5.7,6.1-11.5,8.1-17.7c0.9-2.8,1.8-5.6,1.1-8.7c-0.6-2.8-2.1-4.7-4.6-5.9c-2.2-1.1-4.6-1.4-7.1-1.6
	c-3.6-0.3-7.3-0.5-10.9-0.9c-5.2-0.6-10.3-1.4-15.5-2c-0.9-0.1-1.9-0.1-2.8,0c-1.9,0.2-2.3,0.7-2.3,2.6c0,0.9,0.2,1.9,0,2.8
	c-0.7,3.6-1.5,7.3-3.3,10.6c-0.3,0.5-0.5,1.1-0.7,1.6c-1.8,3.3-2.8,7-5.1,10.1c-1.2,1.6-2.5,3.2-3.7,4.8c-1.6,2.2-3.8,3.7-6.4,4.6
	C269.5,206,267.8,206.5,265.9,207.1L265.9,207.1z M566.7,300.9c1.2-0.6,1.6-1,2.4-2.5c1.1-2.1,2.5-4.2,1.5-6.9c-0.1-0.3,0-0.7,0-1
	c-0.1-1.4,0.1-2.9-0.2-4.3c-0.7-3.3-1.5-6.5-2.3-9.8c-1.7-6.3-3.7-12.4-6.6-18.3c-1.8-3.6-3.2-7.3-4.8-11c-1.4-3.1-2.8-6.1-4.2-9.1
	c-0.3-0.6-0.7-1.2,0.1-1.9c1.6,0.4,2.4,1.7,3,3c1.3,2.4,2.6,4.9,3.8,7.4c2.2,4.8,4.1,9.7,6.5,14.4c2.4,4.6,3.8,9.7,5.2,14.7
	c0.3,0.9,0.5,1.8,1.3,2.8c0.2-1.9,0.4-3.4,0.4-4.9c0.2-4.3-1.2-8.2-2.6-12.2c-1.3-3.5-2.7-7-4.2-10.5c-1-2.5-2.1-4.9-3.2-7.3
	c-1.4-2.9-3.1-5.7-5.6-7.9c-2.5-2.1-4.9-4.2-7.4-6.3c-1.3-1-2.6-2.1-4.1-2.9c-3.7-2-7.5-3.8-11.4-5.6c-4.1-1.9-8.4-3.7-12.5-5.6
	c-2.6-1.2-5.1-2.4-7.5-4c-2.9-2-6-3.5-9-5.3c-0.3-0.2-0.6-0.2-1.1-0.4c0,1-0.1,1.8-0.1,2.5c0,2-0.2,3.9-1,5.8c-1.7,3.5-3.3,7-5,10.5
	c-0.6,1.3-0.5,1.7,0.8,2.2c1,0.4,2.1,0.6,3.1,1c2.4,0.9,4.8,2,7.3,2.9c2.6,0.9,5.2,1.6,7.8,2.4c1.9,0.6,3.7,1.4,5.6,1.9
	c2.8,0.7,5.4,1.7,7.8,3.4c3,2.2,5.9,4.5,7.9,7.7c1.9,3,3.7,6,5.1,9.3c1.7,4,3.3,7.9,4.8,11.9c0.9,2.4,1.5,4.9,2.2,7.3
	c1.4,5.5,2.8,11,4.2,16.5c0.9,3.3,1.8,6.5,3.6,9.4c0.8,1.3,1.7,2.3,3.1,2.9c1.1,0.5,2,0.1,2-0.9c0.1-1.8,0.2-3.7,0-5.5
	c-0.3-2.8-0.8-5.5-1.5-8.2c-1-4.1-1.9-8.3-3.4-12.2c-2.2-5.6-4.1-11.2-6.2-16.8c-1.4-3.7-3-7.4-4.5-11.1c-0.5-1.1-1-2.2-1.5-3.3
	c0.9-0.6,1.5-0.3,2,0.3c0.5,0.6,0.9,1.2,1.2,1.9c1.3,2.8,2.6,5.7,3.9,8.5c0.9,2.2,2,4.3,2.6,6.6c1,3.6,2.5,7,3.9,10.4
	c0.7,1.6,1.6,3.2,2.1,4.9c0.9,3,1.8,6.1,2.5,9.2C565.5,291.5,566.4,296.1,566.7,300.9L566.7,300.9z M231.8,182.1
	c0.7,1.1,1.1,1.9,1.7,2.5c2,2,4.1,3.9,6.3,5.7c2,1.7,4,3.3,5.9,5.2c2.4,2.4,5.3,3.9,8.4,5.1c0.7,0.3,1.5,0.5,2.2,1
	c2.7,1.7,5.7,2.3,8.7,2.8c0.5,0.1,1,0.1,1.5,0c4.4-1.2,8.3-3.1,10.8-7.2c1.4-2.3,3-4.5,4-7.1c1.3-3.1,3-6,4.2-9.2
	c1.1-2.8,2.1-5.7,2-8.8c0-1,0.1-2-0.7-2.8c-0.5-0.5-0.2-1,0.1-1.4c0.6-0.7,0.6-1.5,0.3-2.3c-0.7-2.5-1.9-4.9-3.9-6.4
	c-2-1.4-4.3-2.6-6.7-3.3c-5.8-1.8-11.8-1.3-17.8-0.4c-2.1,0.3-3.5,1.2-4.1,3.6c-0.8,2.9-2.4,5.5-5.1,7.3c-0.8,0.5-1.5,1.1-2,1.9
	c-2.3,2.9-4.9,5.5-7.7,7.8C237.4,178,235.5,181,231.8,182.1z M218.6,70.1c1-0.1,2.1-0.1,3.1-0.3c2.3-0.4,4.7-0.9,7-1.4
	c1.8-0.4,3.6-1,5.3-1.6c0.9-0.3,1.7-0.7,2.5-1.2c0.9-0.5,0.9-1.2,0.1-1.8c-0.7-0.5-1.4-1-2.2-1.5c-4.6-3-8.9-6.4-13.3-9.8
	c-1.3-1-2.5-2.1-3.8-3.1c-3-2.4-6-4.9-9.1-7.2c-1.8-1.4-3.9-2.5-5.8-3.8c-2.2-1.6-4.2-3.5-6.5-5c-2.4-1.5-4.9-2.8-7.5-4.1
	c-4.9-2.4-10.1-2.8-15.4-1.5c-4.4,1-8.6,2.9-12.4,5.4c-2.5,1.6-4.7,3.6-6.6,5.9c-0.9,1.1-0.9,1.5,0.2,2.5c0.3,0.3,0.7,0.6,1.1,0.8
	c0.9,0.6,1.9,1.1,2.8,1.7c0.7,0.5,1.4,1,2.2,1.4c2.7,1.8,5.6,3.3,8,5.5c0.6,0.6,1.4,1,2.1,1.5c1.7,1.1,3.3,2.3,5.1,3.4
	c2.1,1.3,4.2,2.6,6.4,3.8c1.2,0.6,2.4,1.2,3.6,1.7c1.4,0.6,2.9,0.9,4.2,1.5c3.1,1.5,6.5,2.2,9.7,3.2c2.3,0.7,4.6,1.1,6.9,1.7
	C210.3,68.9,214.4,69.8,218.6,70.1L218.6,70.1z M479.6,193.1c-0.2-2.2-0.5-4.5-0.5-6.7c-0.1-2.4-1.3-4-3-5.4
	c-1.8-1.5-3.9-2.4-6.1-3.3c-3.6-1.5-7.4-1.7-11.2-2.4c-1-0.2-2-0.4-3-0.8c-0.8-0.3-1.5-0.5-2.4-0.3c-1.1,0.2-2.2,0.2-3.3,0.1
	c-2.1-0.1-2.6,0.5-2.4,2.5c0.2,2.1,0.6,4.1,0.6,6.2c0,2.8-0.3,5.7-0.5,8.5c0,0.6-0.1,1.2-0.1,1.7c-0.8,5-1.7,9.9-2.5,14.9
	c-0.2,1.1-0.2,2.3-0.4,3.4c-0.7,3.9-1.6,7.8-2.9,11.6c-0.5,1.5-0.3,2,1.1,2.6c2.2,1,4.5,1.9,6.8,2.6c2.2,0.7,4.6,1.3,6.9,1.9
	c1.6,0.4,3.2,0.4,4.8,0c2.4-0.6,4.3-1.9,6.3-3.1c4-2.5,6.5-6.1,7.6-10.6c0.7-2.8,1-5.6,1.5-8.4c0.3-1.7,0.5-3.4,1-5.1
	C478.8,199.8,479.3,196.5,479.6,193.1L479.6,193.1z M521.1,236.5l-0.2,0.3c0.2,0.4,0.3,0.9,0.6,1.2c1.9,2.8,2.8,5.9,4,9
	c1.5,3.9,1.7,8.2,2.8,12.2c0.4,1.4,0.6,2.8,0.7,4.3c0.1,1.8,0.1,3.6,0.2,5.4c0.1,2.6-0.1,5.2,0.2,7.8c0.3,3.5,0.8,6.9,1.3,10.3
	c0.3,2.1,0.7,4.1,1.2,6.1c0.1,0.3,0.4,0.6,0.9,1.2c0.2-1,0.3-1.5,0.3-2.1c0.3-2.3,0.6-4.6,0.8-6.9c0.2-1.6,0.4-3.2,0.4-4.8
	c0-6.6-0.2-13.2-0.9-19.8c-0.2-1.5-0.4-3.1-0.6-4.6c-0.1-0.9-0.3-1.8,0.5-2.6c1.3,0.7,2.4,2.4,2.7,4.2c1.1,7.2,1.6,14.5,1.2,21.8
	c-0.4,6.1-0.6,12.3-2.6,18.2c-0.3,1,0.2,1.8,1.3,1.7c1.2-0.1,2.5-0.3,3.5-0.8c1.1-0.6,2.4-1.2,2.6-2.6c0.4-2.4,0.9-4.8,0.9-7.2
	c-0.1-3.4-0.7-6.8-1-10.2c-0.2-1.6-0.2-3.1-0.3-4.7c0-0.7-0.2-1.7,0.7-1.9c0.9-0.2,1.2,0.8,1.7,1.3c0.2,0.2,0.3,0.5,0.3,0.8
	c0.5,4.3,1,8.6,1.5,12.9c0.1,1.1,0,2.3,0.1,3.5c0,0.4,0.2,0.8,0.4,1.6c0.5-0.6,0.9-0.8,1.1-1.2c0.7-1,1.2-2.1,2-3.1
	c1-1.4,1.3-2.8,0.9-4.4c-0.1-0.6-0.2-1.1-0.4-1.7c-1.8-6-3.5-12-5.5-18c-1.2-3.6-2.7-7-4.2-10.5c-0.8-1.8-2-3.5-3-5.3
	c-3-5.5-7.6-9-13.5-10.7C522.8,237,521.9,236.7,521.1,236.5L521.1,236.5z M501.3,209.2c-0.3-2.9-1-5.6-3.8-7.2
	c-1.1-0.7-2.2-1.6-3.4-2.2c-2.4-1.1-4.5-2.9-7.3-3.2c-0.6-0.1-1.1-0.5-1.7-0.7c-0.7-0.3-1.4-0.6-2.1-0.8c-0.7-0.2-1.1,0.1-1.2,0.9
	c-0.1,1-0.2,2-0.3,2.9c-0.1,1-0.3,2-0.6,3c-0.5,1.7-0.9,3.3-1,5.1c-0.2,2.8-0.8,5.5-1.3,8.2c-0.4,2.2-1.3,4.2-2.2,6.2
	c-0.6,1.3-0.3,1.8,1.1,2c1.1,0.1,2.2,0.1,3.3,0.3c1.3,0.2,2.6,0.7,3.9,0.9c1.9,0.3,3.6,1,5.2,1.9c0.8,0.4,1.7,0.8,2.5,1.2
	c0.6,0.3,1.1,0.1,1.4-0.5c0.7-1.3,1.5-2.6,2.2-3.9c1.3-2.6,2.6-5.3,3.8-8C500.5,213.2,501.4,211.3,501.3,209.2L501.3,209.2z
	 M134.4,74.7l0.5-0.1c0.2-0.6,0.4-1.2,0.5-1.8c0.6-2.8,1.2-5.5,1.9-8.3c0.5-2,1.4-3.8,1.7-5.8c0.7-3.4,2.4-6.3,3.9-9.2
	c1.2-2.5,2.9-4.9,4.4-7.3c0.7-1.2,0.6-1.6-0.6-2.3c-2.3-1.4-4.9-2-7.5-2.5c-3.4-0.5-6.3,0.6-9.1,2.1c-0.9,0.5-1.7,1.4-2.2,2.3
	c-4.3,8-3.7,15.9,0.8,23.7c0.3,0.5,0.5,0.9,0.7,1.4c0.6,1.1,1.3,2.2,1.9,3.3c0.3,0.5,0.7,1,1.1,1.6L134.4,74.7L134.4,74.7z
	 M312.3,225.3c-0.9,0.9-1.5,1.6-2.3,2.2c-0.8,0.5-1,1.1-1,2c0.1,2.5,0,5.1,0.3,7.6c0.3,2.9,0.9,5.7,1.4,8.6
	c0.7,3.4,1.5,6.8,2.1,10.2c0.6,3.6,1,7.2,1.6,10.8c0.6,3.4,1.3,6.8,1.8,10.3c0.4,2.9,1.5,5.6,2.8,8.2c0.5,0.9,1.2,1.8,2.1,2.3
	c1.9,1.1,4,1.8,6.3,1.7c2.1-0.1,4.2,0,6.3,0c1.2,0,2.4-0.5,3.2-1.4c0.9-1.1,0.7-1.7-0.6-2.2c-0.7-0.2-1.5-0.3-2.2-0.5
	c-1.1-0.3-2.3-0.5-3.4-0.9c-3.1-1-5.4-3-6.6-6c-1.2-3.1-2.4-6.3-3.3-9.5c-1.3-5-2.5-10-3.6-15c-0.8-3.4-1.4-6.8-2.1-10.2
	c-0.3-1.8-0.6-3.7-0.9-5.5c-0.6-3.8-1.1-7.6-1.7-11.3C312.8,226.2,312.6,225.9,312.3,225.3L312.3,225.3z M292.7,292
	c-0.1-0.7-0.1-1-0.2-1.2c-1-1.5-2.1-2.9-3.2-4.3c-1-1.3-2.1-2.5-3.2-3.6c-2.2-2.3-3-5.1-2.9-8.1c0-4.2-0.2-8.3,0.4-12.5
	c0.6-3.9,1-7.8,1.5-11.7c0.1-1.1,0.4-2.2,0.6-3.3c0.4-2.2,0.7-4.5,1.1-6.7c0.7-3.2,1.5-6.3,2.2-9.5c0.5-2.4-0.1-2.5-1.4-3.5
	c-0.5-0.3-0.9-0.7-1.4-1c-0.6-0.4-1.2-1.1-2-1.3c-0.1,0.9,0,1.7-0.2,2.5c-0.6,3.1-1.3,6.2-2,9.3c-1,4.2-1.8,8.5-2.3,12.8
	c-0.3,3.2-0.7,6.5-1,9.7c-0.2,2.4-0.6,4.7-0.6,7.1c0,3.5,0.5,6.9,1.1,10.4c0.3,2,1.2,3.8,2.6,5.2c1.7,1.7,3.4,3.5,5.2,5.1
	C288.7,289,290.6,290.3,292.7,292L292.7,292z M417.1,308.2c0.4-1.2-0.2-2-0.7-2.7c-1.7-2.3-3.4-4.6-5.1-6.8c-2.3-3-4.2-6.3-4.7-10.1
	c-0.3-1.8-0.3-3.7-0.3-5.5c0.2-3.3,0.7-6.7,0.9-10c0.2-3.4,0.2-6.8,0.3-10.2c0-0.2,0-0.5,0.1-0.7c0.2-3.3,0.5-6.7,0.7-10
	c0.3-4.3,0.5-8.6,0.8-12.9c0.1-1.8,0-2.2-1.8-2.7c-1.7-0.4-2.1-0.2-2.3,1.5c-0.3,2.9-0.5,5.8-0.6,8.7c-0.1,1.5-0.2,3-0.2,4.5
	c-0.1,2.7-0.1,5.3-0.3,8c-0.1,2.2-0.5,4.4-0.7,6.6c-0.3,4.4-0.6,8.8-0.8,13.2c-0.1,3.1,0,6.1,0.2,9.2c0.1,1,0.5,2,0.7,3
	c0.7,2.6,2.2,4.9,3.6,7.1c1.2,1.8,2.7,3.4,4.3,5c1.4,1.4,3,2.7,4.6,4C416,307.5,416.5,307.8,417.1,308.2L417.1,308.2z M372,285.5
	l0.2-0.6c-0.6-0.5-1.2-1.1-1.8-1.5c-3.9-2.3-5.6-6.1-6.8-10.1c-0.9-3-1.4-6.2-2.1-9.3c-1-4-2-8-3-12c-0.6-2.3-1-4.6-1.5-6.9
	c-0.2-1-0.3-2-0.5-2.9c-0.7-3.5-1.4-6.9-1.5-10.5c-0.1-3.5-0.8-3.3-3.2-3.5c-0.3,0-0.6-0.1-0.9-0.1c-1,0-1.3,0.2-1.3,1.2
	c0,1,0.1,2.1,0.2,3.1c0.3,2.2,0.7,4.3,1.1,6.5c0.6,3.4,1.1,6.8,1.8,10.2c0.9,4.5,1.9,9.1,2.9,13.6c0.5,2.2,0.9,4.4,1.6,6.6
	c0.9,2.8,2,5.6,3,8.3c0.6,1.5,1.4,2.8,2.8,3.7c2.3,1.5,4.6,3,7.3,3.9C370.9,285.5,371.4,285.5,372,285.5L372,285.5z M216.7,245.4
	c1.4-0.4,1.7-1.4,1.7-2.5c0.2-2.8,0.5-5.6,0.9-8.4c0.3-2.4,0.9-4.8,1.3-7.2c0.3-1.9,1.3-3.4,2.5-4.8c1.2-1.3,2.7-2.1,4.2-3
	c2.5-1.5,4.8-3.2,7.3-4.6c2.9-1.6,5.8-3.1,8.4-5.2c2.5-2,5.3-3.8,7.9-5.7c0.3-0.2,0.6-0.6,1.1-1c-0.5-0.4-0.8-0.8-1.2-0.9
	c-1-0.3-2-0.5-3,0.1c-3.3,1.8-6.7,3.6-10.1,5.4c-1.1,0.6-2.3,1.1-3.4,1.8c-1.8,1.1-3.6,2.4-5.5,3.4c-3.4,1.7-6.2,4.2-9,6.8
	c-2.1,1.9-3.4,4.4-3.9,7.2c-1,5.5-0.7,11.1-0.1,16.6C216.1,244,216.4,244.7,216.7,245.4L216.7,245.4z M151.3,96.4
	c-0.1,2.3,0.9,4.2,2.3,5.8c1.2,1.3,2.8,2.4,4.6,2.5c3.4,0.2,7.4-1.7,7.2-6.3c0-0.9-0.1-1.9-0.5-2.7c-0.7-2-1.5-3.9-2.5-5.7
	c-0.7-1.5-1.9-2.6-3.4-3.3c-1.4-0.7-2.8-0.3-4.2-0.5c-0.6-0.1-1,0.4-1,1.1c0,1-0.5,1.6-1.4,2c-0.4,0.2-0.8,0.8-1,1.3
	c-0.2,0.7-0.3,1.4-0.3,2.1C151.2,93.8,151.3,95.1,151.3,96.4L151.3,96.4z M393.3,295.1l0.3-0.2c-0.1-0.4-0.2-0.8-0.4-1.2
	c-1.2-1.9-2.4-3.8-3.6-5.7c-1.9-3.1-3.3-6.4-3.8-10c-1.1-6.8-0.5-13.6,0.5-20.4c0.6-3.8,1.3-7.5,1.9-11.3c0.2-1.3,0.5-2.5,0.7-3.7
	c0.5-2.5,0.9-4.9,1.3-7.3c0.2-1.3-0.4-2.6-1.6-3.2c-1.4-0.7-2-0.5-2.3,1.1c-0.3,1.4-0.6,2.8-0.9,4.2c-0.2,0.8-0.4,1.6-0.5,2.4
	c-0.5,3.7-0.9,7.3-1.4,11c-0.6,4.3-1.3,8.6-1.9,12.9c-0.1,0.8-0.1,1.6,0,2.4c0.3,2.8,0.6,5.5,0.9,8.3c0.3,2.7,1,5.2,2.1,7.7
	c0.7,1.4,1.4,2.8,2,4.2c1.3,3.2,3.4,5.8,5.7,8.3C392.6,294.8,393,294.9,393.3,295.1L393.3,295.1z M449,282.8l0.2-0.1
	c-0.1-0.3-0.2-0.6-0.3-0.9c-0.4-0.8-0.9-1.6-1.2-2.5c-0.9-2.2-1.2-4.6-1.4-7c-0.2-2-0.2-4,0.6-6c0.9-2.1,1.5-4.2,2.4-6.3
	c2.3-5.2,4.6-10.4,6.9-15.6c0.7-1.5,1.2-3.1,2-4.6c0.8-1.8,1.8-3.5,2.7-5.3c0.5-1.1,0.2-1.5-1-1.5c-1.4,0.1-2.9,0.2-4.3,0.3
	c-0.7,0.1-1,0.5-1.3,1.2c-1.5,3.4-2.4,7.1-4,10.6c-1.4,2.9-2.3,6-3.4,9.1c-0.9,2.7-2,5.4-2.6,8.2c-0.7,2.8-0.8,5.8-0.3,8.6
	c0.7,3.9,2.1,7.6,4.3,10.9C448.4,282.3,448.7,282.6,449,282.8L449,282.8z M261,222.7l-0.1-0.1c-0.3,0.2-0.7,0.4-0.9,0.7
	c-1.2,2-2.5,3.9-3.6,5.9c-1.4,2.6-2.6,5.3-3.9,8c-2.1,4.5-4.2,8.9-4.6,13.9c-0.2,2.6-0.2,5.1,0.8,7.5c0.3,0.9,0.6,1.8,0.8,2.7
	c0.9,3.8,2.2,7.5,3.8,11.1c0.4,0.9,1.1,1.3,1.8,1c0.8-0.3,1.3-0.9,1.1-1.7c-0.4-2.4-0.6-4.9-1.3-7.2c-1.2-3.7-2.6-7.4-2.8-11.4
	c-0.1-3.9-0.1-7.8,1.1-11.5c0.3-0.8,0.5-1.6,0.8-2.5c0.6-1.8,1.1-3.7,1.9-5.4c1.1-2.6,2.5-5.2,3.7-7.8
	C260,224.7,260.5,223.7,261,222.7L261,222.7z M422.3,283c1.5-1,1.3-2.3,1.4-3.5c0.2-2.9,0.2-5.9,0.4-8.8c0.2-3.7,2.2-6.6,4.3-9.5
	c0.3-0.4,0.6-0.7,0.9-1c1.9-2.5,3.8-5.1,5.7-7.7c0.9-1.2,1.9-2.4,2.7-3.6c1.7-2.7,2.4-5.9,4.7-8.3c0.2-0.2,0.2-0.4,0.3-0.6
	c1.2-2.1,2.4-4.1,3.6-6.1c0.4-0.8,0.8-1.6,1.3-2.3c-0.9-0.7-1.5-0.5-2,0.1c-0.4,0.6-0.7,1.2-1.1,1.8c-0.8,1.5-1.5,3-2.5,4.4
	c-2.4,3.6-4.9,7-7.3,10.6c-1.7,2.4-3.3,4.9-5,7.3c-1.7,2.4-3.3,4.9-5,7.3c-1.4,2-3,3.8-3.9,6.1c-0.5,1.3-0.8,2.5-0.6,3.9
	c0.5,2.9,1.1,5.8,1.6,8.7C421.8,282.1,422.1,282.5,422.3,283L422.3,283z M154.9,106.9l0.2-0.5c-0.5-0.3-1-0.7-1.5-1
	c-2.7-1.4-4.2-3.9-4.7-6.7c-0.5-2.6-0.6-5.4,0.1-8.1c0.3-1.4,0.1-1.8-1.3-2.3c-2.8-1-5.6-1.9-8.1-3.6c-0.4-0.3-0.9-0.5-1.4,0
	c0.2,3.2,1.4,6.1,3.1,8.7c2.1,3.4,4.4,6.8,6.6,10.2c0.6,0.9,1.3,1.8,2.1,2.5c0.3,0.3,0.8,0.7,1.3,0.7
	C152.4,107,153.6,106.9,154.9,106.9L154.9,106.9z M263.4,217.7c-0.1,0.1-0.2,0.2-0.3,0.4c0,0.1,0.1,0.2,0.1,0.3
	c0.1-0.1,0.2-0.2,0.3-0.3C263.6,218,263.5,217.9,263.4,217.7L263.4,217.7z"/>
<path fill="none" stroke="#FFC107" stroke-miterlimit="10" d="M132.6,101.2c2.3,1.5,4.6,2.9,6.9,4.4c4.4,2.8,9.2,4.1,14.5,3.7
	c3.5-0.3,6.7-1.3,9.8-2.6c1.4-0.6,2.2-1.8,2.8-3c1.7-3.3,2.1-6.7,0.6-10.2c-1-2.2-2.2-4.3-3.3-6.5c0-0.1,0-0.3,0-0.4
	c1.4-0.2,2.6,0.4,3.8,0.8c3.6,1.2,7.2,2.3,10.7,3.7c2.5,1,4.9,2.3,7.3,3.5c1.4,0.7,2.9,1.6,4.3,2.2c3,1.5,5.8,3.4,8.4,5.5
	c2.8,2.2,5.6,4.5,8.4,6.8c4.3,3.4,8.6,6.9,13,10.2c4.5,3.4,9.4,6.4,13.4,10.5c5.4,3.7,9.4,8.8,13.4,13.8c2.5,3,4.7,6.2,6.1,9.8
	c0.4,1,0.5,2,0,3c-0.5,1.2-0.7,2.4-1.2,3.6c-0.6,1.6-1.7,2.9-2.9,4.1c-1.6,1.5-3.1,3-4.6,4.5c-1,1-2,2-3,2.9
	c-2.4,2.2-4.7,4.3-7.1,6.4c-1.1,1-2.4,1.8-4,1.8c-0.2,0-0.3,0-0.5,0.1c-4.4,1.2-8.5,0.2-12.3-2c-3.8-2.1-7.4-4.5-11.1-6.9
	c-3.1-2-6.1-4.1-9.2-6.3c-4.2-3-8.4-6-12.4-9.2c-2.4-1.9-4.5-4-6.5-6.2c-4.6-5-9.1-10.1-13.6-15.1c-1.7-1.9-3.4-3.7-5.1-5.6
	c-1-1.1-1.8-2.2-2.8-3.3c-2.4-2.7-4.8-5.5-7.3-8.1c-1.2-1.2-2.7-2.2-4.1-3.3c-3.3-2.4-6.4-5.1-8.9-8.4c-0.9-1.1-2-2.1-3-3.1
	c-0.2-0.2-0.6-0.4-0.9-0.5L132.6,101.2L132.6,101.2z M445.6,182.3c0,0.6,0,1.3,0,1.9c-0.2,3.2-0.4,6.4-0.7,9.5c-0.2,2-0.6,3.9-1,5.8
	c-1,3.8-1.2,7.8-1.5,11.7c0,0.4-0.1,0.8-0.2,1.2c-0.8,3.1-1.6,6.3-2.5,9.4c-0.7,2.3-1.5,4.6-2.5,6.8c-1,2.4-2.6,4.1-5,5.3
	c-2.7,1.3-5.3,2.2-8.3,2.4c-1.2,0.1-2.4,0-3.6-0.2c-3.4-0.7-6.8-1.5-10.2-2.1c-3.1-0.6-6.3-1-9.4-1.5c-2.2-0.3-4.4-0.9-6.5-1.8
	c-3.1-1.4-6.4-2.4-9.6-3.6c-2.1-0.8-4.1-1.7-5.8-3c-1.2-0.9-1.3-1-0.3-2.2c3.3-4.2,5.3-9.1,6.8-14.1c0.3-1.1,0.7-2.2,1.2-3.3
	c1.4-3.3,1.7-6.8,2.1-10.4c0.3-2.9,0.5-5.9,0.5-8.8c0-2.1-0.3-4.2-0.6-6.2c-0.3-2-0.1-2.9,1.9-3.5c5-1.3,9.8-3.1,15-3.8
	c2.3-0.3,4.5-1.1,6.7-1.7c2.9-0.8,5.8-1.6,8.7-2.4c0.8-0.2,1.6-0.2,2.4-0.3c3.6-0.5,7.1-1,10.7-1.4c1.4-0.2,2.8-0.2,4.2-0.1
	c2.3,0.2,4,1.4,5,3.5c1.7,3.7,2.7,7.6,2.8,11.7L445.6,182.3L445.6,182.3L445.6,182.3z"/>
<path fill="none" stroke="#FFC107" stroke-miterlimit="10" d="M319.7,216.8c1.2-1.7,2.2-3.5,3.5-5c1.4-1.6,2.4-3.5,3.4-5.4
	c1.2-2.3,2.4-4.6,3.5-7c1.1-2.2,2.1-4.5,3.2-6.7c0.1-0.2,0.1-0.3,0.2-0.5c0.8-2.9,1.7-5.9,2.5-8.9c0.4-1.4,0.6-2.8,0.2-4.3
	c-0.3-0.9,0.1-1.4,0.9-1.8c2.2-1.1,4.4-2.3,6.6-3.4c3.8-2,7.8-3.3,12.1-3.7c3.3-0.4,6.5-0.8,9.8-1c3.8-0.2,7.6-0.3,11.5-0.3
	c0.6,0,1.2,0.1,1.7,0.4c2.7,1.9,5.4,3.8,5.9,7.5c0.1,0.9,0.7,1.7,1,2.6c0.7,2.4,0.8,4.8,0.6,7.2c-0.3,3.9-0.6,7.9-1,11.8
	c-0.1,1.4-0.6,2.7-1,4c-1.1,3.4-2.2,6.8-3.4,10.2c-0.8,2.1-2,4.2-3.1,6.2c-0.7,1.3-1.8,2-3.1,2.7c-1.7,0.9-3.3,2.1-5.3,2.6
	c-4.8,1.1-9.5,2.3-14.4,1.8c-3.3-0.3-6.5-1.1-9.7-1.8c-2.4-0.5-4.7-1.2-7.1-1.7c-2.5-0.6-5.2-0.9-7.6-1.6c-3.3-0.9-6.6-2.1-9.9-3.2
	C320.3,217.4,320.2,217.1,319.7,216.8L319.7,216.8z"/>
<path fill="none" stroke="#FFC107" stroke-miterlimit="10" d="M265.9,207.1c1.9-0.6,3.5-1.1,5.1-1.7c2.5-1,4.7-2.4,6.4-4.6
	c1.2-1.6,2.5-3.2,3.7-4.8c2.3-3.1,3.3-6.8,5.1-10.1c0.3-0.5,0.5-1.1,0.7-1.6c1.8-3.3,2.6-6.9,3.3-10.6c0.2-0.9,0-1.8,0-2.8
	c0-1.9,0.4-2.4,2.3-2.6c0.9-0.1,1.9-0.1,2.8,0c5.2,0.6,10.3,1.4,15.5,2c3.6,0.4,7.3,0.7,10.9,0.9c2.5,0.2,4.8,0.5,7.1,1.6
	c2.5,1.2,4,3.1,4.6,5.9c0.7,3.1-0.2,5.8-1.1,8.7c-2,6.2-5,12-8.1,17.7c-1.1,2.1-2.5,4.1-4,6.1c-1.5,2-2.7,4.2-4.8,5.7
	c-0.3,0.2-0.5,0.5-0.5,0.9c-0.2,1.3-1.1,2-2.1,2.7c-0.3,0.2-0.6,0.5-0.8,0.8c-1.1,1.5-2.4,2.8-4.2,3.5c-0.2,0.1-0.4,0.2-0.6,0.3
	c-2,2.5-4.9,3.4-7.9,3.7c-2.9,0.3-5.6-0.4-8.1-2c-3.4-2.2-6.7-4.8-9.7-7.6c-1.9-1.7-4.1-3-6.2-4.5c-2.8-1.9-5.5-3.9-7.9-6.3
	C266.9,208.1,266.5,207.7,265.9,207.1L265.9,207.1z M566.7,300.9c-0.3-4.8-1.2-9.3-2.2-13.8c-0.7-3.1-1.5-6.2-2.5-9.2
	c-0.5-1.7-1.4-3.3-2.1-4.9c-1.5-3.4-2.9-6.8-3.9-10.4c-0.6-2.3-1.7-4.4-2.6-6.6c-1.2-2.9-2.5-5.7-3.9-8.5c-0.3-0.7-0.7-1.3-1.2-1.9
	c-0.5-0.6-1.1-0.8-2-0.3c0.5,1.1,1,2.2,1.5,3.3c1.5,3.7,3.1,7.4,4.5,11.1c2.1,5.6,4,11.2,6.2,16.8c1.5,3.9,2.4,8.1,3.4,12.2
	c0.7,2.7,1.2,5.4,1.5,8.2c0.2,1.8,0.1,3.7,0,5.5c0,0.9-0.9,1.3-2,0.9c-1.4-0.6-2.4-1.6-3.1-2.9c-1.7-2.9-2.7-6.1-3.6-9.4
	c-1.4-5.5-2.8-11-4.2-16.5c-0.6-2.5-1.3-4.9-2.2-7.3c-1.5-4-3.2-8-4.8-11.9c-1.4-3.3-3.2-6.3-5.1-9.3c-2-3.2-4.9-5.6-7.9-7.7
	c-2.3-1.7-5-2.6-7.8-3.4c-1.9-0.5-3.7-1.3-5.6-1.9c-2.6-0.8-5.2-1.5-7.8-2.4c-2.5-0.9-4.8-1.9-7.3-2.9c-1-0.4-2.1-0.7-3.1-1
	c-1.3-0.5-1.4-0.9-0.8-2.2c1.7-3.5,3.3-7,5-10.5c0.9-1.8,1.1-3.8,1-5.8c0-0.8,0-1.6,0.1-2.5c0.5,0.2,0.9,0.3,1.1,0.4
	c3,1.7,6.1,3.3,9,5.3c2.4,1.6,4.9,2.8,7.5,4c4.2,1.9,8.4,3.7,12.5,5.6c3.8,1.8,7.6,3.7,11.4,5.6c1.5,0.8,2.8,1.8,4.1,2.9
	c2.5,2.1,4.9,4.2,7.4,6.3c2.6,2.1,4.2,4.9,5.6,7.9c1.2,2.4,2.2,4.8,3.2,7.3c1.4,3.5,2.9,6.9,4.2,10.5c1.4,3.9,2.7,7.9,2.6,12.2
	c-0.1,1.6-0.3,3.1-0.4,4.9c-0.7-1-1-1.9-1.3-2.8c-1.4-5-2.9-10.1-5.2-14.7c-2.4-4.7-4.2-9.6-6.5-14.4c-1.2-2.5-2.5-5-3.8-7.4
	c-0.7-1.2-1.4-2.5-3-3c-0.7,0.6-0.3,1.3-0.1,1.9c1.4,3,2.9,6.1,4.2,9.1c1.6,3.6,3,7.4,4.8,11c2.9,5.9,4.9,12,6.6,18.3
	c0.9,3.2,1.7,6.5,2.3,9.8c0.3,1.4,0.2,2.9,0.2,4.3c0,0.3-0.1,0.7,0,1c1,2.6-0.4,4.7-1.5,6.9C568.3,299.9,567.9,300.2,566.7,300.9
	L566.7,300.9z"/>
<path fill="none" stroke="#FFC107" stroke-miterlimit="10" d="M231.8,182.1c3.8-1.1,5.6-4.1,8.2-6.2c2.8-2.3,5.4-4.9,7.7-7.8
	c0.6-0.7,1.3-1.4,2-1.9c2.7-1.7,4.3-4.3,5.1-7.3c0.6-2.3,2.1-3.3,4.1-3.6c5.9-0.9,11.9-1.4,17.8,0.4c2.4,0.7,4.6,1.8,6.7,3.3
	c2.1,1.5,3.2,3.9,3.9,6.4c0.2,0.8,0.2,1.6-0.3,2.3c-0.4,0.4-0.6,0.9-0.1,1.4c0.8,0.8,0.7,1.8,0.7,2.8c0.1,3.1-0.9,6-2,8.8
	c-1.2,3.1-2.9,6.1-4.2,9.2c-1,2.6-2.6,4.8-4,7.1c-2.5,4.1-6.4,6-10.8,7.2c-0.5,0.1-1,0.1-1.5,0c-3-0.5-6-1.1-8.7-2.8
	c-0.7-0.4-1.5-0.7-2.2-1c-3.1-1.2-6-2.7-8.4-5.1c-1.8-1.8-3.9-3.4-5.9-5.2c-2.1-1.9-4.2-3.8-6.3-5.7
	C232.9,184,232.5,183.1,231.8,182.1z M218.6,70.1c-4.2-0.3-8.3-1.1-12.3-2.2c-2.3-0.6-4.6-1-6.9-1.7c-3.3-1-6.6-1.7-9.7-3.2
	c-1.4-0.6-2.8-1-4.2-1.5c-1.2-0.5-2.4-1-3.6-1.7c-2.2-1.2-4.3-2.5-6.4-3.8c-1.7-1.1-3.4-2.2-5.1-3.4c-0.7-0.5-1.5-0.9-2.1-1.5
	c-2.4-2.2-5.3-3.7-8-5.5c-0.7-0.5-1.4-1-2.2-1.4c-0.9-0.6-1.9-1.1-2.8-1.7c-0.4-0.2-0.8-0.5-1.1-0.8c-1-0.9-1.1-1.4-0.2-2.5
	c1.9-2.3,4.1-4.2,6.6-5.9c3.8-2.5,8-4.3,12.4-5.4c5.3-1.3,10.5-0.9,15.4,1.5c2.5,1.2,5.1,2.5,7.5,4.1c2.3,1.5,4.3,3.4,6.5,5
	c1.9,1.4,3.9,2.5,5.8,3.8c3.1,2.3,6.1,4.8,9.1,7.2c1.3,1,2.5,2.1,3.8,3.1c4.4,3.3,8.7,6.8,13.3,9.8c0.7,0.5,1.4,0.9,2.2,1.5
	c0.8,0.6,0.8,1.3-0.1,1.8c-0.8,0.5-1.6,0.9-2.5,1.2c-1.7,0.6-3.5,1.1-5.3,1.6c-2.3,0.6-4.6,1-7,1.4C220.7,70,219.6,70,218.6,70.1
	L218.6,70.1z M479.6,193.1c-0.2,3.4-0.8,6.7-1.6,10c-0.4,1.7-0.7,3.4-1,5.1c-0.5,2.8-0.8,5.6-1.5,8.4c-1.1,4.5-3.6,8-7.6,10.6
	c-2,1.3-4,2.5-6.3,3.1c-1.6,0.4-3.2,0.4-4.8,0c-2.3-0.6-4.6-1.2-6.9-1.9c-2.3-0.8-4.6-1.7-6.8-2.6c-1.4-0.6-1.6-1.1-1.1-2.6
	c1.3-3.8,2.2-7.7,2.9-11.6c0.2-1.1,0.2-2.3,0.4-3.4c0.8-5,1.7-9.9,2.5-14.9c0.1-0.6,0.1-1.2,0.1-1.7c0.2-2.8,0.5-5.7,0.5-8.5
	c0-2.1-0.3-4.1-0.6-6.2s0.3-2.6,2.4-2.5c1.1,0.1,2.2,0,3.3-0.1c0.9-0.2,1.6,0,2.4,0.3c1,0.4,2,0.6,3,0.8c3.8,0.7,7.6,0.9,11.2,2.4
	c2.1,0.9,4.2,1.9,6.1,3.3c1.7,1.4,2.9,3.1,3,5.4C479.1,188.6,479.4,190.9,479.6,193.1L479.6,193.1z M521.1,236.5
	c0.9,0.2,1.7,0.5,2.6,0.7c5.9,1.8,10.5,5.3,13.5,10.7c1,1.8,2.2,3.4,3,5.3c1.5,3.4,3,6.9,4.2,10.5c2,5.9,3.7,12,5.5,18
	c0.2,0.6,0.2,1.1,0.4,1.7c0.4,1.6,0.2,3.1-0.9,4.4c-0.7,1-1.3,2.1-2,3.1c-0.2,0.3-0.6,0.6-1.1,1.2c-0.2-0.7-0.3-1.2-0.4-1.6
	c-0.1-1.2,0-2.3-0.1-3.5c-0.5-4.3-1-8.6-1.5-12.9c0-0.3-0.1-0.6-0.3-0.8c-0.5-0.5-0.8-1.5-1.7-1.3c-0.9,0.2-0.7,1.2-0.7,1.9
	c0,1.6,0.1,3.1,0.3,4.7c0.3,3.4,0.9,6.8,1,10.2c0.1,2.4-0.5,4.8-0.9,7.2c-0.2,1.4-1.6,2-2.6,2.6c-1,0.5-2.3,0.7-3.5,0.8
	c-1.1,0.1-1.7-0.7-1.3-1.7c2-5.9,2.3-12.1,2.6-18.2c0.4-7.3-0.1-14.6-1.2-21.8c-0.3-1.8-1.4-3.5-2.7-4.2c-0.8,0.7-0.6,1.7-0.5,2.6
	c0.2,1.6,0.5,3.1,0.6,4.6c0.7,6.6,0.9,13.2,0.9,19.8c0,1.6-0.3,3.2-0.4,4.8c-0.3,2.3-0.5,4.6-0.8,6.9c-0.1,0.6-0.2,1.1-0.3,2.1
	c-0.5-0.6-0.8-0.9-0.9-1.2c-0.4-2-0.9-4.1-1.2-6.1c-0.5-3.4-1-6.9-1.3-10.3c-0.2-2.6-0.1-5.2-0.2-7.8c0-1.8,0-3.6-0.2-5.4
	c-0.1-1.4-0.3-2.9-0.7-4.3c-1.1-4-1.3-8.2-2.8-12.2c-1.1-3.1-2.1-6.3-4-9c-0.3-0.4-0.4-0.8-0.6-1.2L521.1,236.5L521.1,236.5z
	 M501.3,209.1c0.1,2.2-0.8,4.1-1.6,6c-1.1,2.7-2.5,5.4-3.8,8c-0.7,1.3-1.4,2.6-2.2,3.9c-0.3,0.6-0.8,0.8-1.4,0.5
	c-0.9-0.4-1.7-0.7-2.5-1.2c-1.6-0.9-3.3-1.6-5.2-1.9c-1.3-0.2-2.6-0.7-3.9-0.9c-1.1-0.2-2.2-0.2-3.3-0.3c-1.4-0.2-1.8-0.7-1.1-2
	c1-2,1.8-4,2.2-6.2c0.5-2.7,1.1-5.5,1.3-8.2c0.2-1.8,0.6-3.4,1-5.1c0.3-1,0.5-2,0.6-3c0.2-1,0.2-2,0.3-2.9c0.1-0.7,0.5-1,1.2-0.9
	c0.7,0.2,1.4,0.5,2.1,0.8c0.6,0.2,1.1,0.7,1.7,0.7c2.8,0.3,4.9,2,7.3,3.2c1.2,0.6,2.2,1.5,3.4,2.2
	C500.3,203.6,501,206.3,501.3,209.1L501.3,209.1z M134.4,74.7l-2-2.9c-0.4-0.5-0.7-1-1.1-1.6c-0.7-1.1-1.3-2.2-1.9-3.3
	c-0.3-0.5-0.5-0.9-0.7-1.4c-4.5-7.7-5.1-15.6-0.8-23.7c0.5-0.9,1.3-1.8,2.2-2.3c2.8-1.5,5.8-2.6,9.1-2.1c2.7,0.4,5.2,1.1,7.5,2.5
	c1.3,0.8,1.4,1.1,0.6,2.3c-1.5,2.4-3.1,4.8-4.4,7.3c-1.5,3-3.2,5.9-3.9,9.2c-0.4,2-1.2,3.8-1.7,5.8c-0.7,2.8-1.3,5.5-1.9,8.3
	c-0.1,0.6-0.3,1.2-0.5,1.8L134.4,74.7L134.4,74.7z M312.3,225.3c0.2,0.6,0.4,0.9,0.5,1.3c0.6,3.8,1.1,7.6,1.7,11.3
	c0.3,1.8,0.5,3.7,0.9,5.5c0.6,3.4,1.3,6.8,2.1,10.2c1.1,5,2.2,10,3.6,15c0.9,3.2,2.1,6.4,3.3,9.5c1.2,3,3.5,5,6.6,6
	c1.1,0.3,2.2,0.6,3.4,0.9c0.7,0.2,1.5,0.3,2.2,0.5c1.3,0.5,1.5,1.1,0.6,2.2c-0.8,0.9-2,1.5-3.2,1.4c-2.1,0-4.2-0.1-6.3,0
	c-2.3,0.1-4.4-0.6-6.3-1.7c-0.9-0.5-1.6-1.4-2.1-2.3c-1.4-2.6-2.4-5.3-2.8-8.2c-0.5-3.4-1.3-6.8-1.8-10.3c-0.6-3.6-1-7.2-1.6-10.8
	c-0.6-3.4-1.5-6.8-2.1-10.2c-0.6-2.8-1.1-5.7-1.4-8.6c-0.3-2.5-0.2-5.1-0.3-7.6c0-0.9,0.2-1.5,1-2
	C310.8,227,311.4,226.2,312.3,225.3L312.3,225.3z M292.7,292c-2.1-1.7-4-3-5.7-4.5c-1.8-1.6-3.5-3.4-5.2-5.1
	c-1.4-1.4-2.4-3.2-2.6-5.2c-0.6-3.4-1.1-6.9-1.1-10.4c0-2.4,0.3-4.7,0.6-7.1c0.3-3.2,0.6-6.5,1-9.7c0.5-4.3,1.3-8.6,2.3-12.8
	c0.7-3.1,1.4-6.2,2-9.3c0.2-0.8,0.1-1.6,0.2-2.5c0.9,0.2,1.4,0.8,2,1.3c0.5,0.3,0.9,0.7,1.4,1c1.4,0.9,1.9,1.1,1.4,3.5
	c-0.6,3.2-1.5,6.3-2.2,9.5c-0.5,2.2-0.8,4.4-1.1,6.7c-0.2,1.1-0.4,2.2-0.6,3.3c-0.5,3.9-0.9,7.8-1.5,11.7c-0.6,4.2-0.3,8.3-0.4,12.5
	c0,3.1,0.7,5.9,2.9,8.1c1.1,1.2,2.2,2.4,3.2,3.6c1.1,1.4,2.2,2.9,3.2,4.3C292.6,291,292.6,291.3,292.7,292L292.7,292z M417.1,308.2
	c-0.6-0.4-1.1-0.6-1.5-1c-1.5-1.3-3.2-2.5-4.6-4c-1.5-1.6-3.1-3.2-4.3-5c-1.4-2.2-3-4.5-3.6-7.1c-0.3-1-0.7-2-0.7-3
	c-0.1-3.1-0.3-6.1-0.2-9.2c0.2-4.4,0.5-8.8,0.8-13.2c0.2-2.2,0.5-4.4,0.7-6.6c0.2-2.6,0.2-5.3,0.3-8c0.1-1.5,0.1-3,0.2-4.5
	c0.2-2.9,0.4-5.8,0.6-8.7c0.2-1.7,0.6-2,2.3-1.5c1.8,0.5,2,0.9,1.8,2.7c-0.3,4.3-0.5,8.6-0.8,12.9c-0.2,3.3-0.5,6.7-0.7,10
	c0,0.2-0.1,0.5-0.1,0.7c-0.1,3.4-0.1,6.8-0.3,10.2c-0.2,3.3-0.7,6.7-0.9,10c-0.1,1.8,0,3.7,0.3,5.5c0.5,3.8,2.4,7.1,4.7,10.1
	c1.7,2.2,3.4,4.5,5.1,6.8C416.9,306.2,417.5,307,417.1,308.2L417.1,308.2z M372,285.5c-0.5-0.1-1.1-0.1-1.6-0.2
	c-2.7-0.9-5-2.4-7.3-3.9c-1.3-0.9-2.2-2.2-2.8-3.7c-1.1-2.8-2.2-5.5-3-8.3c-0.7-2.1-1.1-4.4-1.6-6.6c-1-4.5-2-9-2.9-13.6
	c-0.7-3.4-1.2-6.8-1.8-10.2c-0.4-2.2-0.8-4.3-1.1-6.5c-0.2-1-0.2-2.1-0.2-3.1c0-1,0.3-1.2,1.3-1.2c0.3,0,0.6,0.1,0.9,0.1
	c2.3,0.2,3,0,3.2,3.5c0.1,3.6,0.8,7,1.5,10.5c0.2,1,0.3,2,0.5,2.9c0.5,2.3,0.9,4.6,1.5,6.9c1,4,2,8,3,12c0.7,3.1,1.1,6.3,2.1,9.3
	c1.2,4,2.9,7.9,6.8,10.1c0.7,0.4,1.2,1,1.8,1.5L372,285.5L372,285.5z M216.7,245.4c-0.3-0.7-0.7-1.4-0.7-2.1
	c-0.6-5.5-0.9-11.1,0.1-16.6c0.5-2.8,1.8-5.3,3.9-7.2c2.7-2.6,5.5-5.1,9-6.8c1.9-1,3.6-2.3,5.5-3.4c1.1-0.6,2.2-1.2,3.4-1.8
	c3.4-1.8,6.8-3.5,10.1-5.4c1-0.6,2-0.4,3-0.1c0.4,0.1,0.7,0.5,1.2,0.9c-0.5,0.4-0.7,0.7-1.1,1c-2.6,1.9-5.4,3.7-7.9,5.7
	c-2.6,2.1-5.5,3.5-8.4,5.2c-2.5,1.4-4.8,3.1-7.3,4.6c-1.5,0.9-3,1.7-4.2,3c-1.3,1.4-2.2,2.9-2.5,4.8c-0.4,2.4-1,4.8-1.3,7.2
	c-0.4,2.8-0.6,5.6-0.9,8.4C218.4,244.1,218.1,245,216.7,245.4L216.7,245.4z M151.3,96.4c-0.1-1.3-0.2-2.5-0.2-3.8
	c0-0.7,0.1-1.4,0.3-2.1c0.2-0.5,0.6-1.1,1-1.3c0.9-0.4,1.4-1,1.4-2c0-0.7,0.4-1.2,1-1.1c1.4,0.2,2.9-0.2,4.2,0.5
	c1.5,0.7,2.7,1.9,3.4,3.3c0.9,1.9,1.7,3.8,2.5,5.7c0.3,0.8,0.4,1.8,0.5,2.7c0.2,4.6-3.8,6.5-7.2,6.3c-1.8-0.1-3.5-1.2-4.6-2.5
	C152.2,100.6,151.3,98.6,151.3,96.4L151.3,96.4z M393.3,295.1c-0.3-0.2-0.7-0.3-0.9-0.6c-2.3-2.5-4.4-5.1-5.7-8.3
	c-0.6-1.4-1.3-2.8-2-4.2c-1.2-2.4-1.8-5-2.1-7.7c-0.3-2.8-0.6-5.5-0.9-8.3c-0.1-0.8-0.1-1.6,0-2.4c0.6-4.3,1.3-8.6,1.9-12.9
	c0.5-3.7,0.9-7.3,1.4-11c0.1-0.8,0.3-1.6,0.5-2.4c0.3-1.4,0.6-2.8,0.9-4.2c0.3-1.6,0.8-1.8,2.3-1.1c1.2,0.6,1.8,1.9,1.6,3.2
	c-0.4,2.5-0.9,4.9-1.3,7.3c-0.2,1.3-0.5,2.5-0.7,3.7c-0.7,3.8-1.3,7.5-1.9,11.3c-1.1,6.8-1.6,13.6-0.5,20.4c0.6,3.6,1.9,6.9,3.8,10
	c1.2,1.9,2.4,3.8,3.6,5.7c0.2,0.3,0.3,0.8,0.4,1.2L393.3,295.1L393.3,295.1z M449,282.8c-0.3-0.3-0.6-0.5-0.8-0.8
	c-2.2-3.3-3.6-7-4.3-10.9c-0.5-2.9-0.3-5.8,0.3-8.6c0.7-2.8,1.7-5.5,2.6-8.2c1.1-3.1,2-6.2,3.4-9.1c1.6-3.4,2.4-7.1,4-10.6
	c0.3-0.6,0.6-1.1,1.3-1.2c1.4-0.1,2.9-0.3,4.3-0.3c1.2-0.1,1.5,0.4,1,1.5c-0.9,1.8-1.8,3.5-2.7,5.3c-0.7,1.5-1.3,3.1-2,4.6
	c-2.3,5.2-4.6,10.4-6.9,15.6c-0.9,2.1-1.6,4.2-2.4,6.3c-0.8,2-0.8,4-0.6,6c0.2,2.4,0.5,4.7,1.4,7c0.4,0.8,0.8,1.6,1.2,2.5
	c0.1,0.3,0.2,0.6,0.3,0.9L449,282.8L449,282.8z M261,222.7c-0.5,1-1,2.1-1.5,3.1c-1.2,2.6-2.5,5.2-3.7,7.8c-0.7,1.7-1.3,3.6-1.9,5.4
	c-0.3,0.8-0.6,1.6-0.8,2.5c-1.1,3.8-1.2,7.6-1.1,11.5c0.2,4,1.6,7.7,2.8,11.4c0.7,2.3,1,4.8,1.3,7.2c0.1,0.8-0.4,1.5-1.1,1.7
	c-0.7,0.3-1.4-0.1-1.8-1c-1.6-3.6-2.9-7.3-3.8-11.1c-0.2-0.9-0.5-1.8-0.8-2.7c-1-2.4-1-4.9-0.8-7.5c0.5-5,2.6-9.5,4.6-13.9
	c1.3-2.7,2.5-5.4,3.9-8c1.1-2,2.4-4,3.6-5.9c0.2-0.3,0.6-0.5,0.9-0.7L261,222.7z M422.3,283c-0.2-0.5-0.5-0.9-0.6-1.3
	c-0.6-2.9-1.1-5.8-1.6-8.7c-0.2-1.3,0.1-2.6,0.6-3.9c1-2.3,2.5-4.1,3.9-6.1c1.7-2.4,3.3-4.9,5-7.3c1.7-2.4,3.3-4.9,5-7.3
	c2.4-3.5,4.9-7,7.3-10.6c0.9-1.4,1.7-2.9,2.5-4.4c0.3-0.6,0.7-1.2,1.1-1.8c0.5-0.7,1.1-0.8,2-0.1c-0.4,0.8-0.8,1.6-1.3,2.3
	c-1.2,2.1-2.4,4.1-3.6,6.1c-0.1,0.2-0.2,0.5-0.3,0.6c-2.3,2.4-3,5.6-4.7,8.3c-0.8,1.3-1.8,2.4-2.7,3.6c-1.9,2.6-3.8,5.1-5.7,7.7
	c-0.3,0.4-0.6,0.7-0.9,1c-2.1,2.9-4,5.8-4.3,9.5c-0.2,2.9-0.2,5.9-0.4,8.8C423.6,280.7,423.9,282,422.3,283L422.3,283z"/>
<path fill="none" stroke="#FFC107" stroke-miterlimit="10" d="M154.9,106.9c-1.3,0-2.5,0.1-3.8,0c-0.5,0-1-0.4-1.3-0.7
	c-0.8-0.8-1.5-1.6-2.1-2.5c-2.2-3.4-4.5-6.7-6.6-10.2c-1.6-2.7-2.9-5.5-3.1-8.7c0.5-0.5,1-0.3,1.4,0c2.5,1.7,5.3,2.5,8.1,3.6
	c1.5,0.5,1.7,0.9,1.3,2.3c-0.7,2.7-0.6,5.5-0.1,8.1c0.5,2.8,2,5.3,4.7,6.7c0.5,0.3,1,0.7,1.5,1L154.9,106.9L154.9,106.9z
	 M263.4,217.7c0.1,0.2,0.2,0.3,0.2,0.3c-0.1,0.1-0.2,0.2-0.3,0.3c-0.1-0.1-0.2-0.2-0.1-0.3C263.2,218,263.3,217.8,263.4,217.7
	L263.4,217.7z"/>
</svg>
