<svg xmlns="http://www.w3.org/2000/svg" viewBox="0 0 537.8 443.8"><title>starfish</title><path fill="none" d="M0 0h537.8v443.8H0V0zm208.8 264.4c.7 1.8 1.4 3.4 1.1 5.3-.6 4.1-1.1 8.3-1.6 12.4-.2 2-.4 4-.3 6 .2 4.1.4 8.2-.1 12.3-.4 3.2-.7 6.5-.9 9.8-.3 4-.5 8-.7 12.1-.1 2.9.2 5.7-.2 8.5-.3 3.3-.9 6.6-1.4 9.9-.4 2.8-.6 5.6-1.2 8.3-.7 3.2-.7 6.3-.7 9.5 0 1.9-.1 3.8-.2 5.6-.3 3.8-.7 7.6-.9 11.4-.2 4.5-.3 9-.5 13.5-.2 3.8-.6 7.5-.8 11.2-.2 3.4-.2 6.8-.3 10.2 0 .9.1 1.8.2 2.7.2 1.8.6 3.5.8 5.3.2 1.8.7 3.5 2 4.9l3.2 3.2c2.3 2.1 4.9 3.4 8.1 3.1.9-.1 1.8.1 2.7.1 1.7-.1 3.6.1 5.2-.5 4.4-1.6 9.1-2.6 13.3-4.9 1.1-.7 2.3-1.3 3.4-2 3.9-2.4 7.7-4.9 10.5-8.8.4-.5.8-1 1.2-1.4 2.8-3.2 5.2-6.6 7.3-10.4 2.5-4.3 4.8-8.8 7.3-13.1 2.7-4.8 5.5-9.4 8.1-14.1 3.4-6.1 6.7-12.1 10-18.3.7-1.3 1.6-2.7 2.1-4 1.8-4.1 3.7-8.3 5.4-12.4 1.4-3.4 2.6-6.7 3.9-10.1 1.1-3 2.1-6.2 3.4-9.2 1.5-3.9 3.2-7.7 4.6-11.6 2.5-7.1 6.4-13.5 9.8-20 1.1-2.1 3-3.8 4.4-5.7 2.8-4 6-7.7 9.5-11 2.2-2.1 4.7-3.8 7.6-4.8 2.8-1.1 5.4-2.5 8.4-2.8 1.1-.2 2.4-.2 3.5-.3 4.2-.3 8.3-.7 12.5.1 1.7.3 3.4.3 5.2.3 3.8.1 7.5-.2 11.2.1 2.9.2 5.7.6 8.6.9 5.2.6 10.5 1.1 15.7 1.6 1.6.2 3.2.2 4.8.3 3 .3 5.9.8 8.9 1.1 4.8.4 9.7.6 14.5.9 3.4.2 6.8.6 10.2.9 4.1.4 8.1 1.1 12.1 2.3 2.8.8 5.6 1.6 8.4 2.5 2.4.7 4.8 1.6 7.1 2.1 2 .5 4.1.8 6.1 1.3 3.1.7 6.2 1.6 9.3 2.5 2.7.7 5.3 1.4 8 2.1 2.1.6 4.1 1.2 6.2 1.9 3.3 1 6.7 1.1 10.1.3 2.3-.5 4.8-.9 6.7-2.1 3.5-1.9 6.8-4 10-6.4 2.9-2.2 4.7-5.3 3.9-9.2-.6-3-1.4-5.8-2.2-8.7-.6-1.9-1.3-3.7-2.1-5.4-.9-2.4-1.7-4.8-2.8-7-2-3.8-4.8-7-7.6-10.1-4.2-4.7-8.9-8.9-13.9-12.5-1.3-1-2.7-2-4-2.9-1.2-.9-2.4-1.9-3.8-2.5-3-1.4-6-2.6-9-3.8-5.9-2.2-11.7-4.7-17.8-6.5-5.7-1.7-11.3-3.2-17.1-4.7-6.7-1.8-13.5-3.2-20.3-4.5-5.7-1.1-11.5-2-17.2-3-7.1-1.3-14.3-2.5-21.3-4-5.9-1.3-11.7-3-17.6-4.4-3.6-.9-7.1-2.2-10.3-4-1.1-.7-2.2-1.6-3.1-2.7-1.4-1.6-1.2-3.4-.2-5 .8-1.3 1.9-2.6 2.9-3.9.7-1 1.6-2.1 3-1.6 1-3 2.2-4.8 5-7.2 3.4-3 6.4-6.5 9.4-10.1 2.6-3.2 5.6-6.2 8.4-9.3 1.1-1.2 2.2-2.5 3.3-3.8 1.6-1.9 3-3.8 4.8-5.6 3.2-3.3 6.6-6.4 9.3-10.2 4.1-5.7 8.7-11.2 12.9-16.9 2.6-3.4 5.1-7 7.4-10.6 2.1-3.2 4-6.5 6-9.8 1.2-2.1 2.5-4 3.5-6.2 1.5-3 2.1-6.3 3.9-9.2.3-.6.5-1.3.7-2 .8-2.3 1.6-4.6 2.5-6.8 1.5-4 3.1-8 4.4-12.1.7-2.1.8-4.3 1.1-6.6.6-4.1.9-8.1-.2-12.2-.2-.7-.1-1.6-.2-2.3-.3-2-.7-3.9-3.1-4.3-.3-.1-.7-.2-.9-.4-2.1-1.2-4.4-2.1-6.9-2.3-5.9-.6-11.8-.2-17.6 1.5-4.4 1.3-8.5 3.4-12.7 5.3-2.1.9-4.1 1.7-6.1 2.8-4.1 2.3-8.2 4.8-12.3 7.1-3.9 2.2-7.7 4.4-11.5 6.8-5 3-10.1 5.8-14.8 9.4-1.8 1.4-3.9 2.5-5.7 3.8-2.7 1.8-5.2 3.9-8.1 5.5-6.3 3.4-11.6 8-17.1 12.5-3.5 3-7 6-10.3 9-3.7 3.3-7.4 6.6-11.1 9.8-2.5 2.3-5.6 3.9-8.8 5.1-3.7 1.3-7.6 1.6-11.5 1.7-.5 0-.9-.2-1.3-.3-.9-.5-1.6-1.1-2.5-1.6-2.7-1.6-5.4-3.1-8.1-4.7-2.5-1.5-4.8-3-7.2-4.5-.8-.5-1.9-.7-2.6-1.2-2.7-1.8-5.3-3.7-8-5.6-3.2-2.2-6.5-4.4-9.7-6.7-2.8-2-5.5-4-8.2-6.1-1.3-1-2.5-2.2-4-3-3.6-1.9-7.4-3.6-10.7-5.8-1.2-.8-2.5-1.6-3.8-2.2-3.7-2-7.3-3.9-11-5.9-3.4-1.8-6.6-3.8-10.1-5.4-3.1-1.5-6.2-3-9.1-4.9-.9-.7-2.1-1.1-3.2-1.5-3.4-1.4-6.8-2.6-10.3-4-3-1.1-5.9-2.5-8.9-3.5-2.4-.8-4.8-1.5-7.1-2.3-.5-.2-1-.3-1.3-.6-1.1-.9-2.5-1.1-3.9-1.3-1.3-.2-2.6-.3-3.9-.6-3.7-.7-7.2-.7-10.8.9-5.2 2.4-7.8 6.6-8.3 12.1-.3 3.4.4 6.9 1 10.3 1 5.2 2.8 10.2 5 14.9 1.2 2.6 2.6 5.2 3.9 7.8 1.6 3.4 3.2 7 4.9 10.4 2.5 5.1 5.3 10.1 7.9 15.2 2.4 4.8 4.6 9.5 6.9 14.3 2 4.2 3.9 8.3 5.7 12.5.6 1.2.9 2.5 1.4 3.7 2.6 5.7 5.3 11.5 8 17.2 2.1 4.5 4.1 9.1 6.1 13.7 1.6 3.7 3.1 7.5 4.5 11.2 1 2.6-.1 5.2-2.6 6.2-5.1 2.1-10.2 4.1-15.3 5.9-5.1 1.8-10.3 3.3-15.5 4.9-1.6.5-3.1.8-4.5 1.5-4.1 2-8.5 3-12.9 4.1-5 1.3-10 2.2-15 3.4-2.1.5-4 1-6.1 1.6-4.4 1.1-8.9 2.4-13.4 3.3-3.9.8-8 1.2-11.9 1.9-4.7.8-9.2 2.2-13.9 2.6-.7.1-1.2.3-1.8.6-1.3.7-2.7.9-4.2 1-2 .2-4 .4-6 .7-1.5.2-3 .7-4.4 1.1-1.8.4-3.7.7-5.5 1.1-3 .6-5.8 1.2-8.8 1.7-2.1.4-4.3.6-6.6.9-2.8.3-5.2 1.6-7.3 3.4-2.3 1.8-4.3 3.5-5.1 6.7-.8 3.5-.2 6.4 1.5 9.4 2.1 3.6 4.8 6.7 7.5 9.9 1.7 2.1 3.9 3.9 5.7 5.8 2.1 2.4 4.8 4 7.5 5.6 4.8 2.8 9.4 5.6 14.7 7.3 3.6 1.2 7.1 2.9 10.6 4.3 4.2 1.7 8.6 2.8 13.1 3.1 4.8.4 9.6.3 14.4.3 4.7 0 9.3-.2 13.9-.3 5.2-.1 10.3.2 15.4-.5 4.7-.7 9.4-.7 14.1-1.1 4.4-.4 8.9-.4 13.2-1.4 4.8-1.1 9.6-1.6 14.4-1.9 8.5-.6 17-1.6 25.4-3 3.8-.4 7.9-1.5 12.1-1.2z"/><path fill="#FFC107" d="M208.8 264.4c-4.3-.4-8.3.7-12.3 1.5-8.4 1.5-16.9 2.5-25.4 3-4.8.3-9.7.7-14.4 1.9-4.3 1-8.8 1-13.2 1.4-4.7.4-9.4.4-14.1 1.1-5.2.7-10.3.4-15.4.5-4.7.1-9.3.3-13.9.3-4.8 0-9.6.1-14.4-.3-4.5-.4-8.9-1.4-13.1-3.1-3.5-1.4-7-3.1-10.6-4.3-5.2-1.7-10-4.5-14.7-7.3-2.6-1.6-5.3-3.2-7.5-5.6-1.8-2.1-3.9-3.8-5.7-5.8-2.7-3.2-5.4-6.3-7.5-9.9-1.7-3-2.3-5.9-1.5-9.4.7-3.2 2.8-4.9 5.1-6.7 2.1-1.6 4.5-3 7.3-3.4 2.2-.2 4.4-.5 6.6-.9 3-.5 5.9-1.1 8.8-1.7 1.8-.4 3.7-.7 5.5-1.1 1.5-.3 3-.8 4.4-1.1 2-.3 3.9-.6 6-.7 1.5-.1 2.9-.3 4.2-1 .6-.3 1.1-.5 1.8-.6 4.8-.4 9.3-1.8 13.9-2.6 3.9-.7 8-1.1 11.9-1.9 4.5-.9 8.9-2.2 13.4-3.3 2.1-.5 4-1.1 6.1-1.6 5-1.1 10-2.1 15-3.4 4.3-1.1 8.8-2.2 12.9-4.1 1.5-.7 3-1 4.5-1.5 5.2-1.6 10.4-3.1 15.5-4.9 5.2-1.8 10.3-3.9 15.3-5.9 2.5-1 3.6-3.6 2.6-6.2-1.4-3.8-3-7.5-4.5-11.2-2-4.6-4-9.2-6.1-13.7-2.6-5.7-5.3-11.5-8-17.2-.6-1.2-.9-2.5-1.4-3.7-1.9-4.2-3.8-8.4-5.7-12.5-2.2-4.8-4.5-9.6-6.9-14.3-2.5-5.1-5.3-10.1-7.9-15.2-1.7-3.4-3.2-7-4.9-10.4-1.3-2.6-2.7-5.2-3.9-7.8-2.2-4.8-4.1-9.7-5-14.9-.7-3.4-1.3-6.9-1-10.3.5-5.4 3-9.7 8.3-12.1 3.5-1.6 7.1-1.6 10.8-.9l3.9.6c1.4.2 2.8.4 3.9 1.3.4.3.9.4 1.3.6 2.4.7 4.8 1.4 7.1 2.3 3 1.1 5.9 2.4 8.9 3.5 3.4 1.3 6.8 2.6 10.3 4 1.1.4 2.2.8 3.2 1.5 2.9 2 6 3.4 9.1 4.9 3.4 1.6 6.7 3.6 10.1 5.4 3.7 2 7.4 3.9 11 5.9 1.3.7 2.5 1.4 3.8 2.2 3.4 2.2 7.1 3.9 10.7 5.8 1.5.7 2.7 2 4 3 2.7 2.1 5.4 4.1 8.2 6.1 3.2 2.3 6.5 4.4 9.7 6.7 2.7 1.9 5.2 3.8 8 5.6.8.5 1.8.7 2.6 1.2 2.5 1.5 4.8 3 7.2 4.5 2.7 1.6 5.4 3.1 8.1 4.7.9.5 1.6 1.1 2.5 1.6.4.2.9.3 1.3.3 3.9-.1 7.8-.4 11.5-1.7 3.2-1.1 6.2-2.8 8.8-5.1 3.7-3.3 7.4-6.6 11.1-9.8 3.4-3 6.8-6.2 10.3-9 5.5-4.5 10.8-9.1 17.1-12.5 2.9-1.6 5.4-3.7 8.1-5.5 1.9-1.3 3.9-2.4 5.7-3.8 4.6-3.6 9.8-6.3 14.8-9.4 3.8-2.3 7.6-4.5 11.5-6.8 4.1-2.4 8.1-4.8 12.3-7.1 2-1.1 4-1.9 6.1-2.8 4.2-1.8 8.3-4 12.7-5.3 5.7-1.6 11.6-2.1 17.6-1.5 2.5.2 4.8 1 6.9 2.3.3.2.6.3.9.4 2.4.5 2.9 2.4 3.1 4.3.1.7 0 1.6.2 2.3 1.1 4.1.7 8.1.2 12.2-.3 2.2-.5 4.4-1.1 6.6-1.3 4.1-3 8.1-4.4 12.1-.8 2.3-1.6 4.6-2.5 6.8-.2.7-.3 1.4-.7 2-1.7 2.9-2.5 6.2-3.9 9.2-1.1 2.1-2.4 4.1-3.5 6.2-2 3.3-3.9 6.6-6 9.8-2.4 3.6-4.8 7.1-7.4 10.6-4.3 5.7-8.8 11.2-12.9 16.9-2.7 3.8-6.1 6.8-9.3 10.2-1.7 1.7-3.1 3.7-4.8 5.6-1.1 1.3-2.1 2.5-3.3 3.8-2.8 3.1-5.7 6.1-8.4 9.3-2.9 3.5-5.9 7.1-9.4 10.1-2.7 2.4-4 4.3-5 7.2-1.5-.4-2.2.7-3 1.6-1 1.2-2 2.5-2.9 3.9-1.1 1.6-1.2 3.4.2 5 .9 1 2 2.1 3.1 2.7 3.2 1.9 6.6 3.1 10.3 4 5.9 1.5 11.7 3.1 17.6 4.4 7.1 1.6 14.2 2.7 21.3 4 5.7 1.1 11.6 1.9 17.2 3 6.8 1.4 13.6 2.8 20.3 4.5 5.7 1.5 11.4 3 17.1 4.7 6.1 1.9 11.9 4.3 17.8 6.5 3 1.1 6.1 2.4 9 3.8 1.4.7 2.5 1.6 3.8 2.5 1.4 1 2.7 1.9 4 2.9 5.1 3.7 9.7 7.9 13.9 12.5 2.9 3.1 5.7 6.3 7.6 10.1 1.1 2.2 1.9 4.6 2.8 7 .7 1.8 1.5 3.6 2.1 5.4.8 2.9 1.6 5.7 2.2 8.7.7 3.9-1 7-3.9 9.2-3.1 2.4-6.5 4.5-10 6.4-2.1 1.1-4.4 1.6-6.7 2.1-3.4.7-6.8.7-10.1-.3-2.1-.7-4.1-1.3-6.2-1.9-2.6-.7-5.3-1.4-8-2.1-3.1-.8-6.2-1.7-9.3-2.5-2-.5-4.1-.7-6.1-1.3-2.4-.7-4.8-1.5-7.1-2.1-2.8-.8-5.6-1.6-8.4-2.5-3.9-1.2-8-1.9-12.1-2.3-3.4-.3-6.8-.7-10.2-.9-4.8-.3-9.7-.5-14.5-.9-3-.2-5.9-.7-8.9-1.1-1.6-.2-3.2-.2-4.8-.3-5.2-.5-10.5-1.1-15.7-1.6-2.9-.3-5.7-.8-8.6-.9-3.8-.2-7.5 0-11.2-.1-1.7 0-3.5-.1-5.2-.3-4.2-.8-8.3-.4-12.5-.1-1.1.1-2.4.2-3.5.3-3 .3-5.7 1.7-8.4 2.8-3 1.1-5.3 2.8-7.6 4.8-3.5 3.3-6.7 7.1-9.5 11-1.4 2-3.4 3.6-4.4 5.7-3.4 6.6-7.4 13-9.8 20-1.4 3.9-3.1 7.7-4.6 11.6-1.1 3-2.2 6.2-3.4 9.2-1.2 3.4-2.5 6.7-3.9 10.1-1.7 4.2-3.6 8.3-5.4 12.4-.7 1.4-1.4 2.7-2.1 4-3.4 6.1-6.6 12.2-10 18.3-2.6 4.8-5.4 9.4-8.1 14.1-2.5 4.3-4.8 8.8-7.3 13.1-2.1 3.7-4.5 7.2-7.3 10.4-.4.5-.8.9-1.2 1.4-2.7 3.9-6.5 6.4-10.5 8.8-1.1.7-2.3 1.4-3.4 2-4.2 2.3-8.8 3.4-13.3 4.9-1.6.6-3.4.4-5.2.5-.9.1-1.8-.2-2.7-.1-3.2.2-5.8-1-8.1-3.1-1.1-1-2.2-2.1-3.2-3.2-1.3-1.4-1.8-3.1-2-4.9-.2-1.8-.6-3.5-.8-5.3-.2-.9-.2-1.8-.2-2.7l.3-10.2c.2-3.8.6-7.5.8-11.2.2-4.5.2-9 .5-13.5.2-3.9.7-7.6.9-11.4.2-1.9.2-3.8.2-5.6-.1-3.2-.1-6.3.7-9.5.7-2.7.8-5.5 1.2-8.3.5-3.3 1.1-6.6 1.4-9.9.2-2.8 0-5.7.2-8.5.2-4 .4-8 .7-12.1.2-3.3.5-6.5.9-9.8.5-4.1.3-8.2.1-12.3-.1-2 .2-4 .3-6 .5-4.1 1-8.3 1.6-12.4.5-2-.1-3.7-.9-5.6zm-5.5 144.4c.1 1.8.1 4.3.4 6.8.6 4.4 2.5 8 6.8 10 3.6 1.6 7.4 1.4 11.1.7 2.8-.5 5.3-2.1 8-2.8 3-.8 5.6-2.5 8.2-4 6.2-3.6 10.7-8.9 14.7-14.8 1.9-2.9 3.4-6.1 5.1-9.1 1.9-3.3 3.9-6.6 5.7-9.9 1-1.7 1.8-3.6 3-5.2 3.5-5.1 6.1-10.7 9.1-16.2 1.4-2.5 2.8-5.2 4.2-7.7 1-1.7 2.1-3.4 3-5.2 2.1-4.5 3.9-9 5.8-13.6 1.4-3.4 2.7-6.6 4-10.1 1.1-2.9 2.1-5.7 3.2-8.6 1.1-2.9 2.5-5.7 3.7-8.6 1.8-4.6 3.6-9.2 6-13.5 2.1-4 4.1-8.2 7.1-11.8 1.7-2.1 3.4-4.4 5.2-6.6 2.7-3.1 5.4-6.2 8.2-9.1 1.4-1.5 3.1-2.5 4.5-4 1-1.1 2.1-2.1 3.4-2.6 1.2-.5 2.4-1.1 3.6-1.7 3.1-1.6 6.4-2.1 9.9-1.5.8.2 1.6.2 2.5.2 2.3.1 4.6.1 6.9.2 7.1.2 14.2.6 21.2.8 1.4.1 2.8-.2 4.2.1 4.3.6 8.7 1.2 13 1.6 8.1.8 16.1 2.5 24.3 2.7 2 .1 3.9-.1 5.8.2 6.4.7 12.9.7 19.2 2.2 4.4 1 8.9 1.8 13.2 3.2 5.7 1.8 11.3 3.7 17.1 5.1 6.9 1.6 13.7 3.6 20.5 5.5 5.7 1.6 10.9.4 15.8-2.5 2.8-1.6 5.2-3.7 7.7-5.7 1.5-1.2 2.5-2.9 2.4-4.9-.2-3.6-1.1-7.1-2.2-10.6-.8-2.5-1.8-4.8-2.8-7.2-.4-1-.7-2.1-1.2-2.9-2.1-3-4.2-6.1-6.5-8.9-1.7-2.1-3.6-4-5.6-5.9-2.4-2.2-4.8-4.5-7.4-6.4-4.4-3-9.1-5.6-14.1-7.5-5.3-2.1-10.7-4.1-16-6.1-1.6-.6-3.3-1.1-4.9-1.6-4.7-1.4-9.4-2.8-14-3.9-7.1-1.7-14.4-3.3-21.6-4.8-5-1-10.1-1.8-15.2-2.6-4.1-.7-8.3-.9-12.2-2.3-.7-.2-1.4-.2-2.1-.3-.8-.2-1.6-.2-2.5-.4l-19.2-4.8c-2.1-.5-4.4-.7-6.5-1.5-4-1.5-7.9-3.5-11.4-6.1-2.8-2-3.9-4.8-4.4-8-.2-1.4.2-2.7.8-4 1-1.7 2.3-3.1 3.7-4.5 2.8-3 5.4-6.2 8.3-9.1 1.9-2 4.1-3.5 5.7-5.8 1-1.4 1.9-2.7 3-4 4-4.7 8.4-9 12.2-13.9.7-.8 1.6-1.4 2.2-2.1 2.1-2.8 4.4-5.3 7.1-7.5.5-.4.9-.9 1.2-1.4 3.3-4.3 6.6-8.6 9.8-13 3.1-4.2 6.2-8.4 9.1-12.6 3-4.4 6-8.9 8.9-13.4 1.6-2.5 3.1-5.1 4.3-7.8 1.5-3.4 2.5-7.1 3.9-10.6 1.7-4.5 3.6-8.9 5.2-13.5 1.1-3.3 2.2-6.6 2.7-10 .7-4.5.4-9.1-1-13.6-.3-1-.8-1.6-1.8-1.8-2-.4-3.9-.9-5.9-1.1-7.3-.7-14.4.2-21.1 3.6-4.7 2.3-9.6 4.2-14.1 6.6-6.8 4.2-13.3 8.2-19.9 12.1-3 1.7-5.9 3.4-8.8 5.2-3 1.9-5.7 3.9-8.6 5.9-5.2 3.4-10.2 7-15.5 10.2-5.2 3.3-10.3 7-14.8 11.1-1.9 1.6-3.7 3.4-5.5 5.1-4.3 3.9-8.9 7.5-13.2 11.5-4.7 4.2-9.6 7.5-16 8.3-.2.1-.4.1-.6.2-5 1.3-9.6.2-13.9-2.5-3.1-2-6.2-3.9-9.4-5.7-3-1.7-5.9-3.4-8.9-5.2-2.8-1.7-5.6-3.7-8.3-5.6-2.4-1.6-4.8-3.4-7.1-5.2-5.3-4.1-10.7-8.2-16.6-11.6-2.6-1.6-5.4-2.9-8-4.5-6.6-4.3-13.6-7.9-20.6-11.5-3.1-1.6-6.4-3.1-9.6-4.7-2.6-1.3-5.2-2.7-7.8-3.9-1.6-.7-3.3-1.1-4.9-1.8-7.4-3-14.8-5.9-22.6-8.1-2.7-.7-5.4-1.4-8.2-1.6-3.6-.3-7.1.3-9.9 3-3 2.9-4.3 6.4-3.9 10.6.2 2.3.7 4.5 1.1 6.7.7 3.4 1.5 6.9 3 10.2.9 1.9 1.6 3.9 2.5 5.7 1.6 3.4 3.4 6.8 5.1 10.3 2.2 4.4 4.3 8.9 6.6 13.3.6 1.1 1 2.3 1.6 3.4 2.7 4.5 5 9.4 7.2 14.1.6 1.3 1.1 2.7 1.7 4 2.1 4.5 4.1 8.9 6.1 13.5 1.9 4.3 3.8 8.5 5.6 12.8 1.2 2.7 2.5 5.4 3.6 8.2.5 1.1 1 2.1 1.5 3.2 1.5 3.5 2.9 7.1 4.5 10.5 2.1 4.6 4.1 9.3 5.4 14.2.7 2.5-.2 5-2.2 6.2-1.6 1-3.3 1.9-5 2.5-3.1 1.3-6.2 2.5-9.4 3.5-5.3 1.9-10.7 3.8-16 5.5-3.9 1.3-7.7 2.4-11.6 3.6-1.8.6-3.5 1.3-5.3 1.8-4.1 1.1-8.4 1.6-12.5 2.9-4.3 1.4-8.9 2.3-13.4 3.4-3.4.8-6.9 1.7-10.3 2.4-5.8 1.1-11.6 2-17.5 3-3.1.6-6.2 1.5-9.4 2.1-3.9.7-7.6 1.3-11.5 2.1-4.8 1-9.7 2.1-14.5 3-4.8 1-9.7 1.9-14.5 2.8-2.7.5-4.8 1.9-6.6 4-2.3 2.8-2.5 6.1-.5 9 .4.6.7 1.1 1.2 1.7 1.6 2.3 3.2 4.8 5.1 6.9 2.1 2.5 4.3 4.7 6.6 6.8 2.1 2.1 4.4 4 7.2 5.2.9.4 1.7.9 2.5 1.4 2.5 1.4 4.9 2.9 7.5 4.1 2.9 1.4 6 2.4 8.9 3.7 7.2 3.4 14.9 4.9 22.8 5.2 6.1.2 12.1-.2 18.1-.4 2.1-.1 4.2-.2 6.2-.1 4.2.5 8.4.1 12.5-.3 5.3-.4 10.7-.8 16-1.2 4.1-.3 8.2-.8 12.2-1.2 5.2-.6 10.5-1.5 15.7-1.8 8.4-.5 16.9-1.3 25.3-2.8 2.8-.5 5.7-.7 8.4-1.1.7-.1 1.4-.2 2-.6 2.5-1.1 4.7-.3 5.7 2.2.9 2.5.8 4.9.5 7.4-1.1 7.5-1.7 14.9-1.1 22.5.1.6.1 1.1 0 1.6-.4 3.8-.8 7.6-1.1 11.4-.5 5.7-1.1 11.3-.6 17.1.2 2 .2 4-.1 6.1-.6 4.3-1.3 8.5-2.1 12.7-.9 5.5-1.8 11-1.6 16.6.1 2.2-.2 4.4-.4 6.6-.2 2.6-.7 5.2-.8 7.9-.2 3.3-.2 6.5-.3 9.8-.2 3.9-.7 7.6-1 11.4.5 3.9.3 8.4-.1 13.7z"/><path fill="none" d="M203.3 408.8c.3-5.2.5-9.8.8-14.4.2-3.9.7-7.6 1-11.4.2-3.3.2-6.5.3-9.8.2-2.6.6-5.2.8-7.9.2-2.2.5-4.4.4-6.6-.2-5.6.7-11.1 1.6-16.6.7-4.3 1.5-8.4 2.1-12.7.2-2 .2-4 .1-6.1-.5-5.7.1-11.4.6-17.1.3-3.8.8-7.6 1.1-11.4.1-.6.1-1.1 0-1.6-.7-7.5-.1-15 1.1-22.5.4-2.5.5-5-.5-7.4-1-2.5-3.1-3.4-5.7-2.2-.7.2-1.3.5-2 .6-2.8.4-5.7.7-8.4 1.1-8.4 1.5-16.8 2.3-25.3 2.8-5.2.3-10.5 1.2-15.7 1.8-4.1.5-8.2.9-12.2 1.2-5.3.5-10.7.8-16 1.2-4.2.3-8.3.8-12.5.3-2.1-.2-4.2 0-6.2.1-6.1.2-12.1.6-18.1.4-7.9-.2-15.6-1.9-22.8-5.2-2.9-1.3-6-2.4-8.9-3.7-2.5-1.2-5-2.7-7.5-4.1-.8-.5-1.7-.9-2.5-1.4-2.8-1.2-5.1-3.2-7.2-5.2-2.3-2.2-4.6-4.4-6.6-6.8-1.9-2.1-3.4-4.5-5.1-6.9-.4-.6-.8-1.1-1.2-1.7-2.1-3-1.8-6.2.5-9 1.7-2.1 3.9-3.5 6.6-4 4.8-.9 9.7-1.8 14.5-2.8 4.8-1 9.7-2.1 14.5-3 3.9-.7 7.6-1.3 11.5-2.1 3.1-.6 6.2-1.5 9.4-2.1 5.8-1.1 11.6-1.9 17.5-3 3.5-.7 6.9-1.6 10.3-2.4 4.4-1.1 8.9-2.1 13.4-3.4 4.1-1.3 8.4-1.6 12.5-2.9 1.8-.5 3.5-1.3 5.3-1.8 3.9-1.2 7.7-2.3 11.6-3.6 5.3-1.8 10.7-3.6 16-5.5 3.1-1.1 6.2-2.3 9.4-3.5 1.7-.7 3.4-1.6 5-2.5 2.1-1.3 2.9-3.8 2.2-6.2-1.3-4.9-3.2-9.6-5.4-14.2-1.6-3.4-3-7.1-4.5-10.5-.5-1.1-1-2.1-1.5-3.2-1.2-2.7-2.5-5.4-3.6-8.2-1.9-4.3-3.7-8.5-5.6-12.8-2-4.5-4.1-8.9-6.1-13.5-.6-1.3-1.1-2.7-1.7-4-2.2-4.8-4.5-9.5-7.2-14.1-.7-1.1-1.1-2.2-1.6-3.4-2.1-4.4-4.3-8.9-6.6-13.3-1.7-3.4-3.4-6.8-5.1-10.3-.9-1.9-1.6-3.9-2.5-5.7-1.6-3.2-2.4-6.6-3-10.2-.4-2.2-.9-4.5-1.1-6.7-.4-4.1.9-7.7 3.9-10.6 2.8-2.6 6.3-3.3 9.9-3 2.8.2 5.5.9 8.2 1.6 7.7 2.1 15.2 5.1 22.6 8.1 1.6.7 3.3 1.1 4.9 1.8 2.6 1.2 5.2 2.6 7.8 3.9 3.2 1.6 6.4 3 9.6 4.7 7 3.6 13.9 7.2 20.6 11.5 2.5 1.6 5.3 3 8 4.5 5.8 3.4 11.2 7.5 16.6 11.6 2.3 1.8 4.7 3.5 7.1 5.2 2.7 1.9 5.5 3.9 8.3 5.6 2.9 1.8 5.9 3.4 8.9 5.2 3.2 1.9 6.3 3.8 9.4 5.7 4.3 2.8 8.9 3.8 13.9 2.5.2-.1.4-.2.6-.2 6.4-.7 11.4-4.1 16-8.3 4.3-3.9 8.9-7.5 13.2-11.5 1.8-1.6 3.6-3.4 5.5-5.1 4.7-4.1 9.6-7.8 14.8-11.1 5.2-3.2 10.3-6.8 15.5-10.2 2.9-1.9 5.7-4 8.6-5.9 2.9-1.8 5.9-3.4 8.8-5.2 6.6-3.9 13.1-7.9 19.8-11.6 4.6-2.5 9.5-4.3 14.1-6.6 6.7-3.3 13.8-4.3 21.1-3.6 2 .2 3.9.7 5.9 1.1 1 .2 1.5.8 1.8 1.8 1.4 4.4 1.6 9 1 13.6-.5 3.4-1.6 6.7-2.7 10-1.6 4.5-3.5 8.9-5.2 13.5-1.3 3.5-2.4 7.1-3.9 10.6-1.1 2.7-2.7 5.3-4.3 7.8-2.9 4.5-5.8 8.9-8.9 13.4-3 4.3-6.1 8.4-9.1 12.6-3.2 4.3-6.6 8.6-9.8 13-.3.5-.7 1-1.2 1.4-2.7 2.2-5 4.8-7.1 7.5-.7.8-1.6 1.4-2.2 2.1-3.9 4.8-8.3 9.2-12.2 13.9-1.1 1.2-2.1 2.6-3 4-1.6 2.2-3.9 3.9-5.7 5.8-2.8 3-5.4 6.2-8.3 9.1-1.4 1.4-2.7 2.8-3.7 4.5-.7 1.3-1.1 2.5-.8 4 .5 3.2 1.6 5.9 4.4 8 3.5 2.5 7.3 4.6 11.4 6.1 2.1.7 4.3.9 6.5 1.5l19.2 4.8c.8.2 1.6.2 2.5.4.7.1 1.4.1 2.1.3 3.9 1.4 8.1 1.6 12.2 2.3 5.1.8 10.2 1.6 15.2 2.6 7.2 1.5 14.4 3 21.6 4.8 4.8 1.1 9.4 2.6 14 3.9 1.6.5 3.3 1 4.9 1.6 5.3 2 10.7 4 16 6.1 5 2 9.8 4.4 14.1 7.5 2.6 1.9 5 4.1 7.4 6.4 2 1.8 3.9 3.8 5.6 5.9 2.3 2.9 4.3 5.9 6.5 8.9.6.8.8 1.9 1.2 2.9.9 2.4 2 4.8 2.8 7.2 1.1 3.4 2.1 6.9 2.2 10.6.1 2.1-.9 3.7-2.4 4.9-2.5 2.1-4.9 4.1-7.7 5.7-4.9 2.8-10.2 4-15.8 2.5-6.8-2-13.6-3.9-20.5-5.5-5.8-1.4-11.5-3.3-17.1-5.1-4.3-1.4-8.8-2.1-13.2-3.2-6.3-1.5-12.8-1.6-19.2-2.2-1.9-.2-3.9-.1-5.8-.2-8.2-.2-16.2-1.8-24.3-2.7-4.3-.4-8.7-1.1-13-1.6-1.4-.2-2.8 0-4.2-.1-7.1-.2-14.2-.6-21.2-.8-2.3-.1-4.6-.1-6.9-.2-.8 0-1.7 0-2.5-.2-3.5-.7-6.7-.1-9.9 1.5-1.2.6-2.4 1.2-3.6 1.7-1.4.6-2.5 1.6-3.4 2.6-1.4 1.5-3.1 2.6-4.5 4-2.8 3-5.6 6-8.2 9.1-1.8 2.1-3.4 4.3-5.2 6.6-2.9 3.6-4.8 7.8-7.1 11.8-2.4 4.3-4.2 8.9-6 13.5-1.1 2.9-2.5 5.7-3.7 8.6-1.1 2.9-2.1 5.7-3.2 8.6-1.3 3.4-2.6 6.7-4 10.1-1.9 4.5-3.8 9.1-5.8 13.6-.8 1.8-2 3.5-3 5.2-1.4 2.5-2.8 5.2-4.2 7.7-3 5.4-5.6 11-9.1 16.2-1.1 1.6-2 3.5-3 5.2-1.9 3.3-3.9 6.6-5.7 9.9-1.7 3-3.2 6.2-5.1 9.1-3.9 5.9-8.5 11.2-14.7 14.8-2.6 1.6-5.2 3.3-8.2 4-2.7.7-5.3 2.2-8 2.8-3.7.7-7.5.9-11.1-.7-4.3-2-6.2-5.6-6.8-10-.9-2.3-.9-4.7-1-6.6zM199.2 183c-4 3-8.5 4.8-12.9 6.7-4.2 1.9-8.6 3.4-13 5-3.7 1.3-7.4 2.6-11.2 3.3-3 .5-5.7 2-8.7 2.5-4.2.8-8.3 2.2-12.5 3.3-3.3.9-6.6 1.7-9.8 2.5-2.4.6-4.6 1.6-7.1 1.6-.7 0-1.3.3-2 .6-2.1.7-4.3 1.5-6.6 2.1-2.8.9-5.5 1.8-8.4 2.5-3.2.8-6.5 1.6-9.7 2.4-1.4.3-2.9.5-4.3.8-.9.2-1.8.7-2.8.8-3.4.7-6.6 1.6-9.8 2.8-.5.2-1.1.3-1.6.4-2.4.4-4.8.7-7.2 1.2-2.5.5-5 1.2-7.5 1.7-2.9.5-5.7.9-8.6 1.3-2.1.2-4.1.4-6.2.7-3.6.5-7.3.5-10.4 3-1.8 1.5-3.3 3.1-3.4 5.4-.1 2.2.5 4.5 2.1 6.2 2.5 2.6 5.2 5.1 8 7.4 4.8 4 9.7 7.7 15.5 10.1 2.5 1.1 5.2 2.1 7.9 2.7 5.5 1.2 11 2.3 16.3 4.3.7.3 1.5.5 2.2.6l11.7 1.5c6.7.8 13.5 0 20.2-.2 2.6-.1 5.2 0 7.9-.1.5 0 1-.1 1.4-.2 2.2-.3 4.5-.7 6.7-1.1 3.6-.5 7.1-.9 10.7-1.4 3.6-.5 7.2-1.1 10.9-1.5 2.9-.3 5.7-.7 8.7-.6 4.2.1 8.3-.7 12.5-.7 5 0 9.9-.8 14.8-1.4 3.2-.3 6.6-.6 9.7-1.2 2.7-.6 5.5-.4 8.2-1.4.7-.2 1.8 0 2.6.3 1 .4 1.9.9 2.7 1.6.6.5 1.1 1.1 1.3 1.8 1.6 3.9 1.6 8 1.4 12.1-.2 5.8-.9 11.6-1.4 17.5-.2 3.5-.4 7.1-.7 10.6-.5 6.3-.9 12.5-1.4 18.9-.2 2.2-.1 4.5-.6 6.6-1 3.9-1.1 7.8-1.6 11.7-.2 2.6 0 5.3-.4 7.9-.3 2.3-.8 4.6-1 7-.4 5.4-1.1 10.7-1.6 16.2-.3 4.8-.2 9.8-.3 14.6-.1 2.1.1 4.3-.2 6.5-.5 3.4-.6 6.9-.3 10.4.2 2.1.3 4.2.5 6.2.2 3.6 1.1 7 3.9 9.6 1.5 1.5 3.1 2.5 5.2 2.8 2.2.3 4.5 0 6.5-1 .6-.2 1.1-.6 1.7-.7 3.1-.8 5.2-3 7.4-5.2.8-.9 1.7-1.8 2.5-2.8 2.7-3.3 5.5-6.6 8.2-10 1-1.2 1.7-2.7 2.6-4 2.3-3.6 4.7-7.2 7-10.8 2.5-4.1 4.9-8.2 7.5-12.3 2.4-3.8 4.9-7.4 7.2-11.2 2.2-3.5 4.3-7.1 6.4-10.7 2.5-4.5 4.8-9.2 7.3-13.9 3.2-6.1 6.4-12.1 9.6-18.3 1.4-2.6 2.8-5.3 3.9-8 1.5-3.7 2.5-7.5 4-11.2 1.7-4.1 2.8-8.4 3.9-12.7 1-3.6 2.1-7.2 4.3-10.3.4-.5.7-1.1 1-1.6 2.4-4.8 5.2-9.2 8.6-13.2 2.9-3.4 6.2-6 10.5-7.1 2.4-.6 4.8-.8 7.2-1.1 3.2-.4 6.3-.9 9.5-.3.8.2 1.6.1 2.5 0 5.5-.5 11-.2 16.5.1 3.5.2 7.1.6 10.6.7 5.7.2 11.2.1 16.8 1.2 1.5.3 2.9.5 4.3.5 4.9.2 9.8 1 14.7 1.6 4.4.6 8.7 1.7 13.1 2.1 6.2.6 12.4 1.8 18.5 2.8 2.2.3 4.3.8 6.6 1.2 5.2 1 10.4 1.8 15.3 3.9 1.8.8 3.9 1.1 5.8 1.8 4.1 1.3 8.3 2.5 12.2 4 4.8 1.9 9.6 3.6 14.7 4.6 4.3.8 8.5.3 12.7-1.2.3-.1.7-.3.9-.5 3.9-3.8 5.4-7.5 3.2-13.4-1.3-3.5-2.2-7.3-5.1-10.1-.2-.2-.2-.7-.4-.9-1.8-3.4-3.5-6.7-5.4-10.1-1.6-2.7-3.4-5.2-6.1-7.1-1.1-.8-2.2-1.6-3.4-2.5-2.7-2.1-5.5-4-8.7-5.3-3-1.3-5.9-3.1-9.4-3.4-.7-.1-1.5-.5-2.1-.7-1.6-.6-3.3-1.1-4.9-1.7-4.8-1.5-9.6-2.9-14.4-4.3-1.5-.4-2.9-1.1-4.3-1.4-5.4-1.2-10.8-2.4-16.3-3.5-.7-.2-1.4-.2-2.1-.3-6.3-1.4-12.5-2.9-18.9-4.3-3.2-.7-6.3-1.6-9.5-2.4-3-.7-6-1.2-8.9-1.8-3.4-.7-6.9-1.1-10.2-2.2-5-1.7-10.2-2.3-15.3-3.4-4.3-.9-8.8-1.6-12.9-3.3-2.4-1-4.9-1.7-7.1-3.1-3.3-2.2-6.2-4.9-9.2-7.5-1.9-1.6-1.8-4.1 0-5.8 1-.9 2-1.9 3-3 3.4-3.7 7.1-7.3 10.3-11.2 3-3.5 5.8-7.3 8.5-11.1 2.3-3.1 4.8-6.2 7.7-8.7 1.6-1.5 3.5-2.7 5.2-4.1 2.4-2 4.7-4.2 7.1-6.1 6.7-5.2 11.9-11.6 16.6-18.6 1.6-2.5 3.2-5.1 5-7.4 2.6-3.3 5.4-6.5 7.3-10.3.2-.6.7-1 1.1-1.6 2.2-3.4 4.8-6.6 6.2-10.5 3.6-9.1 7.3-18.2 11.1-27.1 1.9-4.4 3.4-8.9 4.6-13.6.2-1 .1-2.1-.1-3-.2-.8-.4-1.6-.8-2.4-1.6-3.4-3.3-5.2-6.7-4.8-2.4.2-4.8.7-7.1 1.2-3.7 1-7.4 2.1-11 3.2-3.4 1.1-6.8 2.3-10.2 3.6-2.6 1-5.2 2.1-7.8 3.4-4.5 2.5-8.9 5.1-13.5 7.6-.3.2-.6.4-.8.6-4.3 3.2-8.6 6.3-12.8 9.7-5.5 4.3-10.7 9-16.2 13.4-5.2 4-10.5 7.8-15.7 11.6-3 2.2-6.1 4.3-9 6.7-3.9 3.2-8 6.2-12.5 8.7-5.6 3.1-11.2 6.2-16.6 9.4-2.5 1.4-4.8 1.3-7.1.1-3.9-2-7.6-3.9-11.5-6-1-.5-2.1-.9-3-1.5-2.5-1.7-5-3.5-7.5-5.2-2.3-1.5-4.7-2.7-7.1-4-2.1-1.1-4.1-2.3-6.2-3.5-3.8-2.4-7.5-4.9-11.2-7.3-2.3-1.5-4.6-2.9-6.9-4.3-3.2-2-6.2-4.1-9.5-6.1-3.7-2.2-7.5-4.3-11.2-6.4-1.5-.8-3-1.6-4.4-2.3-3.5-1.7-7.1-3.4-10.7-5.2-2.4-1.2-4.8-2.6-7.1-3.9-1.1-.6-2.2-1.1-3.4-1.7-3.5-1.8-7-3.7-10.5-5.5-3.4-1.7-7.1-3.2-10.3-5.3-5.3-3.4-11.2-5.1-17.6-5.3-2.8-.2-5.3.2-7.7 2.3-1.9 1.6-3 3.6-3.2 5.8-.4 3.8.2 7.5 1.8 10.9 2.1 4.6 4.1 9.3 6.2 13.9.8 1.9 1.8 3.8 2.5 5.7 1.6 4.3 3.6 8.4 6 12.3 3 5.1 5.8 10.3 8.6 15.5 1.7 3.2 3.4 6.5 5.2 9.8 1.9 3.5 4 7 5.9 10.6 2.8 5.2 5.4 10.7 8 16 1.9 3.8 3.7 7.5 5.5 11.2.9 2 2 4 2.5 6.2 1.5 5.1 3.9 9.7 6.2 14.3 2 3.1 3.6 6 4.4 9.5z"/><path fill="#FFC107" d="M199.2 183c-.8-3.4-2.3-6.4-3.8-9.4-2.4-4.7-4.8-9.3-6.2-14.3-.7-2.1-1.6-4.1-2.5-6.2-1.8-3.8-3.6-7.5-5.5-11.2-2.7-5.3-5.3-10.7-8-16-1.9-3.6-3.9-7.1-5.9-10.6-1.7-3.2-3.4-6.5-5.2-9.8-2.8-5.2-5.6-10.4-8.6-15.5-2.4-3.9-4.3-8-6-12.3-.7-2-1.6-3.9-2.5-5.7-2.1-4.7-4.1-9.3-6.2-13.9-1.6-3.4-2.2-7.2-1.8-10.9.2-2.3 1.3-4.2 3.2-5.8 2.4-2.1 4.9-2.5 7.7-2.3 6.3.3 12.1 2 17.6 5.3 3.3 2.1 6.9 3.5 10.3 5.3 3.5 1.8 7.1 3.7 10.5 5.5 1.1.6 2.2 1.1 3.4 1.7 2.4 1.3 4.8 2.6 7.1 3.9 3.5 1.8 7.1 3.5 10.7 5.2 1.5.7 3 1.5 4.4 2.3 3.8 2.1 7.5 4.2 11.2 6.4 3.2 1.9 6.3 4 9.5 6.1 2.3 1.5 4.6 2.9 6.9 4.3 3.8 2.5 7.4 4.9 11.2 7.3 2 1.3 4.1 2.4 6.2 3.5 2.4 1.4 4.8 2.6 7.1 4 2.5 1.6 5 3.5 7.5 5.2.9.6 2 1 3 1.5 3.9 2 7.6 3.9 11.5 6 2.4 1.2 4.7 1.4 7.1-.1 5.5-3.2 11.1-6.3 16.6-9.4 4.4-2.5 8.4-5.5 12.5-8.7 3-2.4 6-4.5 9-6.7 5.2-3.9 10.6-7.6 15.7-11.6 5.5-4.3 10.7-9 16.2-13.4 4.2-3.4 8.5-6.5 12.8-9.7.2-.2.6-.4.8-.6 4.4-2.5 8.9-5.2 13.5-7.6 2.5-1.3 5.2-2.5 7.8-3.4 3.4-1.3 6.7-2.5 10.2-3.6 3.6-1.1 7.3-2.3 11-3.2 2.4-.6 4.8-1 7.1-1.2 3.4-.3 5.2 1.4 6.7 4.8.4.7.7 1.6.8 2.4.2 1 .3 2.1.1 3-1.1 4.7-2.7 9.2-4.6 13.6-3.9 9-7.5 18-11.1 27.1-1.6 3.9-4 7.1-6.2 10.5-.3.5-.8 1-1.1 1.6-1.9 3.9-4.7 7.1-7.3 10.3-1.9 2.3-3.4 4.9-5 7.4-4.7 7-9.8 13.5-16.6 18.6-2.5 1.9-4.7 4.1-7.1 6.1-1.7 1.4-3.6 2.6-5.2 4.1-2.9 2.6-5.4 5.6-7.7 8.7-2.7 3.8-5.5 7.5-8.5 11.1-3.3 3.9-6.8 7.5-10.3 11.2-.9 1-2 2-3 3-1.8 1.6-1.9 4.2 0 5.8 3 2.5 6 5.2 9.2 7.5 2.1 1.4 4.7 2.1 7.1 3.1 4.2 1.6 8.5 2.4 12.9 3.3 5.1 1.1 10.3 1.6 15.3 3.4 3.3 1.1 6.7 1.6 10.2 2.2 3 .7 6 1.1 8.9 1.8 3.2.7 6.3 1.6 9.5 2.4 6.3 1.5 12.5 2.9 18.9 4.3.7.2 1.4.2 2.1.3 5.4 1.1 10.9 2.3 16.3 3.5 1.5.3 2.9 1 4.3 1.4 4.8 1.5 9.6 2.9 14.4 4.3 1.6.5 3.3 1.1 4.9 1.7.7.2 1.5.7 2.1.7 3.4.3 6.3 2.1 9.4 3.4 3.2 1.3 6 3.3 8.7 5.3 1.1.8 2.2 1.6 3.4 2.5 2.6 1.8 4.5 4.3 6.1 7.1 1.9 3.3 3.6 6.7 5.4 10.1.2.3.2.7.4.9 2.9 2.8 3.9 6.6 5.1 10.1 2.1 6 .7 9.7-3.2 13.4-.2.2-.6.4-.9.5-4.1 1.6-8.3 2-12.7 1.2-5.1-.9-9.9-2.7-14.7-4.6-4-1.6-8.2-2.7-12.2-4-1.9-.6-3.9-1-5.8-1.8-4.9-2.1-10.2-2.9-15.3-3.9-2.2-.4-4.3-.8-6.6-1.2-6.2-1-12.3-2.1-18.5-2.8-4.4-.4-8.8-1.6-13.1-2.1-4.9-.7-9.8-1.5-14.7-1.6-1.5-.1-2.9-.2-4.3-.5-5.6-1.1-11.2-1.1-16.8-1.2-3.5-.2-7.1-.5-10.6-.7-5.5-.3-11-.6-16.5-.1-.8.1-1.7.2-2.5 0-3.2-.6-6.4-.1-9.5.3-2.4.3-4.8.5-7.2 1.1-4.3 1.1-7.6 3.8-10.5 7.1-3.4 4-6.3 8.4-8.6 13.2-.3.6-.7 1.1-1 1.6-2.1 3.2-3.2 6.7-4.3 10.3-1.2 4.3-2.2 8.6-3.9 12.7-1.6 3.7-2.5 7.5-4 11.2-1.1 2.8-2.5 5.4-3.9 8-3.2 6.1-6.4 12.1-9.6 18.3-2.5 4.6-4.8 9.3-7.3 13.9-2 3.6-4.2 7.2-6.4 10.7-2.4 3.8-4.9 7.4-7.2 11.2-2.5 4-4.9 8.2-7.5 12.3-2.3 3.7-4.7 7.2-7 10.8-.8 1.3-1.6 2.8-2.6 4-2.7 3.4-5.4 6.6-8.2 10-.8 1-1.6 1.9-2.5 2.8-2.1 2.3-4.3 4.3-7.4 5.2-.6.2-1.1.5-1.7.7-2.1 1-4.3 1.3-6.5 1-2.1-.3-3.7-1.3-5.2-2.8-2.7-2.7-3.6-6-3.9-9.6-.2-2.1-.3-4.2-.5-6.2-.2-3.4-.2-7 .3-10.4.3-2.1.2-4.3.2-6.5.1-4.8 0-9.8.3-14.6.3-5.4 1.1-10.7 1.6-16.2.2-2.4.7-4.7 1-7 .4-2.6.2-5.2.4-7.9.4-3.9.6-7.9 1.6-11.7.5-2.1.4-4.4.6-6.6.5-6.3 1-12.5 1.4-18.9.2-3.5.4-7.1.7-10.6.4-5.8 1.1-11.6 1.4-17.5.2-4.1.2-8.2-1.4-12.1-.3-.7-.7-1.3-1.3-1.8-.8-.7-1.7-1.2-2.7-1.6-.8-.3-1.9-.6-2.6-.3-2.6 1-5.5.8-8.2 1.4-3.2.7-6.5.9-9.7 1.2-4.9.5-9.8 1.4-14.8 1.4-4.2 0-8.3.8-12.5.7-3-.1-5.8.2-8.7.6-3.6.4-7.3 1-10.9 1.5-3.6.5-7.1.9-10.7 1.4-2.2.3-4.5.7-6.7 1.1-.5.1-1 .1-1.4.2-2.6 0-5.2 0-7.9.1-6.7.2-13.5 1-20.2.2-3.9-.5-7.9-1-11.7-1.5-.7-.1-1.5-.3-2.2-.6-5.2-2.1-10.7-3.2-16.3-4.3-2.7-.6-5.3-1.6-7.9-2.7-5.7-2.5-10.7-6.1-15.5-10.1-2.8-2.3-5.4-4.8-7.9-7.4-1.6-1.6-2.1-3.9-2.1-6.2.1-2.3 1.6-3.9 3.4-5.4 3.1-2.5 6.8-2.5 10.4-3 2.1-.3 4.1-.4 6.2-.7 2.9-.4 5.8-.7 8.6-1.3 2.5-.5 5-1.2 7.5-1.7 2.4-.5 4.8-.8 7.2-1.2.6-.1 1.1-.2 1.6-.4 3.2-1.1 6.4-2.1 9.8-2.8.9-.2 1.8-.7 2.8-.8 1.4-.3 2.9-.5 4.3-.8 3.2-.7 6.5-1.5 9.7-2.4 2.8-.7 5.6-1.6 8.4-2.5 2.2-.7 4.3-1.4 6.6-2.1.7-.2 1.3-.6 2-.6 2.5.1 4.8-.9 7.1-1.6 3.3-.8 6.6-1.6 9.8-2.5 4.2-1.1 8.3-2.5 12.5-3.4 3-.6 5.7-2.1 8.7-2.5 3.8-.7 7.5-2.1 11.2-3.3 4.3-1.6 8.8-3 13-5 3.6-2 8.1-3.7 12.2-6.7zm14 219.3c.1 3.1.2 6.3 1.4 9.2 1 2.5 2.5 4.8 5.6 4.8 1.2 0 2.4-.2 3.4-.7 2.7-1.1 5.2-2.7 7.4-4.6 4.3-3.7 7.5-8.4 11.1-12.7 2.3-2.8 4.1-5.9 6.1-8.9 4-6.3 8-12.7 12-19.1 2.3-3.7 4.5-7.5 7-11.2 2.5-3.8 4.9-7.5 6.8-11.6.7-1.5 1.5-3 2.2-4.4 1.5-2.9 3-5.7 4.4-8.5.9-1.7 1.7-3.5 2.6-5.2 2-3.8 4.2-7.4 6-11.2 2.5-5.5 4.8-11.2 6.7-16.8 1.7-4.8 3.2-9.8 4.6-14.7 1.1-3.9 2.7-7.5 4.6-10.9 2.1-3.9 4.7-7.5 6.7-11.2 1.6-3 4.1-5.4 6.4-7.9 1.1-1.1 2.4-2 3.8-2.5 1.3-.6 2.5-1.5 3.8-2.2.4-.2.8-.6 1.3-.7 2.5-.5 4.9-.9 7.4-1.3 1-.2 2.1-.2 3.1-.4 1.6-.2 3.1-.6 4.8-.6 4.5-.1 9-.1 13.5.1 3.9.1 8 0 11.9.4 3.8.5 7.6.7 11.4.5 2.1-.1 4.3 0 6.5.2 4.5.4 8.9 1.1 13.5 1.6 4.4.5 8.9.9 13.2 1.5 2.6.3 5.2 1 7.8 1.4 3 .5 6.1.8 9.1 1.2 2.7.3 5.3.7 8 1.1 3.9.7 7.6 1.4 11.5 2.1 1.6.3 3.2.7 4.8 1.1 3 .7 6.1 1.3 9.1 2.1 1.9.5 3.7 1.2 5.5 1.8 5.9 1.9 11.8 3.6 17.6 5.7 3.7 1.4 7.5 2.5 11.3 3.4 3.4.8 6.6.6 9.9-.2 4-.9 5.7-3.7 5-7.8-.4-2.3-1.2-4.5-2.3-6.6-2-3.9-4.4-7.4-6.3-11.2-2.1-4.2-4.7-7.9-8.6-10.5-3.9-2.5-7.9-5-11.9-7.3-2.7-1.6-5.7-2.1-8.6-3-4-1.1-8-2.5-12-3.7-5.2-1.5-10.3-2.7-15.5-4.1-5.6-1.5-11.1-3.1-16.6-4.6-2.2-.6-4.4-1-6.7-1.5-3.4-.7-6.8-1.3-10.2-2.1-5.3-1.2-10.7-2.8-16-4-7.5-1.7-14.9-3.3-22.4-4.9-5.3-1.1-10.7-2.2-16.1-3.5-4.2-1-8.2-2.6-11.9-4.8-.9-.5-1.6-1.2-2.5-1.8-3.7-2.2-6.6-5.2-9.4-8.5-1.1-1.5-.9-3.2-.7-4.8.2-1.2.8-2.3 1.1-3.5.2-.8.6-1.1 1.1-1.6 1.3-1 2.7-2 3.9-3 1.5-1.3 2.8-2.9 4.4-4.1 2.1-1.6 4.2-3.4 5.8-5.6 3-3.9 6-8 9-12 3.1-4.2 7-7.5 11-10.8 3-2.5 6.2-4.8 8.8-7.7 3.6-4.1 7.4-8.1 11.1-12.2 1.5-1.6 2.9-3.2 4.2-4.9 1.6-2.1 3-4.3 4.6-6.5 2.1-2.9 4.3-5.6 6.4-8.4 2.4-3.4 4.8-6.8 6.9-10.4 1.7-3 3-6.4 4.4-9.7 1.1-2.7 1.9-5.5 3-8.2 2.5-6 5.3-11.9 7.8-18 1.2-3 2.1-6.1 2.5-9.2.4-3.3-1.2-6.5-5.5-5.8-.2 0-.2 0-.4.1-3.7.9-7.5 1.6-11.1 2.9-3.9 1.5-7.8 2.7-11.6 4-3 1.1-6.2 2-8.9 3.4-5.5 3-10.8 6.3-16.2 9.5-.3.2-.6.4-.8.7-4.8 3.7-9.7 7.5-14.5 11.2-1.9 1.5-3.7 3-5.6 4.4-3.2 2.6-6.4 5.3-9.7 7.9-1.8 1.5-3.7 2.9-5.7 4.3-2.6 1.9-5.3 3.7-8 5.6-3 2.1-6 4.1-8.7 6.5-3.1 2.8-6.8 4.8-10.1 7.3-1.2 1-2.7 1.6-4.1 2.5-1.7 1-3.5 2-5.2 3-3.5 2-7 3.9-10.6 5.8-2.7 1.5-5.9 1.6-8.7.3-.6-.2-1.2-.3-1.8-.4-1.3-.2-2.4-.7-3.1-1.8-.2-.4-.8-.7-1.3-1-5.3-2.8-10.7-5.3-15.5-8.9-3.2-2.4-6.9-4.2-10.3-6.3-6.6-4.2-13.2-8.5-19.8-12.7l-16.5-10.2c-1.7-1.1-3.5-1.9-5.3-2.9-3-1.6-5.9-3.4-8.9-4.9-4-2.1-8.3-3.9-12.2-6.3-3.2-2.1-6.8-3.5-10.2-5.2-1.4-.7-2.8-1.6-4.2-2.3-4.3-2.1-8.8-4.3-13-6.5-4.4-2.4-9.1-3.9-14.1-4.1-1.4-.1-2.8.1-4.1.4-3 .7-4.8 3.1-4.7 6.2.1 2.5.1 5.2 1.5 7.5.2.3.4.7.5 1.1.7 2.9 2 5.4 3.4 8 .5.9 1.1 1.8 1.3 2.8.4 2.1 1.6 4 2.5 5.9.3.7.7 1.4 1 2.1 1.3 2.8 2.5 5.7 3.9 8.5.5 1.1 1 2.3 1.6 3.4 2 3.4 4.1 6.8 6.1 10.2 1.6 2.9 3.2 5.8 4.8 8.8 2.5 4.7 4.8 9.4 7.2 14 2.1 4.2 4.3 8.4 6.5 12.5l4.8 9.3c1.8 3.7 3.6 7.3 5.3 11 .5 1.1.8 2.4 1.3 3.5 1.1 3 2.1 5.9 3.4 8.7 2.5 5.5 5.6 10.8 7.5 16.7.2.7.1 1.5-.2 2.1-1.1 2.7-3.4 4.3-5.9 5.6-6.6 3.4-13.5 6.5-20.8 8.6-4.8 1.4-9.4 2.7-14.2 4.1-2.4.7-4.8 1.4-7.2 2-4.5 1.1-9 2.2-13.5 3.4-5.6 1.4-11.2 2.9-16.7 4.3-4.3 1.1-8.6 2.2-13 3.4-4.6 1.2-9.1 2.5-13.7 3.7-2.4.7-4.8 1.2-7.1 1.7-5.9 1.4-11.7 2.9-17.6 4.1-6.2 1.3-12.5 2.1-18.8 2.9-3.6.5-7.1 1.3-10.7 2.1-1.9.4-3.3 1.6-3.9 3.4-.4 1.2-.5 2.5.5 3.5 1.5 1.5 3.3 2.6 4.6 4.2 3.4 3.9 8 6.5 12.2 9.3 3.9 2.6 8.5 4.2 13.1 5.2 5.7 1.3 11.3 2.6 16.9 4.5.6.2 1.1.2 1.6.3 2.4.3 4.8.8 7.2 1 4.2.3 8.4.7 12.7.6 5.6-.1 11.2-.4 16.9-.7 1.2-.1 2.5-.3 3.8-.4 5.2-.2 10.5-1 15.7-1.7 5-.7 10-1.7 15.1-1.6.4 0 .8-.2 1.2-.2 3.4-.2 6.8-.6 10.2-.7 2.1-.2 4.3.1 6.5-.2 4.3-.4 8.7-.8 13-1.4 5.4-.7 10.9-1.6 16.3-2.3.6-.1 1.1-.1 1.6-.1 2.2.2 4.1 1.5 6.2 2.2 4.3 1.6 6.5 4.9 7.1 9.2.4 3.1.6 6.2.4 9.4-.3 6.7-.9 13.5-1.4 20.2-.6 8.5-1.1 17.1-1.8 25.6-.4 4.8-.9 9.5-1.5 14.3-.7 6.3-1.3 12.5-2 18.9-.6 5.4-1.3 10.7-1.6 16.2-.3 4.4-.2 8.9-.2 13.3-.1 2.9-.1 5.7-.2 8.5-.1 1.6-.3 3-.2 4.6-.1 1.4.1 3.7.1 6z"/><path fill="none" d="M213.2 402.3c-.1-2.3-.2-4.6-.2-6.9 0-1.6.2-3 .2-4.6.1-2.9.2-5.7.2-8.5.1-4.4-.1-8.9.2-13.3.3-5.4 1.1-10.7 1.6-16.2.7-6.3 1.3-12.5 2-18.9.5-4.8 1.1-9.5 1.5-14.3.7-8.5 1.2-17.1 1.8-25.6.5-6.7 1.1-13.5 1.4-20.2.2-3.1.1-6.2-.4-9.4-.7-4.3-2.8-7.6-7.1-9.2-2.1-.7-3.9-2-6.2-2.2-.6-.1-1.1-.1-1.6.1-5.4.7-10.8 1.6-16.3 2.3-4.3.6-8.7 1-13 1.4-2.1.2-4.3.1-6.5.2-3.4.2-6.8.5-10.2.7-.4.1-.8.2-1.2.2-5.1-.1-10.1.9-15.1 1.6-5.2.7-10.4 1.6-15.7 1.7-1.2.1-2.5.3-3.8.4-5.6.2-11.2.7-16.9.7-4.2.1-8.4-.3-12.7-.6-2.5-.2-4.8-.7-7.2-1-.6-.1-1.1-.2-1.6-.3-5.5-1.9-11.2-3.2-16.9-4.5-4.6-1.1-9.2-2.6-13.1-5.2-4.3-2.8-8.8-5.3-12.2-9.3-1.4-1.6-3.1-2.7-4.6-4.2-1-1-.8-2.3-.5-3.5.6-1.9 2-3 3.9-3.4 3.5-.7 7.1-1.6 10.7-2.1 6.2-.8 12.5-1.6 18.8-2.9 5.9-1.2 11.8-2.7 17.6-4.1 2.4-.6 4.8-1.1 7.1-1.7 4.6-1.2 9.1-2.5 13.7-3.7 4.3-1.1 8.6-2.2 13-3.4 5.6-1.5 11.2-3 16.7-4.3 4.5-1.1 9-2.2 13.5-3.4 2.5-.6 4.8-1.3 7.2-2 4.8-1.4 9.5-2.7 14.2-4.1 7.2-2.1 14.1-5.2 20.8-8.6 2.5-1.2 4.8-3 5.9-5.6.2-.7.4-1.5.2-2.1-1.9-5.8-4.9-11.2-7.5-16.7-1.3-2.8-2.2-5.8-3.4-8.7-.4-1.1-.7-2.4-1.3-3.5-1.7-3.7-3.5-7.4-5.3-11-1.6-3.1-3.1-6.2-4.8-9.3-2.1-4.2-4.3-8.4-6.5-12.5-2.4-4.7-4.8-9.4-7.2-14-1.6-3-3.1-5.9-4.8-8.8-2-3.4-4.1-6.8-6.1-10.2-.7-1.1-1.1-2.2-1.6-3.4-1.3-2.8-2.5-5.7-3.9-8.5-.3-.7-.7-1.4-1-2.1-1-1.9-2.1-3.8-2.5-5.9-.2-1-.8-1.9-1.3-2.8-1.4-2.5-2.7-5.2-3.4-8-.1-.4-.2-.8-.5-1.1-1.5-2.3-1.4-4.9-1.5-7.5-.1-3 1.7-5.4 4.7-6.2 1.3-.3 2.7-.5 4.1-.4 5 .2 9.7 1.7 14.1 4.1 4.3 2.3 8.7 4.3 13 6.5 1.4.7 2.8 1.6 4.2 2.3 3.4 1.7 7 3.2 10.2 5.2 3.9 2.5 8.1 4.2 12.2 6.3 3 1.6 6 3.3 8.9 4.9 1.8 1 3.6 1.8 5.3 2.9 5.5 3.4 11 6.7 16.5 10.2 6.6 4.2 13.2 8.5 19.8 12.7 3.4 2.1 7.1 3.9 10.3 6.3 4.8 3.5 10.3 6.2 15.5 8.9.5.2 1 .6 1.3 1 .7 1.1 1.9 1.6 3.1 1.8.7.1 1.2.2 1.8.4 2.8 1.2 6 1.1 8.7-.3 3.6-1.8 7.1-3.9 10.6-5.8 1.7-1 3.5-2 5.2-3 1.4-.8 2.9-1.5 4.1-2.5 3.3-2.5 7-4.5 10.1-7.3 2.7-2.4 5.7-4.3 8.7-6.5 2.6-1.9 5.3-3.7 8-5.6 1.9-1.4 3.8-2.8 5.7-4.3 3.3-2.6 6.4-5.2 9.7-7.9 1.8-1.5 3.7-3 5.6-4.4 4.8-3.8 9.7-7.5 14.5-11.2.2-.2.6-.4.8-.7 5.4-3.2 10.7-6.5 16.2-9.5 2.8-1.5 5.9-2.4 8.9-3.4 3.9-1.4 7.8-2.6 11.6-4 3.6-1.4 7.4-2 11.1-2.9.2 0 .2-.1.4-.1 4.3-.7 6 2.5 5.5 5.8-.5 3.1-1.3 6.2-2.5 9.2-2.5 6.1-5.2 12-7.8 18-1.1 2.7-1.9 5.5-3 8.2-1.4 3.3-2.7 6.6-4.4 9.7-2.1 3.6-4.5 7.1-6.9 10.4-2.1 2.9-4.3 5.6-6.4 8.4-1.6 2.1-3 4.3-4.6 6.5-1.3 1.7-2.7 3.3-4.2 4.9-3.7 4.1-7.4 8.1-11.1 12.2-2.6 3-5.7 5.2-8.8 7.7-4 3.2-7.9 6.6-11 10.8l-9 12c-1.6 2.1-3.7 3.9-5.8 5.6-1.6 1.2-2.9 2.8-4.4 4.1-1.2 1.1-2.5 2.1-3.9 3-.6.4-1 .8-1.1 1.6-.2 1.2-.9 2.3-1.1 3.5-.2 1.6-.6 3.3.7 4.8 2.6 3.4 5.7 6.3 9.4 8.5.9.6 1.6 1.3 2.5 1.8 3.7 2.2 7.7 3.9 11.9 4.8 5.3 1.2 10.7 2.3 16.1 3.5 7.5 1.6 14.9 3.2 22.4 4.9 5.3 1.2 10.7 2.7 16 4 3.4.8 6.8 1.4 10.2 2.1 2.2.5 4.5.9 6.7 1.5 5.6 1.5 11.1 3.1 16.6 4.6 5.2 1.4 10.3 2.7 15.5 4.1 4 1.1 8 2.5 12 3.7 3 .8 6 1.4 8.6 3 4 2.3 8 4.8 11.9 7.3 3.9 2.5 6.6 6.2 8.6 10.5 1.9 3.9 4.3 7.5 6.3 11.2 1.1 2.1 1.9 4.3 2.3 6.6.7 4.1-.9 6.9-5 7.8-3.3.7-6.5 1-9.9.2-3.9-.9-7.6-2.1-11.3-3.4-5.8-2.1-11.7-3.8-17.6-5.7-1.9-.6-3.7-1.4-5.5-1.8-3-.8-6.1-1.4-9.1-2.1-1.6-.4-3.2-.7-4.8-1.1-3.9-.7-7.6-1.5-11.5-2.1-2.6-.4-5.3-.7-8-1.1-3-.4-6.1-.7-9.1-1.2-2.6-.4-5.2-1.1-7.8-1.4-4.4-.6-8.9-1-13.2-1.5-4.5-.5-8.9-1.1-13.5-1.6-2.1-.2-4.3-.2-6.5-.2-3.9.1-7.6-.1-11.4-.5-3.9-.4-7.9-.4-11.9-.4-4.5-.1-9-.1-13.5-.1-1.6 0-3.1.4-4.8.6-1 .2-2.1.2-3.1.4-2.5.4-4.9.8-7.4 1.3-.5.1-.8.4-1.3.7-1.2.7-2.4 1.7-3.8 2.2-1.4.6-2.7 1.4-3.8 2.5-2.4 2.5-4.8 4.8-6.4 7.9-2.1 3.9-4.7 7.4-6.7 11.2-1.9 3.5-3.5 7.1-4.6 10.9-1.4 4.9-2.9 9.8-4.6 14.7-2.1 5.7-4.3 11.3-6.7 16.8-1.7 3.9-3.9 7.5-6 11.2-.9 1.7-1.7 3.4-2.6 5.2-1.5 2.9-3 5.7-4.4 8.5-.7 1.5-1.6 3-2.2 4.4-1.9 4.1-4.3 7.9-6.8 11.6-2.5 3.7-4.7 7.4-7 11.2-4 6.4-8 12.8-12 19.1-2 3-3.8 6.2-6.1 8.9-3.6 4.3-6.7 9-11.1 12.7-2.2 1.9-4.8 3.4-7.4 4.6-1.1.5-2.2.7-3.4.7-3.2.1-4.6-2.3-5.6-4.8-1-2-1.3-5.2-1.3-8.3zm64.1-163.4c2.2.2 4-.5 5-2.6.1-.2.2-.2.2-.3 2.7-3.9 2.1-9.4-1.4-12.5-1.2-1.1-2.7-1.9-4.1-2.9-1.7-1.2-3.6-1.1-5.3-.3-2.7 1.2-5.1 3-7.1 5.1-2.1 2.2-1.6 5.7.7 7.6.4.3.7.8 1.1 1.2.8.8 1.6 1.6 2.6 2.4 2.5 1.9 5.4 2.2 8.3 2.3zm1.5-54.3c-5.5-1-9.7 4.8-9.3 8.9.1 1.1.2 2.1.3 3.1.5 3.9 3.3 7 7.1 7.9 3.2.8 6.6.9 9.7 0 5.4-1.6 6.8-4.2 6.3-8.5-.2-2.1-1.4-4-2.4-5.9-1.1-2.1-2.8-3.4-4.9-4.2-2.2-.9-4.5-1.4-6.8-1.3zm30.3-21.5c0-1.5-.7-3.4-2.1-5.4-1.6-2.2-3.4-3.5-6-4.3-4.1-1.1-8.6.6-11.6 4.3-1.6 2.1-1.6 3.5-.1 5.8.4.6.7 1.2 1.1 1.8 2.2 4.2 6.9 7 13 5.5 3.4-.6 5.7-3.3 5.7-7.7zm1.1 57.6c1.2.1 2.6-.4 4.4-1.5 2.3-1.4 4.1-5 3.8-7.5-.7-5.1-4.8-9.1-9.8-10-1.7-.3-3.2.1-4.4 1.1-1.6 1.5-3.2 3-4.8 4.7-.4.5-.8 1.3-.7 1.9.3 1.8.7 3.8 1.6 5.3 2.1 3.8 5.5 5.7 9.9 6zm-61.4-8.8c1.9-.2 3.8-.2 4.4-2.5.1-.2.3-.2.4-.5.6-1.1 1.5-2.1 1.7-3.2.9-3.9.2-8.1-5.3-9.3-.5-.1-1-.2-1.5-.2-3 .2-6 .8-7.5 3.8-.8 1.5-1.1 3.3-1.4 4.9-.4 2.5 1.4 4.8 3.5 5.5 1.9.6 3.8 1 5.7 1.5zm13.3-35.6c4.4.1 5.3-.5 7.1-3.4.2-.2.3-.5.5-.7 2.6-3.7.7-9.4-3.5-10.8-.8-.2-1.7-.5-2.6-.7-2.7-.8-4.9.1-6.7 2.1-.8.9-1.6 1.9-2.3 3-1.6 2.5-1.5 5.2.4 7.5 2 2.1 4.6 3.1 7.1 3zm2.5 85.3c.7.1 1.2.2 1.7.2 1.7-.1 3.3-.3 4.4-1.8 1.7-2.2 1.9-4.7.5-7.1-1.4-2.4-3.7-3.8-6.5-3.9-2.7-.1-4.8 1.5-6.6 3.2-2.4 2.4-1.8 6.1.9 8 1.7 1.2 3.6 1.7 5.6 1.4zm-15.4-114.8c-.7.2-1.5.2-2.2.5-3.8 1.2-4.7 3.5-2.3 6.7 1.4 2 2.8 4 5.7 4.3 2.5.2 3.9-1 5.3-2.5 1.2-1.3.2-2.6-.2-3.9l-.2-.4c-.8-2.7-3.2-4.4-6.1-4.7zm86.3 66.4c-1.8.2-3.9 1.1-5.7 2.4-2.5 1.7-2.4 3.2-.2 5.2 1.4 1.3 2.8 2.5 4.3 3.6.5.4 1.1.7 1.7.7 4.9.1 7.1-3.5 5.9-7.1-.1-.3-.2-.7-.3-1-.8-2.6-2.5-3.8-5.7-3.8zm-73.3 67.1c1.3-.2 2.5-.3 3.4-1.5 1.6-2.1 2.6-4.2-.3-6.6l-.7-.7c-1.5-1.3-3.4-2-5.3-1.9-3.4.2-5.8 3.8-4.7 7 .2.7.9 1.5 1.6 1.8 1.9.8 4 1.3 6 1.9zm47.7-138.4c-3.1-.3-4.3 3.3-3.1 5.2.6 1 1.1 2.1 1.6 3.1 1.5 2.9 3.4 3.6 6.3 2.3.4-.2.8-.5 1.2-.7 1.2-.7 1.7-1.9 1.4-3.2-1-3.6-3.3-6.4-7.4-6.7zm41.7 83.7c0 2.9 2.1 4.3 4.2 5.4 2.2 1.2 4.4.3 5.7-1.9 1.2-2.2.7-6.6-1.1-8.4-1.1-1.2-2.6-1.7-4.2-1.2-2.9.6-4.5 2.9-4.6 6.1zm-112.2-82.3c2.1.4 3.8-.5 5.1-2.3.6-.8.7-1.6.2-2.5-2-3.9-5.6-5.7-9.6-5.1-1.1.2-1.8.7-2 1.9-.6 3.6 1.8 8.3 6.3 8zm-72.5-81.8c-1.3 0-2.1.3-3.4 1.6-1.1 1.1-1.4 2.6-.5 3.9 1.4 2.1 3.2 3.6 5.7 4.3 2.1.6 4.7-1.4 4.7-3.5-.3-3.8-3.6-6.1-6.5-6.3zM200.7 225c.6-.2 1.7-.4 2.8-.9 2.2-1.1 2.8-3.4 1.3-5.3-.8-1-1.8-1.9-2.9-2.6-3.3-2.1-6.3-2-8.4 2.1-.5 1.1-.6 2 .1 3 1.4 2.4 3.7 3.6 7.1 3.7zm142.1-93.9c.5-.2 1.5-.3 2.4-.7 1.2-.5 1.6-1.2 1.5-2.5-.4-3.7-4.8-6.6-8.4-5.4-1.5.5-2.5 1.5-2.8 3.1-.2 1.6.4 2.7 1.6 3.6 1.6 1.2 3.3 1.8 5.7 1.9zm-127.3 90c.4-.1.8-.1 1.2-.2 2.7-.7 4-3.4 3-5.9-1.2-2.8-3.6-3.9-6.3-4.4-1.7-.3-2.7.5-3.5 1.9-2.1 3.7 1.3 8.4 5.6 8.6zm13.1-91.8c1.4 0 2.8-.7 3.7-1.7.7-.7.8-1.6.4-2.5-1.2-2.5-4.4-4.9-7.6-5-2.5 0-3.9 1.7-3 4.3.6 2.4 3.9 4.8 6.5 4.9zM361 103.6c.6 3.4 4.8 6.2 7.9 5.5 1.5-.3 2.4-1.4 2.2-3-.2-2.4-1.4-3.9-3.4-5.2-1.8-1.1-3.9-.7-5.2.9-.4.6-1 1.1-1.5 1.8zM185 76.7c.1-1.6-.7-2.9-1.6-4.2-1.3-1.7-3-1.7-4.8-1.5-1.8.2-2.9 1.6-3.6 3.1-.4.9-.2 1.9.7 2.6.6.4 1.1.9 1.6 1.4 1.2 1.1 2.9 1.8 4.5 1.8 1.8 0 3.2-1.3 3.2-3.2zm172.1 39.4c0-1.6-1.1-3.5-3-5.1-1.6-1.4-3.5-1.5-4.9-.3-1.5 1.1-2.1 3.4-1.2 5.1 1 2 2.9 3.3 5.1 3.5 2.1.2 4-1.4 4-3.2zm-143.1-10c-2.8 0-4.2 1.5-3.6 3.5.4 1.2.9 2.3 1.6 3.4.3.5.8.9 1.4 1.1 1.2.3 2.5.6 3.7.7 1.3.2 2.2-.7 3-1.6.7-1 .2-1.9-.2-2.7-.5-.8-1.1-1.6-1.7-2.4-1.2-1.5-2.8-1.9-4.2-2zM250.3 292c.2.7.3 1.6.7 2.3 1.2 1.7 2.9 2.7 5 3.1 1.7.3 3.2-.3 3.9-1.6.8-1.5.7-3.6-.2-4.9-1.6-2-3.8-2.1-6-2.1-2.1-.1-3 1-3.4 3.2zm-21.5-76.7c1.5-.2 2.7-.3 3.4-1.8.7-1.6.6-3-.7-4.2-.4-.4-.8-.9-1.2-1.4-1.6-1.7-3.7-2.1-5.9-1.7-1.3.2-2.3 1.2-2.4 2.3-.1 2.5.7 4.5 3 5.7 1.3.6 2.6.8 3.8 1.1zm96.3-24.9c.5-.1 1.1-.2 1.6-.2 1.3-.3 2.1-1.2 2.1-2.5.2-2.6-2.2-5.6-4.8-5.9-1.2-.2-1.9.2-2.1 1.5-.2 1.1 0 2.2-1.2 2.9-.2.2-.2.9-.2 1.4.5 1.8 2.1 2.8 4.6 2.8zm67.1 48.2c4.4.1 6.2-2.4 4.9-5.8-.2-.5-.5-1-.8-1.5-.7-1.1-1.9-1.6-3-1.2-1.6.6-3.2 1.3-4.7 2.2-1.1.7-1.1 2.3-.4 3.4 1.1 1.8 2.7 2.8 4 2.9zM192.5 79.8c-2 0-2.9 1-3 3-.2 3.6 4.8 6 7.1 5.3 1.7-.5 2.5-2.1 2-3.7-.9-2.8-3.3-4.6-6.1-4.6zm133.9 62.1l2.1-.3c1.8-.7 2.5-2.1 1.7-3.8-1.6-3.2-5.3-4.2-7.7-3.2-1.9.7-2.6 3.1-1.2 4.7 1.4 1.5 3 2.6 5.1 2.6zM256.6 311c.1-3.2-4.2-6.3-7.2-5.2-.5.2-1 .7-1.2 1.3-.7 1.6 0 3 .7 4.3 1.3 2.3 3.9 3.1 6.2 1.9 1-.5 1.5-1.2 1.5-2.3zm118-77.6c.5-.2 1.5-.5 2.4-1 1-.7 1.5-1.6 1.3-2.9-.2-2.2-3.1-4.8-5.3-4.3-1.5.2-2.8 1.1-4.1 1.7-.7.4-1 1.3-.7 2.2.5 1.9 3.9 4.3 6.4 4.3zm95.9 18.6c0-2.8-3.2-5.4-5.8-5-1.8.3-3.3 3-2.4 4.4 1.1 1.6 2.5 3 4.5 3.5 2.3.7 3.7-.5 3.7-2.9zM201.3 95.7c-.4 3.1 3.1 5.9 6.5 5.1 1.6-.4 2.5-1.6 2.3-3.2-.2-2.2-2.4-4.6-4.6-5.2-2.5-.5-4.2.8-4.2 3.3zm41.2 250.2c-.1 1.9 1.8 4.1 3.5 4.3 2.5.2 4.3-1.4 4.3-3.7.1-2.3-1.8-4.4-4.2-4.5-2.1-.3-3.4 1.2-3.6 3.9zm73.3-96.2c2.8.2 4.3-1.5 3.9-3.5-.3-1.9-2.9-4.2-4.8-4.4-1.7-.2-3.8 1.5-3.3 3.3.2.5.2 1.1.2 1.6.2 1.1.7 1.9 1.6 2.2.9.4 1.9.6 2.4.8zM280 141.8c1.1-.1 2.1-.7 2.5-1.8 1-2.5.1-3.9-1.6-5.7-1.4-1.6-5.6-.3-5.8 1.8-.3 3.1 2 5.5 4.9 5.7zm-46.2 102.6c.1-2.1-1.6-4.1-3.5-4.1-2.1 0-4.3 2.1-4.3 4.3-.1 1.9 2 3.5 4.4 3.5 2.2.1 3.4-1.1 3.4-3.7zm11.4 82.4c.4 1 .7 2.1 1.3 3 1 1.6 2.6 1.6 4.3 1.2 1.6-.2 2-1.4 2.2-2.6.5-2-.3-3.3-2.6-4.6-1.1-.7-2.4-.7-3.6-.1-1.2.5-1.4 1.7-1.6 3.1zm237.8-73c-1.6-.1-2.3.2-2.9 1.5-.4 1-.2 2.1 1 2.9 1.1.8 2.5 1.6 3.8 2.1 1.6.6 3.5-1 3.4-2.6-.2-1.6-1.5-3.2-3-3.5-.8-.3-1.6-.4-2.3-.4zM94.5 238.3c-2.1 0-3.1.6-3.6 1.9-.5 1.6-.1 2.5 1.6 3.7 1.4 1.1 3 1 4.6.7 1.1-.2 1.9-.7 2.2-1.9.4-1.1-.1-2.1-.8-2.8-1.3-1.1-2.8-1.4-4-1.6zm279.4-145c-.1 1.8.7 3 2.8 3.5.6.2 1.1.2 1.6.2 2.1-.1 3.3-1.7 2.1-3.5-.8-1.3-1.9-2.4-3.2-3.2-1.8-1.1-3.4-.1-3.4 2.1.1 0 .1.3.1.9zm38.6 146.4c.4-.1.7-.1 1.1-.1 2.5-.3 3.4-2 2.2-4.3-1.1-2.1-1.6-2.4-3.9-2.1-1.6.2-3.4 2-3.4 3.2 0 1.5 1.5 3 3.3 3.2.1.1.4.1.7.1zm-264.1-7.2c1.4 2.3 5.8 3.6 8.1 2.5 1-.5 1.6-1.6 1.2-2.5-.7-1.9-4.2-3.7-6.1-3.1-.5.2-.9.4-1.2.7-.6.7-1.3 1.6-2 2.4zm21.5-.1c1.3.1 2-.2 2.6-1.2s.3-1.9-.2-2.7c-1.3-2.4-3.5-3.2-6.4-2.7-1.6.3-2.2 1.4-1.6 3 .6 1.8 3.2 3.4 5.6 3.6zm125.7 19.5c.2 2.6 1 3.7 3.2 3.7.5 0 1-.1 1.5-.2 2-.6 2.7-2.3 1.6-4.1-.7-1.3-2-2.1-3.4-2.6-1.2-.4-2.4.2-2.7 1.6-.2.4-.2 1-.2 1.6zm152.3-2.6c1.1-.2 2.2-.4 2.9-1.6.7-1.3.2-2.3-.7-3.2-.7-.7-1.5-1.2-2.3-1.8-.8-.6-1.6-.7-2.5-.1-.9.7-1.7 1.5-1.6 2.7.2 1.9 2.2 4 4.2 4zM241.1 366.8c1.6 0 2.9-1.3 3-2.9.1-1.9-1.9-4-3.7-4-1.5-.1-3.3 2.1-3.2 4-.1 1.5 1.8 2.9 3.9 2.9zm61.1-100c-.2-.4-.2-.8-.4-1.2-.8-1.7-2.4-2.5-4.2-2.7-1.7-.2-2.6.4-2.8 2.1-.2 2.5 2.6 5 5.1 4.5 1.5-.1 2.3-.9 2.3-2.7zm-193.3-28.9c-.7.2-1.4.2-2 .5-.4.2-.7.7-.7 1.1-.1 3 3 5.3 5.9 4.4 1.7-.6 2.2-1.9 1.3-3.4-1-1.6-2.5-2.5-4.5-2.6zm98.6-57.1c.1.2.2.7.4 1.1 1 1.5 2.5 2.1 4.3 2.3 1.6.2 2.6-.4 3.1-1.7.6-1.5 0-3-1.5-3.9-1.1-.7-2.6-.7-3.6.3-.7.5-1.5 1.1-2.7 1.9zm-27.3 41.1c-2.5-.1-3 .5-2 2.5l.2.4c1.1 1.9 2.6 3.2 4.8 3.7 1 .2 2.1-.1 2.5-1.1.4-.9.7-2-.2-2.7-1.5-1.4-3.2-2.9-5.3-2.8zm249.6 16.2c-.5.2-1.3.3-2.1.7-1.1.6-1.6 1.5-.9 2.5.7 1.1 1.5 2 2.5 2.7 1.6 1.1 3.5.3 4.1-1.6.6-2.1-1.1-4.3-3.6-4.3zm-287.9.1c-.3-.7-.5-1.8-1.1-2.3-1-.7-2.1-1.3-3.3-1.6-1.7-.4-3 1.2-2.6 2.9.6 2.1 2.5 3.4 4.9 3.2 1.5-.1 1.9-.6 2.1-2.2zm193.5-35.9c2.5.2 3.5-.8 3.1-2.9-.2-.6-.4-1.1-.7-1.7-1.3-2.5-2.6-2.6-4.3-.6-.2.2-.4.4-.6.7-.9 1.2-.7 2.8.5 3.6.7.6 1.6.9 2 .9zm-210.6 40.1c.5-.1 1.2-.1 2-.3 1.5-.5 2.1-2.3 1.1-3.4-1.5-1.7-4.5-2.5-6.5-1.6-.4.2-.9.7-.9 1.1-.1 2.3 1.9 4.2 4.3 4.2zM385.6 82.2c-.4.1-.8.2-1.2.2-1 .3-1.3.9-1 1.9.5 1.7 3.1 3.7 4.9 3.6 1.6 0 2.4-1.1 2.1-2.6-.4-1.7-2.5-3.1-4.8-3.1zm-227.4-22c1.7.1 2.8-.8 2.9-2.2.1-1.6-1.3-3.3-2.8-3.4-1.8-.1-3.6 1.5-3.6 3 0 1.8 1.1 2.5 3.5 2.6zm175.5 114.1c.1-1.7-1.2-3.3-2.8-3.3-1.7-.1-3.2 1-3.2 2.3-.1 2 1.2 3.4 3.1 3.4 1.6.1 2.8-.9 2.9-2.4zm-68.9-54c-.1 2.3 1.1 3.7 3 3.6 1.3-.1 2.2-.7 2-2.1-.2-1.2-.8-2.5-1.5-3.5-.4-.7-1.4-1.1-2.1-.7-.9.3-1.2 1.1-1.3 2-.1.1-.1.5-.1.7zm27.4 6.2c-2.2 0-3.1 1.4-2.1 3.4.6 1.1 1.6 1.8 2.8 2 1.2.2 2.4-.6 2.6-1.8.1-.2.1-.4 0-.6-.1-2.1-1.1-3.1-3.3-3zM235 269.8c0-1.4-.7-2.7-1.8-3.3-1.4-.7-3.1 0-3.1 1.5 0 1 .2 2.1.7 3 .5 1.1 1.5 1.5 2.5 1.1.9-.3 1.6-1.2 1.7-2.3zm-24.8-22.1c1.5 0 2.4-1 2.4-2.8 0-1.5-.7-2.2-1.9-2.2-1.4 0-3.4 1.5-3.4 2.6-.1 1.2 1.3 2.3 2.9 2.4zm290.5 14.2c.1-1-1.2-3-2.1-3.3-.7-.3-2.1.2-2.8 1-.6.7-.6 1.6-.1 2.1.7.8 1.6 1.5 2.5 2 1.1.5 2.4-.6 2.5-1.8zm-299.1-62.8c0-1.6-1.1-2.6-2.8-2.5-1.5 0-2.5.8-2.5 1.9 0 1.4 1.6 2.7 3.4 2.8 1.1 0 1.9-.8 1.9-2.2zm33.3 183.4c.7-.2 1.3-.4 1.8-.7.8-.5 1.1-1.6.6-2.5 0-.1-.1-.1-.1-.1-.7-1-2.5-1.6-3.7-1.1-1.6.6-1.9 2.5-.6 3.4.6.5 1.3.6 2 1zM76.4 241.1c1.2 1.9 3 2.5 5.1 2.3.5-.1 1.2-.5 1.4-.9.2-.4-.2-1.2-.6-1.6-1.4-1.7-4.1-1.5-5.9.2zm138.3-78.3c-1.4-.1-2.4.4-2.5 1.3-.2 1.2.9 2.3 2.3 2.5 1.2.1 2.3-.8 2.4-2v-.1c.2-1.1-.5-1.6-2.2-1.7zm14.9 228.8c-1.7.1-2.4.8-1.9 1.9.4.8.9 1.5 1.6 2 .7.5 2.2 0 2.6-.7.3-.7.1-1.9-.7-2.4-.5-.3-1.3-.6-1.6-.8zM392.6 73c.1 2.1 1.6 2.5 3 3.2 1 .5 1.8.2 2.1-.5.4-.9-.1-1.7-.8-2.1-1.2-.8-2.6-1.4-4.3-.6zm9.6-9.3c-1.1.2-1.5.7-1.2 1.5.3 1 2.1 2.1 3.1 2 .4-.1 1-.4 1.1-.7.1-.3-.1-1.1-.4-1.3-.8-.6-1.7-1.1-2.6-1.5zm-333.1 176c-1.6-2.2-2.4-2.5-3.9-1.4.9 2.3 1.9 2.7 3.9 1.4zm81.5-190.5c-.7 0-1.2.5-1.3 1.3-.1 1 .9 2.1 1.9 2.1.7.1 1.1-.4 1.2-1.1 0-1.1-.8-2.2-1.8-2.3z"/><path fill="#FFC107" d="M277.3 238.9c-2.9-.2-5.8-.4-8.3-2.3-.9-.7-1.7-1.6-2.6-2.4-.4-.4-.7-.9-1.1-1.2-2.4-1.9-2.8-5.4-.7-7.6 2-2.1 4.4-3.9 7.1-5.1 1.8-.8 3.6-.8 5.3.3 1.4.9 2.9 1.7 4.1 2.9 3.5 3.1 4.1 8.6 1.4 12.5-.1.1-.2.2-.2.3-1.1 2.1-2.8 2.9-5 2.6zm-1.4-3.2c2.6-.1 3.6-.9 4.2-3.3 1.1-4.4-.7-6.8-4.3-9.1-.8-.5-1.7-.5-2.5.1-1.1.7-2.4 1.3-3.4 2.1s-2.1 1.6-2.2 3.1c-.1 3 1.4 5.2 4.3 6.2 1.2.4 2.6.6 3.9.9zm2.9-51.1c2.4-.2 4.7.4 6.9 1.2 2.1.8 3.9 2.2 4.9 4.2 1 1.9 2.1 3.9 2.4 5.9.5 4.4-.9 7-6.3 8.5-3.2.9-6.5.8-9.7 0-3.8-.9-6.6-4.1-7.1-7.9-.2-1-.2-2.1-.3-3.1-.6-4 3.7-9.8 9.2-8.8zm2 18.2c1.8-.3 3.7-.5 5.4-1.1 1.8-.7 3.6-1.8 3.8-4 .2-3.4-.8-6.3-3.7-8.4-2-1.5-4.3-2-6.8-2.1-3.3-.2-5.2 1.6-6.6 4.2-.5.8-.7 1.7-.2 2.8.2.4 0 1.1 0 1.6-.3 3 .5 5 3.6 6.2 1.3.3 2.8.4 4.5.8zm28.3-39.7c0 4.3-2.3 7.1-5.7 7.9-6.1 1.5-10.7-1.4-13-5.5-.3-.6-.7-1.2-1.1-1.8-1.5-2.3-1.6-3.8.1-5.8 3-3.8 7.5-5.5 11.6-4.3 2.5.7 4.4 2.1 6 4.3 1.3 1.8 2 3.8 2.1 5.2zm-9.5 5.2c.9-.2 1.8-.2 2.6-.5 3-.9 4.1-3 3.4-6.1-.4-1.6-1.6-2.8-2.5-3.9-1.1-1.3-2.6-1.8-4.3-1.6-1.3.2-2.6.5-3.8 1-2.4 1-3.6 3-3 5 .8 3 3.8 6.2 7.6 6.1zm10.6 52.4c-4.3-.3-7.8-2.2-9.9-5.9-.9-1.6-1.2-3.5-1.6-5.3-.1-.6.3-1.4.7-1.9 1.5-1.6 3.1-3.2 4.8-4.7 1.2-1.1 2.8-1.5 4.4-1.1 5.1.8 9.1 4.8 9.8 10 .3 2.5-1.5 6.1-3.8 7.5-1.9 1-3.3 1.5-4.4 1.4zm4.8-7.2c0-3-1-5.1-2.5-6.8-2.2-2.4-5.7-2.3-7.9.1-.4.4-.7.8-1.1 1.2-2.4 2.1-2.1 5.5.7 7.2.8.5 1.7 1 2.6 1.4 3.3 1.6 4.7 1.3 7.3-1.2.4-.7.8-1.6.9-1.9zm-66.2-1.6c-1.9-.5-3.8-.8-5.6-1.5-2.1-.7-3.9-3.1-3.5-5.5.3-1.7.7-3.4 1.4-4.9 1.6-3 4.5-3.6 7.5-3.8.5 0 1 .2 1.5.2 5.5 1.1 6.2 5.3 5.3 9.3-.2 1.1-1.1 2.1-1.7 3.2-.1.2-.4.2-.4.5-.8 2.2-2.6 2.2-4.5 2.5zm-.1-4.3c2.7 0 4.3-1 4.7-2.8.3-1.7-1.3-3.7-3.4-4.4-2.1-.7-4.1-.4-6 .5-1.2.6-1.6 1.7-1.6 2.9-.1 1.1.4 1.9 1.4 2.4 1.5.8 3.2 1.6 4.9 1.4zm13.4-31.3c-2.6.2-5.2-.9-7.1-3.2-2-2.2-2.1-5-.4-7.5.7-1.1 1.5-2.1 2.3-3 1.8-2 4-2.9 6.7-2.1.8.2 1.7.5 2.6.7 4.3 1.4 6.2 7.1 3.5 10.8-.2.2-.3.4-.5.7-1.7 3.1-2.6 3.6-7.1 3.6zm-.1-3.2c3 .2 5.4-1.6 6.2-3.8.6-1.6-1.1-4.8-2.9-5.2-4.4-1-3.6-1.5-7 1.7-.7.6-1.2 1.3-1.8 2-1.2 1.6-1 2.5.7 3.8 1.4 1 3.1 1.5 4.8 1.5zm2.5 88.5c-1.9.2-3.9-.2-5.4-1.4-2.7-1.9-3.3-5.6-.9-8 1.7-1.7 3.9-3.3 6.6-3.2 2.8.2 5.1 1.5 6.5 3.9 1.4 2.4 1.2 4.8-.5 7.1-1.1 1.6-2.8 1.7-4.4 1.8-.7.1-1.2-.1-1.9-.2zm-3.4-7c-.4 2-.1 3.4 1.5 4.1 1.1.5 2.2.8 3.4 1 2.1.2 4-1.5 3.9-3.5-.1-1.2-.6-2.3-1.5-3.1-1.2-1.1-2.6-1.5-4.3-1.1-2.1.5-3.9 1.2-4.8 3.4l1.8-.8zm-11.9-107.8c3 .2 5.3 2 6.3 4.7l.2.4c.4 1.3 1.3 2.6.2 3.9-1.4 1.6-2.9 2.7-5.3 2.5-3-.2-4.3-2.3-5.7-4.3-2.3-3.2-1.5-5.6 2.3-6.7.5-.2 1.2-.4 2-.5zm-.9 2.3c-.8-.1-1.7.2-2.1 1.1-.4.9-.1 1.8.7 2.5.8.8 1.6 1.7 2.6 2.3.7.4 1.6.6 2.4.6 1.1.1 1.5-.3 1.6-1.4-.2-3-2.2-5.1-5.2-5.1zm87.2 64.1c3.1 0 4.8 1.2 5.7 3.9.1.3.2.7.3 1 1.2 3.6-1 7.1-5.9 7.1-.7-.1-1.2-.3-1.7-.7-1.5-1.1-3-2.4-4.3-3.6-2.2-2.1-2.2-3.5.2-5.2 1.8-1.5 3.9-2.4 5.7-2.5zm-5.1 5.1c1.1 2 2.9 3 4.6 3.9 1.4.8 3.1.7 4.3-.4 1-.9.5-2.2.2-3.3 0-.2-.1-.2-.1-.4-.6-1.8-1.9-2.7-3.7-2.5-2 .1-3.9.8-5.3 2.7zm-68.2 62c-2.1-.7-4.1-1.1-6.1-1.9-.7-.2-1.3-1.1-1.6-1.8-1.1-3.2 1.3-6.8 4.7-7 2-.1 3.9.6 5.3 1.9l.7.7c3 2.4 2.1 4.4.3 6.6-.7 1.2-2 1.2-3.3 1.5zm-.6-2.3c.6-.2 1-.2 1.4-.3 1.9-.7 2.2-2.4.7-3.7-.8-.7-1.8-1.4-2.8-1.6-.9-.2-2.1 0-3 .4-1.1.4-1.5 1.6-1.3 2.6.2.7.9 1.4 1.6 1.6 1.1.5 2.4.7 3.4 1zm48.3-136.1c4.2.3 6.5 3.1 7.5 6.7.3 1.3-.2 2.5-1.4 3.2-.4.2-.8.5-1.2.7-2.9 1.3-4.8.6-6.3-2.3-.5-1.1-1.1-2.1-1.6-3.1-1.3-1.9-.1-5.5 3-5.2zm2.7 9c1.7-.4 2.1-1 1.9-2.7-.2-1.8-2.1-3.6-3.9-3.9-.7-.2-1.2-.1-1.6.6-.3.7-.2 1.2.3 1.8 1.2 1.3 2.2 2.8 3.3 4.2zm39 74.7c.1-3.1 1.6-5.4 4.6-6.2 1.6-.4 3 .1 4.2 1.2 1.7 1.9 2.2 6.2 1.1 8.4-1.2 2.2-3.4 3.1-5.7 1.9-2.1-1.1-4.2-2.5-4.2-5.3zm2.5.8c.8 1.6 2.1 2.3 3.5 2.6 1.1.2 2.2-.5 2.2-1.6 0-1.5-.2-3-.6-4.4-.1-.4-.6-.7-1-1-1.6-.9-3-.3-4 1.8 1.4 1 1.6 1.2 1.4 1.9l-1.5.7zm-114.7-83.1c-4.5.3-6.8-4.3-6.2-8.1.2-1.1.9-1.7 2-1.9 4-.7 7.6 1.2 9.6 5.1.5.9.3 1.7-.2 2.5-1.4 1.8-3.1 2.8-5.2 2.4zm-3.3-7.9c-.2.4-.3.6-.3.7 0 .5 0 1 .1 1.5.2 2.5 1.3 3.7 3.8 3.8 2.1.1 2.9-1.1 1.9-3-1.1-2-3-2.9-5.5-3zm-69.2-73.9c3 .2 6.2 2.5 6.3 6.2.1 2.2-2.5 4.1-4.7 3.5-2.5-.7-4.3-2.1-5.7-4.3-.9-1.3-.7-2.9.5-3.9 1.6-1.2 2.3-1.5 3.6-1.5zm-.3 3c-.4.3-1.1.7-1.3 1.1-.2.4.4 1.1.8 1.5.7.5 1.6.7 2.5 1.1.7.3 1.1.1 1.6-.4.5-.6.3-1.1-.1-1.7-.7-1.2-2.1-1.1-3.5-1.6zM200.7 225c-3.4-.2-5.7-1.3-7.1-3.8-.6-1-.6-1.9-.1-3 2.1-4.2 5.1-4.3 8.4-2.1 1.1.7 2.1 1.6 2.9 2.6 1.6 1.9 1 4.3-1.3 5.3-1.1.7-2.2.8-2.8 1zm-1.1-2c2.5.1 3.8-1.5 2.8-3.4-.7-1.5-2.1-2.5-3.7-2.9-.8-.2-1.7.2-2.1.9-1.1 2 .8 5.4 3 5.4zm143.2-91.9c-2.4-.1-4.1-.7-5.7-1.8-1.2-.9-1.9-2.1-1.6-3.6.2-1.6 1.3-2.6 2.8-3.1 3.5-1.2 8 1.7 8.4 5.4.2 1.2-.2 2-1.5 2.5-1 .3-1.9.5-2.4.6zm-4.9-5c.7 1.9 2.3 2.5 3.9 2.8 1.2.2 1.8-.5 1.6-1.7-.4-1.4-1.5-2.1-2.8-2.5-1.3-.4-2.1.2-2.7 1.4zm-122.4 95c-4.3-.2-7.7-4.9-5.6-8.6.8-1.4 1.8-2.2 3.5-1.9 2.7.5 5.1 1.6 6.3 4.4 1.1 2.5-.2 5.2-3 5.9-.3.1-.7.1-1.2.2zm-.3-2c1.8.1 2.9-1.4 2.4-3s-1.6-2.5-3-3.3c-.7-.3-1.3-.2-1.9.3-1.1 1-1.5 2.2-1.1 3.4.6 1.4 2 2.5 3.6 2.6zm13.4-89.8c-2.7-.1-5.9-2.5-6.6-4.8-.8-2.6.6-4.3 3-4.3 3.2.1 6.4 2.5 7.6 5 .5.9.2 1.8-.4 2.5-.8 1-2.2 1.6-3.6 1.6zm-4.1-6.8c0 3.4 1.9 5.1 5 4.6.4-1.5.4-1.5-.3-2.2-1.3-1.4-2.5-2.6-4.7-2.4zM361 103.6c.6-.7 1.1-1.2 1.6-1.8 1.3-1.7 3.3-2.1 5.2-.9 2 1.2 3.3 2.8 3.4 5.2.1 1.6-.7 2.7-2.2 3-3.4.7-7.5-2.1-8-5.5zm5.2-.7c-1.1.5-1.7 1.3-1.3 2.1.4 1.1 1.5 1.7 2.8 1.7.6-1.8.4-2.4-1.5-3.8zM185 76.7c0 1.9-1.4 3.2-3.3 3.2-1.6 0-3.3-.7-4.5-1.8-.5-.5-1-1-1.6-1.4-.9-.7-1.1-1.6-.7-2.6.7-1.6 1.8-2.9 3.6-3.1 1.8-.2 3.6-.2 4.8 1.5 1.1 1.3 1.7 2.5 1.7 4.2zm-7.3-1.7c1.1 1.4 1.7 1.9 2.7 2.4.7.3 1.3.2 1.8-.4s.3-1.3-.1-1.9c-1.2-1.8-3-1.8-4.4-.1zm179.4 41.1c0 1.9-1.9 3.4-4 3.2-2.2-.2-4.1-1.6-5.1-3.5-.8-1.6-.2-3.9 1.2-5.1 1.4-1.1 3.3-1 4.9.3 1.9 1.5 3 3.4 3 5.1zm-3.1-1.2c-.2-.3-.6-1.2-1.1-1.8-.8-.9-2-.7-2.5.5-.4.9.2 2.5 1.5 3.1 1.3.7 2.1.3 2.1-1.8zm-140-8.8c1.3.2 3 .7 4.2 2.1.7.7 1.2 1.6 1.7 2.4.5.8 1 1.8.2 2.7-.7.9-1.6 1.8-3 1.6-1.2-.2-2.5-.4-3.7-.7-.6-.2-1.1-.6-1.4-1.1-.7-1.1-1.2-2.2-1.6-3.4-.6-2.2.8-3.6 3.6-3.6zm3.3 6.3c-.2-2.1-1.4-3.1-2.9-4-.7-.4-1.2-.4-1.9.2 1.2 1.7 1.9 3.9 4.8 3.8zm33 179.6c.2-2.2 1.2-3.3 3.4-3.3s4.4.1 6 2.1c1 1.3 1.1 3.4.2 4.9-.7 1.3-2.1 2-3.9 1.6-2.1-.3-3.8-1.4-5-3.1-.3-.6-.4-1.5-.7-2.2zm5.1-.9c-.7.2-1.3.3-1.8.6-1 .5-1.2 1.5-.3 2.1.8.6 1.8 1.1 2.8 1.3.9.2 1.6-.2 2-1.1.3-.9-.1-2-.8-2.4-.7-.2-1.3-.3-1.9-.5zm-26.6-75.8c-1.2-.3-2.5-.6-3.7-1.1-2.3-1.1-3.1-3.2-3-5.7.1-1.1 1.1-2.1 2.4-2.3 2.2-.4 4.3 0 5.9 1.7.4.5.8 1 1.2 1.4 1.2 1.2 1.3 2.7.7 4.2-.8 1.5-2 1.7-3.5 1.8zm-2.7-7.3c-.8.1-1.6.2-1.7 1.1-.3 2.1 2.8 4.8 4.8 4.1.3-.2.7-.5.7-.8.3-2.1-1.7-4.4-3.8-4.4zm99-17.6c-2.6 0-4.1-1-4.4-3-.1-.4-.1-1.2.2-1.4 1.2-.7 1.1-1.8 1.2-2.9.2-1.2.7-1.6 2.1-1.5 2.6.2 5 3.3 4.8 5.9-.2 1.3-.8 2.1-2.1 2.5-.7.3-1.2.4-1.8.4zm.5-2.8h.5c.2-.3.4-.7.3-1-.3-.9-1.1-1.3-2.5-1.6l1.7 2.6zm66.6 51c-1.3-.1-3-1-4.1-2.8-.7-1.1-.6-2.8.4-3.4 1.5-.9 3-1.6 4.7-2.2 1.2-.4 2.3.1 3 1.2.3.4.6.9.8 1.5 1.4 3.3-.4 5.7-4.8 5.7zm3.1-3c-.2-.8-.4-1.7-.7-2.5s-1.1-1.1-1.9-.8c-.7.2-1.5.7-1.7 1.2-.4.8.2 1.6.9 2.1 1.1.9 2.1 1.1 3.4 0zM192.5 79.8c2.8 0 5.2 1.9 6.1 4.5.6 1.7-.3 3.2-2 3.7-2.2.7-7.3-1.7-7.1-5.3.1-2 1-3 3-2.9zm-.3 3c-.5 1.1.1 1.8.7 2.2.6.4 1.3.7 2.1.8.9.1 1.3-.8.8-1.6-.9-1.3-2.2-1.6-3.6-1.4zm134.2 59.1c-2.2-.1-3.9-1.1-5.2-2.6-1.4-1.6-.7-3.9 1.2-4.7 2.4-1 6.1 0 7.7 3.2.8 1.6.2 3.1-1.7 3.8-.6.2-1.2.2-2 .3zm-2.2-5.3c-.1.1-.8.2-.9.7-.2.3.2 1.1.6 1.3.7.5 1.6.8 2.5 1.1s1.5-.7 1-1.5c-.6-1-1.5-1.7-3.2-1.6zM256.6 311c0 1.1-.6 1.8-1.5 2.3-2.4 1.2-4.9.4-6.2-1.9-.7-1.4-1.5-2.7-.7-4.3.2-.5.7-1.1 1.2-1.3 3.1-1.1 7.3 2 7.2 5.2zm-4.1.6c.9-.1 1.4-.5 1.3-1.2-.2-1-1-1.7-2-1.8-.7 0-1.2.6-1.1 1.4.1.9.9 1.6 1.8 1.6zm122.1-78.2c-2.5.1-5.9-2.4-6.6-4.3-.3-.9-.1-1.8.7-2.2 1.3-.7 2.7-1.5 4.1-1.7 2.2-.4 5.1 2.1 5.3 4.3.2 1.2-.2 2.2-1.3 2.9-.7.5-1.7.9-2.2 1zm-4-5.1c.8 1.9 2.4 3 4.1 2.9 1.1-.1 1.7-.8 1.2-1.7-1-2.2-3.5-2.7-5.3-1.2zm99.9 23.7c0 2.5-1.4 3.6-3.8 3-2-.6-3.4-1.9-4.5-3.5-.9-1.4.7-4.1 2.4-4.4 2.7-.6 5.9 2.1 5.9 4.9zm-3.2.2c.2-2.1-.6-2.6-2.5-2.1.2 1.3 1.1 1.9 2.5 2.1zm-266-156.5c0-2.5 1.7-3.9 4.2-3.3 2.1.6 4.3 3 4.6 5.2.2 1.6-.7 2.9-2.3 3.2-3.4.8-6.9-2-6.5-5.1zm5.2 3.1c1.1 0 1.8-.7 1.2-1.5-.7-1-1.6-1.8-2.7-2.5-.9-.5-1.7.3-1.6 1.5.3 1.8 1.3 2.5 3.1 2.5zm36 247.1c.2-2.7 1.5-4.1 3.7-4 2.4.2 4.3 2.2 4.2 4.5-.1 2.3-1.9 3.9-4.3 3.7-1.8-.1-3.7-2.4-3.6-4.2zm2.7.8c.2.2.5.8.9.9.8.2 1.8-.7 1.8-1.6 0-.7-.7-1.5-1.4-1.5-.9 0-1.3.6-1.3 2.2zm70.6-97c-.5-.2-1.4-.4-2.3-.7-1-.4-1.5-1.2-1.6-2.2-.1-.6-.1-1.1-.2-1.6-.5-1.9 1.6-3.5 3.3-3.3 1.9.2 4.4 2.5 4.8 4.4.2 1.9-1.3 3.4-4 3.4zm-.8-5.3c-.2.2-.7.7-.8 1.2-.2.9.6 1.6 1.5 1.6s1.6-.6 1.5-1.3c-.1-.7-1-1.5-2.2-1.5zm-35-102.6c-2.9-.2-5.2-2.6-4.9-5.8.2-2.1 4.3-3.4 5.8-1.8 1.7 1.8 2.6 3.2 1.6 5.7-.4 1.3-1.3 1.9-2.5 1.9zm.1-2.6c.5-1.4.3-2.1-.5-2.5-1-.6-1.8-.2-2.5.6.5 1.2 1.5 1.7 3 1.9zm-46.3 105.2c-.1 2.5-1.2 3.7-3.5 3.7-2.5-.1-4.5-1.6-4.4-3.5.1-2.1 2.3-4.3 4.3-4.3s3.7 2.1 3.6 4.1zm-2.5-.1c-.1-1-.5-1.5-1.1-1.5-.7.1-1.4 1-1.4 1.8s.5 1.1 1.2 1.1c1 .1 1.4-.4 1.3-1.4zm13.9 82.5c.2-1.3.5-2.5 1.6-3.1 1.1-.7 2.4-.6 3.6.1 2.4 1.3 3.1 2.6 2.6 4.6-.3 1.2-.7 2.4-2.2 2.6-1.6.3-3.3.3-4.3-1.2-.6-1-.9-2.1-1.3-3zm5.6.7c-.1-.7-1.1-1.7-1.8-1.6-.9.1-1 .8-1 1.5 0 1 .7 1.6 1.5 1.6.8-.1 1.3-.7 1.3-1.5zM483 253.8c.7.1 1.6.2 2.2.3 1.6.4 3 2 3 3.5.2 1.6-1.8 3.2-3.4 2.6-1.4-.5-2.6-1.2-3.8-2.1-1.1-.8-1.4-1.9-1-2.9.7-1.2 1.5-1.5 3-1.4zm1.9 2.7l-.3.2.7.8.3-.2-.7-.8zM94.5 238.3c1.3.2 2.8.5 3.9 1.6.7.7 1.2 1.7.8 2.8-.3 1.1-1.1 1.6-2.2 1.9-1.6.3-3.1.4-4.6-.7-1.6-1.2-2.1-2.1-1.6-3.7.5-1.3 1.6-1.9 3.7-1.9zm-1.3 3.1c.7.6 1.3 1 1.9 1.3.3.2 1.1-.2 1.1-.3.1-.5-.1-1.1-.3-1.4-.7-.8-1.6-.7-2.7.4zM373.9 93.3v-1.1c0-2.1 1.6-3.2 3.4-2.1 1.3.8 2.4 1.9 3.2 3.2 1.1 1.8 0 3.5-2.1 3.5-.6 0-1.1-.1-1.6-.2-2.1-.3-3-1.5-2.9-3.3zm3.4 1.2l.4-.2-.5-.8-.3.2.4.8zm35.2 145.2c-.2 0-.6-.1-.8-.1-1.8-.3-3.3-1.7-3.3-3.2 0-1.2 1.8-3 3.4-3.2 2.4-.3 2.9-.1 3.9 2.1 1.2 2.3.3 4-2.2 4.3-.3.1-.6.1-1 .1zm1.2-2.7c-.3-1.1-.7-1.7-1.8-1.4-.2.1-.5.5-.5.7.2.9.9 1.1 2.3.7zm-265.3-4.5c.7-.8 1.3-1.7 2.1-2.5.3-.3.7-.6 1.2-.7 1.9-.6 5.4 1.3 6.1 3.1.3.9-.2 2.1-1.2 2.5-2.3 1.2-6.8-.1-8.2-2.4zm6.8.6c0-1-.7-1.7-1.7-1.8-.7-.1-1.2.3-1.2 1.1-.1.7.9 1.4 1.8 1.3.3-.1.8-.4 1.1-.6zm14.7-.7c-2.4-.2-5-1.8-5.6-3.6-.6-1.6 0-2.7 1.6-3 2.9-.6 5.1.3 6.4 2.7.5.9.7 1.8.2 2.7-.7.9-1.3 1.2-2.6 1.2zm.5-2.9c-.1-1.4-1.1-2.2-2.4-2.2-.8 0-1.4.5-1.3 1.2.1.9 1.6 2.1 2.6 1.9.5-.1.8-.7 1.1-.9zm125.2 22.4c.1-.6 0-1.1.2-1.6.3-1.3 1.5-2 2.7-1.6 1.4.5 2.6 1.2 3.4 2.6 1 1.8.3 3.5-1.6 4.1-.5.2-1 .2-1.5.2-2.2 0-3.1-1-3.2-3.7zm2.3-.2l1.3 1.2c.2-.2.4-.4.4-.6 0-.7-.4-1.1-1.7-.6zm150-2.4c-2 0-4-2-4.2-3.9-.1-1.3.7-2.1 1.6-2.7.8-.7 1.7-.5 2.5.1s1.6 1.1 2.3 1.8c.8.9 1.5 1.9.7 3.2-.7 1-1.8 1.3-2.9 1.5zm-1.4-4.2c.3 1.1.7 1.6 1.8 1.6 0-1.1-.5-1.6-1.8-1.6zM241.1 366.8c-2.1 0-3.9-1.4-4-3-.1-1.8 1.7-4 3.2-4 1.8.1 3.8 2.1 3.7 4 0 1.8-1.3 3-2.9 3zm-.8-2.2c.4-.4.7-.7.9-1.1.1-.2-.3-.5-.5-.7l-1.1.9.7.9zm61.9-97.8c-.1 1.7-.7 2.5-2.4 2.8-2.5.4-5.2-2.1-5.1-4.5.2-1.7 1.1-2.4 2.8-2.1 1.8.2 3.4.9 4.2 2.7.2.3.4.7.5 1.1zm-3.1.8c.2-.2.6-.5.6-.8 0-.9-.7-1.3-1.5-1.5-.7-.1-1 .4-1.1 1 .1.6 1 1.3 2 1.3zm-190.2-29.7c2 .2 3.5 1 4.5 2.7.9 1.6.4 2.9-1.3 3.4-2.8.9-6-1.5-5.9-4.4.1-.5.3-.9.7-1.1.6-.4 1.4-.5 2-.6zm.4 2.5c-.2.7-.1 1.5.8 1.7.2.1.8-.3.8-.6.1-.9-.6-1.1-1.3-1.1 0-.1-.1 0-.3 0zm98.2-59.6c1.1-.8 2-1.4 2.7-2 1.1-.9 2.5-1.1 3.6-.3 1.5 1 2 2.5 1.5 3.9s-1.5 1.9-3.1 1.7c-1.7-.2-3.2-.8-4.3-2.3-.2-.3-.3-.8-.4-1zm3.7.2l.1.7c.5.2 1.1.7 1.6-.1.1-.2-.1-.5-.1-.7l-1.6.1zm-31 40.9c2.1-.2 3.8 1.3 5.3 2.8.7.7.5 1.9.2 2.7-.5 1-1.5 1.3-2.5 1.1-2.1-.5-3.7-1.8-4.8-3.7l-.2-.4c-1-2-.6-2.5 2-2.5zm2.9 4.9c.2-2.1-.1-2.5-2-2.1-.1 1.2.7 1.7 2 2.1zm246.7 11.3c2.5 0 4.3 2.2 3.6 4.3-.6 1.9-2.5 2.7-4.1 1.6-1-.7-1.9-1.6-2.5-2.7-.7-1.1-.2-2 .9-2.5.8-.4 1.6-.5 2.1-.7zm1.5 3.9c-.7-1.4-.7-1.4-1.9-1.1.3.7.7 1.3 1.9 1.1zm-289.4-3.8c-.2 1.6-.6 2.1-2.1 2.1-2.5.2-4.4-1.1-4.9-3.2-.4-1.6.9-3.3 2.6-2.9 1.2.3 2.4.8 3.3 1.6.5.6.7 1.6 1.1 2.4zm-2.7.4c-.1-.9.1-1.7-1-2-.2 0-.5.2-.6.4-.1.9.2 1.5 1.6 1.6zm196.2-36.3c-.3-.2-1.2-.3-2-.8-1.2-.9-1.4-2.5-.5-3.6.2-.2.3-.4.6-.7 1.7-2.1 3-1.9 4.3.6.3.5.6 1.1.7 1.7.4 2-.5 3-3.1 2.8zm.1-2.3c.2-.2.4-.3.6-.5-.1-.2-.2-.3-.2-.4-.2.2-.5.2-.7.4l.3.5zm-210.7 42.4c-2.5 0-4.3-1.8-4.3-4 0-.4.5-1 .9-1.1 2.1-.9 5-.2 6.5 1.6.9 1.1.4 2.9-1.1 3.4-.7 0-1.6 0-2 .1zm-1.9-3.6c.6.9.8 1.5 1.2 1.7.3.2 1.1 0 1.3-.3.4-.5.1-1.1-.5-1.2-.4-.2-1-.1-2-.2zM385.6 82.2c2.3-.1 4.4 1.5 4.8 3.2.3 1.6-.5 2.5-2.1 2.6-1.8 0-4.4-1.9-4.9-3.6-.2-1 .1-1.6 1-1.9.4-.2.8-.2 1.2-.3zm1.9 2.7c-.2-.1-.3-.2-.5-.2-.1 0-.2.2-.3.4.2.2.3.2.5.3 0-.2.2-.3.3-.5zM158.2 60.2c-2.5-.1-3.5-.8-3.5-2.6 0-1.6 1.8-3 3.6-3 1.5 0 2.9 1.7 2.8 3.4-.1 1.4-1.2 2.3-2.9 2.2zm175.5 114.1c-.1 1.5-1.2 2.5-2.9 2.4-1.9-.1-3.2-1.5-3.1-3.4.1-1.3 1.6-2.4 3.2-2.3 1.5 0 2.8 1.6 2.8 3.3zm-68.9-54v-.8c.1-.9.4-1.6 1.3-2 .8-.3 1.7 0 2.1.7.7 1.1 1.2 2.3 1.5 3.5.2 1.3-.7 2.1-2 2.1-1.8.2-2.9-1.2-2.9-3.5zm27.4 6.2c2.2 0 3.3.9 3.4 3 .1 1.2-.8 2.4-2.1 2.5h-.6c-1.2-.2-2.2-.9-2.8-2-1.1-2.1-.2-3.5 2.1-3.5zM235 269.8c-.1 1.1-.7 2-1.7 2.3-1.1.3-2.1 0-2.5-1.1-.4-.9-.7-2-.7-3 0-1.5 1.7-2.2 3.1-1.5 1 .7 1.8 1.9 1.8 3.3zm-24.8-22.1c-1.6 0-3-1.1-2.9-2.4.1-1.1 2-2.6 3.4-2.6 1.2 0 1.9.7 1.9 2.2 0 1.7-.9 2.8-2.4 2.8zm290.5 14.2c-.1 1.2-1.4 2.3-2.5 1.7-1-.5-1.9-1.1-2.5-2-.5-.6-.5-1.4.1-2.1.7-.8 2-1.3 2.8-1 .9.4 2.2 2.4 2.1 3.4zm-299.1-62.8c0 1.3-.8 2.1-2.1 2.1-1.7-.1-3.4-1.4-3.4-2.8 0-1.1 1.1-1.8 2.5-1.9 1.9.1 3 1.1 3 2.6zm33.3 183.4c-.7-.3-1.4-.5-2-.9-1.4-1-1.1-2.8.6-3.4 1.2-.5 3 .1 3.7 1.1.6.7.4 1.9-.3 2.5-.1 0-.1.1-.1.1-.6.1-1.2.2-1.9.6zM76.4 241.1c1.7-1.7 4.4-1.9 5.9-.3.4.4.7 1.1.6 1.6-.2.5-.8.9-1.4.9-2.1.4-3.8-.3-5.1-2.2zm138.3-78.3c1.7.1 2.3.6 2.2 1.7-.1 1.2-1.1 2.1-2.4 2.1h-.1c-1.4-.2-2.5-1.2-2.3-2.5.3-.8 1.2-1.3 2.6-1.3zm14.9 228.8c.3.2 1.1.4 1.7.9.7.5 1 1.8.7 2.4-.3.7-2 1.1-2.6.7-.7-.5-1.2-1.2-1.6-2-.5-1.2 0-2 1.8-2zM392.6 73c1.7-.7 3-.2 4.3.6.7.4 1.2 1.1.8 2.1-.3.7-1.1 1.1-2.1.5-1.3-.7-2.9-1.2-3-3.2zm9.6-9.3c.9.5 1.8.9 2.6 1.5.3.2.5.9.4 1.3-.1.4-.7.7-1.1.7-1 .2-2.8-1-3.1-2-.3-.8.2-1.2 1.2-1.5zM69 239.7c-2 1.3-3 .9-3.9-1.4 1.6-1.1 2.3-.9 3.9 1.4zm81.6-190.5c1 .1 1.8 1.1 1.7 2.3-.1.7-.4 1.1-1.2 1.1-1-.1-2-1.1-1.9-2.1.2-.8.6-1.2 1.4-1.3z"/><path fill="none" d="M275.9 235.7c-1.3-.3-2.7-.6-4-1-2.9-.9-4.3-3.2-4.3-6.2.1-1.6 1.2-2.3 2.2-3.1 1-.8 2.2-1.4 3.4-2.1.8-.5 1.7-.6 2.5-.1 3.7 2.3 5.5 4.7 4.3 9.1-.5 2.5-1.5 3.3-4.1 3.4zm4.9-32.9c-1.6-.3-3.1-.4-4.5-1-3.1-1.2-3.9-3.2-3.6-6.2.1-.5.2-1.1 0-1.6-.5-1-.2-1.9.2-2.8 1.4-2.5 3.2-4.3 6.6-4.2 2.5.2 4.8.7 6.8 2.1 2.8 2.1 3.9 5 3.7 8.4-.2 2.2-1.9 3.4-3.8 4-1.8.8-3.6.9-5.4 1.3zm18.8-34.5c-3.9.1-6.7-3.1-7.6-6.1-.7-2 .7-4 3-5 1.2-.5 2.5-.8 3.8-1 1.6-.2 3.1.2 4.3 1.6 1.1 1.2 2.1 2.3 2.5 3.9.7 3.1-.3 5.2-3.4 6.1-.8.3-1.8.4-2.6.5zm15.4 45.2c-.2.3-.5 1.1-1.1 1.7-2.6 2.5-4 2.8-7.3 1.2-.9-.4-1.7-.8-2.6-1.4-2.7-1.6-3-5.1-.7-7.2.4-.4.8-.7 1.1-1.2 2.2-2.4 5.7-2.5 7.9-.1 1.8 2 2.7 4 2.7 7zm-66.3-5.9c-1.7.1-3.4-.6-5-1.4-.9-.5-1.5-1.3-1.4-2.4.2-1.1.5-2.4 1.6-2.9 1.9-.9 3.9-1.3 6-.5 2.1.7 3.7 2.7 3.4 4.4-.3 1.8-1.8 2.9-4.6 2.8zm13.3-34.5c-1.7 0-3.4-.5-4.8-1.5-1.7-1.2-1.9-2.1-.7-3.8.6-.7 1.1-1.4 1.8-2 3.3-3.2 2.5-2.7 7-1.7 1.8.4 3.4 3.5 2.9 5.2-.8 2.3-3.3 3.9-6.2 3.8zm-.9 81.5l-1.7.8c.9-2.2 2.7-2.9 4.8-3.4 1.6-.4 3 0 4.3 1.1.9.7 1.5 1.9 1.6 3.1.1 2.1-1.8 3.8-3.9 3.5-1.1-.2-2.3-.5-3.4-1-1.7-.7-2-2.1-1.7-4.1zm-12.8-105.5c3 0 5 2.1 5 5.1 0 1.1-.3 1.5-1.6 1.4-.8-.1-1.7-.2-2.4-.6-1-.7-1.8-1.5-2.6-2.3-.7-.7-1-1.6-.7-2.5.5-1 1.4-1.2 2.3-1.1zm82.1 69.2c1.5-1.9 3.3-2.5 5.3-2.8 1.9-.2 3.2.7 3.7 2.5.1.2.1.2.1.4.2 1.1.7 2.5-.2 3.3-1.2 1.1-3 1.2-4.3.4-1.7-1-3.6-2-4.6-3.8zM261.6 278c-1.1-.3-2.3-.5-3.4-1-.7-.3-1.5-1-1.6-1.6-.2-1 .2-2.1 1.3-2.6.9-.3 2.1-.6 3-.4 1 .2 2.1.9 2.8 1.6 1.6 1.3 1.2 3-.7 3.7-.3.1-.8.2-1.4.3zm51-127.1c-1.1-1.4-2.1-2.8-3.2-4.1-.6-.7-.7-1.1-.3-1.8s.9-.7 1.6-.6c1.8.3 3.6 2.1 3.9 3.9.1 1.5-.3 2.1-2 2.6zm41.5 75.5l1.6-.8c.2-.7.1-.9-1.4-1.9 1-2.1 2.4-2.7 4-1.8.4.2.9.7 1 1 .2 1.5.6 3 .6 4.4 0 1.1-1.1 1.9-2.2 1.6-1.5-.2-2.7-1-3.6-2.5zm-118-91c2.5 0 4.3 1 5.4 3 1 1.8.2 3-1.9 3-2.5-.1-3.6-1.1-3.8-3.8 0-.5-.1-1-.1-1.5.2 0 .3-.3.4-.7zm-69.5-70.9c1.4.5 2.7.4 3.5 1.6.3.6.6 1.1.1 1.7-.5.6-.9.7-1.6.4-.8-.4-1.7-.7-2.5-1.1-.4-.3-.9-1.1-.8-1.5.1-.5.9-.8 1.3-1.1zm33 158.5c-2.2-.1-4.1-3.5-3-5.4.4-.7 1.3-1.1 2.1-.9 1.6.4 3 1.4 3.7 2.9 1 1.9-.3 3.5-2.8 3.4zm138.3-96.9c.6-1.2 1.4-1.8 2.7-1.5 1.3.4 2.5 1 2.8 2.5.3 1.2-.2 1.9-1.6 1.7-1.6-.2-3.1-.8-3.9-2.7zm-122.7 93c-1.6-.1-3.1-1.1-3.7-2.6-.4-1.1.1-2.4 1.1-3.4.6-.6 1.2-.7 1.9-.3 1.4.7 2.5 1.7 3 3.3.7 1.6-.5 3-2.3 3zm9.3-96.6c2.1-.2 3.4 1.1 4.7 2.4.7.7.7.7.3 2.2-3.1.4-5-1.2-5-4.6zm141.7-19.6c1.9 1.5 2.1 2.1 1.4 3.9-1.2-.1-2.3-.7-2.8-1.7-.3-1 .3-1.8 1.4-2.2zM177.7 75c1.6-1.6 3.3-1.6 4.4.1.4.6.6 1.2.1 1.9s-1.1.7-1.8.4c-1.1-.5-1.8-1-2.7-2.4zM354 114.9c0 2.1-.7 2.5-2.1 1.7-1.1-.7-1.9-2.1-1.5-3.1.6-1.1 1.6-1.4 2.5-.5.5.7.8 1.6 1.1 1.9zm-136.7-2.5c-2.9.1-3.5-2.1-4.7-3.9.6-.6 1.2-.6 1.9-.2 1.4.9 2.6 2 2.8 4.1zm38.1 178.7c.6.2 1.2.3 1.7.6.7.4 1.1 1.5.8 2.4-.3.9-1.1 1.4-2 1.1-1-.2-2-.7-2.8-1.3-.9-.7-.7-1.6.3-2.1.7-.4 1.4-.5 2-.7zM226.1 208c2.1 0 4.2 2.4 3.9 4.3-.1.4-.4.7-.7.8-2 .7-5.1-2-4.8-4.1.1-.9.8-1 1.6-1zm99.5-20.4l-1.6-2.5c1.4.2 2.1.6 2.5 1.6.1.2-.2.7-.3 1l-.6-.1zm69.7 48c-1.4 1.1-2.5.8-3.5.2-.7-.5-1.3-1.3-.9-2.1.2-.6 1.1-1 1.7-1.2.8-.3 1.6.1 1.9.8.4.7.6 1.5.8 2.3zM192.2 82.8c1.5-.2 2.7.2 3.6 1.5.6.7.2 1.6-.8 1.6-.7-.1-1.5-.3-2.1-.8-.6-.6-1.2-1.3-.7-2.3zm132 53.8c1.7-.2 2.5.6 3 1.6.5.7-.1 1.6-1 1.5-.8-.2-1.6-.6-2.5-1.1-.3-.2-.7-1-.6-1.3.3-.4 1-.7 1.1-.7zm-71.7 175c-.9.1-1.7-.6-1.8-1.6-.1-.8.4-1.4 1.1-1.4 1 0 1.9.8 2 1.8.1.7-.4 1.1-1.3 1.2zm118.1-83.3c1.9-1.5 4.3-.9 5.3 1.1.5 1-.1 1.7-1.2 1.7-1.8.1-3.3-1-4.1-2.8zm96.7 23.9c-1.4-.2-2.3-.7-2.5-2.1 2-.6 2.6 0 2.5 2.1zM206.5 98.8c-1.8 0-2.8-.8-3-2.5-.2-1.1.7-2 1.6-1.5 1.1.6 2 1.5 2.7 2.5.5.8-.1 1.5-1.3 1.5zm38.7 247.9c0-1.5.5-2.1 1.3-2.1.7 0 1.4.7 1.4 1.5s-.9 1.8-1.8 1.6c-.5-.3-.8-.8-.9-1zM315 244.4c1.1-.1 2.1.7 2.1 1.5.1.7-.6 1.3-1.5 1.3s-1.6-.7-1.5-1.6c.3-.4.8-.9.9-1.2zm-34.9-105.2c-1.4-.2-2.5-.7-3-2 .7-.8 1.6-1.1 2.5-.6.8.5 1 1.2.5 2.6zm-48.8 105.1c.1 1-.3 1.5-1.2 1.5-.7 0-1.2-.2-1.2-1.1s.7-1.8 1.4-1.8c.6 0 1 .5 1 1.4zm19.5 83.2c.1.8-.5 1.4-1.4 1.5-.9 0-1.5-.6-1.5-1.6 0-.7.1-1.4 1-1.5.8-.1 1.8.8 1.9 1.6zm234.1-71l.7.8-.3.2-.7-.8.3-.2zM93.2 241.4c1.1-1.1 2-1.1 2.7-.4.3.2.4.9.3 1.4 0 .2-.8.4-1.1.3-.6-.3-1.1-.8-1.9-1.3zM377.3 94.5l-.4-.9.3-.2.5.8-.4.3zM413.7 237c-1.5.3-2.2.2-2.3-.6 0-.2.2-.7.5-.7 1.1-.3 1.6.4 1.8 1.3zm-258.5-3.9c-.3.2-.7.5-1.1.5-.9.1-1.9-.6-1.8-1.3.1-.7.5-1.1 1.2-1.1.9.2 1.7 1 1.7 1.9zm15.2-3.6c-.2.2-.6.8-1 .9-1 .2-2.5-.9-2.6-1.9-.1-.7.4-1.2 1.3-1.2 1.1 0 2.2.8 2.3 2.2zm127.5 22.2c1.3-.5 1.7-.1 1.8.7 0 .2-.2.4-.4.6l-1.4-1.3zm148.6-6.6c1.3 0 1.8.5 1.8 1.6-1.1.1-1.5-.5-1.8-1.6zM240.3 364.6l-.7-.9 1.1-.9c.2.2.6.6.5.7-.1.4-.5.7-.9 1.1zm58.8-97c-1.1-.1-2-.7-1.9-1.3.1-.6.3-1.1 1.1-1 .8.2 1.5.6 1.5 1.5-.1.3-.5.7-.7.8zm-189.8-27.2c.1 0 .2-.1.3-.1.7.1 1.4.3 1.3 1.1 0 .2-.6.7-.8.6-.9-.1-.9-.9-.8-1.6zM211.2 181l1.6-.2c0 .2.2.6.1.7-.5.7-1 .3-1.6.1l-.1-.6zm-28.1 45.8c-1.3-.4-2.1-.9-2-2.1 1.9-.4 2.3 0 2 2.1zM431.2 242c-1.1.2-1.6-.3-1.9-1.1 1.2-.3 1.2-.3 1.9 1.1zm-292-3.4c-1.4-.1-1.7-.7-1.6-1.6.2-.2.3-.4.6-.4 1.1.2 1 1 1 2zM335.5 200l-.4-.5c.2-.2.5-.3.7-.4.2.1.2.2.2.4s-.2.4-.5.5zm-212.6 38.8c1.1.1 1.6 0 2.1.2.6.2.9.7.5 1.2-.2.3-1 .5-1.3.3-.5-.2-.7-.8-1.3-1.7zM387.5 84.9c-.1.2-.2.3-.3.5-.2-.1-.3-.2-.5-.3.1-.2.2-.4.3-.4.1 0 .3.1.5.2z"/></svg>