<?xml version="1.0" encoding="utf-8"?>
<!-- Generator: Adobe Illustrator 19.2.1, SVG Export Plug-In . SVG Version: 6.00 Build 0)  -->
<svg version="1.1" id="Layer_1" xmlns="http://www.w3.org/2000/svg" xmlns:xlink="http://www.w3.org/1999/xlink" x="0px" y="0px"
	 viewBox="0 0 537.8 443.8" enable-background="new 0 0 537.8 443.8" xml:space="preserve">
<title>starfish</title>
<path fill="none" d="M0,0h537.8v443.8H0C0,295.8,0,148,0,0z M208.8,264.4c0.7,1.8,1.4,3.4,1.1,5.3c-0.6,4.1-1.1,8.3-1.6,12.4
	c-0.2,2-0.4,4-0.3,6c0.2,4.1,0.4,8.2-0.1,12.3c-0.4,3.2-0.7,6.5-0.9,9.8c-0.3,4-0.5,8-0.7,12.1c-0.1,2.9,0.2,5.7-0.2,8.5
	c-0.3,3.3-0.9,6.6-1.4,9.9c-0.4,2.8-0.6,5.6-1.2,8.3c-0.7,3.2-0.7,6.3-0.7,9.5c0,1.9-0.1,3.8-0.2,5.6c-0.3,3.8-0.7,7.6-0.9,11.4
	c-0.2,4.5-0.3,9-0.5,13.5c-0.2,3.8-0.6,7.5-0.8,11.2c-0.2,3.4-0.2,6.8-0.3,10.2c0,0.9,0.1,1.8,0.2,2.7c0.2,1.8,0.6,3.5,0.8,5.3
	c0.2,1.8,0.7,3.5,2,4.9c1.1,1.1,2.1,2.1,3.2,3.2c2.3,2.1,4.9,3.4,8.1,3.1c0.9-0.1,1.8,0.1,2.7,0.1c1.7-0.1,3.6,0.1,5.2-0.5
	c4.4-1.6,9.1-2.6,13.3-4.9c1.1-0.7,2.3-1.3,3.4-2c3.9-2.4,7.7-4.9,10.5-8.8c0.4-0.5,0.8-1,1.2-1.4c2.8-3.2,5.2-6.6,7.3-10.4
	c2.5-4.3,4.8-8.8,7.3-13.1c2.7-4.8,5.5-9.4,8.1-14.1c3.4-6.1,6.7-12.1,10-18.3c0.7-1.3,1.6-2.7,2.1-4c1.8-4.1,3.7-8.3,5.4-12.4
	c1.4-3.4,2.6-6.7,3.9-10.1c1.1-3,2.1-6.2,3.4-9.2c1.5-3.9,3.2-7.7,4.6-11.6c2.5-7.1,6.4-13.5,9.8-20c1.1-2.1,3-3.8,4.4-5.7
	c2.8-4,6-7.7,9.5-11c2.2-2.1,4.7-3.8,7.6-4.8c2.8-1.1,5.4-2.5,8.4-2.8c1.1-0.2,2.4-0.2,3.5-0.3c4.2-0.3,8.3-0.7,12.5,0.1
	c1.7,0.3,3.4,0.3,5.2,0.3c3.8,0.1,7.5-0.2,11.2,0.1c2.9,0.2,5.7,0.6,8.6,0.9c5.2,0.6,10.5,1.1,15.7,1.6c1.6,0.2,3.2,0.2,4.8,0.3
	c3,0.3,5.9,0.8,8.9,1.1c4.8,0.4,9.7,0.6,14.5,0.9c3.4,0.2,6.8,0.6,10.2,0.9c4.1,0.4,8.1,1.1,12.1,2.3c2.8,0.8,5.6,1.6,8.4,2.5
	c2.4,0.7,4.8,1.6,7.1,2.1c2,0.5,4.1,0.8,6.1,1.3c3.1,0.7,6.2,1.6,9.3,2.5c2.7,0.7,5.3,1.4,8,2.1c2.1,0.6,4.1,1.2,6.2,1.9
	c3.3,1,6.7,1.1,10.1,0.3c2.3-0.5,4.8-0.9,6.7-2.1c3.5-1.9,6.8-4,10-6.4c2.9-2.2,4.7-5.3,3.9-9.2c-0.6-3-1.4-5.8-2.2-8.7
	c-0.6-1.9-1.3-3.7-2.1-5.4c-0.9-2.4-1.7-4.8-2.8-7c-2-3.8-4.8-7-7.6-10.1c-4.2-4.7-8.9-8.9-13.9-12.5c-1.3-1-2.7-2-4-2.9
	c-1.2-0.9-2.4-1.9-3.8-2.5c-3-1.4-6-2.6-9-3.8c-5.9-2.2-11.7-4.7-17.8-6.5c-5.7-1.7-11.3-3.2-17.1-4.7c-6.7-1.8-13.5-3.2-20.3-4.5
	c-5.7-1.1-11.5-2-17.2-3c-7.1-1.3-14.3-2.5-21.3-4c-5.9-1.3-11.7-3-17.6-4.4c-3.6-0.9-7.1-2.2-10.3-4c-1.1-0.7-2.2-1.6-3.1-2.7
	c-1.4-1.6-1.2-3.4-0.2-5c0.8-1.3,1.9-2.6,2.9-3.9c0.7-1,1.6-2.1,3-1.6c1-3,2.2-4.8,5-7.2c3.4-3,6.4-6.5,9.4-10.1
	c2.6-3.2,5.6-6.2,8.4-9.3c1.1-1.2,2.2-2.5,3.3-3.8c1.6-1.9,3-3.8,4.8-5.6c3.2-3.3,6.6-6.4,9.3-10.2c4.1-5.7,8.7-11.2,12.9-16.9
	c2.6-3.4,5.1-7,7.4-10.6c2.1-3.2,4-6.5,6-9.8c1.2-2.1,2.5-4,3.5-6.2c1.5-3,2.1-6.3,3.9-9.2c0.3-0.6,0.5-1.3,0.7-2
	c0.8-2.3,1.6-4.6,2.5-6.8c1.5-4,3.1-8,4.4-12.1c0.7-2.1,0.8-4.3,1.1-6.6c0.6-4.1,0.9-8.1-0.2-12.2c-0.2-0.7-0.1-1.6-0.2-2.3
	c-0.3-2-0.7-3.9-3.1-4.3c-0.3-0.1-0.7-0.2-0.9-0.4c-2.1-1.2-4.4-2.1-6.9-2.3c-5.9-0.6-11.8-0.2-17.6,1.5c-4.4,1.3-8.5,3.4-12.7,5.3
	c-2.1,0.9-4.1,1.7-6.1,2.8c-4.1,2.3-8.2,4.8-12.3,7.1c-3.9,2.2-7.7,4.4-11.5,6.8c-5,3-10.1,5.8-14.8,9.4c-1.8,1.4-3.9,2.5-5.7,3.8
	c-2.7,1.8-5.2,3.9-8.1,5.5c-6.3,3.4-11.6,8-17.1,12.5c-3.5,3-7,6-10.3,9c-3.7,3.3-7.4,6.6-11.1,9.8c-2.5,2.3-5.6,3.9-8.8,5.1
	c-3.7,1.3-7.6,1.6-11.5,1.7c-0.5,0-0.9-0.2-1.3-0.3c-0.9-0.5-1.6-1.1-2.5-1.6c-2.7-1.6-5.4-3.1-8.1-4.7c-2.5-1.5-4.8-3-7.2-4.5
	c-0.8-0.5-1.9-0.7-2.6-1.2c-2.7-1.8-5.3-3.7-8-5.6c-3.2-2.2-6.5-4.4-9.7-6.7c-2.8-2-5.5-4-8.2-6.1c-1.3-1-2.5-2.2-4-3
	c-3.6-1.9-7.4-3.6-10.7-5.8c-1.2-0.8-2.5-1.6-3.8-2.2c-3.7-2-7.3-3.9-11-5.9c-3.4-1.8-6.6-3.8-10.1-5.4c-3.1-1.5-6.2-3-9.1-4.9
	c-0.9-0.7-2.1-1.1-3.2-1.5c-3.4-1.4-6.8-2.6-10.3-4c-3-1.1-5.9-2.5-8.9-3.5c-2.4-0.8-4.8-1.5-7.1-2.3c-0.5-0.2-1-0.3-1.3-0.6
	c-1.1-0.9-2.5-1.1-3.9-1.3c-1.3-0.2-2.6-0.3-3.9-0.6c-3.7-0.7-7.2-0.7-10.8,0.9c-5.2,2.4-7.8,6.6-8.3,12.1c-0.3,3.4,0.4,6.9,1,10.3
	c1,5.2,2.8,10.2,5,14.9c1.2,2.6,2.6,5.2,3.9,7.8c1.6,3.4,3.2,7,4.9,10.4c2.5,5.1,5.3,10.1,7.9,15.2c2.4,4.8,4.6,9.5,6.9,14.3
	c2,4.2,3.9,8.3,5.7,12.5c0.6,1.2,0.9,2.5,1.4,3.7c2.6,5.7,5.3,11.5,8,17.2c2.1,4.5,4.1,9.1,6.1,13.7c1.6,3.7,3.1,7.5,4.5,11.2
	c1,2.6-0.1,5.2-2.6,6.2c-5.1,2.1-10.2,4.1-15.3,5.9c-5.1,1.8-10.3,3.3-15.5,4.9c-1.6,0.5-3.1,0.8-4.5,1.5c-4.1,2-8.5,3-12.9,4.1
	c-5,1.3-10,2.2-15,3.4c-2.1,0.5-4,1-6.1,1.6c-4.4,1.1-8.9,2.4-13.4,3.3c-3.9,0.8-8,1.2-11.9,1.9c-4.7,0.8-9.2,2.2-13.9,2.6
	c-0.7,0.1-1.2,0.3-1.8,0.6c-1.3,0.7-2.7,0.9-4.2,1c-2,0.2-4,0.4-6,0.7c-1.5,0.2-3,0.7-4.4,1.1c-1.8,0.4-3.7,0.7-5.5,1.1
	c-3,0.6-5.8,1.2-8.8,1.7c-2.1,0.4-4.3,0.6-6.6,0.9c-2.8,0.3-5.2,1.6-7.3,3.4c-2.3,1.8-4.3,3.5-5.1,6.7c-0.8,3.5-0.2,6.4,1.5,9.4
	c2.1,3.6,4.8,6.7,7.5,9.9c1.7,2.1,3.9,3.9,5.7,5.8c2.1,2.4,4.8,4,7.5,5.6c4.8,2.8,9.4,5.6,14.7,7.3c3.6,1.2,7.1,2.9,10.6,4.3
	c4.2,1.7,8.6,2.8,13.1,3.1c4.8,0.4,9.6,0.3,14.4,0.3c4.7,0,9.3-0.2,13.9-0.3c5.2-0.1,10.3,0.2,15.4-0.5c4.7-0.7,9.4-0.7,14.1-1.1
	c4.4-0.4,8.9-0.4,13.2-1.4c4.8-1.1,9.6-1.6,14.4-1.9c8.5-0.6,17-1.6,25.4-3C200.5,265.2,204.6,264.1,208.8,264.4z"/>
<path fill="#FFC107" d="M208.8,264.4c-4.3-0.4-8.3,0.7-12.3,1.5c-8.4,1.5-16.9,2.5-25.4,3c-4.8,0.3-9.7,0.7-14.4,1.9
	c-4.3,1-8.8,1-13.2,1.4c-4.7,0.4-9.4,0.4-14.1,1.1c-5.2,0.7-10.3,0.4-15.4,0.5c-4.7,0.1-9.3,0.3-13.9,0.3c-4.8,0-9.6,0.1-14.4-0.3
	c-4.5-0.4-8.9-1.4-13.1-3.1c-3.5-1.4-7-3.1-10.6-4.3c-5.2-1.7-10-4.5-14.7-7.3c-2.6-1.6-5.3-3.2-7.5-5.6c-1.8-2.1-3.9-3.8-5.7-5.8
	c-2.7-3.2-5.4-6.3-7.5-9.9c-1.7-3-2.3-5.9-1.5-9.4c0.7-3.2,2.8-4.9,5.1-6.7c2.1-1.6,4.5-3,7.3-3.4c2.2-0.2,4.4-0.5,6.6-0.9
	c3-0.5,5.9-1.1,8.8-1.7c1.8-0.4,3.7-0.7,5.5-1.1c1.5-0.3,3-0.8,4.4-1.1c2-0.3,3.9-0.6,6-0.7c1.5-0.1,2.9-0.3,4.2-1
	c0.6-0.3,1.1-0.5,1.8-0.6c4.8-0.4,9.3-1.8,13.9-2.6c3.9-0.7,8-1.1,11.9-1.9c4.5-0.9,8.9-2.2,13.4-3.3c2.1-0.5,4-1.1,6.1-1.6
	c5-1.1,10-2.1,15-3.4c4.3-1.1,8.8-2.2,12.9-4.1c1.5-0.7,3-1,4.5-1.5c5.2-1.6,10.4-3.1,15.5-4.9c5.2-1.8,10.3-3.9,15.3-5.9
	c2.5-1,3.6-3.6,2.6-6.2c-1.4-3.8-3-7.5-4.5-11.2c-2-4.6-4-9.2-6.1-13.7c-2.6-5.7-5.3-11.5-8-17.2c-0.6-1.2-0.9-2.5-1.4-3.7
	c-1.9-4.2-3.8-8.4-5.7-12.5c-2.2-4.8-4.5-9.6-6.9-14.3c-2.5-5.1-5.3-10.1-7.9-15.2c-1.7-3.4-3.2-7-4.9-10.4
	c-1.3-2.6-2.7-5.2-3.9-7.8c-2.2-4.8-4.1-9.7-5-14.9c-0.7-3.4-1.3-6.9-1-10.3c0.5-5.4,3-9.7,8.3-12.1c3.5-1.6,7.1-1.6,10.8-0.9
	c1.3,0.2,2.6,0.4,3.9,0.6c1.4,0.2,2.8,0.4,3.9,1.3c0.4,0.3,0.9,0.4,1.3,0.6c2.4,0.7,4.8,1.4,7.1,2.3c3,1.1,5.9,2.4,8.9,3.5
	c3.4,1.3,6.8,2.6,10.3,4c1.1,0.4,2.2,0.8,3.2,1.5c2.9,2,6,3.4,9.1,4.9c3.4,1.6,6.7,3.6,10.1,5.4c3.7,2,7.4,3.9,11,5.9
	c1.3,0.7,2.5,1.4,3.8,2.2c3.4,2.2,7.1,3.9,10.7,5.8c1.5,0.7,2.7,2,4,3c2.7,2.1,5.4,4.1,8.2,6.1c3.2,2.3,6.5,4.4,9.7,6.7
	c2.7,1.9,5.2,3.8,8,5.6c0.8,0.5,1.8,0.7,2.6,1.2c2.5,1.5,4.8,3,7.2,4.5c2.7,1.6,5.4,3.1,8.1,4.7c0.9,0.5,1.6,1.1,2.5,1.6
	c0.4,0.2,0.9,0.3,1.3,0.3c3.9-0.1,7.8-0.4,11.5-1.7c3.2-1.1,6.2-2.8,8.8-5.1c3.7-3.3,7.4-6.6,11.1-9.8c3.4-3,6.8-6.2,10.3-9
	c5.5-4.5,10.8-9.1,17.1-12.5c2.9-1.6,5.4-3.7,8.1-5.5c1.9-1.3,3.9-2.4,5.7-3.8c4.6-3.6,9.8-6.3,14.8-9.4c3.8-2.3,7.6-4.5,11.5-6.8
	c4.1-2.4,8.1-4.8,12.3-7.1c2-1.1,4-1.9,6.1-2.8c4.2-1.8,8.3-4,12.7-5.3c5.7-1.6,11.6-2.1,17.6-1.5c2.5,0.2,4.8,1,6.9,2.3
	c0.3,0.2,0.6,0.3,0.9,0.4c2.4,0.5,2.9,2.4,3.1,4.3c0.1,0.7,0,1.6,0.2,2.3c1.1,4.1,0.7,8.1,0.2,12.2c-0.3,2.2-0.5,4.4-1.1,6.6
	c-1.3,4.1-3,8.1-4.4,12.1c-0.8,2.3-1.6,4.6-2.5,6.8c-0.2,0.7-0.3,1.4-0.7,2c-1.7,2.9-2.5,6.2-3.9,9.2c-1.1,2.1-2.4,4.1-3.5,6.2
	c-2,3.3-3.9,6.6-6,9.8c-2.4,3.6-4.8,7.1-7.4,10.6c-4.3,5.7-8.8,11.2-12.9,16.9c-2.7,3.8-6.1,6.8-9.3,10.2c-1.7,1.7-3.1,3.7-4.8,5.6
	c-1.1,1.3-2.1,2.5-3.3,3.8c-2.8,3.1-5.7,6.1-8.4,9.3c-2.9,3.5-5.9,7.1-9.4,10.1c-2.7,2.4-4,4.3-5,7.2c-1.5-0.4-2.2,0.7-3,1.6
	c-1,1.2-2,2.5-2.9,3.9c-1.1,1.6-1.2,3.4,0.2,5c0.9,1,2,2.1,3.1,2.7c3.2,1.9,6.6,3.1,10.3,4c5.9,1.5,11.7,3.1,17.6,4.4
	c7.1,1.6,14.2,2.7,21.3,4c5.7,1.1,11.6,1.9,17.2,3c6.8,1.4,13.6,2.8,20.3,4.5c5.7,1.5,11.4,3,17.1,4.7c6.1,1.9,11.9,4.3,17.8,6.5
	c3,1.1,6.1,2.4,9,3.8c1.4,0.7,2.5,1.6,3.8,2.5c1.4,1,2.7,1.9,4,2.9c5.1,3.7,9.7,7.9,13.9,12.5c2.9,3.1,5.7,6.3,7.6,10.1
	c1.1,2.2,1.9,4.6,2.8,7c0.7,1.8,1.5,3.6,2.1,5.4c0.8,2.9,1.6,5.7,2.2,8.7c0.7,3.9-1,7-3.9,9.2c-3.1,2.4-6.5,4.5-10,6.4
	c-2.1,1.1-4.4,1.6-6.7,2.1c-3.4,0.7-6.8,0.7-10.1-0.3c-2.1-0.7-4.1-1.3-6.2-1.9c-2.6-0.7-5.3-1.4-8-2.1c-3.1-0.8-6.2-1.7-9.3-2.5
	c-2-0.5-4.1-0.7-6.1-1.3c-2.4-0.7-4.8-1.5-7.1-2.1c-2.8-0.8-5.6-1.6-8.4-2.5c-3.9-1.2-8-1.9-12.1-2.3c-3.4-0.3-6.8-0.7-10.2-0.9
	c-4.8-0.3-9.7-0.5-14.5-0.9c-3-0.2-5.9-0.7-8.9-1.1c-1.6-0.2-3.2-0.2-4.8-0.3c-5.2-0.5-10.5-1.1-15.7-1.6c-2.9-0.3-5.7-0.8-8.6-0.9
	c-3.8-0.2-7.5,0-11.2-0.1c-1.7,0-3.5-0.1-5.2-0.3c-4.2-0.8-8.3-0.4-12.5-0.1c-1.1,0.1-2.4,0.2-3.5,0.3c-3,0.3-5.7,1.7-8.4,2.8
	c-3,1.1-5.3,2.8-7.6,4.8c-3.5,3.3-6.7,7.1-9.5,11c-1.4,2-3.4,3.6-4.4,5.7c-3.4,6.6-7.4,13-9.8,20c-1.4,3.9-3.1,7.7-4.6,11.6
	c-1.1,3-2.2,6.2-3.4,9.2c-1.2,3.4-2.5,6.7-3.9,10.1c-1.7,4.2-3.6,8.3-5.4,12.4c-0.7,1.4-1.4,2.7-2.1,4c-3.4,6.1-6.6,12.2-10,18.3
	c-2.6,4.8-5.4,9.4-8.1,14.1c-2.5,4.3-4.8,8.8-7.3,13.1c-2.1,3.7-4.5,7.2-7.3,10.4c-0.4,0.5-0.8,0.9-1.2,1.4
	c-2.7,3.9-6.5,6.4-10.5,8.8c-1.1,0.7-2.3,1.4-3.4,2c-4.2,2.3-8.8,3.4-13.3,4.9c-1.6,0.6-3.4,0.4-5.2,0.5c-0.9,0.1-1.8-0.2-2.7-0.1
	c-3.2,0.2-5.8-1-8.1-3.1c-1.1-1-2.2-2.1-3.2-3.2c-1.3-1.4-1.8-3.1-2-4.9c-0.2-1.8-0.6-3.5-0.8-5.3c-0.2-0.9-0.2-1.8-0.2-2.7
	c0.1-3.4,0.2-6.8,0.3-10.2c0.2-3.8,0.6-7.5,0.8-11.2c0.2-4.5,0.2-9,0.5-13.5c0.2-3.9,0.7-7.6,0.9-11.4c0.2-1.9,0.2-3.8,0.2-5.6
	c-0.1-3.2-0.1-6.3,0.7-9.5c0.7-2.7,0.8-5.5,1.2-8.3c0.5-3.3,1.1-6.6,1.4-9.9c0.2-2.8,0-5.7,0.2-8.5c0.2-4,0.4-8,0.7-12.1
	c0.2-3.3,0.5-6.5,0.9-9.8c0.5-4.1,0.3-8.2,0.1-12.3c-0.1-2,0.2-4,0.3-6c0.5-4.1,1-8.3,1.6-12.4C210.2,268,209.6,266.3,208.8,264.4z
	 M203.3,408.8c0.1,1.8,0.1,4.3,0.4,6.8c0.6,4.4,2.5,8,6.8,10c3.6,1.6,7.4,1.4,11.1,0.7c2.8-0.5,5.3-2.1,8-2.8c3-0.8,5.6-2.5,8.2-4
	c6.2-3.6,10.7-8.9,14.7-14.8c1.9-2.9,3.4-6.1,5.1-9.1c1.9-3.3,3.9-6.6,5.7-9.9c1-1.7,1.8-3.6,3-5.2c3.5-5.1,6.1-10.7,9.1-16.2
	c1.4-2.5,2.8-5.2,4.2-7.7c1-1.7,2.1-3.4,3-5.2c2.1-4.5,3.9-9,5.8-13.6c1.4-3.4,2.7-6.6,4-10.1c1.1-2.9,2.1-5.7,3.2-8.6
	c1.1-2.9,2.5-5.7,3.7-8.6c1.8-4.6,3.6-9.2,6-13.5c2.1-4,4.1-8.2,7.1-11.8c1.7-2.1,3.4-4.4,5.2-6.6c2.7-3.1,5.4-6.2,8.2-9.1
	c1.4-1.5,3.1-2.5,4.5-4c1-1.1,2.1-2.1,3.4-2.6c1.2-0.5,2.4-1.1,3.6-1.7c3.1-1.6,6.4-2.1,9.9-1.5c0.8,0.2,1.6,0.2,2.5,0.2
	c2.3,0.1,4.6,0.1,6.9,0.2c7.1,0.2,14.2,0.6,21.2,0.8c1.4,0.1,2.8-0.2,4.2,0.1c4.3,0.6,8.7,1.2,13,1.6c8.1,0.8,16.1,2.5,24.3,2.7
	c2,0.1,3.9-0.1,5.8,0.2c6.4,0.7,12.9,0.7,19.2,2.2c4.4,1,8.9,1.8,13.2,3.2c5.7,1.8,11.3,3.7,17.1,5.1c6.9,1.6,13.7,3.6,20.5,5.5
	c5.7,1.6,10.9,0.4,15.8-2.5c2.8-1.6,5.2-3.7,7.7-5.7c1.5-1.2,2.5-2.9,2.4-4.9c-0.2-3.6-1.1-7.1-2.2-10.6c-0.8-2.5-1.8-4.8-2.8-7.2
	c-0.4-1-0.7-2.1-1.2-2.9c-2.1-3-4.2-6.1-6.5-8.9c-1.7-2.1-3.6-4-5.6-5.9c-2.4-2.2-4.8-4.5-7.4-6.4c-4.4-3-9.1-5.6-14.1-7.5
	c-5.3-2.1-10.7-4.1-16-6.1c-1.6-0.6-3.3-1.1-4.9-1.6c-4.7-1.4-9.4-2.8-14-3.9c-7.1-1.7-14.4-3.3-21.6-4.8c-5-1-10.1-1.8-15.2-2.6
	c-4.1-0.7-8.3-0.9-12.2-2.3c-0.7-0.2-1.4-0.2-2.1-0.3c-0.8-0.2-1.6-0.2-2.5-0.4c-6.4-1.6-12.8-3.2-19.2-4.8
	c-2.1-0.5-4.4-0.7-6.5-1.5c-4-1.5-7.9-3.5-11.4-6.1c-2.8-2-3.9-4.8-4.4-8c-0.2-1.4,0.2-2.7,0.8-4c1-1.7,2.3-3.1,3.7-4.5
	c2.8-3,5.4-6.2,8.3-9.1c1.9-2,4.1-3.5,5.7-5.8c1-1.4,1.9-2.7,3-4c4-4.7,8.4-9,12.2-13.9c0.7-0.8,1.6-1.4,2.2-2.1
	c2.1-2.8,4.4-5.3,7.1-7.5c0.5-0.4,0.9-0.9,1.2-1.4c3.3-4.3,6.6-8.6,9.8-13c3.1-4.2,6.2-8.4,9.1-12.6c3-4.4,6-8.9,8.9-13.4
	c1.6-2.5,3.1-5.1,4.3-7.8c1.5-3.4,2.5-7.1,3.9-10.6c1.7-4.5,3.6-8.9,5.2-13.5c1.1-3.3,2.2-6.6,2.7-10c0.7-4.5,0.4-9.1-1-13.6
	c-0.3-1-0.8-1.6-1.8-1.8c-2-0.4-3.9-0.9-5.9-1.1c-7.3-0.7-14.4,0.2-21.1,3.6c-4.7,2.3-9.6,4.2-14.1,6.6c-6.8,4.2-13.3,8.2-19.9,12.1
	c-3,1.7-5.9,3.4-8.8,5.2c-3,1.9-5.7,3.9-8.6,5.9c-5.2,3.4-10.2,7-15.5,10.2c-5.2,3.3-10.3,7-14.8,11.1c-1.9,1.6-3.7,3.4-5.5,5.1
	c-4.3,3.9-8.9,7.5-13.2,11.5c-4.7,4.2-9.6,7.5-16,8.3c-0.2,0.1-0.4,0.1-0.6,0.2c-5,1.3-9.6,0.2-13.9-2.5c-3.1-2-6.2-3.9-9.4-5.7
	c-3-1.7-5.9-3.4-8.9-5.2c-2.8-1.7-5.6-3.7-8.3-5.6c-2.4-1.6-4.8-3.4-7.1-5.2c-5.3-4.1-10.7-8.2-16.6-11.6c-2.6-1.6-5.4-2.9-8-4.5
	c-6.6-4.3-13.6-7.9-20.6-11.5c-3.1-1.6-6.4-3.1-9.6-4.7c-2.6-1.3-5.2-2.7-7.8-3.9c-1.6-0.7-3.3-1.1-4.9-1.8
	c-7.4-3-14.8-5.9-22.6-8.1c-2.7-0.7-5.4-1.4-8.2-1.6c-3.6-0.3-7.1,0.3-9.9,3c-3,2.9-4.3,6.4-3.9,10.6c0.2,2.3,0.7,4.5,1.1,6.7
	c0.7,3.4,1.5,6.9,3,10.2c0.9,1.9,1.6,3.9,2.5,5.7c1.6,3.4,3.4,6.8,5.1,10.3c2.2,4.4,4.3,8.9,6.6,13.3c0.6,1.1,1,2.3,1.6,3.4
	c2.7,4.5,5,9.4,7.2,14.1c0.6,1.3,1.1,2.7,1.7,4c2.1,4.5,4.1,8.9,6.1,13.5c1.9,4.3,3.8,8.5,5.6,12.8c1.2,2.7,2.5,5.4,3.6,8.2
	c0.5,1.1,1,2.1,1.5,3.2c1.5,3.5,2.9,7.1,4.5,10.5c2.1,4.6,4.1,9.3,5.4,14.2c0.7,2.5-0.2,5-2.2,6.2c-1.6,1-3.3,1.9-5,2.5
	c-3.1,1.3-6.2,2.5-9.4,3.5c-5.3,1.9-10.7,3.8-16,5.5c-3.9,1.3-7.7,2.4-11.6,3.6c-1.8,0.6-3.5,1.3-5.3,1.8c-4.1,1.1-8.4,1.6-12.5,2.9
	c-4.3,1.4-8.9,2.3-13.4,3.4c-3.4,0.8-6.9,1.7-10.3,2.4c-5.8,1.1-11.6,2-17.5,3c-3.1,0.6-6.2,1.5-9.4,2.1c-3.9,0.7-7.6,1.3-11.5,2.1
	c-4.8,1-9.7,2.1-14.5,3c-4.8,1-9.7,1.9-14.5,2.8c-2.7,0.5-4.8,1.9-6.6,4c-2.3,2.8-2.5,6.1-0.5,9c0.4,0.6,0.7,1.1,1.2,1.7
	c1.6,2.3,3.2,4.8,5.1,6.9c2.1,2.5,4.3,4.7,6.6,6.8c2.1,2.1,4.4,4,7.2,5.2c0.9,0.4,1.7,0.9,2.5,1.4c2.5,1.4,4.9,2.9,7.5,4.1
	c2.9,1.4,6,2.4,8.9,3.7c7.2,3.4,14.9,4.9,22.8,5.2c6.1,0.2,12.1-0.2,18.1-0.4c2.1-0.1,4.2-0.2,6.2-0.1c4.2,0.5,8.4,0.1,12.5-0.3
	c5.3-0.4,10.7-0.8,16-1.2c4.1-0.3,8.2-0.8,12.2-1.2c5.2-0.6,10.5-1.5,15.7-1.8c8.4-0.5,16.9-1.3,25.3-2.8c2.8-0.5,5.7-0.7,8.4-1.1
	c0.7-0.1,1.4-0.2,2-0.6c2.5-1.1,4.7-0.3,5.7,2.2c0.9,2.5,0.8,4.9,0.5,7.4c-1.1,7.5-1.7,14.9-1.1,22.5c0.1,0.6,0.1,1.1,0,1.6
	c-0.4,3.8-0.8,7.6-1.1,11.4c-0.5,5.7-1.1,11.3-0.6,17.1c0.2,2,0.2,4-0.1,6.1c-0.6,4.3-1.3,8.5-2.1,12.7c-0.9,5.5-1.8,11-1.6,16.6
	c0.1,2.2-0.2,4.4-0.4,6.6c-0.2,2.6-0.7,5.2-0.8,7.9c-0.2,3.3-0.2,6.5-0.3,9.8c-0.2,3.9-0.7,7.6-1,11.4
	C203.9,399,203.7,403.5,203.3,408.8L203.3,408.8z"/>
<path fill="none" d="M203.3,408.8c0.3-5.2,0.5-9.8,0.8-14.4c0.2-3.9,0.7-7.6,1-11.4c0.2-3.3,0.2-6.5,0.3-9.8
	c0.2-2.6,0.6-5.2,0.8-7.9c0.2-2.2,0.5-4.4,0.4-6.6c-0.2-5.6,0.7-11.1,1.6-16.6c0.7-4.3,1.5-8.4,2.1-12.7c0.2-2,0.2-4,0.1-6.1
	c-0.5-5.7,0.1-11.4,0.6-17.1c0.3-3.8,0.8-7.6,1.1-11.4c0.1-0.6,0.1-1.1,0-1.6c-0.7-7.5-0.1-15,1.1-22.5c0.4-2.5,0.5-5-0.5-7.4
	c-1-2.5-3.1-3.4-5.7-2.2c-0.7,0.2-1.3,0.5-2,0.6c-2.8,0.4-5.7,0.7-8.4,1.1c-8.4,1.5-16.8,2.3-25.3,2.8c-5.2,0.3-10.5,1.2-15.7,1.8
	c-4.1,0.5-8.2,0.9-12.2,1.2c-5.3,0.5-10.7,0.8-16,1.2c-4.2,0.3-8.3,0.8-12.5,0.3c-2.1-0.2-4.2,0-6.2,0.1c-6.1,0.2-12.1,0.6-18.1,0.4
	c-7.9-0.2-15.6-1.9-22.8-5.2c-2.9-1.3-6-2.4-8.9-3.7c-2.5-1.2-5-2.7-7.5-4.1c-0.8-0.5-1.7-0.9-2.5-1.4c-2.8-1.2-5.1-3.2-7.2-5.2
	c-2.3-2.2-4.6-4.4-6.6-6.8c-1.9-2.1-3.4-4.5-5.1-6.9c-0.4-0.6-0.8-1.1-1.2-1.7c-2.1-3-1.8-6.2,0.5-9c1.7-2.1,3.9-3.5,6.6-4
	c4.8-0.9,9.7-1.8,14.5-2.8c4.8-1,9.7-2.1,14.5-3c3.9-0.7,7.6-1.3,11.5-2.1c3.1-0.6,6.2-1.5,9.4-2.1c5.8-1.1,11.6-1.9,17.5-3
	c3.5-0.7,6.9-1.6,10.3-2.4c4.4-1.1,8.9-2.1,13.4-3.4c4.1-1.3,8.4-1.6,12.5-2.9c1.8-0.5,3.5-1.3,5.3-1.8c3.9-1.2,7.7-2.3,11.6-3.6
	c5.3-1.8,10.7-3.6,16-5.5c3.1-1.1,6.2-2.3,9.4-3.5c1.7-0.7,3.4-1.6,5-2.5c2.1-1.3,2.9-3.8,2.2-6.2c-1.3-4.9-3.2-9.6-5.4-14.2
	c-1.6-3.4-3-7.1-4.5-10.5c-0.5-1.1-1-2.1-1.5-3.2c-1.2-2.7-2.5-5.4-3.6-8.2c-1.9-4.3-3.7-8.5-5.6-12.8c-2-4.5-4.1-8.9-6.1-13.5
	c-0.6-1.3-1.1-2.7-1.7-4c-2.2-4.8-4.5-9.5-7.2-14.1c-0.7-1.1-1.1-2.2-1.6-3.4c-2.1-4.4-4.3-8.9-6.6-13.3c-1.7-3.4-3.4-6.8-5.1-10.3
	c-0.9-1.9-1.6-3.9-2.5-5.7c-1.6-3.2-2.4-6.6-3-10.2c-0.4-2.2-0.9-4.5-1.1-6.7c-0.4-4.1,0.9-7.7,3.9-10.6c2.8-2.6,6.3-3.3,9.9-3
	c2.8,0.2,5.5,0.9,8.2,1.6c7.7,2.1,15.2,5.1,22.6,8.1c1.6,0.7,3.3,1.1,4.9,1.8c2.6,1.2,5.2,2.6,7.8,3.9c3.2,1.6,6.4,3,9.6,4.7
	c7,3.6,13.9,7.2,20.6,11.5c2.5,1.6,5.3,3,8,4.5c5.8,3.4,11.2,7.5,16.6,11.6c2.3,1.8,4.7,3.5,7.1,5.2c2.7,1.9,5.5,3.9,8.3,5.6
	c2.9,1.8,5.9,3.4,8.9,5.2c3.2,1.9,6.3,3.8,9.4,5.7c4.3,2.8,8.9,3.8,13.9,2.5c0.2-0.1,0.4-0.2,0.6-0.2c6.4-0.7,11.4-4.1,16-8.3
	c4.3-3.9,8.9-7.5,13.2-11.5c1.8-1.6,3.6-3.4,5.5-5.1c4.7-4.1,9.6-7.8,14.8-11.1c5.2-3.2,10.3-6.8,15.5-10.2c2.9-1.9,5.7-4,8.6-5.9
	c2.9-1.8,5.9-3.4,8.8-5.2c6.6-3.9,13.1-7.9,19.8-11.6c4.6-2.5,9.5-4.3,14.1-6.6c6.7-3.3,13.8-4.3,21.1-3.6c2,0.2,3.9,0.7,5.9,1.1
	c1,0.2,1.5,0.8,1.8,1.8c1.4,4.4,1.6,9,1,13.6c-0.5,3.4-1.6,6.7-2.7,10c-1.6,4.5-3.5,8.9-5.2,13.5c-1.3,3.5-2.4,7.1-3.9,10.6
	c-1.1,2.7-2.7,5.3-4.3,7.8c-2.9,4.5-5.8,8.9-8.9,13.4c-3,4.3-6.1,8.4-9.1,12.6c-3.2,4.3-6.6,8.6-9.8,13c-0.3,0.5-0.7,1-1.2,1.4
	c-2.7,2.2-5,4.8-7.1,7.5c-0.7,0.8-1.6,1.4-2.2,2.1c-3.9,4.8-8.3,9.2-12.2,13.9c-1.1,1.2-2.1,2.6-3,4c-1.6,2.2-3.9,3.9-5.7,5.8
	c-2.8,3-5.4,6.2-8.3,9.1c-1.4,1.4-2.7,2.8-3.7,4.5c-0.7,1.3-1.1,2.5-0.8,4c0.5,3.2,1.6,5.9,4.4,8c3.5,2.5,7.3,4.6,11.4,6.1
	c2.1,0.7,4.3,0.9,6.5,1.5c6.4,1.6,12.8,3.2,19.2,4.8c0.8,0.2,1.6,0.2,2.5,0.4c0.7,0.1,1.4,0.1,2.1,0.3c3.9,1.4,8.1,1.6,12.2,2.3
	c5.1,0.8,10.2,1.6,15.2,2.6c7.2,1.5,14.4,3,21.6,4.8c4.8,1.1,9.4,2.6,14,3.9c1.6,0.5,3.3,1,4.9,1.6c5.3,2,10.7,4,16,6.1
	c5,2,9.8,4.4,14.1,7.5c2.6,1.9,5,4.1,7.4,6.4c2,1.8,3.9,3.8,5.6,5.9c2.3,2.9,4.3,5.9,6.5,8.9c0.6,0.8,0.8,1.9,1.2,2.9
	c0.9,2.4,2,4.8,2.8,7.2c1.1,3.4,2.1,6.9,2.2,10.6c0.1,2.1-0.9,3.7-2.4,4.9c-2.5,2.1-4.9,4.1-7.7,5.7c-4.9,2.8-10.2,4-15.8,2.5
	c-6.8-2-13.6-3.9-20.5-5.5c-5.8-1.4-11.5-3.3-17.1-5.1c-4.3-1.4-8.8-2.1-13.2-3.2c-6.3-1.5-12.8-1.6-19.2-2.2
	c-1.9-0.2-3.9-0.1-5.8-0.2c-8.2-0.2-16.2-1.8-24.3-2.7c-4.3-0.4-8.7-1.1-13-1.6c-1.4-0.2-2.8,0-4.2-0.1c-7.1-0.2-14.2-0.6-21.2-0.8
	c-2.3-0.1-4.6-0.1-6.9-0.2c-0.8,0-1.7,0-2.5-0.2c-3.5-0.7-6.7-0.1-9.9,1.5c-1.2,0.6-2.4,1.2-3.6,1.7c-1.4,0.6-2.5,1.6-3.4,2.6
	c-1.4,1.5-3.1,2.6-4.5,4c-2.8,3-5.6,6-8.2,9.1c-1.8,2.1-3.4,4.3-5.2,6.6c-2.9,3.6-4.8,7.8-7.1,11.8c-2.4,4.3-4.2,8.9-6,13.5
	c-1.1,2.9-2.5,5.7-3.7,8.6c-1.1,2.9-2.1,5.7-3.2,8.6c-1.3,3.4-2.6,6.7-4,10.1c-1.9,4.5-3.8,9.1-5.8,13.6c-0.8,1.8-2,3.5-3,5.2
	c-1.4,2.5-2.8,5.2-4.2,7.7c-3,5.4-5.6,11-9.1,16.2c-1.1,1.6-2,3.5-3,5.2c-1.9,3.3-3.9,6.6-5.7,9.9c-1.7,3-3.2,6.2-5.1,9.1
	c-3.9,5.9-8.5,11.2-14.7,14.8c-2.6,1.6-5.2,3.3-8.2,4c-2.7,0.7-5.3,2.2-8,2.8c-3.7,0.7-7.5,0.9-11.1-0.7c-4.3-2-6.2-5.6-6.8-10
	C203.4,413.1,203.4,410.7,203.3,408.8z M199.2,183c-4,3-8.5,4.8-12.9,6.7c-4.2,1.9-8.6,3.4-13,5c-3.7,1.3-7.4,2.6-11.2,3.3
	c-3,0.5-5.7,2-8.7,2.5c-4.2,0.8-8.3,2.2-12.5,3.3c-3.3,0.9-6.6,1.7-9.8,2.5c-2.4,0.6-4.6,1.6-7.1,1.6c-0.7,0-1.3,0.3-2,0.6
	c-2.1,0.7-4.3,1.5-6.6,2.1c-2.8,0.9-5.5,1.8-8.4,2.5c-3.2,0.8-6.5,1.6-9.7,2.4c-1.4,0.3-2.9,0.5-4.3,0.8c-0.9,0.2-1.8,0.7-2.8,0.8
	c-3.4,0.7-6.6,1.6-9.8,2.8c-0.5,0.2-1.1,0.3-1.6,0.4c-2.4,0.4-4.8,0.7-7.2,1.2c-2.5,0.5-5,1.2-7.5,1.7c-2.9,0.5-5.7,0.9-8.6,1.3
	c-2.1,0.2-4.1,0.4-6.2,0.7c-3.6,0.5-7.3,0.5-10.4,3c-1.8,1.5-3.3,3.1-3.4,5.4c-0.1,2.2,0.5,4.5,2.1,6.2c2.5,2.6,5.2,5.1,8,7.4
	c4.8,4,9.7,7.7,15.5,10.1c2.5,1.1,5.2,2.1,7.9,2.7c5.5,1.2,11,2.3,16.3,4.3c0.7,0.3,1.5,0.5,2.2,0.6c3.9,0.5,7.8,1,11.7,1.5
	c6.7,0.8,13.5,0,20.2-0.2c2.6-0.1,5.2,0,7.9-0.1c0.5,0,1-0.1,1.4-0.2c2.2-0.3,4.5-0.7,6.7-1.1c3.6-0.5,7.1-0.9,10.7-1.4
	c3.6-0.5,7.2-1.1,10.9-1.5c2.9-0.3,5.7-0.7,8.7-0.6c4.2,0.1,8.3-0.7,12.5-0.7c5,0,9.9-0.8,14.8-1.4c3.2-0.3,6.6-0.6,9.7-1.2
	c2.7-0.6,5.5-0.4,8.2-1.4c0.7-0.2,1.8,0,2.6,0.3c1,0.4,1.9,0.9,2.7,1.6c0.6,0.5,1.1,1.1,1.3,1.8c1.6,3.9,1.6,8,1.4,12.1
	c-0.2,5.8-0.9,11.6-1.4,17.5c-0.2,3.5-0.4,7.1-0.7,10.6c-0.5,6.3-0.9,12.5-1.4,18.9c-0.2,2.2-0.1,4.5-0.6,6.6
	c-1,3.9-1.1,7.8-1.6,11.7c-0.2,2.6,0,5.3-0.4,7.9c-0.3,2.3-0.8,4.6-1,7c-0.4,5.4-1.1,10.7-1.6,16.2c-0.3,4.8-0.2,9.8-0.3,14.6
	c-0.1,2.1,0.1,4.3-0.2,6.5c-0.5,3.4-0.6,6.9-0.3,10.4c0.2,2.1,0.3,4.2,0.5,6.2c0.2,3.6,1.1,7,3.9,9.6c1.5,1.5,3.1,2.5,5.2,2.8
	c2.2,0.3,4.5,0,6.5-1c0.6-0.2,1.1-0.6,1.7-0.7c3.1-0.8,5.2-3,7.4-5.2c0.8-0.9,1.7-1.8,2.5-2.8c2.7-3.3,5.5-6.6,8.2-10
	c1-1.2,1.7-2.7,2.6-4c2.3-3.6,4.7-7.2,7-10.8c2.5-4.1,4.9-8.2,7.5-12.3c2.4-3.8,4.9-7.4,7.2-11.2c2.2-3.5,4.3-7.1,6.4-10.7
	c2.5-4.5,4.8-9.2,7.3-13.9c3.2-6.1,6.4-12.1,9.6-18.3c1.4-2.6,2.8-5.3,3.9-8c1.5-3.7,2.5-7.5,4-11.2c1.7-4.1,2.8-8.4,3.9-12.7
	c1-3.6,2.1-7.2,4.3-10.3c0.4-0.5,0.7-1.1,1-1.6c2.4-4.8,5.2-9.2,8.6-13.2c2.9-3.4,6.2-6,10.5-7.1c2.4-0.6,4.8-0.8,7.2-1.1
	c3.2-0.4,6.3-0.9,9.5-0.3c0.8,0.2,1.6,0.1,2.5,0c5.5-0.5,11-0.2,16.5,0.1c3.5,0.2,7.1,0.6,10.6,0.7c5.7,0.2,11.2,0.1,16.8,1.2
	c1.5,0.3,2.9,0.5,4.3,0.5c4.9,0.2,9.8,1,14.7,1.6c4.4,0.6,8.7,1.7,13.1,2.1c6.2,0.6,12.4,1.8,18.5,2.8c2.2,0.3,4.3,0.8,6.6,1.2
	c5.2,1,10.4,1.8,15.3,3.9c1.8,0.8,3.9,1.1,5.8,1.8c4.1,1.3,8.3,2.5,12.2,4c4.8,1.9,9.6,3.6,14.7,4.6c4.3,0.8,8.5,0.3,12.7-1.2
	c0.3-0.1,0.7-0.3,0.9-0.5c3.9-3.8,5.4-7.5,3.2-13.4c-1.3-3.5-2.2-7.3-5.1-10.1c-0.2-0.2-0.2-0.7-0.4-0.9c-1.8-3.4-3.5-6.7-5.4-10.1
	c-1.6-2.7-3.4-5.2-6.1-7.1c-1.1-0.8-2.2-1.6-3.4-2.5c-2.7-2.1-5.5-4-8.7-5.3c-3-1.3-5.9-3.1-9.4-3.4c-0.7-0.1-1.5-0.5-2.1-0.7
	c-1.6-0.6-3.3-1.1-4.9-1.7c-4.8-1.5-9.6-2.9-14.4-4.3c-1.5-0.4-2.9-1.1-4.3-1.4c-5.4-1.2-10.8-2.4-16.3-3.5
	c-0.7-0.2-1.4-0.2-2.1-0.3c-6.3-1.4-12.5-2.9-18.9-4.3c-3.2-0.7-6.3-1.6-9.5-2.4c-3-0.7-6-1.2-8.9-1.8c-3.4-0.7-6.9-1.1-10.2-2.2
	c-5-1.7-10.2-2.3-15.3-3.4c-4.3-0.9-8.8-1.6-12.9-3.3c-2.4-1-4.9-1.7-7.1-3.1c-3.3-2.2-6.2-4.9-9.2-7.5c-1.9-1.6-1.8-4.1,0-5.8
	c1-0.9,2-1.9,3-3c3.4-3.7,7.1-7.3,10.3-11.2c3-3.5,5.8-7.3,8.5-11.1c2.3-3.1,4.8-6.2,7.7-8.7c1.6-1.5,3.5-2.7,5.2-4.1
	c2.4-2,4.7-4.2,7.1-6.1c6.7-5.2,11.9-11.6,16.6-18.6c1.6-2.5,3.2-5.1,5-7.4c2.6-3.3,5.4-6.5,7.3-10.3c0.2-0.6,0.7-1,1.1-1.6
	c2.2-3.4,4.8-6.6,6.2-10.5c3.6-9.1,7.3-18.2,11.1-27.1c1.9-4.4,3.4-8.9,4.6-13.6c0.2-1,0.1-2.1-0.1-3c-0.2-0.8-0.4-1.6-0.8-2.4
	c-1.6-3.4-3.3-5.2-6.7-4.8c-2.4,0.2-4.8,0.7-7.1,1.2c-3.7,1-7.4,2.1-11,3.2c-3.4,1.1-6.8,2.3-10.2,3.6c-2.6,1-5.2,2.1-7.8,3.4
	c-4.5,2.5-8.9,5.1-13.5,7.6c-0.3,0.2-0.6,0.4-0.8,0.6c-4.3,3.2-8.6,6.3-12.8,9.7c-5.5,4.3-10.7,9-16.2,13.4
	c-5.2,4-10.5,7.8-15.7,11.6c-3,2.2-6.1,4.3-9,6.7c-3.9,3.2-8,6.2-12.5,8.7c-5.6,3.1-11.2,6.2-16.6,9.4c-2.5,1.4-4.8,1.3-7.1,0.1
	c-3.9-2-7.6-3.9-11.5-6c-1-0.5-2.1-0.9-3-1.5c-2.5-1.7-5-3.5-7.5-5.2c-2.3-1.5-4.7-2.7-7.1-4c-2.1-1.1-4.1-2.3-6.2-3.5
	c-3.8-2.4-7.5-4.9-11.2-7.3c-2.3-1.5-4.6-2.9-6.9-4.3c-3.2-2-6.2-4.1-9.5-6.1c-3.7-2.2-7.5-4.3-11.2-6.4c-1.5-0.8-3-1.6-4.4-2.3
	c-3.5-1.7-7.1-3.4-10.7-5.2c-2.4-1.2-4.8-2.6-7.1-3.9c-1.1-0.6-2.2-1.1-3.4-1.7c-3.5-1.8-7-3.7-10.5-5.5c-3.4-1.7-7.1-3.2-10.3-5.3
	c-5.3-3.4-11.2-5.1-17.6-5.3c-2.8-0.2-5.3,0.2-7.7,2.3c-1.9,1.6-3,3.6-3.2,5.8c-0.4,3.8,0.2,7.5,1.8,10.9c2.1,4.6,4.1,9.3,6.2,13.9
	c0.8,1.9,1.8,3.8,2.5,5.7c1.6,4.3,3.6,8.4,6,12.3c3,5.1,5.8,10.3,8.6,15.5c1.7,3.2,3.4,6.5,5.2,9.8c1.9,3.5,4,7,5.9,10.6
	c2.8,5.2,5.4,10.7,8,16c1.9,3.8,3.7,7.5,5.5,11.2c0.9,2,2,4,2.5,6.2c1.5,5.1,3.9,9.7,6.2,14.3C196.8,176.6,198.4,179.5,199.2,183z"
	/>
<path fill="#FFC107" d="M199.2,183c-0.8-3.4-2.3-6.4-3.8-9.4c-2.4-4.7-4.8-9.3-6.2-14.3c-0.7-2.1-1.6-4.1-2.5-6.2
	c-1.8-3.8-3.6-7.5-5.5-11.2c-2.7-5.3-5.3-10.7-8-16c-1.9-3.6-3.9-7.1-5.9-10.6c-1.7-3.2-3.4-6.5-5.2-9.8c-2.8-5.2-5.6-10.4-8.6-15.5
	c-2.4-3.9-4.3-8-6-12.3c-0.7-2-1.6-3.9-2.5-5.7c-2.1-4.7-4.1-9.3-6.2-13.9c-1.6-3.4-2.2-7.2-1.8-10.9c0.2-2.3,1.3-4.2,3.2-5.8
	c2.4-2.1,4.9-2.5,7.7-2.3c6.3,0.3,12.1,2,17.6,5.3c3.3,2.1,6.9,3.5,10.3,5.3c3.5,1.8,7.1,3.7,10.5,5.5c1.1,0.6,2.2,1.1,3.4,1.7
	c2.4,1.3,4.8,2.6,7.1,3.9c3.5,1.8,7.1,3.5,10.7,5.2c1.5,0.7,3,1.5,4.4,2.3c3.8,2.1,7.5,4.2,11.2,6.4c3.2,1.9,6.3,4,9.5,6.1
	c2.3,1.5,4.6,2.9,6.9,4.3c3.8,2.5,7.4,4.9,11.2,7.3c2,1.3,4.1,2.4,6.2,3.5c2.4,1.4,4.8,2.6,7.1,4c2.5,1.6,5,3.5,7.5,5.2
	c0.9,0.6,2,1,3,1.5c3.9,2,7.6,3.9,11.5,6c2.4,1.2,4.7,1.4,7.1-0.1c5.5-3.2,11.1-6.3,16.6-9.4c4.4-2.5,8.4-5.5,12.5-8.7
	c3-2.4,6-4.5,9-6.7c5.2-3.9,10.6-7.6,15.7-11.6c5.5-4.3,10.7-9,16.2-13.4c4.2-3.4,8.5-6.5,12.8-9.7c0.2-0.2,0.6-0.4,0.8-0.6
	c4.4-2.5,8.9-5.2,13.5-7.6c2.5-1.3,5.2-2.5,7.8-3.4c3.4-1.3,6.7-2.5,10.2-3.6c3.6-1.1,7.3-2.3,11-3.2c2.4-0.6,4.8-1,7.1-1.2
	c3.4-0.3,5.2,1.4,6.7,4.8c0.4,0.7,0.7,1.6,0.8,2.4c0.2,1,0.3,2.1,0.1,3c-1.1,4.7-2.7,9.2-4.6,13.6c-3.9,9-7.5,18-11.1,27.1
	c-1.6,3.9-4,7.1-6.2,10.5c-0.3,0.5-0.8,1-1.1,1.6c-1.9,3.9-4.7,7.1-7.3,10.3c-1.9,2.3-3.4,4.9-5,7.4c-4.7,7-9.8,13.5-16.6,18.6
	c-2.5,1.9-4.7,4.1-7.1,6.1c-1.7,1.4-3.6,2.6-5.2,4.1c-2.9,2.6-5.4,5.6-7.7,8.7c-2.7,3.8-5.5,7.5-8.5,11.1
	c-3.3,3.9-6.8,7.5-10.3,11.2c-0.9,1-2,2-3,3c-1.8,1.6-1.9,4.2,0,5.8c3,2.5,6,5.2,9.2,7.5c2.1,1.4,4.7,2.1,7.1,3.1
	c4.2,1.6,8.5,2.4,12.9,3.3c5.1,1.1,10.3,1.6,15.3,3.4c3.3,1.1,6.7,1.6,10.2,2.2c3,0.7,6,1.1,8.9,1.8c3.2,0.7,6.3,1.6,9.5,2.4
	c6.3,1.5,12.5,2.9,18.9,4.3c0.7,0.2,1.4,0.2,2.1,0.3c5.4,1.1,10.9,2.3,16.3,3.5c1.5,0.3,2.9,1,4.3,1.4c4.8,1.5,9.6,2.9,14.4,4.3
	c1.6,0.5,3.3,1.1,4.9,1.7c0.7,0.2,1.5,0.7,2.1,0.7c3.4,0.3,6.3,2.1,9.4,3.4c3.2,1.3,6,3.3,8.7,5.3c1.1,0.8,2.2,1.6,3.4,2.5
	c2.6,1.8,4.5,4.3,6.1,7.1c1.9,3.3,3.6,6.7,5.4,10.1c0.2,0.3,0.2,0.7,0.4,0.9c2.9,2.8,3.9,6.6,5.1,10.1c2.1,6,0.7,9.7-3.2,13.4
	c-0.2,0.2-0.6,0.4-0.9,0.5c-4.1,1.6-8.3,2-12.7,1.2c-5.1-0.9-9.9-2.7-14.7-4.6c-4-1.6-8.2-2.7-12.2-4c-1.9-0.6-3.9-1-5.8-1.8
	c-4.9-2.1-10.2-2.9-15.3-3.9c-2.2-0.4-4.3-0.8-6.6-1.2c-6.2-1-12.3-2.1-18.5-2.8c-4.4-0.4-8.8-1.6-13.1-2.1
	c-4.9-0.7-9.8-1.5-14.7-1.6c-1.5-0.1-2.9-0.2-4.3-0.5c-5.6-1.1-11.2-1.1-16.8-1.2c-3.5-0.2-7.1-0.5-10.6-0.7
	c-5.5-0.3-11-0.6-16.5-0.1c-0.8,0.1-1.7,0.2-2.5,0c-3.2-0.6-6.4-0.1-9.5,0.3c-2.4,0.3-4.8,0.5-7.2,1.1c-4.3,1.1-7.6,3.8-10.5,7.1
	c-3.4,4-6.3,8.4-8.6,13.2c-0.3,0.6-0.7,1.1-1,1.6c-2.1,3.2-3.2,6.7-4.3,10.3c-1.2,4.3-2.2,8.6-3.9,12.7c-1.6,3.7-2.5,7.5-4,11.2
	c-1.1,2.8-2.5,5.4-3.9,8c-3.2,6.1-6.4,12.1-9.6,18.3c-2.5,4.6-4.8,9.3-7.3,13.9c-2,3.6-4.2,7.2-6.4,10.7c-2.4,3.8-4.9,7.4-7.2,11.2
	c-2.5,4-4.9,8.2-7.5,12.3c-2.3,3.7-4.7,7.2-7,10.8c-0.8,1.3-1.6,2.8-2.6,4c-2.7,3.4-5.4,6.6-8.2,10c-0.8,1-1.6,1.9-2.5,2.8
	c-2.1,2.3-4.3,4.3-7.4,5.2c-0.6,0.2-1.1,0.5-1.7,0.7c-2.1,1-4.3,1.3-6.5,1c-2.1-0.3-3.7-1.3-5.2-2.8c-2.7-2.7-3.6-6-3.9-9.6
	c-0.2-2.1-0.3-4.2-0.5-6.2c-0.2-3.4-0.2-7,0.3-10.4c0.3-2.1,0.2-4.3,0.2-6.5c0.1-4.8,0-9.8,0.3-14.6c0.3-5.4,1.1-10.7,1.6-16.2
	c0.2-2.4,0.7-4.7,1-7c0.4-2.6,0.2-5.2,0.4-7.9c0.4-3.9,0.6-7.9,1.6-11.7c0.5-2.1,0.4-4.4,0.6-6.6c0.5-6.3,1-12.5,1.4-18.9
	c0.2-3.5,0.4-7.1,0.7-10.6c0.4-5.8,1.1-11.6,1.4-17.5c0.2-4.1,0.2-8.2-1.4-12.1c-0.3-0.7-0.7-1.3-1.3-1.8c-0.8-0.7-1.7-1.2-2.7-1.6
	c-0.8-0.3-1.9-0.6-2.6-0.3c-2.6,1-5.5,0.8-8.2,1.4c-3.2,0.7-6.5,0.9-9.7,1.2c-4.9,0.5-9.8,1.4-14.8,1.4c-4.2,0-8.3,0.8-12.5,0.7
	c-3-0.1-5.8,0.2-8.7,0.6c-3.6,0.4-7.3,1-10.9,1.5c-3.6,0.5-7.1,0.9-10.7,1.4c-2.2,0.3-4.5,0.7-6.7,1.1c-0.5,0.1-1,0.1-1.4,0.2
	c-2.6,0-5.2,0-7.9,0.1c-6.7,0.2-13.5,1-20.2,0.2c-3.9-0.5-7.9-1-11.7-1.5c-0.7-0.1-1.5-0.3-2.2-0.6c-5.2-2.1-10.7-3.2-16.3-4.3
	c-2.7-0.6-5.3-1.6-7.9-2.7c-5.7-2.5-10.7-6.1-15.5-10.1c-2.8-2.3-5.4-4.8-7.9-7.4c-1.6-1.6-2.1-3.9-2.1-6.2c0.1-2.3,1.6-3.9,3.4-5.4
	c3.1-2.5,6.8-2.5,10.4-3c2.1-0.3,4.1-0.4,6.2-0.7c2.9-0.4,5.8-0.7,8.6-1.3c2.5-0.5,5-1.2,7.5-1.7c2.4-0.5,4.8-0.8,7.2-1.2
	c0.6-0.1,1.1-0.2,1.6-0.4c3.2-1.1,6.4-2.1,9.8-2.8c0.9-0.2,1.8-0.7,2.8-0.8c1.4-0.3,2.9-0.5,4.3-0.8c3.2-0.7,6.5-1.5,9.7-2.4
	c2.8-0.7,5.6-1.6,8.4-2.5c2.2-0.7,4.3-1.4,6.6-2.1c0.7-0.2,1.3-0.6,2-0.6c2.5,0.1,4.8-0.9,7.1-1.6c3.3-0.8,6.6-1.6,9.8-2.5
	c4.2-1.1,8.3-2.5,12.5-3.4c3-0.6,5.7-2.1,8.7-2.5c3.8-0.7,7.5-2.1,11.2-3.3c4.3-1.6,8.8-3,13-5C190.6,187.7,195.1,186,199.2,183z
	 M213.2,402.3c0.1,3.1,0.2,6.3,1.4,9.2c1,2.5,2.5,4.8,5.6,4.8c1.2,0,2.4-0.2,3.4-0.7c2.7-1.1,5.2-2.7,7.4-4.6
	c4.3-3.7,7.5-8.4,11.1-12.7c2.3-2.8,4.1-5.9,6.1-8.9c4-6.3,8-12.7,12-19.1c2.3-3.7,4.5-7.5,7-11.2c2.5-3.8,4.9-7.5,6.8-11.6
	c0.7-1.5,1.5-3,2.2-4.4c1.5-2.9,3-5.7,4.4-8.5c0.9-1.7,1.7-3.5,2.6-5.2c2-3.8,4.2-7.4,6-11.2c2.5-5.5,4.8-11.2,6.7-16.8
	c1.7-4.8,3.2-9.8,4.6-14.7c1.1-3.9,2.7-7.5,4.6-10.9c2.1-3.9,4.7-7.5,6.7-11.2c1.6-3,4.1-5.4,6.4-7.9c1.1-1.1,2.4-2,3.8-2.5
	c1.3-0.6,2.5-1.5,3.8-2.2c0.4-0.2,0.8-0.6,1.3-0.7c2.5-0.5,4.9-0.9,7.4-1.3c1-0.2,2.1-0.2,3.1-0.4c1.6-0.2,3.1-0.6,4.8-0.6
	c4.5-0.1,9-0.1,13.5,0.1c3.9,0.1,8,0,11.9,0.4c3.8,0.5,7.6,0.7,11.4,0.5c2.1-0.1,4.3,0,6.5,0.2c4.5,0.4,8.9,1.1,13.5,1.6
	c4.4,0.5,8.9,0.9,13.2,1.5c2.6,0.3,5.2,1,7.8,1.4c3,0.5,6.1,0.8,9.1,1.2c2.7,0.3,5.3,0.7,8,1.1c3.9,0.7,7.6,1.4,11.5,2.1
	c1.6,0.3,3.2,0.7,4.8,1.1c3,0.7,6.1,1.3,9.1,2.1c1.9,0.5,3.7,1.2,5.5,1.8c5.9,1.9,11.8,3.6,17.6,5.7c3.7,1.4,7.5,2.5,11.3,3.4
	c3.4,0.8,6.6,0.6,9.9-0.2c4-0.9,5.7-3.7,5-7.8c-0.4-2.3-1.2-4.5-2.3-6.6c-2-3.9-4.4-7.4-6.3-11.2c-2.1-4.2-4.7-7.9-8.6-10.5
	c-3.9-2.5-7.9-5-11.9-7.3c-2.7-1.6-5.7-2.1-8.6-3c-4-1.1-8-2.5-12-3.7c-5.2-1.5-10.3-2.7-15.5-4.1c-5.6-1.5-11.1-3.1-16.6-4.6
	c-2.2-0.6-4.4-1-6.7-1.5c-3.4-0.7-6.8-1.3-10.2-2.1c-5.3-1.2-10.7-2.8-16-4c-7.5-1.7-14.9-3.3-22.4-4.9c-5.3-1.1-10.7-2.2-16.1-3.5
	c-4.2-1-8.2-2.6-11.9-4.8c-0.9-0.5-1.6-1.2-2.5-1.8c-3.7-2.2-6.6-5.2-9.4-8.5c-1.1-1.5-0.9-3.2-0.7-4.8c0.2-1.2,0.8-2.3,1.1-3.5
	c0.2-0.8,0.6-1.1,1.1-1.6c1.3-1,2.7-2,3.9-3c1.5-1.3,2.8-2.9,4.4-4.1c2.1-1.6,4.2-3.4,5.8-5.6c3-3.9,6-8,9-12c3.1-4.2,7-7.5,11-10.8
	c3-2.5,6.2-4.8,8.8-7.7c3.6-4.1,7.4-8.1,11.1-12.2c1.5-1.6,2.9-3.2,4.2-4.9c1.6-2.1,3-4.3,4.6-6.5c2.1-2.9,4.3-5.6,6.4-8.4
	c2.4-3.4,4.8-6.8,6.9-10.4c1.7-3,3-6.4,4.4-9.7c1.1-2.7,1.9-5.5,3-8.2c2.5-6,5.3-11.9,7.8-18c1.2-3,2.1-6.1,2.5-9.2
	c0.4-3.3-1.2-6.5-5.5-5.8c-0.2,0-0.2,0-0.4,0.1c-3.7,0.9-7.5,1.6-11.1,2.9c-3.9,1.5-7.8,2.7-11.6,4c-3,1.1-6.2,2-8.9,3.4
	c-5.5,3-10.8,6.3-16.2,9.5c-0.3,0.2-0.6,0.4-0.8,0.7c-4.8,3.7-9.7,7.5-14.5,11.2c-1.9,1.5-3.7,3-5.6,4.4c-3.2,2.6-6.4,5.3-9.7,7.9
	c-1.8,1.5-3.7,2.9-5.7,4.3c-2.6,1.9-5.3,3.7-8,5.6c-3,2.1-6,4.1-8.7,6.5c-3.1,2.8-6.8,4.8-10.1,7.3c-1.2,1-2.7,1.6-4.1,2.5
	c-1.7,1-3.5,2-5.2,3c-3.5,2-7,3.9-10.6,5.8c-2.7,1.5-5.9,1.6-8.7,0.3c-0.6-0.2-1.2-0.3-1.8-0.4c-1.3-0.2-2.4-0.7-3.1-1.8
	c-0.2-0.4-0.8-0.7-1.3-1c-5.3-2.8-10.7-5.3-15.5-8.9c-3.2-2.4-6.9-4.2-10.3-6.3c-6.6-4.2-13.2-8.5-19.8-12.7
	c-5.5-3.4-11-6.8-16.5-10.2c-1.7-1.1-3.5-1.9-5.3-2.9c-3-1.6-5.9-3.4-8.9-4.9c-4-2.1-8.3-3.9-12.2-6.3c-3.2-2.1-6.8-3.5-10.2-5.2
	c-1.4-0.7-2.8-1.6-4.2-2.3c-4.3-2.1-8.8-4.3-13-6.5c-4.4-2.4-9.1-3.9-14.1-4.1c-1.4-0.1-2.8,0.1-4.1,0.4c-3,0.7-4.8,3.1-4.7,6.2
	c0.1,2.5,0.1,5.2,1.5,7.5c0.2,0.3,0.4,0.7,0.5,1.1c0.7,2.9,2,5.4,3.4,8c0.5,0.9,1.1,1.8,1.3,2.8c0.4,2.1,1.6,4,2.5,5.9
	c0.3,0.7,0.7,1.4,1,2.1c1.3,2.8,2.5,5.7,3.9,8.5c0.5,1.1,1,2.3,1.6,3.4c2,3.4,4.1,6.8,6.1,10.2c1.6,2.9,3.2,5.8,4.8,8.8
	c2.5,4.7,4.8,9.4,7.2,14c2.1,4.2,4.3,8.4,6.5,12.5c1.6,3.1,3.2,6.2,4.8,9.3c1.8,3.7,3.6,7.3,5.3,11c0.5,1.1,0.8,2.4,1.3,3.5
	c1.1,3,2.1,5.9,3.4,8.7c2.5,5.5,5.6,10.8,7.5,16.7c0.2,0.7,0.1,1.5-0.2,2.1c-1.1,2.7-3.4,4.3-5.9,5.6c-6.6,3.4-13.5,6.5-20.8,8.6
	c-4.8,1.4-9.4,2.7-14.2,4.1c-2.4,0.7-4.8,1.4-7.2,2c-4.5,1.1-9,2.2-13.5,3.4c-5.6,1.4-11.2,2.9-16.7,4.3c-4.3,1.1-8.6,2.2-13,3.4
	c-4.6,1.2-9.1,2.5-13.7,3.7c-2.4,0.7-4.8,1.2-7.1,1.7c-5.9,1.4-11.7,2.9-17.6,4.1c-6.2,1.3-12.5,2.1-18.8,2.9
	c-3.6,0.5-7.1,1.3-10.7,2.1c-1.9,0.4-3.3,1.6-3.9,3.4c-0.4,1.2-0.5,2.5,0.5,3.5c1.5,1.5,3.3,2.6,4.6,4.2c3.4,3.9,8,6.5,12.2,9.3
	c3.9,2.6,8.5,4.2,13.1,5.2c5.7,1.3,11.3,2.6,16.9,4.5c0.6,0.2,1.1,0.2,1.6,0.3c2.4,0.3,4.8,0.8,7.2,1c4.2,0.3,8.4,0.7,12.7,0.6
	c5.6-0.1,11.2-0.4,16.9-0.7c1.2-0.1,2.5-0.3,3.8-0.4c5.2-0.2,10.5-1,15.7-1.7c5-0.7,10-1.7,15.1-1.6c0.4,0,0.8-0.2,1.2-0.2
	c3.4-0.2,6.8-0.6,10.2-0.7c2.1-0.2,4.3,0.1,6.5-0.2c4.3-0.4,8.7-0.8,13-1.4c5.4-0.7,10.9-1.6,16.3-2.3c0.6-0.1,1.1-0.1,1.6-0.1
	c2.2,0.2,4.1,1.5,6.2,2.2c4.3,1.6,6.5,4.9,7.1,9.2c0.4,3.1,0.6,6.2,0.4,9.4c-0.3,6.7-0.9,13.5-1.4,20.2c-0.6,8.5-1.1,17.1-1.8,25.6
	c-0.4,4.8-0.9,9.5-1.5,14.3c-0.7,6.3-1.3,12.5-2,18.9c-0.6,5.4-1.3,10.7-1.6,16.2c-0.3,4.4-0.2,8.9-0.2,13.3
	c-0.1,2.9-0.1,5.7-0.2,8.5c-0.1,1.6-0.3,3-0.2,4.6C213,397.7,213.2,400,213.2,402.3z"/>
<path fill="none" d="M213.2,402.3c-0.1-2.3-0.2-4.6-0.2-6.9c0-1.6,0.2-3,0.2-4.6c0.1-2.9,0.2-5.7,0.2-8.5c0.1-4.4-0.1-8.9,0.2-13.3
	c0.3-5.4,1.1-10.7,1.6-16.2c0.7-6.3,1.3-12.5,2-18.9c0.5-4.8,1.1-9.5,1.5-14.3c0.7-8.5,1.2-17.1,1.8-25.6c0.5-6.7,1.1-13.5,1.4-20.2
	c0.2-3.1,0.1-6.2-0.4-9.4c-0.7-4.3-2.8-7.6-7.1-9.2c-2.1-0.7-3.9-2-6.2-2.2c-0.6-0.1-1.1-0.1-1.6,0.1c-5.4,0.7-10.8,1.6-16.3,2.3
	c-4.3,0.6-8.7,1-13,1.4c-2.1,0.2-4.3,0.1-6.5,0.2c-3.4,0.2-6.8,0.5-10.2,0.7c-0.4,0.1-0.8,0.2-1.2,0.2c-5.1-0.1-10.1,0.9-15.1,1.6
	c-5.2,0.7-10.4,1.6-15.7,1.7c-1.2,0.1-2.5,0.3-3.8,0.4c-5.6,0.2-11.2,0.7-16.9,0.7c-4.2,0.1-8.4-0.3-12.7-0.6
	c-2.5-0.2-4.8-0.7-7.2-1c-0.6-0.1-1.1-0.2-1.6-0.3c-5.5-1.9-11.2-3.2-16.9-4.5c-4.6-1.1-9.2-2.6-13.1-5.2c-4.3-2.8-8.8-5.3-12.2-9.3
	c-1.4-1.6-3.1-2.7-4.6-4.2c-1-1-0.8-2.3-0.5-3.5c0.6-1.9,2-3,3.9-3.4c3.5-0.7,7.1-1.6,10.7-2.1c6.2-0.8,12.5-1.6,18.8-2.9
	c5.9-1.2,11.8-2.7,17.6-4.1c2.4-0.6,4.8-1.1,7.1-1.7c4.6-1.2,9.1-2.5,13.7-3.7c4.3-1.1,8.6-2.2,13-3.4c5.6-1.5,11.2-3,16.7-4.3
	c4.5-1.1,9-2.2,13.5-3.4c2.5-0.6,4.8-1.3,7.2-2c4.8-1.4,9.5-2.7,14.2-4.1c7.2-2.1,14.1-5.2,20.8-8.6c2.5-1.2,4.8-3,5.9-5.6
	c0.2-0.7,0.4-1.5,0.2-2.1c-1.9-5.8-4.9-11.2-7.5-16.7c-1.3-2.8-2.2-5.8-3.4-8.7c-0.4-1.1-0.7-2.4-1.3-3.5c-1.7-3.7-3.5-7.4-5.3-11
	c-1.6-3.1-3.1-6.2-4.8-9.3c-2.1-4.2-4.3-8.4-6.5-12.5c-2.4-4.7-4.8-9.4-7.2-14c-1.6-3-3.1-5.9-4.8-8.8c-2-3.4-4.1-6.8-6.1-10.2
	c-0.7-1.1-1.1-2.2-1.6-3.4c-1.3-2.8-2.5-5.7-3.9-8.5c-0.3-0.7-0.7-1.4-1-2.1c-1-1.9-2.1-3.8-2.5-5.9c-0.2-1-0.8-1.9-1.3-2.8
	c-1.4-2.5-2.7-5.2-3.4-8c-0.1-0.4-0.2-0.8-0.5-1.1c-1.5-2.3-1.4-4.9-1.5-7.5c-0.1-3,1.7-5.4,4.7-6.2c1.3-0.3,2.7-0.5,4.1-0.4
	c5,0.2,9.7,1.7,14.1,4.1c4.3,2.3,8.7,4.3,13,6.5c1.4,0.7,2.8,1.6,4.2,2.3c3.4,1.7,7,3.2,10.2,5.2c3.9,2.5,8.1,4.2,12.2,6.3
	c3,1.6,6,3.3,8.9,4.9c1.8,1,3.6,1.8,5.3,2.9c5.5,3.4,11,6.7,16.5,10.2c6.6,4.2,13.2,8.5,19.8,12.7c3.4,2.1,7.1,3.9,10.3,6.3
	c4.8,3.5,10.3,6.2,15.5,8.9c0.5,0.2,1,0.6,1.3,1c0.7,1.1,1.9,1.6,3.1,1.8c0.7,0.1,1.2,0.2,1.8,0.4c2.8,1.2,6,1.1,8.7-0.3
	c3.6-1.8,7.1-3.9,10.6-5.8c1.7-1,3.5-2,5.2-3c1.4-0.8,2.9-1.5,4.1-2.5c3.3-2.5,7-4.5,10.1-7.3c2.7-2.4,5.7-4.3,8.7-6.5
	c2.6-1.9,5.3-3.7,8-5.6c1.9-1.4,3.8-2.8,5.7-4.3c3.3-2.6,6.4-5.2,9.7-7.9c1.8-1.5,3.7-3,5.6-4.4c4.8-3.8,9.7-7.5,14.5-11.2
	c0.2-0.2,0.6-0.4,0.8-0.7c5.4-3.2,10.7-6.5,16.2-9.5c2.8-1.5,5.9-2.4,8.9-3.4c3.9-1.4,7.8-2.6,11.6-4c3.6-1.4,7.4-2,11.1-2.9
	c0.2,0,0.2-0.1,0.4-0.1c4.3-0.7,6,2.5,5.5,5.8c-0.5,3.1-1.3,6.2-2.5,9.2c-2.5,6.1-5.2,12-7.8,18c-1.1,2.7-1.9,5.5-3,8.2
	c-1.4,3.3-2.7,6.6-4.4,9.7c-2.1,3.6-4.5,7.1-6.9,10.4c-2.1,2.9-4.3,5.6-6.4,8.4c-1.6,2.1-3,4.3-4.6,6.5c-1.3,1.7-2.7,3.3-4.2,4.9
	c-3.7,4.1-7.4,8.1-11.1,12.2c-2.6,3-5.7,5.2-8.8,7.7c-4,3.2-7.9,6.6-11,10.8c-3,4-6,8-9,12c-1.6,2.1-3.7,3.9-5.8,5.6
	c-1.6,1.2-2.9,2.8-4.4,4.1c-1.2,1.1-2.5,2.1-3.9,3c-0.6,0.4-1,0.8-1.1,1.6c-0.2,1.2-0.9,2.3-1.1,3.5c-0.2,1.6-0.6,3.3,0.7,4.8
	c2.6,3.4,5.7,6.3,9.4,8.5c0.9,0.6,1.6,1.3,2.5,1.8c3.7,2.2,7.7,3.9,11.9,4.8c5.3,1.2,10.7,2.3,16.1,3.5c7.5,1.6,14.9,3.2,22.4,4.9
	c5.3,1.2,10.7,2.7,16,4c3.4,0.8,6.8,1.4,10.2,2.1c2.2,0.5,4.5,0.9,6.7,1.5c5.6,1.5,11.1,3.1,16.6,4.6c5.2,1.4,10.3,2.7,15.5,4.1
	c4,1.1,8,2.5,12,3.7c3,0.8,6,1.4,8.6,3c4,2.3,8,4.8,11.9,7.3c3.9,2.5,6.6,6.2,8.6,10.5c1.9,3.9,4.3,7.5,6.3,11.2
	c1.1,2.1,1.9,4.3,2.3,6.6c0.7,4.1-0.9,6.9-5,7.8c-3.3,0.7-6.5,1-9.9,0.2c-3.9-0.9-7.6-2.1-11.3-3.4c-5.8-2.1-11.7-3.8-17.6-5.7
	c-1.9-0.6-3.7-1.4-5.5-1.8c-3-0.8-6.1-1.4-9.1-2.1c-1.6-0.4-3.2-0.7-4.8-1.1c-3.9-0.7-7.6-1.5-11.5-2.1c-2.6-0.4-5.3-0.7-8-1.1
	c-3-0.4-6.1-0.7-9.1-1.2c-2.6-0.4-5.2-1.1-7.8-1.4c-4.4-0.6-8.9-1-13.2-1.5c-4.5-0.5-8.9-1.1-13.5-1.6c-2.1-0.2-4.3-0.2-6.5-0.2
	c-3.9,0.1-7.6-0.1-11.4-0.5c-3.9-0.4-7.9-0.4-11.9-0.4c-4.5-0.1-9-0.1-13.5-0.1c-1.6,0-3.1,0.4-4.8,0.6c-1,0.2-2.1,0.2-3.1,0.4
	c-2.5,0.4-4.9,0.8-7.4,1.3c-0.5,0.1-0.8,0.4-1.3,0.7c-1.2,0.7-2.4,1.7-3.8,2.2c-1.4,0.6-2.7,1.4-3.8,2.5c-2.4,2.5-4.8,4.8-6.4,7.9
	c-2.1,3.9-4.7,7.4-6.7,11.2c-1.9,3.5-3.5,7.1-4.6,10.9c-1.4,4.9-2.9,9.8-4.6,14.7c-2.1,5.7-4.3,11.3-6.7,16.8
	c-1.7,3.9-3.9,7.5-6,11.2c-0.9,1.7-1.7,3.4-2.6,5.2c-1.5,2.9-3,5.7-4.4,8.5c-0.7,1.5-1.6,3-2.2,4.4c-1.9,4.1-4.3,7.9-6.8,11.6
	c-2.5,3.7-4.7,7.4-7,11.2c-4,6.4-8,12.8-12,19.1c-2,3-3.8,6.2-6.1,8.9c-3.6,4.3-6.7,9-11.1,12.7c-2.2,1.9-4.8,3.4-7.4,4.6
	c-1.1,0.5-2.2,0.7-3.4,0.7c-3.2,0.1-4.6-2.3-5.6-4.8C213.5,408.6,213.2,405.4,213.2,402.3z M277.3,238.9c2.2,0.2,4-0.5,5-2.6
	c0.1-0.2,0.2-0.2,0.2-0.3c2.7-3.9,2.1-9.4-1.4-12.5c-1.2-1.1-2.7-1.9-4.1-2.9c-1.7-1.2-3.6-1.1-5.3-0.3c-2.7,1.2-5.1,3-7.1,5.1
	c-2.1,2.2-1.6,5.7,0.7,7.6c0.4,0.3,0.7,0.8,1.1,1.2c0.8,0.8,1.6,1.6,2.6,2.4C271.5,238.5,274.4,238.8,277.3,238.9L277.3,238.9z
	 M278.8,184.6c-5.5-1-9.7,4.8-9.3,8.9c0.1,1.1,0.2,2.1,0.3,3.1c0.5,3.9,3.3,7,7.1,7.9c3.2,0.8,6.6,0.9,9.7,0
	c5.4-1.6,6.8-4.2,6.3-8.5c-0.2-2.1-1.4-4-2.4-5.9c-1.1-2.1-2.8-3.4-4.9-4.2C283.4,185,281.1,184.5,278.8,184.6L278.8,184.6z
	 M309.1,163.1c0-1.5-0.7-3.4-2.1-5.4c-1.6-2.2-3.4-3.5-6-4.3c-4.1-1.1-8.6,0.6-11.6,4.3c-1.6,2.1-1.6,3.5-0.1,5.8
	c0.4,0.6,0.7,1.2,1.1,1.8c2.2,4.2,6.9,7,13,5.5C306.8,170.2,309.1,167.5,309.1,163.1z M310.2,220.7c1.2,0.1,2.6-0.4,4.4-1.5
	c2.3-1.4,4.1-5,3.8-7.5c-0.7-5.1-4.8-9.1-9.8-10c-1.7-0.3-3.2,0.1-4.4,1.1c-1.6,1.5-3.2,3-4.8,4.7c-0.4,0.5-0.8,1.3-0.7,1.9
	c0.3,1.8,0.7,3.8,1.6,5.3C302.4,218.5,305.8,220.4,310.2,220.7L310.2,220.7z M248.8,211.9c1.9-0.2,3.8-0.2,4.4-2.5
	c0.1-0.2,0.3-0.2,0.4-0.5c0.6-1.1,1.5-2.1,1.7-3.2c0.9-3.9,0.2-8.1-5.3-9.3c-0.5-0.1-1-0.2-1.5-0.2c-3,0.2-6,0.8-7.5,3.8
	c-0.8,1.5-1.1,3.3-1.4,4.9c-0.4,2.5,1.4,4.8,3.5,5.5C245,211,246.9,211.4,248.8,211.9L248.8,211.9z M262.1,176.3
	c4.4,0.1,5.3-0.5,7.1-3.4c0.2-0.2,0.3-0.5,0.5-0.7c2.6-3.7,0.7-9.4-3.5-10.8c-0.8-0.2-1.7-0.5-2.6-0.7c-2.7-0.8-4.9,0.1-6.7,2.1
	c-0.8,0.9-1.6,1.9-2.3,3c-1.6,2.5-1.5,5.2,0.4,7.5C257,175.4,259.6,176.4,262.1,176.3L262.1,176.3z M264.6,261.6
	c0.7,0.1,1.2,0.2,1.7,0.2c1.7-0.1,3.3-0.3,4.4-1.8c1.7-2.2,1.9-4.7,0.5-7.1c-1.4-2.4-3.7-3.8-6.5-3.9c-2.7-0.1-4.8,1.5-6.6,3.2
	c-2.4,2.4-1.8,6.1,0.9,8C260.7,261.4,262.6,261.9,264.6,261.6L264.6,261.6z M249.2,146.8c-0.7,0.2-1.5,0.2-2.2,0.5
	c-3.8,1.2-4.7,3.5-2.3,6.7c1.4,2,2.8,4,5.7,4.3c2.5,0.2,3.9-1,5.3-2.5c1.2-1.3,0.2-2.6-0.2-3.9c-0.1-0.2-0.1-0.2-0.2-0.4
	C254.5,148.8,252.1,147.1,249.2,146.8L249.2,146.8z M335.5,213.2c-1.8,0.2-3.9,1.1-5.7,2.4c-2.5,1.7-2.4,3.2-0.2,5.2
	c1.4,1.3,2.8,2.5,4.3,3.6c0.5,0.4,1.1,0.7,1.7,0.7c4.9,0.1,7.1-3.5,5.9-7.1c-0.1-0.3-0.2-0.7-0.3-1
	C340.4,214.4,338.7,213.2,335.5,213.2z M262.2,280.3c1.3-0.2,2.5-0.3,3.4-1.5c1.6-2.1,2.6-4.2-0.3-6.6c-0.2-0.2-0.5-0.5-0.7-0.7
	c-1.5-1.3-3.4-2-5.3-1.9c-3.4,0.2-5.8,3.8-4.7,7c0.2,0.7,0.9,1.5,1.6,1.8C258.1,279.2,260.2,279.7,262.2,280.3L262.2,280.3z
	 M309.9,141.9c-3.1-0.3-4.3,3.3-3.1,5.2c0.6,1,1.1,2.1,1.6,3.1c1.5,2.9,3.4,3.6,6.3,2.3c0.4-0.2,0.8-0.5,1.2-0.7
	c1.2-0.7,1.7-1.9,1.4-3.2C316.3,145,314,142.2,309.9,141.9L309.9,141.9z M351.6,225.6c0,2.9,2.1,4.3,4.2,5.4
	c2.2,1.2,4.4,0.3,5.7-1.9c1.2-2.2,0.7-6.6-1.1-8.4c-1.1-1.2-2.6-1.7-4.2-1.2C353.3,220.1,351.7,222.4,351.6,225.6L351.6,225.6z
	 M239.4,143.3c2.1,0.4,3.8-0.5,5.1-2.3c0.6-0.8,0.7-1.6,0.2-2.5c-2-3.9-5.6-5.7-9.6-5.1c-1.1,0.2-1.8,0.7-2,1.9
	C232.5,138.9,234.9,143.6,239.4,143.3z M166.9,61.5c-1.3,0-2.1,0.3-3.4,1.6c-1.1,1.1-1.4,2.6-0.5,3.9c1.4,2.1,3.2,3.6,5.7,4.3
	c2.1,0.6,4.7-1.4,4.7-3.5C173.1,64,169.8,61.7,166.9,61.5z M200.7,225c0.6-0.2,1.7-0.4,2.8-0.9c2.2-1.1,2.8-3.4,1.3-5.3
	c-0.8-1-1.8-1.9-2.9-2.6c-3.3-2.1-6.3-2-8.4,2.1c-0.5,1.1-0.6,2,0.1,3C195,223.7,197.3,224.9,200.7,225L200.7,225z M342.8,131.1
	c0.5-0.2,1.5-0.3,2.4-0.7c1.2-0.5,1.6-1.2,1.5-2.5c-0.4-3.7-4.8-6.6-8.4-5.4c-1.5,0.5-2.5,1.5-2.8,3.1c-0.2,1.6,0.4,2.7,1.6,3.6
	C338.7,130.4,340.4,131,342.8,131.1z M215.5,221.1c0.4-0.1,0.8-0.1,1.2-0.2c2.7-0.7,4-3.4,3-5.9c-1.2-2.8-3.6-3.9-6.3-4.4
	c-1.7-0.3-2.7,0.5-3.5,1.9C207.8,216.2,211.2,220.9,215.5,221.1L215.5,221.1z M228.6,129.3c1.4,0,2.8-0.7,3.7-1.7
	c0.7-0.7,0.8-1.6,0.4-2.5c-1.2-2.5-4.4-4.9-7.6-5c-2.5,0-3.9,1.7-3,4.3C222.7,126.8,226,129.2,228.6,129.3z M361,103.6
	c0.6,3.4,4.8,6.2,7.9,5.5c1.5-0.3,2.4-1.4,2.2-3c-0.2-2.4-1.4-3.9-3.4-5.2c-1.8-1.1-3.9-0.7-5.2,0.9
	C362.1,102.4,361.5,102.9,361,103.6L361,103.6z M185,76.7c0.1-1.6-0.7-2.9-1.6-4.2c-1.3-1.7-3-1.7-4.8-1.5c-1.8,0.2-2.9,1.6-3.6,3.1
	c-0.4,0.9-0.2,1.9,0.7,2.6c0.6,0.4,1.1,0.9,1.6,1.4c1.2,1.1,2.9,1.8,4.5,1.8C183.6,79.9,185,78.6,185,76.7L185,76.7z M357.1,116.1
	c0-1.6-1.1-3.5-3-5.1c-1.6-1.4-3.5-1.5-4.9-0.3c-1.5,1.1-2.1,3.4-1.2,5.1c1,2,2.9,3.3,5.1,3.5C355.2,119.5,357.1,117.9,357.1,116.1
	L357.1,116.1z M214,106.1c-2.8,0-4.2,1.5-3.6,3.5c0.4,1.2,0.9,2.3,1.6,3.4c0.3,0.5,0.8,0.9,1.4,1.1c1.2,0.3,2.5,0.6,3.7,0.7
	c1.3,0.2,2.2-0.7,3-1.6c0.7-1,0.2-1.9-0.2-2.7c-0.5-0.8-1.1-1.6-1.7-2.4C217,106.6,215.4,106.2,214,106.1z M250.3,292
	c0.2,0.7,0.3,1.6,0.7,2.3c1.2,1.7,2.9,2.7,5,3.1c1.7,0.3,3.2-0.3,3.9-1.6c0.8-1.5,0.7-3.6-0.2-4.9c-1.6-2-3.8-2.1-6-2.1
	C251.6,288.7,250.7,289.8,250.3,292L250.3,292z M228.8,215.3c1.5-0.2,2.7-0.3,3.4-1.8c0.7-1.6,0.6-3-0.7-4.2
	c-0.4-0.4-0.8-0.9-1.2-1.4c-1.6-1.7-3.7-2.1-5.9-1.7c-1.3,0.2-2.3,1.2-2.4,2.3c-0.1,2.5,0.7,4.5,3,5.7
	C226.3,214.8,227.6,215,228.8,215.3L228.8,215.3z M325.1,190.4c0.5-0.1,1.1-0.2,1.6-0.2c1.3-0.3,2.1-1.2,2.1-2.5
	c0.2-2.6-2.2-5.6-4.8-5.9c-1.2-0.2-1.9,0.2-2.1,1.5c-0.2,1.1,0,2.2-1.2,2.9c-0.2,0.2-0.2,0.9-0.2,1.4
	C321,189.4,322.6,190.4,325.1,190.4z M392.2,238.6c4.4,0.1,6.2-2.4,4.9-5.8c-0.2-0.5-0.5-1-0.8-1.5c-0.7-1.1-1.9-1.6-3-1.2
	c-1.6,0.6-3.2,1.3-4.7,2.2c-1.1,0.7-1.1,2.3-0.4,3.4C389.3,237.5,390.9,238.5,392.2,238.6L392.2,238.6z M192.5,79.8c-2,0-2.9,1-3,3
	c-0.2,3.6,4.8,6,7.1,5.3c1.7-0.5,2.5-2.1,2-3.7C197.7,81.6,195.3,79.8,192.5,79.8z M326.4,141.9c0.7-0.1,1.4-0.2,2.1-0.3
	c1.8-0.7,2.5-2.1,1.7-3.8c-1.6-3.2-5.3-4.2-7.7-3.2c-1.9,0.7-2.6,3.1-1.2,4.7C322.7,140.8,324.3,141.9,326.4,141.9L326.4,141.9z
	 M256.6,311c0.1-3.2-4.2-6.3-7.2-5.2c-0.5,0.2-1,0.7-1.2,1.3c-0.7,1.6,0,3,0.7,4.3c1.3,2.3,3.9,3.1,6.2,1.9
	C256.1,312.8,256.6,312.1,256.6,311L256.6,311z M374.6,233.4c0.5-0.2,1.5-0.5,2.4-1c1-0.7,1.5-1.6,1.3-2.9c-0.2-2.2-3.1-4.8-5.3-4.3
	c-1.5,0.2-2.8,1.1-4.1,1.7c-0.7,0.4-1,1.3-0.7,2.2C368.7,231,372.1,233.4,374.6,233.4L374.6,233.4z M470.5,252c0-2.8-3.2-5.4-5.8-5
	c-1.8,0.3-3.3,3-2.4,4.4c1.1,1.6,2.5,3,4.5,3.5C469.1,255.6,470.5,254.4,470.5,252L470.5,252z M201.3,95.7c-0.4,3.1,3.1,5.9,6.5,5.1
	c1.6-0.4,2.5-1.6,2.3-3.2c-0.2-2.2-2.4-4.6-4.6-5.2C203,91.9,201.3,93.2,201.3,95.7z M242.5,345.9c-0.1,1.9,1.8,4.1,3.5,4.3
	c2.5,0.2,4.3-1.4,4.3-3.7c0.1-2.3-1.8-4.4-4.2-4.5C244,341.7,242.7,343.2,242.5,345.9z M315.8,249.7c2.8,0.2,4.3-1.5,3.9-3.5
	c-0.3-1.9-2.9-4.2-4.8-4.4c-1.7-0.2-3.8,1.5-3.3,3.3c0.2,0.5,0.2,1.1,0.2,1.6c0.2,1.1,0.7,1.9,1.6,2.2
	C314.3,249.3,315.3,249.5,315.8,249.7L315.8,249.7z M280,141.8c1.1-0.1,2.1-0.7,2.5-1.8c1-2.5,0.1-3.9-1.6-5.7
	c-1.4-1.6-5.6-0.3-5.8,1.8C274.8,139.2,277.1,141.6,280,141.8z M233.8,244.4c0.1-2.1-1.6-4.1-3.5-4.1c-2.1,0-4.3,2.1-4.3,4.3
	c-0.1,1.9,2,3.5,4.4,3.5C232.6,248.2,233.8,247,233.8,244.4L233.8,244.4z M245.2,326.8c0.4,1,0.7,2.1,1.3,3c1,1.6,2.6,1.6,4.3,1.2
	c1.6-0.2,2-1.4,2.2-2.6c0.5-2-0.3-3.3-2.6-4.6c-1.1-0.7-2.4-0.7-3.6-0.1C245.6,324.2,245.4,325.4,245.2,326.8z M483,253.8
	c-1.6-0.1-2.3,0.2-2.9,1.5c-0.4,1-0.2,2.1,1,2.9c1.1,0.8,2.5,1.6,3.8,2.1c1.6,0.6,3.5-1,3.4-2.6c-0.2-1.6-1.5-3.2-3-3.5
	C484.5,253.9,483.7,253.8,483,253.8L483,253.8z M94.5,238.3c-2.1,0-3.1,0.6-3.6,1.9c-0.5,1.6-0.1,2.5,1.6,3.7c1.4,1.1,3,1,4.6,0.7
	c1.1-0.2,1.9-0.7,2.2-1.9c0.4-1.1-0.1-2.1-0.8-2.8C97.2,238.8,95.7,238.5,94.5,238.3z M373.9,93.3c-0.1,1.8,0.7,3,2.8,3.5
	c0.6,0.2,1.1,0.2,1.6,0.2c2.1-0.1,3.3-1.7,2.1-3.5c-0.8-1.3-1.9-2.4-3.2-3.2c-1.8-1.1-3.4-0.1-3.4,2.1
	C373.9,92.4,373.9,92.7,373.9,93.3z M412.5,239.7c0.4-0.1,0.7-0.1,1.1-0.1c2.5-0.3,3.4-2,2.2-4.3c-1.1-2.1-1.6-2.4-3.9-2.1
	c-1.6,0.2-3.4,2-3.4,3.2c0,1.5,1.5,3,3.3,3.2C411.9,239.7,412.2,239.7,412.5,239.7z M148.4,232.5c1.4,2.3,5.8,3.6,8.1,2.5
	c1-0.5,1.6-1.6,1.2-2.5c-0.7-1.9-4.2-3.7-6.1-3.1c-0.5,0.2-0.9,0.4-1.2,0.7C149.8,230.8,149.1,231.7,148.4,232.5z M169.9,232.4
	c1.3,0.1,2-0.2,2.6-1.2s0.3-1.9-0.2-2.7c-1.3-2.4-3.5-3.2-6.4-2.7c-1.6,0.3-2.2,1.4-1.6,3C164.9,230.6,167.5,232.2,169.9,232.4
	L169.9,232.4z M295.6,251.9c0.2,2.6,1,3.7,3.2,3.7c0.5,0,1-0.1,1.5-0.2c2-0.6,2.7-2.3,1.6-4.1c-0.7-1.3-2-2.1-3.4-2.6
	c-1.2-0.4-2.4,0.2-2.7,1.6C295.6,250.7,295.6,251.3,295.6,251.9L295.6,251.9z M447.9,249.3c1.1-0.2,2.2-0.4,2.9-1.6
	c0.7-1.3,0.2-2.3-0.7-3.2c-0.7-0.7-1.5-1.2-2.3-1.8c-0.8-0.6-1.6-0.7-2.5-0.1c-0.9,0.7-1.7,1.5-1.6,2.7
	C443.9,247.2,445.9,249.3,447.9,249.3L447.9,249.3z M241.1,366.8c1.6,0,2.9-1.3,3-2.9l0,0c0.1-1.9-1.9-4-3.7-4
	c-1.5-0.1-3.3,2.1-3.2,4C237.1,365.4,239,366.8,241.1,366.8L241.1,366.8z M302.2,266.8c-0.2-0.4-0.2-0.8-0.4-1.2
	c-0.8-1.7-2.4-2.5-4.2-2.7c-1.7-0.2-2.6,0.4-2.8,2.1c-0.2,2.5,2.6,5,5.1,4.5C301.4,269.4,302.2,268.6,302.2,266.8L302.2,266.8z
	 M108.9,237.9c-0.7,0.2-1.4,0.2-2,0.5c-0.4,0.2-0.7,0.7-0.7,1.1c-0.1,3,3,5.3,5.9,4.4c1.7-0.6,2.2-1.9,1.3-3.4
	C112.4,238.9,110.9,238,108.9,237.9L108.9,237.9z M207.5,180.8c0.1,0.2,0.2,0.7,0.4,1.1c1,1.5,2.5,2.1,4.3,2.3
	c1.6,0.2,2.6-0.4,3.1-1.7c0.6-1.5,0-3-1.5-3.9c-1.1-0.7-2.6-0.7-3.6,0.3C209.5,179.4,208.7,180,207.5,180.8z M180.2,221.9
	c-2.5-0.1-3,0.5-2,2.5c0.1,0.2,0.1,0.2,0.2,0.4c1.1,1.9,2.6,3.2,4.8,3.7c1,0.2,2.1-0.1,2.5-1.1c0.4-0.9,0.7-2-0.2-2.7
	C184,223.3,182.3,221.8,180.2,221.9z M429.8,238.1c-0.5,0.2-1.3,0.3-2.1,0.7c-1.1,0.6-1.6,1.5-0.9,2.5c0.7,1.1,1.5,2,2.5,2.7
	c1.6,1.1,3.5,0.3,4.1-1.6C434,240.3,432.3,238.1,429.8,238.1L429.8,238.1z M141.9,238.2c-0.3-0.7-0.5-1.8-1.1-2.3
	c-1-0.7-2.1-1.3-3.3-1.6c-1.7-0.4-3,1.2-2.6,2.9c0.6,2.1,2.5,3.4,4.9,3.2C141.3,240.3,141.7,239.8,141.9,238.2L141.9,238.2z
	 M335.4,202.3c2.5,0.2,3.5-0.8,3.1-2.9c-0.2-0.6-0.4-1.1-0.7-1.7c-1.3-2.5-2.6-2.6-4.3-0.6c-0.2,0.2-0.4,0.4-0.6,0.7
	c-0.9,1.2-0.7,2.8,0.5,3.6C334.1,202,335,202.3,335.4,202.3L335.4,202.3z M124.8,242.4c0.5-0.1,1.2-0.1,2-0.3
	c1.5-0.5,2.1-2.3,1.1-3.4c-1.5-1.7-4.5-2.5-6.5-1.6c-0.4,0.2-0.9,0.7-0.9,1.1C120.4,240.5,122.4,242.4,124.8,242.4z M385.6,82.2
	c-0.4,0.1-0.8,0.2-1.2,0.2c-1,0.3-1.3,0.9-1,1.9c0.5,1.7,3.1,3.7,4.9,3.6c1.6,0,2.4-1.1,2.1-2.6C390,83.6,387.9,82.2,385.6,82.2
	L385.6,82.2z M158.2,60.2c1.7,0.1,2.8-0.8,2.9-2.2c0.1-1.6-1.3-3.3-2.8-3.4c-1.8-0.1-3.6,1.5-3.6,3
	C154.7,59.4,155.8,60.1,158.2,60.2z M333.7,174.3c0.1-1.7-1.2-3.3-2.8-3.3c-1.7-0.1-3.2,1-3.2,2.3c-0.1,2,1.2,3.4,3.1,3.4
	C332.4,176.8,333.6,175.8,333.7,174.3z M264.8,120.3c-0.1,2.3,1.1,3.7,3,3.6c1.3-0.1,2.2-0.7,2-2.1c-0.2-1.2-0.8-2.5-1.5-3.5
	c-0.4-0.7-1.4-1.1-2.1-0.7c-0.9,0.3-1.2,1.1-1.3,2C264.8,119.7,264.8,120.1,264.8,120.3z M292.2,126.5c-2.2,0-3.1,1.4-2.1,3.4
	c0.6,1.1,1.6,1.8,2.8,2c1.2,0.2,2.4-0.6,2.6-1.8c0.1-0.2,0.1-0.4,0-0.6C295.4,127.4,294.4,126.4,292.2,126.5z M235,269.8
	c0-1.4-0.7-2.7-1.8-3.3c-1.4-0.7-3.1,0-3.1,1.5c0,1,0.2,2.1,0.7,3c0.5,1.1,1.5,1.5,2.5,1.1C234.2,271.8,234.9,270.9,235,269.8z
	 M210.2,247.7c1.5,0,2.4-1,2.4-2.8c0-1.5-0.7-2.2-1.9-2.2c-1.4,0-3.4,1.5-3.4,2.6C207.2,246.5,208.6,247.6,210.2,247.7L210.2,247.7z
	 M500.7,261.9c0.1-1-1.2-3-2.1-3.3c-0.7-0.3-2.1,0.2-2.8,1c-0.6,0.7-0.6,1.6-0.1,2.1c0.7,0.8,1.6,1.5,2.5,2
	C499.3,264.2,500.6,263.1,500.7,261.9L500.7,261.9z M201.6,199.1c0-1.6-1.1-2.6-2.8-2.5c-1.5,0-2.5,0.8-2.5,1.9
	c0,1.4,1.6,2.7,3.4,2.8C200.8,201.3,201.6,200.5,201.6,199.1z M234.9,382.5c0.7-0.2,1.3-0.4,1.8-0.7c0.8-0.5,1.1-1.6,0.6-2.5
	c0-0.1-0.1-0.1-0.1-0.1c-0.7-1-2.5-1.6-3.7-1.1c-1.6,0.6-1.9,2.5-0.6,3.4C233.5,382,234.2,382.1,234.9,382.5L234.9,382.5z
	 M76.4,241.1c1.2,1.9,3,2.5,5.1,2.3c0.5-0.1,1.2-0.5,1.4-0.9c0.2-0.4-0.2-1.2-0.6-1.6C80.9,239.2,78.2,239.4,76.4,241.1z
	 M214.7,162.8c-1.4-0.1-2.4,0.4-2.5,1.3c-0.2,1.2,0.9,2.3,2.3,2.5c1.2,0.1,2.3-0.8,2.4-2c0,0,0,0,0-0.1
	C217.1,163.4,216.4,162.9,214.7,162.8L214.7,162.8z M229.6,391.6c-1.7,0.1-2.4,0.8-1.9,1.9c0.4,0.8,0.9,1.5,1.6,2
	c0.7,0.5,2.2,0,2.6-0.7c0.3-0.7,0.1-1.9-0.7-2.4C230.7,392.1,229.9,391.8,229.6,391.6L229.6,391.6z M392.6,73c0.1,2.1,1.6,2.5,3,3.2
	c1,0.5,1.8,0.2,2.1-0.5c0.4-0.9-0.1-1.7-0.8-2.1C395.7,72.8,394.3,72.2,392.6,73z M402.2,63.7c-1.1,0.2-1.5,0.7-1.2,1.5
	c0.3,1,2.1,2.1,3.1,2c0.4-0.1,1-0.4,1.1-0.7c0.1-0.3-0.1-1.1-0.4-1.3C404,64.6,403.1,64.1,402.2,63.7L402.2,63.7z M69.1,239.7
	c-1.6-2.2-2.4-2.5-3.9-1.4C66.1,240.6,67.1,241,69.1,239.7L69.1,239.7z M150.6,49.2c-0.7,0-1.2,0.5-1.3,1.3c-0.1,1,0.9,2.1,1.9,2.1
	c0.7,0.1,1.1-0.4,1.2-1.1C152.4,50.4,151.6,49.3,150.6,49.2z"/>
<path fill="#FFC107" d="M277.3,238.9c-2.9-0.2-5.8-0.4-8.3-2.3c-0.9-0.7-1.7-1.6-2.6-2.4c-0.4-0.4-0.7-0.9-1.1-1.2
	c-2.4-1.9-2.8-5.4-0.7-7.6c2-2.1,4.4-3.9,7.1-5.1c1.8-0.8,3.6-0.8,5.3,0.3c1.4,0.9,2.9,1.7,4.1,2.9c3.5,3.1,4.1,8.6,1.4,12.5
	c-0.1,0.1-0.2,0.2-0.2,0.3C281.2,238.4,279.5,239.2,277.3,238.9z M275.9,235.7c2.6-0.1,3.6-0.9,4.2-3.3c1.1-4.4-0.7-6.8-4.3-9.1
	c-0.8-0.5-1.7-0.5-2.5,0.1c-1.1,0.7-2.4,1.3-3.4,2.1c-1,0.8-2.1,1.6-2.2,3.1c-0.1,3,1.4,5.2,4.3,6.2
	C273.2,235.2,274.6,235.4,275.9,235.7z"/>
<path fill="#FFC107" d="M278.8,184.6c2.4-0.2,4.7,0.4,6.9,1.2c2.1,0.8,3.9,2.2,4.9,4.2c1,1.9,2.1,3.9,2.4,5.9c0.5,4.4-0.9,7-6.3,8.5
	c-3.2,0.9-6.5,0.8-9.7,0c-3.8-0.9-6.6-4.1-7.1-7.9c-0.2-1-0.2-2.1-0.3-3.1C269,189.4,273.3,183.6,278.8,184.6z M280.8,202.8
	c1.8-0.3,3.7-0.5,5.4-1.1c1.8-0.7,3.6-1.8,3.8-4c0.2-3.4-0.8-6.3-3.7-8.4c-2-1.5-4.3-2-6.8-2.1c-3.3-0.2-5.2,1.6-6.6,4.2
	c-0.5,0.8-0.7,1.7-0.2,2.8c0.2,0.4,0,1.1,0,1.6c-0.3,3,0.5,5,3.6,6.2C277.6,202.3,279.1,202.4,280.8,202.8L280.8,202.8z"/>
<path fill="#FFC107" d="M309.1,163.1c0,4.3-2.3,7.1-5.7,7.9c-6.1,1.5-10.7-1.4-13-5.5c-0.3-0.6-0.7-1.2-1.1-1.8
	c-1.5-2.3-1.6-3.8,0.1-5.8c3-3.8,7.5-5.5,11.6-4.3c2.5,0.7,4.4,2.1,6,4.3C308.3,159.7,309,161.7,309.1,163.1z M299.6,168.3
	c0.9-0.2,1.8-0.2,2.6-0.5c3-0.9,4.1-3,3.4-6.1c-0.4-1.6-1.6-2.8-2.5-3.9c-1.1-1.3-2.6-1.8-4.3-1.6c-1.3,0.2-2.6,0.5-3.8,1
	c-2.4,1-3.6,3-3,5C292.8,165.2,295.8,168.4,299.6,168.3L299.6,168.3z"/>
<path fill="#FFC107" d="M310.2,220.7c-4.3-0.3-7.8-2.2-9.9-5.9c-0.9-1.6-1.2-3.5-1.6-5.3c-0.1-0.6,0.3-1.4,0.7-1.9
	c1.5-1.6,3.1-3.2,4.8-4.7c1.2-1.1,2.8-1.5,4.4-1.1c5.1,0.8,9.1,4.8,9.8,10c0.3,2.5-1.5,6.1-3.8,7.5
	C312.7,220.3,311.3,220.8,310.2,220.7z M315,213.5c0-3-1-5.1-2.5-6.8c-2.2-2.4-5.7-2.3-7.9,0.1c-0.4,0.4-0.7,0.8-1.1,1.2
	c-2.4,2.1-2.1,5.5,0.7,7.2c0.8,0.5,1.7,1,2.6,1.4c3.3,1.6,4.7,1.3,7.3-1.2C314.5,214.7,314.9,213.8,315,213.5L315,213.5z"/>
<path fill="#FFC107" d="M248.8,211.9c-1.9-0.5-3.8-0.8-5.6-1.5c-2.1-0.7-3.9-3.1-3.5-5.5c0.3-1.7,0.7-3.4,1.4-4.9
	c1.6-3,4.5-3.6,7.5-3.8c0.5,0,1,0.2,1.5,0.2c5.5,1.1,6.2,5.3,5.3,9.3c-0.2,1.1-1.1,2.1-1.7,3.2c-0.1,0.2-0.4,0.2-0.4,0.5
	C252.5,211.6,250.7,211.6,248.8,211.9z M248.7,207.6c2.7,0,4.3-1,4.7-2.8c0.3-1.7-1.3-3.7-3.4-4.4c-2.1-0.7-4.1-0.4-6,0.5
	c-1.2,0.6-1.6,1.7-1.6,2.9c-0.1,1.1,0.4,1.9,1.4,2.4C245.3,207,247,207.8,248.7,207.6z"/>
<path fill="#FFC107" d="M262.1,176.3c-2.6,0.2-5.2-0.9-7.1-3.2c-2-2.2-2.1-5-0.4-7.5c0.7-1.1,1.5-2.1,2.3-3c1.8-2,4-2.9,6.7-2.1
	c0.8,0.2,1.7,0.5,2.6,0.7c4.3,1.4,6.2,7.1,3.5,10.8c-0.2,0.2-0.3,0.4-0.5,0.7C267.5,175.8,266.6,176.3,262.1,176.3z M262,173.1
	c3,0.2,5.4-1.6,6.2-3.8c0.6-1.6-1.1-4.8-2.9-5.2c-4.4-1-3.6-1.5-7,1.7c-0.7,0.6-1.2,1.3-1.8,2c-1.2,1.6-1,2.5,0.7,3.8
	C258.6,172.6,260.3,173.1,262,173.1L262,173.1z"/>
<path fill="#FFC107" d="M264.5,261.6c-1.9,0.2-3.9-0.2-5.4-1.4c-2.7-1.9-3.3-5.6-0.9-8c1.7-1.7,3.9-3.3,6.6-3.2
	c2.8,0.2,5.1,1.5,6.5,3.9c1.4,2.4,1.2,4.8-0.5,7.1c-1.1,1.6-2.8,1.7-4.4,1.8C265.7,261.9,265.2,261.7,264.5,261.6z M261.1,254.6
	c-0.4,2-0.1,3.4,1.5,4.1c1.1,0.5,2.2,0.8,3.4,1c2.1,0.2,4-1.5,3.9-3.5c-0.1-1.2-0.6-2.3-1.5-3.1c-1.2-1.1-2.6-1.5-4.3-1.1
	c-2.1,0.5-3.9,1.2-4.8,3.4L261.1,254.6z"/>
<path fill="#FFC107" d="M249.2,146.8c3,0.2,5.3,2,6.3,4.7c0.1,0.2,0.1,0.2,0.2,0.4c0.4,1.3,1.3,2.6,0.2,3.9
	c-1.4,1.6-2.9,2.7-5.3,2.5c-3-0.2-4.3-2.3-5.7-4.3c-2.3-3.2-1.5-5.6,2.3-6.7C247.7,147.1,248.4,146.9,249.2,146.8z M248.3,149.1
	c-0.8-0.1-1.7,0.2-2.1,1.1c-0.4,0.9-0.1,1.8,0.7,2.5c0.8,0.8,1.6,1.7,2.6,2.3c0.7,0.4,1.6,0.6,2.4,0.6c1.1,0.1,1.5-0.3,1.6-1.4
	C253.3,151.2,251.3,149.1,248.3,149.1L248.3,149.1z"/>
<path fill="#FFC107" d="M335.5,213.2c3.1,0,4.8,1.2,5.7,3.9c0.1,0.3,0.2,0.7,0.3,1c1.2,3.6-1,7.1-5.9,7.1c-0.7-0.1-1.2-0.3-1.7-0.7
	c-1.5-1.1-3-2.4-4.3-3.6c-2.2-2.1-2.2-3.5,0.2-5.2C331.6,214.2,333.7,213.3,335.5,213.2z M330.4,218.3c1.1,2,2.9,3,4.6,3.9
	c1.4,0.8,3.1,0.7,4.3-0.4c1-0.9,0.5-2.2,0.2-3.3c0-0.2-0.1-0.2-0.1-0.4c-0.6-1.8-1.9-2.7-3.7-2.5
	C333.7,215.7,331.8,216.4,330.4,218.3L330.4,218.3z"/>
<path fill="#FFC107" d="M262.2,280.3c-2.1-0.7-4.1-1.1-6.1-1.9c-0.7-0.2-1.3-1.1-1.6-1.8c-1.1-3.2,1.3-6.8,4.7-7
	c2-0.1,3.9,0.6,5.3,1.9c0.2,0.2,0.5,0.5,0.7,0.7c3,2.4,2.1,4.4,0.3,6.6C264.8,280,263.5,280,262.2,280.3z M261.6,278
	c0.6-0.2,1-0.2,1.4-0.3c1.9-0.7,2.2-2.4,0.7-3.7c-0.8-0.7-1.8-1.4-2.8-1.6c-0.9-0.2-2.1,0-3,0.4c-1.1,0.4-1.5,1.6-1.3,2.6
	c0.2,0.7,0.9,1.4,1.6,1.6C259.3,277.5,260.6,277.7,261.6,278L261.6,278z"/>
<path fill="#FFC107" d="M309.9,141.9c4.2,0.3,6.5,3.1,7.5,6.7c0.3,1.3-0.2,2.5-1.4,3.2c-0.4,0.2-0.8,0.5-1.2,0.7
	c-2.9,1.3-4.8,0.6-6.3-2.3c-0.5-1.1-1.1-2.1-1.6-3.1C305.6,145.2,306.8,141.6,309.9,141.9z M312.6,150.9c1.7-0.4,2.1-1,1.9-2.7
	c-0.2-1.8-2.1-3.6-3.9-3.9c-0.7-0.2-1.2-0.1-1.6,0.6c-0.3,0.7-0.2,1.2,0.3,1.8C310.5,148,311.5,149.5,312.6,150.9z"/>
<path fill="#FFC107" d="M351.6,225.6c0.1-3.1,1.6-5.4,4.6-6.2c1.6-0.4,3,0.1,4.2,1.2c1.7,1.9,2.2,6.2,1.1,8.4
	c-1.2,2.2-3.4,3.1-5.7,1.9C353.7,229.8,351.6,228.4,351.6,225.6z M354.1,226.4c0.8,1.6,2.1,2.3,3.5,2.6c1.1,0.2,2.2-0.5,2.2-1.6
	c0-1.5-0.2-3-0.6-4.4c-0.1-0.4-0.6-0.7-1-1c-1.6-0.9-3-0.3-4,1.8c1.4,1,1.6,1.2,1.4,1.9L354.1,226.4z"/>
<path fill="#FFC107" d="M239.4,143.3c-4.5,0.3-6.8-4.3-6.2-8.1c0.2-1.1,0.9-1.7,2-1.9c4-0.7,7.6,1.2,9.6,5.1
	c0.5,0.9,0.3,1.7-0.2,2.5C243.2,142.7,241.5,143.7,239.4,143.3z M236.1,135.4c-0.2,0.4-0.3,0.6-0.3,0.7c0,0.5,0,1,0.1,1.5
	c0.2,2.5,1.3,3.7,3.8,3.8c2.1,0.1,2.9-1.1,1.9-3C240.5,136.4,238.6,135.5,236.1,135.4z"/>
<path fill="#FFC107" d="M166.9,61.5c3,0.2,6.2,2.5,6.3,6.2c0.1,2.2-2.5,4.1-4.7,3.5c-2.5-0.7-4.3-2.1-5.7-4.3
	c-0.9-1.3-0.7-2.9,0.5-3.9C164.9,61.8,165.6,61.5,166.9,61.5z M166.6,64.5c-0.4,0.3-1.1,0.7-1.3,1.1c-0.2,0.4,0.4,1.1,0.8,1.5
	c0.7,0.5,1.6,0.7,2.5,1.1c0.7,0.3,1.1,0.1,1.6-0.4c0.5-0.6,0.3-1.1-0.1-1.7C169.4,64.9,168,65,166.6,64.5z"/>
<path fill="#FFC107" d="M200.7,225c-3.4-0.2-5.7-1.3-7.1-3.8c-0.6-1-0.6-1.9-0.1-3c2.1-4.2,5.1-4.3,8.4-2.1c1.1,0.7,2.1,1.6,2.9,2.6
	c1.6,1.9,1,4.3-1.3,5.3C202.4,224.7,201.3,224.8,200.7,225z M199.6,223c2.5,0.1,3.8-1.5,2.8-3.4c-0.7-1.5-2.1-2.5-3.7-2.9
	c-0.8-0.2-1.7,0.2-2.1,0.9C195.5,219.6,197.4,223,199.6,223z"/>
<path fill="#FFC107" d="M342.8,131.1c-2.4-0.1-4.1-0.7-5.7-1.8c-1.2-0.9-1.9-2.1-1.6-3.6c0.2-1.6,1.3-2.6,2.8-3.1
	c3.5-1.2,8,1.7,8.4,5.4c0.2,1.2-0.2,2-1.5,2.5C344.2,130.8,343.3,131,342.8,131.1z M337.9,126.1c0.7,1.9,2.3,2.5,3.9,2.8
	c1.2,0.2,1.8-0.5,1.6-1.7c-0.4-1.4-1.5-2.1-2.8-2.5C339.3,124.3,338.5,124.9,337.9,126.1L337.9,126.1z"/>
<path fill="#FFC107" d="M215.5,221.1c-4.3-0.2-7.7-4.9-5.6-8.6c0.8-1.4,1.8-2.2,3.5-1.9c2.7,0.5,5.1,1.6,6.3,4.4
	c1.1,2.5-0.2,5.2-3,5.9C216.4,221,216,221,215.5,221.1z M215.2,219.1c1.8,0.1,2.9-1.4,2.4-3c-0.5-1.6-1.6-2.5-3-3.3
	c-0.7-0.3-1.3-0.2-1.9,0.3c-1.1,1-1.5,2.2-1.1,3.4C212.2,217.9,213.6,219,215.2,219.1L215.2,219.1z"/>
<path fill="#FFC107" d="M228.6,129.3c-2.7-0.1-5.9-2.5-6.6-4.8c-0.8-2.6,0.6-4.3,3-4.3c3.2,0.1,6.4,2.5,7.6,5
	c0.5,0.9,0.2,1.8-0.4,2.5C231.4,128.7,230,129.3,228.6,129.3z M224.5,122.5c0,3.4,1.9,5.1,5,4.6c0.4-1.5,0.4-1.5-0.3-2.2
	C227.9,123.5,226.7,122.3,224.5,122.5L224.5,122.5z"/>
<path fill="#FFC107" d="M361,103.6c0.6-0.7,1.1-1.2,1.6-1.8c1.3-1.7,3.3-2.1,5.2-0.9c2,1.2,3.3,2.8,3.4,5.2c0.1,1.6-0.7,2.7-2.2,3
	C365.6,109.8,361.5,107,361,103.6z M366.2,102.9c-1.1,0.5-1.7,1.3-1.3,2.1c0.4,1.1,1.5,1.7,2.8,1.7
	C368.3,104.9,368.1,104.3,366.2,102.9L366.2,102.9z"/>
<path fill="#FFC107" d="M185,76.7c0,1.9-1.4,3.2-3.3,3.2c-1.6,0-3.3-0.7-4.5-1.8c-0.5-0.5-1-1-1.6-1.4c-0.9-0.7-1.1-1.6-0.7-2.6
	c0.7-1.6,1.8-2.9,3.6-3.1c1.8-0.2,3.6-0.2,4.8,1.5C184.4,73.8,185,75,185,76.7z M177.7,75c1.1,1.4,1.7,1.9,2.7,2.4
	c0.7,0.3,1.3,0.2,1.8-0.4s0.3-1.3-0.1-1.9C180.9,73.3,179.1,73.3,177.7,75L177.7,75z"/>
<path fill="#FFC107" d="M357.1,116.1c0,1.9-1.9,3.4-4,3.2c-2.2-0.2-4.1-1.6-5.1-3.5c-0.8-1.6-0.2-3.9,1.2-5.1c1.4-1.1,3.3-1,4.9,0.3
	C356,112.5,357.1,114.4,357.1,116.1z M354,114.9c-0.2-0.3-0.6-1.2-1.1-1.8c-0.8-0.9-2-0.7-2.5,0.5c-0.4,0.9,0.2,2.5,1.5,3.1
	C353.2,117.4,354,117,354,114.9L354,114.9z"/>
<path fill="#FFC107" d="M214,106.1c1.3,0.2,3,0.7,4.2,2.1c0.7,0.7,1.2,1.6,1.7,2.4c0.5,0.8,1,1.8,0.2,2.7c-0.7,0.9-1.6,1.8-3,1.6
	c-1.2-0.2-2.5-0.4-3.7-0.7c-0.6-0.2-1.1-0.6-1.4-1.1c-0.7-1.1-1.2-2.2-1.6-3.4C209.8,107.5,211.2,106.1,214,106.1z M217.3,112.4
	c-0.2-2.1-1.4-3.1-2.9-4c-0.7-0.4-1.2-0.4-1.9,0.2C213.7,110.3,214.4,112.5,217.3,112.4L217.3,112.4z"/>
<path fill="#FFC107" d="M250.3,292c0.2-2.2,1.2-3.3,3.4-3.3c2.2,0,4.4,0.1,6,2.1c1,1.3,1.1,3.4,0.2,4.9c-0.7,1.3-2.1,2-3.9,1.6
	c-2.1-0.3-3.8-1.4-5-3.1C250.7,293.6,250.6,292.7,250.3,292z M255.4,291.1c-0.7,0.2-1.3,0.3-1.8,0.6c-1,0.5-1.2,1.5-0.3,2.1
	c0.8,0.6,1.8,1.1,2.8,1.3c0.9,0.2,1.6-0.2,2-1.1c0.3-0.9-0.1-2-0.8-2.4C256.6,291.4,256,291.3,255.4,291.1z"/>
<path fill="#FFC107" d="M228.8,215.3c-1.2-0.3-2.5-0.6-3.7-1.1c-2.3-1.1-3.1-3.2-3-5.7c0.1-1.1,1.1-2.1,2.4-2.3
	c2.2-0.4,4.3,0,5.9,1.7c0.4,0.5,0.8,1,1.2,1.4c1.2,1.2,1.3,2.7,0.7,4.2C231.5,215,230.3,215.2,228.8,215.3z M226.1,208
	c-0.8,0.1-1.6,0.2-1.7,1.1c-0.3,2.1,2.8,4.8,4.8,4.1c0.3-0.2,0.7-0.5,0.7-0.8C230.2,210.3,228.2,208,226.1,208L226.1,208z"/>
<path fill="#FFC107" d="M325.1,190.4c-2.6,0-4.1-1-4.4-3c-0.1-0.4-0.1-1.2,0.2-1.4c1.2-0.7,1.1-1.8,1.2-2.9c0.2-1.2,0.7-1.6,2.1-1.5
	c2.6,0.2,5,3.3,4.8,5.9c-0.2,1.3-0.8,2.1-2.1,2.5C326.2,190.3,325.7,190.4,325.1,190.4z M325.6,187.6h0.5c0.2-0.3,0.4-0.7,0.3-1
	c-0.3-0.9-1.1-1.3-2.5-1.6L325.6,187.6z"/>
<path fill="#FFC107" d="M392.2,238.6c-1.3-0.1-3-1-4.1-2.8c-0.7-1.1-0.6-2.8,0.4-3.4c1.5-0.9,3-1.6,4.7-2.2c1.2-0.4,2.3,0.1,3,1.2
	c0.3,0.4,0.6,0.9,0.8,1.5C398.4,236.2,396.6,238.6,392.2,238.6z M395.3,235.6c-0.2-0.8-0.4-1.7-0.7-2.5s-1.1-1.1-1.9-0.8
	c-0.7,0.2-1.5,0.7-1.7,1.2c-0.4,0.8,0.2,1.6,0.9,2.1C393,236.5,394,236.7,395.3,235.6L395.3,235.6z"/>
<path fill="#FFC107" d="M192.5,79.8c2.8,0,5.2,1.9,6.1,4.5c0.6,1.7-0.3,3.2-2,3.7c-2.2,0.7-7.3-1.7-7.1-5.3
	C189.6,80.7,190.5,79.7,192.5,79.8z M192.2,82.8c-0.5,1.1,0.1,1.8,0.7,2.2c0.6,0.4,1.3,0.7,2.1,0.8c0.9,0.1,1.3-0.8,0.8-1.6
	C194.9,82.9,193.6,82.6,192.2,82.8L192.2,82.8z"/>
<path fill="#FFC107" d="M326.4,141.9c-2.2-0.1-3.9-1.1-5.2-2.6c-1.4-1.6-0.7-3.9,1.2-4.7c2.4-1,6.1,0,7.7,3.2
	c0.8,1.6,0.2,3.1-1.7,3.8C327.8,141.8,327.2,141.8,326.4,141.9z M324.2,136.6c-0.1,0.1-0.8,0.2-0.9,0.7c-0.2,0.3,0.2,1.1,0.6,1.3
	c0.7,0.5,1.6,0.8,2.5,1.1s1.5-0.7,1-1.5C326.8,137.2,325.9,136.5,324.2,136.6L324.2,136.6z"/>
<path fill="#FFC107" d="M256.6,311c0,1.1-0.6,1.8-1.5,2.3c-2.4,1.2-4.9,0.4-6.2-1.9c-0.7-1.4-1.5-2.7-0.7-4.3
	c0.2-0.5,0.7-1.1,1.2-1.3C252.5,304.7,256.7,307.8,256.6,311z M252.5,311.6c0.9-0.1,1.4-0.5,1.3-1.2c-0.2-1-1-1.7-2-1.8
	c-0.7,0-1.2,0.6-1.1,1.4C250.8,310.9,251.6,311.6,252.5,311.6C252.5,311.6,252.5,311.6,252.5,311.6L252.5,311.6z"/>
<path fill="#FFC107" d="M374.6,233.4c-2.5,0.1-5.9-2.4-6.6-4.3c-0.3-0.9-0.1-1.8,0.7-2.2c1.3-0.7,2.7-1.5,4.1-1.7
	c2.2-0.4,5.1,2.1,5.3,4.3c0.2,1.2-0.2,2.2-1.3,2.9C376.1,232.9,375.1,233.3,374.6,233.4z M370.6,228.3c0.8,1.9,2.4,3,4.1,2.9
	c1.1-0.1,1.7-0.8,1.2-1.7C374.9,227.3,372.4,226.8,370.6,228.3z"/>
<path fill="#FFC107" d="M470.5,252c0,2.5-1.4,3.6-3.8,3c-2-0.6-3.4-1.9-4.5-3.5c-0.9-1.4,0.7-4.1,2.4-4.4
	C467.3,246.5,470.5,249.2,470.5,252z M467.3,252.2c0.2-2.1-0.6-2.6-2.5-2.1C465,251.4,465.9,252,467.3,252.2z"/>
<path fill="#FFC107" d="M201.3,95.7c0-2.5,1.7-3.9,4.2-3.3c2.1,0.6,4.3,3,4.6,5.2c0.2,1.6-0.7,2.9-2.3,3.2
	C204.4,101.6,200.9,98.8,201.3,95.7z M206.5,98.8c1.1,0,1.8-0.7,1.2-1.5c-0.7-1-1.6-1.8-2.7-2.5c-0.9-0.5-1.7,0.3-1.6,1.5
	C203.7,98.1,204.7,98.8,206.5,98.8L206.5,98.8z"/>
<path fill="#FFC107" d="M242.5,345.9c0.2-2.7,1.5-4.1,3.7-4c2.4,0.2,4.3,2.2,4.2,4.5c-0.1,2.3-1.9,3.9-4.3,3.7
	C244.3,350,242.4,347.7,242.5,345.9z M245.2,346.7c0.2,0.2,0.5,0.8,0.9,0.9c0.8,0.2,1.8-0.7,1.8-1.6c0-0.7-0.7-1.5-1.4-1.5
	C245.6,344.5,245.2,345.1,245.2,346.7L245.2,346.7z"/>
<path fill="#FFC107" d="M315.8,249.7c-0.5-0.2-1.4-0.4-2.3-0.7c-1-0.4-1.5-1.2-1.6-2.2c-0.1-0.6-0.1-1.1-0.2-1.6
	c-0.5-1.9,1.6-3.5,3.3-3.3c1.9,0.2,4.4,2.5,4.8,4.4C320,248.2,318.5,249.7,315.8,249.7z M315,244.4c-0.2,0.2-0.7,0.7-0.8,1.2
	c-0.2,0.9,0.6,1.6,1.5,1.6c0.9,0,1.6-0.6,1.5-1.3C317.1,245.2,316.2,244.4,315,244.4L315,244.4z"/>
<path fill="#FFC107" d="M280,141.8c-2.9-0.2-5.2-2.6-4.9-5.8c0.2-2.1,4.3-3.4,5.8-1.8c1.7,1.8,2.6,3.2,1.6,5.7
	C282.1,141.2,281.2,141.8,280,141.8z M280.1,139.2c0.5-1.4,0.3-2.1-0.5-2.5c-1-0.6-1.8-0.2-2.5,0.6
	C277.6,138.5,278.6,139,280.1,139.2L280.1,139.2z"/>
<path fill="#FFC107" d="M233.8,244.4c-0.1,2.5-1.2,3.7-3.5,3.7c-2.5-0.1-4.5-1.6-4.4-3.5c0.1-2.1,2.3-4.3,4.3-4.3
	C232.2,240.3,233.9,242.4,233.8,244.4z M231.3,244.3c-0.1-1-0.5-1.5-1.1-1.5c-0.7,0.1-1.4,1-1.4,1.8s0.5,1.1,1.2,1.1
	C231,245.8,231.4,245.3,231.3,244.3L231.3,244.3z"/>
<path fill="#FFC107" d="M245.2,326.8c0.2-1.3,0.5-2.5,1.6-3.1c1.1-0.7,2.4-0.6,3.6,0.1c2.4,1.3,3.1,2.6,2.6,4.6
	c-0.3,1.2-0.7,2.4-2.2,2.6c-1.6,0.3-3.3,0.3-4.3-1.2C245.9,328.8,245.6,327.7,245.2,326.8z M250.8,327.5c-0.1-0.7-1.1-1.7-1.8-1.6
	c-0.9,0.1-1,0.8-1,1.5c0,1,0.7,1.6,1.5,1.6C250.3,328.9,250.8,328.3,250.8,327.5L250.8,327.5z"/>
<path fill="#FFC107" d="M483,253.8c0.7,0.1,1.6,0.2,2.2,0.3c1.6,0.4,3,2,3,3.5c0.2,1.6-1.8,3.2-3.4,2.6c-1.4-0.5-2.6-1.2-3.8-2.1
	c-1.1-0.8-1.4-1.9-1-2.9C480.7,254,481.5,253.7,483,253.8z M484.9,256.5l-0.3,0.2l0.7,0.8l0.3-0.2L484.9,256.5z"/>
<path fill="#FFC107" d="M94.5,238.3c1.3,0.2,2.8,0.5,3.9,1.6c0.7,0.7,1.2,1.7,0.8,2.8c-0.3,1.1-1.1,1.6-2.2,1.9
	c-1.6,0.3-3.1,0.4-4.6-0.7c-1.6-1.2-2.1-2.1-1.6-3.7C91.3,238.9,92.4,238.3,94.5,238.3z M93.2,241.4c0.7,0.6,1.3,1,1.9,1.3
	c0.3,0.2,1.1-0.2,1.1-0.3c0.1-0.5-0.1-1.1-0.3-1.4C95.2,240.2,94.3,240.3,93.2,241.4L93.2,241.4z"/>
<path fill="#FFC107" d="M373.9,93.3c0-0.7,0-0.8,0-1.1c0-2.1,1.6-3.2,3.4-2.1c1.3,0.8,2.4,1.9,3.2,3.2c1.1,1.8,0,3.5-2.1,3.5
	c-0.6,0-1.1-0.1-1.6-0.2C374.7,96.3,373.8,95.1,373.9,93.3z M377.3,94.5l0.4-0.2l-0.5-0.8l-0.3,0.2L377.3,94.5z"/>
<path fill="#FFC107" d="M412.5,239.7c-0.2,0-0.6-0.1-0.8-0.1c-1.8-0.3-3.3-1.7-3.3-3.2c0-1.2,1.8-3,3.4-3.2c2.4-0.3,2.9-0.1,3.9,2.1
	c1.2,2.3,0.3,4-2.2,4.3C413.2,239.7,412.9,239.7,412.5,239.7z M413.7,237c-0.3-1.1-0.7-1.7-1.8-1.4c-0.2,0.1-0.5,0.5-0.5,0.7
	C411.6,237.2,412.3,237.4,413.7,237L413.7,237z"/>
<path fill="#FFC107" d="M148.4,232.5c0.7-0.8,1.3-1.7,2.1-2.5c0.3-0.3,0.7-0.6,1.2-0.7c1.9-0.6,5.4,1.3,6.1,3.1
	c0.3,0.9-0.2,2.1-1.2,2.5C154.3,236.1,149.8,234.8,148.4,232.5z M155.2,233.1c0-1-0.7-1.7-1.7-1.8c-0.7-0.1-1.2,0.3-1.2,1.1
	c-0.1,0.7,0.9,1.4,1.8,1.3C154.4,233.6,154.9,233.3,155.2,233.1L155.2,233.1z"/>
<path fill="#FFC107" d="M169.9,232.4c-2.4-0.2-5-1.8-5.6-3.6c-0.6-1.6,0-2.7,1.6-3c2.9-0.6,5.1,0.3,6.4,2.7c0.5,0.9,0.7,1.8,0.2,2.7
	C171.8,232.1,171.2,232.4,169.9,232.4z M170.4,229.5c-0.1-1.4-1.1-2.2-2.4-2.2c-0.8,0-1.4,0.5-1.3,1.2c0.1,0.9,1.6,2.1,2.6,1.9
	C169.8,230.3,170.1,229.7,170.4,229.5L170.4,229.5z"/>
<path fill="#FFC107" d="M295.6,251.9c0.1-0.6,0-1.1,0.2-1.6c0.3-1.3,1.5-2,2.7-1.6c1.4,0.5,2.6,1.2,3.4,2.6c1,1.8,0.3,3.5-1.6,4.1
	c-0.5,0.2-1,0.2-1.5,0.2C296.6,255.6,295.7,254.6,295.6,251.9z M297.9,251.7l1.3,1.2c0.2-0.2,0.4-0.4,0.4-0.6
	C299.6,251.6,299.2,251.2,297.9,251.7L297.9,251.7z"/>
<path fill="#FFC107" d="M447.9,249.3c-2,0-4-2-4.2-3.9c-0.1-1.3,0.7-2.1,1.6-2.7c0.8-0.7,1.7-0.5,2.5,0.1c0.8,0.6,1.6,1.1,2.3,1.8
	c0.8,0.9,1.5,1.9,0.7,3.2C450.1,248.8,449,249.1,447.9,249.3z M446.5,245.1c0.3,1.1,0.7,1.6,1.8,1.6
	C448.3,245.6,447.8,245.1,446.5,245.1z"/>
<path fill="#FFC107" d="M241.1,366.8c-2.1,0-3.9-1.4-4-3c-0.1-1.8,1.7-4,3.2-4c1.8,0.1,3.8,2.1,3.7,4
	C244,365.6,242.7,366.8,241.1,366.8L241.1,366.8z M240.3,364.6c0.4-0.4,0.7-0.7,0.9-1.1c0.1-0.2-0.3-0.5-0.5-0.7l-1.1,0.9
	L240.3,364.6z"/>
<path fill="#FFC107" d="M302.2,266.8c-0.1,1.7-0.7,2.5-2.4,2.8c-2.5,0.4-5.2-2.1-5.1-4.5c0.2-1.7,1.1-2.4,2.8-2.1
	c1.8,0.2,3.4,0.9,4.2,2.7C301.9,266,302.1,266.4,302.2,266.8z M299.1,267.6c0.2-0.2,0.6-0.5,0.6-0.8c0-0.9-0.7-1.3-1.5-1.5
	c-0.7-0.1-1,0.4-1.1,1C297.2,266.9,298.1,267.6,299.1,267.6L299.1,267.6z"/>
<path fill="#FFC107" d="M108.9,237.9c2,0.2,3.5,1,4.5,2.7c0.9,1.6,0.4,2.9-1.3,3.4c-2.8,0.9-6-1.5-5.9-4.4c0.1-0.5,0.3-0.9,0.7-1.1
	C107.5,238.1,108.3,238,108.9,237.9z M109.3,240.4c-0.2,0.7-0.1,1.5,0.8,1.7c0.2,0.1,0.8-0.3,0.8-0.6c0.1-0.9-0.6-1.1-1.3-1.1
	C109.6,240.3,109.5,240.4,109.3,240.4L109.3,240.4z"/>
<path fill="#FFC107" d="M207.5,180.8c1.1-0.8,2-1.4,2.7-2c1.1-0.9,2.5-1.1,3.6-0.3c1.5,1,2,2.5,1.5,3.9c-0.5,1.4-1.5,1.9-3.1,1.7
	c-1.7-0.2-3.2-0.8-4.3-2.3C207.7,181.5,207.6,181,207.5,180.8z M211.2,181l0.1,0.7c0.5,0.2,1.1,0.7,1.6-0.1c0.1-0.2-0.1-0.5-0.1-0.7
	L211.2,181z"/>
<path fill="#FFC107" d="M180.2,221.9c2.1-0.2,3.8,1.3,5.3,2.8c0.7,0.7,0.5,1.9,0.2,2.7c-0.5,1-1.5,1.3-2.5,1.1
	c-2.1-0.5-3.7-1.8-4.8-3.7c-0.1-0.2-0.1-0.2-0.2-0.4C177.2,222.4,177.6,221.9,180.2,221.9z M183.1,226.8c0.2-2.1-0.1-2.5-2-2.1
	C181,225.9,181.8,226.4,183.1,226.8z"/>
<path fill="#FFC107" d="M429.8,238.1c2.5,0,4.3,2.2,3.6,4.3c-0.6,1.9-2.5,2.7-4.1,1.6c-1-0.7-1.9-1.6-2.5-2.7
	c-0.7-1.1-0.2-2,0.9-2.5C428.5,238.4,429.3,238.3,429.8,238.1z M431.3,242c-0.7-1.4-0.7-1.4-1.9-1.1
	C429.7,241.6,430.1,242.2,431.3,242L431.3,242z"/>
<path fill="#FFC107" d="M141.9,238.2c-0.2,1.6-0.6,2.1-2.1,2.1c-2.5,0.2-4.4-1.1-4.9-3.2c-0.4-1.6,0.9-3.3,2.6-2.9
	c1.2,0.3,2.4,0.8,3.3,1.6C141.3,236.4,141.5,237.4,141.9,238.2z M139.2,238.6c-0.1-0.9,0.1-1.7-1-2c-0.2,0-0.5,0.2-0.6,0.4
	C137.5,237.9,137.8,238.5,139.2,238.6L139.2,238.6z"/>
<path fill="#FFC107" d="M335.4,202.3c-0.3-0.2-1.2-0.3-2-0.8c-1.2-0.9-1.4-2.5-0.5-3.6c0.2-0.2,0.3-0.4,0.6-0.7
	c1.7-2.1,3-1.9,4.3,0.6c0.3,0.5,0.6,1.1,0.7,1.7C338.9,201.5,338,202.5,335.4,202.3z M335.5,200c0.2-0.2,0.4-0.3,0.6-0.5
	c-0.1-0.2-0.2-0.3-0.2-0.4c-0.2,0.2-0.5,0.2-0.7,0.4L335.5,200z"/>
<path fill="#FFC107" d="M124.8,242.4c-2.5,0-4.3-1.8-4.3-4c0-0.4,0.5-1,0.9-1.1c2.1-0.9,5-0.2,6.5,1.6c0.9,1.1,0.4,2.9-1.1,3.4
	C126.1,242.3,125.2,242.3,124.8,242.4z M122.9,238.8c0.6,0.9,0.8,1.5,1.2,1.7c0.3,0.2,1.1,0,1.3-0.3c0.4-0.5,0.1-1.1-0.5-1.2
	C124.5,238.8,123.9,238.9,122.9,238.8z"/>
<path fill="#FFC107" d="M385.6,82.2c2.3-0.1,4.4,1.5,4.8,3.2c0.3,1.6-0.5,2.5-2.1,2.6c-1.8,0-4.4-1.9-4.9-3.6c-0.2-1,0.1-1.6,1-1.9
	C384.8,82.3,385.2,82.3,385.6,82.2z M387.5,84.9c-0.2-0.1-0.3-0.2-0.5-0.2c-0.1,0-0.2,0.2-0.3,0.4c0.2,0.2,0.3,0.2,0.5,0.3
	C387.2,85.2,387.4,85.1,387.5,84.9L387.5,84.9z"/>
<path fill="#FFC107" d="M158.2,60.2c-2.5-0.1-3.5-0.8-3.5-2.6c0-1.6,1.8-3,3.6-3c1.5,0,2.9,1.7,2.8,3.4
	C161,59.4,159.9,60.3,158.2,60.2z"/>
<path fill="#FFC107" d="M333.7,174.3c-0.1,1.5-1.2,2.5-2.9,2.4c-1.9-0.1-3.2-1.5-3.1-3.4c0.1-1.3,1.6-2.4,3.2-2.3
	C332.4,171,333.7,172.6,333.7,174.3z"/>
<path fill="#FFC107" d="M264.8,120.3c0-0.2,0-0.6,0-0.8c0.1-0.9,0.4-1.6,1.3-2c0.8-0.3,1.7,0,2.1,0.7c0.7,1.1,1.2,2.3,1.5,3.5
	c0.2,1.3-0.7,2.1-2,2.1C265.9,124,264.8,122.6,264.8,120.3z"/>
<path fill="#FFC107" d="M292.2,126.5c2.2,0,3.3,0.9,3.4,3c0.1,1.2-0.8,2.4-2.1,2.5c-0.2,0-0.4,0-0.6,0c-1.2-0.2-2.2-0.9-2.8-2
	C289,127.9,289.9,126.5,292.2,126.5z"/>
<path fill="#FFC107" d="M235,269.8c-0.1,1.1-0.7,2-1.7,2.3c-1.1,0.3-2.1,0-2.5-1.1c-0.4-0.9-0.7-2-0.7-3c0-1.5,1.7-2.2,3.1-1.5
	C234.2,267.2,235,268.4,235,269.8z"/>
<path fill="#FFC107" d="M210.2,247.7c-1.6,0-3-1.1-2.9-2.4c0.1-1.1,2-2.6,3.4-2.6c1.2,0,1.9,0.7,1.9,2.2
	C212.6,246.6,211.7,247.7,210.2,247.7z"/>
<path fill="#FFC107" d="M500.7,261.9c-0.1,1.2-1.4,2.3-2.5,1.7c-1-0.5-1.9-1.1-2.5-2c-0.5-0.6-0.5-1.4,0.1-2.1c0.7-0.8,2-1.3,2.8-1
	C499.5,258.9,500.8,260.9,500.7,261.9z"/>
<path fill="#FFC107" d="M201.6,199.1c0,1.3-0.8,2.1-2.1,2.1c-1.7-0.1-3.4-1.4-3.4-2.8c0-1.1,1.1-1.8,2.5-1.9
	C200.5,196.6,201.6,197.6,201.6,199.1z"/>
<path fill="#FFC107" d="M234.9,382.5c-0.7-0.3-1.4-0.5-2-0.9c-1.4-1-1.1-2.8,0.6-3.4c1.2-0.5,3,0.1,3.7,1.1c0.6,0.7,0.4,1.9-0.3,2.5
	c-0.1,0-0.1,0.1-0.1,0.1C236.2,382,235.6,382.1,234.9,382.5z"/>
<path fill="#FFC107" d="M76.4,241.1c1.7-1.7,4.4-1.9,5.9-0.3c0.4,0.4,0.7,1.1,0.6,1.6c-0.2,0.5-0.8,0.9-1.4,0.9
	C79.4,243.7,77.7,243,76.4,241.1z"/>
<path fill="#FFC107" d="M214.7,162.8c1.7,0.1,2.3,0.6,2.2,1.7c-0.1,1.2-1.1,2.1-2.4,2.1c0,0,0,0-0.1,0c-1.4-0.2-2.5-1.2-2.3-2.5
	C212.4,163.3,213.3,162.8,214.7,162.8z"/>
<path fill="#FFC107" d="M229.6,391.6c0.3,0.2,1.1,0.4,1.7,0.9c0.7,0.5,1,1.8,0.7,2.4c-0.3,0.7-2,1.1-2.6,0.7c-0.7-0.5-1.2-1.2-1.6-2
	C227.3,392.4,227.8,391.6,229.6,391.6z"/>
<path fill="#FFC107" d="M392.6,73c1.7-0.7,3-0.2,4.3,0.6c0.7,0.4,1.2,1.1,0.8,2.1c-0.3,0.7-1.1,1.1-2.1,0.5
	C394.3,75.5,392.7,75,392.6,73z"/>
<path fill="#FFC107" d="M402.2,63.7c0.9,0.5,1.8,0.9,2.6,1.5c0.3,0.2,0.5,0.9,0.4,1.3c-0.1,0.4-0.7,0.7-1.1,0.7c-1,0.2-2.8-1-3.1-2
	C400.7,64.4,401.2,64,402.2,63.7z"/>
<path fill="#FFC107" d="M69,239.7c-2,1.3-3,0.9-3.9-1.4C66.7,237.2,67.4,237.4,69,239.7z"/>
<path fill="#FFC107" d="M150.6,49.2c1,0.1,1.8,1.1,1.7,2.3c-0.1,0.7-0.4,1.1-1.2,1.1c-1-0.1-2-1.1-1.9-2.1
	C149.4,49.7,149.8,49.3,150.6,49.2z"/>
<path fill="none" d="M275.9,235.7c-1.3-0.3-2.7-0.6-4-1c-2.9-0.9-4.3-3.2-4.3-6.2c0.1-1.6,1.2-2.3,2.2-3.1c1-0.8,2.2-1.4,3.4-2.1
	c0.8-0.5,1.7-0.6,2.5-0.1c3.7,2.3,5.5,4.7,4.3,9.1C279.5,234.8,278.5,235.6,275.9,235.7z"/>
<path fill="none" d="M280.8,202.8c-1.6-0.3-3.1-0.4-4.5-1c-3.1-1.2-3.9-3.2-3.6-6.2c0.1-0.5,0.2-1.1,0-1.6c-0.5-1-0.2-1.9,0.2-2.8
	c1.4-2.5,3.2-4.3,6.6-4.2c2.5,0.2,4.8,0.7,6.8,2.1c2.8,2.1,3.9,5,3.7,8.4c-0.2,2.2-1.9,3.4-3.8,4
	C284.4,202.3,282.6,202.4,280.8,202.8z"/>
<path fill="none" d="M299.6,168.3c-3.9,0.1-6.7-3.1-7.6-6.1c-0.7-2,0.7-4,3-5c1.2-0.5,2.5-0.8,3.8-1c1.6-0.2,3.1,0.2,4.3,1.6
	c1.1,1.2,2.1,2.3,2.5,3.9c0.7,3.1-0.3,5.2-3.4,6.1C301.4,168.1,300.4,168.2,299.6,168.3z"/>
<path fill="none" d="M315,213.5c-0.2,0.3-0.5,1.1-1.1,1.7c-2.6,2.5-4,2.8-7.3,1.2c-0.9-0.4-1.7-0.8-2.6-1.4c-2.7-1.6-3-5.1-0.7-7.2
	c0.4-0.4,0.8-0.7,1.1-1.2c2.2-2.4,5.7-2.5,7.9-0.1C314.1,208.5,315,210.5,315,213.5z"/>
<path fill="none" d="M248.7,207.6c-1.7,0.1-3.4-0.6-5-1.4c-0.9-0.5-1.5-1.3-1.4-2.4c0.2-1.1,0.5-2.4,1.6-2.9c1.9-0.9,3.9-1.3,6-0.5
	c2.1,0.7,3.7,2.7,3.4,4.4C253,206.6,251.5,207.7,248.7,207.6z"/>
<path fill="none" d="M262,173.1c-1.7,0-3.4-0.5-4.8-1.5c-1.7-1.2-1.9-2.1-0.7-3.8c0.6-0.7,1.1-1.4,1.8-2c3.3-3.2,2.5-2.7,7-1.7
	c1.8,0.4,3.4,3.5,2.9,5.2C267.4,171.6,264.9,173.2,262,173.1z"/>
<path fill="none" d="M261.1,254.6l-1.7,0.8c0.9-2.2,2.7-2.9,4.8-3.4c1.6-0.4,3,0,4.3,1.1c0.9,0.7,1.5,1.9,1.6,3.1
	c0.1,2.1-1.8,3.8-3.9,3.5c-1.1-0.2-2.3-0.5-3.4-1C261.1,258,260.8,256.6,261.1,254.6z"/>
<path fill="none" d="M248.3,149.1c3,0,5,2.1,5,5.1c0,1.1-0.3,1.5-1.6,1.4c-0.8-0.1-1.7-0.2-2.4-0.6c-1-0.7-1.8-1.5-2.6-2.3
	c-0.7-0.7-1-1.6-0.7-2.5C246.5,149.2,247.4,149,248.3,149.1z"/>
<path fill="none" d="M330.4,218.3c1.5-1.9,3.3-2.5,5.3-2.8c1.9-0.2,3.2,0.7,3.7,2.5c0.1,0.2,0.1,0.2,0.1,0.4
	c0.2,1.1,0.7,2.5-0.2,3.3c-1.2,1.1-3,1.2-4.3,0.4C333.3,221.1,331.4,220.1,330.4,218.3z"/>
<path fill="none" d="M261.6,278c-1.1-0.3-2.3-0.5-3.4-1c-0.7-0.3-1.5-1-1.6-1.6c-0.2-1,0.2-2.1,1.3-2.6c0.9-0.3,2.1-0.6,3-0.4
	c1,0.2,2.1,0.9,2.8,1.6c1.6,1.3,1.2,3-0.7,3.7C262.7,277.8,262.2,277.9,261.6,278z"/>
<path fill="none" d="M312.6,150.9c-1.1-1.4-2.1-2.8-3.2-4.1c-0.6-0.7-0.7-1.1-0.3-1.8s0.9-0.7,1.6-0.6c1.8,0.3,3.6,2.1,3.9,3.9
	C314.7,149.8,314.3,150.4,312.6,150.9z"/>
<path fill="none" d="M354.1,226.4l1.6-0.8c0.2-0.7,0.1-0.9-1.4-1.9c1-2.1,2.4-2.7,4-1.8c0.4,0.2,0.9,0.7,1,1c0.2,1.5,0.6,3,0.6,4.4
	c0,1.1-1.1,1.9-2.2,1.6C356.2,228.7,355,227.9,354.1,226.4z"/>
<path fill="none" d="M236.1,135.4c2.5,0,4.3,1,5.4,3c1,1.8,0.2,3-1.9,3c-2.5-0.1-3.6-1.1-3.8-3.8c0-0.5-0.1-1-0.1-1.5
	C235.9,136.1,236,135.8,236.1,135.4z"/>
<path fill="none" d="M166.6,64.5c1.4,0.5,2.7,0.4,3.5,1.6c0.3,0.6,0.6,1.1,0.1,1.7c-0.5,0.6-0.9,0.7-1.6,0.4
	c-0.8-0.4-1.7-0.7-2.5-1.1c-0.4-0.3-0.9-1.1-0.8-1.5C165.4,65.1,166.2,64.8,166.6,64.5z"/>
<path fill="none" d="M199.6,223c-2.2-0.1-4.1-3.5-3-5.4c0.4-0.7,1.3-1.1,2.1-0.9c1.6,0.4,3,1.4,3.7,2.9
	C203.4,221.5,202.1,223.1,199.6,223z"/>
<path fill="none" d="M337.9,126.1c0.6-1.2,1.4-1.8,2.7-1.5c1.3,0.4,2.5,1,2.8,2.5c0.3,1.2-0.2,1.9-1.6,1.7
	C340.2,128.6,338.7,128,337.9,126.1z"/>
<path fill="none" d="M215.2,219.1c-1.6-0.1-3.1-1.1-3.7-2.6c-0.4-1.1,0.1-2.4,1.1-3.4c0.6-0.6,1.2-0.7,1.9-0.3
	c1.4,0.7,2.5,1.7,3,3.3C218.2,217.7,217,219.1,215.2,219.1z"/>
<path fill="none" d="M224.5,122.5c2.1-0.2,3.4,1.1,4.7,2.4c0.7,0.7,0.7,0.7,0.3,2.2C226.4,127.5,224.5,125.9,224.5,122.5z"/>
<path fill="none" d="M366.2,102.9c1.9,1.5,2.1,2.1,1.4,3.9c-1.2-0.1-2.3-0.7-2.8-1.7C364.5,104.1,365.1,103.3,366.2,102.9z"/>
<path fill="none" d="M177.7,75c1.6-1.6,3.3-1.6,4.4,0.1c0.4,0.6,0.6,1.2,0.1,1.9s-1.1,0.7-1.8,0.4C179.3,76.9,178.6,76.4,177.7,75z"
	/>
<path fill="none" d="M354,114.9c0,2.1-0.7,2.5-2.1,1.7c-1.1-0.7-1.9-2.1-1.5-3.1c0.6-1.1,1.6-1.4,2.5-0.5
	C353.4,113.7,353.7,114.6,354,114.9z"/>
<path fill="none" d="M217.3,112.4c-2.9,0.1-3.5-2.1-4.7-3.9c0.6-0.6,1.2-0.6,1.9-0.2C215.9,109.2,217.1,110.3,217.3,112.4z"/>
<path fill="none" d="M255.4,291.1c0.6,0.2,1.2,0.3,1.7,0.6c0.7,0.4,1.1,1.5,0.8,2.4c-0.3,0.9-1.1,1.4-2,1.1c-1-0.2-2-0.7-2.8-1.3
	c-0.9-0.7-0.7-1.6,0.3-2.1C254.1,291.4,254.8,291.3,255.4,291.1z"/>
<path fill="none" d="M226.1,208c2.1,0,4.2,2.4,3.9,4.3c-0.1,0.4-0.4,0.7-0.7,0.8c-2,0.7-5.1-2-4.8-4.1
	C224.6,208.1,225.3,208,226.1,208z"/>
<path fill="none" d="M325.6,187.6l-1.6-2.5c1.4,0.2,2.1,0.6,2.5,1.6c0.1,0.2-0.2,0.7-0.3,1L325.6,187.6z"/>
<path fill="none" d="M395.3,235.6c-1.4,1.1-2.5,0.8-3.5,0.2c-0.7-0.5-1.3-1.3-0.9-2.1c0.2-0.6,1.1-1,1.7-1.2
	c0.8-0.3,1.6,0.1,1.9,0.8C394.9,234,395.1,234.8,395.3,235.6z"/>
<path fill="none" d="M192.2,82.8c1.5-0.2,2.7,0.2,3.6,1.5c0.6,0.7,0.2,1.6-0.8,1.6c-0.7-0.1-1.5-0.3-2.1-0.8
	C192.3,84.5,191.7,83.8,192.2,82.8z"/>
<path fill="none" d="M324.2,136.6c1.7-0.2,2.5,0.6,3,1.6c0.5,0.7-0.1,1.6-1,1.5c-0.8-0.2-1.6-0.6-2.5-1.1c-0.3-0.2-0.7-1-0.6-1.3
	C323.4,136.9,324.1,136.6,324.2,136.6z"/>
<path fill="none" d="M252.5,311.6c-0.9,0.1-1.7-0.6-1.8-1.6V310c-0.1-0.8,0.4-1.4,1.1-1.4c1,0,1.9,0.8,2,1.8
	C253.9,311.1,253.4,311.5,252.5,311.6z"/>
<path fill="none" d="M370.6,228.3c1.9-1.5,4.3-0.9,5.3,1.1c0.5,1-0.1,1.7-1.2,1.7C372.9,231.2,371.4,230.1,370.6,228.3z"/>
<path fill="none" d="M467.3,252.2c-1.4-0.2-2.3-0.7-2.5-2.1C466.8,249.5,467.4,250.1,467.3,252.2z"/>
<path fill="none" d="M206.5,98.8c-1.8,0-2.8-0.8-3-2.5c-0.2-1.1,0.7-2,1.6-1.5c1.1,0.6,2,1.5,2.7,2.5
	C208.3,98.1,207.7,98.8,206.5,98.8z"/>
<path fill="none" d="M245.2,346.7c0-1.5,0.5-2.1,1.3-2.1c0.7,0,1.4,0.7,1.4,1.5c0,0.8-0.9,1.8-1.8,1.6
	C245.6,347.4,245.3,346.9,245.2,346.7z"/>
<path fill="none" d="M315,244.4c1.1-0.1,2.1,0.7,2.1,1.5c0.1,0.7-0.6,1.3-1.5,1.3c-0.9,0-1.6-0.7-1.5-1.6
	C314.4,245.2,314.9,244.7,315,244.4z"/>
<path fill="none" d="M280.1,139.2c-1.4-0.2-2.5-0.7-3-2c0.7-0.8,1.6-1.1,2.5-0.6C280.4,137.1,280.6,137.8,280.1,139.2z"/>
<path fill="none" d="M231.3,244.3c0.1,1-0.3,1.5-1.2,1.5c-0.7,0-1.2-0.2-1.2-1.1s0.7-1.8,1.4-1.8
	C230.9,242.9,231.3,243.4,231.3,244.3z"/>
<path fill="none" d="M250.8,327.5c0.1,0.8-0.5,1.4-1.4,1.5c-0.9,0-1.5-0.6-1.5-1.6c0-0.7,0.1-1.4,1-1.5
	C249.7,325.8,250.7,326.7,250.8,327.5z"/>
<path fill="none" d="M484.9,256.5l0.7,0.8l-0.3,0.2l-0.7-0.8L484.9,256.5z"/>
<path fill="none" d="M93.2,241.4c1.1-1.1,2-1.1,2.7-0.4c0.3,0.2,0.4,0.9,0.3,1.4c0,0.2-0.8,0.4-1.1,0.3
	C94.5,242.4,94,241.9,93.2,241.4z"/>
<path fill="none" d="M377.3,94.5l-0.4-0.9l0.3-0.2l0.5,0.8L377.3,94.5z"/>
<path fill="none" d="M413.7,237c-1.5,0.3-2.2,0.2-2.3-0.6c0-0.2,0.2-0.7,0.5-0.7C413,235.4,413.5,236.1,413.7,237z"/>
<path fill="none" d="M155.2,233.1c-0.3,0.2-0.7,0.5-1.1,0.5c-0.9,0.1-1.9-0.6-1.8-1.3c0.1-0.7,0.5-1.1,1.2-1.1
	C154.4,231.4,155.2,232.2,155.2,233.1z"/>
<path fill="none" d="M170.4,229.5c-0.2,0.2-0.6,0.8-1,0.9c-1,0.2-2.5-0.9-2.6-1.9c-0.1-0.7,0.4-1.2,1.3-1.2
	C169.2,227.3,170.3,228.1,170.4,229.5z"/>
<path fill="none" d="M297.9,251.7c1.3-0.5,1.7-0.1,1.8,0.7c0,0.2-0.2,0.4-0.4,0.6L297.9,251.7z"/>
<path fill="none" d="M446.5,245.1c1.3,0,1.8,0.5,1.8,1.6C447.2,246.8,446.8,246.2,446.5,245.1z"/>
<path fill="none" d="M240.3,364.6l-0.7-0.9l1.1-0.9c0.2,0.2,0.6,0.6,0.5,0.7C241.1,363.9,240.7,364.2,240.3,364.6z"/>
<path fill="none" d="M299.1,267.6c-1.1-0.1-2-0.7-1.9-1.3c0.1-0.6,0.3-1.1,1.1-1c0.8,0.2,1.5,0.6,1.5,1.5
	C299.7,267.1,299.3,267.5,299.1,267.6z"/>
<path fill="none" d="M109.3,240.4c0.1,0,0.2-0.1,0.3-0.1c0.7,0.1,1.4,0.3,1.3,1.1c0,0.2-0.6,0.7-0.8,0.6
	C109.2,241.9,109.2,241.1,109.3,240.4z"/>
<path fill="none" d="M211.2,181l1.6-0.2c0,0.2,0.2,0.6,0.1,0.7c-0.5,0.7-1,0.3-1.6,0.1L211.2,181z"/>
<path fill="none" d="M183.1,226.8c-1.3-0.4-2.1-0.9-2-2.1C183,224.3,183.4,224.7,183.1,226.8z"/>
<path fill="none" d="M431.2,242c-1.1,0.2-1.6-0.3-1.9-1.1C430.5,240.6,430.5,240.6,431.2,242z"/>
<path fill="none" d="M139.2,238.6c-1.4-0.1-1.7-0.7-1.6-1.6c0.2-0.2,0.3-0.4,0.6-0.4C139.3,236.8,139.2,237.6,139.2,238.6z"/>
<path fill="none" d="M335.5,200l-0.4-0.5c0.2-0.2,0.5-0.3,0.7-0.4c0.2,0.1,0.2,0.2,0.2,0.4C336,199.7,335.8,199.9,335.5,200z"/>
<path fill="none" d="M122.9,238.8c1.1,0.1,1.6,0,2.1,0.2c0.6,0.2,0.9,0.7,0.5,1.2c-0.2,0.3-1,0.5-1.3,0.3
	C123.7,240.3,123.5,239.7,122.9,238.8z"/>
<path fill="none" d="M387.5,84.9c-0.1,0.2-0.2,0.3-0.3,0.5c-0.2-0.1-0.3-0.2-0.5-0.3c0.1-0.2,0.2-0.4,0.3-0.4
	C387.1,84.7,387.3,84.8,387.5,84.9z"/>
</svg>
