<svg id="Layer_1" data-name="Layer 1" xmlns="http://www.w3.org/2000/svg" viewBox="0 0 27.33 127.25"><defs><style>.cls-1{fill:#ffc107;stroke:#ffc107;stroke-miterlimit:10}</style></defs><title>Untitled-3</title><path class="cls-1" d="M2.34 32.83A126.75 126.75 0 0 0 6.8 46.72c1.51 3.59 2.34 7.35 3.61 11a2.22 2.22 0 0 1-.52 1.92c-2.82 2.32-3.37 5.47-3.59 8.81a10.46 10.46 0 0 0 5 10c1.55 1 1.51 1 1.12 2.86-.72 3.5-1.51 7-2.1 10.5-.83 4.88-.72 9.88-2.25 14.65a6.39 6.39 0 0 0-.07 1.95v4.37c0 2.82-.09 5.69.17 8.48a6 6 0 0 0 2.67 4.81 8 8 0 0 0 5.68.31c1.71-1.9 3.38-3.84 5.12-5.75l.68-.73a9.62 9.62 0 0 0 .46-1.57 70.37 70.37 0 0 0 1.44-13.19v-3.28c0-3-.13-6.1-.11-9.14 0-4.42.22-8.83.2-13.27 0-2.8-.33-5.53.74-8.35.51-1.35.67-2 1.72-2.37a45.72 45.72 0 0 1-1-4.94 4.67 4.67 0 0 1-.46-1.57c-.31-1.92-.26-3.94-1.29-5.71a1.89 1.89 0 0 1-.13-.85c.09-4.81.13-9.6.28-14.41.09-2.54.55-5.05.57-7.59 0-4.37-1-8.66-1.51-13A35.46 35.46 0 0 0 19 8.12a27.19 27.19 0 0 0-4-5.69 5.57 5.57 0 0 0-7.87-.57 13.14 13.14 0 0 0-4.55 6.3A36.69 36.69 0 0 0 1 26.47a60.79 60.79 0 0 0 1.34 6.36zm8.33 36.28a6.2 6.2 0 0 1 4.55-7.89 11.48 11.48 0 0 1 2.58-.37c1.88 0 2.43.59 2.52 2.45v1.09h-.07v9.14c0 1.51-.52 2.3-2 2.54a4.8 4.8 0 0 1-5-1.92 21.66 21.66 0 0 1-2.58-5.04zM20.6 111a51.32 51.32 0 0 1-1.33 8.14c-.48 2.19-2.27 3.11-4.29 3.52a2.74 2.74 0 0 1-3.11-1.82 8 8 0 0 1-.68-2.51 63.45 63.45 0 0 1 1-15.61c.66-3 .7-6.06 1.18-9.05.66-4.16 1.42-8.29 2.17-12.44a1.79 1.79 0 0 1 1.6-1.55c1-.15 2-.33 3.3-.57.15 1.44.37 2.49.37 3.56 0 5.23-.11 10.45-.15 15.7.03 4.24.18 8.46-.06 12.63zM6.91 6.48C8.33 3.68 9.8 3.64 12 5c2 1.22 2.91 3.19 3.87 5.16 2.43 5 3.15 10.41 3.54 15.88.15 2.08.57 4.16.81 6.21.17 1.57.28 3.17.42 4.77h-.23c-.2 5.6-.42 11.17-.63 16.77 0 .44-.07.87-.11 1.31a1.79 1.79 0 0 1-1.79 1.82c-3.08.39-3.11.42-4.31-2.47-.48-1.14-.81-2.34-1.25-3.48-.9-2.41-1.86-4.75-2.71-7.13-1.25-3.5-2.51-7-3.56-10.54a42.68 42.68 0 0 1-1.4-7c-.33-2.8-.39-5.64-.55-8.49A21.89 21.89 0 0 1 6.91 6.48z"/></svg>