<svg xmlns="http://www.w3.org/2000/svg" viewBox="0 0 3414 2162"><title>submarine2</title><path fill="none" d="M0 2162V0h3414v2162H0zm531.8-645c1.7 1 3.3 2.2 4.8 3.5 12.2 12.8 27 22.5 41 33.2 20.1 15.3 39.7 31.3 59.4 46.9 13.6 10.7 27 21.7 40.8 32 14.1 10.6 28.6 20.6 43 30.7 13.9 9.7 27.9 19.2 41.8 28.8 14.8 10.2 29.1 21.2 44.5 30.2 23.8 14 48.4 26.5 72.6 39.9 10.7 5.9 21 12.5 31.5 18.7 1.1.7 2.3 1.4 3.4 2.1 27.2 15.4 54.4 30.9 81.7 46.1 8.7 4.8 17.7 9.2 26.8 13.1 13.1 5.7 26.4 10.9 39.6 16.2 17.9 7.1 35.8 14.2 53.7 21.2 5.3 2 10.6 4.4 16 5.4 30 5.8 60 10.2 91 7.1 31.1-3.1 62.4-4 93.7-5.7 20.6-1.1 41.2-2 61.8-2.9 10.3-.5 20.6-1.2 30.9-1.4 15.3-.3 30.6 0 45.9-.5 18-.7 35.9-2.6 53.9-3 46.6-1.2 93.2.3 139.8-3.9 16.8-1.5 33.9-.2 50.8-1.1 17.8-1 35.7-.7 53.5-2.5 13.1-1.3 26.6-.1 39.8 1.2 35.9 3.3 71.8 1.3 107.7-.1 12-.4 23.9-2.2 35.8-2.9 18.6-1 37.2-1.6 55.8-2.2 14-.5 28-1.6 41.9-.9 17.3.9 34.4 3.7 51.6 5.2 6.9.6 13.9-.1 20.9-.5 3.6-.2 7.2-1.1 10.9-1.5 16.9-1.6 33.8-2.7 50.7-4.7 23.8-2.8 47.5-6.7 71.5-6.9 21.3-.2 42.6.1 63.9.1 6.3 0 12.5-.6 18.8-.7 10.6-.1 21.2.3 31.8-.1 25-.8 49.9-2.2 74.9-3 30.3-.9 60.6-1.2 90.9-2.3 11.9-.4 23.8-2.8 35.7-3.8 15.6-1.4 31.2-2.3 46.7-3.5 6.3-.5 12.5-1.6 18.8-1.9 15.6-.6 31.2-.5 46.8-1.2 22.9-1 45.8-2.6 68.7-3.4 16.2-.6 32.5.1 48.8-.3 23.6-.6 47.3-.6 70.8-2.7 31.4-2.8 63-5.3 90-25.1 17.2-12.6 32.2-26.8 42.4-45.6 9.6-17.9 20.1-35.2 33.7-50.5 9.1-10.2 18.1-20.4 26.7-31 18.1-22.5 36-45.2 53.8-68.1 8-10.2 15.7-20.6 23.1-31.3 9.4-13.7 17.9-28 27.4-41.7 10-14.5 21.8-27.7 29.8-43.6 7.5-14.8 15.5-29.4 24.3-43.6 14.6-23.4 30.2-46.2 44.8-69.6 7.2-11.5 13.3-23.7 19.9-35.6 6.9-12.5 13-25.6 20.9-37.4 7.9-11.9 14.5-24.6 19.8-37.9 1.2-3.1 2.2-6.5 4.4-8.9 5.4-6 6.9-13.5 9.1-20.8 4.6-14.6 9.4-29.1 14.1-43.6 2.1-6.3 4.4-12.4 1.6-19.3-1.8-4.5-2.1-9.7-2.9-14.7-3.8-24-11.7-46.5-25.6-66.5-5.9-8.4-13-16.1-18.2-24.9-6.4-10.6-12.7-21-21.8-29.5-3.9-3.6-7.4-7.7-11-11.5-15.9-16.5-31.6-33.2-47.6-49.6-7.2-7.3-15.3-13.8-22.6-21.1-15.3-15.2-30.3-30.7-45.4-46.1-4.4-4.5-8.4-9.5-13.1-13.8-18.3-17-36.1-34.4-55.2-50.5-27.7-23.3-52.4-50-81.9-71.3-11-8-21.2-17.2-32.3-25.2-8.9-6.5-18.2-12.3-27.8-17.5-13.2-7-27-13-40.6-19.3-13.9-6.4-27.7-12.7-43-15.5-9.8-1.8-19.4-5-28.8-8.4-21.3-7.7-42.5-15.4-64.9-18.9-2.3-.3-4.5-1.1-6.5-2.4-15.5-11.1-34-13.6-51.8-16.8-23.6-4.2-47.5-6.9-71.4-7.8-28.2-1.2-56.2-7.7-84.6-3.2-.7.1-1.3.1-2 0-38.3-1-76.5-2-114.8-2.9-6.5-.2-8.2-1.8-8-8.3.3-14.6.5-29.3.9-43.9.2-7 1.4-14 1-20.9-.8-13.6-2.7-27.1-3.6-40.7-1.6-23.4-8-45.8-13.7-68.4-3.3-13.2-12.7-20.6-24.8-25.1-11.8-4.5-23.8-8.6-35.7-13-32.4-12-65.3-20.9-100.2-20-13.3.3-26.6-.3-39.9.1-31.3 1-62.5 2.2-93.8 3.5-10.6.4-21.2 1.5-31.9 1.8s-12-.4-12.3-10.8c-.8-24.9-.7-49.9-1-74.8-.3-14.7.9-29.3 3.7-43.7 1.3-6.2 2.7-12.4 3.1-18.7 1.4-21 12.9-33.7 31.6-42.2 19.6-8.9 40.9-11.9 61-18.9 18.5-6.5 37.2-12.5 55.8-18.6 10.4-3.4 20.7-7.6 31.3-9.8 11.6-2.5 19.6-8.9 20.8-20.7 2-20.3 1.8-40.6-2.5-60.7-3.3-15.3-18.5-28.2-34-28.6-7-.1-14 .4-20.9 1.7-17 3-33.9 6.7-51 9.7-18.3 3.2-36.8 5.5-55.2 8.8-19.6 3.6-39.3 7.2-57.2 16.6-13.3 7-26.7 13.6-40 20.6-12.5 6.4-23.7 15.1-32.9 25.6-5.4 6.2-9.2 13-10 21.3-1.8 20.5-3.6 41.1-5.3 61.6-1.1 13.6-1.7 27.2-2.9 40.8-2.2 25.9-5.3 51.7-3.5 77.8.7 10.6 1 21.3 1.3 31.9.2 6-.4 12-.2 17.9.5 9.4-1 11.3-10.2 11.7-17.9.7-35.9 1.3-53.8 2.1-29.3 1.4-58.5 3-87.8 4.5-2.7.1-5.3.1-8 0-6.7-.4-8.4-1.5-9.1-8.1-.8-6.6-1-13.3-.7-20 1.4-24.5 3.2-49.1 5-73.6.8-11 .8-11 11.9-13 10.6-1.8 15.6-5.9 17-15.3 1-6.9 1.2-13.9.7-20.9-.4-6.9-3.9-10-10.9-10.9-2.6-.3-5.3-.2-7.9.2-11.6 1.2-23.1 3.5-34.7 3.7-17.9.3-35 4-52 8.8-7.5 2.1-11.3 7.1-11.8 14.4-.4 6.9.1 14 .4 20.9.1 1.5 1 3.8 2.1 4.2 9.2 3.6 7.8 11.6 7.7 18.6-.9 32.6-2.2 65.2-3.4 97.9-.3 7.4-1.3 8.4-8.5 9.4-21.8 2.9-43.6 5.7-65.3 9.1-8.5 1.3-16.9 3.8-25.1 6.4-17.8 5.5-35.1 12.5-53.1 16.8-32.1 7.7-59.7 23.8-86.1 42.7-2.1 1.5-4.2 3.6-5 5.9-2.2 5.9-3.9 12-5.1 18.2-1.7 10.8-2.9 21.8-3.8 32.7-1.2 13.9-2.3 27.8-2.7 41.8-.6 17.9-.2 35.9-.7 53.8-.3 11.3-1 11.9-11.9 12.9-25.9 2.4-51.7 4.7-77.6 6.7-37.5 2.9-75.1 4.9-112.5 8.5-20.3 1.9-41.1 2.5-60.1 11.8-.9.4-1.9.6-2.9.6-24.4 3.2-48.8 7.1-73.3 9.3-23.8 2.2-47.5 5.7-71 10.6-8.8 1.7-17.4 4.5-25.5 8.4-14.7 7.1-28.9 15-42.8 23.7-30.6 19.5-61.1 39.2-90.9 59.9-18.6 12.8-36.3 27-53.7 41.5-16.8 14.1-32.6 29.4-49 44-5.2 4.6-11.3 8.3-16.5 12.9-17 15.4-34 30.9-50.6 46.7-15 14.2-29.9 28.5-44 43.5-19.2 20.4-37.4 41.6-56.3 62.2-14.7 15.9-29.8 31.4-44.8 47-1.5 1.6-3.7 2.5-6.4 4.2-3.3-5.2-6.7-9.7-9.2-14.6-9.9-18.9-24.7-34.7-33.2-54.4-4.2-9.8-8.2-19.7-12.7-29.3-15.6-32.7-31.3-65.2-47.2-97.8-3.5-7.1-8.6-13.4-12.3-20.4-10.1-19.3-18.2-39.8-30.2-58.2-7.8-12-14.8-24.5-22.9-36.3-6.8-9.8-15.1-18.5-22-28.2-4.6-6.3-11-10.4-16.3-15.8-13.1-13.6-25.7-27.8-38.4-41.9-11-12.2-25.2-21-41.1-25.2-8.8-2.5-16.8-1.5-24.6 4-11.1 7.8-22.3 15-30.6 26.5-7.9 11-15.2 21.9-18.9 34.8-3.7 12.8-7.4 25.6-9.7 38.7-2.9 16.4-5.8 33-5.8 49.5-.1 19.9 3 39.8 10.7 58.5 1 2.5 1.7 5 2.6 7.5 3.8 10.7 7.1 21.5 11.6 31.9 10 22.8 20.5 45.3 31 67.9 3.3 7.2 7.1 14.2 11.3 20.9 5.3 8.4 11.5 16.2 17 24.5 17.2 26.1 35.7 51.2 58 73.3.9.9 1.6 2.1 2.5 3.1 4 4.8 7.6 10 12.1 14.4 11.1 11 22.5 21.8 34.1 32.2 22.1 19.7 42 41.8 65.8 59.7 12.2 9.2 23.9 18.9 35.6 28.8 3.9 3.3 6.8 7.6 11.5 13-4.7 1.1-7.4 2.2-10.1 2.3-15.6.6-31.3.7-46.9 1.6-15.9 1-31.8 3-47.7 4.1-22.5 1.5-44.6 8-67.5 4.3-2.7-.3-5.3-.2-8 .1-10 .6-19.9 1.2-29.9 1.8-9.8.5-12.6-1.6-14.1-11.3-1.4-8.8-1.2-18-5.9-26.1-.5-1.2-.7-2.6-.6-3.9.4-22 .6-43.9 1.3-65.9.4-11.6 2.5-23.1 2.6-34.7.2-20-4.4-39.6-6.9-59.3-2.6-20.2-9-39.7-18.8-57.5-5-9.4-11.1-18.2-18.3-26-10.5-11.2-24.6-11.4-36-2.6-9.7 7.3-16.9 17.3-20.8 28.8-9 27.3-12.5 55.2-7.3 83.7 1.8 9.8 3.2 19.7 6 29.1 6.2 21.3 11.8 43.1 20.4 63.5 6.9 16.4 10.7 33.6 16.5 50.2.8 2.4-.4 7.1-2.4 8.8-12.9 10.6-15.4 25-16.4 40.3-1.4 19.8 6.5 34.8 22.8 45.8 7.1 4.8 6.9 4.8 5.1 13.1-3.3 16-6.9 31.9-9.6 48-3.8 22.3-3.3 45.2-10.3 67-.9 2.7-.3 5.9-.3 8.9 0 6.7-.1 13.3 0 20 .1 12.9-.4 26 .8 38.8.8 8.5 4 17.1 12.2 22 8.4 5 27.1 3.9 34.2-3 9.4-9 17.8-19 20.4-32.4 3.9-19.9 6.5-40 6.6-60.3 0-5-.1-10-.2-15-.2-13.9-.6-27.9-.5-41.8.2-20.2 1-40.4.9-60.7 0-12.8-1.5-25.3 3.4-38.2 3.2-8.4 3.3-11.2 15-11.9 25.9-1.6 51.8-3.2 77.6-5.3 15.6-1.3 31-4 46.5-5.6 6.6-.7 13.2-.5 19.9-.6 8.9-.2 17.9-.2 26.8-.6 16.9-.8 33.9-1.8 50.8-2.5 2-.1 4.1 1 8 2-4.1 3.8-6.8 6.6-9.8 9.1-6 4.8-12.1 9.4-18.1 14.1-18.3 14.2-32.4 32.4-48.3 49-18.2 19-36.5 37.8-54.5 56.9-17.5 18.7-37.3 35-53 55.6-15.9 20.9-33.8 40.3-48.6 62.1-3.7 5.5-9.4 9.6-12.8 15.2-10.5 17.2-24 31.9-37 47-13.2 15.4-26.8 30.5-39.9 46-10.7 12.7-20.8 25.9-31.3 38.8s-21.6 25.4-31.6 38.6c-5.6 7.4-8.9 16.5-14.4 23.9-14.2 19-22 41-30.5 62.6-6.1 15.5-12.1 31-17 46.9-4.4 14.4-6.8 29.4-2.5 44.3 2.5 8.6 6.4 16.7 10.2 24.8 7.4 15.8 18.3 29.2 30.5 41.7 6.4 6.6 13.3 10.7 22.2 12.1 20.4 3.3 40.1-.5 58.2-9.2 15.2-7.3 29.5-16.8 43.4-26.5 10-7 18.9-15.8 27.8-24.2 6.8-6.4 12.9-13.4 19.3-20.2 7.2-7.7 15.4-14.8 21.5-23.4 15.2-21.1 29.4-42.8 44.1-64.2 18.5-26.8 37.2-53.5 55.7-80.4 3.4-4.9 6-10.4 9-15.5 3.4-5.7 6.8-11.4 10.4-17 7.9-12.3 16.5-24.2 23.7-36.9 9.9-17.3 18.4-35.3 30.8-51.2 4.8-6.1 7.7-13.6 11.4-20.5s6.7-14.4 11.1-20.9c9.1-13.1 15.4-27.5 22.1-41.8 3.3-6.5 5.7-14.1 13.5-18.2z"/><path fill="#FFC107" stroke="#FFC107" stroke-miterlimit="10" d="M969.9 1154.7c-8-14.4-17.8-28.7-30.1-39.9-11-4.7-21.1-9.3-31.8-12.3-6.1-1.7-12.3-3-18.5-3.9-10.8.8-21.5-3-31.8-2.1-3.3 2-6.5 4.2-10 5.6-9.9 4-20 7.4-30 11.2-21.2 8-37.7 22.1-51.1 40.1-5.2 6.9-10.7 13.6-15.6 20.7-3.8 5.4-7.9 11-10 17.2-5.4 15.2-12.2 30-12.4 46.9-.1 10.5-2.9 21-3.7 31.5-.7 9.2-2.5 18.5 1.9 27.4.6 1.2.8 2.5.7 3.9-1.9 11.8 4.6 20.4 11.2 28.7 4 5.1 7.2 10.7 12.2 15.4 9.4 8.9 20.9 15.2 33.4 18.4 26.2 6.7 51.9 7.3 77.7-1.6 5-1.7 10.4-2.1 15.5-3.5 22.3-6.3 40.2-20.1 57.7-34.4 21.1-17.2 36.1-39.3 46.8-63.8 5.6-12.8 8.1-27.3 8-41.9.1-4 .6-8.1 1.4-12-.4-.4-.7-.9-.8-1.4-1.9-9.2-5.8-17.7-9.8-26.2-3.6-8.1-6.7-16.3-10.9-24zm-8.4 109c-15.4 32.9-41.9 55.2-72.9 72.7-3.2 1.7-6.7 3-10.3 3.8-20.4 4.6-39.9 13.1-63 13.8-11-.7-21.9-3.2-32.1-7.2-19.5-7.5-29.6-22.2-34.4-41.5-.2-1-.4-2-.8-2.9-8.4-17.2-5.8-35-2.5-52.7 2.1-11.1 4.2-22.2 6.6-33.2 4.7-21.9 16.2-39.8 31.6-55.6 3.7-3.8 7-8 10.7-11.8 1.7-2 3.7-3.8 6-5.2 17.2-9.4 34.9-18 53.8-23.5 6.9-2 14.4-2.4 21.7-2.5 21.8-.2 42.1 5.9 60.5 17.3 5.7 3.5 10.7 9.3 14.2 15.1 9.1 15.1 18.1 30.3 20.2 48.4 2.6 22.3.4 44.3-9.3 65zM2529.1 1095c4.1 3.4 10.1 1.9 13.5-3.7.8-1.3 1.5-2.6 2.1-3.9-.4-4.8-1.2-9.5-1.2-14.3-1.2-.8-2.4-1.4-3.6-2.1-5.7-2.9-8.1-2.3-12.3 2.3-5.1 5.6-4.3 16.9 1.5 21.7zm345.6-340.6c-2.6-4.5-5.7-8.7-9.3-12.4-6.9-1.8-14.9 3.5-16.2 11.2 2.1 2.4 4 5 5.7 7.7 1.4 2.6 2.5 5.2 3.4 8 5.7 3 13 3 17.3-1.6-.5-4.2-.3-8.7-.9-12.9zm-10.4 4.9c-3.9 0-3.9-6 0-6s3.9 6 0 6z"/><path fill="#FFC107" stroke="#FFC107" stroke-miterlimit="10" d="M3342.8 1181.6c-1.8-4.5-2.1-9.7-2.9-14.7-3.8-24-11.7-46.5-25.6-66.5-5.9-8.4-13-16.1-18.2-24.9-6.4-10.6-12.7-21-21.8-29.5-3.9-3.6-7.4-7.7-11-11.5-15.9-16.5-31.6-33.2-47.6-49.6-7.2-7.3-15.3-13.8-22.6-21.1-15.3-15.2-30.3-30.7-45.4-46.1-4.4-4.5-8.4-9.5-13.1-13.8-18.3-17-36.1-34.4-55.2-50.5-27.7-23.3-52.4-50-81.9-71.3-11-8-21.2-17.2-32.3-25.2-8.9-6.5-18.2-12.3-27.8-17.5-13.2-7-27-13-40.6-19.3-13.9-6.4-27.7-12.7-43-15.5-9.8-1.8-19.4-5-28.8-8.4-21.3-7.7-42.5-15.4-64.9-18.9-2.3-.3-4.5-1.1-6.5-2.4-15.5-11.1-34-13.6-51.8-16.8-23.6-4.2-47.5-6.9-71.4-7.8-28.2-1.2-56.2-7.7-84.6-3.2-.7.1-1.3.1-2 0-38.3-1-76.5-2-114.8-2.9-6.5-.2-8.2-1.8-8-8.3.3-14.6.5-29.3.9-43.9.2-7 1.4-14 1-20.9-.8-13.6-2.7-27.1-3.6-40.7-1.6-23.4-8-45.8-13.7-68.4-3.3-13.2-12.7-20.6-24.8-25.1-11.8-4.5-23.8-8.6-35.7-13-32.4-12-65.3-20.9-100.2-20-13.3.3-26.6-.3-39.9.1-31.3 1-62.5 2.2-93.8 3.5-10.6.4-21.2 1.5-31.9 1.8s-12-.4-12.3-10.8c-.8-24.9-.7-49.9-1-74.8-.3-14.7.9-29.3 3.7-43.7 1.3-6.2 2.7-12.4 3.1-18.7 1.4-21 12.9-33.7 31.6-42.2 19.6-8.9 40.9-11.9 61-18.9 18.5-6.5 37.2-12.5 55.8-18.6 10.4-3.4 20.7-7.6 31.3-9.8 11.6-2.5 19.6-8.9 20.8-20.7 2-20.3 1.8-40.6-2.5-60.7-3.3-15.3-18.5-28.2-34-28.6-7-.1-14 .4-20.9 1.7-17 3-33.9 6.7-51 9.7-18.3 3.2-36.8 5.5-55.2 8.8-19.6 3.6-39.3 7.2-57.2 16.6-13.3 7-26.7 13.6-40 20.6-12.5 6.4-23.7 15.1-32.9 25.6-5.4 6.2-9.2 13-10 21.3-1.8 20.5-3.6 41.1-5.3 61.6-1.1 13.6-1.7 27.2-2.9 40.8-2.2 25.9-5.3 51.7-3.5 77.8.7 10.6 1 21.3 1.3 31.9.2 6-.4 12-.2 17.9.5 9.4-1 11.3-10.2 11.7-17.9.7-35.9 1.3-53.8 2.1-29.3 1.4-58.5 3-87.8 4.5-2.7.1-5.3.1-8 0-6.7-.4-8.4-1.5-9.1-8.1-.8-6.6-1-13.3-.7-20 1.4-24.5 3.2-49.1 5-73.6.8-11 .8-11 11.9-13 10.6-1.8 15.6-5.9 17-15.3 1-6.9 1.2-13.9.7-20.9-.4-6.9-3.9-10-10.9-10.9-2.6-.3-5.3-.2-7.9.2-11.6 1.2-23.1 3.5-34.7 3.7-17.9.3-35 4-52 8.8-7.5 2.1-11.3 7.1-11.8 14.4-.4 6.9.1 14 .4 20.9.1 1.5 1 3.8 2.1 4.2 9.2 3.6 7.8 11.6 7.7 18.6-.9 32.6-2.2 65.2-3.4 97.9-.3 7.4-1.3 8.4-8.5 9.4-21.8 2.9-43.6 5.7-65.3 9.1-8.5 1.3-16.9 3.8-25.1 6.4-17.8 5.5-35.1 12.5-53.1 16.8-32.1 7.7-59.7 23.8-86.1 42.7-2.1 1.5-4.2 3.6-5 5.9-2.2 5.9-3.9 12-5.1 18.2-1.7 10.8-2.9 21.8-3.8 32.7-1.2 13.9-2.3 27.8-2.7 41.8-.6 17.9-.2 35.9-.7 53.8-.3 11.3-1 11.9-11.9 12.9-25.9 2.4-51.7 4.7-77.6 6.7-37.5 2.9-75.1 4.9-112.5 8.5-20.3 1.9-41.1 2.5-60.1 11.8-.9.4-1.9.6-2.9.6-24.4 3.2-48.8 7.1-73.3 9.3-23.8 2.2-47.5 5.7-71 10.6-8.8 1.7-17.4 4.5-25.5 8.4-14.7 7.1-28.9 15-42.8 23.7-30.6 19.5-61.1 39.2-90.9 59.9-18.6 12.8-36.3 27-53.7 41.5-16.8 14.1-32.6 29.4-49 44-5.2 4.6-11.3 8.3-16.5 12.9-17 15.4-34 30.9-50.6 46.7-15 14.2-29.9 28.5-44 43.5-19.2 20.4-37.4 41.6-56.3 62.2-14.7 15.9-29.8 31.4-44.8 47-1.5 1.6-3.7 2.5-6.4 4.2-3.3-5.2-6.7-9.7-9.2-14.6-9.9-18.9-24.7-34.7-33.2-54.4-4.2-9.8-8.2-19.7-12.7-29.3-15.6-32.7-31.3-65.2-47.2-97.8-3.5-7.1-8.6-13.4-12.3-20.4-10.1-19.3-18.2-39.8-30.2-58.2-7.8-12-14.8-24.5-22.9-36.3-6.8-9.8-15.1-18.5-22-28.2-4.6-6.3-11-10.4-16.3-15.8-13.1-13.6-25.7-27.8-38.4-41.9-11-12.2-25.2-21-41.1-25.2-8.8-2.5-16.8-1.5-24.6 4-11.1 7.8-22.3 15-30.6 26.5-7.9 11-15.2 21.9-18.9 34.8-3.7 12.8-7.4 25.6-9.7 38.7-2.9 16.4-5.8 33-5.8 49.5-.1 19.9 3 39.8 10.7 58.5 1 2.5 1.7 5 2.6 7.5 3.8 10.7 7.1 21.5 11.6 31.9 10 22.8 20.5 45.3 31 67.9 3.3 7.2 7.1 14.2 11.3 20.9 5.3 8.4 11.5 16.2 17 24.5 17.2 26.1 35.7 51.2 58 73.3.9.9 1.6 2.1 2.5 3.1 4 4.8 7.6 10 12.1 14.4 11.1 11 22.5 21.8 34.1 32.2 22.1 19.7 42 41.8 65.8 59.7 12.2 9.2 23.9 18.9 35.6 28.8 3.9 3.3 6.8 7.6 11.5 13-4.7 1.1-7.4 2.2-10.1 2.3-15.6.6-31.3.7-46.9 1.6-15.9 1-31.8 3-47.7 4.1-22.5 1.5-44.6 8-67.5 4.3-2.7-.3-5.3-.2-8 .1-10 .6-19.9 1.2-29.9 1.8-9.8.5-12.6-1.6-14.1-11.3-1.4-8.8-1.2-18-5.9-26.1-.5-1.2-.7-2.6-.6-3.9.4-22 .6-43.9 1.3-65.9.4-11.6 2.5-23.1 2.6-34.7.2-20-4.4-39.6-6.9-59.3-2.6-20.2-9-39.7-18.8-57.5-5-9.4-11.1-18.2-18.3-26-10.5-11.2-24.6-11.4-36-2.6-9.7 7.3-16.9 17.3-20.8 28.8-9 27.3-12.5 55.2-7.3 83.7 1.8 9.8 3.2 19.7 6 29.1 6.2 21.3 11.8 43.1 20.4 63.5 6.9 16.4 10.7 33.6 16.5 50.2.8 2.4-.4 7.1-2.4 8.8-12.9 10.6-15.4 25-16.4 40.3-1.4 19.8 6.5 34.8 22.8 45.8 7.1 4.8 6.9 4.8 5.1 13.1-3.3 16-6.9 31.9-9.6 48-3.8 22.3-3.3 45.2-10.3 67-.9 2.7-.3 5.9-.3 8.9 0 6.7-.1 13.3 0 20 .1 12.9-.4 26 .8 38.8.8 8.5 4 17.1 12.2 22 8.4 5 27.1 3.9 34.2-3 9.4-9 17.8-19 20.4-32.4 3.9-19.9 6.5-40 6.6-60.3 0-5-.1-10-.2-15-.2-13.9-.6-27.9-.5-41.8.2-20.2 1-40.4.9-60.7 0-12.8-1.5-25.3 3.4-38.2 3.2-8.4 3.3-11.2 15-11.9 25.9-1.6 51.8-3.2 77.6-5.3 15.6-1.3 31-4 46.5-5.6 6.6-.7 13.2-.5 19.9-.6 8.9-.2 17.9-.2 26.8-.6 16.9-.8 33.9-1.8 50.8-2.5 2-.1 4.1 1 8 2-4.1 3.8-6.8 6.6-9.8 9.1-6 4.8-12.1 9.4-18.1 14.1-18.3 14.2-32.4 32.4-48.3 49-18.2 19-36.5 37.8-54.5 56.9-17.5 18.7-37.3 35-53 55.6-15.9 20.9-33.8 40.3-48.6 62.1-3.7 5.5-9.4 9.6-12.8 15.2-10.5 17.2-24 31.9-37 47-13.2 15.4-26.8 30.5-39.9 46-10.7 12.7-20.8 25.9-31.3 38.8s-21.6 25.4-31.6 38.6c-5.6 7.4-8.9 16.5-14.4 23.9-14.2 19-22 41-30.5 62.6-6.1 15.5-12.1 31-17 46.9-4.4 14.4-6.8 29.4-2.5 44.3 2.5 8.6 6.4 16.7 10.2 24.8 7.4 15.8 18.3 29.2 30.5 41.7 6.4 6.6 13.3 10.7 22.2 12.1 20.4 3.3 40.1-.5 58.2-9.2 15.2-7.3 29.5-16.8 43.4-26.5 10-7 18.9-15.8 27.8-24.2 6.8-6.4 12.9-13.4 19.3-20.2 7.2-7.7 15.4-14.8 21.5-23.4 15.2-21.1 29.4-42.8 44.1-64.2 18.5-26.8 37.2-53.5 55.7-80.4 3.4-4.9 6-10.4 9-15.5 3.4-5.7 6.8-11.4 10.4-17 7.9-12.3 16.5-24.2 23.7-36.9 9.9-17.3 18.4-35.3 30.8-51.2 4.8-6.1 7.7-13.6 11.4-20.5s6.7-14.4 11.1-20.9c9.1-13.1 15.4-27.5 22.1-41.8 3.2-6.8 5.6-14.3 13.4-18.4 1.7 1 3.3 2.2 4.8 3.5 12.2 12.8 27 22.5 41 33.2 20.1 15.2 39.6 31.2 59.4 46.8 13.6 10.7 27 21.7 40.8 32 14.1 10.6 28.6 20.6 43 30.7 13.9 9.7 27.9 19.2 41.8 28.8 14.8 10.2 29.1 21.2 44.5 30.2 23.8 14 48.4 26.5 72.6 39.9 10.7 5.9 21 12.5 31.5 18.7 1.1.7 2.3 1.4 3.4 2.1 27.2 15.4 54.4 30.9 81.7 46.1 8.7 4.8 17.7 9.2 26.8 13.1 13.1 5.7 26.4 10.9 39.6 16.2 17.9 7.1 35.8 14.2 53.7 21.2 5.3 2 10.6 4.4 16 5.4 30 5.8 60 10.2 91 7.1 31.1-3.1 62.4-4 93.7-5.7 20.6-1.1 41.2-2 61.8-2.9 10.3-.5 20.6-1.2 30.9-1.4 15.3-.3 30.6 0 45.9-.5 18-.7 35.9-2.6 53.9-3 46.6-1.2 93.2.3 139.8-3.9 16.8-1.5 33.9-.2 50.8-1.1 17.8-1 35.7-.7 53.5-2.5 13.1-1.3 26.6-.1 39.8 1.2 35.9 3.3 71.8 1.3 107.7-.1 12-.4 23.9-2.2 35.8-2.9 18.6-1 37.2-1.6 55.8-2.2 14-.5 28-1.6 41.9-.9 17.3.9 34.4 3.7 51.6 5.2 6.9.6 13.9-.1 20.9-.5 3.6-.2 7.2-1.1 10.9-1.5 16.9-1.6 33.8-2.7 50.7-4.7 23.8-2.8 47.5-6.7 71.5-6.9 21.3-.2 42.6.1 63.9.1 6.3 0 12.5-.6 18.8-.7 10.6-.1 21.2.3 31.8-.1 25-.8 49.9-2.2 74.9-3 30.3-.9 60.6-1.2 90.9-2.3 11.9-.4 23.8-2.8 35.7-3.8 15.6-1.4 31.2-2.3 46.7-3.5 6.3-.5 12.5-1.6 18.8-1.9 15.6-.6 31.2-.5 46.8-1.2 22.9-1 45.8-2.6 68.7-3.4 16.2-.6 32.5.1 48.8-.3 23.6-.6 47.3-.6 70.8-2.7 31.4-2.8 63-5.3 90-25.1 17.2-12.6 32.2-26.8 42.4-45.6 9.6-17.9 20.1-35.2 33.7-50.5 9.1-10.2 18.1-20.4 26.7-31 18.1-22.5 36-45.2 53.8-68.1 8-10.2 15.7-20.6 23.1-31.3 9.4-13.7 17.9-28 27.4-41.7 10-14.5 21.8-27.7 29.8-43.6 7.5-14.8 15.5-29.4 24.3-43.6 14.6-23.4 30.2-46.2 44.8-69.6 7.2-11.5 13.3-23.7 19.9-35.6 6.9-12.5 13-25.6 20.9-37.4 7.9-11.9 14.5-24.6 19.8-37.9 1.2-3.1 2.2-6.5 4.4-8.9 5.4-6 6.9-13.5 9.1-20.8 4.6-14.6 9.4-29.1 14.1-43.6 2.2-6 4.5-12.1 1.7-19zm-3141.5 16.9c-5.7-16-11.5-31.9-16.3-48.2-3-10.5-5.2-21.3-6.4-32.2-1.5-12.8-1.8-25.8-2.5-38.8-1.1-18.6 4.7-35.6 12.9-51.7 6.5-12.8 13.2-13 23.4-6.7 9.1 5.6 13.3 14.6 17.7 23.6 11.1 22.9 14.4 47.6 16.2 72.6.7 9.5 2.6 19 3.7 28.4.8 7.2 1.3 14.5 1.9 21.8h-1.2c-.9 25.6-1.9 51.1-2.9 76.7-.1 2-.3 4-.5 6-.4 5-2.9 7.6-8.2 8.3-14.1 1.8-14.2 1.9-19.7-11.3-2.2-5.2-3.7-10.7-5.7-15.9-4.1-11-8.5-21.7-12.4-32.6zm4.9 115.5c-5.3-15.5 4.8-32.4 20.8-36.1 3.9-1 7.8-1.6 11.8-1.7 8.6 0 11.1 2.7 11.5 11.2.1 1.7 0 3.3 0 5h-.3v41.8c0 6.9-2.4 10.5-9.3 11.6-9.2 1.4-17.7-.9-23-8.8-4.8-7.1-8.7-14.9-11.5-23zm45.4 191.7c-.7 12.5-3.4 25-6.1 37.2-2.2 10-10.4 14.2-19.6 16.1-6.2 1.2-11.9-2.3-14.2-8.3-1.4-3.7-3-7.6-3.1-11.5-.7-23.9-.4-47.8 4.8-71.4 3-13.6 3.2-27.7 5.4-41.4 3-19 6.5-37.9 9.9-56.9.7-4 3.2-6.4 7.3-7.1 4.5-.7 9-1.5 15.1-2.6.7 6.6 1.7 11.4 1.7 16.3-.1 23.9-.5 47.8-.7 71.8-.1 19.3.6 38.6-.5 57.8zM2253.9 91.1l3 .4c1 5.5 2.6 10.9 2.8 16.4.5 12.6.4 25.3.3 37.9-.2 5.1-4.1 9.3-9.1 10-4 .5-7-1.9-8.6-7.9-3.9-14.8-.6-29 4.6-42.9 1.7-4.9 4.6-9.3 7-13.9zm-278.2 284.1c.3-18.6.3-37.3 1.1-55.9 1.1-24.6 3-49.1 4.5-73.7 1-16.6 2.3-33.2 3.2-49.8.7-14.1 2.5-28.1 8.3-40.9 3.4-7.2 8.7-13.3 15.2-17.8 29.6-20.4 61.5-35.8 97.3-42 25.9-4.5 51.8-9 77.7-13 15.4-2.4 31-3.8 46.6-5.6 2-.2 4-.3 6-.2 8.2.5 9.5 3.1 6.1 10.8-5.1 11.5-10.1 23.2-14.9 34.9-4.6 11.1-3.1 22.2 1.5 32.9 3.1 7.4 2.4 9.2-5.3 11.4-27.8 8.1-55.9 15.2-83.3 24.5-18.8 6.3-38.1 12.5-54.6 24-12.4 8.7-21.6 20.3-25.7 35.6-6.9 25.2-8.8 51.1-11 76.9-2 24-2.4 47.9.9 71.8 1 6.9-.6 8.5-8.6 8.6-21.2.2-42.5.1-65 .1 0-11.5-.1-22 0-32.6zm-248-101.8c5.5-2.2 11.4-3.7 17.3-4.5 18.4-2.3 36.9-4.1 55.3-6.1 10.3-1.1 12 .4 11.9 11.3s-.8 12.4-11.3 13.6c-7.8.9-15.8.4-23.7.4-9.3 0-18.6-.7-27.9-.3-9.1.3-18.2 1.5-27.6 2.4-3.3-8.7-2-13.6 6-16.8zm52 40.6c-.8 17.6-2.5 35.1-3.5 52.6-.8 13.2-1.4 26.5-1.7 39.8-.3 10.3-.1 10.4-9.9 12.4-11.6 2.5-23.3 4.8-37 7.6-.5-11.5-1.5-21-1.2-30.5.9-27.2 2.4-54.4 3.5-81.6.5-11.2.6-12 11.5-13.1 8.6-1 17.2-1.3 25.8-.8 11 .7 13.1 3 12.5 13.6zm-304.4 346.8c.8-32.3 1.6-64.5 3-96.8.5-12.2 3-24.4 4.1-36.6 1-11.9 9.3-18.8 18-23.7 12.7-7.1 26.5-12.2 40-17.8 8.6-3.5 17.5-6.2 26.3-9.1 3.8-1.2 7.7-2.1 11.6-3 8.7-2.1 17.4-4.3 26.1-6.2 19.1-4.4 38.2-8.7 57.4-12.9 14.3-3.1 28.6-6 42.9-8.6 4.3-.8 8.8-.1 13.7-.1 8.8-2.7 18.1-6.7 27.8-8.2 21-3.4 42.2-5.4 63.3-8 9.9-1.2 19.8-2.8 29.7-3.6 12.5-1 25.1-1.3 37.7-2 16.9-1 33.8-2.6 50.7-3.1 11.6-.3 23.3.9 34.9 1.1 16.9.2 33.9.2 50.8.2l25.9.1c2 0 4.1-.4 6 .1 8.3 2 16.4.9 24.7.3 13.9-1 27.9-.4 41.8-.9 16.6-.6 33.2-1.9 49.9-2.3s33.2-.1 49.7-.3c3.6 0 7.3-1 10.9-1.1 23.6-.3 47 .2 70.4 5.8 17.6 4.3 34 11.3 50.8 17.6 6.5 2.5 13.4 4 20.2 5.6 12.5 2.9 19.7 10 23.7 22.7 11.3 36.1 13.6 73.2 14.5 110.5.4 17.6-1.2 35.2-2 52.9-.3 7.4-.7 8.2-7.9 8.8-11.6.9-23.2 1.3-34.8 1.5-23 .4-45.9.6-68.9.6-8.3-.1-16.6-.7-24.9-1.8-12.9-1.6-25.7-2.4-38.8-.6-10.7 1.4-12.3-.6-14.9-11.3-3.6-14.8-7.2-29.7-11.3-44.5-1.5-5.4-4.5-10.3-7-15.4-3.6-7.5-6.9-15.2-11.1-22.4-6.4-11-16.8-17.9-27.5-24.1-10.9-6.3-22.5-11.5-33.5-17.6-6.4-3.5-12.3-7.9-18.6-11.5-3.7-2.2-7.5-4.5-11.6-5.6-32.1-8.4-63.8-19.6-97.9-17.1-13.2 1-26.6.3-39.8 1.6-14.8 1.5-29.6 4.1-44.3 7-15 3-29.9 6.4-44.6 10.5-12.5 3.5-24.7 7.7-36.8 12.3-24.2 9.2-48.2 19.1-72.4 28.3-10.8 4.2-18.9 12.2-28 18.7-15.9 11.5-27.6 27.1-39.3 42.2-15.1 19.2-25.3 41.8-29.8 65.8-1.5 8.1-2.6 9.2-11.3 9.4-16.6.4-33.2.5-49.9.6-36.6.4-73.2.6-109.8 1.1-8 0-10-1.2-9.8-9.1zM2121.1 557c-13.2-13.5-27.9-26.1-46.4-32.2-11-3.6-22.4-6.9-33.8-8.4-22.7-3.1-45.2-8.9-68.3-7.2-22.5 1.6-45.1 3.2-67.4 6.6-16.7 2.5-33.1 7.3-49.3 12.2-9.8 2.9-18.8 8.6-28.5 11.7-33.2 10.7-61.3 30.5-89 50.5-17.2 12.4-30.1 29.8-36.8 49.9-2 5.7-4.3 11.2-6.8 16.7-4.8 10.3-7.3 11.8-18.5 11.2-2.6-.3-5.3-.7-7.9-1.3 0-2.2-.4-3.9.1-5.4 6.7-23.6 16.2-45.7 31.2-65.4 10.6-13.8 21.5-27.3 36.2-36.8 12-7.8 24.7-14.5 37.3-21.2 24.2-12.8 49.9-22.2 76-30 20.3-6.1 40.8-12.2 62.2-14 5.6-.5 11.1-2 16.7-3.1 27.8-5.5 55.9-4.2 83.6-2 18 1.5 35.5 8.4 53.1 13 6.1 1.6 12.3 3.1 18.1 5.5 23.6 9.7 45.1 22.6 63.5 40.5 3.6 3.5 7.2 6.9 11 10.1 20.9 17.7 25.3 42.7 30.1 67.5.8 4.2 1.5 8.5 2.2 12.7-.1.7-.3 1.3-.7 1.8-12.6 3.8-16.6 2-21-10.5-9.9-28-26.6-51.6-46.9-72.4zm31.4 84.9c-5.9.7-9.7 1.4-13.6 1.6-23.3 1.1-46.5 2.2-69.8 3-19.9.7-39.9 1.1-59.8 1.8-15.6.5-31.3 1.3-46.9 1.9-32.2 1.3-64.4 2.3-96.7 4-23.3 1.2-46.5 3.1-69.7 4.7l-71.7 5.1c-3.8.3-7.6 0-12.5 0 .8-2.9 1-4.6 1.8-5.9 8.1-14.1 15.1-29.1 24.7-42.1 15.4-20.8 34.7-37.8 59-47.8 34.1-14.1 68.5-27.8 104.6-35.9 25.7-5.8 51.8-9.3 78.2-6.8 16.2 1.5 32.7 2.2 48.5 5.5 22.5 4.7 44.6 12.1 63.5 25.3 15.6 10.9 28.8 24.9 38.9 41 5.8 9.3 11 19 16 28.7 2.4 4.4 3.4 9.3 5.5 15.9zm-840 382c.6-20.3 2.8-40.5 4.3-60.8 2.2-29.9 4.7-59.7 6.3-89.6 1-18.3.6-36.6.5-54.9-.2-27.3-.6-54.6-1.3-81.9-.2-10.6-1.6-21.2-1.8-31.9-.2-9.6 1.9-12 11.3-12.8 20.6-1.8 41.2-3.2 61.7-4.4 24.2-1.4 48.5-2.9 72.7-3.7 21-.7 41.9-.2 62.9-.5 20.7-.3 41.3-.8 61.9-1.3 21-.5 42-2.6 62.8-1.4 15.4.9 30.6 0 45.8-1.1 15.6-1.1 31-4.3 46.6-5.5 20.2-1.5 40.5-1.9 60.8-2.9 5.7-.3 11.3-.9 16.9-1.3 22.2-1.3 44.4-2.8 66.7-4 24.2-1.3 48.5-2.6 72.8-3.4 26.9-.8 53.9-.8 80.8-1.6 19.3-.6 38.5-2.1 57.8-2.9 12-.5 23.9-.4 35.9-.7 21.6-.5 43.2-1.1 64.8-1.6 7.6-.2 15.3 0 23 .2 14.3.2 28.5.4 42.8.8 11.6.3 23.1 1.3 34.6 1.6 11 .3 21.9.2 32.9.4 7 .1 13.9.3 20.9.6 13.3.5 26.9-.5 39.8 1.9 12.6 2.3 24.3-.8 36.4-1.2 12.9-.4 25.9.3 38.9.6 3.3.1 6.7.9 9.9.5 23.3-3.1 46.5-1.2 69.8.3 7.6.5 15.3-.7 22.9-.3 10.9.5 21.8 2.2 32.7 2.7 27.6 1.2 55.1 3.8 82.5 8 14.4 2.2 28.8 4.8 42.3 11.2 16.5 7.8 30.1 19.5 43.1 31.7 15.1 14.1 26.9 31.1 39.6 47.4 12.1 15.7 21 33 30.4 50 8.6 15.4 17.8 30.4 25.5 46.2 7.3 14.9 13.1 30.5 19.5 45.9 6 14.5 12.2 28.8 17.5 43.5 7.1 19.7 13.6 39.7 19.8 59.7 7.6 24.5 14.6 49.1 21.6 73.7 1.6 5.7 2.3 11.8 3.6 17.6 3.8 17.2 7.7 34.4 11.6 51.5 2.2 9.6 1.2 10.9-8.9 11.4-5 .2-10 .4-15 .4-3.4 0-6.9-.1-9.5-6.4 2.8-1.8 6.1-3.2 8.1-5.6 3.6-4.2 2.3-7.8-3-9.9-7.6-3.1-10.6-2.6-14.1 2.1-4.9 6.6-4.8 9.9.3 16.7.6 1.1 1.1 2.3 1.5 3.5l-39.5 5.5c2.6-3.5 3.3-5.5 4.7-6.3 4.1-2.4 4.9-5.7 3.9-10.2-1.5-6.5-3.4-9.2-8.2-9.8-5.1-.6-10.6 2.8-12.5 8.1-.9 2.5-1.4 5.1-1.6 7.8-.2 2.6.3 5.2.6 9-21.8 4.8-43.6 5.9-67 4.4 2-3.7 3.4-5.9 4.4-8.2 1.9-4.2 2.3-8.8-1.6-11.9-2-1.6-5.5-2.7-8-2.1-4.8 1.1-6.7 5.4-6.8 10-.1 2.9 1.1 5.8 1.6 8.7.8 4.8-.7 6.6-5.7 7-31.8 2.4-63.6 4.8-95.4 7.1-24.9 1.8-49.8 3.5-74.7 5.2-6.1.4-12.2.1-19.5.1 2.1-4 3.8-6.7 5.2-9.7 2.7-5.7 1.1-11.4-4-14.8-4.5-3-9.3-2.6-12.8.9-4.1 4.1-5.1 11.1-1.7 15.6 2.1 2.7 5.3 4.6 9.1 7.9-3.4.9-6 2-8.7 2.2-5.6.4-7.1-.9-7.4-6.8-.5-8-.5-16-1-24-1.5-21.6-3.1-43.1-4.8-64.7-1.3-15.6-2.1-31.2-4.5-46.7-2.8-18-6.6-35.9-11.2-53.6-4.7-17.6-11-34.8-16.8-52.1-1.7-5-3.9-9.9-6.4-14.6-7.1-13.2-13.8-26.6-21.9-39.2-9.2-14.2-19.6-27.6-29.7-41.2-5.3-7.2-11.2-13.9-16.6-21.1-15.4-20.3-37.7-32.2-57.1-47.7-15-12.1-32.4-21.1-51-26.4-10.9-3.1-21.3-7.7-32-11.3-19.6-6.7-39.9-10.9-60.7-10-33.6 1.4-67.1 3.6-100.7 5.5-14 .8-28 1.3-41.8 2.9-14.5 1.6-28.9 5.1-43.4 6.5-24.5 2.5-47.1 11.6-70.5 17.8-27.4 7.3-54.8 14.4-80.5 26.6-19.2 9.1-38.8 17.9-56.7 29.1-17.4 10.8-33 24.6-49.4 37.1-7.4 5.6-15.1 10.9-22.2 16.9-17.2 14.7-34.6 29.2-50.9 44.9-10 9.6-17.4 21.9-27.3 31.7-6.9 6.9-13.1 14.2-17.6 22.7-5.6 10.6-10.8 21.4-15.8 32.2-8.2 17.8-16.9 35.5-24.1 53.8-6.9 17.6-14 35.2-16.4 54.3-1 7.8-4.7 15.3-6 23.2-1.8 11.1-2.4 22.4-3.5 33.7-.3 3.3-.7 6.6-.9 9.9-.3 5.9-3.6 8.9-9.3 9.9-6.6 1.2-13.1 2.6-19.6 3.8-18.3 3.4-36.5 7.5-54.9 10.1-28 3.9-56.1 6.8-85.2 10.3-2.7-9-5.7-16.7-7.4-24.7-3.4-15.8-7.8-30.9-18.7-43.5-2.5-3.1-4.6-6.6-6.1-10.3-6.4-14.5-18-23.4-31.8-30.2-17.2-8.4-34.7-14.9-54-16.7-11.5-1.1-22.8-4.6-34.6-7.1-.4-1.4-1.2-3-1.3-4.5-.4-16.9-1.7-34.2-1.3-51.5zm1222.9 224c2 7.4 9.6 9.3 15.1 3.9 1.4-1.4 2.8-2.8 4.3-4.1.4-.3 1.2 0 1.9 0 2.1 13.4 2.7 74-2 90.7-2.4-1-4.8-2-7.1-2.9-6.8-2.5-11.3-.2-15.1 7.4-3.2 6.4-2.4 13.2 3.1 15.8 3.1 1.5 7.7.9 11.2-.1 2-.6 3.2-3.9 4.8-6l2.5 1.1c-.4 4.7-.5 9.5-1.4 14.1-4.5 23.9-8.4 47.9-13.9 71.5-6.2 26.7-15.5 52.4-29.1 76.2-11.4 20-26.5 37.3-42 54.4-17.4 19.2-38.5 33.8-59.8 47.8-19.4 12.7-38.9 25.6-60.2 35.2-1.4.6-3 .8-6.7 1.6 2.4-3.8 3.7-5.8 4.9-7.8 3.6-5.9 2.8-12-2-16.2-4-3.5-10.6-4-14.8-1-5.2 3.6-6.7 10.7-3.4 16.1 2.2 3.8 5.9 6.9 9.6 11.1-2.2 1.2-4.8 3.3-7.7 4.2-26.1 8.9-52.1 18.7-78.6 26.1-29.2 8.2-59.5 11.6-89.9 11.4-9.1-.1-18.2-2.3-29.1-3.8 2.8-2.8 4.2-4.3 5.7-5.7 2.2-2 4.8-3.7 6.5-6.1 3-4.2 2.4-8.9.1-13.2-2.1-3.9-6-4.3-9.6-3.6-3.9.7-7.7 2.1-11.1 4-7 4.1-8.2 8.5-5.1 15.9.7 1.7 1.6 3.4 2.9 6.2-10.6-.6-20.1.7-30-4.3 5.1-5.8 11.5-11.5 5.1-19.6-3.1-4-10.9-5.2-16.7-3-9.1 3.5-8 11-6.3 19.6-4 0-7.3.7-10.2-.1-29.9-8-60.6-12.6-89.2-25.2-17-7.5-35.2-12.5-52.2-20-19.3-8.5-36.2-21.1-52.2-34.8-15.2-13-30.1-26.3-44.9-39.6s-27.2-29.2-38.8-45.4c-14.2-20-27.3-40.9-41.6-60.9-13-18.2-23.1-38-33.8-57.6-18.2-33.5-32.9-68.4-41.2-105.5-7-31.1-14.3-62.6-14.1-94.7.2-30.9 2.4-61.8 10.3-92 11.8-45.2 31.3-87 53.7-127.6 13.8-25.1 33.6-45.4 54.8-64.2 12.7-11.2 26.3-21.5 39.6-32 2.2-1.8 4.8-3.1 8.3-5.3 0 3.4-.1 5.3 0 7.2.3 8.5 4.1 12.2 11.5 11.2 5.9-.8 11-7.9 9.1-14.2-1.4-4.5-4.7-8.4-7.9-13.9 24.1-22.9 51.2-42.6 84.7-55.9 3.5-2.3 7.4-4 11.5-5 2.9-2.1 6.2-3.2 9.3-4.5 26.2-11.6 53.6-19.4 81.4-26 16.5-3.9 33-7.9 49.6-11.8 4.8-1.1 9.7-2.3 13.9-.1l-4 23.2c-7.1 3-16.1 6.8-26.9 5.5-1.2-2.6-2.3-5.3-3.8-7.8-3-5.2-7.7-7.7-12.2-6.8-5.2 1.1-8 4.4-8.8 9.6-.4 2.3-1.5 4.7-1.2 6.8 1.1 7.8-3.6 10.6-9.7 12.9-26.5 9.9-52.9 19.8-79.2 30.1-7 2.9-13.8 6.4-20.3 10.3-22.7 13.2-45.3 26.6-67.8 40.2-3.4 2-6.1 5.1-9 7.8-12.6 12.3-25.4 24.4-37.7 37.1-3.5 3.7-5.2 9.1-7.8 13.7-4.9 8.7-10 17.3-14.8 26-11 20-22.2 40-32.7 60.3-3.2 6.1-4.4 13.2-6.7 19.8-4.6 13.5-9.2 27-13.9 40.5-6.6 19-11.2 38.3-11.4 58.5 0 1.3-.1 2.7-.3 4-5.2 24.9-1.7 49.8.4 74.6.9 10.6 2.1 21 6 31.2 2.8 7.1 3.6 14.9 5.6 22.2 2.3 8.6 4.7 17.3 7.6 25.7 5 14.4 10.7 28.7 15.6 43.1 3.5 10.4 5.6 21.2 9.4 31.5 3.5 9.6 8.5 18.7 12.7 28.1.9 2.4 1.6 4.8 2.2 7.2-10.6-1.2-16.4 5.1-22.3 10.8-8.4 8.1-5.1 20.3 5.9 23.5 7.3 2.1 13.6-1.3 15.1-8.8 1.5-7.1 2.1-14.4 3.4-23.5 4.4 6.4 7.7 11.5 11.3 16.2 7 9.3 13.5 19.1 21.5 27.4 14.5 15.1 26.9 31.9 40.3 48 4.9 5.8 10.2 11.2 15.9 16.2 14.7 13 29 26.4 45.7 37.1 10.3 6.6 19.1 15.4 29 22.7 6.4 4.7 13.4 8.7 20.2 12.8 9.6 5.8 19.5 11.3 29 17.2 6.9 4.3 6.8 7.6.3 13-3.5 2.9-8.2 4.5-7.9 10.5.4 7.6 7 13.8 15.5 13.9 6.3.1 11.7-6.3 11.6-13.7 0-2-.9-4-.8-5.9.3-2.1.8-4.2 1.4-6.2 15.1 4.5 29.4 8.4 43.5 13.1 8.5 2.8 16.9 5.6 26 6.4 22.8 2.1 45.5 6.9 68.6 4.7 12.6-1.2 25.1-2.7 37.7-4.2 18.8-2.3 37.6-4.6 56.3-7.5 6.9-1.2 13.6-3.1 20.1-5.7 23.5-8.6 45.6-20 66.9-33.2 14.9-9.3 30.3-18.1 44.2-28.8 12.3-9.5 23-21.1 34.1-32.1 16.2-15.8 30.6-33.4 43.1-52.3 6.3-9.7 11.9-20 17.7-30.1 1.3-2.3 2.4-4.8 4-6.9 6.7-9.2 12.4-18.5 15.8-29.7 4.1-13.6 10.5-26.6 15.9-39.9 12.2-29.9 17.8-61.1 19.2-93.3.7-17.2 2-34.5 2.9-51.7.5-10.2.6-20.5 1.2-30.8.2-3.5 1.3-6.9 2.1-10.9 8.8 2.2 16.4 3.4 22.2-7.5 4.6 12 4.2 22.2 7.4 32.6-4.1.6-7 1-9.8 1.5-10.3 2-16 10.6-13.2 20.8zm-396.8-470.1c-13 4.6-23.5 7.4-34.5 7.5l-6.5-19.9c9.8-7.4 21.8-7.7 35-8-3.2 8-4.8 15.1 6 20.4zm-34.4 24.8c11.9-3 23.9-6.1 35.9-8.6 21.6-4.4 43.4-6.1 65.5-6.5 17.7-.4 35.2-.2 52.7 2.8 1 0 2 .1 3 .3 15.1 5 31.6 5.1 46 12.7 5.3 2.8 10.7 5.4 16 8.1 7.9 4.1 16.5 7.5 23.6 12.8 15.1 11.3 29.5 23.6 44.1 35.6 3.9 3.2 7.1 7 11.1 10 10.6 7.9 18.1 18.5 25.5 29.2 15.1 21.7 24.2 46.5 36.1 69.9 8.8 17.4 15.2 35.6 20.1 54.2 4.5 17 7.3 34.5 10.1 51.9 3.7 22.3 7.3 44.6 9.8 67.1 1.8 16.9 2.6 33.8 2.6 50.8.2 23.9.3 47.8-1.2 71.6-2 31.2-3.3 62.6-11.2 93.1-4.1 15.7-10.1 31-15.3 46.4-1.4 4.1-3 8.1-4.6 12.1-4.8 12.4-11 24.3-18.5 35.3-8.4 12.4-16 25.3-23.5 38.3-12.1 20.7-29.6 36.6-46.3 53.2-5.4 5.4-10.5 11.2-16.6 15.7-11.7 8.7-23.5 17.4-36.1 24.7-17.2 10-34.7 19.9-53.1 27.6-39.1 16.4-80.2 24.1-122.5 25.2-5 .3-10 .8-14.9 1.6-16 2.1-31.9.3-47.7-2.1-21.7-3.3-43-8.7-63.6-16.2-21.4-7.9-40.8-19.3-60.1-31.2-33-20.2-62.6-45-91.4-70.5-10.2-9-18.9-19.7-27.8-30-12-13.8-23.8-27.8-35.2-42.1-13-16.5-25.4-33.4-31.5-54-1.2-4.1-4-7.7-5.8-11.6-3.3-7.3-7.1-14.4-9.5-22-5.2-16.1-10.7-32.3-14.4-48.8-4.6-20.4-7.9-41.2-11.1-61.8-2.4-15.8-4-31.7-5.6-47.6-1-10.6-1.4-21.3-2.1-31.9.1-31 6.4-60.9 15.1-90.4 2.1-7.3 6-14 9.2-21 10-22.1 19.7-44.5 30.3-66.3 11.8-24.4 26.4-47 47.7-64.6 13.3-11 26.4-22.2 39.6-33.4s28.6-18.3 44-25.4c15.1-7 30.2-14.1 45.5-20.6 14.4-6.1 29.1-11.5 43.7-17.1 6.2-2.4 12.5-4.4 18.9-6.3 9.5-2.9 19-5.9 28.6-8.5 14.7-4.1 29.8-7.9 44.9-11.7zm88.2-30.3l-42 4.7c1.3-7.9 6.1-14.7-1.4-20.1 6.6-3.2 26.7-5 37.2-3.5-1 8.2-1 8.2 6.2 18.9zm11.3-.1l6-20.4c6.8-2.3 23.4-3.1 36.3-1.2-.5 5.4-.9 10.9-1.6 16.4-.4 3.6-2.8 5.2-6.2 5.2h-34.5zm99.6 2c2.8 7.6 8.7 10.7 16.6 9.2 4.9-.9 7.7-3.5 8.1-8.6.3-3.9.9-7.7 1.4-12.3 10.8 1 18.6 6.7 28.6 11-3.1 2.6-5.2 4.4-7.3 6.2-5 4.2-6 8.4-3.1 14 4.6 9 18.7 11 25.6 3.7.2-.2.4-.5.7-.7 9.5-10.8 9.5-10.9 21.1-3.2 10.6 6.9 21 14 31.6 21 8.9 5.9 16.2 13.9 21.4 23.3l-.3-.2c4.2 4.2 8.6 8.2 12.5 12.5 6.1 6.6 11.9 13.4 17.8 20.2 1.6 2.1 3.1 4.3 4.5 6.6 7 5.4 11.3 11.9 12.9 20.3 4.5 4.2 8.3 10.4 11.6 16.8 6.4 12.4 12.2 25.1 17.8 37.9 3.1 7 5.3 14.3 7.6 21.6.6 1.7.1 3.8.1 6.4-2.9-.7-5.1-1.1-7.2-1.7-10.3-2.6-17.7 4-16.3 14.7.3 2.3.9 4.6 1.7 6.8 3.6 9.1 10.3 10.2 16.5 2.4 2.6-3.3 4.1-7.5 6.3-11.5 4.1 0 5.6 3 6.2 6.4 3.1 19.3 6 38.7 9 58 .8 4.9 1.8 9.8 2.3 14.8.2 2.1-.4 4.2-.8 7.5l-.3-.2c.1 2.2.4 4.4.6 6.7 3.7 5.5 1.2 11.6 1.9 17 .9 6.4.9 13 1.4 21.1-4.5-1.6-7.1-2.6-9.9-3.4-9-2.7-16.1 3.8-14.2 13.1.4 2.3.9 4.8 2.2 6.6 1.7 2.6 4.2 6.6 6.3 6.5 3 0 6.2-2.9 8.9-5.1 1.4-1.1 1.5-3.6 2.4-5.4 1.1-1.7 2.3-3.4 3.6-5 3.4 18 4.2 34.1-1.8 50.8-8.5-2.3-15.9-1.4-21.4 7l-1.5-2c-.6-4.1-1.1-8.2-1.7-12.2-.6-4.3-1.4-8.5-1.9-12.8-1.4-11.9-2.5-23.8-3.9-35.6-1.2-10.9-1.9-21.9-4-32.7-4.6-23.8-9.6-47.6-15.1-71.2-2.9-13-6.8-25.8-11.5-38.2-7.9-20.3-16.5-40.4-27.4-59.5-8.8-15.3-15.9-31.6-27.8-44.8-11.5-12.9-23.7-25.1-35.8-37.4-2.1-2.2-4.6-3.9-7.4-5.1-11.1-4.7-19.7-13.2-29.6-19.7-16.1-10.5-32-21.5-50.2-28-15.6-5.6-31.5-10-46.9-14.8 1.1-5.5 1.9-11.7 3.7-17.5.6-2 3.6-4.6 5.3-4.6 14.6.6 29 2.5 42.7 7.9.2.1.2.6.7 2.2-3 .8-6 1.5-8.9 2.5-5.9 1.7-7.4 5.2-5.4 10.7zm-853.1 459c-.8 9.6-1.5 19.2-2.6 28.7-2.5 22.2-11.4 42.5-22.1 61.6-5.6 10-13.8 18.8-22.1 26.8-16.2 15.8-35.6 28.2-56.8 36.2-11.2 4.2-23 6.4-34.9 6.6-21.4.3-42.5-1.4-62.7-9.3-25.7-10-50.1-22.3-65.6-46.3-9.9-15.4-17.6-32.3-19.2-50.9-3.2-35.2.4-69.7 12.8-103.1 4.4-11.8 11.6-21.7 18.5-31.8 16.2-23.6 40.4-36.7 64.8-49.9 9.7-5.2 20.6-7.7 31.7-7.3 12.2.4 24.3 1.9 36.3 4.2 14 2.6 27.7 6.9 41.7 9.7s26.5 9.5 37.8 17.4c7 4.9 11.8 13.3 16.7 20.8 4.2 6.3 6.8 13.6 10.6 20.2 11.7 20.7 15.4 43 15.1 66.4zm-887-79c.2-1.3.7-2.6 1.5-3.7 8.1-9.6 11.4-22.2 19.5-31.7s17.2-18.4 25.9-27.5c6-6.2 12.2-12.2 18-18.6 14.2-15.8 27.9-32.2 42.5-47.7 17.1-18.1 34.9-35.5 52.5-53.2 8-8 15.7-16.3 23.9-24 12.9-12 26.1-23.7 39.5-35.1 14.2-12.1 29-23.4 43.1-35.5 9.5-8.2 18.2-17.4 27.4-26 3.4-3.2 7-6.2 10.7-9 18.4-13.1 36.8-26.3 55.5-39.1 20.5-14.1 41.2-28.1 62.2-41.6 12.6-8.1 25.3-16.3 38.9-22.3 13-5.7 27-10.3 41-12.4 32.9-4.9 66.1-7.8 99.1-12.1 20.1-2.6 40-6.6 60.1-9.4 24-3.3 47.5-10.8 72.1-10 9.6.3 10.5.3 10.8 9.7.9 26.9 2 53.9 2 80.8 0 33-2 65.9-1.5 98.9.6 38.1-4.4 75.7-7.2 113.5-1.3 16.9-.8 33.9-.9 50.9-.1 7.3.3 14.7.4 22 .1 3.9-.7 7.3-5.2 8.4s-9 2.5-13.5 3.2c-26.9 4-49.4 17.3-70.1 33.9-10.1 8.1-19.5 17.1-29.2 25.7-5 4.5-9.1 9.5-11.5 16-5.1 14.4-11.2 28.5-16 43-1.9 5.8-5.2 7.8-10.6 8.7-17.7 2.9-35.8 4.8-53 9.5-22.6 6.2-45.6 3-69.2 6.3-1.9-6.1-3.6-11.7-5.4-17.3-2-6.3-4.2-12.5-6.3-18.7-.7-1.9-2-3.6-2.4-5.5-3.4-15.1-13.6-26.7-19.7-40.3-5.9-13.2-13.5-25.1-21.3-37.1-10.3-16-25.9-23.1-43.4-25.5-18.8-2.6-37.7-4.1-56.6-4.2-15.3-.2-30.6 2-45.2 6.7-13.7 4.3-26.4 11.1-37.5 20.1-12.6 10.3-26.3 19.5-37.8 31-10.8 10.8-20.2 22.9-27.8 36.2-6.7 12-10.3 25.9-14.1 39.3-3.3 11.5-5.2 23.3-7.2 35.1-.9 5.5-3.7 8.4-9 9-4.9.5-10 .2-14.8 1.2-16.3 3.3-32.4 7.4-48.7 10.6-21.2 4.1-42.5 7.6-63.8 11.3-2 .2-4 .2-6-.1-9.9-1.2-11.2-2.9-10-12.8 2.7-21.8 4.7-43.7 8.2-65.4 2.2-15.6 6.6-30.3 10.1-45.2zm436 95c-2.1 9.7-5.2 19.2-7.6 28.9-8.2 33.5-28.5 57.6-57 76.3-14.6 9.6-30.2 16.8-46.2 23.2-8.5 3.4-18 4.7-27.2 5.6-14.7 1.4-29.4 2.2-44.1 2.2-6.8 0-13.7-2.7-20.5-3.6-14-1.8-25.6-8.5-37.2-15.9-9.6-6.2-17.6-13.9-25.3-22.2-8.5-9.1-11.4-20.9-15.3-32.1-6.6-19-5.6-38.8-4-58.4 3.5-40.4 19.5-75.8 45.7-106.4 11.9-13.9 25.3-26.5 40.8-36.5 13.2-8.7 28.1-14.3 43.8-16.4 6.1-3.1 13.1-4.4 19.9-3.6 4.8.5 9.6 1.4 14.4 1.9 17.6.1 35.2.8 51.7 8.2 5.6 2.5 10.4 7 15.2 10.9.5.6.8 1.3.8 2 11.3 11.1 20.5 24.7 28.1 38.4 4.7 8.4 8.1 17.5 12.1 26.3 3.2 7 6.4 14.1 8.3 21.5 8.6 15.9 7.3 32.8 3.6 49.7zm-475.9 87.5c-1.7 20.5-3.5 41.1-5.4 61.6-1.1 11.6-3.1 23.1-3.6 34.7-.6 13.9-.5 28 .2 41.9.3 5.8 2.6 11.6 4.3 17.3 1.1 3.8.3 7-1.7 10.4-15.7 27.4-31.2 55-46.9 82.4-6.1 10.7-12.6 21.2-18.9 31.7-10 16.8-20 33.8-30.2 50.5-4.9 7.9-10.6 15.3-15.5 23.2-20.2 32-40.4 64-63.1 94.5-17.4 23.5-33.2 48.2-49.2 72.7s-34.1 47.6-56.1 67.1c-19.7 17.6-40.5 33.8-66.5 41.2-9.5 2.7-18.8 6.5-29.2 5.8-6.7-.3-13.1-2.8-18.1-7.2-5.3-4.5-10.4-9.3-15.7-13.8-1.4-1.2-3.5-1.5-5.9-2.5.3-5-.9-10-3.6-14.2-5.7-9.9-9.3-20.9-16.5-30.1-1.2-1.5-1.3-4.4-.8-6.4 6.6-26.8 15.5-53 26.6-78.2 7.3-16.4 14.7-32.9 23.5-48.5 9-15.9 19.3-31 29.9-45.9 9.8-13.8 20.5-27.1 31.2-40.2 20.6-25.3 41.7-50.1 62.2-75.5 17.1-21.2 33.4-43.1 50.5-64.4 14.1-17.7 28.5-35 43.1-52.4 24-28.6 49.6-55.6 75.8-82.2 16.3-16.6 31.2-34.6 47.7-51 14.3-14.3 29.9-27.5 45-41 1.6-1.5 3.9-2.3 8.1-4.6-.5 9.2-.6 16.2-1.2 23.1zm-4.6-63c-9.8-7.5-19.7-14.8-28.9-23-17.4-15.5-34.2-31.6-51.4-47.4-7.1-6.5-14.2-13-21.5-19.4-15.9-14.1-32.3-27.7-47.7-42.4-11.5-11-21.4-23.7-32.9-34.8-14.5-14-25.2-30.9-37-46.8-17.5-23.7-34.7-47.8-45.8-75.6-8.2-20.7-18.4-40.6-26.9-61.2-10.8-26.1-17-53.9-18.4-82.1.8-24 2.2-45.7 8.3-66.5 8.2-28 24.1-50.9 48.9-67.2 9.8-6.4 17.9-.8 26.1 3.2 4.1 2 7.5 5.5 10.8 8.8 14.1 14.1 28.7 27.8 42 42.7 16.3 18.4 32 37.5 45.3 58.3 17.3 27.2 32.3 55.6 48 83.6 9.8 17.4 18.3 35.4 28 52.8s17.9 35.7 26.5 53.7c12.5 26 24.5 52.2 40.7 76.3 7 10.4 12.7 21.8 18.9 32.7 3.4 6.1 3.7 12.1 1.9 19.2-7 27.7-13.7 55.6-19.6 83.6-2.3 11-2.5 22.5-3.6 33.7-.5 4.6-.9 9.3-1.7 13.8-1.1 7.2-4.2 8.4-10 4zm326 311.3c-.7 12.2-4.4 24.2-5.7 36.4-2.7 24.1-4.9 48.3-6.9 72.5-1 12.5-4.7 15.1-15.4 8.2-15.3-9.9-29.8-21.1-45.1-31.1-13.2-8.7-26.5-17.5-40.6-24.6-19.9-10-37-23.5-52.7-38.8-8.2-7.9-16.4-15.4-26.9-20.1-1.5-.7-2.9-1.7-4-3-4.3-5.4-10.3-7.1-16.7-7.9-4.6-.6-7.9-1.8-9.9-6.8-1.4-3.5-4.6-6.6-7.6-9.1-18.6-16-37.4-31.7-56.1-47.6-6.6-5.6-13.2-11.2-19.9-16.6-6.5-5.2-9.3-12.2-9.4-20.2-.5-30 .1-59.8 5.8-89.5 2.7-14 3.3-28.4 4.5-42.6 1.2-13.6 2-27.2 3.2-40.8.8-8.8 1-8.8 10-10.2 19.7-3.2 39.4-5.9 59-9.6 13.1-2.4 25.8-6.7 38.8-9.1s26.3-3.8 39.5-5.4c4.3-.5 5.7 2.6 5.8 6.3.3 7.3 1.2 14.6.9 21.9-.6 13 3.3 25 7.3 36.9 1.1 3.4 3.5 6.4 5.6 9.3 7.4 9.8 14.4 20 25 26.9 2.2 1.5 4.3 3.2 6.2 5.1 15.3 15.1 35.1 19.3 55.3 22.3 11.8 1.7 23.7 3.4 35.5 5.3 4.5.8 8.9 2.4 13.5 3.7v18.5c0 20-.4 39.9-.1 59.9.2 12.6 1.9 25.2 2 37.8.5 20.7.4 41.4-.9 62zm1323 260.7c-16.6.2-33.2-1.3-49.8-1.3-26.9 0-53.7.2-80.5 2.4-19.5 1.6-39.1 1-58.7 1.8-17.9.8-35.8 2.2-53.6 3.2-27.2 1.5-54.5 2.5-81.7 4.4-21.7 1.5-43.2-.6-64.8-1.2-19.2-.6-38.5 0-57.8.1-26.2.2-52.5.3-78.8.8-12.3.2-24.6 1.1-36.8 1.4-6.3.2-12.6-.3-18.8 0-16.8.7-33.6 1.3-50.4 2.4-15.9 1-31.7 2.9-47.6 4-11.9.8-23.9.9-35.9 1.3-16.7.5-33.3.5-49.9 1.3-17.9.8-35.7 2.4-53.6 3.4-9.9.5-19.9.4-29.9.6-4.3.1-8.7-.2-12.9.3-20.4 2.4-40.9 2.7-61.5 3.2-8.3.2-16.6 1.7-24.9 1.7-29.7.3-59.2-1.2-87.5-11.4-19.4-7-38.9-13.6-57.8-21.7-21.3-9.1-42.1-19.3-63-29.5s-41.5-20.7-62.2-31.2c-4.7-2.4-9.3-5.2-13.8-7.9-11.9-7.2-23.6-14.6-35.7-21.6-13-7.5-26.1-14.6-39.3-21.6-6.9-3.7-9.7-8.9-10.2-16.8-2-31.3 5.2-61.6 8.3-92.4 3.1-30.4 7.3-60.8 4.9-91.6-2.8-36.9-2-73.8-1.3-110.7.2-12.7 1.3-13.5 13.6-17 17-4.8 33.5-11 48.5-20.6 11.2-7.2 23.3-13.1 34-21 20.5-15.2 38.5-32.6 49-56.8 7.1-16.5 11.5-34.1 13-52 1.2-11.9 2.2-12.4 13.9-13.4 23.2-2 46.4-4 69.6-6.7 13.4-1.6 26.7-4.6 42.3-7.4.4 6.3 1.7 11.6 1 16.6-3.7 25.3-2.9 50.4 3.9 75 4.6 16.4 12.1 31.9 22.2 45.6 6.1 8 14 14.4 23.2 18.6 20.2 9.5 40.2 19.4 60.6 28.1 12.4 5.3 25.9 7.1 39.2 5.3 17.5-2.4 34.9-5.3 52.2-8.3 4.3-.7 8.4-2.1 12.1-4.2 19.9-12 39.9-24 55.8-41.5 5.6-6.1 12.6-11.2 17.3-17.9 19-27.5 31.8-57.6 34.9-91.2.6-6.9.8-13.9 1.1-21 12-4.9 23.9-5.5 35.8-6.5 15.6-1.3 31.2-1.9 46.8-3.8 19.5-2.4 38.8-5.8 58.2-8.7 7.5-1.1 15.1-1.8 24-2.9 1 6.4 2.2 12.5 2.9 18.6 2.3 19.1 3.8 38.3 9.5 56.9 4.7 15.2 8.5 30.7 11.5 46.3 3.1 16.4 10.6 30.7 17.4 45.5 7.3 16 14.3 32.2 22.3 47.8 6.5 12.7 14.1 24.9 21.6 37.1 9 14.7 17.7 29.8 27.9 43.7 16.1 22 33 43.3 50.3 64.4 6.3 7.7 14.4 13.8 21.8 20.5 12.3 11.2 24.5 22.5 37.1 33.3 31.1 26.8 65.2 48.3 105.8 58 26.2 6.3 52.3 12.7 78.5 19 14.6 3.5 29 7.5 43.8 9.8 15.8 2.5 31.8 3.3 47.6 4.8 11.3 1 22.6 1.8 33.8 2.9 7.9.8 8.2 1 9 9 1.7 16.9 3.1 33.8 4.7 50.6 1.6 16.5 3.4 33.1 5 49.6 2.4 21.4 1.3 20.3-17.2 20.5zm829.2-238.6c-.3 19.9-1.9 39.8-2.9 59.8-.1 2.3-.2 4.7-.1 7 1 26.9-6.4 52-22.1 73.2-13.7 18.5-29.5 36.2-51 46.7-8.3 4.1-17.4 6.4-26.2 9.4-9.8 3.3-19.4 7.3-29.4 9.6-13.6 3.1-27.4 5.9-41.3 6.8-24.6 1.6-49.3.9-73.8 2.6-12.7.9-25.2.3-37.8.3-17.9 0-35.9 2-53.8 2.8-10.9.5-21.9.4-32.9.8-6.6.2-13.2.8-19.8 1.5-15.9 1.7-31.7 4-47.6 5.3-12.5 1.1-25.2 1-37.8 1.6-18.3.8-36.5 1.7-54.8 2.5-4.3.2-8.6.5-13 .6-23.3.3-46.6.1-69.9.8-17.2.5-34.4 2.2-51.6 3-9 .4-18 .3-27 .3-23-.1-45.9-.2-68.9-.4-2.8-.2-5.5-.6-8.2-1.1 1.3-12.6 1.3-12.6-3.8-18.6 0-6.3.3-11.9-.1-17.5-.3-3.7-1.5-7.5-6.5-7.2-4.6.3-8.1 5.3-7.1 10.2.6 2.5 1.9 4.9 3.1 7.3 1.1 2.1 2.4 4 3.6 6-1.5 3.6-3.5 7.1-4.4 10.8-.9 3.4-.6 7.2-.8 10.7-7.7 1.5-8.4 1.5-9.4-4.4-1.6-9.2-2.4-18.5-3.5-27.7-3-26.1-6.1-52.2-9.1-78.3-.3-2-.5-4-.6-5.9 0-7.7 2.1-10.2 9.8-10.9 26.3-2.6 52-7.3 77-16.1 15.4-5.4 31.5-8.7 46.8-14.1 18.5-6.5 36.9-13.4 54.6-21.7 12.2-5.7 22.8-14.8 34.7-21.3 21.2-11.6 36.1-30.2 52.6-46.9 3.3-3.3 6.9-6.2 10.2-9.5 17.7-17.7 34-36.7 47.2-57.9 7.9-12.6 13.6-26.6 19.9-40.2 4.6-10 8.6-20.2 12.7-30.4.9-2.1 1.5-4.4 1.8-6.7 1.7-19.6 6-38.7 11.8-57.6 2.8-8.9 4.6-18.1 5.2-27.4 1.5-22.9 5.6-45.6 3.7-68.8-1-11.8.8-23.8 1-35.8.2-11.6-.1-23.2-.2-34.8 0-1.7-.3-3.3-.3-5 0-12.7 1.7-14.3 14.2-14.7 5.6-.2 11.2-1 16.9-1.3 6-.4 11.9-.5 17.9-.9 8.9-.7 17.8-1.7 26.7-2.2 18.3-1.1 36.5-2 54.8-2.7 36.2-1.4 72.5-2.2 108.8-4.2 31.6-1.7 63-4.7 94.5-7.2 16.6-1.3 33.2-2.9 49.8-4.2 10.1-.8 11.8.3 12.9 10.3 1.8 16.5 2.8 33.1 4.4 49.6 2.2 23.1 4.7 46.2 7 69.3.9 9.3 1.9 18.6 2.4 27.8 1.3 24.6 4 49.2 3 73.7-1.2 29.7.5 59.2 1.9 88.7.7 14.9 2.5 29.8 3.1 44.7 1.1 20 2 40 1.7 59.9zm92.3-33.9c0 2.3-1.1 4.7-.8 6.9 1.8 15.3-5.4 26.6-15.3 37.3-6.7 7.3-11.9 16-17.8 23.9-3 4-5.8 8.3-9.5 11.6-8.8 7.9-14.7 18-21.6 27.3-1.9 2.6-4 5.2-7.4 9.5-.4-4.5-.8-6.9-.7-9.3.7-21.6 1.8-43.2 2.2-64.8.3-12.5-.7-25.1-.5-37.6.1-8.9 2.1-17.9 1.6-26.7-.9-15.9-3.1-31.7-4.7-47.6-.1-1.3-.4-2.7-.4-4-.2-28.2-4.2-56.3-.4-84.5 2-15.2-2.2-29.7-3.9-44.6-.6-5.2-1.8-10.6-1.3-15.8 2.2-25.3.6-50.5-1.8-75.7-2.1-22.5-1.9-45.3-5.4-67.6-3-19.4-4.3-39.5-13.8-57.8-5-9.6-7.6-20.5-10.2-31.1-5.6-22.9-10-46.1-15.8-68.9-4-15.8-8.2-31.7-14.8-46.5-8-18.1-11.2-37.5-18.3-55.7-5.9-15.1-12.9-29.8-19.2-44.8-1.6-3.8-2.8-7.8-4.7-13.1h11.2c8.4.2 17.4-7.1 19.5-15.7 2.6-10.7-.2-19-8.8-23.1-3.7-1.8-8.1-1.8-13.4-2.9 2.6-2.9 5.1-5.3 7.2-8 6.3-8.1 3.4-18.6-6.9-25.5-7.7-5.2-18.3-3.4-22.7 4.5-1.8 3.2-2.1 7.6-2 11.4.1 3.2 1.7 6.4 2.8 9.5 1.9 5.6 5.1 9.2 11.7 8.2 1.4-.2 3 .7 4.7 1.1l-8.8 23.6c-1.6-2.9-3.1-5.3-4.1-7.8-3.5-8.2-7.1-16.5-10.3-24.8s-6.1-16.8-8.9-25.3c-.3-.9-.4-1.9-.3-2.8-1.6-2.9-3.3-5.7-4.9-8.6-.7-.5-1.1-1.2-1.1-2-3.4-6.1-6.5-12.5-9.3-19-.2-.5-.3-1.1-.2-1.6l-3-5c-2-2-3.4-4.4-4.2-7-1-.7-1.5-2-1.2-3.2l-.3-.8c-2.3-5.9-6.3-10.7-10.4-15.4l-.4.4-55.6-53 1.3-2 48 15.6c6.3 2 12.6 4.2 19 5.8 8.5 2.2 13.2 7.1 14.3 15.8l.3.3c.4.1.7.3 1.1.4 6.9 3.2 9.2 8.3 10.2 14.2 3.2 5.5 6.1 11.1 8.5 17 .2.4.3.8.3 1.2.5.6 1 1.1 1.4 1.8 14.1 20.1 28.6 40 42 60.7 7.2 11.1 12.6 23.4 18.4 35.4 8.6 18 17.1 36 25.2 54.2 7.7 17.3 14.9 34.9 22.2 52.4 9.6 23 19.2 46 28.2 69.2 4.3 11.1 7.4 22.7 10.9 34.1 8.4 27.7 14.6 56 18.8 84.7 1.5 10.5 4.4 20.8 6 31.3 1.5 9.8 2 19.8 3.4 29.6 2.4 16.7 5.1 33.4 7.8 50.1 2 12.7 5.6 25.2 4.4 38.4-.8 8.5.9 17.2 1.3 25.9 1.5 30.9 3.1 61.8 4.5 92.7 1.1 25.9 1.6 51.8 2.8 77.7.6 14.2 2.3 28.4 3.2 42.7.9 7.9.8 15.6.7 23.2zm-173.4-702.4c1.5-1.5 4-2.1 6.1-3.1l1.7 2c-.4 1.8-.4 3.8-1.2 5.5-1.2 2.6-3.5 4.3-6.3 2.4s-2.3-4.8-.3-6.8zm-10.3-34.3c-3.9 0-3.9-6 0-6s3.9 6 0 6zm404.2 390.7c-10.3 28.9-22.5 56.9-40.2 82.2-1.5 2.2-2.8 4.5-3.9 6.9-5.5 11.4-11.8 22.3-20.3 31.8-2 2.3-3.5 4.9-4.6 7.7-6 14.6-14.4 27.7-22.6 41-11.2 18.1-21.9 36.4-32.8 54.7-4 6.8-7.9 13.8-11.8 20.6-.4.9-1 1.7-1.6 2.5-11.5 10.2-16.6 24.6-24.4 37.3-7.3 11.8-15.4 23.2-23.2 34.8-2.7 4-5.6 7.9-8.4 11.9l-2-.2c-.4-3.3-1.1-6.7-1.1-10 0-9.6.5-19.2.5-28.9 0-19.6 0-39.2-.2-58.8-.2-4.7-.5-9.3-1.2-13.9-2.5-22.4-5.5-44.8-7.5-67.2-1.6-18.2-2.5-36.5-2.7-54.7-.2-20.8-4.3-41-7.7-61.3-3.5-21-6.1-42.2-9.5-63.2-3.3-20.3-6.6-40.7-10.7-60.9s-8.3-40.5-14.1-60.2c-7.1-24.2-13.4-48.7-25.1-71.4-8.3-16.2-13.8-33.8-20.6-50.8-2.6-6.5-5.2-13-7.9-19.4-7.1-16.5-14.3-32.9-21.5-49.4-2-4.5-4.6-8.8-6.7-13.3-5.5-11.3-10.3-23.1-16.5-34-7.9-13.8-16.6-27.2-25.6-40.3-10.1-14.7-21.2-28.9-31.6-43.4-4.2-5.5-6.6-12-7-18.9 6.2 2.5 11.6 4 16.3 6.7 12 7 24.3 14 35.5 22.2 20.4 14.9 40.6 30.1 59.9 46.4 23.1 19.5 45.4 40 67.4 60.8 23.7 22.4 46.7 45.5 70 68.4 25.4 24.9 51.3 49.3 76.1 74.9 19.1 19.8 37.2 40.8 54.9 61.9 12.2 14.6 22 31.1 27.9 49.2 4.9 15.1 7.4 31 10.6 46.6 3.2 17.7-.2 35-6.1 51.7z"/><path fill="#FFC107" stroke="#FFC107" stroke-miterlimit="10" d="M2891.3 804.3c1.4-1.5 2.6-3.2 3.6-5 3.7-6.6 2.9-11.1-2.9-15.7-4.9-3.8-10.3-5.1-15.4-3.9-1.6.9-3.3 1.6-5 2.1-1.4.9-2.7 1.9-3.8 3-.3.3-.6.6-.8.9 2.4 5.6 5.1 11.1 8.1 16.4 4 .5 7.8 1.5 11.8 2.1 1.5.3 3 .3 4.4.1zm-9.8-8.3c-3.9 0-3.9-6 0-6s3.9 6 0 6zm-945.8 24c-2.5-1.5-5-2.8-7.7-4-2.9.9-5.7 2.3-8.2 4.2-.6 1.8-1.1 3.6-1.5 5.4-1.3 5.3.5 9.8 4.6 12.1 5.5 3.2 10.3 2.6 14.6-1.7 5.1-5.1 4.5-12-1.8-16zm548 66.7c-2.5-3-6.1-4.3-9.8-5.4-.9.3-1.8.7-2.8.9-6.5 2-9.3 6.1-8.4 12.6.9 6.3 5.2 10.5 11.9 9.1 3.9-.9 7.6-2.3 11.2-4.1.6-4.6 1.2-9-2.1-13.1z"/><path fill="none" stroke="#FFC107" stroke-miterlimit="10" d="M1146.2 1224.4c.4 6.3 1.7 11.6 1 16.6-3.7 25.3-2.9 50.4 3.9 75 4.6 16.4 12.1 31.9 22.2 45.6 6.1 8 14 14.4 23.2 18.6 20.2 9.5 40.2 19.4 60.6 28.1 12.4 5.3 25.9 7.1 39.2 5.3 17.5-2.4 34.9-5.3 52.2-8.3 4.3-.7 8.4-2.1 12.1-4.2 19.9-12 39.9-24 55.8-41.5 5.6-6.1 12.6-11.2 17.3-17.9 19-27.5 31.8-57.6 34.9-91.2.6-6.9.8-13.9 1.1-21 12-4.9 23.9-5.5 35.8-6.5 15.6-1.3 31.2-1.9 46.8-3.8 19.5-2.4 38.8-5.8 58.2-8.7 7.5-1.1 15.1-1.8 24-2.9 1 6.4 2.2 12.5 2.9 18.6 2.3 19.1 3.8 38.3 9.5 56.9 4.7 15.2 8.5 30.7 11.5 46.3 3.1 16.4 10.6 30.7 17.4 45.5 7.3 16 14.3 32.2 22.3 47.8 6.5 12.7 14.1 24.9 21.6 37.1 9 14.7 17.7 29.8 27.9 43.7 16.1 22 33 43.3 50.3 64.4 6.3 7.7 14.4 13.8 21.8 20.5 12.3 11.2 24.5 22.5 37.1 33.3 31.1 26.8 65.2 48.3 105.8 58 26.2 6.3 52.3 12.7 78.5 19 14.6 3.5 29 7.5 43.8 9.8 15.8 2.5 31.8 3.3 47.6 4.8 11.3 1 22.6 1.8 33.8 2.9 7.9.8 8.2 1 9 9 1.7 16.9 3.1 33.8 4.7 50.6 1.6 16.5 3.4 33.1 5 49.6 2.1 21 1 19.8-17.4 20.1-16.6.2-33.2-1.3-49.8-1.3-26.9 0-53.7.2-80.5 2.4-19.5 1.6-39.1 1-58.7 1.8-17.9.8-35.8 2.2-53.6 3.2-27.2 1.5-54.5 2.5-81.7 4.4-21.7 1.5-43.2-.6-64.8-1.2-19.2-.6-38.5 0-57.8.1-26.2.2-52.5.3-78.8.8-12.3.2-24.6 1.1-36.8 1.4-6.3.2-12.6-.3-18.8 0-16.8.7-33.6 1.3-50.4 2.4-15.9 1-31.7 2.9-47.6 4-11.9.8-23.9.9-35.9 1.3-16.7.5-33.3.5-49.9 1.3-17.9.8-35.7 2.4-53.6 3.4-9.9.5-19.9.4-29.9.6-4.3.1-8.7-.2-12.9.3-20.4 2.4-40.9 2.7-61.5 3.2-8.3.2-16.6 1.7-24.9 1.7-29.7.3-59.2-1.2-87.5-11.4-19.4-7-38.9-13.6-57.8-21.7-21.3-9.1-42.1-19.3-63-29.5s-41.5-20.7-62.2-31.2c-4.7-2.4-9.3-5.2-13.8-7.9-11.9-7.2-23.6-14.6-35.7-21.6-13-7.5-26.1-14.6-39.3-21.6-6.9-3.7-9.7-8.9-10.2-16.8-2-31.3 5.2-61.6 8.3-92.4 3.1-30.4 7.3-60.8 4.9-91.6-2.8-36.9-2-73.8-1.3-110.7.2-12.7 1.3-13.5 13.6-17 17-4.8 33.5-11 48.5-20.6 11.2-7.2 23.3-13.1 34-21 20.5-15.2 38.5-32.6 49-56.8 7.1-16.5 11.5-34.1 13-52 1.2-11.9 2.2-12.4 13.9-13.4 23.2-2 46.4-4 69.6-6.7 13.7-1.2 26.9-4.2 42.5-7zm438.7 46.5c6 .4 10.8-3.9 13.3-11.5 1.1-3.3.6-5.8-2-8.1-2.7-2.5-6-3.8-9.1-1.7-3.4 2.4-6.9 5.4-9.1 8.9-4.1 6.7-1 11.8 6.9 12.4zm-57.8 2.5c8.8-1.5 15.6-2.9 14.9-9.4-.6-5.8-3.9-10.1-8.6-10.2-7.7-.3-13.4 4.9-13.5 12.5 0 4.9 2.2 7.1 7.2 7.1zm-393.2-8.1c-1-1-2.4-3.3-4.4-4.3-4.3-2-13.3.6-16.4 4.2-3.8 4.4-2.2 12.5 2.9 14.2 5.7 1.8 17.3-6.4 17.9-14.1zm-57.2 18.1c5.6-.6 10.1-4.4 13.4-9.6.8-1.3-.2-4.5-1.3-6.2-2-3.2-5.9-4.7-9.6-3.6-5.1 1.4-9 4.2-10.5 9.6-1.9 6.1.8 9.9 8 9.8zm-40-1.6c7.9-.2 14.9-7.2 15.1-13.2.1-3.6-1.7-5.9-5.6-4.9s-7.4 3-11.2 4.1c-4.8 1.4-6.9 5.1-5.2 9 1.3 2.6 5.4 4 6.9 5zm587.2-31.7c-5.9-.2-10.6 4-10.6 9.4 0 4.3 3.8 7.6 8.7 7.6 4.6 0 8.6-4.8 8.6-10.3 0-4.7-1.9-6.6-6.7-6.7zm-128.8 7.6c-6.7.1-11.7 4.2-11.5 9.5.2 5 3.4 8.2 8 7.8 4-.3 10.4-6.8 10.6-10.6 0-3.4-3.5-6.7-7.1-6.7z"/><path fill="none" stroke="#FFC107" stroke-miterlimit="10" d="M1736.6 1167.9c.1-31 6.4-60.9 15.1-90.4 2.1-7.3 6-14 9.2-21 10-22.1 19.7-44.5 30.3-66.3 11.8-24.4 26.4-47 47.7-64.6 13.3-11 26.4-22.2 39.6-33.4s28.6-18.3 44-25.4c15.1-7 30.2-14.1 45.5-20.6 14.4-6.1 29.1-11.5 43.7-17.1 6.2-2.4 12.5-4.4 18.9-6.3 9.5-2.9 19-5.9 28.6-8.5 15.1-4.1 30.2-7.9 45.3-11.7 11.9-3 23.9-6.1 35.9-8.6 21.6-4.4 43.4-6.1 65.5-6.5 17.7-.4 35.2-.2 52.7 2.8 1 0 2 .1 3 .3 15.1 5 31.6 5.1 46 12.7 5.3 2.8 10.7 5.4 16 8.1 7.9 4.1 16.5 7.5 23.6 12.8 15.1 11.3 29.5 23.6 44.1 35.6 3.9 3.2 7.1 7 11.1 10 10.6 7.9 18.1 18.5 25.5 29.2 15.1 21.7 24.2 46.5 36.1 69.9 8.8 17.4 15.2 35.6 20.1 54.2 4.5 17 7.3 34.5 10.1 51.9 3.7 22.3 7.3 44.6 9.8 67.1 1.8 16.9 2.6 33.8 2.6 50.8.2 23.9.3 47.8-1.2 71.6-2 31.2-3.3 62.6-11.2 93.1-4.1 15.7-10.1 31-15.3 46.4-1.4 4.1-3 8.1-4.6 12.1-4.8 12.4-11 24.3-18.5 35.3-8.4 12.4-16 25.3-23.5 38.3-12.1 20.7-29.6 36.6-46.3 53.2-5.4 5.4-10.5 11.2-16.6 15.7-11.7 8.7-23.5 17.4-36.1 24.7-17.2 10-34.7 19.9-53.1 27.6-39.1 16.4-80.2 24.1-122.5 25.2-5 .3-10 .8-14.9 1.6-16 2.1-31.9.3-47.7-2.1-21.7-3.3-43-8.7-63.6-16.2-21.4-7.9-40.8-19.3-60.1-31.2-33-20.2-62.6-45-91.4-70.5-10.2-9-18.9-19.7-27.8-30-12-13.8-23.8-27.8-35.2-42.1-13-16.5-25.4-33.4-31.5-54-1.2-4.1-4-7.7-5.8-11.6-3.3-7.3-7.1-14.4-9.5-22-5.2-16.1-10.7-32.3-14.4-48.8-4.6-20.4-7.9-41.2-11.1-61.8-2.4-15.8-4-31.7-5.6-47.6-1.4-10.6-1.8-21.3-2.5-31.9z"/><path fill="none" stroke="#FFC107" stroke-miterlimit="10" d="M2931.1 1155.9c2.8-1.8 6.1-3.2 8.1-5.6 3.6-4.2 2.3-7.8-3-9.9-7.6-3.1-10.6-2.6-14.1 2.1-4.9 6.6-4.8 9.9.3 16.7.6 1.1 1.1 2.3 1.5 3.5l-39.5 5.5c2.6-3.5 3.3-5.5 4.7-6.3 4.1-2.4 4.9-5.7 3.9-10.2-1.5-6.5-3.4-9.2-8.2-9.8-5.1-.6-10.6 2.8-12.5 8.1-.9 2.5-1.4 5.1-1.6 7.8-.2 2.6.3 5.2.6 9-21.8 4.8-43.6 5.9-67 4.4 2-3.7 3.4-5.9 4.4-8.2 1.9-4.2 2.3-8.8-1.6-11.9-2-1.6-5.5-2.7-8-2.1-4.8 1.1-6.7 5.4-6.8 10-.1 2.9 1.1 5.8 1.6 8.7.8 4.8-.7 6.6-5.7 7-31.8 2.4-63.6 4.8-95.4 7.1-24.9 1.8-49.8 3.5-74.7 5.2-6.1.4-12.2.1-19.5.1 2.1-4 3.8-6.7 5.2-9.7 2.7-5.7 1.1-11.4-4-14.8-4.5-3-9.3-2.6-12.8.9-4.1 4.1-5.1 11.1-1.7 15.6 2.1 2.7 5.3 4.6 9.1 7.9-3.4.9-6 2-8.7 2.2-5.6.4-7.1-.9-7.4-6.8-.5-8-.5-16-1-24-1.5-21.6-3.1-43.1-4.8-64.7-1.3-15.6-2.1-31.2-4.5-46.7-2.8-18-6.6-35.9-11.2-53.6-4.7-17.6-11-34.8-16.8-52.1-1.7-5-3.9-9.9-6.4-14.6-7.1-13.2-13.8-26.6-21.9-39.2-9.2-14.2-19.6-27.6-29.7-41.2-5.3-7.2-11.2-13.9-16.6-21.1-15.4-20.3-37.7-32.2-57.1-47.7-15-12.1-32.4-21.1-51-26.4-10.9-3.1-21.3-7.7-32-11.3-19.6-6.7-39.9-10.9-60.7-10-33.6 1.4-67.1 3.6-100.7 5.5-14 .8-28 1.3-41.8 2.9-14.5 1.6-28.9 5.1-43.4 6.5-24.5 2.5-47.1 11.6-70.5 17.8-27.4 7.3-54.8 14.4-80.5 26.6-19.2 9.1-38.8 17.9-56.7 29.1-17.4 10.8-33 24.6-49.4 37.1-7.4 5.6-15.1 10.9-22.2 16.9-17.2 14.7-34.6 29.2-50.9 44.9-10 9.6-17.4 21.9-27.3 31.7-6.9 6.9-13.1 14.2-17.6 22.7-5.6 10.6-10.8 21.4-15.8 32.2-8.2 17.8-16.9 35.5-24.1 53.8-6.9 17.6-14 35.2-16.4 54.3-1 7.8-4.7 15.3-6 23.2-1.8 11.1-2.4 22.4-3.5 33.7-.3 3.3-.7 6.6-.9 9.9-.3 5.9-3.6 8.9-9.3 9.9-6.6 1.2-13.1 2.6-19.6 3.8-18.3 3.4-36.5 7.5-54.9 10.1-28 3.9-56.1 6.8-85.2 10.3-2.7-9-5.7-16.7-7.4-24.7-3.4-15.8-7.8-30.9-18.7-43.5-2.5-3.1-4.6-6.6-6.1-10.3-6.4-14.5-18-23.4-31.8-30.2-17.2-8.4-34.7-14.9-54-16.7-11.5-1.1-22.8-4.6-34.6-7.1-.4-1.4-1.2-3-1.3-4.5-.6-17.3-2-34.6-1.5-51.9.6-20.3 2.8-40.5 4.3-60.8 2.2-29.9 4.7-59.7 6.3-89.6 1-18.3.6-36.6.5-54.9-.2-27.3-.6-54.6-1.3-81.9-.2-10.6-1.6-21.2-1.8-31.9-.2-9.6 1.9-12 11.3-12.8 20.6-1.8 41.2-3.2 61.7-4.4 24.2-1.4 48.5-2.9 72.7-3.7 21-.7 41.9-.2 62.9-.5 20.7-.3 41.3-.8 61.9-1.3 21-.5 42-2.6 62.8-1.4 15.4.9 30.6 0 45.8-1.1 15.6-1.1 31-4.3 46.6-5.5 20.2-1.5 40.5-1.9 60.8-2.9 5.7-.3 11.3-.9 16.9-1.3 22.2-1.3 44.4-2.8 66.7-4 24.2-1.3 48.5-2.6 72.8-3.4 26.9-.8 53.9-.8 80.8-1.6 19.3-.6 38.5-2.1 57.8-2.9 12-.5 23.9-.4 35.9-.7 21.6-.5 43.2-1.1 64.8-1.6 7.6-.2 15.3 0 23 .2 14.3.2 28.5.4 42.8.8 11.6.3 23.1 1.3 34.6 1.6 11 .3 21.9.2 32.9.4 7 .1 13.9.3 20.9.6 13.3.5 26.9-.5 39.8 1.9 12.6 2.3 24.3-.8 36.4-1.2 12.9-.4 25.9.3 38.9.6 3.3.1 6.7.9 9.9.5 23.3-3.1 46.5-1.2 69.8.3 7.6.5 15.3-.7 22.9-.3 10.9.5 21.8 2.2 32.7 2.7 27.6 1.2 55.1 3.8 82.5 8 14.4 2.2 28.8 4.8 42.3 11.2 16.5 7.8 30.1 19.5 43.1 31.7 15.1 14.1 26.9 31.1 39.6 47.4 12.1 15.7 21 33 30.4 50 8.6 15.4 17.8 30.4 25.5 46.2 7.3 14.9 13.1 30.5 19.5 45.9 6 14.5 12.2 28.8 17.5 43.5 7.1 19.7 13.6 39.7 19.8 59.7 7.6 24.5 14.6 49.1 21.6 73.7 1.6 5.7 2.3 11.8 3.6 17.6 3.8 17.2 7.7 34.4 11.6 51.5 2.2 9.6 1.2 10.9-8.9 11.4-5 .2-10 .4-15 .4-3.2.5-6.7.4-9.3-6zm-297.2 27.4c5-4.3 8.8-7.2 12.2-10.6 2.6-2.6 2.6-5.9.4-9-2.8-3.8-9.8-5.4-14.4-3.2s-7.2 8.8-5 13.5c1.4 2.9 3.7 5.2 6.8 9.3zm75.2-20.2c-.1 5.9 3.3 10.5 7.9 10.7 5.2.1 12.5-7 12.4-12.2-.1-4.3-6-9.2-11.3-9.3-5.1-.1-8.9 4.4-9 10.8zm-34.9 12.6c6.5-.1 11.7-5.5 11.6-12v-.3c-.1-4.3-3.8-7.6-8.6-7.6-6-.2-11 4.4-11.2 10.4v.8c.1 5.9 2.7 8.7 8.2 8.7zM1331.4 935.1c0 5 3.7 10 7.5 10.2 5 .2 11-7.1 10.8-13.3-.2-4.9-3.1-7.8-8.1-7.9-5.5-.1-10.2 4.9-10.2 11zm1513 211.2c-4.4.3-7 3.1-9 6.8s-3.9 7.5-1.1 11.1c1.4 1.8 4.8 3.5 6.5 3 3.5-1 6.6-3 8.9-5.8 4.3-5.2.6-14.8-5.3-15.1zM1358.9 723.5c-.9-2.3-2-4.6-3.2-6.8-4.8-7.6-12.6-7.5-17.3.2-3.8 6.1-1.5 11.2 5.6 12.4 5.6 1 10.2-1.2 14.9-5.8zm-1.6 167.9c-1.2-1.6-2.6-4.9-5.1-6.4-1.5-.9-5 .6-7.1 1.9-4.3 2.7-6.9 7.4-6.8 12.5-.1 3.3 1.4 5.8 4.9 6.3 5.4.8 14.5-7.6 14.1-14.3zm1410.9 266c0-5.5-3.2-9-8.3-9-4.7 0-9.4 5.3-9.7 10.8-.2 4.5 4.8 10.3 8.9 10.4 4.8.2 9.1-5.7 9.1-12.2zM1351 1000c.3-6-5.1-10.2-10.5-8.3s-10 10.4-8.3 15.5c.7 1.8 2.1 3.2 3.9 3.8 6.5 2 14.6-4.2 14.9-11zm-17-29.7c.7 1.2 1.7 4.3 3.8 5.8 3.3 2.5 9-.9 12.8-6.7 2.6-3.9 2.9-7.5-.9-10.5-1.5-1.2-3.4-1.9-5.3-1.9-5.1.2-10.3 6.5-10.4 13.3zm11 54.8c-6.5-.7-10.4 3.2-13.3 7.4-1.6 2.3-2.4 6.4-1.4 8.9.7 1.9 5 3.8 7.3 3.4 2.7-.4 6.3-2.6 7.4-5 2.1-4.2 3.6-9.2 0-14.7zm0 48v-7.8c.2-.7.2-1.3.2-2-.7-2.3-1-5.8-2.6-6.6-1.8-.9-5.2-.1-7.3 1.1-2.4 1.3-4.2 3.3-5.3 5.7-.9 2.5-1 6.2.3 8.3s4.7 3.3 7.4 3.7c2 .3 4.3-1.3 7.3-2.4zm10.2-259c-3.4 2.5-6.6 4.2-8.7 6.8-3 3.6-2.7 9.2.2 11.8 3.8 3.5 7.3.9 10.6-1.3 1.3-.9 2.6-2 3.8-3.2 2.5-2.3 5-5.2 2.4-8.5-1.9-2.2-5.1-3.4-8.3-5.6zm3.5-57.8c.2-6.5-5.8-11.4-10.1-9.5-4.4 2-7.8 5.3-8 10.4-.1 1.8.8 5 1.7 5.1 3 .5 6.6.8 9.3-.3 2.9-1.2 5.3-4.1 7.1-5.7zm1 32.4c-.2-6.5-4.7-9.1-10-5.3-2.9 2.1-5.3 5-6.8 8.2-1.7 3.7 1.2 7.5 5.1 7.9 6.1.6 11.9-4.7 11.7-10.8zm-17.2 75.8c6 0 12.7-5.7 12.8-9.5s-2.5-6.7-5.7-6.7c-4.8.1-12 6.6-11.2 10.6.6 2.5 3.1 4.4 4.1 5.6zm884.8 975.7c1.3-12.6 1.3-12.6-3.8-18.6 0-6.3.3-11.9-.1-17.5-.3-3.7-1.5-7.5-6.5-7.2-4.6.3-8.1 5.3-7.1 10.2.6 2.5 1.9 4.9 3.1 7.3 1.1 2.1 2.4 4 3.6 6-1.5 3.6-3.5 7.1-4.4 10.8-.9 3.4-.6 7.2-.8 10.7-7.7 1.5-8.4 1.5-9.4-4.4-1.6-9.2-2.4-18.5-3.5-27.7-3-26.1-6.1-52.2-9.1-78.3-.3-2-.5-4-.6-5.9 0-7.7 2.1-10.2 9.8-10.9 26.3-2.6 52-7.3 77-16.1 15.4-5.4 31.5-8.7 46.8-14.1 18.5-6.5 36.9-13.4 54.6-21.7 12.2-5.7 22.8-14.8 34.7-21.3 21.2-11.6 36.1-30.2 52.6-46.9 3.3-3.3 6.9-6.2 10.2-9.5 17.7-17.7 34-36.7 47.2-57.9 7.9-12.6 13.6-26.6 19.9-40.2 4.6-10 8.6-20.2 12.7-30.4.9-2.1 1.5-4.4 1.8-6.7 1.7-19.6 6-38.7 11.8-57.6 2.8-8.9 4.6-18.1 5.2-27.4 1.5-22.9 5.6-45.6 3.7-68.8-1-11.8.8-23.8 1-35.8.2-11.6-.1-23.2-.2-34.8 0-1.7-.3-3.3-.3-5 0-12.7 1.7-14.3 14.2-14.7 5.6-.2 11.2-1 16.9-1.3 6-.4 11.9-.5 17.9-.9 8.9-.7 17.8-1.7 26.7-2.2 18.3-1.1 36.5-2 54.8-2.7 36.2-1.4 72.5-2.2 108.8-4.2 31.6-1.7 63-4.7 94.5-7.2 16.6-1.3 33.2-2.9 49.8-4.2 10.1-.8 11.8.3 12.9 10.3 1.8 16.5 2.8 33.1 4.4 49.6 2.2 23.1 4.7 46.2 7 69.3.9 9.3 1.9 18.6 2.4 27.8 1.3 24.6 4 49.2 3 73.7-1.2 29.7.5 59.2 1.9 88.7.7 14.9 2.5 29.8 3.1 44.7.9 19.9 1.7 39.8 1.5 59.8s-1.9 39.8-2.9 59.8c-.1 2.3-.2 4.7-.1 7 1 26.9-6.4 52-22.1 73.2-13.7 18.5-29.5 36.2-51 46.7-8.3 4.1-17.4 6.4-26.2 9.4-9.8 3.3-19.4 7.3-29.4 9.6-13.6 3.1-27.4 5.9-41.3 6.8-24.6 1.6-49.3.9-73.8 2.6-12.7.9-25.2.3-37.8.3-17.9 0-35.9 2-53.8 2.8-10.9.5-21.9.4-32.9.8-6.6.2-13.2.8-19.8 1.5-15.9 1.7-31.7 4-47.6 5.3-12.5 1.1-25.2 1-37.8 1.6-18.3.8-36.5 1.7-54.8 2.5-4.3.2-8.6.5-13 .6-23.3.3-46.6.1-69.9.8-17.2.5-34.4 2.2-51.6 3-9 .4-18 .3-27 .3-23-.1-45.9-.2-68.9-.4-2.6-.2-5.3-.5-8-1zm.7-110.8c-1.6-1.5-3.6-4.7-6.5-6.1-3.5-1.7-9.5 2.4-12 7-1.9 3.5-2.1 6.9.8 10.1.2.2.5.4.8.6 5 2.9 16.8-3.9 16.9-11.6zm-11.7 52.7c3.3-4 6.3-7 8.6-10.5 3.1-4.9 1.1-11.5-3.8-12-3.5-.1-7 1-9.7 3.2-3 2.4-3.7 6.7-1.6 9.9 1.8 3 4 5.8 6.5 9.4zm-1194.6-556.5c-1.9-6.1-3.6-11.7-5.4-17.3-2-6.3-4.2-12.5-6.3-18.7-.7-1.9-2-3.6-2.4-5.5-3.4-15.1-13.6-26.7-19.7-40.3-5.9-13.2-13.5-25.1-21.3-37.1-10.3-16-25.9-23.1-43.4-25.5-18.8-2.6-37.7-4.1-56.6-4.2-15.3-.2-30.6 2-45.2 6.7-13.7 4.3-26.4 11.1-37.5 20.1-12.6 10.3-26.3 19.5-37.8 31-10.8 10.8-20.2 22.9-27.8 36.2-6.7 12-10.3 25.9-14.1 39.3-3.3 11.5-5.2 23.3-7.2 35.1-.9 5.5-3.7 8.4-9 9-4.9.5-10 .2-14.8 1.2-16.3 3.3-32.4 7.4-48.7 10.6-21.2 4.1-42.5 7.6-63.8 11.3-2 .2-4 .2-6-.1-9.9-1.2-11.2-2.9-10-12.8 2.7-21.8 4.7-43.7 8.2-65.4 2.4-15.1 6.8-29.8 10.3-44.8.2-1.3.7-2.6 1.5-3.7 8.1-9.6 11.4-22.2 19.5-31.7s17.2-18.4 25.9-27.5c6-6.2 12.2-12.2 18-18.6 14.2-15.8 27.9-32.2 42.5-47.7 17.1-18.1 34.9-35.5 52.5-53.2 8-8 15.7-16.3 23.9-24 12.9-12 26.1-23.7 39.5-35.1 14.2-12.1 29-23.4 43.1-35.5 9.5-8.2 18.2-17.4 27.4-26 3.4-3.2 7-6.2 10.7-9 18.4-13.1 36.8-26.3 55.5-39.1 20.5-14.1 41.2-28.1 62.2-41.6 12.6-8.1 25.3-16.3 38.9-22.3 13-5.7 27-10.3 41-12.4 32.9-4.9 66.1-7.8 99.1-12.1 20.1-2.6 40-6.6 60.1-9.4 24-3.3 47.5-10.8 72.1-10 9.6.3 10.5.3 10.8 9.7.9 26.9 2 53.9 2 80.8 0 33-2 65.9-1.5 98.9.6 38.1-4.4 75.7-7.2 113.5-1.3 16.9-.8 33.9-.9 50.9-.1 7.3.3 14.7.4 22 .1 3.9-.7 7.3-5.2 8.4s-9 2.5-13.5 3.2c-26.9 4-49.4 17.3-70.1 33.9-10.1 8.1-19.5 17.1-29.2 25.7-5 4.5-9.1 9.5-11.5 16-5.1 14.4-11.2 28.5-16 43-1.9 5.8-5.2 7.8-10.6 8.7-17.7 2.9-35.8 4.8-53 9.5-22.8 5.8-45.7 2.6-69.4 5.9zm-436.9 29.3c-2.6-5.4-6.6-8.7-12.4-8.4-5.5.3-10.2 2.7-12.8 8-3.1 6.3-.2 11.5 6.8 11.5 8.1 0 14.3-3.6 18.4-11.1zm31.1-15c-6.5 0-12.5 4.8-12.8 10.2-.3 5.6 4.7 9.5 11.6 9.4 5.6-.1 12.9-6.1 12.7-10.5s-6.2-9-11.5-9.1zm45.5 13.3c3.8-1.7 6.6-2.7 9.1-4.2 5.3-3.2 6-6.2 3.1-11.5-3.6-6.6-11-7.1-17.5-1.3-3.2 2.8-5.3 6.9-3.2 10.4 1.6 3.1 5.7 4.6 8.5 6.6zm1057-807.2c8.8-2.7 18.1-6.7 27.8-8.2 21-3.4 42.2-5.4 63.3-8 9.9-1.2 19.8-2.8 29.7-3.6 12.5-1 25.1-1.3 37.7-2 16.9-1 33.8-2.6 50.7-3.1 11.6-.3 23.3.9 34.9 1.1 16.9.2 33.9.2 50.8.2l25.9.1c2 0 4.1-.4 6 .1 8.3 2 16.4.9 24.7.3 13.9-1 27.9-.4 41.8-.9 16.6-.6 33.2-1.9 49.9-2.3s33.2-.1 49.7-.3c3.6 0 7.3-1 10.9-1.1 23.6-.3 47 .2 70.4 5.8 17.6 4.3 34 11.3 50.8 17.6 6.5 2.5 13.4 4 20.2 5.6 12.5 2.9 19.7 10 23.7 22.7 11.3 36.1 13.6 73.2 14.5 110.5.4 17.6-1.2 35.2-2 52.9-.3 7.4-.7 8.2-7.9 8.8-11.6.9-23.2 1.3-34.8 1.5-23 .4-45.9.6-68.9.6-8.3-.1-16.6-.7-24.9-1.8-12.9-1.6-25.7-2.4-38.8-.6-10.7 1.4-12.3-.6-14.9-11.3-3.6-14.8-7.2-29.7-11.3-44.5-1.5-5.4-4.5-10.3-7-15.4-3.6-7.5-6.9-15.2-11.1-22.4-6.4-11-16.8-17.9-27.5-24.1-10.9-6.3-22.5-11.5-33.5-17.6-6.4-3.5-12.3-7.9-18.6-11.5-3.7-2.2-7.5-4.5-11.6-5.6-32.1-8.4-63.8-19.6-97.9-17.1-13.2 1-26.6.3-39.8 1.6-14.8 1.5-29.6 4.1-44.3 7-15 3-29.9 6.4-44.6 10.5-12.5 3.5-24.7 7.7-36.8 12.3-24.2 9.2-48.2 19.1-72.4 28.3-10.8 4.2-18.9 12.2-28 18.7-15.9 11.5-27.6 27.1-39.3 42.2-15.1 19.2-25.3 41.8-29.8 65.8-1.5 8.1-2.6 9.2-11.3 9.4-16.6.4-33.2.5-49.9.6-36.6.4-73.2.6-109.8 1.1-7.7.1-9.7-1.2-9.5-9 .8-32.3 1.6-64.5 3-96.8.5-12.2 3-24.4 4.1-36.6 1-11.9 9.3-18.8 18-23.7 12.7-7.1 26.5-12.2 40-17.8 8.6-3.5 17.5-6.2 26.3-9.1 3.8-1.2 7.7-2.1 11.6-3 8.7-2.1 17.4-4.3 26.1-6.2 19.1-4.4 38.2-8.7 57.4-12.9 14.3-3.1 28.6-6 42.9-8.6 3.9-.8 8.5-.2 13.4-.2zm1395.2 1112.3c-.4-3.3-1.1-6.7-1.1-10 0-9.6.5-19.2.5-28.9 0-19.6 0-39.2-.2-58.8-.2-4.7-.5-9.3-1.2-13.9-2.5-22.4-5.5-44.8-7.5-67.2-1.6-18.2-2.5-36.5-2.7-54.7-.2-20.8-4.3-41-7.7-61.3-3.5-21-6.1-42.2-9.5-63.2-3.3-20.3-6.6-40.7-10.7-60.9s-8.3-40.5-14.1-60.2c-7.1-24.2-13.4-48.7-25.1-71.4-8.3-16.2-13.8-33.8-20.6-50.8-2.6-6.5-5.2-13-7.9-19.4-7.1-16.5-14.3-32.9-21.5-49.4-2-4.5-4.6-8.8-6.7-13.3-5.5-11.3-10.3-23.1-16.5-34-7.9-13.8-16.6-27.2-25.6-40.3-10.1-14.7-21.2-28.9-31.6-43.4-4.2-5.5-6.6-12-7-18.9 6.2 2.5 11.6 4 16.3 6.7 12 7 24.3 14 35.5 22.2 20.4 14.9 40.6 30.1 59.9 46.4 23.1 19.5 45.4 40 67.4 60.8 23.7 22.4 46.7 45.5 70 68.4 25.4 24.9 51.3 49.3 76.1 74.9 19.1 19.8 37.2 40.8 54.9 61.9 12.2 14.6 22 31.1 27.9 49.2 4.9 15.1 7.4 31 10.6 46.6 3.7 17.8.4 35.2-5.6 51.8-10.3 28.9-22.5 56.9-40.2 82.2-1.5 2.2-2.8 4.5-3.9 6.9-5.5 11.4-11.8 22.3-20.3 31.8-2 2.3-3.5 4.9-4.6 7.7-6 14.6-14.4 27.7-22.6 41-11.2 18.1-21.9 36.4-32.8 54.7-4 6.8-7.9 13.8-11.8 20.6-.4.9-1 1.7-1.6 2.5-11.5 10.2-16.6 24.6-24.4 37.3-7.3 11.8-15.4 23.2-23.2 34.8-2.7 4-5.6 7.9-8.4 11.9l-2.5-.3zM524.4 1313.8c-.4 9.1-.5 16-1.1 22.9-1.7 20.5-3.5 41.1-5.4 61.6-1.1 11.6-3.1 23.1-3.6 34.7-.6 13.9-.5 28 .2 41.9.3 5.8 2.6 11.6 4.3 17.3 1.1 3.8.3 7-1.7 10.4-15.7 27.4-31.2 55-46.9 82.4-6.1 10.7-12.6 21.2-18.9 31.7-10 16.8-20 33.8-30.2 50.5-4.9 7.9-10.6 15.3-15.5 23.2-20.2 32-40.4 64-63.1 94.5-17.4 23.5-33.2 48.2-49.2 72.7s-34.1 47.6-56.1 67.1c-19.7 17.6-40.5 33.8-66.5 41.2-9.5 2.7-18.8 6.5-29.2 5.8-6.7-.3-13.1-2.8-18.1-7.2-5.3-4.5-10.4-9.3-15.7-13.8-1.4-1.2-3.5-1.5-5.9-2.5.3-5-.9-10-3.6-14.2-5.7-9.9-9.3-20.9-16.5-30.1-1.2-1.5-1.3-4.4-.8-6.4 6.6-26.8 15.5-53 26.6-78.2 7.3-16.4 14.7-32.9 23.5-48.5 9-15.9 19.3-31 29.9-45.9 9.8-13.8 20.5-27.1 31.2-40.2 20.6-25.3 41.8-50.1 62.2-75.5 17.1-21.2 33.4-43.1 50.5-64.4 14.1-17.7 28.5-35 43.1-52.4 24-28.6 49.6-55.6 75.8-82.2 16.3-16.6 31.2-34.6 47.7-51 14.3-14.3 29.9-27.5 45-41 1.5-1.3 3.8-2.1 8-4.4zm-316-472.7c.8-24 2.2-45.7 8.3-66.5 8.2-28 24.1-50.9 48.9-67.2 9.8-6.4 17.9-.8 26.1 3.2 4.1 2 7.5 5.5 10.8 8.8 14.1 14.1 28.7 27.8 42 42.7 16.3 18.4 32 37.5 45.3 58.3 17.3 27.1 32.3 55.5 48 83.6 9.8 17.4 18.3 35.4 28 52.8s17.9 35.7 26.5 53.7c12.5 26 24.5 52.2 40.7 76.3 7 10.4 12.7 21.8 18.9 32.7 3.4 6.1 3.7 12.1 1.9 19.2-7 27.7-13.7 55.6-19.6 83.6-2.3 11-2.5 22.5-3.6 33.7-.5 4.6-.9 9.3-1.7 13.8-1.3 7.2-4.3 8.4-10.1 4-9.8-7.5-19.7-14.8-28.9-23-17.4-15.5-34.2-31.6-51.4-47.4-7.1-6.5-14.2-13-21.5-19.4-15.9-14.1-32.3-27.7-47.7-42.4-11.5-11-21.4-23.7-32.9-34.8-14.5-14-25.2-30.9-37-46.8-17.5-23.7-34.7-47.8-45.8-75.6-8.2-20.7-18.4-40.6-26.9-61.2-10.7-26.1-16.9-53.9-18.3-82.1zM844 1406.8v18.5c0 20-.4 39.9-.1 59.9.2 12.6 1.9 25.2 2 37.8.1 20.6.1 41.3-1.1 61.9-.7 12.2-4.4 24.2-5.7 36.4-2.7 24.1-4.9 48.3-6.9 72.5-1 12.5-4.7 15.1-15.4 8.2-15.3-9.9-29.8-21.1-45.1-31.1-13.2-8.7-26.5-17.5-40.6-24.6-19.9-10-37-23.5-52.7-38.8-8.2-7.9-16.4-15.4-26.9-20.1-1.5-.7-2.9-1.7-4-3-4.3-5.4-10.3-7.1-16.7-7.9-4.6-.6-7.9-1.8-9.9-6.8-1.4-3.5-4.6-6.6-7.6-9.1-18.6-16-37.4-31.7-56.1-47.6-6.6-5.6-13.2-11.2-19.9-16.6-6.5-5.2-9.3-12.2-9.4-20.2-.5-30 .1-59.8 5.8-89.5 2.7-14 3.3-28.4 4.5-42.6 1.2-13.6 2-27.2 3.2-40.8.8-8.8 1-8.8 10-10.2 19.7-3.2 39.4-5.9 59-9.6 13.1-2.4 25.8-6.7 38.8-9.1s26.3-3.8 39.5-5.4c4.3-.5 5.7 2.6 5.8 6.3.3 7.3 1.2 14.6.9 21.9-.6 13 3.3 25 7.3 36.9 1.1 3.4 3.5 6.4 5.6 9.3 7.4 9.8 14.4 20 25 26.9 2.2 1.5 4.3 3.2 6.2 5.1 15.3 15.1 35.1 19.3 55.3 22.3 11.8 1.7 23.7 3.4 35.5 5.3 4.7.9 9 2.5 13.7 3.8zm-32 174.5c7.9-.3 12.4-3.6 16.2-8 .9-1.1 1.6-3.7 1-4.6-2.7-3.6-5.3-7.9-9-9.7-5.4-2.6-9.2 1.8-12.4 5.8-2.8 3.5-5 7.6-2 11.7 1.7 2.5 4.8 3.8 6.2 4.8zm-1.8 50.7c4.6-.3 8.8-1.7 10.5-7 1.4-4.2-.1-11.1-3.3-13.7-4.5-3.7-7.9 0-11.6 1.9-.6.3-1.2.6-1.7 1-3.7 2.6-6.8 5.6-5.1 10.6 1.5 4.2 6.3 7.2 11.2 7.2zm22.3-113.8c-.1-7.1-6.1-12.1-11.6-9-3.9 2.3-7.1 5.7-9.1 9.8-2.6 5.2 2.1 12.2 7.4 12.4 6.7.2 13.3-6.4 13.3-13.2zm-28.1-37.7c6.6 3.7 12.3.6 17.8-2.1 5.2-2.6 6.7-6.5 4.8-10.2-2.6-5.1-7-6.6-12.4-4.1-7 3.1-10.5 8.4-10.2 16.4zM807 1684c6.6-.2 10.2-3.6 10.2-9.5 0-6.2-3.4-10-8.7-9.7s-10.5 6-10.6 11.4 3.1 8 9.1 7.8zm13.5-255.7c-.7-1.5-1.6-6.8-4.2-7.8s-7.1 1.8-10.4 3.5c-2 1.2-3.5 3-4.3 5.2-.7 2.1-.6 4.4.2 6.5 1.8 3.7 8.1 5 13.4 3.4 4.4-1.3 5.3-4.5 5.3-10.8z"/><path fill="none" stroke="#FFC107" stroke-miterlimit="10" d="M2554.8 1247.7c-1.5 1.3-2.9 2.7-4.3 4.1-5.4 5.4-13.1 3.5-15.1-3.9-2.8-10.1 2.9-18.7 13.4-20.5 2.8-.5 5.6-.9 9.8-1.5-3.2-10.4-2.8-20.7-7.4-32.6-5.8 10.9-13.4 9.7-22.2 7.5-.8 4-1.9 7.4-2.1 10.9-.6 10.2-.7 20.5-1.2 30.8-.9 17.2-2.2 34.5-2.9 51.7-1.3 32.2-7 63.4-19.2 93.3-5.4 13.2-11.7 26.2-15.9 39.9-3.4 11.2-9.1 20.5-15.8 29.7-1.6 2.1-2.7 4.6-4 6.9-5.9 10-11.4 20.3-17.7 30.1-12.4 18.9-26.9 36.5-43.1 52.3-11.1 11-21.8 22.6-34.1 32.1-13.9 10.7-29.2 19.5-44.2 28.8-21.2 13.2-43.4 24.6-66.9 33.2-6.5 2.6-13.2 4.5-20.1 5.7-18.7 2.9-37.5 5.2-56.3 7.5-12.5 1.6-25.1 3.1-37.7 4.2-23.1 2.2-45.8-2.6-68.6-4.7-9.1-.8-17.5-3.6-26-6.4-14.1-4.7-28.4-8.6-43.5-13.1-.7 2-1.2 4.1-1.4 6.2-.1 1.9.8 3.9.8 5.9.1 7.4-5.3 13.8-11.6 13.7-8.5-.1-15.2-6.2-15.5-13.9-.3-6 4.4-7.6 7.9-10.5 6.6-5.4 6.6-8.7-.3-13-9.6-5.9-19.4-11.4-29-17.2-6.8-4.1-13.8-8.1-20.2-12.8-9.9-7.3-18.7-16.1-29-22.7-16.7-10.7-31-24-45.7-37.1-5.7-5-11-10.4-15.9-16.2-13.4-16-25.7-32.8-40.3-48-8-8.3-14.5-18.1-21.5-27.4-3.6-4.8-6.9-9.8-11.3-16.2-1.3 9.1-1.9 16.4-3.4 23.5-1.5 7.5-7.8 10.9-15.1 8.8-11-3.2-14.3-15.5-5.9-23.5 5.9-5.6 11.7-12 22.3-10.8-.6-2.5-1.3-4.9-2.2-7.2-4.2-9.4-9.2-18.4-12.7-28.1-3.8-10.3-5.9-21.1-9.4-31.5-4.9-14.5-10.6-28.7-15.6-43.1-2.9-8.4-5.3-17.1-7.6-25.7-2-7.4-2.9-15.2-5.6-22.2-3.9-10.1-5.1-20.6-6-31.2-2.1-24.9-5.6-49.7-.4-74.6.2-1.3.3-2.7.3-4 .2-20.2 4.8-39.5 11.4-58.5 4.7-13.5 9.3-27 13.9-40.5 2.2-6.6 3.5-13.7 6.7-19.8 10.5-20.3 21.7-40.3 32.7-60.3 4.8-8.7 9.9-17.3 14.8-26 2.6-4.6 4.3-10 7.8-13.7 12.2-12.7 25-24.8 37.7-37.1 2.8-2.8 5.6-5.8 9-7.8 22.5-13.5 45.1-26.9 67.8-40.2 6.5-4 13.3-7.4 20.3-10.3 26.3-10.3 52.8-20.2 79.2-30.1 6.1-2.3 10.8-5.1 9.7-12.9-.3-2.2.8-4.5 1.2-6.8.8-5.2 3.6-8.5 8.8-9.6 4.6-.9 9.2 1.6 12.2 6.8 1.5 2.5 2.6 5.2 3.8 7.8 10.9 1.3 19.8-2.5 26.9-5.5l4-23.2c-4.2-2.2-9.1-1-13.9.1-16.5 3.8-33 7.9-49.6 11.8-27.8 6.5-55.2 14.4-81.4 26-3 1.3-6.4 2.5-9.3 4.5 2.2-.6 4.4-1 6.6-1.3 3.8-.6 5.4 5.2 1.6 5.8-3.2.4-6.3 1.2-9.4 2.1 2.6 1.2 5.2 2.5 7.7 4 6.3 4 6.9 10.9 1.8 16-4.3 4.3-9.1 4.9-14.6 1.7-4-2.3-5.8-6.8-4.6-12.1.4-1.8.9-3.5 1.5-5.4-.6.4-1.2.9-1.7 1.4-2.8 2.6-7.1-1.6-4.2-4.2 1.2-1.1 2.4-2.1 3.7-2.9-33.6 13.2-60.6 33-84.7 55.9 3.2 5.5 6.5 9.4 7.9 13.9 2 6.3-3.1 13.4-9.1 14.2-7.4.9-11.2-2.8-11.5-11.2-.1-1.9 0-3.8 0-7.2-3.5 2.2-6.1 3.5-8.3 5.3-13.3 10.6-26.9 20.8-39.6 32-21.3 18.8-41 39.1-54.8 64.2-22.4 40.6-41.9 82.4-53.7 127.6-7.9 30.3-10.1 61.1-10.3 92-.2 32.1 7.1 63.6 14.1 94.7 8.3 37.1 23 72.1 41.2 105.5 10.7 19.6 20.8 39.4 33.8 57.6 14.3 20 27.4 40.8 41.6 60.9 11.5 16.3 23.8 32 38.8 45.4s29.7 26.7 44.9 39.6c16 13.6 32.9 26.2 52.2 34.8 17 7.5 35.2 12.5 52.2 20 28.6 12.6 59.4 17.3 89.2 25.2 2.9.8 6.2.1 10.2.1-1.7-8.7-2.8-16.1 6.3-19.6 5.9-2.3 13.6-1 16.7 3 6.4 8.1 0 13.8-5.1 19.6 9.9 5 19.5 3.6 30 4.3-1.3-2.8-2.2-4.5-2.9-6.2-3.1-7.4-1.9-11.9 5.1-15.9 3.5-1.9 7.2-3.3 11.1-4 3.6-.7 7.5-.4 9.6 3.6 2.3 4.4 2.9 9.1-.1 13.2-1.7 2.4-4.4 4.1-6.5 6.1-1.5 1.4-3 3-5.7 5.7 10.9 1.5 20 3.7 29.1 3.8 30.4.2 60.6-3.2 89.9-11.4 26.6-7.4 52.5-17.2 78.6-26.1 2.9-1 5.5-3 7.7-4.2-3.8-4.2-7.4-7.3-9.6-11.1-3.3-5.4-1.8-12.4 3.4-16.1 4.2-3 10.8-2.6 14.8 1 4.8 4.2 5.6 10.3 2 16.2-1.2 2-2.5 4-4.9 7.8 3.7-.9 5.4-1 6.7-1.6 21.3-9.7 40.8-22.5 60.2-35.2 21.3-14 42.4-28.5 59.8-47.8 15.5-17.1 30.5-34.4 42-54.4 13.6-23.8 22.9-49.6 29.1-76.2 5.5-23.6 9.5-47.6 13.9-71.5.9-4.6.9-9.4 1.4-14.1l-2.5-1.1c-1.6 2.1-2.8 5.4-4.8 6-3.5 1-8.1 1.5-11.2.1-5.5-2.6-6.3-9.4-3.1-15.8 3.8-7.6 8.3-9.8 15.1-7.4 2.4.9 4.7 1.9 7.1 2.9 4.7-16.7 4.1-77.3 2-90.7-.8-.5-1.6-.8-2-.4zm-572.7-452c7.6-.1 12.2 3.8 12.1 10s-5.3 11.8-11.1 11.8-11.2-4.7-11.5-10.2c-.4-6.9 3.8-11.5 10.5-11.6zm-117.6 57.6c.4-6.1 5.5-11.2 10.8-10.8 5.9.4 11.4 6.5 11 12.1-.5 5.8-6 10.7-11.4 10.1-5.9-.7-10.7-6-10.4-11.4zm-75 65.4c4.3.2 10.2 6.3 10.1 10.6 0 4.9-7.4 11.3-12.4 11-5.2-.4-9.1-5.3-9-11.3.4-5.9 5.4-10.5 11.3-10.3zm-37.6 43.9c6.8-.3 13 5.5 13 12.2 0 5.7-8.3 11.7-16.3 11.7-7 0-9.8-2.5-9.6-8.3.1-7.1 7.1-15.4 12.9-15.6zm-20.8 50.5c3.8 1.5 4.9 4 3.7 7.9-2.2 7.4-8.2 11.1-14.5 14.2-4 2-8.8-3.6-8.6-9.4.3-9 11.2-16 19.4-12.7zm-36.2 67.3c2.6-7.9 8.4-13.5 15.3-17.6 4.5-2.7 12.5 4.3 12.3 10.4-.3 10.9-8.3 18.5-19.2 18.4-6.7-.1-10.5-4.7-8.4-11.2zm-13 72.4c.8-8.7 4.6-15.5 12.4-20.2 8-4.8 17.7 1.8 17.6 12.1-1.5 6.2-3.7 13.8-10.4 19-4.2 3.2-9.2 3.4-14 .9s-6-6.9-5.6-11.8zm-16.1 74.9c.7-6.5 3.2-12.5 8.3-16.5 2.6-1.8 5.9-2.5 9-1.9 5.2 1.3 10.5 10.8 9.9 16.1-.7 6.7-6.8 13.9-12.8 15.2-1 .2-2 .3-2.6.3-7.9-.4-12.6-5.7-11.8-13.2zm18.4 67.1c-3.9-4.3-6.1-9.3-3.2-14.6 3.1-5.7 6.2-11.7 13.4-15.5 2.7 4.1 5.3 7.2 6.9 10.8 1.6 3.3 2.5 6.8 2.5 10.4-.1 4.7-1.7 9.4-6.8 11.2-4.5 1.8-9.1 1.8-12.8-2.3zm18.7 55.2c-4.4-3.5-6.7-14.1-4.3-19.2 2.3-4.8 12.6-9.6 18-8.4 4.5 1 7.3 6.1 7.4 14.9-.1 2.3-.5 4.5-1 6.7-2.8 8.9-12.8 11.8-20.1 6zm30.4 58.5c-7.8-.1-14-6.8-13.8-15 .2-6.8 4-11.8 8.9-15.9 2.9-2.5 6.2-1.9 9.2 0 5.2 3.3 9.6 11.6 9.4 17.7-.1 8.7-4.9 13.3-13.7 13.2zm60.7 96c-9.6 0-15.7-6-15.7-15.5 0-5.7 8.6-12.8 14.8-12.3 5.4.4 11.2 8.8 11.1 16-.1 7.7-3.6 11.8-10.2 11.8zm33.6 35c-9.3-.8-17-7.8-16.8-15.3s8.1-12.9 17.6-12.3c9.1.6 13.8 4.4 13.5 11.1-.4 11-5.9 17.2-14.3 16.5zm41.7 36.7c-6 2.5-11.8-.1-16.7-3.8-4.2-3-6-8.4-4.5-13.3.4-1.6 1.1-3.1 2.1-4.4 5.2-5.8 11.7-3.6 17.7-2 5.8 1.6 8.2 5.4 8.1 11.1-.2 5.2-1.6 10.3-6.7 12.4zm35 28.1c-8.4 0-14.3-4.5-14.2-10.6.1-6.5 7.5-13.1 14.7-13.2 7-.3 12.8 5.2 13.1 12.1v.9c-.1 7-4.9 10.8-13.6 10.8zm55.7 23c-2.8 5.9-8.2 7.1-14.2 6.9-8.3-.4-12.6-4.1-13.4-11.6-.5-5 1.9-9.5 6.1-11.4s15.6-.1 18.7 3.4c3.3 3.6 5 7.9 2.8 12.7zm92.3 43.9c-2.2 2.4-6 3.4-7.6 4.2-8.2-.6-14-1.7-16.9-8.1-2.2-4.6-.5-8.6 4.4-10.2 6.1-2.1 17.6.8 20.8 6.2 1.1 1.9.8 6.3-.7 7.9zm123.6 18c-6.4-.1-13.8-6.9-14.1-13-.2-5.3 7.5-11.8 13.8-11.5 5.7.2 10.3 6.3 10.4 13.6 0 6.4-4.2 11-10.1 10.9zm43.7-3c-5.9 0-13.1-6.4-13-11.4.1-4.5 10.2-10.8 17.2-10.7 4.4 0 7.8 4.1 7.9 9.6.3 7.3-4.7 12.5-12.1 12.5zm39.9-8.5c-6.2.3-12.1-5.4-12.2-11.8s6.3-11.7 14.5-11.8c5.4-.1 9.7 4.3 9.9 10.1.2 6.2-6.1 13.2-12.2 13.5zm38.7-11.3c-6.4-.1-9.9-4.4-10-12.4-.1-6 4.1-10.4 9.8-10.2 5.5.2 13.5 6.9 13.7 11.5.2 5.1-7.1 11.1-13.5 11.1zm70.7-36.6c-3.9-.4-12.3-10-12.4-14.2-.1-5.6 4.5-10.5 9.7-10.4 6.2.1 13.9 8.6 13.5 14.9-.3 4.5-6.4 10-10.8 9.7zm38.5-25.7c-5.6.1-14.5-8.4-14.8-14.1-.2-5.3 6.4-10.9 13.1-11.1 7-.2 11.2 4.8 11.2 13.4 0 6.6-4.1 11.7-9.5 11.8zm35-32.3c-5.2.2-12.6-8.5-12.4-14.7.1-5.9 5.3-11.2 10.6-11 5.9.2 11.8 6.5 11.8 12.6s-5.3 12.9-10 13.1zm27.4-30.5c-5.3 0-12.2-8-11.9-13.8.2-5.2 4.5-9.3 9.7-9.2 7 .1 14.1 6 13.9 11.5s-6.1 11.4-11.7 11.5zm31.2-42c-.6 8.1-5.6 12.6-13.6 12.1-10.1-.6-13.9-3.6-13.4-10.6.5-7.8 7.7-14.9 14.8-14.5 6.5.4 12.7 6.9 12.2 13zm0-27.4c-5.3-.2-14-10.1-14-16 0-5.7 7.9-10.8 16.6-10.9 5.2 0 11.2 6.5 11.5 12.8.4 6-7.8 14.2-14.1 14.1zm40.1-76.6c.1 6.7-6.5 12.3-14.2 12.2-6.1-.1-10.2-4-10.3-9.7-.2-6.7 5.9-13.4 12.1-13.4 5.3-.1 12.4 6.1 12.4 10.9zm-.1-91.4c-6.1 0-12.6-6.5-12.8-13.1s6.3-15 12-15.3c4.6-.2 11.1 8.3 11.2 14.8.1 7.5-4.5 13.5-10.4 13.6zm-388.5-662c-5.9.7-9.7 1.4-13.6 1.6-23.3 1.1-46.5 2.2-69.8 3-19.9.7-39.9 1.1-59.8 1.8-15.6.5-31.3 1.3-46.9 1.9-32.2 1.3-64.4 2.3-96.7 4-23.3 1.2-46.5 3.1-69.7 4.7l-71.7 5.1c-3.8.3-7.6 0-12.5 0 .8-2.9 1-4.6 1.8-5.9 8.1-14.1 15.1-29.1 24.7-42.1 15.4-20.8 34.7-37.8 59-47.8 34.1-14.1 68.5-27.8 104.6-35.9 25.7-5.8 51.8-9.3 78.2-6.8 16.2 1.5 32.7 2.2 48.5 5.5 22.5 4.7 44.6 12.1 63.5 25.3 15.6 10.9 28.8 24.9 38.9 41 5.8 9.3 11 19 16 28.7 2.4 4.4 3.4 9.3 5.5 15.9zm-1337.2 712c-11-.7-21.9-3.2-32.1-7.2-19.5-7.5-29.6-22.2-34.4-41.5-.2-1-.4-2-.8-2.9-8.4-17.2-5.8-35-2.5-52.7 2.1-11.1 4.2-22.2 6.6-33.2 4.7-21.9 16.2-39.8 31.6-55.6 3.7-3.8 7-8 10.7-11.8 1.7-2 3.7-3.8 6-5.2 17.2-9.4 34.9-18 53.8-23.5 6.9-2 14.4-2.4 21.7-2.5 21.8-.2 42.1 5.9 60.5 17.3 5.7 3.5 10.7 9.3 14.2 15.1 9.1 15.1 18.1 30.3 20.2 48.4 2.5 22.7.4 44.7-9.3 65.3-15.4 32.9-41.9 55.2-72.9 72.7-3.2 1.7-6.7 3-10.3 3.8-20.3 4.4-39.9 12.8-63 13.5zM1975.7 408c0-11.6-.1-22.2 0-32.8.3-18.6.3-37.3 1.1-55.9 1.1-24.6 3-49.1 4.5-73.7 1-16.6 2.3-33.2 3.2-49.8.7-14.1 2.5-28.1 8.3-40.9 3.4-7.2 8.7-13.3 15.2-17.8 29.6-20.4 61.5-35.8 97.3-42 25.9-4.5 51.8-9 77.7-13 15.4-2.4 31-3.8 46.6-5.6 2-.2 4-.3 6-.2 8.2.5 9.5 3.1 6.1 10.8-5.1 11.5-10.1 23.2-14.9 34.9-4.6 11.1-3.1 22.2 1.5 32.9 3.1 7.4 2.4 9.2-5.3 11.4-27.8 8.1-55.9 15.2-83.3 24.5-18.8 6.3-38.1 12.5-54.6 24-12.4 8.7-21.6 20.3-25.7 35.6-6.9 25.2-8.8 51.1-11 76.9-2 24-2.4 47.9.9 71.8 1 6.9-.6 8.5-8.6 8.6-21.2.4-42.5.3-65 .3z"/><path fill="none" d="M2866.6 784.9c.1.3.3.6.4.9.2-.3.5-.6.8-.9 1.2-1.1 2.4-2.1 3.8-3-4.4 1.4-8.9 1.4-12.9-1.3-.4-.2-.7-.5-1-.8l3 5c.5-2.3 4.7-2.8 5.9.1zm222.3 765.4c-.9-14.2-2.5-28.4-3.2-42.7-1.2-25.9-1.7-51.8-2.8-77.7-1.3-30.9-2.9-61.8-4.5-92.7-.4-8.6-2.1-17.4-1.3-25.9 1.2-13.3-2.4-25.7-4.4-38.4-2.6-16.7-5.4-33.4-7.8-50.1-1.4-9.8-1.9-19.8-3.4-29.6-1.6-10.5-4.5-20.8-6-31.3-4.1-28.7-10.4-57-18.8-84.7-3.4-11.4-6.5-23-10.9-34.1-9-23.2-18.7-46.2-28.2-69.2-7.3-17.5-14.5-35-22.2-52.4-8.1-18.2-16.5-36.3-25.2-54.2-5.8-12-11.2-24.3-18.4-35.4-13.4-20.6-27.9-40.5-42-60.7-.4-.6-.9-1.2-1.4-1.8.2.9-.2 1.8-.8 2.4-3.4 3.1-7.2 5.8-11.2 8 5.1-1.3 10.6 0 15.4 3.9 5.8 4.6 6.6 9.1 2.9 15.7-1 1.8-2.2 3.5-3.6 5 3.6-.5 6.5-2.4 9.5-5.5 2.7-2.8 7 1.5 4.2 4.2-4.1 4.2-8.8 7.3-14.8 7.4-1.3 0-2.6-.1-3.9-.2l.7.6c1.5 1.2.9 3.8-.6 4.7-1.8 1-3.5 2.3-5.3 3.3-1.4.8-3.3.3-4.1-1.1l-1.1-1.8c-.1 1 0 1.9.3 2.8 2.8 8.5 5.7 17 8.9 25.3s6.8 16.6 10.3 24.8c1.1 2.5 2.6 4.8 4.1 7.8l8.8-23.6c-1.7-.4-3.3-1.3-4.7-1.1-6.6 1-9.8-2.6-11.7-8.2-1.1-3.2-2.7-6.3-2.8-9.5-.1-3.8.2-8.2 2-11.4 4.4-7.9 14.9-9.7 22.7-4.5 10.3 6.9 13.2 17.4 6.9 25.5-2.1 2.7-4.6 5.1-7.2 8 5.2 1.1 9.7 1.1 13.4 2.9 8.5 4.1 11.4 12.4 8.8 23.1-2.1 8.6-11.2 15.9-19.5 15.7-3.1-.1-6.3 0-11.2 0 1.9 5.3 3.1 9.3 4.7 13.1 6.4 14.9 13.3 29.7 19.2 44.8 7.1 18.2 10.2 37.7 18.3 55.7 6.6 14.8 10.8 30.7 14.8 46.5 5.8 22.8 10.2 46 15.8 68.9 2.6 10.6 5.3 21.5 10.2 31.1 9.5 18.3 10.8 38.3 13.8 57.8 3.5 22.3 3.2 45.1 5.4 67.6 2.4 25.2 4 50.4 1.8 75.7-.5 5.2.7 10.5 1.3 15.8 1.8 14.8 5.9 29.4 3.9 44.6-3.8 28.2.2 56.4.4 84.5 0 1.3.3 2.7.4 4 1.6 15.9 3.8 31.7 4.7 47.6.5 8.8-1.5 17.8-1.6 26.7-.2 12.5.8 25.1.5 37.6-.5 21.6-1.5 43.2-2.2 64.8-.1 2.4.3 4.8.7 9.3 3.4-4.4 5.5-6.9 7.4-9.5 6.8-9.4 12.8-19.4 21.6-27.3 3.7-3.3 6.5-7.6 9.5-11.6 6-8 11.1-16.7 17.8-23.9 9.8-10.7 17.1-22 15.3-37.3-.3-2.2.8-4.6.8-6.9 0-7.6.1-15.3-.4-22.9zm-26.4-210.8c.1 9.7-9.3 17-21.8 17-10.2 0-15.7-8.2-16.1-21.7-.2-7.4 8.4-16.5 19-16.7 8.3-.2 18.9 12.1 18.9 21.4zm-135-424.9c0-10.3 6.7-18.2 15.8-18.2 8.6-.1 18.6 8.8 18.5 16.4-.1 8-11.8 18.9-20.4 18.9-8.9 0-13.8-6.1-13.9-17.1zm17.8 63.2c-3.3-6.9-4.3-14.8-2.9-22.3 1.7-8.4 8.6-13.6 17.2-13.4 12.1.2 22.2 15.1 18.1 26.5-3.3 9.2-13.5 16-23.3 15.7-4.5-.3-7.3-2.6-9.1-6.5zm23.2 49c-4.7-8.1-7.8-16.9-6.9-26.6.8-8 5.1-11.9 13.1-11.7 15.5.5 24 9.9 23.6 26.7.2 6-.8 12-6.9 16-7.5 4.9-18.4 3.3-22.9-4.4zm6.6 19.7c3.4-5.9 9.3-7.1 17.4-6.8 1.5.3 4.7.9 8 1.6 7.7 1.7 10.4 7.2 11.9 14.3s-.3 12.2-6.2 16.4c-4.7 3.3-9.1 6.4-15.4 5.8-12.2-1.2-20.3-23.3-15.7-31.3zm19.9 82.7c-7.5-7.8-13-16.9-9.8-28.8 1.6-5.9 5.5-9.1 10.9-10.4 10.8-2.6 27.3 11.4 27.1 23.9-.7 3.1-1.5 6.3-2.5 9.3-4.7 12.9-16.2 15.9-25.7 6zm8.7 40.4c-.5-10.8 11.2-23.2 22.1-23.5 9.5-.2 19.8 9.9 20 19.8.4 13.4-8.1 22.2-22.1 22.6-10.7.3-19.7-8.1-20-18.9zm5.8 53.4c-.3-5.3-2.1-11.4 4.6-14.9 7.9-4.2 16.2-6.1 23.3-.2 5.3 4.5 9.4 10.2 12 16.6 4.2 10.7-6.5 23.2-18.8 23.3-9.6.1-14.9-3.2-18.2-12.3-1.6-4-2.6-8.2-2.9-12.5zm6.8 68.3c-2.2-4.7-3-10-4.4-15.1.9-10.5 6.3-16.4 16.6-16.8 11.1-.3 20.5 3.4 25.2 14 1.7 3.8 2.5 9.8.7 13.1-3 5.8-7.4 10.8-12.8 14.5-9.2 6-20.1 1.5-25.3-9.7zm3.4 96.3c.1-10.9 8-19.3 18.2-19.4 13.8-.2 27.3 10 26.9 21-.5 12.7-9.7 21.4-26 22-10.5.5-19.2-10.7-19.1-23.6zm26.3 32.3c8.6.2 18.9 12.3 19.1 22.6.2 11.8-8.2 18.6-23.2 18.6-12 0-19.7-7.9-19.6-20 .1-10.9 11.9-21.4 23.7-21.2zm-23.6 74.7c-.1-11.5 10.5-22.8 21.6-22.8 17-.3 23.4 12.1 24.2 24.8.7 11.7-9.4 20.7-21.9 21-10.8.2-23.7-12.3-23.9-23zm28.9 27.4c9.9.2 18.7 8.2 18.5 16.9-.3 12.4-10.6 23.5-21.5 23-10.3-.4-18.8-9.9-18.7-20.7.1-12.1 8.4-19.4 21.7-19.2zm8.2 97.6c-12.4 6.9-26.7-7.4-26.6-18.8 1.5-4.7 2.3-9.7 4.6-14 4.5-8.5 12.6-11.1 21-6.5s13.5 11.9 13.6 21.7c-.1 8.6-5.4 13.6-12.6 17.6z"/><path fill="none" stroke="#FFC107" stroke-miterlimit="10" d="M1450.2 1233.2c-.8 9.6-1.5 19.2-2.6 28.7-2.5 22.2-11.4 42.5-22.1 61.6-5.6 10-13.8 18.8-22.1 26.8-16.2 15.8-35.6 28.2-56.8 36.2-11.2 4.2-23 6.4-34.9 6.6-21.4.3-42.5-1.4-62.7-9.3-25.7-10-50.1-22.3-65.6-46.3-9.9-15.4-17.6-32.3-19.2-50.9-3.2-35.2.4-69.7 12.8-103.1 4.4-11.8 11.6-21.7 18.5-31.8 16.2-23.6 40.4-36.7 64.8-49.9 9.7-5.2 20.6-7.7 31.7-7.3 12.2.4 24.3 1.9 36.3 4.2 14 2.6 27.7 6.9 41.7 9.7s26.5 9.5 37.8 17.4c7 4.9 11.8 13.3 16.7 20.8 4.2 6.3 6.8 13.6 10.6 20.2 11.7 20.7 15.4 43 15.1 66.4zm-142.4-116.5c-4 .2-8 .5-12 .6-22.2.8-41.3 9.4-58 23.6-7.9 6.7-15.2 14-23 20.7-6.7 5.6-11.8 12.8-14.7 21-4.7 13.5-9.1 27.1-13.7 40.7-6.2 18.2-8.8 36.6-6.4 56 2.1 16.4 5.2 32.2 14.8 45.9 4.2 6 7.8 12.9 13.3 17.3 17 13.4 37 22.6 58.2 26.9 17.9 4 36.4 3.9 54.3-.1 28.5-6.5 54.8-16.8 76.1-37.1 22.7-21.6 39.3-46.8 39.6-79.8.1-9.3-.8-18.6.1-27.8 1-9.2-.3-18.6-3.7-27.2-3.3-8.7-5.8-17.9-10.6-25.8-8.5-13.9-20.5-25.2-32.3-36.5-1.8-1.5-3.9-2.6-6.1-3.2-8.5-2.8-17.1-5.3-25.7-8-16.2-5-33.2-7.4-50.2-7.2zm881.2-477c-12.6 3.8-16.6 2-21-10.5-9.9-27.8-26.6-51.4-46.9-72.2-13.2-13.5-27.9-26.1-46.4-32.2-11-3.6-22.4-6.9-33.8-8.4-22.7-3.1-45.2-8.9-68.3-7.2-22.5 1.6-45.1 3.2-67.4 6.6-16.7 2.5-33.1 7.3-49.3 12.2-9.8 2.9-18.8 8.6-28.5 11.7-33.2 10.7-61.3 30.5-89 50.5-17.2 12.4-30.1 29.8-36.8 49.9-2 5.7-4.3 11.2-6.8 16.7-4.8 10.3-7.3 11.8-18.5 11.2-2.6-.3-5.3-.7-7.9-1.3 0-2.2-.4-3.9.1-5.4 6.7-23.6 16.2-45.7 31.2-65.4 10.6-13.8 21.5-27.3 36.2-36.8 12-7.8 24.7-14.5 37.3-21.2 24.2-12.8 49.9-22.2 76-30 20.3-6.1 40.8-12.2 62.2-14 5.6-.5 11.1-2 16.7-3.1 27.8-5.5 55.9-4.2 83.6-2 18 1.5 35.5 8.4 53.1 13 6.1 1.6 12.3 3.1 18.1 5.5 23.6 9.7 45.1 22.6 63.5 40.5 3.6 3.5 7.2 6.9 11 10.1 20.9 17.7 25.3 42.7 30.1 67.5.8 4.2 1.5 8.5 2.2 12.7 0 .5-.3 1.1-.7 1.6zm363.8 489.2c-1.3 1.6-2.5 3.3-3.6 5-.9 1.8-1.1 4.2-2.4 5.4-2.6 2.2-5.9 5-8.9 5.1-2.1 0-4.6-3.9-6.3-6.5-1.2-1.9-1.7-4.3-2.2-6.6-1.9-9.3 5.2-15.7 14.2-13.1 2.7.8 5.4 1.9 9.9 3.4-.5-8.2-.6-14.7-1.4-21.1-.7-5.3 1.9-11.5-1.9-17 .4 3.1.7 6.3.8 9.4.1 3.9-5.9 3.9-6 0 0-1.9-.2-3.8-.4-5.7-.6 1.3-1.3 2.6-2.1 3.9-3.4 5.6-9.4 7.1-13.5 3.7-5.8-4.8-6.6-16.1-1.5-21.7 4.1-4.6 6.6-5.2 12.3-2.3 1.2.6 2.4 1.3 3.6 2.1v-2c.2-3.8 6.2-3.9 6 0-.1 2 0 4 .1 5.9l.3.2c.4-3.3 1-5.4.8-7.5-.5-5-1.5-9.9-2.3-14.8-3-19.3-5.9-38.7-9-58-.5-3.4-2-6.3-6.2-6.4-2.1 4-3.7 8.2-6.3 11.5-6.1 7.8-12.9 6.7-16.5-2.4-.8-2.2-1.4-4.4-1.7-6.8-1.4-10.7 6-17.2 16.3-14.7 2.2.5 4.4 1 7.2 1.7 0-2.6.5-4.6-.1-6.4-2.4-7.3-4.6-14.6-7.6-21.6-5.6-12.8-11.4-25.5-17.8-37.9-3.3-6.4-7.1-12.7-11.6-16.8.4 2.3.7 4.6.7 7 .1 3.4-4.6 3.8-5.7 1.2-1.8 1.3-5 .6-4.8-2.2.1-1 .2-2.1.4-3.1-3.6 1.8-7.3 3.2-11.2 4.1-6.7 1.4-11-2.8-11.9-9.1-.9-6.5 1.9-10.6 8.4-12.6.9-.3 1.8-.6 2.8-.9-1.6-.5-3.2-.9-4.8-1.4-3.6-1.2-2.1-7 1.6-5.8 1.4.5 2.8.9 4.3 1.3.6-1.3 2.2-1.9 3.6-1.3.2.1.3.2.4.3 1.2.8 2.3 1.6 3.4 2.4-1.4-2.3-2.8-4.5-4.5-6.6-5.8-6.8-11.7-13.6-17.8-20.2-3.9-4.2-8.2-8.2-12.3-12.2-5.2-9.4-12.5-17.3-21.4-23.3-10.5-7-21-14.1-31.6-21-11.6-7.7-11.7-7.6-21.1 3.2-.2.2-.4.5-.7.7-6.9 7.3-20.9 5.2-25.6-3.7-2.9-5.6-1.9-9.8 3.1-14 2.1-1.8 4.3-3.6 7.3-6.2-10-4.3-17.8-10-28.6-11-.5 4.6-1 8.4-1.4 12.3-.4 5-3.2 7.7-8.1 8.6-7.9 1.5-13.8-1.7-16.6-9.2-2.1-5.5-.6-9 5-11 2.9-1 5.9-1.7 8.9-2.5-.5-1.6-.5-2.1-.7-2.2-13.7-5.5-28.1-7.3-42.7-7.9-1.8-.1-4.8 2.6-5.3 4.6-1.7 5.8-2.6 11.9-3.7 17.5 15.4 4.8 31.4 9.3 46.9 14.8 18.2 6.5 34.1 17.5 50.2 28 9.9 6.5 18.5 15 29.6 19.7 2.8 1.2 5.3 2.9 7.4 5.1 12 12.4 24.3 24.6 35.8 37.4 11.9 13.2 19 29.6 27.8 44.8 11 19 19.5 39.1 27.4 59.5 4.7 12.4 8.5 25.1 11.5 38.1 5.5 23.6 10.5 47.4 15.1 71.2 2.1 10.7 2.8 21.8 4 32.7 1.3 11.9 2.5 23.8 3.9 35.6.5 4.3 1.3 8.5 1.9 12.8.6 4.1 1.2 8.2 1.7 12.2l1.5 2c5.5-8.4 12.9-9.3 21.4-7 6.5-16.6 5.7-32.7 2.3-50.7zm-145.1-297.6c-4.5 1.4-8.6-.2-11.9-4.7-4-5.5-4.8-11-1.3-14.4 1.9-1.9 5.5-4.3 7.4-3.7 5.1 1.8 9.7 5 14.4 7.9.9.6 1.1 2.3 1.3 2.8.1 4.5-5.2 10.7-9.9 12.1zm41.8 29.9c-1.6 1.2-3.3 2.3-5 3.3-3.8 2.2-7.7 4.3-12 1.3-3-2.1-4.9-10-2.6-13.8 2.4-3.9 5.4-7.3 9-10.2 2.4-2 5.9-2.7 8.9-3.9 1.7 3.8 3.4 7.6 5 11.5 2.4 5.7 1.8 7.9-3.3 11.8zm48.9 108.5c-5.8-.4-8.8-4.1-10.5-9.1-1-2.8-1.5-5.7-1.9-7.1.1-9.2 4.2-13 11.8-12.4 21.4 1.8 20.2 6.2 11.3 21.2-2.5 4.2-5.2 7.7-10.7 7.4zm16.6 74.9c-2.1-5.1-2.5-10.6.6-15.3 3.9-5.9 13.5-4.9 16.2 1.6.9 2.6 1.6 5.3 2.1 8.1-.1 8.1-2.7 11.7-7.9 12.7-4.2.6-8.8-2.1-11-7.1zM250.6 1167.2c-.9 25.6-1.9 51.1-2.9 76.7-.1 2-.3 4-.5 6-.4 5-2.9 7.6-8.2 8.3-14.1 1.8-14.2 1.9-19.7-11.3-2.2-5.2-3.7-10.7-5.7-15.9-4.1-10.8-8.6-21.5-12.4-32.4-5.7-16-11.5-31.9-16.3-48.2-3-10.5-5.2-21.3-6.4-32.2-1.5-12.8-1.8-25.8-2.5-38.8-1.1-18.6 4.7-35.6 12.9-51.7 6.5-12.8 13.2-13 23.4-6.7 9.1 5.6 13.3 14.6 17.7 23.6 11.1 22.9 14.4 47.6 16.2 72.6.7 9.5 2.6 19 3.7 28.4.8 7.2 1.3 14.5 1.9 21.8l-1.2-.2zm744.9 32.3c.3 1.2.6 2.5.9 3.7.3 1.7-.9 3.3-2.6 3.6-.8.1-1.7-.1-2.4-.6-.9 3.9-1.3 8-1.4 12 .1 14.6-2.4 29.1-8 41.9-10.7 24.5-25.7 46.6-46.8 63.8-17.6 14.3-35.5 28.1-57.7 34.4-5.1 1.4-10.5 1.8-15.5 3.5-25.8 8.9-51.5 8.3-77.7 1.6-12.5-3.2-24-9.5-33.4-18.4-5.1-4.7-8.2-10.3-12.2-15.4-6.6-8.3-13.1-16.9-11.2-28.7.1-1.3-.1-2.7-.7-3.9-4.3-8.9-2.6-18.3-1.9-27.4.8-10.6 3.6-21 3.7-31.5.2-16.8 7-31.7 12.4-46.9 2.2-6.1 6.3-11.7 10-17.2 4.9-7.1 10.4-13.8 15.6-20.7 13.4-18 29.9-32.1 51.1-40.1 10-3.8 20.1-7.2 30-11.2 3.5-1.4 6.7-3.6 10-5.6-4.7.4-9.3 1.9-13.2 4.6-3.2 2.2-6.2-3-3-5.2 1.1-.8 2.3-1.4 3.5-2.1-15.6 2.1-30.5 7.7-43.7 16.4-15.6 10-28.9 22.6-40.8 36.5-26.2 30.6-42.2 66-45.7 106.4-1.7 19.6-2.7 39.4 4 58.4 3.9 11.2 6.7 23 15.3 32.1 7.7 8.2 15.7 16 25.3 22.2 11.6 7.4 23.2 14.1 37.2 15.9 6.9.9 13.7 3.6 20.5 3.6 14.7 0 29.5-.8 44.1-2.2 9.2-.9 18.7-2.2 27.2-5.6 16-6.4 31.5-13.6 46.2-23.2 28.5-18.8 48.8-42.8 57-76.3 2.4-9.7 5.5-19.2 7.6-28.9 3.7-16.7 5-33.6-3.7-49.5zm-744.4 160.4c.7 6.6 1.7 11.4 1.7 16.3-.1 23.9-.5 47.8-.7 71.8-.2 19.2.6 38.6-.5 57.8-.7 12.5-3.4 25-6.1 37.2-2.2 10-10.4 14.2-19.6 16.1-6.2 1.2-11.9-2.3-14.2-8.3-1.4-3.7-3-7.6-3.1-11.5-.7-23.9-.4-47.8 4.8-71.4 3-13.6 3.2-27.7 5.4-41.4 3-19 6.5-37.9 9.9-56.9.7-4 3.2-6.4 7.3-7.1 4.5-.7 9-1.6 15.1-2.6zm1476.5-933.5c-.5-11.5-1.5-21-1.2-30.5.9-27.2 2.4-54.4 3.5-81.5.5-11.2.6-12 11.5-13.1 8.6-1 17.2-1.3 25.8-.8 10.9.7 13 3 12.5 13.6-.8 17.6-2.5 35.1-3.5 52.6-.8 13.2-1.4 26.5-1.7 39.8-.3 10.3-.1 10.4-9.9 12.4-11.6 2.4-23.3 4.7-37 7.5zM250 1292.4v41.8c0 6.9-2.4 10.5-9.3 11.6-9.2 1.4-17.7-.9-23-8.8-4.8-7.1-8.7-14.9-11.5-23-5.3-15.5 4.8-32.4 20.8-36.1 3.9-1 7.8-1.6 11.8-1.7 8.6 0 11.1 2.7 11.5 11.2.1 1.7 0 3.3 0 5h-.3zM1721.8 290.2c-3.4-8.7-2.1-13.6 6-16.8 5.5-2.2 11.3-3.7 17.2-4.5 18.4-2.3 36.9-4.1 55.3-6.1 10.3-1.1 12 .4 11.9 11.3s-.8 12.4-11.3 13.6c-7.8.9-15.8.4-23.7.4-9.3 0-18.6-.7-27.9-.3-9.1.3-18.1 1.5-27.5 2.4z"/><path fill="none" d="M2858.6 735.9l-.5-.3c-3.1-2.2-.1-7.4 3-5.2 2.5 1.7 4.8 3.7 7 5.8-1.1-8.7-5.9-13.6-14.3-15.8-6.4-1.6-12.7-3.8-19-5.8l-48-15.6-1.3 2 55.6 53 .4-.4c-.9-1-1.8-2-2.6-3.1-2.5-3 13.4-13 19.7-14.6z"/><path fill="none" stroke="#FFC107" stroke-miterlimit="10" d="M2256.9 91.5c1 5.5 2.6 10.9 2.8 16.4.5 12.6.4 25.3.3 37.9-.2 5.1-4.1 9.3-9.1 10-4 .5-7-1.9-8.6-7.9-3.9-14.8-.6-29 4.6-42.9 1.8-4.8 4.7-9.3 7.1-13.9l2.9.4zm-47.2 660.3c6.8-2.3 23.4-3.1 36.3-1.2-.5 5.4-.9 10.9-1.6 16.4-.4 3.6-2.8 5.2-6.2 5.2h-34.6l6.1-20.4zm-23.6 1.6c-.9 8.2-.9 8.2 6.3 19l-42 4.7c1.3-7.9 6.1-14.7-1.4-20.1 6.5-3.3 26.7-5.1 37.1-3.6zm-82 31.9l-6.5-19.9c9.8-7.4 21.8-7.7 35-8-3.2 8-4.8 15.1 6 20.4-13 4.6-23.5 7.4-34.5 7.5zm-1157.9 326c-4.8-4-9.6-8.4-15.2-10.9-16.5-7.3-34.1-8-51.7-8.2 3.7.5 7.5.6 11.2.3 3.8-.4 3.8 5.6 0 6l-1 .1c6.3.9 12.4 2.3 18.5 3.9 10.6 3 20.8 7.7 31.8 12.3-.6-.6-1.3-1.2-1.9-1.7-2.9-2.5 1.3-6.8 4.2-4.2 1.7 1.4 3.3 2.9 4.8 4.4 0-.7-.2-1.4-.7-2zm1977.3-241.5c-.4 1.8-.4 3.8-1.2 5.5-1.2 2.6-3.5 4.3-6.3 2.4s-2.2-4.8-.3-6.8c1.5-1.5 4-2.1 6.1-3.1l1.7 2z"/><path fill="#FFC107" stroke="#FFC107" stroke-miterlimit="10" d="M1584.9 1270.9c-7.8-.6-11-5.7-6.9-12.3 2.2-3.5 5.7-6.5 9.1-8.9 3.1-2.2 6.3-.8 9.1 1.7 2.5 2.3 3 4.8 2 8.1-2.6 7.5-7.4 11.8-13.3 11.4zm-57.8 2.5c-5.1 0-7.3-2.2-7.2-7.1.2-7.6 5.8-12.8 13.5-12.5 4.6.2 8 4.5 8.6 10.2.7 6.5-6.1 7.9-14.9 9.4zm-393.2-8.1c-.6 7.7-12.2 16-17.9 14.1-5.1-1.7-6.7-9.7-2.9-14.2 3.1-3.6 12.1-6.2 16.4-4.2 2 1 3.4 3.3 4.4 4.3zm-57.2 18.1c-7.2.1-9.9-3.7-8.1-9.8 1.6-5.3 5.5-8.2 10.5-9.6 3.6-1.1 7.6.4 9.6 3.6 1.1 1.7 2.2 4.9 1.3 6.2-3.2 5.1-7.7 9-13.3 9.6zm-40-1.7c-1.4-1-5.6-2.3-6.8-5-1.7-3.9.3-7.6 5.2-9 3.8-1.1 7.3-3 11.2-4.1s5.6 1.2 5.6 4.9c-.3 6-7.3 13.1-15.2 13.2zm587.2-31.6c4.7.1 6.7 2 6.7 6.7 0 5.5-4 10.4-8.6 10.3-4.9 0-8.7-3.3-8.7-7.6 0-5.4 4.7-9.6 10.6-9.4zm-128.8 7.6c3.7-.1 7.2 3.3 7.1 6.7-.1 3.8-6.6 10.2-10.6 10.6-4.6.4-7.9-2.8-8-7.8-.2-5.3 4.7-9.3 11.5-9.5zm1138.8-74.4c-3-4.1-5.4-6.4-6.7-9.2-2.2-4.7.4-11.3 5-13.5s11.6-.7 14.4 3.2c2.2 3.1 2.3 6.3-.4 9-3.5 3.3-7.4 6.3-12.3 10.5zm75.2-20.2c.2-6.4 3.9-10.9 9.1-10.8 5.3.1 11.2 4.9 11.3 9.3.1 5.2-7.2 12.3-12.4 12.2-4.7-.2-8.2-4.8-8-10.7zm-34.9 12.6c-5.5 0-8.1-2.8-8.3-8.8s4.5-11 10.5-11.2h.8c4.8 0 8.6 3.3 8.6 7.6.3 6.5-4.8 12-11.3 12.3-.1.1-.2.1-.3.1zM1331.4 935.1c0-6.1 4.6-11.1 10.2-11 5 .1 7.9 3 8.1 7.9.2 6.2-5.8 13.5-10.8 13.3-3.8-.2-7.5-5.2-7.5-10.2zm1513.1 211.2c5.8.3 9.5 9.9 5.3 15.2-2.4 2.7-5.5 4.7-8.9 5.8-1.8.5-5.2-1.3-6.5-3-2.8-3.7-.8-7.5 1.1-11.1s4.6-6.6 9-6.9zM1358.9 723.5c-4.7 4.6-9.2 6.8-14.9 5.8-7.1-1.2-9.3-6.3-5.6-12.4 4.7-7.7 12.6-7.8 17.3-.2 1.2 2.2 2.2 4.5 3.2 6.8zm-1.6 167.9c.4 6.7-8.8 15.1-14.1 14.3-3.5-.5-5-3-4.9-6.3 0-5.1 2.5-9.8 6.8-12.5 2-1.3 5.6-2.8 7.1-1.9 2.6 1.5 4 4.8 5.1 6.4zm1410.9 265.9c0 6.6-4.4 12.4-9.1 12.3-4.1-.1-9.1-6-8.9-10.4.2-5.5 5-10.8 9.7-10.8 5.1-.1 8.4 3.5 8.3 8.9zM1351 1000c-.3 6.8-8.4 13-14.8 11.1-1.8-.7-3.2-2.1-3.9-3.8-1.7-5.1 3.1-13.6 8.3-15.5s10.6 2.2 10.4 8.2zm-17-29.7c0-6.9 5.3-13.1 10.4-13.4 1.9 0 3.8.7 5.3 1.9 3.8 3 3.5 6.7.9 10.5-3.9 5.8-9.5 9.2-12.8 6.7-2.1-1.4-3-4.5-3.8-5.7zm11 54.8c3.6 5.5 2.1 10.5.1 14.8-1.1 2.4-4.7 4.7-7.4 5-2.4.3-6.6-1.5-7.3-3.4-1-2.5-.2-6.6 1.4-8.9 2.8-4.4 6.7-8.2 13.2-7.5zm0 48c-3.1 1.1-5.3 2.7-7.3 2.4-2.7-.4-6.1-1.6-7.4-3.7s-1.2-5.8-.3-8.3c1.1-2.5 2.9-4.5 5.3-5.7 2.1-1.2 5.5-2 7.3-1.1 1.6.8 1.9 4.3 2.6 6.6 0 .7-.1 1.3-.2 2v7.8zm10.2-258.9c3.3 2.2 6.4 3.4 8.2 5.7 2.6 3.3.1 6.1-2.4 8.5-1.2 1.2-2.4 2.2-3.8 3.2-3.3 2.2-6.8 4.8-10.6 1.3-2.8-2.6-3.1-8.2-.2-11.8 2.2-2.8 5.4-4.4 8.8-6.9zm3.5-57.8c-1.8 1.5-4.1 4.5-7.2 5.7-2.7 1.1-6.2.8-9.3.3-.9-.2-1.8-3.4-1.7-5.1.3-5.2 3.6-8.5 8-10.4 4.3-1.9 10.3 3 10.2 9.5zm1 32.3c.2 6-5.6 11.4-11.8 10.8-3.9-.3-6.8-4.2-5.1-7.9 1.6-3.3 3.9-6.1 6.8-8.2 5.4-3.7 9.9-1.1 10.1 5.3zm-17.2 75.9c-1-1.3-3.5-3.2-4-5.5-.9-4 6.4-10.5 11.2-10.6 3.1-.1 5.7 3 5.7 6.7s-6.9 9.4-12.9 9.4zm885.5 864.8c-.1 7.7-11.8 14.5-16.9 11.5-.3-.2-.6-.3-.8-.6-2.9-3.1-2.7-6.6-.8-10.1 2.6-4.7 8.6-8.7 12-7 2.9 1.5 4.9 4.7 6.5 6.2zm-11.7 52.7c-2.6-3.6-4.7-6.4-6.6-9.4-2.1-3.2-1.4-7.5 1.6-9.9 2.8-2.2 6.2-3.3 9.7-3.2 4.9.4 6.9 7.1 3.8 12-2.2 3.5-5.2 6.5-8.5 10.5zM584.8 1254.9c-4 7.4-10.3 11.1-18.4 11.1-7 0-9.9-5.2-6.8-11.5 2.6-5.3 7.3-7.6 12.8-8 5.8-.3 9.8 3 12.4 8.4zm31.1-14.9c5.3 0 11.3 4.8 11.6 9.1s-7.1 10.4-12.7 10.5c-7 .2-11.9-3.8-11.6-9.4.2-5.4 6.2-10.3 12.7-10.2zm45.5 13.2c-2.8-2-6.8-3.5-8.6-6.5-2.1-3.6.1-7.6 3.2-10.4 6.5-5.8 13.9-5.2 17.5 1.3 2.9 5.3 2.2 8.3-3.1 11.5-2.4 1.4-5.2 2.4-9 4.1zM812 1581.3c-1.4-1-4.5-2.3-6.3-4.7-3-4.2-.8-8.2 2-11.7 3.2-4 7-8.5 12.4-5.8 3.7 1.8 6.3 6.2 9 9.7.6.8 0 3.5-1 4.6-3.7 4.2-8.2 7.5-16.1 7.9zm-1.8 50.7c-4.9 0-9.8-3-11.1-7.2-1.6-5 1.5-8 5.1-10.6.5-.4 1.1-.7 1.7-1 3.6-1.9 7-5.7 11.6-1.9 3.2 2.6 4.7 9.6 3.3 13.7-1.8 5.2-5.9 6.6-10.6 7zm22.3-113.8c.1 6.8-6.5 13.4-13.3 13.2-5.3-.2-10-7.2-7.4-12.4 2.1-4 5.2-7.4 9.1-9.8 5.4-3.1 11.4 1.9 11.6 9zm-28.2-37.7c-.2-8 3.2-13.3 10.2-16.5 5.3-2.5 9.8-1 12.4 4.1 1.9 3.8.4 7.7-4.8 10.2-5.5 2.8-11.1 5.9-17.8 2.2zM807 1684c-6 .2-9.1-2.5-9.1-7.8s5.3-11 10.6-11.4 8.7 3.4 8.7 9.7c0 5.9-3.6 9.3-10.2 9.5zm13.5-255.7c0 6.3-.9 9.5-5.3 10.8-5.3 1.6-11.6.3-13.4-3.4-.9-2.1-.9-4.4-.2-6.5.8-2.2 2.3-4 4.3-5.2 3.3-1.8 7.8-4.6 10.4-3.5s3.5 6.3 4.2 7.8zm891.4-283.6c-1.5 6.2-3.7 13.8-10.4 19-4.2 3.2-9.2 3.4-14 .9s-6-6.9-5.5-11.7c.8-8.7 4.6-15.5 12.4-20.2 8-4.9 17.6 1.7 17.5 12zm116.6 367.3c9.1.6 13.8 4.4 13.5 11.1-.5 10.9-5.9 17.2-14.4 16.5-9.3-.8-17-7.8-16.8-15.3s8.2-12.9 17.7-12.3zm-81.4-116.7c-.2 8.7-5 13.3-13.8 13.2-7.8-.1-14-6.8-13.8-15 .2-6.8 4-11.8 8.9-15.9 2.9-2.5 6.2-1.9 9.2 0 5.2 3.3 9.6 11.6 9.5 17.7zm-69.4-154.5c-8-.3-12.7-5.6-11.9-13.2.7-6.5 3.2-12.5 8.3-16.5 2.6-1.8 5.9-2.5 9-1.9 5.2 1.3 10.5 10.8 9.9 16.1-.7 6.7-6.8 13.9-12.8 15.2-.9.2-1.9.3-2.5.3zm46.4 96.5c-.1 2.3-.5 4.5-1.1 6.7-2.8 8.9-12.8 11.8-20.1 5.9-4.4-3.5-6.7-14.1-4.3-19.2 2.3-4.8 12.6-9.6 18-8.4 4.6 1.1 7.3 6.2 7.5 15zm-20.7-245.7c-6.8-.1-10.6-4.7-8.5-11.2 2.6-7.9 8.4-13.5 15.3-17.6 4.5-2.7 12.5 4.3 12.3 10.4-.2 10.9-8.2 18.6-19.1 18.4zm172.7 472.1c-.3 5.3-1.8 10.4-6.8 12.5-6 2.5-11.8-.1-16.7-3.8-4.2-3-6-8.4-4.5-13.3.4-1.6 1.1-3.1 2.1-4.4 5.2-5.8 11.7-3.6 17.7-2 5.9 1.5 8.3 5.3 8.2 11zm-181.7-298.9c2.7 4.1 5.3 7.2 6.9 10.8 1.6 3.3 2.5 6.8 2.5 10.4-.1 4.7-1.7 9.4-6.8 11.2-4.6 1.7-9.1 1.7-12.8-2.4-3.9-4.3-6.1-9.3-3.2-14.6 3.1-5.6 6.2-11.6 13.4-15.4zm809.2 180.1c5.2 0 11.2 6.5 11.5 12.8.4 6.1-7.9 14.3-14.1 14.2-5.3-.2-14-10.1-14-16 0-5.7 7.9-10.9 16.6-11zm-699.4 47.7c-.1 7.7-3.7 11.9-10.2 11.9-9.6 0-15.7-6-15.7-15.5 0-5.7 8.6-12.8 14.8-12.3 5.5.4 11.3 8.7 11.1 15.9zm141.7 141.5c-8.3-.4-12.6-4.1-13.4-11.6-.5-5 1.9-9.5 6.1-11.4s15.6-.1 18.7 3.4c3.2 3.7 5 8 2.7 12.8-2.8 5.9-8.2 7-14.1 6.8zm541.6-122.7c-10.1-.6-13.9-3.6-13.4-10.6.5-7.8 7.7-14.9 14.8-14.5 6.5.4 12.7 6.9 12.3 13-.7 8.1-5.7 12.5-13.7 12.1zm-583.1 92.9c-8.4 0-14.3-4.5-14.2-10.6.1-6.5 7.5-13.1 14.7-13.2 7-.3 12.8 5.2 13.1 12.1v.9c-.2 7-5 10.8-13.6 10.8zm647-314c.1 7.5-4.5 13.6-10.3 13.6-6.1 0-12.6-6.5-12.8-13.1s6.3-15 12-15.3c4.6-.3 11 8.3 11.1 14.8zm-802.8-303.9c-7 0-9.8-2.5-9.6-8.3.2-7 7.2-15.3 13-15.5 6.8-.3 13 5.5 13 12.2-.1 5.6-8.5 11.6-16.4 11.6zm657.1 592.5c7-.2 11.2 4.8 11.2 13.4 0 6.6-4.1 11.7-9.5 11.8-5.6.1-14.5-8.4-14.8-14.1-.2-5.3 6.4-11 13.1-11.1zm-219.8 99.3c0 6.5-4.1 11-10 11-6.4-.1-13.8-6.9-14.1-13-.2-5.3 7.5-11.8 13.8-11.5 5.6.2 10.3 6.3 10.3 13.5zm75.9-24.2c5.4-.1 9.7 4.3 9.9 10.1.2 6.2-6.1 13.2-12.2 13.5-6.2.3-12.1-5.4-12.2-11.8s6.3-11.6 14.5-11.8zm265.1-246.6c-6.1-.1-10.2-4-10.3-9.7-.2-6.7 5.9-13.4 12.1-13.4 5.3 0 12.4 6.2 12.4 10.9.1 6.7-6.5 12.4-14.2 12.2zm-74.5 151.3c0 6-5.3 12.9-10 13.1-5.2.2-12.6-8.5-12.4-14.7.1-5.9 5.3-11.2 10.6-11 6 .3 11.9 6.5 11.8 12.6zm29.1-29c-.2 5.6-6.1 11.6-11.7 11.6-5.3 0-12.2-8-11.9-13.8.2-5.2 4.5-9.3 9.7-9.2 7 0 14.1 5.9 13.9 11.4zm-115.3 75.4c6.2.1 13.9 8.6 13.5 14.9-.3 4.6-6.4 10.2-10.8 9.8-3.9-.4-12.3-10-12.4-14.2-.1-5.7 4.6-10.6 9.7-10.5zm-134.4 68.5c.2 7.4-4.8 12.6-12.1 12.6-5.9 0-13.1-6.4-13-11.4.1-4.5 10.2-10.8 17.2-10.7 4.4 0 7.7 4 7.9 9.5zm-187.1 1.8c-8.2-.6-14-1.7-16.9-8.1-2.2-4.6-.5-8.6 4.4-10.2 6.1-2.1 17.6.8 20.8 6.2 1.2 1.9.8 6.3-.6 7.9-2.3 2.4-6.1 3.4-7.7 4.2zm253.5-9.1c-6.4-.1-9.9-4.4-10-12.4-.1-6 4.1-10.4 9.8-10.2 5.5.2 13.5 6.9 13.7 11.5.2 5.2-7.1 11.2-13.5 11.1zm-586.4-640.5c.2-8.9 11.1-16 19.4-12.6 3.8 1.5 4.9 4 3.7 7.9-2.2 7.4-8.2 11.1-14.5 14.2-4 1.8-8.8-3.7-8.6-9.5zm270.3-230.1c7.6-.1 12.2 3.8 12.1 10s-5.3 11.8-11.1 11.8-11.2-4.7-11.5-10.2c-.4-6.9 3.8-11.5 10.5-11.6zm-117.6 57.6c.4-6.1 5.5-11.2 10.8-10.8 5.9.4 11.4 6.5 11 12.1-.5 5.8-6 10.7-11.4 10.1-5.9-.7-10.7-6-10.4-11.4zm-75 65.4c4.3.2 10.2 6.3 10.1 10.6 0 4.9-7.4 11.3-12.4 11-5.2-.4-9.1-5.3-9-11.3.4-5.9 5.4-10.5 11.3-10.3zm1254.5 553c17-.3 23.4 12.1 24.2 24.8.7 11.7-9.4 20.7-21.9 21-10.6.3-23.6-12.3-23.8-23-.2-11.5 10.4-22.8 21.5-22.8zm5.6 29c.1-8.8-.6-9.7-8.9-11.6-2.2 8.4.3 11.7 8.9 11.6zm-29.9-113.1c.1-10.9 8-19.3 18.2-19.4 13.8-.2 27.3 10 26.9 21-.5 12.7-9.7 21.4-26 22-10.5.5-19.2-10.7-19.1-23.6zm22.7-2.3c-4.9 1.7-6 4.4-4.3 7.3 1.5 2.5 4.2 4.1 7.8.7l-3.5-8zm-30.6-109.1c.9-10.5 6.3-16.4 16.6-16.8 11.1-.3 20.5 3.4 25.2 14 1.7 3.8 2.5 9.8.7 13.1-3 5.8-7.4 10.8-12.8 14.5-9 5.9-20 1.3-25.2-9.8-2.3-4.5-3.1-9.9-4.5-15zm24.3 11.3c.5-2.5 1.7-4.7 1-6.1-1.3-2.5-3.1-4.6-5.3-6.4-.4-.3-3.1 1-3.8 2.2-1.8 3.3-.9 6.6 2.1 8.8 1.5 1 3.7.9 6 1.5zm-10.3-141.3c-10.9.3-22.6 12.7-22.1 23.5.3 10.7 9.3 19.2 20 18.9 13.9-.5 22.4-9.2 22.1-22.6-.3-10-10.5-20.1-20-19.8zm-2.3 24.3c-.2 0-.4 0-.5-.1l.6 1.8-3.1 1c-3.5-2-5.5-4.4.2-9.6l.6 1.9c.5-.7 1.4-1 2.2-1 3.9 0 3.9 6 0 6zm7.1 77.3c-9.6.1-14.9-3.2-18.2-12.3-1.6-4-2.5-8.2-2.9-12.5-.3-5.3-2.1-11.4 4.6-14.9 7.9-4.2 16.2-6.1 23.3-.2 5.3 4.5 9.4 10.2 12 16.6 4.2 10.7-6.5 23.2-18.8 23.3zm-1-27.3c-2.5 3.1-5.2 5.2-4.8 6.2.8 2.4 3.1 4.3 4.8 6.5 1.5-1.4 4.3-3 4.2-4.3-.3-2.4-2.2-4.6-4.2-8.4zm12.2 240.5c-12 0-19.7-7.9-19.6-20 .1-10.8 11.9-21.4 23.7-21.1 8.6.2 18.9 12.3 19.1 22.6.3 11.8-8.2 18.6-23.2 18.5zm7.4-20.2c-2.9-2-4.7-3.9-6.8-4.3-.9-.2-2.4 2.8-3.7 4.3 1.9 1.4 3.6 3.2 5.7 3.9.7.4 2.4-1.8 4.8-3.9zm-50.9-425.6c.2 6-.8 12-6.9 16-7.5 4.9-18.4 3.3-22.9-4.4-4.7-8.1-7.8-16.9-6.9-26.6.8-8 5.1-11.9 13.1-11.7 15.5.5 24 9.9 23.6 26.7zm-16.7 3.1c2.1-3.9 3.6-5.5 3.8-7.3.4-3.8-1.7-6.7-5.6-6.6-1.3 0-4 3.2-3.7 4.3.8 2.6 2.8 5.1 5.5 9.6zm51.3 582.5c1.5-4.7 2.3-9.7 4.6-14 4.5-8.5 12.6-11.1 21-6.5s13.5 11.9 13.6 21.7c.1 8.6-5.3 13.6-12.5 17.6-12.6 6.8-26.8-7.4-26.7-18.8zm15.1.3l9.5 3.9c-3-9.2-3.2-9.3-9.5-3.9zm3.3-79.1c9.9.2 18.7 8.2 18.5 16.9-.3 12.4-10.6 23.5-21.5 23-10.3-.4-18.8-9.9-18.7-20.7.1-12.1 8.4-19.4 21.7-19.2zm3.5 21.5c-.4-1.1-.4-2.6-1-2.8-2.3-.8-4.6-1.3-7-1.6-.4 0-1 2.1-1.5 3.2 2.2.9 4.5 1.7 6.8 2.4.8.2 1.7-.8 2.7-1.2zm-31.6-429.6c-.7 3.1-1.5 6.3-2.5 9.3-4.7 12.9-16.2 15.8-25.7 6-7.5-7.8-13-16.9-9.8-28.8 1.6-5.9 5.5-9.1 10.9-10.4 10.8-2.5 27.4 11.4 27.1 23.9zm-24-8.3c-1.4 9-1.4 9 6.6 12.7 4.8-8.1 3.7-10.4-6.6-12.7zM2959.7 942c12.1.2 22.2 15.1 18.1 26.5-3.3 9.2-13.5 16-23.3 15.7-4.6-.2-7.4-2.5-9.2-6.4-3.3-6.9-4.3-14.8-2.9-22.3 1.7-8.4 8.6-13.6 17.3-13.5zm7.8 20l-6.9-5.6c-1.5 1.9-3.8 3.6-4.3 5.7-.3 1.5 1.9 3.5 3 5.2l8.2-5.3zm25 77.7c1.5.3 4.7.9 8 1.6 7.7 1.7 10.4 7.2 11.9 14.3s-.3 12.2-6.2 16.4c-4.7 3.3-9.1 6.4-15.4 5.8-12.1-1.2-20.2-23.3-15.6-31.3 3.3-5.9 9.2-7.1 17.3-6.8zm4.6 16.2c-3.6-1.3-6.8-3-8.7 1.2-.4 1 .6 3.6 1.6 4 3.9 1.7 5.9-.6 7.1-5.2zm43.6 300.6c-10.2 0-15.7-8.2-16.1-21.7-.2-7.4 8.4-16.5 19-16.7 8.2-.2 18.8 12.2 18.9 21.5.1 9.7-9.3 17-21.8 16.9zm3.3-17.4c-1.2-1-2.4-2-3.7-2.9-.7.5-1.2 1.2-1.6 1.9.8 1.2 1.9 2.2 3 3.1.8-.7 1.6-1.4 2.3-2.1zm-100.7-442.7c-9.1.1-15.9 7.9-15.8 18.2 0 11 5 17 13.9 17 8.6 0 20.3-10.8 20.4-18.9.1-7.5-9.9-16.4-18.5-16.3zm.7 20.1c-3.9 0-3.9-6 0-6s3.9 6 0 6zm-1636.2 200.2c17-.2 33.9 2.3 50.2 7.3 8.6 2.7 17.2 5.2 25.7 8 2.2.6 4.3 1.7 6.1 3.2 11.8 11.3 23.8 22.6 32.3 36.5 4.8 7.8 7.2 17.1 10.6 25.8 3.4 8.6 4.7 18 3.7 27.2-.9 9.2 0 18.5-.1 27.8-.2 33-16.9 58.1-39.6 79.8-21.2 20.3-47.6 30.6-76.1 37.1-17.9 4-36.4 4.1-54.3.1-21.2-4.3-41.2-13.5-58.2-26.9-5.5-4.4-9.1-11.3-13.3-17.3-9.7-13.8-12.7-29.5-14.8-45.9-2.4-19.3.2-37.8 6.4-56 4.6-13.5 9-27.1 13.7-40.7 2.9-8.2 8-15.4 14.7-21 7.8-6.8 15.1-14.1 23-20.7 16.7-14.2 35.8-22.8 58-23.6 4.1-.2 8.1-.5 12-.7zm111.4 118.2c3.2-15.4-1.6-32.5-8.7-48.8-6.8-15.4-16.7-28.6-32.4-36.3-11.7-5.8-23.5-11.2-36.5-13.1s-26.3-3.5-39.5-5c-20.4-2.3-38 4.1-53.1 17.7-6.4 5.8-13 11.5-18.6 18-5 5.8-9.2 12.1-12.6 18.9-4 8.4-7.4 17.1-10.1 26-7.5 22.5-13.8 45.2-9.8 69.4 2.2 13.8 3.7 27.5 12.9 39.1 7.9 10 18.4 15.6 29.3 21.6 20.8 11.4 43 12.5 65 9.4 26.8-3.8 52-13.9 74.8-29 12.5-8.2 22.6-18.7 29.4-32 8.4-16.6 11.4-34.5 9.9-55.9zM2486 953.5c.1-9.2 4.2-13 11.8-12.4 21.4 1.8 20.2 6.2 11.3 21.2-2.5 4.2-5.2 7.7-10.7 7.3-5.8-.4-8.8-4.1-10.5-9.1-.9-2.7-1.5-5.6-1.9-7zm-38.4-115.9c1.7 3.9 3.5 7.8 5.2 11.8 2.4 5.8 1.8 8-3.3 11.8-1.6 1.2-3.3 2.3-5 3.3-3.8 2.2-7.7 4.3-12 1.3-3-2.1-4.9-10-2.6-13.8 2.4-3.9 5.4-7.3 9-10.2 2.4-2 6-2.7 9-4l-.3-.2zm-30-18.3c.1 4.5-5.2 10.6-9.9 12s-8.6-.2-11.9-4.7c-4-5.5-4.8-11-1.3-14.4 1.9-1.9 5.5-4.3 7.4-3.7 5.1 1.8 9.7 5 14.4 7.9.8.6 1 2.3 1.3 2.9zm116.3 219.5c-.1 8.1-2.7 11.7-7.9 12.7-4.2.8-8.8-1.9-10.9-7s-2.5-10.6.6-15.3c3.9-5.9 13.5-4.9 16.2 1.6.8 2.6 1.5 5.3 2 8z"/><path fill="none" stroke="#FFC107" stroke-miterlimit="10" d="M3049.6 1500.7c-8.6.1-11.1-3.2-8.9-11.6 8.3 1.9 9 2.8 8.9 11.6zm-7.2-115.4l3.5 8c-3.6 3.4-6.3 1.8-7.8-.7-1.6-2.9-.5-5.6 4.3-7.3zm-6.3-97.8c-2.4-.5-4.6-.5-5.9-1.5-2.9-2.2-3.9-5.4-2.1-8.8.6-1.2 3.4-2.5 3.8-2.2 2.2 1.7 4 3.9 5.3 6.4.6 1.4-.6 3.6-1.1 6.1zm-14.8-122l-.6-1.9c-5.6 5.2-3.6 7.6-.2 9.6l3.1-1-.6-1.8c-2.5-.3-3-3.3-1.7-4.9zm8.3 55c2 3.8 3.9 6.1 4.1 8.4.1 1.3-2.7 2.8-4.2 4.3-1.7-2.1-4-4.1-4.8-6.5-.3-1 2.4-3.1 4.9-6.2zm19.5 220.4c-2.4 2-4 4.2-4.9 3.9-2.1-.7-3.8-2.5-5.7-3.9 1.2-1.6 2.8-4.5 3.7-4.3 2.2.4 4 2.3 6.9 4.3zm-67.5-422.6c-2.7-4.5-4.7-7-5.4-9.7-.3-1.1 2.4-4.2 3.7-4.3 3.9 0 6 2.8 5.6 6.6-.3 1.9-1.8 3.5-3.9 7.4zm66.4 582.8c6.3-5.4 6.5-5.3 9.5 3.9l-9.5-3.9zm6.8-57.7c-1 .5-2 1.4-2.6 1.3-2.3-.7-4.6-1.5-6.8-2.4.5-1.1 1.1-3.3 1.5-3.2 2.4.2 4.7.8 7 1.6.5.1.6 1.6.9 2.7zm-55.6-437.8c10.3 2.3 11.3 4.5 6.6 12.7-8-3.6-8-3.6-6.6-12.7zM2967.5 962l-8.1 5.3c-1.1-1.8-3.3-3.8-3-5.2.4-2.1 2.8-3.8 4.3-5.7l6.8 5.6zm29.6 93.9c-1.2 4.7-3.2 6.9-7.1 5.2-1-.4-2-3-1.6-4 1.9-4.2 5.1-2.5 8.7-1.2zm46.9 283.2c-.7.8-1.5 1.5-2.3 2.1-1.1-.9-2.2-1.9-3-3.1.4-.8.9-1.4 1.6-1.9 1.3.9 2.5 1.8 3.7 2.9zm-1624.8-104.2c1.6 21.4-1.5 39.3-10.1 56-6.8 13.3-17 23.8-29.4 32-22.8 15.1-48 25.2-74.8 29-22 3.1-44.1 2-65-9.4-10.9-6-21.4-11.6-29.3-21.6-9.2-11.6-10.7-25.3-12.9-39.1-3.9-24.2 2.3-46.9 9.8-69.4 2.8-8.9 6.2-17.6 10.1-26 3.4-6.8 7.6-13.2 12.6-18.9 5.6-6.5 12.2-12.3 18.6-18 15.1-13.6 32.7-20.1 53.1-17.7 13.2 1.5 26.4 3.1 39.5 5s24.8 7.3 36.5 13.1c15.7 7.8 25.7 20.9 32.4 36.3 7.3 16.2 12.1 33.2 8.9 48.7z"/></svg>