<?xml version="1.0" encoding="utf-8"?>
<!-- Generator: Adobe Illustrator 19.2.1, SVG Export Plug-In . SVG Version: 6.00 Build 0)  -->
<svg version="1.1" id="Layer_1" xmlns="http://www.w3.org/2000/svg" xmlns:xlink="http://www.w3.org/1999/xlink" x="0px" y="0px"
	 viewBox="0 0 27.3 127.2" enable-background="new 0 0 27.3 127.2" xml:space="preserve">
<title>Untitled-3</title>
<path fill="#FFC107" stroke="#FFC107" stroke-miterlimit="10" d="M25.7,69.6c-0.1-0.5-0.1-1-0.2-1.5c-0.2-2-0.3-4-0.3-6
	c0-0.4,0-0.8,0-1.2c-0.2-1.5-0.3-3-1.1-4.4c-0.1-0.3-0.2-0.6-0.1-0.9c0.1-4.8,0.1-9.6,0.3-14.4c0.1-2.5,0.6-5,0.6-7.6
	c0-4.4-1-8.7-1.5-13c-0.6-4.4-2-8.7-4.2-12.5c-1.1-2.1-2.4-4-4-5.7c-2-2.3-5.5-2.6-7.9-0.6C5,3.5,3.4,5.6,2.6,8.2
	C0.5,14,0,20.3,1,26.5c0.3,2.1,0.8,4.3,1.3,6.4c1.2,4.7,2.7,9.3,4.5,13.9c1.5,3.6,2.3,7.4,3.6,11c0.1,0.7-0.1,1.4-0.5,1.9
	C8.3,60.8,0.6,66,1.7,69.8c0.3,1.2,2.6,3,7.3,6.7c0.8,0.6,1.5,1.4,2.4,1.9c1.5,1,1.5,1,1.1,2.9c-0.7,3.5-1.5,7-2.1,10.5
	c-0.8,4.9-0.7,9.9-2.2,14.7C8,107.2,8,107.9,8,108.5v4.4c0,2.8-0.1,5.7,0.2,8.5c0.1,1.9,1.1,3.7,2.7,4.8c1.8,0.8,3.8,0.9,5.7,0.3
	c1.7-1.9,3.4-3.8,5.1-5.8l0.7-0.7c0.2-0.5,0.4-1,0.5-1.6c0.9-4.3,1.4-8.8,1.4-13.2v-3.3c0-3-0.1-6.1-0.1-9.1c0-4.4,0.2-8.8,0.2-13.3
	c0-2.8-0.3-5.5,0.7-8.3C25.3,70.4,25.5,69.9,25.7,69.6z M9.6,43.8c-1.2-3.5-2.5-7-3.6-10.5c-0.7-2.3-1.1-4.6-1.4-7
	c-0.3-2.8-0.4-5.6-0.6-8.5c0-4,1-7.9,2.9-11.3C8.3,3.7,9.8,3.6,12,5c2,1.2,2.9,3.2,3.9,5.2c2.4,5,3.2,10.4,3.5,15.9
	c0.2,2.1,0.6,4.2,0.8,6.2c0.2,1.6,0.3,3.2,0.4,4.8h-0.2c-0.2,5.6-0.4,11.2-0.6,16.8c0,0.4-0.1,0.9-0.1,1.3c0,1-0.8,1.8-1.8,1.8l0,0
	c-3.1,0.4-3.1,0.4-4.3-2.5c-0.5-1.1-0.8-2.3-1.2-3.5C11.4,48.6,10.5,46.2,9.6,43.8z M20.6,111c-0.2,2.7-0.7,5.5-1.3,8.1
	c-0.5,2.2-2.3,3.1-4.3,3.5c-1.3,0.3-2.7-0.5-3.1-1.8c-0.4-0.8-0.6-1.6-0.7-2.5c-0.3-5.2,0-10.5,1-15.6c0.7-3,0.7-6.1,1.2-9
	c0.7-4.2,1.4-8.3,2.2-12.4c0.1-0.8,0.8-1.5,1.6-1.5c1-0.2,2-0.3,3.3-0.6c0.2,1.4,0.4,2.5,0.4,3.6c0,5.2-0.1,10.5-0.2,15.7
	C20.7,102.6,20.8,106.8,20.6,111z"/>
<path fill="#FFC107" stroke="#FFC107" stroke-miterlimit="10" d="M-10.2,83.5"/>
</svg>
