<svg xmlns="http://www.w3.org/2000/svg" viewBox="0 0 746.6 472.8"><title>submarine2</title><path fill="none" d="M0 0v472.8h746.6V0H0zm730.7 262.6c-1 3.2-2.1 6.3-3.1 9.5-.5 1.6-.8 3.2-2 4.5-.5.6-.8 1.2-1 2-1.2 2.9-2.6 5.7-4.3 8.3-1.7 2.6-3.1 5.5-4.6 8.2s-2.8 5.3-4.3 7.8c-3.2 5.1-6.6 10.1-9.8 15.2-1.9 3.1-3.7 6.3-5.3 9.5-1.8 3.5-4.3 6.4-6.5 9.5-2.1 3-3.9 6.1-6 9.1-1.6 2.3-3.3 4.6-5 6.8-3.9 5-7.8 10-11.8 14.9-1.9 2.3-3.8 4.5-5.8 6.8-2.9 3.4-5.4 7.1-7.4 11-2.3 4-5.5 7.4-9.3 10-5.9 4.3-12.8 4.9-19.7 5.5-5.1.5-10.3.5-15.5.6-3.6.1-7.1-.1-10.7.1-5 .2-10 .5-15 .7-3.4.1-6.8.1-10.2.3-1.4.1-2.7.3-4.1.4-3.4.3-6.8.5-10.2.8-2.6.2-5.2.7-7.8.8-6.6.2-13.2.3-19.9.5-5.5.2-10.9.5-16.4.7-2.3.1-4.6 0-7 0-1.4 0-2.7.1-4.1.1-4.7 0-9.3-.1-14 0-5.2 0-10.4.9-15.6 1.5-3.7.4-7.4.7-11.1 1-.8.1-1.6.3-2.4.3-1.5.1-3 .2-4.6.1-3.8-.3-7.5-.9-11.3-1.1-3-.1-6.1.1-9.2.2-4.1.1-8.1.3-12.2.5-2.6.1-5.2.5-7.8.6-7.9.3-15.7.7-23.5 0-2.9-.4-5.8-.5-8.7-.3-3.9.4-7.8.3-11.7.5-3.7.2-7.4-.1-11.1.2-10.2.9-20.4.6-30.6.9-3.9.1-7.9.5-11.8.7-3.4.1-6.7 0-10 .1-2.2 0-4.5.2-6.8.3l-13.5.6c-6.8.4-13.7.6-20.5 1.2s-13.3-.3-19.9-1.5c-1.2-.3-2.4-.7-3.5-1.2-3.9-1.5-7.8-3.1-11.7-4.6-2.9-1.2-5.8-2.3-8.7-3.5-2-.9-4-1.8-5.9-2.9-6-3.3-11.9-6.7-17.9-10.1l-.7-.5c-2.3-1.4-4.6-2.8-6.9-4.1-5.3-2.9-10.7-5.7-15.9-8.7-3.4-2-6.5-4.4-9.7-6.6-3-2.1-6.1-4.2-9.1-6.3s-6.3-4.4-9.4-6.7-5.9-4.7-8.9-7c-4.3-3.4-8.6-6.9-13-10.3-3.1-2.3-6.3-4.5-9-7.3-.3-.3-.6-.5-1-.8-1.7.9-2.2 2.6-3 4-1.3 3.2-3 6.2-4.8 9.1-.9 1.5-1.7 3-2.4 4.6-.7 1.6-1.5 3.1-2.5 4.5-2.7 3.5-4.6 7.4-6.7 11.2-1.6 2.8-3.5 5.4-5.2 8.1-.8 1.2-1.5 2.5-2.3 3.7s-1.2 2.3-2 3.4c-4 5.9-8.1 11.7-12.2 17.6-3.2 4.7-6.3 9.4-9.6 14-1.4 1.8-3 3.5-4.6 5.2-1.4 1.5-2.7 3-4.2 4.4-1.9 1.9-3.9 3.7-6.1 5.3-3 2.2-6.2 4.1-9.5 5.8-3.9 2-8.4 2.7-12.7 2-1.9-.3-3.6-1.2-4.9-2.6-2.7-2.6-5-5.7-6.7-9.1-.9-1.7-1.6-3.6-2.2-5.4-.8-3.2-.6-6.6.6-9.7 1.1-3.5 2.4-6.9 3.7-10.3 1.9-4.7 3.6-9.5 6.7-13.7 1.2-1.6 1.9-3.6 3.1-5.2 2.2-2.9 4.6-5.6 6.9-8.4s4.5-5.7 6.8-8.5c2.9-3.4 5.8-6.7 8.7-10.1 3-3.2 5.7-6.6 8.1-10.3.7-1.2 2-2.1 2.8-3.3 3.2-4.8 7.1-9 10.6-13.6s7.8-8.1 11.6-12.2 7.9-8.3 11.9-12.4c3.5-3.6 6.6-7.6 10.6-10.7 1.3-1 2.7-2 4-3.1.7-.5 1.2-1.2 2.1-2-.6-.2-1.2-.4-1.8-.4-3.7.1-7.4.4-11.1.5-1.9.1-3.9.1-5.9.1-1.5 0-2.9 0-4.3.1-3.4.4-6.8.9-10.2 1.2-5.6.5-11.3.8-17 1.2-.4 0-.8.1-1.2.1-.2 5.7-.7 11.3-1.6 17 0 .2-.1.4-.2.6 2.5 1.2 4.2 3.6 4.4 6.4.8 13.2-4.1 23.9-11 34.8-2 3.2-6.9 5.1-10.3 2.7-7.3-5.3-7.9-14.6-7.1-23.1-3.3-9.9-4.4-19.8-4.4-29.9-.2-.8-.3-1.7-.2-2.5.1-.8.2-1.6.3-2.5.2-4.9.5-9.9.9-14.9.9-9.9.8-19.9-.4-29.8-1.3-10.4-2.5-20.4-.5-30.7.9-4.5 7.2-7.1 11-4.5 7 4.9 11.8 12.5 15.8 20 4.2 7.9 7.9 16.9 8.3 26 .3 6.3-2.1 10.8-5.5 14.8l.3 3.3c1.1 1.6 1.3 3.7.6 5.5l-.3.9v2.1h1.2l6.5-.4c.6-.1 1.2-.1 1.8 0 5 .8 9.8-.6 14.8-.9 3.5-.2 7-.7 10.4-.9s6.8-.2 10.3-.4c.7-.1 1.5-.3 2.2-.5-.8-1-1.6-2-2.5-2.8-2.6-2.2-5.1-4.3-7.8-6.3-5.2-3.9-9.6-8.8-14.4-13.1-2.5-2.3-5-4.6-7.5-7-.9-1-1.8-2.1-2.7-3.1-.2-.2-.3-.5-.6-.7-4.8-4.9-9-10.2-12.7-16-1.2-1.8-2.6-3.5-3.7-5.4-.9-1.5-1.7-3-2.5-4.6-2.3-4.9-4.6-9.9-6.8-14.9-1-2.3-1.7-4.6-2.5-7-.2-.6-.3-1.1-.6-1.6-1.6-4.1-2.4-8.4-2.3-12.8.1-3.6.5-7.3 1.3-10.8.6-2.9 1.3-5.7 2.1-8.5.9-2.8 2.3-5.3 4.1-7.6 1.8-2.5 4.3-4.1 6.7-5.8 1.6-1.1 3.6-1.5 5.4-.9 3.5.9 6.6 2.8 9 5.5 2.8 3.1 5.5 6.2 8.4 9.2 1.3 1.1 2.5 2.2 3.6 3.5 1.5 2.1 3.3 4 4.8 6.2 1.8 2.6 3.3 5.3 5 7.9 2.6 4 4.4 8.5 6.6 12.7.8 1.5 1.9 2.9 2.7 4.5 3.5 7.1 6.9 14.2 10.3 21.4 1 2.1 1.9 4.3 2.8 6.4 1.9 4.3 5.1 7.8 7.3 11.9.6 1.1 1.3 2.1 2 3.2.5-.3 1-.6 1.4-.9 3.3-3.4 6.6-6.8 9.8-10.3 4.1-4.5 8.1-9.1 12.3-13.6 3.1-3.3 6.3-6.4 9.6-9.5 3.6-3.5 7.4-6.8 11.1-10.2 1.1-1 2.5-1.8 3.6-2.8 3.6-3.2 7-6.5 10.7-9.6s7.7-6.3 11.7-9.1c6.5-4.5 13.2-8.8 19.9-13.1 3-1.9 6.1-3.6 9.4-5.2 1.8-.9 3.6-1.5 5.6-1.8 5.1-1.1 10.3-1.8 15.5-2.3 5.4-.5 10.7-1.3 16-2 .2 0 .4 0 .6-.1 4.2-2 8.7-2.2 13.1-2.6 8.2-.8 16.4-1.2 24.6-1.9 5.7-.4 11.3-.9 17-1.5 2.4-.2 2.5-.4 2.6-2.8.1-3.9 0-7.9.1-11.8.1-3.1.3-6.1.6-9.1.2-2.4.5-4.8.8-7.2.3-1.4.6-2.7 1.1-4 .2-.5.6-1 1.1-1.3 5.8-4.1 11.8-7.7 18.8-9.3 3.9-.9 7.7-2.5 11.6-3.7 1.8-.6 3.6-1.1 5.5-1.4 4.8-.7 9.5-1.4 14.3-2 1.6-.2 1.8-.4 1.9-2.1.3-7.2.5-14.3.7-21.4 0-1.5.3-3.3-1.7-4.1-.3-.2-.5-.6-.5-.9-.1-1.5-.1-3-.1-4.6 0-1.6 1.1-2.9 2.6-3.2 3.7-1.2 7.5-1.8 11.4-2 2.5 0 5-.5 7.6-.8.6-.1 1.2-.1 1.7 0 1.5.2 2.3.9 2.4 2.4.1 1.5.1 3.1-.1 4.6-.3 2.1-1.4 3-3.7 3.4s-2.4.4-2.6 2.8c-.4 5.4-.8 10.7-1.1 16.1-.1 1.5 0 2.9.1 4.4.1 1.4.5 1.7 2 1.8h1.8c6.4-.3 12.8-.7 19.2-1 3.9-.2 7.9-.3 11.8-.5 2-.1 2.3-.5 2.2-2.6 0-1.3.1-2.6 0-3.9-.1-2.3-.1-4.7-.3-7-.4-5.7.3-11.3.8-17 .3-3 .4-6 .6-8.9l1.2-13.5c.2-1.7 1-3.4 2.2-4.7 2-2.3 4.5-4.2 7.2-5.6 2.9-1.5 5.8-3 8.8-4.5 3.9-2.1 8.2-2.8 12.5-3.6 4-.7 8.1-1.2 12.1-1.9 3.7-.7 7.4-1.5 11.1-2.1 1.5-.3 3-.4 4.6-.4 3.6.3 6.6 2.8 7.4 6.2.9 4.4 1.1 8.9.6 13.3-.3 2.6-2 4-4.5 4.5-2.3.6-4.6 1.3-6.8 2.1-4.1 1.3-8.2 2.7-12.2 4.1-4.4 1.5-9 2.2-13.3 4.1-4.1 1.9-6.6 4.6-6.9 9.2-.1 1.4-.4 2.7-.7 4.1-.6 3.1-.9 6.4-.8 9.6.1 5.4 0 10.9.2 16.4.1 2.3.4 2.4 2.7 2.4s4.7-.3 7-.4c6.8-.3 13.7-.6 20.5-.8 2.9-.1 5.8 0 8.7 0 7.6-.2 14.8 1.8 21.9 4.4 2.6 1 5.2 1.9 7.8 2.8s4.7 2.6 5.4 5.5c1.2 4.9 2.7 9.8 3 15 .2 3 .6 5.9.8 8.9.1 1.5-.2 3-.2 4.6-.1 3.2-.1 6.4-.2 9.6 0 1.4.3 1.8 1.8 1.8l25.1.6h.4c6.2-1 12.3.4 18.5.7 5.2.2 10.5.8 15.6 1.7 3.9.7 7.9 1.2 11.3 3.7.4.3.9.5 1.4.5 4.9.9 9.6 2.3 14.2 4.1 2 .8 4.2 1.4 6.3 1.8 3.3.7 6.4 1.9 9.4 3.4 3 1.4 6 2.7 8.9 4.2 2.1 1.1 4.1 2.4 6.1 3.8 2.4 1.8 4.7 3.8 7.1 5.5 6.5 4.7 11.8 10.5 17.9 15.6 4.2 3.5 8.1 7.3 12.1 11 1 .9 1.9 2 2.9 3 3.3 3.4 6.6 6.8 9.9 10.1 1.6 1.6 3.4 3 4.9 4.6 3.5 3.6 6.9 7.2 10.4 10.9.8.8 1.5 1.7 2.4 2.5 1.9 1.9 3.5 4.1 4.8 6.4 1.1 1.9 2.7 3.6 4 5.4 3 4.4 4.9 9.3 5.6 14.5.1 1.1.3 2.2.6 3.2.6 2.1.1 3.4-.3 4.8z"/><path fill="#FFC107" stroke="#FFC107" stroke-miterlimit="10" d="M212.1 252.5c-1.7-3.2-3.9-6.2-6.6-8.7-2.3-1-4.6-1.9-7-2.7-1.3-.4-2.7-.7-4-.9-2.4.2-4.7-.7-7-.5-.7.5-1.4.9-2.2 1.2-2.2.9-4.4 1.6-6.6 2.4-4.5 1.8-8.4 4.8-11.2 8.8-1.1 1.5-2.3 3-3.4 4.5-.9 1.1-1.6 2.4-2.2 3.8-1.2 3.3-2.7 6.6-2.7 10.3 0 2.3-.6 4.6-.8 6.9-.1 2-.6 4 .4 6 .1.3.2.6.1.9-.4 2.6 1 4.5 2.4 6.3.8 1.2 1.7 2.3 2.7 3.4 2.1 1.9 4.6 3.3 7.3 4 5.6 1.6 11.5 1.5 17-.4 1.1-.4 2.3-.5 3.4-.8 4.9-1.4 8.8-4.4 12.6-7.5 4.5-3.8 8-8.6 10.2-14 1.2-2.9 1.8-6 1.8-9.2 0-.9.1-1.8.3-2.6-.1-.1-.1-.2-.2-.3-.5-2-1.2-3.9-2.1-5.7-.6-1.8-1.3-3.5-2.2-5.2zm-1.8 23.9c-3.4 7.2-9.2 12.1-15.9 15.9-.7.4-1.5.7-2.2.8-4.5 1-8.7 2.9-13.8 3-2.4-.2-4.8-.7-7-1.6-4.3-1.6-6.5-4.9-7.5-9.1 0-.2-.1-.4-.2-.6-1.8-3.8-1.3-7.6-.6-11.5.5-2.4.9-4.9 1.4-7.3 1.1-4.6 3.5-8.9 6.9-12.2.8-.8 1.5-1.8 2.3-2.6.4-.4.8-.8 1.3-1.1 3.7-2.1 7.7-3.9 11.8-5.1 1.6-.4 3.1-.6 4.8-.6 4.7 0 9.3 1.3 13.2 3.8 1.3.8 2.3 2 3.1 3.3 2 3.3 4 6.6 4.4 10.6.7 4.8 0 9.8-2 14.3zm342.8-36.9c.9.6 2.1.4 2.8-.4.1-.1.2-.2.2-.4.2-.3.3-.6.5-.9-.1-1-.3-2.1-.3-3.1-.3-.2-.5-.3-.8-.5-1.2-.6-1.8-.5-2.7.5-1.1 1.4-1 3.5.3 4.8zm75.6-74.5c-.6-1-1.2-1.9-2-2.7-1.6-.3-3.2.7-3.5 2.4v.1c.5.5.9 1.1 1.2 1.7.3.6.5 1.1.7 1.8 1.2.7 2.7.6 3.8-.4-.1-1-.1-2-.2-2.9zm-2.3 1c-.4 0-.6-.4-.6-.7 0-.3.3-.5.6-.6.4 0 .6.4.6.7-.1.3-.3.6-.6.6z"/><path fill="#FFC107" stroke="#FFC107" stroke-miterlimit="10" d="M731 258.4c-.3-1-.5-2.1-.6-3.2-.7-5.2-2.6-10.2-5.6-14.5-1.3-1.8-2.8-3.5-4-5.4-1.3-2.4-2.9-4.5-4.8-6.4-.8-.8-1.6-1.7-2.4-2.5-3.5-3.6-6.9-7.3-10.4-10.8-1.6-1.6-3.3-3-4.9-4.6-3.3-3.3-6.6-6.7-9.9-10.1-1-1-1.8-2.1-2.9-3-4-3.7-7.9-7.5-12.1-11-6.1-5.1-11.5-10.9-17.9-15.6-2.4-1.8-4.6-3.8-7.1-5.5-1.9-1.4-4-2.7-6.1-3.8-2.9-1.5-5.9-2.8-8.9-4.2-3-1.5-6.1-2.7-9.4-3.4-2.1-.4-4.3-1.1-6.3-1.8-4.6-1.8-9.3-3.2-14.2-4.1-.5-.1-1-.2-1.4-.5-3.4-2.4-7.4-3-11.3-3.7-5.2-.9-10.4-1.5-15.6-1.7-6.2-.3-12.3-1.7-18.5-.7h-.4l-25.1-.6c-1.4 0-1.8-.4-1.8-1.8.1-3.2.1-6.4.2-9.6 0-1.5.3-3.1.2-4.6-.2-3-.6-5.9-.8-8.9-.3-5.1-1.8-10-3-15-.7-2.9-2.8-4.5-5.4-5.5-2.6-1-5.2-1.9-7.8-2.8-7.1-2.6-14.3-4.6-21.9-4.4-2.9.1-5.8-.1-8.7 0-6.8.2-13.7.5-20.5.8-2.3.1-4.6.3-7 .4s-2.6-.1-2.7-2.4c-.2-5.5-.1-10.9-.2-16.4-.1-3.2.2-6.4.8-9.6.3-1.3.6-2.7.7-4.1.3-4.6 2.8-7.4 6.9-9.2 4.3-1.9 8.9-2.6 13.3-4.1 4-1.4 8.1-2.7 12.2-4.1 2.2-.8 4.5-1.6 6.8-2.1 2.5-.5 4.3-1.9 4.5-4.5.5-4.4.3-8.9-.5-13.3-.9-3.5-3.9-6-7.4-6.2-1.5 0-3.1.1-4.6.4-3.7.7-7.4 1.5-11.1 2.1-4 .7-8 1.2-12.1 1.9-4.3.8-8.6 1.6-12.5 3.6-2.9 1.5-5.8 3-8.8 4.5-2.7 1.4-5.2 3.3-7.2 5.6-1.2 1.3-2 2.9-2.2 4.7l-1.2 13.5c-.2 3-.4 6-.6 8.9-.5 5.7-1.2 11.3-.8 17 .1 2.3.2 4.7.3 7 0 1.3-.1 2.6 0 3.9.1 2.1-.2 2.5-2.2 2.6-3.9.1-7.9.3-11.8.5-6.4.3-12.8.7-19.2 1h-1.8c-1.5-.1-1.8-.3-2-1.8-.2-1.5-.2-2.9-.1-4.4.3-5.4.7-10.7 1.1-16.1.2-2.4.2-2.4 2.6-2.8s3.4-1.3 3.7-3.4c.2-1.5.3-3 .1-4.6-.1-1.5-.9-2.2-2.4-2.4-.6-.1-1.2-.1-1.7 0-2.5.3-5 .8-7.6.8-3.8.1-7.6.8-11.3 1.9-1.5.3-2.6 1.6-2.6 3.1s0 3 .1 4.6c0 .4.2.7.5.9 2 .8 1.7 2.5 1.7 4.1-.2 7.1-.5 14.3-.7 21.4-.1 1.6-.3 1.8-1.9 2.1-4.8.6-9.5 1.2-14.3 2-1.9.3-3.7.8-5.5 1.4-3.9 1.2-7.7 2.7-11.6 3.7-7 1.7-13.1 5.2-18.8 9.3-.5.3-.9.8-1.1 1.3-.5 1.3-.9 2.6-1.1 4-.4 2.4-.6 4.8-.8 7.1-.3 3-.5 6.1-.6 9.1-.1 3.9 0 7.9-.1 11.8-.1 2.5-.2 2.6-2.6 2.8-5.7.5-11.3 1-17 1.5-8.2.6-16.4 1.1-24.6 1.9-4.4.4-9 .5-13.1 2.6-.2.1-.4.1-.6.1-5.3.7-10.7 1.6-16 2-5.2.5-10.4 1.3-15.5 2.3-1.9.4-3.8 1-5.6 1.8-3.2 1.6-6.3 3.3-9.4 5.2-6.7 4.3-13.4 8.6-19.9 13.1-4.1 2.8-7.9 5.9-11.7 9.1-3.8 3.2-7.1 6.4-10.7 9.6-1.1 1-2.5 1.8-3.6 2.8l-11.1 10.2c-3.3 3.1-6.5 6.2-9.6 9.5-4.2 4.5-8.2 9.1-12.3 13.6-3.2 3.5-6.5 6.9-9.8 10.3-.4.4-.9.7-1.4.9-.7-1.1-1.5-2.1-2-3.2-2.2-4.1-5.4-7.6-7.3-11.9-.9-2.1-1.8-4.3-2.8-6.4-3.4-7.1-6.8-14.3-10.3-21.4-.8-1.5-1.9-2.9-2.7-4.5-2.2-4.2-4-8.7-6.6-12.7-1.7-2.6-3.2-5.4-5-7.9-1.5-2.1-3.3-4-4.8-6.2-1.1-1.2-2.3-2.4-3.6-3.5-2.9-3-5.6-6.1-8.4-9.2-2.4-2.7-5.5-4.6-9-5.5-1.8-.6-3.8-.3-5.4.9-2.4 1.7-4.9 3.3-6.7 5.8-1.8 2.3-3.2 4.9-4.1 7.6-.9 2.8-1.6 5.6-2.1 8.5-.7 3.6-1.2 7.2-1.3 10.8-.1 4.4.7 8.7 2.3 12.8.2.6.4 1.1.6 1.6.8 2.3 1.5 4.7 2.5 7 2.2 5 4.5 9.9 6.8 14.9.7 1.6 1.5 3.1 2.5 4.6 1.2 1.8 2.5 3.5 3.7 5.4 3.7 5.8 7.9 11.1 12.7 16 .2.2.3.5.6.7.8 1.1 1.7 2.1 2.7 3.1 2.4 2.4 4.9 4.8 7.5 7 4.8 4.3 9.2 9.1 14.4 13.1 2.7 2 5.2 4.1 7.8 6.3.9.9 1.7 1.8 2.5 2.8-.7.2-1.5.4-2.2.5-3.4.1-6.8.1-10.3.4s-7 .7-10.4.9c-4.9.3-9.8 1.8-14.8.9-.6-.1-1.2-.1-1.8 0l-6.5.4h-1.2c-.7-.1-15.4-1.6-16.8 2.9-.2.5-.2 1.3.2 2.2 7.5-.7 13.6-1.1 17.7-1.3 11.4-.7 12.5-.8 17-1.2 3.4-.3 6.8-.9 10.2-1.2 1.4-.1 2.9-.1 4.3-.1 1.9 0 3.9 0 5.9-.1 3.7-.2 7.4-.4 11.1-.5.6.1 1.2.2 1.8.4-.9.8-1.5 1.4-2.1 2-1.3 1-2.7 2.1-4 3.1-4 3.1-7.1 7.1-10.6 10.7-4 4.2-8 8.3-11.9 12.4s-8.2 7.6-11.6 12.2-7.4 8.9-10.7 13.7c-.8 1.2-2.1 2.1-2.8 3.3-2.4 3.6-5.1 7.1-8.1 10.3-2.9 3.4-5.9 6.7-8.7 10.1-2.3 2.8-4.5 5.7-6.8 8.5s-4.7 5.5-6.9 8.4c-1.2 1.6-2 3.6-3.1 5.2-3.1 4.2-4.8 9-6.7 13.7-1.3 3.4-2.6 6.8-3.7 10.3-1.1 3.1-1.3 6.5-.6 9.7.6 1.9 1.3 3.7 2.2 5.4 1.7 3.4 3.9 6.5 6.7 9.1 1.3 1.4 3 2.3 4.9 2.6 4.3.7 8.8 0 12.7-2 3.3-1.7 6.5-3.6 9.5-5.8 2.2-1.6 4.2-3.4 6.1-5.3 1.5-1.4 2.8-2.9 4.2-4.4 1.7-1.6 3.2-3.3 4.7-5.1 3.3-4.6 6.4-9.4 9.6-14 4-5.9 8.1-11.7 12.2-17.6.7-1.1 1.3-2.3 2-3.4s1.5-2.5 2.3-3.7c1.7-2.7 3.6-5.3 5.2-8.1 2.2-3.8 4-7.7 6.7-11.2 1-1.4 1.8-2.9 2.5-4.5s1.5-3.1 2.4-4.6c1.9-2.9 3.5-6 4.8-9.1.7-1.5 1.2-3.1 2.9-4 .4.2.7.5 1 .8 2.7 2.8 5.9 4.9 9 7.3 4.4 3.3 8.7 6.8 13 10.2 3 2.3 5.9 4.8 8.9 7s6.2 4.5 9.4 6.7 6.1 4.2 9.1 6.3c3.2 2.2 6.4 4.6 9.7 6.6 5.2 3.1 10.6 5.8 15.9 8.7 2.3 1.3 4.6 2.7 6.9 4.1l.7.3c5.9 3.4 11.9 6.8 17.9 10.1 1.9 1 3.9 2 5.9 2.9 2.9 1.2 5.8 2.4 8.7 3.5 3.9 1.6 7.8 3.1 11.7 4.6 1.1.5 2.3.9 3.5 1.2 6.6 1.3 13.1 2.2 19.9 1.5s13.6-.9 20.5-1.2l13.5-.6c2.2-.1 4.5-.3 6.8-.3 3.4-.1 6.7 0 10-.1 3.9-.1 7.9-.6 11.8-.7 10.2-.3 20.4.1 30.6-.9 3.7-.3 7.4 0 11.1-.2 3.9-.2 7.8-.1 11.7-.5 2.9-.2 5.8-.1 8.7.3 7.9.7 15.7.3 23.5 0 2.6-.1 5.2-.5 7.8-.6 4.1-.2 8.1-.4 12.2-.5 3.1-.1 6.1-.4 9.2-.2 3.8.2 7.5.8 11.3 1.1 1.5.1 3.1 0 4.6-.1.8 0 1.6-.2 2.4-.3 3.7-.4 7.4-.6 11.1-1 5.2-.6 10.4-1.5 15.6-1.5h14c1.4 0 2.7-.1 4.1-.1 2.3 0 4.6.1 7 0 5.5-.2 10.9-.5 16.4-.7 6.6-.2 13.2-.3 19.9-.5 2.6-.1 5.2-.6 7.8-.8 3.4-.3 6.8-.5 10.2-.8 1.4-.1 2.7-.4 4.1-.4 3.4-.1 6.8-.1 10.2-.3 5-.2 10-.6 15-.7 3.5-.1 7.1 0 10.7-.1 5.2-.1 10.3-.1 15.5-.6 6.9-.6 13.8-1.2 19.7-5.5 3.8-2.6 7-6 9.3-10 2-3.9 4.5-7.6 7.4-11 2-2.2 4-4.5 5.8-6.8 4-4.9 7.9-9.9 11.8-14.9 1.8-2.2 3.4-4.5 5-6.8 2.1-3 3.9-6.1 6-9.1 2.2-3.2 4.8-6.1 6.5-9.5 1.6-3.2 3.4-6.4 5.3-9.5 3.2-5.1 6.6-10.1 9.8-15.2 1.6-2.5 2.9-5.2 4.3-7.8s2.8-5.6 4.6-8.2c1.7-2.6 3.2-5.4 4.3-8.3.2-.7.5-1.4 1-2 1.2-1.3 1.5-3 2-4.5 1.4-4.5 2.6-6.6 3.1-9.5.2-2.2.2-3.6.2-4.6zM492.9 19.9l.6.1c.3 1.2.5 2.4.6 3.6.1 2.8.1 5.5.1 8.3 0 1.1-.9 2-2 2.2-.9.1-1.5-.4-1.9-1.7-.9-3.2-.1-6.3 1-9.4.5-1.1 1-2.1 1.6-3.1zm-60.8 62.2c.1-4.1.1-8.2.2-12.2.2-5.4.7-10.7 1-16.1.2-3.6.5-7.3.7-10.9 0-3.1.7-6.1 1.8-8.9.7-1.6 1.9-2.9 3.3-3.9 6.3-4.6 13.6-7.7 21.3-9.2 5.7-1 11.3-2 17-2.8 3.4-.5 6.8-.8 10.2-1.2h1.3c1.8.1 2.1.7 1.3 2.4-1.1 2.5-2.2 5.1-3.3 7.6-.9 2.3-.8 4.9.3 7.2.7 1.6.5 2-1.2 2.5-6.1 1.8-12.2 3.3-18.2 5.4-4.1 1.3-8.3 2.7-11.9 5.2-2.8 1.8-4.7 4.6-5.6 7.8-1.5 5.5-1.9 11.2-2.4 16.8-.5 5.2-.4 10.5.2 15.7.2 1.5-.1 1.9-1.9 1.9H432c.1-2.7 0-5 .1-7.3zm-54.3-22.3c1.2-.5 2.5-.8 3.8-1 4-.5 8.1-.9 12.1-1.3 2.2-.2 2.6.1 2.6 2.5s-.2 2.7-2.5 3c-1.7.1-3.5.2-5.2.1-2 0-4.1-.2-6.1-.1s-4 .3-6 .5c-.7-1.9-.4-3 1.3-3.7zm11.4 8.9c-.2 3.8-.5 7.7-.8 11.5-.2 2.9-.3 5.8-.4 8.7-.1 2.2 0 2.3-2.2 2.7-2.5.6-5.1 1-8.1 1.7-.1-2.5-.3-4.6-.3-6.7.2-5.9.5-11.9.8-17.8.1-2.4.1-2.6 2.5-2.9 1.9-.2 3.8-.3 5.6-.2 2.6.1 3 .6 2.9 3zm-66.6 75.8c.2-7.1.4-14.1.7-21.2.1-2.7.7-5.3.9-8s2-4.1 3.9-5.2c2.8-1.5 5.8-2.8 8.8-3.9 1.9-.8 3.8-1.4 5.8-2 .8-.3 1.7-.5 2.5-.7 1.9-.5 3.8-.9 5.7-1.4 4.2-1 8.4-1.9 12.5-2.8 3.1-.7 6.2-1.3 9.4-1.9 1-.1 2-.1 3 0 2-.7 4-1.3 6.1-1.8 4.6-.7 9.2-1.2 13.8-1.8 2.2-.3 4.3-.6 6.5-.8 2.7-.2 5.5-.3 8.2-.4 3.7-.2 7.4-.6 11.1-.7 2.5-.1 5.1.2 7.6.2h16.8c.4-.1.9-.1 1.3 0 1.8.3 3.6.3 5.4.1 3-.2 6.1-.1 9.1-.2 3.6-.1 7.3-.4 10.9-.5s7.3 0 10.9-.1c.8 0 1.6-.2 2.4-.2 5.2-.2 10.3.2 15.4 1.3 3.8 1.1 7.5 2.3 11.1 3.8 1.4.5 2.9.9 4.4 1.2 2.6.5 4.6 2.5 5.2 5 2.5 7.9 3 16 3.2 24.2.1 3.9-.3 7.7-.4 11.6-.1 1.6-.2 1.8-1.7 1.9-2.5.2-5.1.3-7.6.3-5 .1-10 .1-15.1.1-1.8 0-3.6-.2-5.5-.4-2.8-.4-5.7-.5-8.5-.1-2.3.3-2.7-.1-3.3-2.5-.8-3.2-1.6-6.5-2.5-9.7-.4-1.2-.9-2.3-1.5-3.4-.8-1.6-1.5-3.3-2.4-4.9-1.4-2.4-3.7-3.9-6-5.3s-4.9-2.5-7.3-3.8c-1.4-.8-2.7-1.7-4.1-2.5-.8-.5-1.6-.9-2.5-1.2-7-1.8-14-4.3-21.4-3.7-2.9.2-5.8.1-8.7.3-3.2.3-6.5.9-9.7 1.5s-6.5 1.4-9.8 2.3c-2.7.8-5.4 1.7-8 2.7-5.3 2-10.5 4.2-15.8 6.2-2.4.9-4.1 2.7-6.1 4.1-3.5 2.5-6 5.9-8.6 9.2-3.3 4.2-5.5 9.1-6.5 14.4-.3 1.8-.6 2-2.5 2.1-3.6.1-7.3.1-10.9.1-8 .1-16 .1-24 .2-1.7.3-2.2 0-2.2-1.7zm141.2-22.7c-2.9-3-6.1-5.7-10.1-7-2.4-.8-4.9-1.5-7.4-1.8-5-.7-9.9-1.9-14.9-1.6s-9.9.7-14.7 1.4c-3.7.6-7.3 1.5-10.8 2.7-2.1.6-4.1 1.9-6.2 2.6-7.3 2.3-13.4 6.7-19.5 11-3.7 2.7-6.5 6.5-8 10.9-.4 1.2-.9 2.4-1.5 3.6-1 2.2-1.6 2.6-4 2.4-.6-.1-1.2-.2-1.7-.3-.1-.4-.1-.8 0-1.2 1.3-5.2 3.7-10 6.8-14.3 2.3-3 4.7-6 7.9-8 2.6-1.7 5.4-3.2 8.2-4.6 5.3-2.7 10.9-4.9 16.6-6.6 4.4-1.5 8.9-2.6 13.5-3.1 1.2-.2 2.4-.4 3.6-.7 6.1-1.2 12.2-.9 18.3-.4 3.9.3 7.8 1.8 11.6 2.8 1.4.3 2.7.7 4 1.2 5.2 2 9.9 5 13.9 8.9.8.8 1.6 1.5 2.4 2.2 4.6 3.9 5.5 9.3 6.6 14.8.2.9.3 1.9.5 2.8 0 .1-.1.3-.1.4-2.8.8-3.6.4-4.6-2.3-2.3-5.9-5.8-11.3-10.4-15.8zm6.9 18.6c-1.3.1-2.1.3-3 .4-5.1.2-10.2.5-15.3.7-4.4.1-8.7.2-13.1.4-3.4.1-6.8.3-10.3.4-7 .3-14.1.5-21.1.9-5.1.3-10.2.7-15.2 1l-15.7 1.1c-.8.1-1.7 0-2.7 0 .1-.4.2-.9.4-1.3 1.6-3.2 3.4-6.2 5.4-9.2 3.3-4.6 7.7-8.2 12.9-10.4 7.5-3.1 15-6.1 22.9-7.8 5.6-1.4 11.4-1.9 17.1-1.5 3.6.2 7.1.6 10.6 1.2 5 .9 9.7 2.8 13.9 5.5 3.4 2.4 6.3 5.5 8.5 9 1.3 2 2.4 4.2 3.5 6.3.5 1 .9 2.1 1.2 3.3zM287 223.9c.1-4.4.6-8.9.9-13.3.5-6.5 1-13.1 1.4-19.6.2-4 .1-8 .1-12 0-6-.1-12-.3-17.9 0-2.3-.4-4.6-.4-7 0-2.1.4-2.6 2.5-2.8 4.5-.4 9-.7 13.5-1 5.3-.3 10.6-.6 15.9-.8 4.6-.1 9.2 0 13.8-.1s9-.2 13.5-.3 9.2-.6 13.7-.3c3.3.1 6.7.1 10-.2 3.4-.2 6.8-.9 10.2-1.2 4.4-.3 8.9-.4 13.3-.6 1.2-.1 2.5-.2 3.7-.3 4.9-.3 9.7-.6 14.6-.9 5.3-.3 10.6-.6 15.9-.7 5.9-.2 11.8-.2 17.7-.4 4.2-.1 8.4-.5 12.6-.6 2.6-.1 5.2-.1 7.9-.1l14.2-.4h5c3.1 0 6.2.1 9.4.2 2.5.1 5 .3 7.6.4s4.8 0 7.2.1c1.5 0 3 .1 4.6.1 2.9.1 5.9-.1 8.7.4s5.3-.2 8-.3c2.8-.1 5.7.1 8.5.1.7.1 1.4.1 2.2.1 5.1-.7 10.2-.3 15.3.1 1.7.1 3.3-.1 5-.1 2.4.1 4.8.5 7.2.6 6 .3 12 .8 18 1.8 3.2.4 6.3 1.2 9.2 2.4 3.5 1.8 6.7 4.1 9.4 6.9 3.3 3.1 5.9 6.8 8.7 10.4 2.5 3.5 4.7 7.1 6.7 10.9 1.9 3.4 3.9 6.6 5.6 10.1 1.6 3.3 2.9 6.7 4.3 10 1.3 3.2 2.7 6.3 3.8 9.5 1.5 4.3 3 8.7 4.3 13.1 1.7 5.4 3.2 10.7 4.7 16.1.3 1.2.5 2.6.8 3.9.8 3.8 1.7 7.5 2.5 11.3.5 2.1.3 2.4-2 2.5-1.1 0-2.2.1-3.3.1-.9.1-1.8-.5-2.1-1.4.6-.3 1.2-.7 1.8-1.2.8-.9.5-1.7-.7-2.2-1.7-.7-2.3-.6-3.1.5-1.1 1.4-1 2.2.1 3.6.1.2.2.5.3.8l-8.6 1.2c.3-.5.6-1 1-1.4.8-.4 1.2-1.4.8-2.2-.3-1.4-.7-2-1.8-2.1-1.2-.1-2.3.6-2.7 1.8-.2.6-.3 1.1-.3 1.7 0 .7 0 1.3.1 2-4.8 1-9.7 1.4-14.7 1 .4-.8.7-1.3 1-1.8.5-.8.4-1.9-.3-2.6-.5-.4-1.1-.6-1.8-.5-1 .3-1.6 1.2-1.5 2.2.1.6.2 1.3.3 1.9.2 1-.2 1.4-1.2 1.5-7 .5-13.9 1-20.9 1.5-5.4.4-10.9.8-16.3 1.1-1.3.1-2.7 0-4.3 0 .5-.9.8-1.5 1.1-2.1.6-1.1.2-2.6-.9-3.2-.8-.7-2.1-.6-2.8.2-.9.9-1.1 2.3-.4 3.4.6.6 1.3 1.2 2 1.7-.6.2-1.3.4-1.9.5-1.2.1-1.5-.2-1.6-1.5-.1-1.8-.1-3.5-.2-5.2-.3-4.7-.7-9.4-1-14.1-.3-3.4-.5-6.8-1-10.2-.6-3.9-1.4-7.9-2.5-11.7s-2.4-7.6-3.7-11.4c-.4-1.1-.8-2.2-1.4-3.2-1.5-2.9-3-5.8-4.8-8.6-2-3.1-4.3-6-6.5-9-1.2-1.6-2.5-3-3.6-4.6-3.4-4.4-8.2-7-12.5-10.4-3.3-2.7-7.1-4.6-11.2-5.8-2.4-.7-4.7-1.7-7-2.5-4.2-1.6-8.7-2.3-13.3-2.2-7.4.3-14.7.8-22 1.2-3.1.2-6.1.3-9.1.6-3.2.4-6.3 1.1-9.5 1.4-5.4.6-10.3 2.5-15.4 3.9-6 1.6-12 3.1-17.6 5.8-4.3 1.9-8.4 4-12.4 6.4-3.8 2.4-7.2 5.4-10.8 8.1-1.6 1.2-3.3 2.4-4.9 3.7-3.8 3.2-7.6 6.4-11.1 9.8-2.2 2.1-3.8 4.8-6 6.9-1.5 1.5-2.8 3.1-3.9 5-1.2 2.3-2.4 4.7-3.5 7-1.8 3.9-3.7 7.8-5.3 11.8-1.5 3.9-3.1 7.7-3.6 11.9-.2 1.7-1 3.4-1.3 5.1-.4 2.4-.5 4.9-.8 7.4-.1.7-.1 1.4-.2 2.2 0 1.1-.9 2.1-2 2.2-1.4.3-2.9.6-4.3.8-4 .7-8 1.6-12 2.2-6.1.9-12.3 1.5-18.6 2.2-.6-2-1.2-3.6-1.6-5.4-.7-3.5-1.7-6.8-4.1-9.5-.6-.7-1-1.4-1.3-2.2-1.4-3.2-3.9-5.1-7-6.6-3.7-1.9-7.7-3.2-11.8-3.6-2.6-.4-5.1-.9-7.6-1.6-.1-.3-.2-.7-.3-1 .2-3.9-.1-7.7 0-11.4zm267.4 49c.2 1 1.2 1.7 2.2 1.5.4-.1.8-.3 1.1-.7l.9-.9h.4c.5 2.9.6 16.2-.4 19.8l-1.5-.6c-1.5-.5-2.5 0-3.3 1.6-.7 1.4-.5 2.9.7 3.5.8.3 1.7.3 2.5 0 .4-.4.8-.8 1-1.3l.5.2c0 1-.2 2.1-.3 3.1-1 5.2-1.8 10.5-3 15.6-1.3 5.8-3.4 11.4-6.4 16.7-2.6 4.3-5.7 8.3-9.2 11.9-3.8 4.2-8.4 7.4-13.1 10.5-4.2 2.9-8.6 5.5-13.2 7.7-.5.2-1 .3-1.5.4.5-.8.8-1.3 1.1-1.7.8-1.1.6-2.7-.4-3.5-.9-.8-2.2-.9-3.2-.2-1.1.8-1.5 2.3-.7 3.5.6.9 1.3 1.7 2.1 2.4-.5.4-1.1.7-1.7.9-5.7 2-11.4 4.1-17.2 5.7-6.4 1.7-13 2.6-19.7 2.5-2.1-.2-4.3-.4-6.4-.8l1.2-1.2c.5-.4 1-.8 1.4-1.3.6-.9.6-2 0-2.9-.4-.7-1.3-1.1-2.1-.8-.9.2-1.7.4-2.4.9-1.5.9-1.8 1.9-1.1 3.5.1.4.4.7.6 1.4-2.3-.1-4.4.1-6.6-.9 1.1-1.3 2.5-2.5 1.1-4.3-1-.9-2.4-1.2-3.6-.7-2 .8-1.8 2.4-1.4 4.3-.7.1-1.5.1-2.2 0-6.5-1.8-13.2-2.8-19.5-5.5-3.7-1.6-7.7-2.7-11.4-4.4-4.2-2-8-4.5-11.4-7.6-3.3-2.8-6.6-5.8-9.8-8.7-3.2-3-6-6.3-8.5-9.9-3.1-4.4-6-8.9-9.1-13.3-2.7-4-5.2-8.3-7.4-12.6-4.1-7.2-7.1-15-9-23.1-1.5-6.8-3.1-13.7-3.1-20.7-.1-6.8.7-13.5 2.2-20.1 2.6-9.9 6.8-19 11.7-27.9 3-5.5 7.4-9.9 12-14 2.8-2.4 5.8-4.7 8.7-7l1.8-1.2v1.6c.1 1.9.9 2.7 2.5 2.4 1.4-.3 2.3-1.6 2-3v-.1c-.5-1.1-1.1-2.1-1.7-3 5.3-5.2 11.6-9.4 18.5-12.2.8-.5 1.6-.9 2.5-1.1.6-.4 1.3-.7 2-1 5.7-2.4 11.7-4.3 17.8-5.7 3.6-.9 7.2-1.7 10.9-2.6 1-.4 2-.4 3 0l-.9 5.1c-1.8.9-3.8 1.3-5.9 1.2-.2-.6-.5-1.2-.8-1.7-.5-1-1.5-1.6-2.7-1.5-1 .2-1.8 1-1.9 2.1-.2.5-.2 1-.3 1.5.2 1.7-.8 2.3-2.1 2.8-5.8 2.2-11.6 4.3-17.3 6.6-1.5.6-3 1.4-4.4 2.2-5 2.9-9.9 5.8-14.8 8.8-.7.5-1.4 1.1-2 1.7-2.8 2.7-5.5 5.3-8.2 8.1-.7.9-1.3 1.9-1.7 3-1.1 1.9-2.2 3.8-3.2 5.7-2.4 4.4-4.9 8.8-7.1 13.2-.6 1.4-1.1 2.9-1.5 4.3-1 3-2 5.9-3 8.9-1.5 4.1-2.4 8.4-2.5 12.8 0 .3 0 .6-.1.9-1.1 5.5-.4 10.9.1 16.3.1 2.3.6 4.6 1.3 6.8.5 1.6.9 3.2 1.2 4.9.5 1.9 1 3.8 1.7 5.6 1.1 3.1 2.3 6.3 3.4 9.4.8 2.3 1.2 4.6 2.1 6.9.8 2.1 1.9 4.1 2.8 6.1.2.5.4 1 .5 1.4-2.3-.3-3.6 1.1-4.9 2.4-1.2 1.1-1.3 3-.2 4.2.4.4.9.8 1.5.9 1.3.5 2.7-.1 3.2-1.4.1-.2.1-.3.1-.5.3-1.5.5-3.1.7-5.1 1 1.4 1.7 2.5 2.5 3.5 1.4 2.1 3 4.1 4.7 6 3.2 3.3 5.9 7 8.8 10.5 1.1 1.3 2.3 2.4 3.6 3.5 3.1 3 6.5 5.7 10 8.1 2.2 1.4 4.2 3.4 6.3 5 1.4 1 2.9 1.9 4.4 2.8 2.1 1.3 4.3 2.5 6.3 3.8 1.5.9 1.5 1.7.1 2.8-.8.6-1.8 1-1.7 2.3.2 1.7 1.6 3 3.4 3 1.5-.1 2.7-1.5 2.5-3 0-.4-.2-.9-.2-1.3.1-.5.2-.9.3-1.4 3.3 1 6.4 1.8 9.5 2.9 1.8.7 3.7 1.2 5.7 1.4 5 .5 10 1.5 15 1 2.8-.3 5.5-.6 8.2-.9 4.1-.5 8.2-1 12.3-1.6 1.5-.3 3-.7 4.4-1.2 5.1-1.9 10-4.3 14.6-7.3 3.3-2 6.6-4 9.7-6.3 2.6-2.2 5.1-4.5 7.5-7 3.5-3.5 6.7-7.3 9.4-11.4 1.4-2.1 2.6-4.4 3.9-6.6.3-.5.5-1 .9-1.5 1.5-1.9 2.7-4.1 3.5-6.5.9-3 2.3-5.8 3.5-8.7 2.6-6.5 4-13.4 4.2-20.4.2-3.8.4-7.5.6-11.3.1-2.2.1-4.5.3-6.7.1-.8.3-1.6.5-2.4 1.9.5 3.6.7 4.8-1.6 1 2.6.9 4.9 1.6 7.1-.9.1-1.5.2-2.1.3-1.9.2-3.3 1.9-3.1 3.8 0 .1.1.4.1.6zm-86.7-102.8c-2.4 1-5 1.5-7.5 1.6l-1.4-4.4c2.1-1.6 4.8-1.7 7.6-1.8-.7 1.9-1.1 3.4 1.3 4.6zm-7.6 5.4c2.6-.7 5.2-1.3 7.9-1.9 4.7-.9 9.5-1.4 14.3-1.4 3.9-.2 7.7 0 11.5.6.2 0 .4 0 .7.1 3.3 1.1 6.9 1.1 10.1 2.8 1.2.6 2.3 1.2 3.5 1.8 1.8.8 3.5 1.7 5.2 2.8 3.3 2.5 6.5 5.2 9.6 7.8.8.7 1.5 1.5 2.4 2.2 2.2 1.8 4.1 4 5.6 6.4 3.3 4.8 5.3 10.2 7.9 15.3 1.9 3.8 3.4 7.8 4.4 11.9 1 3.7 1.6 7.5 2.2 11.4.8 4.9 1.6 9.8 2.1 14.7.4 3.7.6 7.4.6 11.1 0 5.2.1 10.5-.3 15.7-.4 6.8-.7 13.7-2.5 20.4-.9 3.4-2.2 6.8-3.3 10.1-.3.9-.7 1.8-1 2.6-1 2.7-2.4 5.3-4 7.7-1.8 2.7-3.5 5.5-5.1 8.4-2.7 4.5-6.5 8-10.1 11.6-1.1 1.2-2.3 2.4-3.6 3.4-2.5 1.9-5.2 3.8-7.9 5.4-3.7 2.2-7.6 4.3-11.6 6-8.5 3.5-17.6 5.4-26.8 5.5-1.1.1-2.2.2-3.3.4-3.5.3-7 .2-10.4-.5-4.7-.7-9.4-1.9-13.9-3.5-4.6-1.8-9-4.1-13.1-6.8-7.1-4.5-13.8-9.7-20-15.4-2.2-2-4.2-4.2-6.1-6.6-2.6-3-5.2-6.1-7.7-9.2-2.8-3.6-5.5-7.3-6.9-11.8-.4-.9-.8-1.7-1.3-2.5-.8-1.6-1.5-3.2-2.1-4.8-1.1-3.5-2.3-7.1-3.1-10.7-1-4.5-1.7-9-2.4-13.5-.5-3.5-.9-6.9-1.2-10.4-.2-2.3-.3-4.7-.5-7 .2-6.7 1.3-13.4 3.3-19.8.6-1.6 1.2-3.1 2-4.6 2.2-4.8 4.3-9.7 6.6-14.5 2.6-5.3 5.8-10.3 10.4-14.1 2.9-2.4 5.8-4.9 8.7-7.3 2.9-2.3 6.2-4.1 9.6-5.6 3.3-1.5 6.6-3.1 10-4.5 3.1-1.3 6.4-2.5 9.6-3.7 1.4-.5 2.7-1 4.1-1.4 2.1-.6 4.2-1.3 6.2-1.9 3.2-1 6.5-1.9 9.7-2.7zm19.3-6.6l-9.2 1c.3-1.7 1.3-3.2-.3-4.4 1.4-.7 5.8-1.1 8.1-.8-.1 1.9-.1 1.9 1.4 4.2zm2.5 0l1.3-4.5c2.6-.6 5.3-.7 7.9-.3-.1 1.2-.2 2.4-.4 3.6 0 .7-.6 1.2-1.3 1.1h-.1l-7.4.1zm21.8.4c.5 1.6 2.1 2.4 3.6 2 1-.1 1.8-.9 1.8-1.9.1-.9.2-1.7.3-2.7 2.4.2 4.1 1.5 6.2 2.4l-1.6 1.4c-1 .6-1.3 2-.7 3 1 1.7 3.3 2.3 5 1.3.2-.1.4-.3.6-.5 0-.1.1-.1.2-.1 2.1-2.4 2.1-2.4 4.6-.7 2.3 1.5 4.6 3.1 6.9 4.6 1.9 1.3 3.6 3 4.7 5.1h-.1c.9.9 1.9 1.8 2.7 2.7 1.3 1.4 2.6 2.9 3.9 4.4.4.5.7.9 1 1.4 1.5 1.1 2.5 2.7 2.8 4.4 1 1.1 1.9 2.3 2.5 3.7 1.4 2.7 2.7 5.5 3.9 8.3.6 1.5 1.2 3.1 1.7 4.7.1.5.1.9 0 1.4-.6-.1-1.1-.2-1.6-.4-2.2-.6-3.9.9-3.6 3.2.1.5.2 1 .4 1.5.8 2 2.2 2.2 3.6.5.5-.8 1-1.6 1.4-2.5.8 0 1.4.6 1.4 1.4.7 4.2 1.3 8.5 2 12.7.2 1.1.4 2.1.5 3.2 0 .6-.1 1.1-.2 1.6h-.1c0 .5.1 1 .1 1.5.8 1.2.3 2.5.4 3.7.2 1.4.2 2.8.3 4.6-1-.4-1.5-.6-2.2-.7-1.2-.5-2.6.1-3 1.3-.2.5-.2 1-.1 1.6.1.5.2 1 .5 1.4.4.6.9 1.4 1.4 1.4.7-.2 1.4-.6 2-1.1.2-.4.4-.8.5-1.2.2-.4.5-.7.8-1.1.7 3.9.9 7.5-.4 11.1-1.9-.5-3.5-.3-4.7 1.5l-.3-.4c-.1-.9-.2-1.8-.4-2.7s-.3-1.9-.4-2.8c-.3-2.6-.5-5.2-.8-7.8-.3-2.4-.4-4.8-.9-7.1-1-5.2-2.1-10.4-3.3-15.6-.6-2.8-1.5-5.6-2.5-8.4-1.7-4.5-3.7-8.8-6-13-1.9-3.4-3.5-6.9-6.1-9.8s-5.2-5.5-7.8-8.2c-.5-.5-1-.9-1.6-1.1-2.4-1-4.3-2.9-6.5-4.3-3.5-2.3-7-4.7-11-6.1-3.4-1.2-6.9-2.2-10.3-3.2.2-1.3.5-2.6.8-3.8.2-.5.6-.9 1.2-1 3.2 0 6.3.6 9.3 1.7.1.2.1.3.1.5-.7.2-1.3.3-2 .6-.8.1-1.4.9-1.3 1.8.3.3.3.5.4.6zM317.1 269.7c-.2 2.1-.3 4.2-.6 6.3-.7 4.8-2.3 9.3-4.8 13.5-1.3 2.2-2.9 4.2-4.8 5.9-3.6 3.5-7.8 6.2-12.4 7.9-2.4.9-5 1.4-7.6 1.4-4.7.2-9.3-.4-13.7-2-5.6-2.2-11-4.9-14.4-10.1-2.3-3.3-3.7-7.1-4.2-11.1-.8-7.6.2-15.3 2.8-22.5 1-2.5 2.4-4.8 4-7 3.5-5.2 8.8-8 14.2-10.9 2.1-1.1 4.5-1.7 6.9-1.6 2.7.1 5.3.4 7.9.9 3.1.6 6.1 1.5 9.1 2.1 3 .7 5.8 2 8.3 3.8 1.5 1.1 2.6 2.9 3.6 4.6.9 1.4 1.5 3 2.3 4.4 2.5 4.3 3.7 9.3 3.4 14.4zm-194-17.3c0-.3.2-.6.3-.8 1.8-2.1 2.5-4.9 4.3-6.9 1.8-2.1 3.8-4 5.7-6 1.3-1.4 2.7-2.7 3.9-4.1 3.1-3.5 6.1-7 9.3-10.4 3.7-4 7.6-7.8 11.5-11.6 1.8-1.8 3.4-3.6 5.2-5.2 2.8-2.6 5.7-5.2 8.6-7.7 3.1-2.6 6.3-5.1 9.4-7.8 2.1-1.8 4-3.8 6-5.7.7-.7 1.5-1.4 2.3-2 4-2.9 8-5.8 12.1-8.6 4.5-3.1 9-6.1 13.6-9.1 2.7-1.8 5.6-3.5 8.5-4.9 2.9-1.3 5.9-2.2 9-2.7 7.2-1.1 14.5-1.7 21.7-2.6 4.4-.6 8.7-1.4 13.1-2.1 5.2-.7 10.4-2.4 15.8-2.2 2.1.1 2.3.1 2.4 2.1.2 5.9.4 11.8.4 17.7 0 7.2-.4 14.4-.3 21.6.1 8.3-1 16.6-1.6 24.8-.3 3.7-.2 7.4-.2 11.1 0 1.6.1 3.2.1 4.8.2.8-.3 1.6-1.1 1.8-1 .2-2 .6-3 .7-5.9.9-10.8 3.8-15.3 7.4-2.2 1.8-4.3 3.7-6.4 5.6-1.1.9-2 2.1-2.5 3.5-1.1 3.2-2.4 6.2-3.5 9.4-.3 1.1-1.2 1.8-2.3 1.9-3.9.5-7.8 1.2-11.6 2.1-4.9 1.4-10 .7-15.1 1.4-.4-1.3-.8-2.6-1.2-3.8-.4-1.4-.9-2.7-1.4-4.1-.2-.4-.4-.8-.5-1.2-.7-3.3-3-5.8-4.3-8.8-1.3-2.8-2.9-5.5-4.7-8.1-2.2-3.5-5.7-5.1-9.5-5.6-4.1-.6-8.2-.9-12.4-.9-3.4 0-6.7.4-9.9 1.5-3 .9-5.8 2.4-8.2 4.4-2.8 2.2-5.8 4.3-8.3 6.8-2.4 2.4-4.4 5-6.1 7.9-1.4 2.7-2.4 5.6-3.1 8.6-.7 2.5-1.2 5.1-1.6 7.7 0 1.1-.9 2-2 2s-2.2.1-3.2.3c-3.6.7-7.1 1.6-10.6 2.3-4.6.9-9.3 1.7-14 2.5-.4.1-.9.1-1.3 0-2.2-.3-2.4-.6-2.2-2.8.6-4.8 1-9.6 1.8-14.3.6-3.4 1.6-6.6 2.4-9.9zm95.4 20.8c-.5 2.1-1.1 4.2-1.7 6.3-1.8 7.3-6.2 12.6-12.5 16.7-3.2 2-6.6 3.7-10.1 5.1-1.9.7-3.9 1.1-5.9 1.2-3.2.3-6.4.5-9.6.5-1.5-.2-3-.4-4.5-.8-3.1-.4-5.6-1.9-8.1-3.5-2-1.4-3.9-3-5.5-4.9-1.9-2-2.5-4.6-3.4-7-1.4-4.2-1.2-8.5-.9-12.8.8-8.6 4.3-16.8 10-23.3 2.6-3.1 5.6-5.8 8.9-8 2.9-1.9 6.2-3.1 9.6-3.6 1.3-.7 2.9-1 4.4-.8 1 .1 2.1.3 3.1.4 3.9 0 7.7.2 11.3 1.8 1.2.6 2.3 1.4 3.3 2.4.1.1.2.3.2.4 2.4 2.5 4.5 5.3 6.1 8.4 1 1.8 1.8 3.8 2.6 5.8.7 1.5 1.3 3.1 1.8 4.7 2 3.6 1.7 7.3.9 11zm-104.1 19.1l-1.2 13.5c-.2 2.5-.7 5-.8 7.6-.1 3-.1 6.1 0 9.2.2 1.3.5 2.6.9 3.8.2.8.1 1.6-.4 2.3-3.4 6-6.8 12-10.3 18-1.3 2.3-2.8 4.6-4.1 6.9-2.2 3.7-4.4 7.4-6.6 11-1.1 1.7-2.3 3.4-3.4 5.1-4.4 7-8.8 14-13.8 20.7-3.8 5.1-7.3 10.5-10.8 15.9-3.4 5.4-7.5 10.3-12.3 14.7-4.3 3.9-8.9 7.4-14.5 9-2.1.6-4.1 1.4-6.4 1.3-1.5 0-2.9-.6-4-1.6-1.2-1-2.3-2-3.4-3-.4-.2-.8-.4-1.3-.5.1-1.1-.2-2.2-.8-3.1-1.2-2.2-2-4.6-3.6-6.6-.2-.4-.3-.9-.2-1.4 1.4-5.9 3.4-11.6 5.8-17.1 1.6-3.6 3.2-7.2 5.1-10.6 2-3.4 4.2-6.8 6.5-10 2.1-3 4.5-5.9 6.8-8.8 4.5-5.5 9.1-11 13.6-16.5 3.7-4.6 7.3-9.4 11-14.1 3.1-3.9 6.2-7.6 9.4-11.5 5.2-6.2 10.8-12.2 16.6-18 3.6-3.6 6.8-7.6 10.4-11.1 3.1-3.1 6.5-6 9.8-9 .6-.4 1.1-.7 1.8-1 .4 1.9.4 3.4.2 4.9zm-1-13.8c-2.1-1.6-4.3-3.2-6.3-5-3.8-3.4-7.5-6.9-11.2-10.4-1.6-1.4-3.1-2.8-4.7-4.2-3.5-3.1-7.1-6.1-10.4-9.3-2.5-2.4-4.7-5.2-7.2-7.6-3.2-3.1-5.5-6.8-8.1-10.2-3.8-5.2-7.6-10.4-10-16.5-1.8-4.5-4-8.9-5.9-13.4-2.4-5.7-3.7-11.8-4-18 .2-5.2.5-10 1.8-14.5 1.6-6 5.4-11.2 10.6-14.7 2.1-1.4 3.9-.2 5.7.7.9.5 1.7 1.2 2.4 1.9 3.1 3.1 6.3 6.1 9.2 9.3 3.6 4 6.9 8.2 9.9 12.8 3.8 5.9 7.1 12.2 10.5 18.3 2.1 3.8 4 7.7 6.1 11.6s3.9 7.8 5.8 11.7c2.7 5.7 5.4 11.4 8.9 16.7 1.5 2.3 2.8 4.8 4.1 7.1.7 1.3.9 2.8.4 4.2-1.5 6.1-3 12.2-4.3 18.3-.4 2.4-.7 4.9-.8 7.4-.1 1-.2 2-.4 3-.1 1.5-.8 1.8-2.1.8zm71.3 68.1c-.1 2.7-1 5.3-1.2 8-.6 5.3-1.1 10.6-1.5 15.9-.2 2.7-1 3.3-3.4 1.8-3.4-2.2-6.5-4.6-9.9-6.8-2.9-2-5.8-3.8-8.9-5.4-4.3-2.2-8.1-5.1-11.5-8.5-1.7-1.8-3.7-3.3-5.9-4.4-.3-.2-.6-.4-.9-.7a4.6 4.6 0 0 0-3.6-1.7c-1 0-1.8-.6-2.2-1.5-.4-.8-1-1.5-1.7-2-4.1-3.5-8.2-6.9-12.3-10.4-1.4-1.2-2.9-2.5-4.3-3.6-1.3-1.1-2.1-2.7-2.1-4.4-.3-6.5.2-13.1 1.3-19.6.5-3.1.8-6.2 1-9.3.3-3 .4-6 .7-8.9.2-1.9.2-1.9 2.2-2.2 4.3-.7 8.6-1.3 12.9-2.1 2.9-.5 5.6-1.5 8.5-2s5.8-.8 8.6-1.2c.9-.1 1.2.6 1.3 1.4.1 1.6.3 3.2.2 4.8 0 2.8.6 5.5 1.6 8.1.3.7.7 1.4 1.2 2 1.6 2.1 3.1 4.4 5.5 5.9.5.3.9.7 1.4 1.1 3.4 3.3 7.7 4.2 12.1 4.9 2.6.4 5.2.7 7.8 1.2 1 .2 1.9.5 3 .8v4c0 4.4-.1 8.7 0 13.1 0 2.8.4 5.5.4 8.3.1 4.3.1 8.8-.3 13.4zm289.4 57c-3.6 0-7.3-.3-10.9-.3-5.9 0-11.7 0-17.6.5-4.3.4-8.5.2-12.8.4-3.9.2-7.8.5-11.7.7-6 .3-11.9.5-17.9 1-4.8.3-9.5-.1-14.2-.3-4.2-.1-8.4 0-12.6 0-5.7 0-11.5.1-17.2.2-2.7 0-5.4.2-8 .3-1.4 0-2.8-.1-4.1 0-3.7.1-7.4.3-11 .5-3.5.2-6.9.6-10.4.9-2.6.2-5.2.2-7.9.3-3.6.1-7.3.1-10.9.3-3.9.2-7.8.5-11.7.7-2.2.1-4.4.1-6.5.1-.9 0-1.9 0-2.8.1-4.5.5-8.9.6-13.5.7-1.8 0-3.6.4-5.5.4-6.5.1-12.9-.3-19.1-2.5-4.2-1.5-8.5-3-12.6-4.8-4.7-2-9.2-4.2-13.8-6.5s-9.1-4.5-13.6-6.8c-1-.5-2-1.1-3-1.7-2.6-1.6-5.2-3.2-7.8-4.7-2.8-1.6-5.7-3.2-8.6-4.7-1.4-.7-2.3-2.1-2.2-3.7-.4-6.8 1.1-13.5 1.8-20.2s1.6-13.3 1.1-20c-.6-8.1-.4-16.1-.3-24.2 0-2.8.3-3 3-3.7 3.7-1 7.3-2.5 10.6-4.5 2.4-1.6 5.1-2.9 7.4-4.6 4.5-3.3 8.4-7.1 10.7-12.4 1.6-3.6 2.5-7.5 2.8-11.4.3-2.6.5-2.7 3-2.9 5.1-.4 10.1-.9 15.2-1.5 2.9-.4 5.8-1 9.2-1.6.2 1.2.3 2.4.2 3.6-.9 5.5-.6 11.1.9 16.4 1 3.6 2.6 7 4.9 10 1.3 1.8 3.1 3.2 5.1 4.1 4.4 2.1 8.8 4.2 13.2 6.1 2.7 1.2 5.7 1.6 8.6 1.2 3.8-.5 7.6-1.2 11.4-1.8.9-.1 1.8-.5 2.6-.9 4.4-2.6 8.7-5.2 12.2-9.1 1.3-1.2 2.6-2.5 3.8-3.9 4.2-5.9 6.9-12.7 7.6-19.9.1-1.5.2-3 .2-4.6 2.5-.9 5.2-1.4 7.8-1.4 3.4-.3 6.8-.4 10.2-.8 4.3-.5 8.5-1.3 12.7-1.9 1.6-.2 3.3-.4 5.2-.6.2 1.4.5 2.7.6 4.1.5 4.2.8 8.4 2.1 12.4 1 3.3 1.9 6.7 2.5 10.1.7 3.6 2.3 6.7 3.8 10 1.6 3.5 3.1 7 4.9 10.5 1.4 2.8 3.1 5.5 4.7 8.1 2 3.2 3.9 6.5 6.1 9.6 3.5 4.8 7.2 9.5 11 14.1 1.5 1.6 3.1 3.1 4.8 4.5 2.7 2.5 5.4 4.9 8.1 7.3 6.8 5.9 14.3 10.6 23.1 12.7l17.2 4.2c3.2.8 6.3 1.6 9.6 2.1 3.5.5 7 .7 10.4 1 2.5.2 4.9.4 7.4.6 1.7.2 1.8.2 2 2 .4 3.7.7 7.4 1 11.1s.7 7.2 1.1 10.9c.6 4.3.4 4.1-3.6 4.1zm181.3-52.2c-.1 4.4-.4 8.7-.6 13.1v1.5c.3 5.7-1.4 11.4-4.8 16-3 4-6.5 7.9-11.2 10.2-1.9.8-3.8 1.5-5.7 2.1-2.1.7-4.2 1.6-6.4 2.1-3 .7-6 1.2-9 1.5-5.4.4-10.8.2-16.1.6-2.8.2-5.5.1-8.3.1-3.9 0-7.8.4-11.8.6-2.4.1-4.8.1-7.2.2-1.4 0-2.9.2-4.3.3-3.5.4-6.9.9-10.4 1.2-2.7.2-5.5.2-8.3.4l-12 .5c-.9 0-1.9.1-2.8.1-5.1.1-10.2 0-15.3.2-3.8.1-7.5.5-11.3.7-2 .1-3.9.1-5.9.1-5 0-10 0-15.1-.1-.6 0-1.2-.1-1.8-.2.3-2.8.3-2.8-.8-4.1 0-1.4.1-2.6 0-3.8-.1-.8-.3-1.6-1.4-1.6-1 .1-1.7 1.1-1.6 2.1v.1c.2.6.4 1.1.7 1.6.2.5.5.9.8 1.3-.4.8-.7 1.5-1 2.4-.1.8-.2 1.6-.2 2.3-1.7.3-1.8.3-2.1-1-.4-2-.5-4-.8-6.1-.7-5.7-1.3-11.4-2-17.1-.1-.4-.1-.9-.1-1.3 0-1.7.5-2.2 2.1-2.4 5.7-.5 11.4-1.7 16.8-3.5 3.4-1.2 6.9-1.9 10.2-3.1 4.1-1.4 8-3 11.9-4.8 2.7-1.2 5-3.2 7.6-4.7 4.6-2.5 7.9-6.6 11.5-10.3.7-.7 1.5-1.4 2.2-2.1 3.9-3.8 7.4-8 10.3-12.6 1.6-2.8 3.1-5.8 4.3-8.8 1-2.2 1.9-4.4 2.8-6.6.2-.5.3-1 .4-1.5.4-4.3 1.3-8.5 2.6-12.6.6-1.9 1-4 1.1-6 .3-5 1.2-10 .8-15-.2-2.6.2-5.2.2-7.8V268c0-.4-.1-.7-.1-1.1 0-2.8.4-3.1 3.1-3.2 1.2 0 2.5-.2 3.7-.3s2.6-.1 3.9-.2c2-.1 3.9-.4 5.8-.5l12-.6c7.9-.3 15.8-.5 23.8-.9 6.9-.4 13.8-1 20.7-1.6 3.6-.3 7.3-.6 10.9-.9 2.2-.2 2.6.1 2.8 2.2.4 3.6.6 7.2 1 10.9.5 5 1 10.1 1.5 15.2.2 2 .4 4.1.5 6.1.3 5.4.9 10.8.7 16.1-.3 6.5.1 13 .4 19.4.2 3.3.5 6.5.7 9.8.5 4.4.7 8.8.6 13zm20.2-7.4c-.1.5-.1 1-.2 1.5.4 3.4-1.2 5.8-3.3 8.2-1.4 1.7-2.7 3.4-3.9 5.2-.6.9-1.3 1.8-2.1 2.5-1.9 1.7-3.2 3.9-4.7 6-.4.6-.9 1.1-1.6 2.1-.1-.7-.1-1.3-.2-2 .2-4.7.4-9.5.5-14.2.1-2.7-.2-5.5-.1-8.2 0-2 .5-3.9.3-5.8-.2-3.5-.7-6.9-1-10.4 0-.3-.1-.6-.1-.9 0-6.2-.9-12.3-.1-18.5.4-3.3-.5-6.5-.8-9.8-.2-1.1-.3-2.3-.3-3.5.4-5.5.2-11.1-.4-16.5-.5-4.9-.4-9.9-1.2-14.8-.7-4.2-.9-8.6-3-12.6-1-2.2-1.8-4.5-2.2-6.8-1.2-5-2.2-10.1-3.5-15.1-.8-3.5-1.9-6.9-3.2-10.2-1.8-4-2.5-8.2-4-12.2-1.3-3.3-2.8-6.5-4.2-9.8-.3-.8-.6-1.7-1-2.9h2.5c2-.1 3.7-1.5 4.3-3.4.6-2.3 0-4.2-1.9-5.1-.9-.3-1.9-.5-2.9-.6.6-.6 1.1-1.2 1.6-1.8 1.4-1.8.7-4.1-1.5-5.6-1.5-1.1-3.7-.8-4.8.7-.1.1-.1.2-.2.3-.4.8-.5 1.6-.4 2.5.1.7.3 1.4.6 2.1.4 1.2 1.1 2 2.6 1.8.3 0 .7.1 1 .2l-2 5.1c-.3-.6-.6-1.1-.9-1.7-.8-1.8-1.5-3.6-2.2-5.4s-1.3-3.7-2-5.5c-.1-.2-.1-.4-.1-.6-.3-.6-.7-1.2-1.1-1.9-.1-.1-.2-.3-.2-.4-.7-1.4-1.4-2.7-2-4.2v-.4l-.7-1.1c-.4-.4-.7-1-.9-1.5-.2-.2-.3-.4-.3-.7l-.1-.2c-.6-1.2-1.3-2.4-2.3-3.4l-.1.1-12.3-11.3.3-.4 10.5 3.4c1.4.4 2.8.9 4.2 1.3 1.7.3 3 1.7 3.1 3.5l.1.1.2.1c1.3.6 2.1 1.7 2.2 3.1.7 1.2 1.3 2.4 1.9 3.7 0 .1.1.2.1.3.1.1.2.3.3.4 3.1 4.4 6.2 8.8 9.2 13.3 1.5 2.5 2.8 5.1 4 7.7 1.9 3.9 3.7 7.9 5.5 11.9 1.7 3.8 3.3 7.6 4.8 11.5 2.1 5 4.2 10.1 6.2 15.1.9 2.4 1.6 5 2.4 7.5 1.8 6.1 3.2 12.2 4.2 18.5.3 2.3 1 4.6 1.3 6.8.3 2.1.4 4.3.7 6.5.5 3.6 1.1 7.3 1.7 11 .4 2.8 1.2 5.5 1 8.4 0 1.9.1 3.8.3 5.7.3 6.8.7 13.5 1 20.3.2 5.7.3 11.3.6 17 .1 3.1.5 6.2.7 9.3.1 1.3.1 3 .1 4.7zm-37.9-153.6c.4-.3.9-.5 1.3-.7l.4.4c0 .4-.1.8-.3 1.2-.1.5-.6.8-1.1.7-.1 0-.2-.1-.3-.1-.4-.3-.5-.8-.3-1.2l.3-.3zm-2.3-7.5c-.4 0-.6-.4-.6-.7 0-.3.3-.5.6-.6.4 0 .6.4.6.7-.1.4-.3.6-.6.6zm88.4 85.5c-2.1 6.4-5.1 12.4-8.8 18-.3.5-.6 1-.8 1.5-1.1 2.5-2.6 4.9-4.4 7-.4.5-.8 1.1-1 1.7-1.4 3.1-3 6.1-4.9 9-2.5 4-4.8 8-7.2 12-.9 1.5-1.7 3-2.6 4.5-.1.2-.2.4-.3.5-2.5 2.2-3.6 5.4-5.3 8.2-1.6 2.6-3.4 5.1-5.1 7.6-.6.9-1.2 1.7-1.8 2.6h-.6c-.1-.7-.2-1.5-.2-2.2 0-2.1.1-4.2.1-6.3v-12.9c0-1-.1-2-.3-3-.5-4.9-1.2-9.8-1.6-14.7-.3-4-.5-8-.6-12-.2-4.5-.8-9-1.7-13.4-.8-4.6-1.3-9.2-2.1-13.8-.7-4.4-1.4-8.9-2.3-13.3s-1.8-8.9-3.1-13.2c-1.5-5.3-2.9-10.6-5.5-15.6-1.8-3.5-3-7.4-4.5-11.1-.6-1.4-1.1-2.8-1.7-4.2-1.5-3.6-3.1-7.2-4.7-10.8-.4-1-1-1.9-1.5-2.9-1.2-2.5-2.2-5.1-3.6-7.4-1.7-3-3.6-5.9-5.6-8.8-2.2-3.2-4.6-6.3-6.9-9.5-.9-1.2-1.4-2.6-1.5-4.1 1.2.4 2.4.9 3.6 1.5 2.7 1.5 5.3 3.1 7.8 4.9 4.5 3.3 8.9 6.6 13.1 10.1 5 4.3 9.9 8.8 14.7 13.3 5.2 4.9 10.2 10 15.3 15 5.5 5.4 11.2 10.8 16.6 16.4 4.2 4.3 8.1 8.9 12 13.5 2.7 3.2 4.8 6.8 6.1 10.8 1 3.4 1.7 6.8 2.3 10.2.5 3.5 0 7.4-1.4 10.9z"/><path fill="#FFC107" stroke="#FFC107" stroke-miterlimit="10" d="M632.3 175.9c.3-.3.6-.7.8-1.1.8-1 .6-2.5-.4-3.2-.1-.1-.2-.1-.3-.2-.9-.8-2.2-1.1-3.4-.9-.3.2-.7.4-1.1.5-.3.2-.6.4-.8.7l-.2.2c.5 1.2 1.1 2.4 1.8 3.6.9.1 1.7.3 2.6.5.4 0 .7 0 1-.1zm-2.2-1.8c-.4 0-.6-.4-.6-.7 0-.3.3-.5.6-.6.4 0 .6.4.6.7 0 .3-.3.5-.6.6zm-206.8 5.2c-.5-.3-1.1-.6-1.7-.9-.6.2-1.3.5-1.8.9l-.3 1.2c-.3 1 .1 2.1 1 2.6 1 .7 2.4.6 3.2-.4.9-.8 1-2.1.3-3-.2-.1-.4-.3-.7-.4zm119.9 14.6c-.6-.6-1.3-1-2.1-1.2-.2.1-.4.1-.6.2-1.2.2-2.1 1.4-1.9 2.6v.1c0 1.2 1 2.1 2.1 2.1.2 0 .3 0 .5-.1.8-.2 1.7-.5 2.5-.9.2-.9 0-1.9-.5-2.8z"/><path fill="none" stroke="#FFC107" stroke-miterlimit="10" d="M250.7 267.8c.2 1.2.3 2.4.2 3.6-.9 5.5-.6 11.1.9 16.4 1 3.6 2.6 7 4.9 10 1.3 1.8 3.1 3.2 5.1 4.1 4.4 2.1 8.8 4.2 13.2 6.1 2.7 1.2 5.7 1.6 8.6 1.2 3.8-.5 7.6-1.2 11.4-1.8.9-.1 1.8-.5 2.6-.9 4.4-2.6 8.7-5.2 12.2-9.1 1.3-1.2 2.6-2.5 3.8-3.9 4.2-5.9 6.9-12.7 7.6-19.9.1-1.5.2-3 .2-4.6 2.5-.9 5.2-1.4 7.8-1.4 3.4-.3 6.8-.4 10.2-.8 4.3-.5 8.5-1.3 12.7-1.9 1.6-.2 3.3-.4 5.2-.6.2 1.4.5 2.7.6 4.1.5 4.2.8 8.4 2.1 12.4 1 3.3 1.9 6.7 2.5 10.1.7 3.6 2.3 6.7 3.8 10 1.6 3.5 3.1 7 4.9 10.5 1.4 2.8 3.1 5.5 4.7 8.1 2 3.2 3.9 6.5 6.1 9.6 3.5 4.8 7.2 9.5 11 14.1 1.5 1.6 3.1 3.1 4.8 4.5 2.7 2.5 5.4 4.9 8.1 7.3 6.8 5.9 14.3 10.6 23.1 12.7l17.2 4.2c3.2.8 6.3 1.6 9.6 2.1 3.5.5 7 .7 10.4 1 2.5.2 4.9.4 7.4.6 1.7.2 1.8.2 2 2 .4 3.7.7 7.4 1 11.1s.7 7.2 1.1 10.9c.5 4.6.2 4.3-3.8 4.4-3.6 0-7.3-.3-10.9-.3-5.9 0-11.7 0-17.6.5-4.3.4-8.5.2-12.8.4-3.9.2-7.8.5-11.7.7-6 .3-11.9.5-17.9 1-4.8.3-9.5-.1-14.2-.3-4.2-.1-8.4 0-12.6 0-5.7 0-11.5.1-17.2.2-2.7 0-5.4.2-8 .3-1.4 0-2.8-.1-4.1 0-3.7.1-7.4.3-11 .5-3.5.2-6.9.6-10.4.9-2.6.2-5.2.2-7.9.3-3.6.1-7.3.1-10.9.3-3.9.2-7.8.5-11.7.7-2.2.1-4.4.1-6.5.1-.9 0-1.9 0-2.8.1-4.5.5-8.9.6-13.5.7-1.8 0-3.6.4-5.5.4-6.5.1-12.9-.3-19.1-2.5-4.2-1.5-8.5-3-12.6-4.8-4.7-2-9.2-4.2-13.8-6.5s-9.1-4.5-13.6-6.8c-1-.5-2-1.1-3-1.7-2.6-1.6-5.2-3.2-7.8-4.7-2.8-1.6-5.7-3.2-8.6-4.7-1.4-.7-2.3-2.1-2.2-3.7-.4-6.8 1.1-13.5 1.8-20.2s1.6-13.3 1.1-20c-.6-8.1-.4-16.1-.3-24.2 0-2.8.3-3 3-3.7 3.7-1 7.3-2.5 10.6-4.5 2.4-1.6 5.1-2.9 7.4-4.6 4.5-3.3 8.4-7.1 10.7-12.4 1.6-3.6 2.5-7.5 2.8-11.4.3-2.6.5-2.7 3-2.9 5.1-.4 10.1-.9 15.2-1.5 3-.3 5.9-.9 9.3-1.5l.1-.4zm95.9 10.1c1.3.1 2.4-.9 2.9-2.5.3-.6.1-1.4-.4-1.8-.5-.6-1.3-.8-2-.4-.8.5-1.5 1.2-2 2-.9 1.5-.2 2.6 1.5 2.7zm-12.6.6c1.9-.3 3.4-.6 3.3-2.1-.1-1.3-.9-2.2-1.9-2.2-1.5-.2-2.8.9-3 2.4v.3c-.1.7.3 1.4 1.1 1.6h.5zm-86-1.8c-.3-.4-.6-.7-1-.9-1.3-.3-2.6 0-3.6.9-.7.8-.6 2.1.2 2.8.1.1.3.2.4.3 1.2.4 3.8-1.4 4-3.1zm-12.6 4c1.2-.2 2.3-1 2.9-2.1.1-.5 0-1-.3-1.4-.4-.7-1.3-1-2.1-.8-1.1.2-2 1-2.3 2.1-.3 1.4.3 2.2 1.8 2.2zm-8.7-.3c1.6-.1 3-1.3 3.3-2.9.1-.5-.2-1-.7-1.1h-.6c-.9.2-1.6.7-2.4.9-.8.1-1.3.8-1.3 1.6 0 .2.1.3.1.4.5.5 1 .9 1.6 1.1zm128.4-7c-1.2-.1-2.2.8-2.3 2v.1c.1 1 .9 1.7 1.9 1.7 1.1-.1 1.9-1.1 1.9-2.2.2-.7-.3-1.4-.9-1.5-.2-.1-.4-.1-.6-.1zM327 275c-1.5 0-2.6.9-2.5 2.1-.1.9.6 1.6 1.5 1.7h.3c1.1-.3 2-1.2 2.3-2.3-.1-.8-.8-1.5-1.6-1.5z"/><path fill="none" stroke="#FFC107" stroke-miterlimit="10" d="M379.8 255.4c.2-6.7 1.3-13.4 3.3-19.8.6-1.6 1.2-3.1 2-4.6 2.2-4.8 4.3-9.7 6.6-14.5 2.6-5.3 5.8-10.3 10.4-14.1 2.9-2.4 5.8-4.9 8.7-7.3 2.9-2.3 6.2-4.1 9.6-5.6 3.3-1.5 6.6-3.1 10-4.5 3.1-1.3 6.4-2.5 9.6-3.7 1.4-.5 2.7-1 4.1-1.4 2.1-.6 4.2-1.3 6.2-1.9 3.3-.9 6.6-1.7 9.9-2.6 2.6-.7 5.2-1.3 7.9-1.9 4.7-.9 9.5-1.4 14.3-1.4 3.9-.2 7.7 0 11.5.6.2 0 .4 0 .7.1 3.3 1.1 6.9 1.1 10.1 2.8 1.2.6 2.3 1.2 3.5 1.8 1.8.8 3.5 1.7 5.2 2.8 3.3 2.5 6.5 5.2 9.6 7.8.8.7 1.5 1.5 2.4 2.2 2.2 1.8 4.1 4 5.6 6.4 3.3 4.8 5.3 10.2 7.9 15.3 1.9 3.8 3.4 7.8 4.4 11.9 1 3.7 1.6 7.5 2.2 11.4.8 4.9 1.6 9.8 2.1 14.7.4 3.7.6 7.4.6 11.1 0 5.2.1 10.5-.3 15.7-.4 6.8-.7 13.7-2.5 20.4-.9 3.4-2.2 6.8-3.3 10.1-.3.9-.7 1.8-1 2.6-1 2.7-2.4 5.3-4 7.7-1.8 2.7-3.5 5.5-5.1 8.4-2.7 4.5-6.5 8-10.1 11.6-1.1 1.2-2.3 2.4-3.6 3.4-2.5 1.9-5.2 3.8-7.9 5.4-3.7 2.2-7.6 4.3-11.6 6-8.5 3.5-17.6 5.4-26.8 5.5-1.1.1-2.2.2-3.3.4-3.5.3-7 .2-10.4-.5-4.7-.7-9.4-1.9-13.9-3.5-4.6-1.8-9-4.1-13.1-6.8-7.1-4.5-13.8-9.7-20-15.4-2.2-2-4.2-4.2-6.1-6.6-2.6-3-5.2-6.1-7.7-9.2-2.8-3.6-5.5-7.3-6.9-11.8-.4-.9-.8-1.7-1.3-2.5-.8-1.6-1.5-3.2-2.1-4.8-1.1-3.5-2.3-7.1-3.1-10.7-1-4.5-1.7-9-2.4-13.5-.5-3.5-.9-6.9-1.2-10.4-.4-2.5-.5-4.8-.7-7.1z"/><path fill="none" stroke="#FFC107" stroke-miterlimit="10" d="M641 252.8c.6-.3 1.2-.7 1.8-1.2.8-.9.5-1.7-.7-2.2-1.7-.7-2.3-.6-3.1.5-1.1 1.4-1 2.2.1 3.6.1.2.2.5.3.8l-8.6 1.2c.3-.5.6-1 1-1.4.8-.4 1.2-1.4.8-2.2-.3-1.4-.7-2-1.8-2.1-1.2-.1-2.3.6-2.7 1.8-.2.6-.3 1.1-.3 1.7 0 .7 0 1.3.1 2-4.8 1-9.7 1.4-14.7 1 .4-.8.7-1.3 1-1.8.5-.8.4-1.9-.3-2.6-.5-.4-1.1-.6-1.8-.5-1 .3-1.6 1.2-1.5 2.2.1.6.2 1.3.3 1.9.2 1-.2 1.4-1.2 1.5-7 .5-13.9 1-20.9 1.5-5.4.4-10.9.8-16.3 1.1-1.3.1-2.7 0-4.3 0 .5-.9.8-1.5 1.1-2.1.6-1.1.2-2.6-.9-3.2-.8-.7-2.1-.6-2.8.2-.9.9-1.1 2.3-.4 3.4.6.6 1.3 1.2 2 1.7-.6.2-1.3.4-1.9.5-1.2.1-1.5-.2-1.6-1.5-.1-1.8-.1-3.5-.2-5.2-.3-4.7-.7-9.4-1-14.1-.3-3.4-.5-6.8-1-10.2-.6-3.9-1.4-7.9-2.5-11.7s-2.4-7.6-3.7-11.4c-.4-1.1-.8-2.2-1.4-3.2-1.5-2.9-3-5.8-4.8-8.6-2-3.1-4.3-6-6.5-9-1.2-1.6-2.5-3-3.6-4.6-3.4-4.4-8.2-7-12.5-10.4-3.3-2.7-7.1-4.6-11.2-5.8-2.4-.7-4.7-1.7-7-2.5-4.2-1.6-8.7-2.3-13.3-2.2-7.4.3-14.7.8-22 1.2-3.1.2-6.1.3-9.1.6-3.2.4-6.3 1.1-9.5 1.4-5.4.6-10.3 2.5-15.4 3.9-6 1.6-12 3.1-17.6 5.8-4.3 1.9-8.4 4-12.4 6.4-3.8 2.4-7.2 5.4-10.8 8.1-1.6 1.2-3.3 2.4-4.9 3.7-3.8 3.2-7.6 6.4-11.1 9.8-2.2 2.1-3.8 4.8-6 6.9-1.5 1.5-2.8 3.1-3.9 5-1.2 2.3-2.4 4.7-3.5 7-1.8 3.9-3.7 7.8-5.3 11.8-1.5 3.9-3.1 7.7-3.6 11.9-.2 1.7-1 3.4-1.3 5.1-.4 2.4-.5 4.9-.8 7.4-.1.7-.1 1.4-.2 2.2 0 1.1-.9 2.1-2 2.2-1.4.3-2.9.6-4.3.8-4 .7-8 1.6-12 2.2-6.1.9-12.3 1.5-18.6 2.2-.6-2-1.2-3.6-1.6-5.4-.7-3.5-1.7-6.8-4.1-9.5-.6-.7-1.1-1.5-1.4-2.4-1.4-3.2-3.9-5.1-7-6.6-3.7-1.9-7.7-3.2-11.8-3.6-2.6-.4-5.1-.9-7.6-1.6-.1-.3-.2-.7-.3-1-.1-3.8-.4-7.6-.3-11.4.1-4.4.6-8.9.9-13.3.5-6.5 1-13.1 1.4-19.6.2-4 .1-8 .1-12 0-6-.1-12-.3-17.9 0-2.3-.4-4.6-.4-7 0-2.1.4-2.6 2.5-2.8 4.5-.4 9-.7 13.5-1 5.3-.3 10.6-.6 15.9-.8 4.6-.1 9.2 0 13.8-.1s9-.2 13.5-.3 9.2-.6 13.7-.3c3.3.1 6.7.1 10-.2 3.4-.2 6.8-.9 10.2-1.2 4.4-.3 8.9-.4 13.3-.6 1.2-.1 2.5-.2 3.7-.3 4.9-.3 9.7-.6 14.6-.9 5.3-.3 10.6-.6 15.9-.7 5.9-.2 11.8-.2 17.7-.4 4.2-.1 8.4-.5 12.6-.6 2.6-.1 5.2-.1 7.9-.1l14.2-.4h5c3.1 0 6.2.1 9.4.2 2.5.1 5 .3 7.6.4s4.8 0 7.2.1c1.5 0 3 .1 4.6.1 2.9.1 5.9-.1 8.7.4s5.3-.2 8-.3c2.8-.1 5.7.1 8.5.1.7.1 1.4.1 2.2.1 5.1-.7 10.2-.3 15.3.1 1.7.1 3.3-.1 5-.1 2.4.1 4.8.5 7.2.6 6 .3 12 .8 18 1.8 3.2.4 6.3 1.2 9.2 2.4 3.5 1.8 6.7 4.1 9.4 6.9 3.3 3.1 5.9 6.8 8.7 10.4 2.5 3.5 4.7 7.1 6.7 10.9 1.9 3.4 3.9 6.6 5.6 10.1 1.6 3.3 2.9 6.7 4.3 10 1.3 3.2 2.7 6.3 3.8 9.5 1.5 4.3 3 8.7 4.3 13.1 1.7 5.4 3.2 10.7 4.7 16.1.3 1.2.5 2.6.8 3.9.8 3.8 1.7 7.5 2.5 11.3.5 2.1.3 2.4-2 2.5-1.1 0-2.2.1-3.3.1-.7.1-1.5.1-2-1.3l.3.1zm-65 6c1.1-.9 1.9-1.6 2.7-2.3.6-.5.6-1.4.1-2-.8-.9-2.1-1.2-3.2-.7-1.1.6-1.6 1.9-1.1 3 .5.7 1 1.3 1.5 2zm16.5-4.4c-.2 1.1.6 2.2 1.7 2.3 1.4-.2 2.5-1.3 2.7-2.7-.3-1.1-1.3-2-2.5-2-1.2.1-2.1 1.1-2 2.2 0 .1 0 .1.1.2zm-7.7 2.7c1.4 0 2.6-1.2 2.5-2.6v-.1c-.1-1-.9-1.7-1.9-1.7-1.3-.1-2.4.9-2.5 2.2v.2c-.2.9.4 1.7 1.3 1.9.3.1.4.1.6.1zm-293.6-52.6c0 1 .6 2 1.6 2.2 1.1 0 2.4-1.6 2.4-2.9 0-.9-.7-1.7-1.6-1.7h-.2c-1.3 0-2.3 1.1-2.2 2.4zM622 250.7c-.9.1-1.7.7-2 1.5-.4.8-.8 1.6-.2 2.4.3.4.9.7 1.4.7.8-.2 1.4-.7 2-1.3.9-1.2.1-3.3-1.2-3.3zm-324.8-92.5c-.2-.5-.4-1-.7-1.5-1-1.7-2.8-1.6-3.8 0-.8 1.3-.3 2.4 1.2 2.7 1.2.2 2.5-.3 3.3-1.2zm-.4 36.7c-.3-.5-.7-1-1.1-1.4-.6-.1-1.1.1-1.5.4-.9.6-1.5 1.6-1.5 2.7-.1.7.4 1.3 1 1.4 1.2.2 3.2-1.6 3.1-3.1zm308.6 58.2c.1-1-.6-1.9-1.5-2h-.3c-1.3.1-2.2 1.3-2.1 2.5.1 1.1.9 1.9 2 2.1.9.1 1.9-1.2 1.9-2.6zm-310-34.4c.1-1-.6-1.8-1.6-1.9-.3 0-.5 0-.7.1-1.3.6-2 2-1.8 3.4.1.4.5.7.9.8 1.5.3 2.9-.7 3.2-2.2v-.2zm-3.7-6.5c.2.5.5.9.8 1.3.7.6 2-.2 2.8-1.5.6-.6.6-1.6 0-2.1l-.2-.2c-.3-.3-.7-.4-1.2-.4-1 0-2.2 1.4-2.2 2.9zm2.4 12c-1.2-.1-2.4.5-2.9 1.6-.4.6-.5 1.3-.3 1.9.4.5 1 .8 1.6.7.7-.1 1.3-.5 1.6-1.1.7-.9.7-2.1 0-3.1zm0 10.5v-2.1c0-.5-.2-1-.6-1.4-.5-.1-1.1-.1-1.6.2-.5.3-.9.7-1.2 1.2-.2.6-.2 1.2.1 1.8.4.5 1 .8 1.6.8.7 0 1.2-.2 1.7-.5zm2.3-56.7c-.7.4-1.3.9-1.9 1.5-.6.7-.6 1.8 0 2.6.8.8 1.6.2 2.3-.3.3-.2.6-.4.8-.7.5-.5 1.1-1.1.5-1.9-.5-.4-1.1-.9-1.7-1.2zm.7-12.6c0-1.4-1.3-2.5-2.2-2.1-1 .3-1.7 1.2-1.8 2.3 0 .4.1.8.4 1.1.7.1 1.4.1 2-.1.6-.3 1.2-.7 1.6-1.2zm.2 7c0-1.4-1-2-2.2-1.2-.6.5-1.2 1.1-1.5 1.8-.3.6.1 1.4.7 1.6.1.1.3.1.4.1 1.3.1 2.5-.9 2.6-2.2v-.1zm-3.7 16.6c1.3 0 2.8-1.2 2.8-2.1.1-.7-.5-1.4-1.2-1.5h-.1c-1 0-2.6 1.4-2.5 2.3.3.6.6 1 1 1.3zm193.5 213.4c.3-2.8.3-2.8-.8-4.1 0-1.4.1-2.6 0-3.8-.1-.8-.3-1.6-1.4-1.6-1 .1-1.7 1.1-1.6 2.1v.1c.2.6.4 1.1.7 1.6.2.5.5.9.8 1.3-.4.8-.7 1.5-1 2.4-.1.8-.2 1.6-.2 2.3-1.7.3-1.8.3-2.1-1-.4-2-.5-4-.8-6.1-.7-5.7-1.3-11.4-2-17.1-.1-.4-.1-.9-.1-1.3 0-1.7.5-2.2 2.1-2.4 5.7-.5 11.4-1.7 16.8-3.5 3.4-1.2 6.9-1.9 10.2-3.1 4.1-1.4 8-3 11.9-4.8 2.7-1.2 5-3.2 7.6-4.7 4.6-2.5 7.9-6.6 11.5-10.3.7-.7 1.5-1.4 2.2-2.1 3.9-3.8 7.4-8 10.3-12.6 1.6-2.8 3.1-5.8 4.3-8.8 1-2.2 1.9-4.4 2.8-6.6.2-.5.3-1 .4-1.5.4-4.3 1.3-8.5 2.6-12.6.6-1.9 1-4 1.1-6 .3-5 1.2-10 .8-15-.2-2.6.2-5.2.2-7.8v-7.6c0-.4-.1-.7-.1-1.1 0-2.8.4-3.1 3.1-3.2 1.2 0 2.5-.2 3.7-.3s2.6-.1 3.9-.2c2-.1 3.9-.4 5.8-.5l12-.6c7.9-.3 15.8-.5 23.8-.9 6.9-.4 13.8-1 20.7-1.6 3.6-.3 7.3-.6 10.9-.9 2.2-.2 2.6.1 2.8 2.2.4 3.6.6 7.2 1 10.9.5 5 1 10.1 1.5 15.1.2 2 .4 4.1.5 6.1.3 5.4.9 10.8.7 16.1-.3 6.5.1 13 .4 19.4.2 3.3.5 6.5.7 9.8.2 4.4.4 8.7.3 13.1s-.4 8.7-.6 13.1v1.5c.3 5.7-1.4 11.4-4.8 16-3 4-6.5 7.9-11.2 10.2-1.9.8-3.8 1.5-5.7 2.1-2.1.7-4.2 1.6-6.4 2.1-3 .7-6 1.2-9 1.5-5.4.4-10.8.2-16.1.6-2.8.2-5.5.1-8.3.1-3.9 0-7.8.4-11.8.6-2.4.1-4.8.1-7.2.2-1.4 0-2.9.2-4.3.3-3.5.4-6.9.9-10.4 1.2-2.7.2-5.5.2-8.3.4l-12 .5c-.9 0-1.9.1-2.8.1-5.1.1-10.2 0-15.3.2-3.8.1-7.5.5-11.3.7-2 .1-3.9.1-5.9.1-5 0-10 0-15.1-.1-.6 0-1.2-.1-1.8-.2h.3zm.1-24.2c-.4-.5-.9-1-1.4-1.3-.8-.4-2.1.5-2.6 1.5-.5.7-.4 1.6.2 2.2.1 0 .1.1.2.1 1 .7 3.6-.8 3.6-2.5zm-2.5 11.5c.7-.7 1.3-1.5 1.9-2.3.7-1.1.2-2.5-.8-2.6-.8 0-1.5.2-2.1.7-.7.5-.8 1.5-.4 2.2.3.6.8 1.2 1.4 2zM223.4 268c-.4-1.3-.8-2.6-1.2-3.8-.4-1.4-.9-2.7-1.4-4.1-.2-.4-.4-.8-.5-1.2-.7-3.3-3-5.8-4.3-8.8-1.3-2.8-2.9-5.5-4.7-8.1-2.2-3.5-5.7-5.1-9.5-5.6-4.1-.6-8.2-.9-12.4-.9-3.4 0-6.7.4-9.9 1.5-3 .9-5.8 2.4-8.2 4.4-2.8 2.2-5.8 4.3-8.3 6.8-2.4 2.4-4.4 5-6.1 7.9-1.4 2.7-2.4 5.6-3.1 8.6-.7 2.5-1.2 5.1-1.6 7.7 0 1.1-.9 2-2 2s-2.2.1-3.2.3c-3.6.7-7.1 1.6-10.6 2.3-4.6.9-9.3 1.7-14 2.5-.4.1-.9.1-1.3 0-2.2-.3-2.4-.6-2.2-2.8.6-4.8 1-9.6 1.8-14.3.5-3.3 1.5-6.5 2.2-9.8 0-.3.2-.6.3-.8 1.8-2.1 2.5-4.9 4.3-6.9s3.8-4 5.7-6c1.3-1.4 2.7-2.7 3.9-4.1 3.1-3.5 6.1-7 9.3-10.4 3.7-4 7.6-7.8 11.5-11.6 1.8-1.8 3.4-3.6 5.2-5.2 2.8-2.6 5.7-5.2 8.6-7.7 3.1-2.6 6.3-5.1 9.4-7.8 2.1-1.8 4-3.8 6-5.7.7-.7 1.5-1.4 2.3-2 4-2.9 8-5.8 12.1-8.6 4.5-3.1 9-6.1 13.6-9.1 2.7-1.9 5.6-3.5 8.6-4.9 2.9-1.3 5.9-2.2 9-2.7 7.2-1.1 14.5-1.7 21.7-2.6 4.4-.6 8.8-1.4 13.1-2.1 5.2-.7 10.4-2.4 15.8-2.2 2.1.1 2.3.1 2.4 2.1.2 5.9.4 11.8.4 17.7 0 7.2-.4 14.4-.3 21.6.1 8.3-1 16.6-1.6 24.8-.3 3.7-.2 7.4-.2 11.1 0 1.6.1 3.2.1 4.8.2.8-.3 1.6-1.1 1.8-1 .2-2 .6-3 .7-5.9.9-10.8 3.8-15.3 7.4-2.2 1.8-4.3 3.7-6.4 5.6-1.1.9-2 2.1-2.5 3.5-1.1 3.2-2.4 6.2-3.5 9.4-.3 1.1-1.2 1.8-2.3 1.9-3.9.5-7.8 1.2-11.6 2.1-4.8 1.3-9.8.6-15 1.3zm-95.5 6.4c-.4-1.1-1.5-1.9-2.7-1.8-1.2 0-2.3.7-2.8 1.8-.7 1.4 0 2.5 1.5 2.5 1.7 0 3.2-.9 4-2.5zm6.8-3.3c-1.4-.1-2.5.9-2.8 2.2-.1 1.2 1 2.1 2.5 2.1 1.2 0 2.8-1.3 2.8-2.3-.3-1.1-1.3-1.9-2.5-2zm10 2.9c.7-.3 1.4-.6 2-.9 1.2-.7 1.3-1.4.7-2.5-.8-1.4-2.4-1.5-3.8-.3-.8.5-1 1.4-.7 2.3.4.6 1.1 1.1 1.8 1.4zM375.8 97.5c2-.7 4-1.3 6.1-1.8 4.6-.7 9.2-1.2 13.8-1.8 2.2-.3 4.3-.6 6.5-.8 2.7-.2 5.5-.3 8.2-.4 3.7-.2 7.4-.6 11.1-.7 2.5-.1 5.1.2 7.6.2h16.8c.4-.1.9-.1 1.3 0 1.8.3 3.6.3 5.4.1 3-.2 6.1-.1 9.1-.2 3.6-.1 7.3-.4 10.9-.5s7.3 0 10.9-.1c.8 0 1.6-.2 2.4-.2 5.2-.2 10.3.2 15.4 1.3 3.8 1.1 7.5 2.3 11.1 3.8 1.4.5 2.9.9 4.4 1.2 2.6.5 4.6 2.5 5.2 5 2.5 7.9 3 16 3.2 24.2.1 3.9-.3 7.7-.4 11.6-.1 1.6-.2 1.8-1.7 1.9-2.5.2-5.1.3-7.6.3-5 .1-10 .1-15.1.1-1.8 0-3.6-.2-5.5-.4-2.8-.4-5.7-.5-8.5-.1-2.3.3-2.7-.1-3.3-2.5-.8-3.2-1.6-6.5-2.5-9.7-.4-1.2-.9-2.3-1.5-3.4-.8-1.6-1.5-3.3-2.4-4.9-1.4-2.4-3.7-3.9-6-5.3s-4.9-2.5-7.3-3.8c-1.4-.8-2.7-1.7-4.1-2.5-.8-.5-1.6-.9-2.5-1.2-7-1.8-14-4.3-21.4-3.7-2.9.2-5.8.1-8.7.3-3.2.3-6.5.9-9.7 1.5s-6.5 1.4-9.8 2.3c-2.7.8-5.4 1.7-8 2.7-5.3 2-10.5 4.2-15.8 6.2-2.4.9-4.1 2.7-6.1 4.1-3.5 2.5-6 5.9-8.6 9.2-3.3 4.2-5.5 9.1-6.5 14.4-.3 1.8-.6 2-2.5 2.1-3.6.1-7.3.1-10.9.1-8 .1-16 .1-24 .2-1.7 0-2.1-.3-2.1-2 .2-7.1.4-14.1.7-21.2.1-2.7.7-5.3.9-8s2-4.1 3.9-5.2c2.8-1.5 5.8-2.8 8.8-3.9 1.9-.8 3.8-1.4 5.8-2 .8-.3 1.7-.5 2.5-.7 1.9-.5 3.8-.9 5.7-1.4 4.2-1 8.4-1.9 12.5-2.8 3.1-.7 6.2-1.3 9.4-1.9 1 .2 2 .2 2.9.3zm305.1 243.3c-.1-.7-.2-1.5-.2-2.2 0-2.1.1-4.2.1-6.3v-12.9c0-1-.1-2-.3-3-.5-4.9-1.2-9.8-1.6-14.7-.3-4-.5-8-.6-12-.2-4.5-.8-9-1.7-13.4-.8-4.6-1.3-9.2-2.1-13.8-.7-4.4-1.4-8.9-2.3-13.3s-1.9-8.9-3.2-13.2c-1.5-5.3-2.9-10.6-5.5-15.6-1.8-3.5-3-7.4-4.5-11.1-.6-1.4-1.1-2.8-1.7-4.2-1.5-3.6-3.1-7.2-4.7-10.8-.4-1-1-1.9-1.5-2.9-1.2-2.5-2.2-5.1-3.6-7.4-1.7-3-3.6-5.9-5.6-8.8-2.2-3.2-4.6-6.3-6.9-9.5-.9-1.2-1.4-2.6-1.5-4.1 1.2.4 2.4.9 3.6 1.5 2.7 1.5 5.3 3.1 7.8 4.9 4.5 3.3 8.9 6.6 13.1 10.1 5 4.3 9.9 8.8 14.7 13.3 5.2 4.9 10.2 10 15.3 15 5.5 5.4 11.2 10.8 16.6 16.4 4.2 4.3 8.1 8.9 12 13.5 2.7 3.2 4.8 6.8 6.1 10.8 1 3.3 1.8 6.7 2.4 10.1.7 3.8.2 7.7-1.2 11.3-2.1 6.4-5.1 12.4-8.8 18-.3.5-.6 1-.8 1.5-1.1 2.5-2.6 4.9-4.4 7-.4.5-.8 1.1-1 1.7-1.4 3.1-3 6.1-4.9 9-2.5 4-4.8 8-7.2 12-.9 1.5-1.7 3-2.6 4.5-.1.2-.2.4-.3.5-2.5 2.2-3.6 5.4-5.3 8.2-1.6 2.6-3.4 5.1-5.1 7.6-.6.9-1.2 1.7-1.8 2.6l-.8-.3zm-566.2-53.5c-.1 2-.1 3.5-.2 5l-1.2 13.5c-.2 2.5-.7 5-.8 7.6-.1 3-.1 6.1 0 9.2.2 1.3.5 2.6.9 3.8.2.8.1 1.6-.4 2.3-3.4 6-6.8 12-10.3 18-1.3 2.3-2.8 4.6-4.1 6.9-2.2 3.7-4.4 7.4-6.6 11-1.1 1.7-2.3 3.4-3.4 5.1-4.4 7-8.8 14-13.8 20.7-3.8 5.1-7.3 10.5-10.8 15.9-3.4 5.4-7.5 10.3-12.3 14.7-4.3 3.9-8.9 7.4-14.5 9-2.1.6-4.1 1.4-6.4 1.3-1.5 0-2.9-.6-4-1.6-1.2-1-2.3-2-3.4-3-.4-.2-.8-.4-1.3-.5.1-1.1-.2-2.2-.8-3.1-1.2-2.2-2-4.6-3.6-6.6-.2-.4-.3-.9-.2-1.4 1.4-5.9 3.4-11.6 5.8-17.1 1.6-3.6 3.2-7.2 5.1-10.6 2-3.4 4.2-6.8 6.5-10 2.1-3 4.5-5.9 6.8-8.8 4.5-5.5 9.1-11 13.6-16.5 3.7-4.6 7.3-9.4 11-14.1 3.1-3.9 6.2-7.6 9.4-11.5 5.2-6.2 10.8-12.2 16.6-18 3.6-3.6 6.8-7.6 10.4-11.1 3.1-3.1 6.5-6 9.8-9 .9-.6 1.5-.8 2.2-1.1zM45.6 183.9c.2-5.2.5-10 1.8-14.5 1.6-6 5.5-11.3 10.7-14.7 2.1-1.4 3.9-.2 5.7.7.9.5 1.7 1.2 2.4 1.9 3.1 3.1 6.3 6.1 9.2 9.3 3.6 4 6.9 8.2 9.9 12.8 3.8 5.9 7.1 12.1 10.5 18.3 2.1 3.8 4 7.7 6.1 11.6s3.9 7.8 5.8 11.7c2.7 5.7 5.4 11.4 8.9 16.7 1.5 2.3 2.8 4.8 4.1 7.1.7 1.3.9 2.8.4 4.2-1.5 6.1-3 12.2-4.3 18.3-.4 2.4-.7 4.9-.8 7.4-.1 1-.2 2-.4 3-.3 1.6-.9 1.8-2.2.9-2.1-1.6-4.3-3.2-6.3-5-3.8-3.4-7.5-6.9-11.2-10.4-1.6-1.4-3.1-2.8-4.7-4.2-3.5-3.1-7.1-6.1-10.4-9.3-2.5-2.4-4.7-5.2-7.2-7.6-3.2-3.1-5.5-6.8-8.1-10.2-3.8-5.2-7.6-10.4-10-16.5-1.8-4.5-4-8.9-5.9-13.4-2.3-5.8-3.7-11.9-4-18.1zm139 123.7v4c0 4.4-.1 8.7 0 13.1 0 2.8.4 5.5.4 8.3 0 4.5 0 9-.2 13.5-.1 2.7-1 5.3-1.2 8-.6 5.3-1.1 10.6-1.5 15.9-.2 2.7-1 3.3-3.4 1.8-3.4-2.2-6.5-4.6-9.9-6.8-2.9-2-5.8-3.8-8.9-5.4-4.3-2.2-8.1-5.1-11.5-8.5-1.7-1.8-3.7-3.3-5.9-4.4-.3-.2-.6-.4-.9-.7a4.6 4.6 0 0 0-3.6-1.7c-1 0-1.8-.6-2.2-1.5-.4-.8-1-1.5-1.7-2-4.1-3.5-8.2-6.9-12.3-10.4-1.4-1.2-2.9-2.5-4.3-3.6-1.3-1.1-2.1-2.7-2.1-4.4-.3-6.5.2-13.1 1.3-19.6.5-3.1.8-6.2 1-9.3.3-3 .4-6 .7-8.9.2-1.9.2-1.9 2.2-2.2 4.3-.7 8.6-1.3 12.9-2.1 2.9-.5 5.6-1.5 8.5-2s5.8-.8 8.6-1.2c.9-.1 1.2.6 1.3 1.4.1 1.6.3 3.2.2 4.8 0 2.8.6 5.5 1.6 8.1.3.7.7 1.4 1.2 2 1.6 2.1 3.1 4.4 5.5 5.9.5.3.9.7 1.4 1.1 3.4 3.3 7.7 4.2 12.1 4.9 2.6.4 5.2.7 7.8 1.2.9.1 1.9.4 2.9.7zm-7 38.2c1.4 0 2.7-.7 3.5-1.8.2-.3.3-.7.2-1-.5-.8-1.2-1.6-2-2.1-1.2-.6-2 .4-2.7 1.3s-1.1 1.7-.4 2.6c.4.4.8.7 1.4 1zm-.4 11.1c1 .1 2-.6 2.3-1.5.3-1.1 0-2.2-.7-3-1-.8-1.7 0-2.5.4-.1.1-.3.1-.4.2-.8.6-1.5 1.2-1.1 2.3.4 1 1.3 1.6 2.4 1.6zm4.9-24.9c0-1.5-1.3-2.6-2.5-2-.9.5-1.6 1.2-2 2.1-.4 1 .1 2.2 1.1 2.6.2.1.3.1.5.1 1.5 0 2.8-1.3 2.9-2.8zm-6.2-8.2c1.4.8 2.7.1 3.9-.5s1.5-1.4 1-2.2c-.4-1-1.5-1.4-2.4-1-.1 0-.2.1-.3.1-1.5.5-2.4 2-2.2 3.6zm.6 44.5c1.1.1 2.1-.7 2.2-1.8v-.3c0-1.4-.7-2.2-1.9-2.1-1.3.2-2.2 1.2-2.3 2.5 0 1.1.7 1.7 2 1.7zm3-56c-.1-.3-.4-1.5-.9-1.7s-1.6.4-2.3.8c-.4.3-.8.7-.9 1.1-.2.5-.2 1 0 1.4.4.8 1.8 1.1 2.9.7 1-.2 1.1-.9 1.2-2.3z"/><path fill="none" stroke="#FFC107" stroke-miterlimit="10" d="M558.7 272.9l-.9.9c-.7.8-1.8.9-2.6.3-.3-.3-.6-.7-.7-1.1-.6-1.8.4-3.7 2.2-4.3.2-.1.5-.1.7-.2.6-.1 1.2-.2 2.1-.3-.7-2.3-.6-4.5-1.6-7.1-1.3 2.4-2.9 2.1-4.8 1.6-.2.8-.4 1.6-.5 2.4-.1 2.2-.2 4.5-.3 6.7-.2 3.8-.5 7.5-.6 11.3-.2 7-1.6 13.9-4.2 20.4-1.2 2.9-2.6 5.7-3.5 8.7-.8 2.3-1.9 4.5-3.5 6.5l-.9 1.5c-1.3 2.2-2.5 4.4-3.9 6.6-2.7 4.1-5.9 8-9.4 11.4-2.3 2.5-4.8 4.8-7.5 7-3.1 2.3-6.3 4.4-9.7 6.3-4.6 2.9-9.5 5.4-14.6 7.3-1.4.6-2.9 1-4.4 1.2-4.1.6-8.2 1.1-12.3 1.6-2.7.4-5.5.7-8.2.9-5 .5-10-.6-15-1-1.9-.2-3.9-.7-5.7-1.4-3.1-1-6.2-1.9-9.5-2.9-.2.4-.3.9-.3 1.4 0 .4.2.9.2 1.3.1 1.5-1 2.9-2.5 3-1.7.1-3.2-1.3-3.4-3-.1-1.3 1-1.7 1.7-2.3 1.4-1.2 1.4-1.9-.1-2.8-2.1-1.3-4.2-2.5-6.3-3.8-1.5-.9-3-1.8-4.4-2.8-2.2-1.6-4.1-3.5-6.3-5-3.5-2.4-6.9-5.1-10-8.1-1.2-1.1-2.4-2.3-3.5-3.5-2.9-3.5-5.6-7.2-8.8-10.5-1.7-1.9-3.3-3.9-4.7-6-.8-1-1.5-2.1-2.5-3.5-.3 2-.4 3.6-.7 5.1-.2 1.3-1.5 2.3-2.8 2.1-.2 0-.3-.1-.5-.1-1.6-.4-2.6-2-2.2-3.6.1-.6.5-1.1.9-1.5 1.3-1.2 2.6-2.6 4.9-2.4-.1-.5-.3-1.1-.5-1.6-.9-2.1-2-4-2.8-6.1s-1.3-4.6-2.1-6.9c-1.1-3.2-2.3-6.3-3.4-9.4-.6-1.8-1.2-3.7-1.7-5.6-.3-1.6-.7-3.3-1.2-4.9-.8-2.2-1.2-4.5-1.3-6.8-.5-5.5-1.2-10.9-.1-16.3 0-.3.1-.6.1-.9.1-4.4 1-8.7 2.5-12.8 1-3 2-5.9 3-8.9.4-1.5.9-2.9 1.5-4.3 2.3-4.4 4.8-8.8 7.1-13.2 1-1.9 2.2-3.8 3.2-5.7.5-1.1 1-2.1 1.7-3 2.7-2.8 5.5-5.4 8.2-8.1.6-.7 1.3-1.2 2-1.7 4.9-3 9.9-5.9 14.8-8.8 1.4-.9 2.9-1.6 4.4-2.2 5.8-2.2 11.5-4.4 17.3-6.6 1.3-.5 2.4-1.1 2.1-2.8 0-.5.1-1 .3-1.5.1-1.1.9-1.9 1.9-2.1 1.1-.1 2.2.5 2.7 1.5.3.6.6 1.1.8 1.7 2 .1 4.1-.3 5.9-1.2l.9-5.1c-1-.4-2-.4-3 0-3.6.8-7.2 1.7-10.9 2.6-6.1 1.3-12.1 3.2-17.8 5.7-.7.3-1.4.6-2 1 .5-.1 1-.2 1.4-.3.8-.1 1.2 1.1.4 1.3-.7.1-1.4.3-2.1.5.6.3 1.1.6 1.7.9 1 .5 1.4 1.8.9 2.9-.1.2-.3.5-.5.6-.8.9-2.2 1.1-3.2.4-.9-.5-1.3-1.6-1-2.6l.3-1.2c-.1.1-.3.2-.4.3-.6.6-1.5-.4-.9-.9.2-.2.5-.4.8-.6-6.9 2.8-13.2 7-18.5 12.2.7.9 1.3 1.9 1.7 3 .3 1.4-.5 2.7-1.8 3.1h-.2c-1.6.2-2.5-.6-2.5-2.4v-1.6c-.6.4-1.2.7-1.8 1.2-2.9 2.3-5.9 4.6-8.7 7-4.7 4.1-9 8.6-12 14-4.9 8.9-9.2 18-11.7 27.9-1.6 6.6-2.3 13.3-2.2 20.1 0 7 1.5 13.9 3.1 20.7 1.9 8.1 4.9 15.8 9 23.1 2.2 4.3 4.7 8.6 7.4 12.6 3.1 4.4 6 8.9 9.1 13.3 2.4 3.6 5.3 7 8.5 9.9 3.3 2.9 6.5 5.8 9.8 8.7 3.4 3.1 7.3 5.6 11.4 7.6 3.7 1.6 7.7 2.7 11.4 4.4 6.2 2.8 13 3.8 19.5 5.5.7.1 1.5.1 2.2 0-.4-1.9-.6-3.5 1.4-4.3 1.2-.5 2.7-.3 3.6.7 1.4 1.8 0 3-1.1 4.3 2.2 1.1 4.3.8 6.6.9-.3-.6-.5-1-.6-1.4-.7-1.6-.4-2.6 1.1-3.5.8-.4 1.6-.7 2.4-.9.8-.3 1.7.1 2.1.8.6.9.6 2 0 2.9-.4.5-.9.9-1.4 1.3l-1.2 1.2c2.1.4 4.2.7 6.4.8 6.6.1 13.2-.7 19.6-2.5 5.8-1.6 11.5-3.8 17.2-5.7.6-.3 1.1-.6 1.7-.9-.8-.7-1.5-1.6-2.1-2.4-.7-1.2-.4-2.7.7-3.5 1-.7 2.3-.6 3.2.2 1.1.9 1.2 2.4.4 3.5-.3.4-.5.9-1.1 1.7.5-.1 1-.2 1.5-.4 4.6-2.2 9-4.8 13.2-7.7 4.7-3.1 9.3-6.2 13.1-10.5 3.5-3.6 6.6-7.6 9.2-11.9 2.9-5.2 5.1-10.8 6.4-16.7 1.2-5.2 2.1-10.4 3-15.6.2-1 .2-2.1.3-3.1l-.5-.2c-.2.5-.6 1-1 1.3-.8.3-1.7.3-2.5 0-1.2-.6-1.4-2.1-.7-3.5.8-1.7 1.8-2.1 3.3-1.6l1.5.6c1-3.6.9-16.9.4-19.8.1-.1 0-.2-.2 0zM433.5 174c1.7 0 2.7.8 2.6 2.2 0 1.4-1.1 2.5-2.4 2.6-1.3 0-2.4-1-2.5-2.2-.2-1.2.7-2.3 1.9-2.5.1-.1.2-.1.4-.1zm-25.8 12.6c0-1.3 1.1-2.3 2.4-2.4 1.4.2 2.4 1.3 2.4 2.6-.1 1.3-1.2 2.3-2.5 2.2-1.3 0-2.2-1.1-2.3-2.4zm-16.4 14.3c1.1.2 2 1.2 2.2 2.3-.3 1.3-1.4 2.3-2.7 2.4-1.2-.2-2.1-1.2-2-2.5.1-1.2 1.2-2.2 2.5-2.2zm-8.2 9.6c1.5 0 2.8 1.2 2.8 2.7 0 1.2-1.8 2.6-3.6 2.6-1.5 0-2.1-.6-2.1-1.8.1-1.6 1.6-3.5 2.9-3.5zm-4.5 11c.7.2 1.1.8.9 1.5 0 .1 0 .2-.1.2-.5 1.6-1.8 2.4-3.2 3.1-.9.4-1.9-.8-1.9-2.1.2-1.8 1.8-3.1 3.6-2.9.3.1.5.1.7.2zm-8 14.7c.6-1.7 1.8-3 3.4-3.9 1-.6 2.7.9 2.7 2.3 0 2.2-1.8 4-4 4h-.2c-1 .1-1.8-.6-2-1.5 0-.3 0-.6.1-.9zm-2.8 15.9c.1-1.8 1.1-3.5 2.7-4.4 1.8-1 3.9.4 3.9 2.6-.2 1.6-1.1 3.1-2.3 4.2-.9.7-2.1.8-3.1.2-.9-.6-1.4-1.6-1.2-2.6zm-3.5 16.3c.1-1.4.7-2.7 1.8-3.6.6-.4 1.3-.6 2-.4 1.1.3 2.3 2.4 2.2 3.5-.2 1.5-1.3 2.8-2.8 3.3-.2 0-.4.1-.6.1-1.4.1-2.6-1-2.6-2.4v-.5zm4 14.7c-.9-.9-1.3-2-.7-3.2.6-1.4 1.6-2.6 2.9-3.4.6.7 1.1 1.5 1.5 2.4.4.7.5 1.5.5 2.3.1 1.1-.5 2.1-1.5 2.5-.8.4-2 .2-2.7-.6zm4.1 12.1c-1-1.1-1.4-2.7-.9-4.2.9-1.2 2.4-1.9 3.9-1.8 1 .2 1.6 1.3 1.6 3.3 0 .5-.1 1-.2 1.5-.4 1.5-1.9 2.3-3.3 1.9-.4-.2-.8-.4-1.1-.7zM379 308c-1.7-.1-3.1-1.5-3-3.3.1-1.4.8-2.7 2-3.5.6-.5 1.4-.5 2 0 1.2.9 2 2.3 2.1 3.9.2 1.5-.9 2.7-2.3 2.9h-.8zm13.3 21c-1.8.1-3.3-1.2-3.4-2.9v-.5c0-1.2 1.9-2.8 3.2-2.7 1.2.1 2.5 1.9 2.4 3.5s-.8 2.6-2.2 2.6zm7.3 7.6c-2-.2-3.7-1.7-3.7-3.4s1.8-2.8 3.9-2.7 3 1 3 2.4c-.1 2.5-1.3 3.9-3.2 3.7zm9.1 8c-1.3.4-2.7.1-3.6-.8-.9-.7-1.3-1.8-1-2.9.1-.4.2-.7.5-1 1.1-1.3 2.6-.8 3.9-.4 1.1.2 1.9 1.3 1.8 2.4 0 1.1-.6 2.2-1.6 2.7zm7.7 6.2c-1.8 0-3.1-1-3.1-2.3.2-1.6 1.6-2.8 3.2-2.9 1.5-.1 2.8 1.1 2.9 2.6v.2c-.1 1.6-1.1 2.4-3 2.4zm12.2 5c-.6 1.3-1.8 1.5-3.1 1.5-1.8-.1-2.8-.9-2.9-2.5-.1-1 .4-2 1.3-2.5 1.4-.4 2.9-.1 4.1.7.8.7 1.1 1.9.6 2.8zm20.1 9.6c-.5.4-1.1.7-1.7.9-1.8-.1-3.1-.4-3.7-1.8-.4-.7-.2-1.6.5-2 .2-.1.3-.2.5-.2 1.3-.5 3.9.2 4.5 1.4.4.6.4 1.2-.1 1.7zm27 3.9c-1.5-.2-2.8-1.3-3.1-2.8 0-1.2 1.6-2.6 3-2.5s2.2 1.4 2.3 3c.1 1.2-.8 2.3-2 2.4 0 0-.1 0-.2-.1zm9.6-.6c-1.3 0-2.9-1.4-2.8-2.5s2.2-2.4 3.8-2.3c1.1.1 1.9 1 1.8 2.1v.1c.1 1.4-.9 2.6-2.3 2.7-.2-.1-.3-.1-.5-.1zm8.7-1.9c-1.4 0-2.6-1.1-2.7-2.6 0-1.4 1.4-2.6 3.2-2.6 1.2 0 2.2 1 2.2 2.2-.1 1.6-1.2 2.8-2.7 3zm8.5-2.4c-1.4 0-2.2-1-2.2-2.7-.1-1.1.8-2.1 1.9-2.2h.2c1.2 0 3 1.5 3 2.5s-1.4 2.4-2.9 2.4zm15.5-8c-.8-.1-2.7-2.2-2.7-3.1 0-1.2.9-2.2 2.1-2.3 1.6.3 2.9 1.6 3 3.3-.2 1.1-1.2 2-2.4 2.1zm8.4-5.7c-1.2 0-3.2-1.8-3.2-3.1s1.4-2.4 2.9-2.4 2.5 1 2.5 2.9c0 1.3-.9 2.5-2.2 2.6zm7.6-7c-1.1 0-2.8-1.9-2.7-3.2 0-1.3 1-2.3 2.3-2.4 1.4.2 2.5 1.3 2.6 2.8 0 1.2-1.1 2.7-2.2 2.8zm6-6.7c-1.2 0-2.7-1.8-2.6-3 0-1.1 1-2 2.1-2 1.5 0 3.1 1.3 3 2.5-.1 1.3-1.1 2.4-2.5 2.5zm6.8-9.2c.1 1.4-1.1 2.6-2.5 2.7h-.5c-2.2-.1-3-.8-2.9-2.3.1-1.7 1.5-3.1 3.2-3.2 1.6.1 2.8 1.3 2.7 2.8zm0-6c-1.2 0-3.1-2.2-3.1-3.5s1.8-2.3 3.7-2.3c1.4.2 2.4 1.4 2.5 2.8.2 1.3-1.6 3.1-3.1 3zm8.8-16.7c-.1 1.6-1.5 2.8-3.1 2.7-1.2.1-2.2-.8-2.2-2v-.1c0-1.5 1.2-2.8 2.7-2.9 1.3 0 2.4 1 2.6 2.3zm0-20c-1.5-.2-2.7-1.4-2.8-2.9 0-1.4 1.4-3.3 2.6-3.4 1 0 2.4 1.8 2.5 3.2.1 1.8-.9 3.1-2.3 3.1zm-85-144.8c-1.3.1-2.1.3-3 .4-5.1.2-10.2.5-15.3.7-4.4.1-8.7.2-13.1.4-3.4.1-6.8.3-10.3.4-7 .3-14.1.5-21.1.9-5.1.3-10.2.7-15.2 1l-15.7 1.1c-.8.1-1.7 0-2.7 0 .1-.4.2-.9.4-1.3 1.6-3.2 3.4-6.2 5.4-9.2 3.3-4.6 7.8-8.2 13-10.3 7.5-3.1 15-6.1 22.9-7.8 5.6-1.4 11.4-1.9 17.1-1.5 3.6.2 7.1.6 10.6 1.2 5 .9 9.7 2.8 13.9 5.5 3.4 2.4 6.3 5.5 8.5 9 1.3 2 2.4 4.2 3.5 6.3.5 1.1.9 2.3 1.2 3.5l-.1-.3zM178.3 296.1c-2.4-.2-4.8-.7-7-1.6-4.3-1.6-6.5-4.9-7.5-9.1 0-.2-.1-.4-.2-.6-1.8-3.8-1.3-7.6-.6-11.5.5-2.4.9-4.9 1.4-7.3 1.1-4.6 3.5-8.9 6.9-12.2.8-.8 1.5-1.8 2.3-2.6.4-.4.8-.8 1.3-1.1 3.7-2.1 7.7-3.9 11.8-5.1 1.6-.4 3.1-.6 4.8-.6 4.7 0 9.3 1.3 13.2 3.8 1.3.8 2.3 2 3.1 3.3 2 3.3 4 6.6 4.4 10.6.7 4.9 0 9.8-2 14.3-3.4 7.2-9.2 12.1-15.9 15.9-.7.4-1.5.7-2.2.8-4.4 1-8.7 2.8-13.8 3zM432.1 89.2V82c.1-4.1.1-8.2.2-12.2.2-5.4.7-10.7 1-16.1.2-3.6.5-7.3.7-10.9 0-3.1.7-6.1 1.8-8.9.7-1.6 1.9-2.9 3.3-3.9 6.3-4.6 13.6-7.7 21.3-9.2 5.7-1 11.3-2 17-2.8 3.4-.5 6.8-.8 10.2-1.2h1.3c1.8.1 2.1.7 1.3 2.4-1.1 2.5-2.2 5.1-3.3 7.6-.9 2.3-.8 4.9.3 7.2.7 1.6.5 2-1.2 2.5-6.1 1.8-12.2 3.3-18.2 5.4-4.1 1.3-8.3 2.7-11.9 5.2-2.8 1.8-4.7 4.6-5.6 7.8-1.5 5.5-1.9 11.2-2.4 16.8-.5 5.2-.4 10.5.2 15.7.2 1.5-.1 1.9-1.9 1.9-4.6 0-9.2 0-14.1-.1z"/><path fill="none" d="M626.9 171.6c0 .1.1.1.1.2l.2-.2c.3-.2.5-.5.8-.6-.9.4-2 .3-2.8-.3-.1 0-.2-.1-.2-.2l.7 1.1c.2-.3.6-.5.9-.3l.3.3zM675.5 339c-.2-3.1-.5-6.2-.7-9.3-.3-5.7-.4-11.3-.6-17-.3-6.8-.6-13.5-1-20.3-.2-1.9-.3-3.8-.3-5.7.3-2.9-.5-5.6-1-8.4-.6-3.6-1.2-7.3-1.7-11-.3-2.1-.4-4.3-.7-6.5-.3-2.3-1-4.5-1.3-6.8-.9-6.3-2.3-12.5-4.1-18.5-.7-2.5-1.4-5-2.4-7.5-2-5.1-4.1-10.1-6.2-15.1-1.6-3.8-3.2-7.6-4.8-11.5-1.8-4-3.6-7.9-5.5-11.9-1.2-2.7-2.5-5.2-4-7.7-2.9-4.5-6.1-8.9-9.2-13.3-.1-.1-.2-.3-.3-.4 0 .2 0 .4-.2.5-.7.7-1.6 1.3-2.5 1.8 1.2-.3 2.4 0 3.4.9 1.1.6 1.5 2.1.8 3.2-.1.1-.1.2-.2.3-.2.4-.5.8-.8 1.1.8-.1 1.5-.6 2.1-1.2.3-.3.7-.3.9 0 .3.3.3.7 0 .9-.8 1-2 1.5-3.2 1.6h-.8l.2.1c.2.3.2.7-.1.9l-.1.1c-.4.2-.8.5-1.2.7-.3.2-.7.1-.9-.2l-.2-.4c0 .2 0 .4.1.6.6 1.9 1.2 3.7 2 5.5s1.5 3.6 2.2 5.4c.2.6.6 1 .9 1.7l1.9-5.2c-.3-.1-.7-.2-1-.2-1.4.2-2.1-.6-2.6-1.8-.3-.7-.5-1.4-.6-2.1-.1-.9.1-1.7.4-2.5 1-1.6 3.1-2.2 4.7-1.2.1.1.2.1.3.2 2.2 1.5 2.9 3.8 1.5 5.6-.5.6-1 1.1-1.6 1.8 1 .1 2 .3 2.9.6 1.9.9 2.5 2.7 1.9 5.1-.5 1.9-2.3 3.3-4.3 3.4h-2.5c.4 1.2.7 2 1 2.9 1.4 3.3 2.9 6.5 4.2 9.8 1.5 4 2.2 8.2 4 12.2 1.4 3.3 2.5 6.7 3.2 10.2 1.3 5 2.2 10.1 3.5 15.1.5 2.3 1.2 4.6 2.2 6.8 2.1 4 2.4 8.4 3 12.6.8 4.9.7 9.9 1.2 14.8.6 5.5.8 11 .4 16.5 0 1.2.1 2.3.3 3.5.4 3.2 1.3 6.4.8 9.8-.8 6.2 0 12.3.1 18.5 0 .3.1.6.1.9.3 3.5.8 6.9 1 10.4.1 1.9-.3 3.9-.3 5.8 0 2.7.2 5.5.1 8.2-.1 4.7-.3 9.5-.5 14.2 0 .7.1 1.3.2 2 .7-1 1.2-1.5 1.6-2.1 1.4-2.2 2.9-4.2 4.7-6 .8-.8 1.5-1.6 2.1-2.5 1.2-1.8 2.5-3.6 3.9-5.2 2.1-2.3 3.7-4.8 3.3-8.2 0-.5.1-1 .2-1.5 0-1.7 0-3.4-.1-5h.2zm-5.8-46.1c0 2.1-2 3.7-4.8 3.7-2.2 0-3.4-1.8-3.5-4.8 0-1.6 1.8-3.6 4.2-3.6 1.8 0 4.1 2.7 4.1 4.7zM640.2 200c0-2.2 1.5-4 3.5-4s4.1 1.9 4 3.6-2.6 4.1-4.5 4.1-3-1.3-3-3.7zm3.9 13.8c-.7-1.5-.9-3.2-.6-4.9.3-1.8 1.9-3 3.8-2.9 2.5.3 4.4 2.5 4.1 5.1 0 .3-.1.5-.1.7-.8 2.1-2.9 3.4-5.1 3.4-1 0-1.8-.5-2.1-1.4zm5.1 10.7c-1.1-1.7-1.6-3.8-1.5-5.8 0-1.4 1-2.5 2.4-2.6h.4c3.4.1 5.2 2.2 5.2 5.8.2 1.4-.4 2.7-1.5 3.5-1.7 1.2-3.9.8-5-.9zm1.4 4.4c.7-1.3 2-1.6 3.8-1.5l1.8.4c1.7.4 2.3 1.6 2.6 3.1.4 1.4-.1 2.8-1.4 3.6-.9.8-2.1 1.3-3.4 1.3-2.6-.4-4.4-5.2-3.4-6.9zm4.4 18c-1.6-1.7-2.8-3.7-2.1-6.3.3-1.2 1.2-2.1 2.4-2.3 2.4-.6 6 2.5 5.9 5.2-.2.7-.3 1.4-.5 2-1.1 2.9-3.7 3.6-5.7 1.4zm1.9 8.9c.2-2.7 2.2-4.8 4.8-5.1 2.3.2 4.2 2 4.4 4.3.1 2.9-1.8 4.8-4.8 4.9-2.4.1-4.3-1.7-4.4-4.1zm1.3 11.7c-.1-1.2-.5-2.5 1-3.3 1.7-.9 3.5-1.3 5.1 0 1.2 1 2.1 2.2 2.6 3.6.9 2.3-1.4 5.1-4.1 5.1-1.8.3-3.5-.9-4-2.7-.4-.8-.6-1.8-.6-2.7zm1.5 14.9c-.4-1.1-.8-2.2-1-3.3.2-2.3 1.4-3.6 3.6-3.7 2.4-.1 4.5.7 5.5 3.1.4.9.5 1.9.2 2.9-.7 1.3-1.6 2.4-2.8 3.2-2.1 1.2-4.4.2-5.5-2.2zm.7 21.1c-.1-2.3 1.7-4.2 4-4.2 3 0 6 2.2 5.9 4.6-.1 2.8-2.1 4.7-5.7 4.8-2.3 0-4.2-2.4-4.2-5.2zm5.8 7c1.9 0 4.1 2.7 4.2 4.9 0 2.6-1.8 4.1-5.1 4.1-2.2.2-4.1-1.5-4.3-3.7v-.7c0-2.3 2.5-4.6 5.2-4.6zm-5.2 16.4c.1-2.6 2.1-4.8 4.7-5 3.7-.1 5.1 2.6 5.3 5.4.2 2.6-2.1 4.5-4.8 4.6-2.3 0-5.2-2.7-5.2-5zm6.3 6c2.2 0 4.1 1.8 4 3.7-.1 2.7-2.3 5.1-4.7 5-2.3-.2-4.1-2.2-4.1-4.5 0-2.7 1.9-4.3 4.8-4.2zm1.8 21.3c-2.7 1.5-5.8-1.6-5.8-4.1.2-1 .6-2.1 1-3.1.7-1.6 2.5-2.3 4.1-1.7.2.1.3.2.5.3 1.8.9 3 2.7 3 4.8 0 1.8-1.2 3-2.8 3.8z"/><path fill="none" stroke="#FFC107" stroke-miterlimit="10" d="M217.9 263.1c.1.4-.2.7-.6.8-.2 0-.4 0-.5-.1-.2.9-.3 1.7-.3 2.6.1 3.1-.5 6.3-1.8 9.2-2.2 5.4-5.7 10.2-10.2 14-3.9 3.1-7.8 6.1-12.6 7.5-1.1.3-2.3.4-3.4.8-5.5 1.8-11.4 1.9-17 .4-2.7-.7-5.2-2.1-7.3-4-1-1-1.9-2.2-2.7-3.4-1.4-1.8-2.9-3.7-2.4-6.3 0-.3 0-.6-.1-.9-.9-2-.6-4-.4-6 .2-2.3.8-4.6.8-6.9 0-3.7 1.5-6.9 2.7-10.3.6-1.3 1.3-2.6 2.2-3.8 1.1-1.6 2.3-3 3.4-4.5 2.8-4 6.7-7 11.2-8.8l6.6-2.4c.8-.3 1.5-.8 2.2-1.2-1 .1-2 .4-2.9 1-.7.5-1.4-.7-.7-1.1.2-.2.5-.3.8-.5-3.4.5-6.7 1.7-9.6 3.6-10.6 7.1-17.5 18.5-18.9 31.2-.4 4.3-.6 8.6.9 12.8.9 2.5 1.5 5 3.4 7 1.6 1.8 3.5 3.5 5.5 4.9 2.5 1.6 5.1 3.1 8.1 3.5 1.5.4 3 .6 4.5.8 3.2 0 6.4-.2 9.6-.5 2-.1 4-.5 5.9-1.2 3.5-1.3 6.9-3 10.1-5.1 6.2-4.1 10.7-9.4 12.5-16.7.5-2.1 1.2-4.2 1.7-6.3.8-3.6 1.1-7.4-.8-10.8l.1.7zM380.8 65.9c-2.4.2-2.4.4-2.5 2.9-.2 5.9-.6 11.9-.8 17.8-.1 2.1.1 4.2.3 6.7 3-.6 5.5-1.1 8.1-1.6 2.1-.4 2.1-.5 2.2-2.7.1-2.9.2-5.8.4-8.7.2-3.8.6-7.7.8-11.5.1-2.3-.4-2.8-2.7-3-2-.2-3.9-.1-5.8.1zm1.8-3c2-.1 4.1.1 6.1.1 1.7.1 3.5 0 5.2-.1 2.3-.3 2.5-.6 2.5-3s-.4-2.7-2.6-2.5c-4 .4-8.1.8-12.1 1.3-1.3.2-2.6.5-3.8 1-1.8.7-2.1 1.8-1.3 3.7 2-.1 4-.4 6-.5zm175.7 184c-.3.3-.5.7-.8 1.1-.1.4-.3.8-.5 1.2-.5.6-1.2.9-2 1.1-.5 0-1-.9-1.4-1.4-.2-.4-.4-.9-.5-1.4-.4-1.2.3-2.6 1.6-2.9.5-.2 1-.1 1.5.1.6.2 1.2.4 2.2.7-.1-1.8-.1-3.2-.3-4.6-.2-1.2.4-2.5-.4-3.7.1.7.2 1.4.2 2.1 0 .4-.4.6-.7.6-.3 0-.5-.3-.6-.6 0-.4 0-.8-.1-1.2-.1.3-.3.6-.5.9-.4 1-1.6 1.5-2.6 1-.1-.1-.2-.1-.4-.2-1.3-1.3-1.4-3.3-.3-4.8.5-.9 1.6-1.2 2.5-.7.1 0 .2.1.2.2.3.1.5.3.8.5v-.4c0-.8 1.4-.9 1.3 0v1.3h.1c.1-.5.2-1.1.2-1.6-.1-1.1-.3-2.2-.5-3.2-.7-4.2-1.3-8.5-2-12.7 0-.8-.6-1.4-1.3-1.4-.4.9-.8 1.7-1.4 2.5-1.3 1.7-2.8 1.5-3.6-.5-.2-.5-.3-1-.4-1.5-.4-1.5.5-2.9 2-3.3.5-.1 1.1-.1 1.6.1l1.6.4c.1-.5.1-.9 0-1.4-.5-1.6-1-3.2-1.7-4.7-1.2-2.8-2.5-5.6-3.9-8.3-.6-1.4-1.5-2.6-2.5-3.7.1.5.1 1 .2 1.5 0 .4-.3.6-.7.6-.2 0-.5-.2-.6-.4-.3.2-.7.1-.9-.1-.1-.1-.1-.2-.1-.3 0-.2 0-.5.1-.7-.8.4-1.6.7-2.5.9-1.1.3-2.3-.4-2.5-1.5 0-.2-.1-.3-.1-.5-.3-1.2.5-2.5 1.7-2.7h.1l.6-.2-1-.3c-.8-.3-.5-1.5.3-1.3l.9.3c.1-.3.5-.4.8-.3 0 0 .1 0 .1.1.3.2.5.4.7.5-.3-.5-.6-1-1-1.4-1.3-1.5-2.6-3-3.9-4.4-.8-.9-1.8-1.8-2.6-2.6.4.8.7 1.6 1.1 2.5.5 1.2.4 1.7-.7 2.6-.3.3-.7.5-1.1.7-.8.5-1.7.9-2.6.3-.8-.8-1-2-.6-3 .5-.9 1.2-1.6 2-2.2.6-.4 1.2-.7 1.9-.9-1.1-2-2.7-3.8-4.7-5.1-2.3-1.5-4.6-3.1-6.9-4.6-2.5-1.7-2.6-1.7-4.6.7 0 .1-.1.1-.2.1-1.5 1.4-3.8 1.3-5.2-.2-.2-.2-.3-.4-.4-.6-.7-1-.4-2.4.7-3 .5-.4.9-.8 1.6-1.4-2.2-.9-3.9-2.2-6.2-2.4-.1 1-.2 1.8-.3 2.7 0 1-.8 1.8-1.8 1.9-1.6.4-3.1-.5-3.6-2-.5-.8-.2-1.8.6-2.2.2-.1.3-.2.5-.2.6-.2 1.3-.4 2-.6 0-.2-.1-.3-.1-.5-3-1.1-6.2-1.7-9.3-1.7-.5.1-1 .5-1.2 1-.4 1.3-.6 2.6-.8 3.8 3.4 1 6.9 2 10.3 3.2 4 1.4 7.5 3.8 11 6.1 2.2 1.4 4 3.3 6.5 4.3.6.3 1.2.6 1.6 1.1 2.6 2.7 5.3 5.4 7.8 8.2s4.2 6.5 6.1 9.8c2.3 4.2 4.3 8.5 6 13 1 2.7 1.9 5.5 2.5 8.3 1.2 5.2 2.3 10.4 3.3 15.6.5 2.3.6 4.8.9 7.1.3 2.6.5 5.2.8 7.8.1.9.3 1.9.4 2.8s.3 1.8.4 2.7l.3.4c1.2-1.8 2.8-2 4.7-1.5 1.2-4 1-7.5.3-11.4zm-31.8-65.1c-1 .3-2.1-.1-2.6-1-.9-1.2-1-2.4-.3-3.1.4-.5 1-.8 1.6-.8 1.1.5 2.2 1 3.2 1.7l.3.6c-.2 1.2-1 2.2-2.2 2.6zm19.9 30.3c-1.1-.1-2.1-.9-2.3-2-.2-.6-.3-1.2-.4-1.6 0-2 .9-2.8 2.6-2.7 4.7.4 4.4 1.4 2.5 4.6-.6 1-1.2 1.7-2.4 1.7zm3.6 16.3c-.5-1.1-.5-2.3.1-3.4.7-.9 2-1.1 2.9-.5.3.2.5.5.7.8.2.6.4 1.2.5 1.8 0 1.8-.6 2.6-1.7 2.8-1.2.2-2.1-.5-2.5-1.5zm-238.5 22.4c-1.1-1.6-2.1-3.5-3.6-4.6-2.5-1.8-5.3-3.1-8.3-3.8-3.1-.6-6.1-1.6-9.1-2.1-2.6-.5-5.3-.8-7.9-.9-2.4-.1-4.8.5-6.9 1.6-5.3 2.9-10.6 5.8-14.2 10.9-1.6 2.2-3 4.5-4 7-2.6 7.2-3.6 14.9-2.8 22.5.5 4 1.9 7.8 4.2 11.1 3.4 5.2 8.7 7.9 14.4 10.1 4.4 1.6 9.1 2.2 13.7 2 2.6 0 5.2-.5 7.6-1.4 4.6-1.8 8.9-4.5 12.4-7.9 1.9-1.7 3.5-3.7 4.8-5.9 2.5-4.1 4.1-8.7 4.8-13.5l.6-6.3c.2-5-.9-10.1-3.3-14.5-.9-1.4-1.5-3-2.4-4.3zm2.6 17c-.2 2 0 4 0 6.1-.1 7.2-3.7 12.7-8.7 17.5-4.7 4.4-10.4 6.7-16.6 8.1-3.9.9-8 .9-11.9 0-4.6-.9-9-3-12.7-5.9-1.1-1.1-2.1-2.4-2.9-3.8-2.1-3-2.8-6.5-3.2-10-.5-4.1 0-8.3 1.4-12.2 1-3 2-6 3-8.9.6-1.8 1.7-3.4 3.2-4.6 1.7-1.5 3.3-3.1 5-4.5 3.5-3.1 8-5 12.7-5.2.9 0 1.8-.1 2.6-.1 3.7-.1 7.4.5 11 1.6 1.9.6 3.8 1.1 5.6 1.8.5.1.9.4 1.3.7 2.7 2.4 5.1 5 7.1 8 .9 1.8 1.7 3.7 2.3 5.6.8 1.8 1 3.8.8 5.8zM471.8 122c-.8-.7-1.6-1.4-2.4-2.2-4-3.8-8.7-6.8-13.9-8.9-1.3-.5-2.6-.9-4-1.2-3.9-1-7.7-2.5-11.6-2.8-6.1-.5-12.2-.8-18.3.4-1.2.3-2.4.5-3.6.7-4.6.5-9.2 1.6-13.6 3.1-5.7 1.6-11.3 3.8-16.6 6.6-2.8 1.5-5.5 2.9-8.2 4.6-3.2 2.1-5.6 5-7.9 8-3.2 4.3-5.5 9.1-6.8 14.3-.1.4-.1.8 0 1.2.6.1 1.1.2 1.7.3 2.5.1 3-.2 4-2.4l1.5-3.6c1.5-4.4 4.3-8.2 8-10.9 6.1-4.4 12.2-8.7 19.5-11 2.1-.7 4.1-1.9 6.2-2.6 3.5-1.1 7.1-2 10.8-2.7 4.9-.7 9.8-1.1 14.7-1.4s10 .9 14.9 1.6c2.5.4 5 1 7.4 1.8 4 1.3 7.3 4.1 10.1 7 4.5 4.5 8 9.8 10.3 15.8 1 2.7 1.8 3.1 4.6 2.3.1-.1.1-.2.1-.4-.1-.9-.3-1.9-.5-2.8-.9-5.5-1.8-10.9-6.4-14.8z"/><path fill="none" d="M625.1 160.9l-.1-.1c-.7-.5 0-1.6.7-1.1.5.4 1.1.8 1.5 1.3-.1-1.7-1.4-3.2-3.1-3.5-1.4-.4-2.8-.8-4.2-1.3l-10.5-3.4-.3.4 12.2 11.6.1-.1c-.2-.2-.4-.4-.6-.7-.5-.6 3-2.7 4.3-3.1z"/><path fill="none" stroke="#FFC107" stroke-miterlimit="10" d="M493.5 20c.3 1.2.5 2.4.6 3.6.1 2.8.1 5.5.1 8.3 0 1.1-.9 2-2 2.2-.9.1-1.5-.4-1.9-1.7-.9-3.2-.1-6.3 1-9.4l1.5-3h.7zm-10.3 144.4c2.6-.6 5.3-.7 7.9-.3-.1 1.2-.2 2.4-.4 3.6 0 .7-.6 1.2-1.3 1.1h-7.7l1.5-4.4zm-5.1.4c-.2 1.8-.2 1.8 1.4 4.2l-9.2 1c.3-1.7 1.3-3.2-.3-4.4 1.4-.8 5.8-1.2 8.1-.8zm-18 7l-1.4-4.4c2.1-1.6 4.8-1.7 7.6-1.8-.7 1.8-1 3.3 1.3 4.5-2.3 1-4.9 1.5-7.5 1.7zM206.9 243c-1-.9-2.1-1.7-3.3-2.4-3.6-1.6-7.5-1.8-11.3-1.8.8.1 1.6.1 2.4.1.8-.1.8 1.2 0 1.3h-.2c1.3.2 2.7.5 4 .9 2.4.8 4.7 1.7 7 2.7l-.4-.4c-.6-.6.3-1.5.9-.9.4.3.7.6 1 1 0-.2 0-.4-.1-.5zm432.4-52.8c0 .4-.1.8-.3 1.2-.1.5-.6.8-1.1.7-.1 0-.2-.1-.3-.1-.4-.3-.6-.8-.3-1.3.1-.1.1-.2.2-.2.4-.3.9-.5 1.3-.7l.5.4z"/><path fill="#FFC107" stroke="#FFC107" stroke-miterlimit="10" d="M346.6 277.9c-1.7-.1-2.4-1.2-1.5-2.7.5-.8 1.2-1.4 2-2 .7-.4 1.5-.2 2 .4.5.4.7 1.1.4 1.8-.5 1.7-1.6 2.6-2.9 2.5zm-12.6.6c-.7.1-1.4-.3-1.6-1.1v-.5c0-1.5 1.2-2.7 2.7-2.7h.3c1.1.2 1.9 1.1 1.9 2.2.1 1.4-1.4 1.7-3.3 2.1zm-86-1.8c-.1 1.7-2.7 3.5-3.9 3.1-1-.5-1.4-1.7-.9-2.7.1-.2.2-.3.3-.4 1-.9 2.3-1.2 3.6-.9.3.2.6.5.9.9zm-12.6 4c-1.6 0-2.2-.8-1.8-2.1.3-1.1 1.2-1.9 2.3-2.1.8-.2 1.7.1 2.1.8.3.4.4.9.3 1.4-.5 1-1.6 1.8-2.9 2zm-8.7-.4c-.6-.2-1.1-.6-1.5-1.1-.3-.7 0-1.5.7-1.9.1-.1.3-.1.5-.1.8-.2 1.6-.7 2.4-.9s1.2.3 1.2 1.1c-.3 1.6-1.7 2.8-3.3 2.9zm128.4-6.9c.7-.1 1.3.3 1.5 1v.5c.1 1.1-.8 2.1-1.9 2.2-1 .1-1.8-.7-1.9-1.6 0-1.2 1-2.1 2.2-2.1h.1zM327 275c.8 0 1.5.6 1.5 1.5-.3 1.1-1.2 2-2.3 2.3-.9.1-1.6-.5-1.7-1.4v-.3c0-1.2 1-2 2.5-2.1zm249-16.3c-.5-.6-1-1.3-1.5-2-.5-1.1 0-2.4 1.1-3 1.1-.5 2.4-.2 3.2.7.5.6.5 1.5-.1 2-.8.8-1.6 1.5-2.7 2.3zm16.5-4.4c0-1.4.8-2.4 2-2.4s2.2.9 2.5 2c-.2 1.4-1.3 2.5-2.7 2.7-1.2-.1-2-1.2-1.8-2.3zm-7.7 2.8c-1.2 0-1.8-.6-1.8-1.9 0-1.3 1-2.4 2.3-2.4h.2c1-.1 1.8.7 1.9 1.6 0 1.4-1.1 2.6-2.6 2.7.1 0 0 0 0 0zm-293.6-52.6c-.1-1.3.9-2.4 2.2-2.4.9-.1 1.7.6 1.8 1.5v.2c0 1.4-1.3 3-2.4 2.9-1-.2-1.7-1.2-1.6-2.2zm330.9 46.2c1.3.1 2.1 2.2 1.2 3.3-.5.6-1.2 1-2 1.3-.5 0-1.1-.2-1.4-.7-.6-.8-.2-1.6.2-2.4.3-.9 1.1-1.4 2-1.5zm-324.9-92.5c-.8 1-2 1.4-3.3 1.3-1.5-.3-2-1.4-1.2-2.7 1-1.7 2.8-1.7 3.8 0 .2.5.5 1 .7 1.4zm-.4 36.7c.1 1.5-1.9 3.3-3.1 3.1-.7-.1-1.1-.7-1.1-1.3 0-1.1.6-2.1 1.5-2.7.4-.4 1-.5 1.5-.4.6.3 1 .8 1.2 1.3zm308.6 58.2c0 1.4-1 2.7-2 2.7-1.1-.2-1.9-1.2-2-2.3 0-1.2.9-2.2 2.1-2.4 1-.1 1.8.7 1.8 1.6.1.2.1.3.1.4zm-310-34.4c-.2 1.5-1.5 2.6-3.1 2.5h-.2c-.4-.1-.7-.4-.9-.8-.2-1.4.5-2.8 1.8-3.4.9-.3 1.9.2 2.2 1.1.2.1.3.4.2.6zm-3.7-6.5c0-1.4.9-2.6 2.3-2.9.4 0 .8.2 1.2.4.7.5.8 1.4.4 2.1 0 .1-.1.1-.2.2-.9 1.3-2.1 2-2.8 1.5-.4-.4-.7-.8-.9-1.3zm2.4 12c.6 1 .6 2.2 0 3.2-.4.6-.9 1-1.6 1.1-.6 0-1.2-.2-1.6-.7-.2-.7-.1-1.4.3-1.9.6-1.2 1.7-1.8 2.9-1.7zm0 10.5c-.5.3-1 .5-1.6.5-.6 0-1.2-.3-1.6-.8-.3-.6-.3-1.2-.1-1.8.2-.5.6-1 1.2-1.2.5-.3 1.1-.4 1.6-.2.3.4.5.9.6 1.4v.4l-.1 1.7zm2.3-56.6c.7.3 1.3.8 1.8 1.2.6.7 0 1.3-.5 1.9-.3.3-.5.5-.8.7-.7.5-1.5 1-2.3.3-.6-.7-.6-1.8 0-2.6.4-.6 1.1-1.1 1.8-1.5zm.7-12.7c-.4.5-1 .9-1.6 1.2-.6.2-1.3.2-2 .1-.3-.3-.4-.7-.4-1.1.1-1 .8-1.9 1.8-2.3.9-.4 2.3.7 2.2 2.1zm.3 7.1c0 1.3-1.1 2.4-2.5 2.4h-.1c-.7 0-1.2-.6-1.2-1.3 0-.2 0-.3.1-.4.3-.7.9-1.3 1.5-1.8 1.1-.9 2.1-.3 2.2 1.1zm-3.8 16.6c-.4-.3-.7-.7-.9-1.2-.2-.9 1.4-2.3 2.5-2.3.7.1 1.3.7 1.3 1.5-.1.8-1.6 2-2.9 2zm193.6 189.1c0 1.7-2.6 3.2-3.7 2.5-.1 0-.1-.1-.2-.1-.6-.6-.6-1.5-.2-2.2.6-1 1.9-1.9 2.6-1.5.6.3 1.1.8 1.5 1.3zm-2.5 11.5c-.6-.8-1-1.4-1.4-2.1-.5-.7-.3-1.6.4-2.2.6-.5 1.4-.7 2.1-.7 1.1.1 1.5 1.5.8 2.6-.6.9-1.3 1.7-1.9 2.4zM127.9 274.4c-.7 1.5-2.3 2.5-4 2.4-1.5 0-2.2-1.1-1.5-2.5.5-1.1 1.6-1.7 2.8-1.8 1.2.1 2.3.8 2.7 1.9zm6.8-3.2c1.2 0 2.2.8 2.5 2 .1.9-1.6 2.3-2.8 2.3-1.5 0-2.6-.8-2.5-2.1.2-1.3 1.4-2.3 2.8-2.2zm10 2.9c-.7-.3-1.4-.8-1.9-1.4-.3-.8 0-1.8.7-2.3 1.4-1.3 3-1.1 3.8.3.6 1.2.5 1.8-.7 2.5-.5.3-1.1.5-1.9.9zm32.9 71.7c-.5-.3-1-.6-1.4-1-.7-.9-.2-1.8.4-2.6s1.5-1.9 2.7-1.3c.8.6 1.5 1.3 2 2.1.1.3 0 .7-.2 1-.8 1.2-2.1 1.8-3.5 1.8zm-.4 11.1c-1.1 0-2-.6-2.4-1.6-.4-1.1.3-1.8 1.1-2.3.1-.1.2-.2.4-.2.8-.4 1.5-1.2 2.5-.4.7.8 1 1.9.7 3-.3 1-1.3 1.6-2.3 1.5zm4.9-24.9c-.1 1.6-1.3 2.8-2.9 2.9-1.1-.1-1.9-1.1-1.7-2.2 0-.2.1-.3.1-.5.5-.9 1.2-1.6 2-2.1 1.1-.7 2.4.4 2.5 1.9zm-6.2-8.2c-.1-1.6.8-3 2.2-3.6.9-.5 2-.3 2.6.6.1.1.1.2.1.3.4.8.1 1.7-1 2.2s-2.4 1.3-3.9.5zm.6 44.5c-1.3 0-2-.5-2-1.7.1-1.3 1.1-2.3 2.3-2.5 1.2-.1 1.9.7 1.9 2.1.1 1.1-.8 2-1.9 2.1h-.3zm3-56c0 1.4-.2 2.1-1.2 2.4-1.2.4-2.5.1-2.9-.7-.2-.5-.2-1 0-1.4.2-.5.5-.9.9-1.1.7-.4 1.7-1 2.3-.8s.8 1.3.9 1.6zm194.9-62c-.2 1.6-1.1 3.1-2.3 4.2-.9.7-2.1.8-3.1.2-.9-.5-1.4-1.5-1.2-2.6.1-1.8 1.1-3.5 2.7-4.4 1.8-1 3.9.4 3.9 2.6zm25.5 80.4c2 .1 3 1 3 2.4-.1 2.4-1.3 3.8-3.1 3.6-2-.2-3.7-1.7-3.7-3.4s1.8-2.8 3.8-2.6zm-17.8-25.6c.1 1.5-.9 2.8-2.4 2.9h-.6c-1.7-.1-3.1-1.5-3-3.3.1-1.4.8-2.7 2-3.5.6-.5 1.4-.5 2 0 1.2 1 2 2.4 2 3.9zm-15.2-33.7c-1.4.1-2.5-1-2.6-2.3v-.6c.1-1.4.7-2.7 1.8-3.6.6-.4 1.3-.6 2-.4 1.1.3 2.3 2.4 2.2 3.5-.2 1.5-1.3 2.8-2.8 3.3-.2 0-.4 0-.6.1zm10.1 21.1c0 .5-.1 1-.2 1.5-.4 1.4-1.9 2.3-3.3 1.9-.4-.1-.8-.3-1.1-.6-1-1.1-1.4-2.7-.9-4.2.9-1.2 2.4-1.9 3.9-1.8 1 .1 1.6 1.2 1.6 3.2zm-4.5-53.8c-1 .1-1.9-.5-2-1.5 0-.3 0-.7.1-1 .6-1.7 1.8-3 3.4-3.9 1-.6 2.7.9 2.7 2.3 0 2.2-1.8 4-4 4-.1.1-.2.1-.2.1zM410.3 342c.1 1.1-.5 2.2-1.5 2.7-1.3.4-2.7.1-3.6-.8-.9-.7-1.3-1.8-1-2.9.1-.4.2-.7.5-1 1.1-1.3 2.6-.8 3.9-.4 1 .1 1.8 1.2 1.7 2.4zm-39.8-65.4c.6.7 1.1 1.5 1.5 2.4.4.7.5 1.5.5 2.3.1 1.1-.5 2.1-1.5 2.5-.9.5-2.1.3-2.8-.5-.9-.9-1.3-2-.7-3.2.7-1.5 1.7-2.7 3-3.5zm177 39.4c1.4.2 2.4 1.4 2.5 2.8.1 1.3-1.7 3.1-3.1 3.1-1.2 0-3.1-2.2-3.1-3.5s1.8-2.4 3.7-2.4zm-153 10.4c0 1.7-.8 2.6-2.2 2.6-1.8.1-3.3-1.2-3.4-2.9v-.5c0-1.2 1.9-2.8 3.2-2.7 1.2.1 2.5 1.9 2.4 3.5zm31 31c-1.8-.1-2.8-.9-2.9-2.5-.1-1 .4-2 1.3-2.5 1.4-.4 2.9-.1 4.1.7.8.7 1 1.8.6 2.8-.6 1.2-1.8 1.5-3.1 1.5zM544 330.5c-2.2-.1-3-.8-2.9-2.3.1-1.7 1.5-3.1 3.2-3.2 1.5.2 2.6 1.4 2.7 2.8 0 1.5-1.1 2.7-2.6 2.7h-.4zm-127.5 20.3c-1.8 0-3.1-1-3.1-2.3.2-1.6 1.6-2.8 3.2-2.9 1.5-.1 2.8 1.1 2.9 2.6v.2c-.1 1.6-1.2 2.4-3 2.4zM558 282.2c0 1.6-1 3-2.2 3-1.5-.2-2.7-1.4-2.8-2.9 0-1.4 1.4-3.3 2.6-3.4.9 0 2.3 1.9 2.4 3.3zm-175.6-66.5c-1.5 0-2.1-.6-2.1-1.8 0-1.5 1.6-3.4 2.8-3.4 1.5 0 2.8 1.2 2.8 2.7.1 1.2-1.8 2.5-3.5 2.5zm143.7 129.6c1.5 0 2.5 1 2.5 2.9.1 1.3-.8 2.4-2.1 2.6-1.2 0-3.2-1.8-3.2-3.1s1.3-2.4 2.8-2.4zM478 367c.1 1.2-.8 2.3-2 2.4h-.2c-1.5-.2-2.8-1.3-3.1-2.8 0-1.2 1.6-2.6 3-2.5 1.3 0 2.3 1.3 2.3 2.9zm16.6-5.3c1.2 0 2.2 1 2.2 2.2-.1 1.5-1.2 2.8-2.7 3-1.4 0-2.6-1.1-2.7-2.6 0-1.4 1.4-2.5 3.2-2.6zm58-53.9c-1.2.1-2.2-.8-2.2-2v-.1c0-1.5 1.2-2.8 2.7-2.9 1.2 0 2.7 1.4 2.7 2.4-.2 1.5-1.6 2.7-3.2 2.6zm-16.3 33.1c0 1.3-1.2 2.8-2.2 2.9s-2.8-1.9-2.7-3.2c0-1.3 1-2.3 2.3-2.4 1.4.1 2.5 1.2 2.6 2.7zm6.4-6.4c-.1 1.3-1.2 2.4-2.6 2.5-1.2 0-2.7-1.8-2.6-3 0-1.1 1-2 2.1-2 1.6 0 3.1 1.3 3.1 2.5zM517.5 351c1.6.3 2.9 1.6 3 3.3-.2 1.2-1.2 2-2.4 2.1-.8-.1-2.7-2.2-2.7-3.1 0-1.2.9-2.2 2.1-2.3zm-29.4 15c.1 1.4-.9 2.6-2.3 2.8h-.3c-1.3 0-2.9-1.4-2.8-2.5s2.2-2.4 3.8-2.3c.9 0 1.7 1 1.6 2zm-40.9.4c-1.8-.1-3.1-.4-3.7-1.8-.4-.7-.2-1.6.5-2 .2-.1.3-.2.5-.2 1.3-.5 3.9.2 4.5 1.4.2.6.2 1.2-.1 1.7-.5.4-1.1.7-1.7.9zm55.4-2c-1.4 0-2.2-1-2.2-2.7-.1-1.1.8-2.1 1.9-2.2h.2c1.2 0 3 1.5 3 2.5s-1.5 2.4-2.9 2.4zM374.4 224.3c.2-1.8 1.8-3.1 3.6-2.9.2 0 .5.1.7.1.7.2 1.1.8.9 1.5 0 .1 0 .2-.1.2-.5 1.6-1.8 2.4-3.2 3.1-1 .5-2-.7-1.9-2zm59.1-50.3c1.7 0 2.7.8 2.6 2.2 0 1.4-1.1 2.5-2.4 2.6-1.3 0-2.4-1-2.5-2.2-.2-1.2.7-2.3 1.9-2.5.1-.1.2-.1.4-.1zm-25.8 12.6c0-1.3 1.1-2.3 2.4-2.4 1.4.2 2.4 1.3 2.4 2.6-.1 1.3-1.2 2.3-2.5 2.2-1.3 0-2.2-1.1-2.3-2.4zm-16.4 14.3c1.1.2 2 1.2 2.2 2.3-.3 1.3-1.4 2.3-2.7 2.4-1.2-.2-2.1-1.2-2-2.5.1-1.2 1.2-2.2 2.5-2.2zm274.4 120.9c3.7-.1 5.1 2.6 5.3 5.4.2 2.6-2.1 4.5-4.8 4.6-2.3.1-5.2-2.7-5.2-5 0-2.6 2.1-4.8 4.7-5zm1.2 6.4c0-1.9-.1-2.1-2-2.5-.4 1.8.1 2.5 2 2.5zm-6.5-24.7c-.1-2.3 1.7-4.2 4-4.2 3 0 6 2.2 5.9 4.6-.1 2.8-2.1 4.7-5.7 4.8-2.4 0-4.3-2.4-4.2-5.2zm5-.5c-1.1.4-1.3 1-.9 1.6.2.5.8.7 1.3.5.1-.1.3-.2.4-.3l-.8-1.8zm-6.7-23.9c.2-2.3 1.4-3.6 3.6-3.7 2.4-.1 4.5.7 5.5 3.1.4.9.5 1.9.2 2.9-.7 1.3-1.6 2.4-2.8 3.2-2 1.3-4.4.3-5.5-2.1-.5-1.2-.8-2.3-1-3.4zm5.3 2.5c.2-.4.3-.9.2-1.3-.3-.5-.7-1-1.2-1.4-.3 0-.6.2-.8.5-.4.7-.2 1.5.5 1.9.4.1.8.2 1.3.3zm-2.3-30.9c-2.6.3-4.7 2.5-4.8 5.1.1 2.3 2 4.2 4.4 4.1 3-.1 4.9-2 4.8-4.9-.2-2.3-2.1-4.2-4.4-4.3zm-.5 5.3h-.1l.1.4-.7.2c-.8-.4-1.2-1 0-2.1l.1.4c.1-.1.3-.2.5-.2.4 0 .6.4.6.7 0 .3-.2.6-.5.6zm1.5 16.9c-1.8.3-3.5-.9-4-2.7-.3-.9-.6-1.8-.6-2.7-.1-1.2-.5-2.5 1-3.3 1.7-.9 3.5-1.3 5.1 0 1.2 1 2.1 2.2 2.6 3.6 1 2.4-1.4 5.1-4.1 5.1zm-.2-6c-.5.7-1.1 1.1-1 1.4.3.5.6 1 1 1.4.4-.2.7-.5.9-.9-.2-.7-.5-1.3-.9-1.9zm2.7 52.6c-2.2.2-4.1-1.5-4.3-3.7v-.7c0-2.4 2.6-4.7 5.2-4.6 1.9 0 4.1 2.7 4.2 4.9 0 2.6-1.8 4.1-5.1 4.1zm1.6-4.4c-.4-.4-.9-.7-1.5-.9-.3.2-.6.6-.8.9l1.2.9c.5-.3.8-.6 1.1-.9zM655.7 222c.2 1.4-.4 2.7-1.5 3.5-1.6 1.1-3.9.7-5-1s-1.6-3.8-1.5-5.8c0-1.4 1-2.5 2.4-2.6h.4c3.4.1 5.3 2.2 5.2 5.9zm-3.7.7c.3-.5.6-1 .8-1.6.1-.6-.3-1.3-.9-1.4h-.3c-.4.2-.7.5-.8.9.4.7.7 1.4 1.2 2.1zm11.3 127.4c.2-1 .6-2.1 1-3.1.7-1.6 2.5-2.3 4.1-1.7.2.1.3.2.5.3 1.8.9 3 2.7 3 4.8 0 1.9-1.2 3-2.7 3.9-2.8 1.4-5.9-1.7-5.9-4.2zm3.3 0l2.1.9c-.7-2-.8-2-2.1-.9zm.7-17.3c2.2 0 4.1 1.8 4 3.7-.1 2.7-2.3 5.1-4.7 5-2.3-.2-4.1-2.2-4.1-4.5 0-2.6 1.8-4.2 4.8-4.2zm.7 4.7c0-.2-.1-.4-.2-.6-.5-.2-1-.3-1.5-.4-.1.2-.3.4-.3.7.5.2 1 .4 1.5.5.2 0 .3 0 .5-.2zm-6.9-93.9c-.2.7-.3 1.4-.5 2-1 2.8-3.5 3.5-5.6 1.3-1.6-1.7-2.8-3.7-2.1-6.3.3-1.2 1.2-2.1 2.4-2.3 2.3-.5 5.9 2.6 5.8 5.3zm-5.2-1.8c-.3 2-.3 2 1.4 2.8 1.1-1.8.8-2.3-1.4-2.8zm-8.7-35.8c2.5.3 4.4 2.5 4.1 5.1 0 .3-.1.5-.1.7-.8 2.1-2.9 3.4-5.1 3.4-.9 0-1.7-.6-2-1.4-.7-1.5-.9-3.2-.6-4.9.3-1.8 2-3 3.7-2.9zm1.8 4.4l-1.5-1.2c-.4.4-.7.8-.9 1.2.1.4.3.8.7 1.1l1.7-1.1zm5.4 17l1.8.4c1.7.4 2.3 1.6 2.6 3.1.4 1.4-.1 2.8-1.4 3.6-.9.8-2.2 1.3-3.4 1.3-2.7-.3-4.4-5.1-3.4-6.8.8-1.4 2.1-1.7 3.8-1.6zm1 3.5c-.8-.3-1.5-.7-1.9.3 0 .3.1.7.3.9.9.3 1.4-.2 1.6-1.2zm9.6 65.7c-2.2 0-3.4-1.8-3.5-4.8 0-1.6 1.8-3.6 4.2-3.6 1.8 0 4.1 2.7 4.1 4.7s-2 3.8-4.8 3.7zm.7-3.8c-.3-.2-.5-.4-.8-.6-.1.1-.3.3-.3.4.2.3.4.5.7.7 0-.2.2-.3.4-.5zm-22-96.8c-2 .1-3.6 1.8-3.5 3.8v.2c0 2.4 1.1 3.7 3 3.7s4.4-2.4 4.5-4.1-2.1-3.6-4-3.6zm.2 4.4c-.4 0-.6-.4-.6-.7 0-.3.3-.5.6-.6.4.1.6.4.5.8 0 .3-.3.5-.5.5zM286 244.2c3.7 0 7.4.5 11 1.6 1.9.6 3.8 1.1 5.6 1.8.5.1.9.4 1.3.7 2.7 2.4 5.1 5 7.1 8 .9 1.8 1.7 3.7 2.3 5.6.7 1.9 1 3.9.8 6-.2 2 0 4 0 6.1 0 7.2-3.7 12.7-8.7 17.5-4.7 4.4-10.5 6.6-16.7 8.1-3.9.9-8 .9-11.9 0-4.6-.9-9-3-12.7-5.9-1.1-1.1-2.1-2.4-2.9-3.8-2.1-3-2.8-6.5-3.2-10-.5-4.1 0-8.3 1.4-12.2 1-3 2-5.9 3-8.9.6-1.8 1.7-3.4 3.2-4.6 1.7-1.5 3.3-3.1 5-4.5 3.5-3.1 8-5 12.7-5.2l2.7-.3zm24.4 25.9c.7-3.4-.4-7.1-1.9-10.7-1.3-3.4-3.8-6.2-7.1-7.9-2.5-1.4-5.2-2.3-8-2.9-2.8-.4-5.8-.8-8.6-1.1-4.3-.5-8.5.9-11.6 3.9-1.4 1.2-2.8 2.5-4.1 3.9-1.1 1.3-2 2.6-2.8 4.1-.9 1.8-1.6 3.7-2.2 5.7-1.6 4.9-3 9.9-2.1 15.2.5 3 .8 6 2.8 8.5 1.7 2.2 4 3.4 6.4 4.7 4.5 2.5 9.4 2.7 14.2 2.1 5.9-.9 11.4-3 16.4-6.3 2.7-1.7 4.9-4.1 6.4-7 1.8-3.8 2.6-8 2.2-12.2zm233.2-61.6c0-2 .9-2.8 2.6-2.7 4.7.4 4.4 1.4 2.5 4.6-.5.9-1.1 1.7-2.3 1.6-1.1-.1-2.1-.9-2.3-2-.2-.5-.4-1.2-.5-1.5zm-8.4-25.3c.4.9.8 1.7 1.1 2.6.5 1.3.4 1.8-.7 2.6-.3.3-.7.5-1.1.7-.8.5-1.7.9-2.6.3-.8-.8-1-2-.6-3 .5-.9 1.2-1.6 2-2.2.6-.4 1.3-.7 2-.9l-.1-.1zm-6.5-4c-.2 1.2-1 2.2-2.2 2.6-1 .3-2.1-.1-2.6-1-.9-1.2-1-2.4-.3-3.1.4-.5 1-.8 1.6-.8 1.1.5 2.2 1 3.2 1.7.2.1.3.3.3.6zm25.4 48c0 1.8-.6 2.6-1.7 2.8-1.1.1-2-.5-2.4-1.5-.5-1.1-.5-2.3.1-3.4.7-.9 2-1.1 2.9-.5.3.2.5.5.7.8.2.6.3 1.2.4 1.8z"/><path fill="none" stroke="#FFC107" stroke-miterlimit="10" d="M666.9 328.2c-1.9 0-2.4-.7-2-2.5 1.9.4 2 .6 2 2.5zm-1.6-25.3l.8 1.8c-.3.4-.9.5-1.4.2-.1-.1-.2-.2-.3-.4-.4-.6-.1-1.2.9-1.6zm-1.3-21.3c-.4 0-.9-.1-1.3-.3-.6-.4-.8-1.3-.5-1.9.2-.3.5-.4.8-.5.5.4.9.9 1.2 1.4.1.4 0 .8-.2 1.3zm-3.2-26.7l-.1-.4c-1.2 1.1-.8 1.7 0 2.1l.7-.2-.1-.4c-.4-.1-.6-.4-.5-.8-.1-.1-.1-.2 0-.3zm1.8 12c.4.6.7 1.2.9 1.8-.2.4-.5.7-.9.9-.4-.4-.7-.9-1-1.4.2-.5.6-.9 1-1.3zm4.2 48.2c-.3.4-.7.7-1.1.9-.5-.2-.9-.5-1.2-.9.2-.4.5-.7.8-.9.6.2 1.1.5 1.5.9zM652 222.7c-.5-.7-.9-1.4-1.2-2.1.1-.4.4-.8.8-.9.7 0 1.2.5 1.2 1.1v.3c-.2.5-.5 1.1-.8 1.6zm14.5 127.4c1.4-1.2 1.4-1.2 2.1.9l-2.1-.9zm1.5-12.6l-.6.3c-.5-.1-1-.3-1.5-.5.1-.3.2-.5.3-.7.5.1 1 .2 1.5.4.2.1.3.3.3.5zm-12.2-95.7c2.2.5 2.5 1 1.4 2.8-1.6-.8-1.6-.8-1.4-2.8zm-6.8-31.4l-1.8 1.2c-.3-.3-.5-.7-.7-1.1.2-.5.5-.9.9-1.2l1.6 1.1zm6.5 20.5c-.3 1-.7 1.5-1.5 1.1-.3-.2-.4-.5-.3-.9.3-.8 1-.5 1.8-.2zm10.2 61.9l-.5.5c-.3-.2-.5-.4-.7-.7.1-.2.2-.3.3-.4.4.2.6.4.9.6zm-355.3-22.7c.5 4.2-.3 8.5-2.2 12.2-1.5 2.9-3.7 5.3-6.4 7-4.9 3.3-10.5 5.5-16.4 6.3-4.8.7-9.6.4-14.2-2.1-2.4-1.3-4.7-2.5-6.4-4.7-2-2.5-2.3-5.5-2.8-8.5-.9-5.3.5-10.3 2.1-15.2.6-1.9 1.4-3.8 2.2-5.7.7-1.5 1.7-2.9 2.8-4.1 1.3-1.4 2.6-2.7 4.1-3.9 3.1-3 7.4-4.4 11.6-3.9 2.9.3 5.8.7 8.6 1.1 2.8.5 5.5 1.5 8 2.9 3.2 1.7 5.8 4.5 7.1 7.9 1.5 3.5 2.6 7.3 1.9 10.7z"/></svg>