<?xml version="1.0" encoding="utf-8"?>
<!-- Generator: Adobe Illustrator 19.2.1, SVG Export Plug-In . SVG Version: 6.00 Build 0)  -->
<svg version="1.1" id="Layer_1" xmlns="http://www.w3.org/2000/svg" xmlns:xlink="http://www.w3.org/1999/xlink" x="0px" y="0px"
	 viewBox="0 0 746.6 472.8" enable-background="new 0 0 746.6 472.8" xml:space="preserve">
<title>submarine2</title>
<path fill="none" d="M0,0v472.8h746.6V0H0z M730.7,262.6c-1,3.2-2.1,6.3-3.1,9.5c-0.5,1.6-0.8,3.2-2,4.5c-0.5,0.6-0.8,1.2-1,2
	c-1.2,2.9-2.6,5.7-4.3,8.3c-1.7,2.6-3.1,5.5-4.6,8.2s-2.8,5.3-4.3,7.8c-3.2,5.1-6.6,10.1-9.8,15.2c-1.9,3.1-3.7,6.3-5.3,9.5
	c-1.8,3.5-4.3,6.4-6.5,9.5c-2.1,3-3.9,6.1-6,9.1c-1.6,2.3-3.3,4.6-5,6.8c-3.9,5-7.8,10-11.8,14.9c-1.9,2.3-3.8,4.5-5.8,6.8
	c-2.9,3.4-5.4,7.1-7.4,11c-2.3,4-5.5,7.4-9.3,10c-5.9,4.3-12.8,4.9-19.7,5.5c-5.1,0.5-10.3,0.5-15.5,0.6c-3.6,0.1-7.1-0.1-10.7,0.1
	c-5,0.2-10,0.5-15,0.7c-3.4,0.1-6.8,0.1-10.2,0.3c-1.4,0.1-2.7,0.3-4.1,0.4c-3.4,0.3-6.8,0.5-10.2,0.8c-2.6,0.2-5.2,0.7-7.8,0.8
	c-6.6,0.2-13.2,0.3-19.9,0.5c-5.5,0.2-10.9,0.5-16.4,0.7c-2.3,0.1-4.6,0-7,0c-1.4,0-2.7,0.1-4.1,0.1c-4.7,0-9.3-0.1-14,0
	c-5.2,0-10.4,0.9-15.6,1.5c-3.7,0.4-7.4,0.7-11.1,1c-0.8,0.1-1.6,0.3-2.4,0.3c-1.5,0.1-3,0.2-4.6,0.1c-3.8-0.3-7.5-0.9-11.3-1.1
	c-3-0.1-6.1,0.1-9.2,0.2c-4.1,0.1-8.1,0.3-12.2,0.5c-2.6,0.1-5.2,0.5-7.8,0.6c-7.9,0.3-15.7,0.7-23.5,0c-2.9-0.4-5.8-0.5-8.7-0.3
	c-3.9,0.4-7.8,0.3-11.7,0.5c-3.7,0.2-7.4-0.1-11.1,0.2c-10.2,0.9-20.4,0.6-30.6,0.9c-3.9,0.1-7.9,0.5-11.8,0.7
	c-3.4,0.1-6.7,0-10,0.1c-2.2,0-4.5,0.2-6.8,0.3c-4.5,0.2-9,0.4-13.5,0.6c-6.8,0.4-13.7,0.6-20.5,1.2s-13.3-0.3-19.9-1.5
	c-1.2-0.3-2.4-0.7-3.5-1.2c-3.9-1.5-7.8-3.1-11.7-4.6c-2.9-1.2-5.8-2.3-8.7-3.5c-2-0.9-4-1.8-5.9-2.9c-6-3.3-11.9-6.7-17.9-10.1
	l-0.7-0.5c-2.3-1.4-4.6-2.8-6.9-4.1c-5.3-2.9-10.7-5.7-15.9-8.7c-3.4-2-6.5-4.4-9.7-6.6c-3-2.1-6.1-4.2-9.1-6.3s-6.3-4.4-9.4-6.7
	s-5.9-4.7-8.9-7c-4.3-3.4-8.6-6.9-13-10.3c-3.1-2.3-6.3-4.5-9-7.3c-0.3-0.3-0.6-0.5-1-0.8c-1.7,0.9-2.2,2.6-3,4
	c-1.3,3.2-3,6.2-4.8,9.1c-0.9,1.5-1.7,3-2.4,4.6c-0.7,1.6-1.5,3.1-2.5,4.5c-2.7,3.5-4.6,7.4-6.7,11.2c-1.6,2.8-3.5,5.4-5.2,8.1
	c-0.8,1.2-1.5,2.5-2.3,3.7s-1.2,2.3-2,3.4c-4,5.9-8.1,11.7-12.2,17.6c-3.2,4.7-6.3,9.4-9.6,14c-1.4,1.8-3,3.5-4.6,5.2
	c-1.4,1.5-2.7,3-4.2,4.4c-1.9,1.9-3.9,3.7-6.1,5.3c-3,2.2-6.2,4.1-9.5,5.8c-3.9,2-8.4,2.7-12.7,2c-1.9-0.3-3.6-1.2-4.9-2.6
	c-2.7-2.6-5-5.7-6.7-9.1c-0.9-1.7-1.6-3.6-2.2-5.4c-0.8-3.2-0.6-6.6,0.6-9.7c1.1-3.5,2.4-6.9,3.7-10.3c1.9-4.7,3.6-9.5,6.7-13.7
	c1.2-1.6,1.9-3.6,3.1-5.2c2.2-2.9,4.6-5.6,6.9-8.4s4.5-5.7,6.8-8.5c2.9-3.4,5.8-6.7,8.7-10.1c3-3.2,5.7-6.6,8.1-10.3
	c0.7-1.2,2-2.1,2.8-3.3c3.2-4.8,7.1-9,10.6-13.6s7.8-8.1,11.6-12.2s7.9-8.3,11.9-12.4c3.5-3.6,6.6-7.6,10.6-10.7c1.3-1,2.7-2,4-3.1
	c0.7-0.5,1.2-1.2,2.1-2c-0.6-0.2-1.2-0.4-1.8-0.4c-3.7,0.1-7.4,0.4-11.1,0.5c-1.9,0.1-3.9,0.1-5.9,0.1c-1.5,0-2.9,0-4.3,0.1
	c-3.4,0.4-6.8,0.9-10.2,1.2c-5.6,0.5-11.3,0.8-17,1.2c-0.4,0-0.8,0.1-1.2,0.1c-0.2,5.7-0.7,11.3-1.6,17c0,0.2-0.1,0.4-0.2,0.6
	c2.5,1.2,4.2,3.6,4.4,6.4c0.8,13.2-4.1,23.9-11,34.8c-2,3.2-6.9,5.1-10.3,2.7c-7.3-5.3-7.9-14.6-7.1-23.1
	c-3.3-9.9-4.4-19.8-4.4-29.9c-0.2-0.8-0.3-1.7-0.2-2.5c0.1-0.8,0.2-1.6,0.3-2.5c0.2-4.9,0.5-9.9,0.9-14.9c0.9-9.9,0.8-19.9-0.4-29.8
	c-1.3-10.4-2.5-20.4-0.5-30.7c0.9-4.5,7.2-7.1,11-4.5c7,4.9,11.8,12.5,15.8,20c4.2,7.9,7.9,16.9,8.3,26c0.3,6.3-2.1,10.8-5.5,14.8
	c0.1,1.1,0.2,2.2,0.3,3.3c1.1,1.6,1.3,3.7,0.6,5.5l-0.3,0.9v2.1c0.4,0,0.8,0,1.2,0l6.5-0.4c0.6-0.1,1.2-0.1,1.8,0
	c5,0.8,9.8-0.6,14.8-0.9c3.5-0.2,7-0.7,10.4-0.9s6.8-0.2,10.3-0.4c0.7-0.1,1.5-0.3,2.2-0.5c-0.8-1-1.6-2-2.5-2.8
	c-2.6-2.2-5.1-4.3-7.8-6.3c-5.2-3.9-9.6-8.8-14.4-13.1c-2.5-2.3-5-4.6-7.5-7c-0.9-1-1.8-2.1-2.7-3.1c-0.2-0.2-0.3-0.5-0.6-0.7
	c-4.8-4.9-9-10.2-12.7-16c-1.2-1.8-2.6-3.5-3.7-5.4c-0.9-1.5-1.7-3-2.5-4.6c-2.3-4.9-4.6-9.9-6.8-14.9c-1-2.3-1.7-4.6-2.5-7
	c-0.2-0.6-0.3-1.1-0.6-1.6c-1.6-4.1-2.4-8.4-2.3-12.8c0.1-3.6,0.5-7.3,1.3-10.8c0.6-2.9,1.3-5.7,2.1-8.5c0.9-2.8,2.3-5.3,4.1-7.6
	c1.8-2.5,4.3-4.1,6.7-5.8c1.6-1.1,3.6-1.5,5.4-0.9c3.5,0.9,6.6,2.8,9,5.5c2.8,3.1,5.5,6.2,8.4,9.2c1.3,1.1,2.5,2.2,3.6,3.5
	c1.5,2.1,3.3,4,4.8,6.2c1.8,2.6,3.3,5.3,5,7.9c2.6,4,4.4,8.5,6.6,12.7c0.8,1.5,1.9,2.9,2.7,4.5c3.5,7.1,6.9,14.2,10.3,21.4
	c1,2.1,1.9,4.3,2.8,6.4c1.9,4.3,5.1,7.8,7.3,11.9c0.6,1.1,1.3,2.1,2,3.2c0.5-0.3,1-0.6,1.4-0.9c3.3-3.4,6.6-6.8,9.8-10.3
	c4.1-4.5,8.1-9.1,12.3-13.6c3.1-3.3,6.3-6.4,9.6-9.5c3.6-3.5,7.4-6.8,11.1-10.2c1.1-1,2.5-1.8,3.6-2.8c3.6-3.2,7-6.5,10.7-9.6
	s7.7-6.3,11.7-9.1c6.5-4.5,13.2-8.8,19.9-13.1c3-1.9,6.1-3.6,9.4-5.2c1.8-0.9,3.6-1.5,5.6-1.8c5.1-1.1,10.3-1.8,15.5-2.3
	c5.4-0.5,10.7-1.3,16-2c0.2,0,0.4,0,0.6-0.1c4.2-2,8.7-2.2,13.1-2.6c8.2-0.8,16.4-1.2,24.6-1.9c5.7-0.4,11.3-0.9,17-1.5
	c2.4-0.2,2.5-0.4,2.6-2.8c0.1-3.9,0-7.9,0.1-11.8c0.1-3.1,0.3-6.1,0.6-9.1c0.2-2.4,0.5-4.8,0.8-7.2c0.3-1.4,0.6-2.7,1.1-4
	c0.2-0.5,0.6-1,1.1-1.3c5.8-4.1,11.8-7.7,18.8-9.3c3.9-0.9,7.7-2.5,11.6-3.7c1.8-0.6,3.6-1.1,5.5-1.4c4.8-0.7,9.5-1.4,14.3-2
	c1.6-0.2,1.8-0.4,1.9-2.1c0.3-7.2,0.5-14.3,0.7-21.4c0-1.5,0.3-3.3-1.7-4.1c-0.3-0.2-0.5-0.6-0.5-0.9c-0.1-1.5-0.1-3-0.1-4.6
	c0-1.6,1.1-2.9,2.6-3.2c3.7-1.2,7.5-1.8,11.4-2c2.5,0,5-0.5,7.6-0.8c0.6-0.1,1.2-0.1,1.7,0c1.5,0.2,2.3,0.9,2.4,2.4
	c0.1,1.5,0.1,3.1-0.1,4.6c-0.3,2.1-1.4,3-3.7,3.4s-2.4,0.4-2.6,2.8c-0.4,5.4-0.8,10.7-1.1,16.1c-0.1,1.5,0,2.9,0.1,4.4
	c0.1,1.4,0.5,1.7,2,1.8h1.8c6.4-0.3,12.8-0.7,19.2-1c3.9-0.2,7.9-0.3,11.8-0.5c2-0.1,2.3-0.5,2.2-2.6c0-1.3,0.1-2.6,0-3.9
	c-0.1-2.3-0.1-4.7-0.3-7c-0.4-5.7,0.3-11.3,0.8-17c0.3-3,0.4-6,0.6-8.9c0.4-4.5,0.8-9,1.2-13.5c0.2-1.7,1-3.4,2.2-4.7
	c2-2.3,4.5-4.2,7.2-5.6c2.9-1.5,5.8-3,8.8-4.5c3.9-2.1,8.2-2.8,12.5-3.6c4-0.7,8.1-1.2,12.1-1.9c3.7-0.7,7.4-1.5,11.1-2.1
	c1.5-0.3,3-0.4,4.6-0.4c3.6,0.3,6.6,2.8,7.4,6.2c0.9,4.4,1.1,8.9,0.6,13.3c-0.3,2.6-2,4-4.5,4.5c-2.3,0.6-4.6,1.3-6.8,2.1
	c-4.1,1.3-8.2,2.7-12.2,4.1c-4.4,1.5-9,2.2-13.3,4.1c-4.1,1.9-6.6,4.6-6.9,9.2c-0.1,1.4-0.4,2.7-0.7,4.1c-0.6,3.1-0.9,6.4-0.8,9.6
	c0.1,5.4,0,10.9,0.2,16.4c0.1,2.3,0.4,2.4,2.7,2.4s4.7-0.3,7-0.4c6.8-0.3,13.7-0.6,20.5-0.8c2.9-0.1,5.8,0,8.7,0
	c7.6-0.2,14.8,1.8,21.9,4.4c2.6,1,5.2,1.9,7.8,2.8s4.7,2.6,5.4,5.5c1.2,4.9,2.7,9.8,3,15c0.2,3,0.6,5.9,0.8,8.9
	c0.1,1.5-0.2,3-0.2,4.6c-0.1,3.2-0.1,6.4-0.2,9.6c0,1.4,0.3,1.8,1.8,1.8c8.4,0.2,16.7,0.4,25.1,0.6c0.1,0,0.3,0,0.4,0
	c6.2-1,12.3,0.4,18.5,0.7c5.2,0.2,10.5,0.8,15.6,1.7c3.9,0.7,7.9,1.2,11.3,3.7c0.4,0.3,0.9,0.5,1.4,0.5c4.9,0.9,9.6,2.3,14.2,4.1
	c2,0.8,4.2,1.4,6.3,1.8c3.3,0.7,6.4,1.9,9.4,3.4c3,1.4,6,2.7,8.9,4.2c2.1,1.1,4.1,2.4,6.1,3.8c2.4,1.8,4.7,3.8,7.1,5.5
	c6.5,4.7,11.8,10.5,17.9,15.6c4.2,3.5,8.1,7.3,12.1,11c1,0.9,1.9,2,2.9,3c3.3,3.4,6.6,6.8,9.9,10.1c1.6,1.6,3.4,3,4.9,4.6
	c3.5,3.6,6.9,7.2,10.4,10.9c0.8,0.8,1.5,1.7,2.4,2.5c1.9,1.9,3.5,4.1,4.8,6.4c1.1,1.9,2.7,3.6,4,5.4c3,4.4,4.9,9.3,5.6,14.5
	c0.1,1.1,0.3,2.2,0.6,3.2C731.6,259.9,731.1,261.2,730.7,262.6L730.7,262.6z"/>
<path fill="#FFC107" stroke="#FFC107" stroke-miterlimit="10" d="M212.1,252.5c-1.7-3.2-3.9-6.2-6.6-8.7c-2.3-1-4.6-1.9-7-2.7
	c-1.3-0.4-2.7-0.7-4-0.9c-2.4,0.2-4.7-0.7-7-0.5c-0.7,0.5-1.4,0.9-2.2,1.2c-2.2,0.9-4.4,1.6-6.6,2.4c-4.5,1.8-8.4,4.8-11.2,8.8
	c-1.1,1.5-2.3,3-3.4,4.5c-0.9,1.1-1.6,2.4-2.2,3.8c-1.2,3.3-2.7,6.6-2.7,10.3c0,2.3-0.6,4.6-0.8,6.9c-0.1,2-0.6,4,0.4,6
	c0.1,0.3,0.2,0.6,0.1,0.9c-0.4,2.6,1,4.5,2.4,6.3c0.8,1.2,1.7,2.3,2.7,3.4c2.1,1.9,4.6,3.3,7.3,4c5.6,1.6,11.5,1.5,17-0.4
	c1.1-0.4,2.3-0.5,3.4-0.8c4.9-1.4,8.8-4.4,12.6-7.5c4.5-3.8,8-8.6,10.2-14c1.2-2.9,1.8-6,1.8-9.2c0-0.9,0.1-1.8,0.3-2.6
	c-0.1-0.1-0.1-0.2-0.2-0.3c-0.5-2-1.2-3.9-2.1-5.7C213.7,255.9,213,254.2,212.1,252.5L212.1,252.5z M210.3,276.4
	c-3.4,7.2-9.2,12.1-15.9,15.9c-0.7,0.4-1.5,0.7-2.2,0.8c-4.5,1-8.7,2.9-13.8,3c-2.4-0.2-4.8-0.7-7-1.6c-4.3-1.6-6.5-4.9-7.5-9.1
	c0-0.2-0.1-0.4-0.2-0.6c-1.8-3.8-1.3-7.6-0.6-11.5c0.5-2.4,0.9-4.9,1.4-7.3c1.1-4.6,3.5-8.9,6.9-12.2c0.8-0.8,1.5-1.8,2.3-2.6
	c0.4-0.4,0.8-0.8,1.3-1.1c3.7-2.1,7.7-3.9,11.8-5.1c1.6-0.4,3.1-0.6,4.8-0.6c4.7,0,9.3,1.3,13.2,3.8c1.3,0.8,2.3,2,3.1,3.3
	c2,3.3,4,6.6,4.4,10.6C213,266.9,212.3,271.9,210.3,276.4L210.3,276.4z M553.1,239.5c0.9,0.6,2.1,0.4,2.8-0.4
	c0.1-0.1,0.2-0.2,0.2-0.4c0.2-0.3,0.3-0.6,0.5-0.9c-0.1-1-0.3-2.1-0.3-3.1c-0.3-0.2-0.5-0.3-0.8-0.5c-1.2-0.6-1.8-0.5-2.7,0.5
	C551.7,236.1,551.8,238.2,553.1,239.5L553.1,239.5z M628.7,165c-0.6-1-1.2-1.9-2-2.7c-1.6-0.3-3.2,0.7-3.5,2.4c0,0,0,0.1,0,0.1
	c0.5,0.5,0.9,1.1,1.2,1.7c0.3,0.6,0.5,1.1,0.7,1.8c1.2,0.7,2.7,0.6,3.8-0.4C628.8,166.9,628.8,165.9,628.7,165L628.7,165z
	 M626.4,166c-0.4,0-0.6-0.4-0.6-0.7c0-0.3,0.3-0.5,0.6-0.6c0.4,0,0.6,0.4,0.6,0.7C626.9,165.7,626.7,166,626.4,166z"/>
<path fill="#FFC107" stroke="#FFC107" stroke-miterlimit="10" d="M731,258.4c-0.3-1-0.5-2.1-0.6-3.2c-0.7-5.2-2.6-10.2-5.6-14.5
	c-1.3-1.8-2.8-3.5-4-5.4c-1.3-2.4-2.9-4.5-4.8-6.4c-0.8-0.8-1.6-1.7-2.4-2.5c-3.5-3.6-6.9-7.3-10.4-10.8c-1.6-1.6-3.3-3-4.9-4.6
	c-3.3-3.3-6.6-6.7-9.9-10.1c-1-1-1.8-2.1-2.9-3c-4-3.7-7.9-7.5-12.1-11c-6.1-5.1-11.5-10.9-17.9-15.6c-2.4-1.8-4.6-3.8-7.1-5.5
	c-1.9-1.4-4-2.7-6.1-3.8c-2.9-1.5-5.9-2.8-8.9-4.2c-3-1.5-6.1-2.7-9.4-3.4c-2.1-0.4-4.3-1.1-6.3-1.8c-4.6-1.8-9.3-3.2-14.2-4.1
	c-0.5-0.1-1-0.2-1.4-0.5c-3.4-2.4-7.4-3-11.3-3.7c-5.2-0.9-10.4-1.5-15.6-1.7c-6.2-0.3-12.3-1.7-18.5-0.7c-0.1,0-0.3,0-0.4,0
	c-8.4-0.2-16.7-0.4-25.1-0.6c-1.4,0-1.8-0.4-1.8-1.8c0.1-3.2,0.1-6.4,0.2-9.6c0-1.5,0.3-3.1,0.2-4.6c-0.2-3-0.6-5.9-0.8-8.9
	c-0.3-5.1-1.8-10-3-15c-0.7-2.9-2.8-4.5-5.4-5.5c-2.6-1-5.2-1.9-7.8-2.8c-7.1-2.6-14.3-4.6-21.9-4.4c-2.9,0.1-5.8-0.1-8.7,0
	c-6.8,0.2-13.7,0.5-20.5,0.8c-2.3,0.1-4.6,0.3-7,0.4s-2.6-0.1-2.7-2.4c-0.2-5.5-0.1-10.9-0.2-16.4c-0.1-3.2,0.2-6.4,0.8-9.6
	c0.3-1.3,0.6-2.7,0.7-4.1c0.3-4.6,2.8-7.4,6.9-9.2c4.3-1.9,8.9-2.6,13.3-4.1c4-1.4,8.1-2.7,12.2-4.1c2.2-0.8,4.5-1.6,6.8-2.1
	c2.5-0.5,4.3-1.9,4.5-4.5c0.5-4.4,0.3-8.9-0.5-13.3c-0.9-3.5-3.9-6-7.4-6.2c-1.5,0-3.1,0.1-4.6,0.4c-3.7,0.7-7.4,1.5-11.1,2.1
	c-4,0.7-8,1.2-12.1,1.9c-4.3,0.8-8.6,1.6-12.5,3.6c-2.9,1.5-5.8,3-8.8,4.5c-2.7,1.4-5.2,3.3-7.2,5.6c-1.2,1.3-2,2.9-2.2,4.7
	c-0.4,4.5-0.8,9-1.2,13.5c-0.2,3-0.4,6-0.6,8.9c-0.5,5.7-1.2,11.3-0.8,17c0.1,2.3,0.2,4.7,0.3,7c0,1.3-0.1,2.6,0,3.9
	c0.1,2.1-0.2,2.5-2.2,2.6c-3.9,0.1-7.9,0.3-11.8,0.5c-6.4,0.3-12.8,0.7-19.2,1h-1.8c-1.5-0.1-1.8-0.3-2-1.8
	c-0.2-1.5-0.2-2.9-0.1-4.4c0.3-5.4,0.7-10.7,1.1-16.1c0.2-2.4,0.2-2.4,2.6-2.8s3.4-1.3,3.7-3.4c0.2-1.5,0.3-3,0.1-4.6
	c-0.1-1.5-0.9-2.2-2.4-2.4c-0.6-0.1-1.2-0.1-1.7,0c-2.5,0.3-5,0.8-7.6,0.8c-3.8,0.1-7.6,0.8-11.3,1.9c-1.5,0.3-2.6,1.6-2.6,3.1
	c0,1.5,0,3,0.1,4.6c0,0.4,0.2,0.7,0.5,0.9c2,0.8,1.7,2.5,1.7,4.1c-0.2,7.1-0.5,14.3-0.7,21.4c-0.1,1.6-0.3,1.8-1.9,2.1
	c-4.8,0.6-9.5,1.2-14.3,2c-1.9,0.3-3.7,0.8-5.5,1.4c-3.9,1.2-7.7,2.7-11.6,3.7c-7,1.7-13.1,5.2-18.8,9.3c-0.5,0.3-0.9,0.8-1.1,1.3
	c-0.5,1.3-0.9,2.6-1.1,4c-0.4,2.4-0.6,4.8-0.8,7.1c-0.3,3-0.5,6.1-0.6,9.1c-0.1,3.9,0,7.9-0.1,11.8c-0.1,2.5-0.2,2.6-2.6,2.8
	c-5.7,0.5-11.3,1-17,1.5c-8.2,0.6-16.4,1.1-24.6,1.9c-4.4,0.4-9,0.5-13.1,2.6c-0.2,0.1-0.4,0.1-0.6,0.1c-5.3,0.7-10.7,1.6-16,2
	c-5.2,0.5-10.4,1.3-15.5,2.3c-1.9,0.4-3.8,1-5.6,1.8c-3.2,1.6-6.3,3.3-9.4,5.2c-6.7,4.3-13.4,8.6-19.9,13.1
	c-4.1,2.8-7.9,5.9-11.7,9.1c-3.8,3.2-7.1,6.4-10.7,9.6c-1.1,1-2.5,1.8-3.6,2.8c-3.7,3.4-7.4,6.8-11.1,10.2c-3.3,3.1-6.5,6.2-9.6,9.5
	c-4.2,4.5-8.2,9.1-12.3,13.6c-3.2,3.5-6.5,6.9-9.8,10.3c-0.4,0.4-0.9,0.7-1.4,0.9c-0.7-1.1-1.5-2.1-2-3.2c-2.2-4.1-5.4-7.6-7.3-11.9
	c-0.9-2.1-1.8-4.3-2.8-6.4c-3.4-7.1-6.8-14.3-10.3-21.4c-0.8-1.5-1.9-2.9-2.7-4.5c-2.2-4.2-4-8.7-6.6-12.7c-1.7-2.6-3.2-5.4-5-7.9
	c-1.5-2.1-3.3-4-4.8-6.2c-1.1-1.2-2.3-2.4-3.6-3.5c-2.9-3-5.6-6.1-8.4-9.2c-2.4-2.7-5.5-4.6-9-5.5c-1.8-0.6-3.8-0.3-5.4,0.9
	c-2.4,1.7-4.9,3.3-6.7,5.8c-1.8,2.3-3.2,4.9-4.1,7.6c-0.9,2.8-1.6,5.6-2.1,8.5c-0.7,3.6-1.2,7.2-1.3,10.8c-0.1,4.4,0.7,8.7,2.3,12.8
	c0.2,0.6,0.4,1.1,0.6,1.6c0.8,2.3,1.5,4.7,2.5,7c2.2,5,4.5,9.9,6.8,14.9c0.7,1.6,1.5,3.1,2.5,4.6c1.2,1.8,2.5,3.5,3.7,5.4
	c3.7,5.8,7.9,11.1,12.7,16c0.2,0.2,0.3,0.5,0.6,0.7c0.8,1.1,1.7,2.1,2.7,3.1c2.4,2.4,4.9,4.8,7.5,7c4.8,4.3,9.2,9.1,14.4,13.1
	c2.7,2,5.2,4.1,7.8,6.3c0.9,0.9,1.7,1.8,2.5,2.8c-0.7,0.2-1.5,0.4-2.2,0.5c-3.4,0.1-6.8,0.1-10.3,0.4s-7,0.7-10.4,0.9
	c-4.9,0.3-9.8,1.8-14.8,0.9c-0.6-0.1-1.2-0.1-1.8,0l-6.5,0.4c-0.4,0-0.8,0-1.2,0c-0.7-0.1-15.4-1.6-16.8,2.9
	c-0.2,0.5-0.2,1.3,0.2,2.2c7.5-0.7,13.6-1.1,17.7-1.3c11.4-0.7,12.5-0.8,17-1.2c3.4-0.3,6.8-0.9,10.2-1.2c1.4-0.1,2.9-0.1,4.3-0.1
	c1.9,0,3.9,0,5.9-0.1c3.7-0.2,7.4-0.4,11.1-0.5c0.6,0.1,1.2,0.2,1.8,0.4c-0.9,0.8-1.5,1.4-2.1,2c-1.3,1-2.7,2.1-4,3.1
	c-4,3.1-7.1,7.1-10.6,10.7c-4,4.2-8,8.3-11.9,12.4s-8.2,7.6-11.6,12.2s-7.4,8.9-10.7,13.7c-0.8,1.2-2.1,2.1-2.8,3.3
	c-2.4,3.6-5.1,7.1-8.1,10.3c-2.9,3.4-5.9,6.7-8.7,10.1c-2.3,2.8-4.5,5.7-6.8,8.5s-4.7,5.5-6.9,8.4c-1.2,1.6-2,3.6-3.1,5.2
	c-3.1,4.2-4.8,9-6.7,13.7c-1.3,3.4-2.6,6.8-3.7,10.3c-1.1,3.1-1.3,6.5-0.6,9.7c0.6,1.9,1.3,3.7,2.2,5.4c1.7,3.4,3.9,6.5,6.7,9.1
	c1.3,1.4,3,2.3,4.9,2.6c4.3,0.7,8.8,0,12.7-2c3.3-1.7,6.5-3.6,9.5-5.8c2.2-1.6,4.2-3.4,6.1-5.3c1.5-1.4,2.8-2.9,4.2-4.4
	c1.7-1.6,3.2-3.3,4.7-5.1c3.3-4.6,6.4-9.4,9.6-14c4-5.9,8.1-11.7,12.2-17.6c0.7-1.1,1.3-2.3,2-3.4s1.5-2.5,2.3-3.7
	c1.7-2.7,3.6-5.3,5.2-8.1c2.2-3.8,4-7.7,6.7-11.2c1-1.4,1.8-2.9,2.5-4.5c0.7-1.6,1.5-3.1,2.4-4.6c1.9-2.9,3.5-6,4.8-9.1
	c0.7-1.5,1.2-3.1,2.9-4c0.4,0.2,0.7,0.5,1,0.8c2.7,2.8,5.9,4.9,9,7.3c4.4,3.3,8.7,6.8,13,10.2c3,2.3,5.9,4.8,8.9,7s6.2,4.5,9.4,6.7
	s6.1,4.2,9.1,6.3c3.2,2.2,6.4,4.6,9.7,6.6c5.2,3.1,10.6,5.8,15.9,8.7c2.3,1.3,4.6,2.7,6.9,4.1l0.7,0.3c5.9,3.4,11.9,6.8,17.9,10.1
	c1.9,1,3.9,2,5.9,2.9c2.9,1.2,5.8,2.4,8.7,3.5c3.9,1.6,7.8,3.1,11.7,4.6c1.1,0.5,2.3,0.9,3.5,1.2c6.6,1.3,13.1,2.2,19.9,1.5
	s13.6-0.9,20.5-1.2c4.5-0.2,9-0.4,13.5-0.6c2.2-0.1,4.5-0.3,6.8-0.3c3.4-0.1,6.7,0,10-0.1c3.9-0.1,7.9-0.6,11.8-0.7
	c10.2-0.3,20.4,0.1,30.6-0.9c3.7-0.3,7.4,0,11.1-0.2c3.9-0.2,7.8-0.1,11.7-0.5c2.9-0.2,5.8-0.1,8.7,0.3c7.9,0.7,15.7,0.3,23.5,0
	c2.6-0.1,5.2-0.5,7.8-0.6c4.1-0.2,8.1-0.4,12.2-0.5c3.1-0.1,6.1-0.4,9.2-0.2c3.8,0.2,7.5,0.8,11.3,1.1c1.5,0.1,3.1,0,4.6-0.1
	c0.8,0,1.6-0.2,2.4-0.3c3.7-0.4,7.4-0.6,11.1-1c5.2-0.6,10.4-1.5,15.6-1.5h14c1.4,0,2.7-0.1,4.1-0.1c2.3,0,4.6,0.1,7,0
	c5.5-0.2,10.9-0.5,16.4-0.7c6.6-0.2,13.2-0.3,19.9-0.5c2.6-0.1,5.2-0.6,7.8-0.8c3.4-0.3,6.8-0.5,10.2-0.8c1.4-0.1,2.7-0.4,4.1-0.4
	c3.4-0.1,6.8-0.1,10.2-0.3c5-0.2,10-0.6,15-0.7c3.5-0.1,7.1,0,10.7-0.1c5.2-0.1,10.3-0.1,15.5-0.6c6.9-0.6,13.8-1.2,19.7-5.5
	c3.8-2.6,7-6,9.3-10c2-3.9,4.5-7.6,7.4-11c2-2.2,4-4.5,5.8-6.8c4-4.9,7.9-9.9,11.8-14.9c1.8-2.2,3.4-4.5,5-6.8c2.1-3,3.9-6.1,6-9.1
	c2.2-3.2,4.8-6.1,6.5-9.5c1.6-3.2,3.4-6.4,5.3-9.5c3.2-5.1,6.6-10.1,9.8-15.2c1.6-2.5,2.9-5.2,4.3-7.8s2.8-5.6,4.6-8.2
	c1.7-2.6,3.2-5.4,4.3-8.3c0.2-0.7,0.5-1.4,1-2c1.2-1.3,1.5-3,2-4.5c1.4-4.5,2.6-6.6,3.1-9.5C731,260.8,731,259.4,731,258.4z
	 M492.9,19.9l0.6,0.1c0.3,1.2,0.5,2.4,0.6,3.6c0.1,2.8,0.1,5.5,0.1,8.3c0,1.1-0.9,2-2,2.2c-0.9,0.1-1.5-0.4-1.9-1.7
	c-0.9-3.2-0.1-6.3,1-9.4C491.8,21.9,492.3,20.9,492.9,19.9L492.9,19.9z M432.1,82.1c0.1-4.1,0.1-8.2,0.2-12.2
	c0.2-5.4,0.7-10.7,1-16.1c0.2-3.6,0.5-7.3,0.7-10.9c0-3.1,0.7-6.1,1.8-8.9c0.7-1.6,1.9-2.9,3.3-3.9c6.3-4.6,13.6-7.7,21.3-9.2
	c5.7-1,11.3-2,17-2.8c3.4-0.5,6.8-0.8,10.2-1.2c0.4,0,0.9,0,1.3,0c1.8,0.1,2.1,0.7,1.3,2.4c-1.1,2.5-2.2,5.1-3.3,7.6
	c-0.9,2.3-0.8,4.9,0.3,7.2c0.7,1.6,0.5,2-1.2,2.5c-6.1,1.8-12.2,3.3-18.2,5.4c-4.1,1.3-8.3,2.7-11.9,5.2c-2.8,1.8-4.7,4.6-5.6,7.8
	c-1.5,5.5-1.9,11.2-2.4,16.8c-0.5,5.2-0.4,10.5,0.2,15.7c0.2,1.5-0.1,1.9-1.9,1.9h-14.2C432.1,86.7,432,84.4,432.1,82.1L432.1,82.1z
	 M377.8,59.8c1.2-0.5,2.5-0.8,3.8-1c4-0.5,8.1-0.9,12.1-1.3c2.2-0.2,2.6,0.1,2.6,2.5s-0.2,2.7-2.5,3c-1.7,0.1-3.5,0.2-5.2,0.1
	c-2,0-4.1-0.2-6.1-0.1s-4,0.3-6,0.5C375.8,61.6,376.1,60.5,377.8,59.8z M389.2,68.7c-0.2,3.8-0.5,7.7-0.8,11.5
	c-0.2,2.9-0.3,5.8-0.4,8.7c-0.1,2.2,0,2.3-2.2,2.7c-2.5,0.6-5.1,1-8.1,1.7c-0.1-2.5-0.3-4.6-0.3-6.7c0.2-5.9,0.5-11.9,0.8-17.8
	c0.1-2.4,0.1-2.6,2.5-2.9c1.9-0.2,3.8-0.3,5.6-0.2C388.9,65.8,389.3,66.3,389.2,68.7L389.2,68.7z M322.6,144.5
	c0.2-7.1,0.4-14.1,0.7-21.2c0.1-2.7,0.7-5.3,0.9-8s2-4.1,3.9-5.2c2.8-1.5,5.8-2.8,8.8-3.9c1.9-0.8,3.8-1.4,5.8-2
	c0.8-0.3,1.7-0.5,2.5-0.7c1.9-0.5,3.8-0.9,5.7-1.4c4.2-1,8.4-1.9,12.5-2.8c3.1-0.7,6.2-1.3,9.4-1.9c1-0.1,2-0.1,3,0
	c2-0.7,4-1.3,6.1-1.8c4.6-0.7,9.2-1.2,13.8-1.8c2.2-0.3,4.3-0.6,6.5-0.8c2.7-0.2,5.5-0.3,8.2-0.4c3.7-0.2,7.4-0.6,11.1-0.7
	c2.5-0.1,5.1,0.2,7.6,0.2h16.8c0.4-0.1,0.9-0.1,1.3,0c1.8,0.3,3.6,0.3,5.4,0.1c3-0.2,6.1-0.1,9.1-0.2c3.6-0.1,7.3-0.4,10.9-0.5
	s7.3,0,10.9-0.1c0.8,0,1.6-0.2,2.4-0.2c5.2-0.2,10.3,0.2,15.4,1.3c3.8,1.1,7.5,2.3,11.1,3.8c1.4,0.5,2.9,0.9,4.4,1.2
	c2.6,0.5,4.6,2.5,5.2,5c2.5,7.9,3,16,3.2,24.2c0.1,3.9-0.3,7.7-0.4,11.6c-0.1,1.6-0.2,1.8-1.7,1.9c-2.5,0.2-5.1,0.3-7.6,0.3
	c-5,0.1-10,0.1-15.1,0.1c-1.8,0-3.6-0.2-5.5-0.4c-2.8-0.4-5.7-0.5-8.5-0.1c-2.3,0.3-2.7-0.1-3.3-2.5c-0.8-3.2-1.6-6.5-2.5-9.7
	c-0.4-1.2-0.9-2.3-1.5-3.4c-0.8-1.6-1.5-3.3-2.4-4.9c-1.4-2.4-3.7-3.9-6-5.3s-4.9-2.5-7.3-3.8c-1.4-0.8-2.7-1.7-4.1-2.5
	c-0.8-0.5-1.6-0.9-2.5-1.2c-7-1.8-14-4.3-21.4-3.7c-2.9,0.2-5.8,0.1-8.7,0.3c-3.2,0.3-6.5,0.9-9.7,1.5s-6.5,1.4-9.8,2.3
	c-2.7,0.8-5.4,1.7-8,2.7c-5.3,2-10.5,4.2-15.8,6.2c-2.4,0.9-4.1,2.7-6.1,4.1c-3.5,2.5-6,5.9-8.6,9.2c-3.3,4.2-5.5,9.1-6.5,14.4
	c-0.3,1.8-0.6,2-2.5,2.1c-3.6,0.1-7.3,0.1-10.9,0.1c-8,0.1-16,0.1-24,0.2C323.1,146.5,322.6,146.2,322.6,144.5L322.6,144.5z
	 M463.8,121.8c-2.9-3-6.1-5.7-10.1-7c-2.4-0.8-4.9-1.5-7.4-1.8c-5-0.7-9.9-1.9-14.9-1.6s-9.9,0.7-14.7,1.4
	c-3.7,0.6-7.3,1.5-10.8,2.7c-2.1,0.6-4.1,1.9-6.2,2.6c-7.3,2.3-13.4,6.7-19.5,11c-3.7,2.7-6.5,6.5-8,10.9c-0.4,1.2-0.9,2.4-1.5,3.6
	c-1,2.2-1.6,2.6-4,2.4c-0.6-0.1-1.2-0.2-1.7-0.3c-0.1-0.4-0.1-0.8,0-1.2c1.3-5.2,3.7-10,6.8-14.3c2.3-3,4.7-6,7.9-8
	c2.6-1.7,5.4-3.2,8.2-4.6c5.3-2.7,10.9-4.9,16.6-6.6c4.4-1.5,8.9-2.6,13.5-3.1c1.2-0.2,2.4-0.4,3.6-0.7c6.1-1.2,12.2-0.9,18.3-0.4
	c3.9,0.3,7.8,1.8,11.6,2.8c1.4,0.3,2.7,0.7,4,1.2c5.2,2,9.9,5,13.9,8.9c0.8,0.8,1.6,1.5,2.4,2.2c4.6,3.9,5.5,9.3,6.6,14.8
	c0.2,0.9,0.3,1.9,0.5,2.8c0,0.1-0.1,0.3-0.1,0.4c-2.8,0.8-3.6,0.4-4.6-2.3C471.9,131.7,468.4,126.3,463.8,121.8L463.8,121.8z
	 M470.7,140.4c-1.3,0.1-2.1,0.3-3,0.4c-5.1,0.2-10.2,0.5-15.3,0.7c-4.4,0.1-8.7,0.2-13.1,0.4c-3.4,0.1-6.8,0.3-10.3,0.4
	c-7,0.3-14.1,0.5-21.1,0.9c-5.1,0.3-10.2,0.7-15.2,1l-15.7,1.1c-0.8,0.1-1.7,0-2.7,0c0.1-0.4,0.2-0.9,0.4-1.3
	c1.6-3.2,3.4-6.2,5.4-9.2c3.3-4.6,7.7-8.2,12.9-10.4c7.5-3.1,15-6.1,22.9-7.8c5.6-1.4,11.4-1.9,17.1-1.5c3.6,0.2,7.1,0.6,10.6,1.2
	c5,0.9,9.7,2.8,13.9,5.5c3.4,2.4,6.3,5.5,8.5,9c1.3,2,2.4,4.2,3.5,6.3C470,138.1,470.4,139.2,470.7,140.4L470.7,140.4z M287,223.9
	c0.1-4.4,0.6-8.9,0.9-13.3c0.5-6.5,1-13.1,1.4-19.6c0.2-4,0.1-8,0.1-12c0-6-0.1-12-0.3-17.9c0-2.3-0.4-4.6-0.4-7
	c0-2.1,0.4-2.6,2.5-2.8c4.5-0.4,9-0.7,13.5-1c5.3-0.3,10.6-0.6,15.9-0.8c4.6-0.1,9.2,0,13.8-0.1s9-0.2,13.5-0.3s9.2-0.6,13.7-0.3
	c3.3,0.1,6.7,0.1,10-0.2c3.4-0.2,6.8-0.9,10.2-1.2c4.4-0.3,8.9-0.4,13.3-0.6c1.2-0.1,2.5-0.2,3.7-0.3c4.9-0.3,9.7-0.6,14.6-0.9
	c5.3-0.3,10.6-0.6,15.9-0.7c5.9-0.2,11.8-0.2,17.7-0.4c4.2-0.1,8.4-0.5,12.6-0.6c2.6-0.1,5.2-0.1,7.9-0.1l14.2-0.4h5
	c3.1,0,6.2,0.1,9.4,0.2c2.5,0.1,5,0.3,7.6,0.4s4.8,0,7.2,0.1c1.5,0,3,0.1,4.6,0.1c2.9,0.1,5.9-0.1,8.7,0.4s5.3-0.2,8-0.3
	c2.8-0.1,5.7,0.1,8.5,0.1c0.7,0.1,1.4,0.1,2.2,0.1c5.1-0.7,10.2-0.3,15.3,0.1c1.7,0.1,3.3-0.1,5-0.1c2.4,0.1,4.8,0.5,7.2,0.6
	c6,0.3,12,0.8,18,1.8c3.2,0.4,6.3,1.2,9.2,2.4c3.5,1.8,6.7,4.1,9.4,6.9c3.3,3.1,5.9,6.8,8.7,10.4c2.5,3.5,4.7,7.1,6.7,10.9
	c1.9,3.4,3.9,6.6,5.6,10.1c1.6,3.3,2.9,6.7,4.3,10c1.3,3.2,2.7,6.3,3.8,9.5c1.5,4.3,3,8.7,4.3,13.1c1.7,5.4,3.2,10.7,4.7,16.1
	c0.3,1.2,0.5,2.6,0.8,3.9c0.8,3.8,1.7,7.5,2.5,11.3c0.5,2.1,0.3,2.4-2,2.5c-1.1,0-2.2,0.1-3.3,0.1c-0.9,0.1-1.8-0.5-2.1-1.4
	c0.6-0.3,1.2-0.7,1.8-1.2c0.8-0.9,0.5-1.7-0.7-2.2c-1.7-0.7-2.3-0.6-3.1,0.5c-1.1,1.4-1,2.2,0.1,3.6c0.1,0.2,0.2,0.5,0.3,0.8
	l-8.6,1.2c0.3-0.5,0.6-1,1-1.4c0.8-0.4,1.2-1.4,0.8-2.2c-0.3-1.4-0.7-2-1.8-2.1c-1.2-0.1-2.3,0.6-2.7,1.8c-0.2,0.6-0.3,1.1-0.3,1.7
	c0,0.7,0,1.3,0.1,2c-4.8,1-9.7,1.4-14.7,1c0.4-0.8,0.7-1.3,1-1.8c0.5-0.8,0.4-1.9-0.3-2.6c-0.5-0.4-1.1-0.6-1.8-0.5
	c-1,0.3-1.6,1.2-1.5,2.2c0.1,0.6,0.2,1.3,0.3,1.9c0.2,1-0.2,1.4-1.2,1.5c-7,0.5-13.9,1-20.9,1.5c-5.4,0.4-10.9,0.8-16.3,1.1
	c-1.3,0.1-2.7,0-4.3,0c0.5-0.9,0.8-1.5,1.1-2.1c0.6-1.1,0.2-2.6-0.9-3.2c-0.8-0.7-2.1-0.6-2.8,0.2c-0.9,0.9-1.1,2.3-0.4,3.4
	c0.6,0.6,1.3,1.2,2,1.7c-0.6,0.2-1.3,0.4-1.9,0.5c-1.2,0.1-1.5-0.2-1.6-1.5c-0.1-1.8-0.1-3.5-0.2-5.2c-0.3-4.7-0.7-9.4-1-14.1
	c-0.3-3.4-0.5-6.8-1-10.2c-0.6-3.9-1.4-7.9-2.5-11.7s-2.4-7.6-3.7-11.4c-0.4-1.1-0.8-2.2-1.4-3.2c-1.5-2.9-3-5.8-4.8-8.6
	c-2-3.1-4.3-6-6.5-9c-1.2-1.6-2.5-3-3.6-4.6c-3.4-4.4-8.2-7-12.5-10.4c-3.3-2.7-7.1-4.6-11.2-5.8c-2.4-0.7-4.7-1.7-7-2.5
	c-4.2-1.6-8.7-2.3-13.3-2.2c-7.4,0.3-14.7,0.8-22,1.2c-3.1,0.2-6.1,0.3-9.1,0.6c-3.2,0.4-6.3,1.1-9.5,1.4
	c-5.4,0.6-10.3,2.5-15.4,3.9c-6,1.6-12,3.1-17.6,5.8c-4.3,1.9-8.4,4-12.4,6.4c-3.8,2.4-7.2,5.4-10.8,8.1c-1.6,1.2-3.3,2.4-4.9,3.7
	c-3.8,3.2-7.6,6.4-11.1,9.8c-2.2,2.1-3.8,4.8-6,6.9c-1.5,1.5-2.8,3.1-3.9,5c-1.2,2.3-2.4,4.7-3.5,7c-1.8,3.9-3.7,7.8-5.3,11.8
	c-1.5,3.9-3.1,7.7-3.6,11.9c-0.2,1.7-1,3.4-1.3,5.1c-0.4,2.4-0.5,4.9-0.8,7.4c-0.1,0.7-0.1,1.4-0.2,2.2c0,1.1-0.9,2.1-2,2.2
	c-1.4,0.3-2.9,0.6-4.3,0.8c-4,0.7-8,1.6-12,2.2c-6.1,0.9-12.3,1.5-18.6,2.2c-0.6-2-1.2-3.6-1.6-5.4c-0.7-3.5-1.7-6.8-4.1-9.5
	c-0.6-0.7-1-1.4-1.3-2.2c-1.4-3.2-3.9-5.1-7-6.6c-3.7-1.9-7.7-3.2-11.8-3.6c-2.6-0.4-5.1-0.9-7.6-1.6c-0.1-0.3-0.2-0.7-0.3-1
	C287.2,231.4,286.9,227.6,287,223.9L287,223.9z M554.4,272.9c0.2,1,1.2,1.7,2.2,1.5c0.4-0.1,0.8-0.3,1.1-0.7
	c0.3-0.3,0.6-0.6,0.9-0.9c0.1,0,0.3,0,0.4,0c0.5,2.9,0.6,16.2-0.4,19.8l-1.5-0.6c-1.5-0.5-2.5,0-3.3,1.6c-0.7,1.4-0.5,2.9,0.7,3.5
	c0.8,0.3,1.7,0.3,2.5,0c0.4-0.4,0.8-0.8,1-1.3l0.5,0.2c0,1-0.2,2.1-0.3,3.1c-1,5.2-1.8,10.5-3,15.6c-1.3,5.8-3.4,11.4-6.4,16.7
	c-2.6,4.3-5.7,8.3-9.2,11.9c-3.8,4.2-8.4,7.4-13.1,10.5c-4.2,2.9-8.6,5.5-13.2,7.7c-0.5,0.2-1,0.3-1.5,0.4c0.5-0.8,0.8-1.3,1.1-1.7
	c0.8-1.1,0.6-2.7-0.4-3.5c-0.9-0.8-2.2-0.9-3.2-0.2c-1.1,0.8-1.5,2.3-0.7,3.5c0.6,0.9,1.3,1.7,2.1,2.4c-0.5,0.4-1.1,0.7-1.7,0.9
	c-5.7,2-11.4,4.1-17.2,5.7c-6.4,1.7-13,2.6-19.7,2.5c-2.1-0.2-4.3-0.4-6.4-0.8c0.6-0.6,0.9-0.9,1.2-1.2c0.5-0.4,1-0.8,1.4-1.3
	c0.6-0.9,0.6-2,0-2.9c-0.4-0.7-1.3-1.1-2.1-0.8c-0.9,0.2-1.7,0.4-2.4,0.9c-1.5,0.9-1.8,1.9-1.1,3.5c0.1,0.4,0.4,0.7,0.6,1.4
	c-2.3-0.1-4.4,0.1-6.6-0.9c1.1-1.3,2.5-2.5,1.1-4.3c-1-0.9-2.4-1.2-3.6-0.7c-2,0.8-1.8,2.4-1.4,4.3c-0.7,0.1-1.5,0.1-2.2,0
	c-6.5-1.8-13.2-2.8-19.5-5.5c-3.7-1.6-7.7-2.7-11.4-4.4c-4.2-2-8-4.5-11.4-7.6c-3.3-2.8-6.6-5.8-9.8-8.7c-3.2-3-6-6.3-8.5-9.9
	c-3.1-4.4-6-8.9-9.1-13.3c-2.7-4-5.2-8.3-7.4-12.6c-4.1-7.2-7.1-15-9-23.1c-1.5-6.8-3.1-13.7-3.1-20.7c-0.1-6.8,0.7-13.5,2.2-20.1
	c2.6-9.9,6.8-19,11.7-27.9c3-5.5,7.4-9.9,12-14c2.8-2.4,5.8-4.7,8.7-7c0.6-0.4,1.2-0.8,1.8-1.2v1.6c0.1,1.9,0.9,2.7,2.5,2.4
	c1.4-0.3,2.3-1.6,2-3c0,0,0-0.1,0-0.1c-0.5-1.1-1.1-2.1-1.7-3c5.3-5.2,11.6-9.4,18.5-12.2c0.8-0.5,1.6-0.9,2.5-1.1
	c0.6-0.4,1.3-0.7,2-1c5.7-2.4,11.7-4.3,17.8-5.7c3.6-0.9,7.2-1.7,10.9-2.6c1-0.4,2-0.4,3,0l-0.9,5.1c-1.8,0.9-3.8,1.3-5.9,1.2
	c-0.2-0.6-0.5-1.2-0.8-1.7c-0.5-1-1.5-1.6-2.7-1.5c-1,0.2-1.8,1-1.9,2.1c-0.2,0.5-0.2,1-0.3,1.5c0.2,1.7-0.8,2.3-2.1,2.8
	c-5.8,2.2-11.6,4.3-17.3,6.6c-1.5,0.6-3,1.4-4.4,2.2c-5,2.9-9.9,5.8-14.8,8.8c-0.7,0.5-1.4,1.1-2,1.7c-2.8,2.7-5.5,5.3-8.2,8.1
	c-0.7,0.9-1.3,1.9-1.7,3c-1.1,1.9-2.2,3.8-3.2,5.7c-2.4,4.4-4.9,8.8-7.1,13.2c-0.6,1.4-1.1,2.9-1.5,4.3c-1,3-2,5.9-3,8.9
	c-1.5,4.1-2.4,8.4-2.5,12.8c0,0.3,0,0.6-0.1,0.9c-1.1,5.5-0.4,10.9,0.1,16.3c0.1,2.3,0.6,4.6,1.3,6.8c0.5,1.6,0.9,3.2,1.2,4.9
	c0.5,1.9,1,3.8,1.7,5.6c1.1,3.1,2.3,6.3,3.4,9.4c0.8,2.3,1.2,4.6,2.1,6.9c0.8,2.1,1.9,4.1,2.8,6.1c0.2,0.5,0.4,1,0.5,1.4
	c-2.3-0.3-3.6,1.1-4.9,2.4c-1.2,1.1-1.3,3-0.2,4.2c0.4,0.4,0.9,0.8,1.5,0.9c1.3,0.5,2.7-0.1,3.2-1.4c0.1-0.2,0.1-0.3,0.1-0.5
	c0.3-1.5,0.5-3.1,0.7-5.1c1,1.4,1.7,2.5,2.5,3.5c1.4,2.1,3,4.1,4.7,6c3.2,3.3,5.9,7,8.8,10.5c1.1,1.3,2.3,2.4,3.6,3.5
	c3.1,3,6.5,5.7,10,8.1c2.2,1.4,4.2,3.4,6.3,5c1.4,1,2.9,1.9,4.4,2.8c2.1,1.3,4.3,2.5,6.3,3.8c1.5,0.9,1.5,1.7,0.1,2.8
	c-0.8,0.6-1.8,1-1.7,2.3c0.2,1.7,1.6,3,3.4,3c1.5-0.1,2.7-1.5,2.5-3c0-0.4-0.2-0.9-0.2-1.3c0.1-0.5,0.2-0.9,0.3-1.4
	c3.3,1,6.4,1.8,9.5,2.9c1.8,0.7,3.7,1.2,5.7,1.4c5,0.5,10,1.5,15,1c2.8-0.3,5.5-0.6,8.2-0.9c4.1-0.5,8.2-1,12.3-1.6
	c1.5-0.3,3-0.7,4.4-1.2c5.1-1.9,10-4.3,14.6-7.3c3.3-2,6.6-4,9.7-6.3c2.6-2.2,5.1-4.5,7.5-7c3.5-3.5,6.7-7.3,9.4-11.4
	c1.4-2.1,2.6-4.4,3.9-6.6c0.3-0.5,0.5-1,0.9-1.5c1.5-1.9,2.7-4.1,3.5-6.5c0.9-3,2.3-5.8,3.5-8.7c2.6-6.5,4-13.4,4.2-20.4
	c0.2-3.8,0.4-7.5,0.6-11.3c0.1-2.2,0.1-4.5,0.3-6.7c0.1-0.8,0.3-1.6,0.5-2.4c1.9,0.5,3.6,0.7,4.8-1.6c1,2.6,0.9,4.9,1.6,7.1
	c-0.9,0.1-1.5,0.2-2.1,0.3c-1.9,0.2-3.3,1.9-3.1,3.8C554.3,272.4,554.4,272.7,554.4,272.9L554.4,272.9z M467.7,170.1
	c-2.4,1-5,1.5-7.5,1.6l-1.4-4.4c2.1-1.6,4.8-1.7,7.6-1.8C465.7,167.4,465.3,168.9,467.7,170.1L467.7,170.1z M460.1,175.5
	c2.6-0.7,5.2-1.3,7.9-1.9c4.7-0.9,9.5-1.4,14.3-1.4c3.9-0.2,7.7,0,11.5,0.6c0.2,0,0.4,0,0.7,0.1c3.3,1.1,6.9,1.1,10.1,2.8
	c1.2,0.6,2.3,1.2,3.5,1.8c1.8,0.8,3.5,1.7,5.2,2.8c3.3,2.5,6.5,5.2,9.6,7.8c0.8,0.7,1.5,1.5,2.4,2.2c2.2,1.8,4.1,4,5.6,6.4
	c3.3,4.8,5.3,10.2,7.9,15.3c1.9,3.8,3.4,7.8,4.4,11.9c1,3.7,1.6,7.5,2.2,11.4c0.8,4.9,1.6,9.8,2.1,14.7c0.4,3.7,0.6,7.4,0.6,11.1
	c0,5.2,0.1,10.5-0.3,15.7c-0.4,6.8-0.7,13.7-2.5,20.4c-0.9,3.4-2.2,6.8-3.3,10.1c-0.3,0.9-0.7,1.8-1,2.6c-1,2.7-2.4,5.3-4,7.7
	c-1.8,2.7-3.5,5.5-5.1,8.4c-2.7,4.5-6.5,8-10.1,11.6c-1.1,1.2-2.3,2.4-3.6,3.4c-2.5,1.9-5.2,3.8-7.9,5.4c-3.7,2.2-7.6,4.3-11.6,6
	c-8.5,3.5-17.6,5.4-26.8,5.5c-1.1,0.1-2.2,0.2-3.3,0.4c-3.5,0.3-7,0.2-10.4-0.5c-4.7-0.7-9.4-1.9-13.9-3.5c-4.6-1.8-9-4.1-13.1-6.8
	c-7.1-4.5-13.8-9.7-20-15.4c-2.2-2-4.2-4.2-6.1-6.6c-2.6-3-5.2-6.1-7.7-9.2c-2.8-3.6-5.5-7.3-6.9-11.8c-0.4-0.9-0.8-1.7-1.3-2.5
	c-0.8-1.6-1.5-3.2-2.1-4.8c-1.1-3.5-2.3-7.1-3.1-10.7c-1-4.5-1.7-9-2.4-13.5c-0.5-3.5-0.9-6.9-1.2-10.4c-0.2-2.3-0.3-4.7-0.5-7
	c0.2-6.7,1.3-13.4,3.3-19.8c0.6-1.6,1.2-3.1,2-4.6c2.2-4.8,4.3-9.7,6.6-14.5c2.6-5.3,5.8-10.3,10.4-14.1c2.9-2.4,5.8-4.9,8.7-7.3
	c2.9-2.3,6.2-4.1,9.6-5.6c3.3-1.5,6.6-3.1,10-4.5c3.1-1.3,6.4-2.5,9.6-3.7c1.4-0.5,2.7-1,4.1-1.4c2.1-0.6,4.2-1.3,6.2-1.9
	C453.6,177.2,456.9,176.3,460.1,175.5L460.1,175.5z M479.4,168.9l-9.2,1c0.3-1.7,1.3-3.2-0.3-4.4c1.4-0.7,5.8-1.1,8.1-0.8
	C477.9,166.6,477.9,166.6,479.4,168.9L479.4,168.9z M481.9,168.9l1.3-4.5c2.6-0.6,5.3-0.7,7.9-0.3c-0.1,1.2-0.2,2.4-0.4,3.6
	c0,0.7-0.6,1.2-1.3,1.1c0,0-0.1,0-0.1,0L481.9,168.9L481.9,168.9z M503.7,169.3c0.5,1.6,2.1,2.4,3.6,2c1-0.1,1.8-0.9,1.8-1.9
	c0.1-0.9,0.2-1.7,0.3-2.7c2.4,0.2,4.1,1.5,6.2,2.4l-1.6,1.4c-1,0.6-1.3,2-0.7,3c0,0,0,0,0,0c1,1.7,3.3,2.3,5,1.3
	c0.2-0.1,0.4-0.3,0.6-0.5c0-0.1,0.1-0.1,0.2-0.1c2.1-2.4,2.1-2.4,4.6-0.7c2.3,1.5,4.6,3.1,6.9,4.6c1.9,1.3,3.6,3,4.7,5.1h-0.1
	c0.9,0.9,1.9,1.8,2.7,2.7c1.3,1.4,2.6,2.9,3.9,4.4c0.4,0.5,0.7,0.9,1,1.4c1.5,1.1,2.5,2.7,2.8,4.4c1,1.1,1.9,2.3,2.5,3.7
	c1.4,2.7,2.7,5.5,3.9,8.3c0.6,1.5,1.2,3.1,1.7,4.7c0.1,0.5,0.1,0.9,0,1.4c-0.6-0.1-1.1-0.2-1.6-0.4c-2.2-0.6-3.9,0.9-3.6,3.2
	c0.1,0.5,0.2,1,0.4,1.5c0.8,2,2.2,2.2,3.6,0.5c0.5-0.8,1-1.6,1.4-2.5c0.8,0,1.4,0.6,1.4,1.4c0.7,4.2,1.3,8.5,2,12.7
	c0.2,1.1,0.4,2.1,0.5,3.2c0,0.6-0.1,1.1-0.2,1.6h-0.1c0,0.5,0.1,1,0.1,1.5c0.8,1.2,0.3,2.5,0.4,3.7c0.2,1.4,0.2,2.8,0.3,4.6
	c-1-0.4-1.5-0.6-2.2-0.7c-1.2-0.5-2.6,0.1-3,1.3c-0.2,0.5-0.2,1-0.1,1.6c0.1,0.5,0.2,1,0.5,1.4c0.4,0.6,0.9,1.4,1.4,1.4
	c0.7-0.2,1.4-0.6,2-1.1c0.2-0.4,0.4-0.8,0.5-1.2c0.2-0.4,0.5-0.7,0.8-1.1c0.7,3.9,0.9,7.5-0.4,11.1c-1.9-0.5-3.5-0.3-4.7,1.5
	l-0.3-0.4c-0.1-0.9-0.2-1.8-0.4-2.7s-0.3-1.9-0.4-2.8c-0.3-2.6-0.5-5.2-0.8-7.8c-0.3-2.4-0.4-4.8-0.9-7.1c-1-5.2-2.1-10.4-3.3-15.6
	c-0.6-2.8-1.5-5.6-2.5-8.4c-1.7-4.5-3.7-8.8-6-13c-1.9-3.4-3.5-6.9-6.1-9.8s-5.2-5.5-7.8-8.2c-0.5-0.5-1-0.9-1.6-1.1
	c-2.4-1-4.3-2.9-6.5-4.3c-3.5-2.3-7-4.7-11-6.1c-3.4-1.2-6.9-2.2-10.3-3.2c0.2-1.3,0.5-2.6,0.8-3.8c0.2-0.5,0.6-0.9,1.2-1
	c3.2,0,6.3,0.6,9.3,1.7c0.1,0.2,0.1,0.3,0.1,0.5c-0.7,0.2-1.3,0.3-2,0.6c-0.8,0.1-1.4,0.9-1.3,1.8
	C503.6,169,503.6,169.2,503.7,169.3L503.7,169.3z M317.1,269.7c-0.2,2.1-0.3,4.2-0.6,6.3c-0.7,4.8-2.3,9.3-4.8,13.5
	c-1.3,2.2-2.9,4.2-4.8,5.9c-3.6,3.5-7.8,6.2-12.4,7.9c-2.4,0.9-5,1.4-7.6,1.4c-4.7,0.2-9.3-0.4-13.7-2c-5.6-2.2-11-4.9-14.4-10.1
	c-2.3-3.3-3.7-7.1-4.2-11.1c-0.8-7.6,0.2-15.3,2.8-22.5c1-2.5,2.4-4.8,4-7c3.5-5.2,8.8-8,14.2-10.9c2.1-1.1,4.5-1.7,6.9-1.6
	c2.7,0.1,5.3,0.4,7.9,0.9c3.1,0.6,6.1,1.5,9.1,2.1c3,0.7,5.8,2,8.3,3.8c1.5,1.1,2.6,2.9,3.6,4.6c0.9,1.4,1.5,3,2.3,4.4
	C316.2,259.6,317.4,264.6,317.1,269.7z M123.1,252.4c0-0.3,0.2-0.6,0.3-0.8c1.8-2.1,2.5-4.9,4.3-6.9c1.8-2.1,3.8-4,5.7-6
	c1.3-1.4,2.7-2.7,3.9-4.1c3.1-3.5,6.1-7,9.3-10.4c3.7-4,7.6-7.8,11.5-11.6c1.8-1.8,3.4-3.6,5.2-5.2c2.8-2.6,5.7-5.2,8.6-7.7
	c3.1-2.6,6.3-5.1,9.4-7.8c2.1-1.8,4-3.8,6-5.7c0.7-0.7,1.5-1.4,2.3-2c4-2.9,8-5.8,12.1-8.6c4.5-3.1,9-6.1,13.6-9.1
	c2.7-1.8,5.6-3.5,8.5-4.9c2.9-1.3,5.9-2.2,9-2.7c7.2-1.1,14.5-1.7,21.7-2.6c4.4-0.6,8.7-1.4,13.1-2.1c5.2-0.7,10.4-2.4,15.8-2.2
	c2.1,0.1,2.3,0.1,2.4,2.1c0.2,5.9,0.4,11.8,0.4,17.7c0,7.2-0.4,14.4-0.3,21.6c0.1,8.3-1,16.6-1.6,24.8c-0.3,3.7-0.2,7.4-0.2,11.1
	c0,1.6,0.1,3.2,0.1,4.8c0.2,0.8-0.3,1.6-1.1,1.8c-1,0.2-2,0.6-3,0.7c-5.9,0.9-10.8,3.8-15.3,7.4c-2.2,1.8-4.3,3.7-6.4,5.6
	c-1.1,0.9-2,2.1-2.5,3.5c-1.1,3.2-2.4,6.2-3.5,9.4c-0.3,1.1-1.2,1.8-2.3,1.9c-3.9,0.5-7.8,1.2-11.6,2.1c-4.9,1.4-10,0.7-15.1,1.4
	c-0.4-1.3-0.8-2.6-1.2-3.8c-0.4-1.4-0.9-2.7-1.4-4.1c-0.2-0.4-0.4-0.8-0.5-1.2c-0.7-3.3-3-5.8-4.3-8.8c-1.3-2.8-2.9-5.5-4.7-8.1
	c-2.2-3.5-5.7-5.1-9.5-5.6c-4.1-0.6-8.2-0.9-12.4-0.9c-3.4,0-6.7,0.4-9.9,1.5c-3,0.9-5.8,2.4-8.2,4.4c-2.8,2.2-5.8,4.3-8.3,6.8
	c-2.4,2.4-4.4,5-6.1,7.9c-1.4,2.7-2.4,5.6-3.1,8.6c-0.7,2.5-1.2,5.1-1.6,7.7c0,1.1-0.9,2-2,2c-1.1,0-2.2,0.1-3.2,0.3
	c-3.6,0.7-7.1,1.6-10.6,2.3c-4.6,0.9-9.3,1.7-14,2.5c-0.4,0.1-0.9,0.1-1.3,0c-2.2-0.3-2.4-0.6-2.2-2.8c0.6-4.8,1-9.6,1.8-14.3
	C121.3,258.9,122.3,255.7,123.1,252.4L123.1,252.4z M218.5,273.2c-0.5,2.1-1.1,4.2-1.7,6.3c-1.8,7.3-6.2,12.6-12.5,16.7
	c-3.2,2-6.6,3.7-10.1,5.1c-1.9,0.7-3.9,1.1-5.9,1.2c-3.2,0.3-6.4,0.5-9.6,0.5c-1.5-0.2-3-0.4-4.5-0.8c-3.1-0.4-5.6-1.9-8.1-3.5
	c-2-1.4-3.9-3-5.5-4.9c-1.9-2-2.5-4.6-3.4-7c-1.4-4.2-1.2-8.5-0.9-12.8c0.8-8.6,4.3-16.8,10-23.3c2.6-3.1,5.6-5.8,8.9-8
	c2.9-1.9,6.2-3.1,9.6-3.6c1.3-0.7,2.9-1,4.4-0.8c1,0.1,2.1,0.3,3.1,0.4c3.9,0,7.7,0.2,11.3,1.8c1.2,0.6,2.3,1.4,3.3,2.4
	c0.1,0.1,0.2,0.3,0.2,0.4c2.4,2.5,4.5,5.3,6.1,8.4c1,1.8,1.8,3.8,2.6,5.8c0.7,1.5,1.3,3.1,1.8,4.7
	C219.6,265.8,219.3,269.5,218.5,273.2L218.5,273.2z M114.4,292.3c-0.4,4.5-0.8,9-1.2,13.5c-0.2,2.5-0.7,5-0.8,7.6
	c-0.1,3-0.1,6.1,0,9.2c0.2,1.3,0.5,2.6,0.9,3.8c0.2,0.8,0.1,1.6-0.4,2.3c-3.4,6-6.8,12-10.3,18c-1.3,2.3-2.8,4.6-4.1,6.9
	c-2.2,3.7-4.4,7.4-6.6,11c-1.1,1.7-2.3,3.4-3.4,5.1c-4.4,7-8.8,14-13.8,20.7c-3.8,5.1-7.3,10.5-10.8,15.9
	c-3.4,5.4-7.5,10.3-12.3,14.7c-4.3,3.9-8.9,7.4-14.5,9c-2.1,0.6-4.1,1.4-6.4,1.3c-1.5,0-2.9-0.6-4-1.6c-1.2-1-2.3-2-3.4-3
	c-0.4-0.2-0.8-0.4-1.3-0.5c0.1-1.1-0.2-2.2-0.8-3.1c-1.2-2.2-2-4.6-3.6-6.6c-0.2-0.4-0.3-0.9-0.2-1.4c1.4-5.9,3.4-11.6,5.8-17.1
	c1.6-3.6,3.2-7.2,5.1-10.6c2-3.4,4.2-6.8,6.5-10c2.1-3,4.5-5.9,6.8-8.8c4.5-5.5,9.1-11,13.6-16.5c3.7-4.6,7.3-9.4,11-14.1
	c3.1-3.9,6.2-7.6,9.4-11.5c5.2-6.2,10.8-12.2,16.6-18c3.6-3.6,6.8-7.6,10.4-11.1c3.1-3.1,6.5-6,9.8-9c0.6-0.4,1.1-0.7,1.8-1
	C114.6,289.3,114.6,290.8,114.4,292.3L114.4,292.3z M113.4,278.5c-2.1-1.6-4.3-3.2-6.3-5c-3.8-3.4-7.5-6.9-11.2-10.4
	c-1.6-1.4-3.1-2.8-4.7-4.2c-3.5-3.1-7.1-6.1-10.4-9.3c-2.5-2.4-4.7-5.2-7.2-7.6c-3.2-3.1-5.5-6.8-8.1-10.2
	c-3.8-5.2-7.6-10.4-10-16.5c-1.8-4.5-4-8.9-5.9-13.4c-2.4-5.7-3.7-11.8-4-18c0.2-5.2,0.5-10,1.8-14.5c1.6-6,5.4-11.2,10.6-14.7
	c2.1-1.4,3.9-0.2,5.7,0.7c0.9,0.5,1.7,1.2,2.4,1.9c3.1,3.1,6.3,6.1,9.2,9.3c3.6,4,6.9,8.2,9.9,12.8c3.8,5.9,7.1,12.2,10.5,18.3
	c2.1,3.8,4,7.7,6.1,11.6s3.9,7.8,5.8,11.7c2.7,5.7,5.4,11.4,8.9,16.7c1.5,2.3,2.8,4.8,4.1,7.1c0.7,1.3,0.9,2.8,0.4,4.2
	c-1.5,6.1-3,12.2-4.3,18.3c-0.4,2.4-0.7,4.9-0.8,7.4c-0.1,1-0.2,2-0.4,3C115.4,279.2,114.7,279.5,113.4,278.5L113.4,278.5z
	 M184.7,346.6c-0.1,2.7-1,5.3-1.2,8c-0.6,5.3-1.1,10.6-1.5,15.9c-0.2,2.7-1,3.3-3.4,1.8c-3.4-2.2-6.5-4.6-9.9-6.8
	c-2.9-2-5.8-3.8-8.9-5.4c-4.3-2.2-8.1-5.1-11.5-8.5c-1.7-1.8-3.7-3.3-5.9-4.4c-0.3-0.2-0.6-0.4-0.9-0.7c-0.9-1.1-2.2-1.7-3.6-1.7
	c-1,0-1.8-0.6-2.2-1.5c-0.4-0.8-1-1.5-1.7-2c-4.1-3.5-8.2-6.9-12.3-10.4c-1.4-1.2-2.9-2.5-4.3-3.6c-1.3-1.1-2.1-2.7-2.1-4.4
	c-0.3-6.5,0.2-13.1,1.3-19.6c0.5-3.1,0.8-6.2,1-9.3c0.3-3,0.4-6,0.7-8.9c0.2-1.9,0.2-1.9,2.2-2.2c4.3-0.7,8.6-1.3,12.9-2.1
	c2.9-0.5,5.6-1.5,8.5-2s5.8-0.8,8.6-1.2c0.9-0.1,1.2,0.6,1.3,1.4c0.1,1.6,0.3,3.2,0.2,4.8c0,2.8,0.6,5.5,1.6,8.1
	c0.3,0.7,0.7,1.4,1.2,2c1.6,2.1,3.1,4.4,5.5,5.9c0.5,0.3,0.9,0.7,1.4,1.1c3.4,3.3,7.7,4.2,12.1,4.9c2.6,0.4,5.2,0.7,7.8,1.2
	c1,0.2,1.9,0.5,3,0.8v4c0,4.4-0.1,8.7,0,13.1c0,2.8,0.4,5.5,0.4,8.3C185.1,337.5,185.1,342,184.7,346.6L184.7,346.6z M474.1,403.6
	c-3.6,0-7.3-0.3-10.9-0.3c-5.9,0-11.7,0-17.6,0.5c-4.3,0.4-8.5,0.2-12.8,0.4c-3.9,0.2-7.8,0.5-11.7,0.7c-6,0.3-11.9,0.5-17.9,1
	c-4.8,0.3-9.5-0.1-14.2-0.3c-4.2-0.1-8.4,0-12.6,0c-5.7,0-11.5,0.1-17.2,0.2c-2.7,0-5.4,0.2-8,0.3c-1.4,0-2.8-0.1-4.1,0
	c-3.7,0.1-7.4,0.3-11,0.5c-3.5,0.2-6.9,0.6-10.4,0.9c-2.6,0.2-5.2,0.2-7.9,0.3c-3.6,0.1-7.3,0.1-10.9,0.3c-3.9,0.2-7.8,0.5-11.7,0.7
	c-2.2,0.1-4.4,0.1-6.5,0.1c-0.9,0-1.9,0-2.8,0.1c-4.5,0.5-8.9,0.6-13.5,0.7c-1.8,0-3.6,0.4-5.5,0.4c-6.5,0.1-12.9-0.3-19.1-2.5
	c-4.2-1.5-8.5-3-12.6-4.8c-4.7-2-9.2-4.2-13.8-6.5s-9.1-4.5-13.6-6.8c-1-0.5-2-1.1-3-1.7c-2.6-1.6-5.2-3.2-7.8-4.7
	c-2.8-1.6-5.7-3.2-8.6-4.7c-1.4-0.7-2.3-2.1-2.2-3.7c-0.4-6.8,1.1-13.5,1.8-20.2s1.6-13.3,1.1-20c-0.6-8.1-0.4-16.1-0.3-24.2
	c0-2.8,0.3-3,3-3.7c3.7-1,7.3-2.5,10.6-4.5c2.4-1.6,5.1-2.9,7.4-4.6c4.5-3.3,8.4-7.1,10.7-12.4c1.6-3.6,2.5-7.5,2.8-11.4
	c0.3-2.6,0.5-2.7,3-2.9c5.1-0.4,10.1-0.9,15.2-1.5c2.9-0.4,5.8-1,9.2-1.6c0.2,1.2,0.3,2.4,0.2,3.6c-0.9,5.5-0.6,11.1,0.9,16.4
	c1,3.6,2.6,7,4.9,10c1.3,1.8,3.1,3.2,5.1,4.1c4.4,2.1,8.8,4.2,13.2,6.1c2.7,1.2,5.7,1.6,8.6,1.2c3.8-0.5,7.6-1.2,11.4-1.8
	c0.9-0.1,1.8-0.5,2.6-0.9c4.4-2.6,8.7-5.2,12.2-9.1c1.3-1.2,2.6-2.5,3.8-3.9c4.2-5.9,6.9-12.7,7.6-19.9c0.1-1.5,0.2-3,0.2-4.6
	c2.5-0.9,5.2-1.4,7.8-1.4c3.4-0.3,6.8-0.4,10.2-0.8c4.3-0.5,8.5-1.3,12.7-1.9c1.6-0.2,3.3-0.4,5.2-0.6c0.2,1.4,0.5,2.7,0.6,4.1
	c0.5,4.2,0.8,8.4,2.1,12.4c1,3.3,1.9,6.7,2.5,10.1c0.7,3.6,2.3,6.7,3.8,10c1.6,3.5,3.1,7,4.9,10.5c1.4,2.8,3.1,5.5,4.7,8.1
	c2,3.2,3.9,6.5,6.1,9.6c3.5,4.8,7.2,9.5,11,14.1c1.5,1.6,3.1,3.1,4.8,4.5c2.7,2.5,5.4,4.9,8.1,7.3c6.8,5.9,14.3,10.6,23.1,12.7
	l17.2,4.2c3.2,0.8,6.3,1.6,9.6,2.1c3.5,0.5,7,0.7,10.4,1c2.5,0.2,4.9,0.4,7.4,0.6c1.7,0.2,1.8,0.2,2,2c0.4,3.7,0.7,7.4,1,11.1
	s0.7,7.2,1.1,10.9C478.3,403.8,478.1,403.6,474.1,403.6L474.1,403.6z M655.4,351.4c-0.1,4.4-0.4,8.7-0.6,13.1v1.5
	c0.3,5.7-1.4,11.4-4.8,16c-3,4-6.5,7.9-11.2,10.2c-1.9,0.8-3.8,1.5-5.7,2.1c-2.1,0.7-4.2,1.6-6.4,2.1c-3,0.7-6,1.2-9,1.5
	c-5.4,0.4-10.8,0.2-16.1,0.6c-2.8,0.2-5.5,0.1-8.3,0.1c-3.9,0-7.8,0.4-11.8,0.6c-2.4,0.1-4.8,0.1-7.2,0.2c-1.4,0-2.9,0.2-4.3,0.3
	c-3.5,0.4-6.9,0.9-10.4,1.2c-2.7,0.2-5.5,0.2-8.3,0.4l-12,0.5c-0.9,0-1.9,0.1-2.8,0.1c-5.1,0.1-10.2,0-15.3,0.2
	c-3.8,0.1-7.5,0.5-11.3,0.7c-2,0.1-3.9,0.1-5.9,0.1c-5,0-10,0-15.1-0.1c-0.6,0-1.2-0.1-1.8-0.2c0.3-2.8,0.3-2.8-0.8-4.1
	c0-1.4,0.1-2.6,0-3.8c-0.1-0.8-0.3-1.6-1.4-1.6c-1,0.1-1.7,1.1-1.6,2.1c0,0,0,0.1,0,0.1c0.2,0.6,0.4,1.1,0.7,1.6
	c0.2,0.5,0.5,0.9,0.8,1.3c-0.4,0.8-0.7,1.5-1,2.4c-0.1,0.8-0.2,1.6-0.2,2.3c-1.7,0.3-1.8,0.3-2.1-1c-0.4-2-0.5-4-0.8-6.1
	c-0.7-5.7-1.3-11.4-2-17.1c-0.1-0.4-0.1-0.9-0.1-1.3c0-1.7,0.5-2.2,2.1-2.4c5.7-0.5,11.4-1.7,16.8-3.5c3.4-1.2,6.9-1.9,10.2-3.1
	c4.1-1.4,8-3,11.9-4.8c2.7-1.2,5-3.2,7.6-4.7c4.6-2.5,7.9-6.6,11.5-10.3c0.7-0.7,1.5-1.4,2.2-2.1c3.9-3.8,7.4-8,10.3-12.6
	c1.6-2.8,3.1-5.8,4.3-8.8c1-2.2,1.9-4.4,2.8-6.6c0.2-0.5,0.3-1,0.4-1.5c0.4-4.3,1.3-8.5,2.6-12.6c0.6-1.9,1-4,1.1-6
	c0.3-5,1.2-10,0.8-15c-0.2-2.6,0.2-5.2,0.2-7.8s0-5.1,0-7.6c0-0.4-0.1-0.7-0.1-1.1c0-2.8,0.4-3.1,3.1-3.2c1.2,0,2.5-0.2,3.7-0.3
	s2.6-0.1,3.9-0.2c2-0.1,3.9-0.4,5.8-0.5c4-0.2,8-0.4,12-0.6c7.9-0.3,15.8-0.5,23.8-0.9c6.9-0.4,13.8-1,20.7-1.6
	c3.6-0.3,7.3-0.6,10.9-0.9c2.2-0.2,2.6,0.1,2.8,2.2c0.4,3.6,0.6,7.2,1,10.9c0.5,5,1,10.1,1.5,15.2c0.2,2,0.4,4.1,0.5,6.1
	c0.3,5.4,0.9,10.8,0.7,16.1c-0.3,6.5,0.1,13,0.4,19.4c0.2,3.3,0.5,6.5,0.7,9.8C655.3,342.8,655.5,347.2,655.4,351.4L655.4,351.4z
	 M675.6,344c-0.1,0.5-0.1,1-0.2,1.5c0.4,3.4-1.2,5.8-3.3,8.2c-1.4,1.7-2.7,3.4-3.9,5.2c-0.6,0.9-1.3,1.8-2.1,2.5
	c-1.9,1.7-3.2,3.9-4.7,6c-0.4,0.6-0.9,1.1-1.6,2.1c-0.1-0.7-0.1-1.3-0.2-2c0.2-4.7,0.4-9.5,0.5-14.2c0.1-2.7-0.2-5.5-0.1-8.2
	c0-2,0.5-3.9,0.3-5.8c-0.2-3.5-0.7-6.9-1-10.4c0-0.3-0.1-0.6-0.1-0.9c0-6.2-0.9-12.3-0.1-18.5c0.4-3.3-0.5-6.5-0.8-9.8
	c-0.2-1.1-0.3-2.3-0.3-3.5c0.4-5.5,0.2-11.1-0.4-16.5c-0.5-4.9-0.4-9.9-1.2-14.8c-0.7-4.2-0.9-8.6-3-12.6c-1-2.2-1.8-4.5-2.2-6.8
	c-1.2-5-2.2-10.1-3.5-15.1c-0.8-3.5-1.9-6.9-3.2-10.2c-1.8-4-2.5-8.2-4-12.2c-1.3-3.3-2.8-6.5-4.2-9.8c-0.3-0.8-0.6-1.7-1-2.9h2.5
	c2-0.1,3.7-1.5,4.3-3.4c0.6-2.3,0-4.2-1.9-5.1c-0.9-0.3-1.9-0.5-2.9-0.6c0.6-0.6,1.1-1.2,1.6-1.8c1.4-1.8,0.7-4.1-1.5-5.6
	c-1.5-1.1-3.7-0.8-4.8,0.7c-0.1,0.1-0.1,0.2-0.2,0.3c-0.4,0.8-0.5,1.6-0.4,2.5c0.1,0.7,0.3,1.4,0.6,2.1c0.4,1.2,1.1,2,2.6,1.8
	c0.3,0,0.7,0.1,1,0.2l-2,5.1c-0.3-0.6-0.6-1.1-0.9-1.7c-0.8-1.8-1.5-3.6-2.2-5.4s-1.3-3.7-2-5.5c-0.1-0.2-0.1-0.4-0.1-0.6
	c-0.3-0.6-0.7-1.2-1.1-1.9c-0.1-0.1-0.2-0.3-0.2-0.4c-0.7-1.4-1.4-2.7-2-4.2c0-0.1,0-0.2,0-0.4l-0.7-1.1c-0.4-0.4-0.7-1-0.9-1.5
	c-0.2-0.2-0.3-0.4-0.3-0.7l-0.1-0.2c-0.6-1.2-1.3-2.4-2.3-3.4l-0.1,0.1L609,153.3l0.3-0.4l10.5,3.4c1.4,0.4,2.8,0.9,4.2,1.3
	c1.7,0.3,3,1.7,3.1,3.5l0.1,0.1l0.2,0.1c1.3,0.6,2.1,1.7,2.2,3.1c0.7,1.2,1.3,2.4,1.9,3.7c0,0.1,0.1,0.2,0.1,0.3
	c0.1,0.1,0.2,0.3,0.3,0.4c3.1,4.4,6.2,8.8,9.2,13.3c1.5,2.5,2.8,5.1,4,7.7c1.9,3.9,3.7,7.9,5.5,11.9c1.7,3.8,3.3,7.6,4.8,11.5
	c2.1,5,4.2,10.1,6.2,15.1c0.9,2.4,1.6,5,2.4,7.5c1.8,6.1,3.2,12.2,4.2,18.5c0.3,2.3,1,4.6,1.3,6.8c0.3,2.1,0.4,4.3,0.7,6.5
	c0.5,3.6,1.1,7.3,1.7,11c0.4,2.8,1.2,5.5,1,8.4c0,1.9,0.1,3.8,0.3,5.7c0.3,6.8,0.7,13.5,1,20.3c0.2,5.7,0.3,11.3,0.6,17
	c0.1,3.1,0.5,6.2,0.7,9.3C675.6,340.6,675.6,342.3,675.6,344L675.6,344z M637.7,190.4c0.4-0.3,0.9-0.5,1.3-0.7l0.4,0.4
	c0,0.4-0.1,0.8-0.3,1.2c-0.1,0.5-0.6,0.8-1.1,0.7c-0.1,0-0.2-0.1-0.3-0.1c-0.4-0.3-0.5-0.8-0.3-1.2
	C637.5,190.6,637.6,190.5,637.7,190.4L637.7,190.4z M635.4,182.9c-0.4,0-0.6-0.4-0.6-0.7c0-0.3,0.3-0.5,0.6-0.6
	c0.4,0,0.6,0.4,0.6,0.7C635.9,182.7,635.7,182.9,635.4,182.9L635.4,182.9z M723.8,268.4c-2.1,6.4-5.1,12.4-8.8,18
	c-0.3,0.5-0.6,1-0.8,1.5c-1.1,2.5-2.6,4.9-4.4,7c-0.4,0.5-0.8,1.1-1,1.7c-1.4,3.1-3,6.1-4.9,9c-2.5,4-4.8,8-7.2,12
	c-0.9,1.5-1.7,3-2.6,4.5c-0.1,0.2-0.2,0.4-0.3,0.5c-2.5,2.2-3.6,5.4-5.3,8.2c-1.6,2.6-3.4,5.1-5.1,7.6c-0.6,0.9-1.2,1.7-1.8,2.6H681
	c-0.1-0.7-0.2-1.5-0.2-2.2c0-2.1,0.1-4.2,0.1-6.3v-12.9c0-1-0.1-2-0.3-3c-0.5-4.9-1.2-9.8-1.6-14.7c-0.3-4-0.5-8-0.6-12
	c-0.2-4.5-0.8-9-1.7-13.4c-0.8-4.6-1.3-9.2-2.1-13.8c-0.7-4.4-1.4-8.9-2.3-13.3s-1.8-8.9-3.1-13.2c-1.5-5.3-2.9-10.6-5.5-15.6
	c-1.8-3.5-3-7.4-4.5-11.1c-0.6-1.4-1.1-2.8-1.7-4.2c-1.5-3.6-3.1-7.2-4.7-10.8c-0.4-1-1-1.9-1.5-2.9c-1.2-2.5-2.2-5.1-3.6-7.4
	c-1.7-3-3.6-5.9-5.6-8.8c-2.2-3.2-4.6-6.3-6.9-9.5c-0.9-1.2-1.4-2.6-1.5-4.1c1.2,0.4,2.4,0.9,3.6,1.5c2.7,1.5,5.3,3.1,7.8,4.9
	c4.5,3.3,8.9,6.6,13.1,10.1c5,4.3,9.9,8.8,14.7,13.3c5.2,4.9,10.2,10,15.3,15c5.5,5.4,11.2,10.8,16.6,16.4c4.2,4.3,8.1,8.9,12,13.5
	c2.7,3.2,4.8,6.8,6.1,10.8c1,3.4,1.7,6.8,2.3,10.2C725.7,261,725.2,264.9,723.8,268.4L723.8,268.4z"/>
<path fill="#FFC107" stroke="#FFC107" stroke-miterlimit="10" d="M632.3,175.9c0.3-0.3,0.6-0.7,0.8-1.1c0.8-1,0.6-2.5-0.4-3.2
	c-0.1-0.1-0.2-0.1-0.3-0.2c-0.9-0.8-2.2-1.1-3.4-0.9c-0.3,0.2-0.7,0.4-1.1,0.5c-0.3,0.2-0.6,0.4-0.8,0.7c-0.1,0.1-0.1,0.1-0.2,0.2
	c0.5,1.2,1.1,2.4,1.8,3.6c0.9,0.1,1.7,0.3,2.6,0.5C631.7,176,632,176,632.3,175.9L632.3,175.9z M630.1,174.1c-0.4,0-0.6-0.4-0.6-0.7
	c0-0.3,0.3-0.5,0.6-0.6c0.4,0,0.6,0.4,0.6,0.7C630.7,173.8,630.4,174,630.1,174.1L630.1,174.1z M423.3,179.3
	c-0.5-0.3-1.1-0.6-1.7-0.9c-0.6,0.2-1.3,0.5-1.8,0.9c-0.1,0.4-0.2,0.8-0.3,1.2c-0.3,1,0.1,2.1,1,2.6c1,0.7,2.4,0.6,3.2-0.4
	c0.9-0.8,1-2.1,0.3-3C423.8,179.6,423.6,179.4,423.3,179.3L423.3,179.3z M543.2,193.9c-0.6-0.6-1.3-1-2.1-1.2
	c-0.2,0.1-0.4,0.1-0.6,0.2c-1.2,0.2-2.1,1.4-1.9,2.6c0,0,0,0.1,0,0.1c0,1.2,1,2.1,2.1,2.1c0.2,0,0.3,0,0.5-0.1
	c0.8-0.2,1.7-0.5,2.5-0.9C543.9,195.8,543.7,194.8,543.2,193.9L543.2,193.9z"/>
<path fill="none" stroke="#FFC107" stroke-miterlimit="10" d="M250.7,267.8c0.2,1.2,0.3,2.4,0.2,3.6c-0.9,5.5-0.6,11.1,0.9,16.4
	c1,3.6,2.6,7,4.9,10c1.3,1.8,3.1,3.2,5.1,4.1c4.4,2.1,8.8,4.2,13.2,6.1c2.7,1.2,5.7,1.6,8.6,1.2c3.8-0.5,7.6-1.2,11.4-1.8
	c0.9-0.1,1.8-0.5,2.6-0.9c4.4-2.6,8.7-5.2,12.2-9.1c1.3-1.2,2.6-2.5,3.8-3.9c4.2-5.9,6.9-12.7,7.6-19.9c0.1-1.5,0.2-3,0.2-4.6
	c2.5-0.9,5.2-1.4,7.8-1.4c3.4-0.3,6.8-0.4,10.2-0.8c4.3-0.5,8.5-1.3,12.7-1.9c1.6-0.2,3.3-0.4,5.2-0.6c0.2,1.4,0.5,2.7,0.6,4.1
	c0.5,4.2,0.8,8.4,2.1,12.4c1,3.3,1.9,6.7,2.5,10.1c0.7,3.6,2.3,6.7,3.8,10c1.6,3.5,3.1,7,4.9,10.5c1.4,2.8,3.1,5.5,4.7,8.1
	c2,3.2,3.9,6.5,6.1,9.6c3.5,4.8,7.2,9.5,11,14.1c1.5,1.6,3.1,3.1,4.8,4.5c2.7,2.5,5.4,4.9,8.1,7.3c6.8,5.9,14.3,10.6,23.1,12.7
	l17.2,4.2c3.2,0.8,6.3,1.6,9.6,2.1c3.5,0.5,7,0.7,10.4,1c2.5,0.2,4.9,0.4,7.4,0.6c1.7,0.2,1.8,0.2,2,2c0.4,3.7,0.7,7.4,1,11.1
	s0.7,7.2,1.1,10.9c0.5,4.6,0.2,4.3-3.8,4.4c-3.6,0-7.3-0.3-10.9-0.3c-5.9,0-11.7,0-17.6,0.5c-4.3,0.4-8.5,0.2-12.8,0.4
	c-3.9,0.2-7.8,0.5-11.7,0.7c-6,0.3-11.9,0.5-17.9,1c-4.8,0.3-9.5-0.1-14.2-0.3c-4.2-0.1-8.4,0-12.6,0c-5.7,0-11.5,0.1-17.2,0.2
	c-2.7,0-5.4,0.2-8,0.3c-1.4,0-2.8-0.1-4.1,0c-3.7,0.1-7.4,0.3-11,0.5c-3.5,0.2-6.9,0.6-10.4,0.9c-2.6,0.2-5.2,0.2-7.9,0.3
	c-3.6,0.1-7.3,0.1-10.9,0.3c-3.9,0.2-7.8,0.5-11.7,0.7c-2.2,0.1-4.4,0.1-6.5,0.1c-0.9,0-1.9,0-2.8,0.1c-4.5,0.5-8.9,0.6-13.5,0.7
	c-1.8,0-3.6,0.4-5.5,0.4c-6.5,0.1-12.9-0.3-19.1-2.5c-4.2-1.5-8.5-3-12.6-4.8c-4.7-2-9.2-4.2-13.8-6.5s-9.1-4.5-13.6-6.8
	c-1-0.5-2-1.1-3-1.7c-2.6-1.6-5.2-3.2-7.8-4.7c-2.8-1.6-5.7-3.2-8.6-4.7c-1.4-0.7-2.3-2.1-2.2-3.7c-0.4-6.8,1.1-13.5,1.8-20.2
	s1.6-13.3,1.1-20c-0.6-8.1-0.4-16.1-0.3-24.2c0-2.8,0.3-3,3-3.7c3.7-1,7.3-2.5,10.6-4.5c2.4-1.6,5.1-2.9,7.4-4.6
	c4.5-3.3,8.4-7.1,10.7-12.4c1.6-3.6,2.5-7.5,2.8-11.4c0.3-2.6,0.5-2.7,3-2.9c5.1-0.4,10.1-0.9,15.2-1.5c3-0.3,5.9-0.9,9.3-1.5
	L250.7,267.8z M346.6,277.9c1.3,0.1,2.4-0.9,2.9-2.5c0.3-0.6,0.1-1.4-0.4-1.8c-0.5-0.6-1.3-0.8-2-0.4c-0.8,0.5-1.5,1.2-2,2
	C344.2,276.7,344.9,277.8,346.6,277.9L346.6,277.9z M334,278.5c1.9-0.3,3.4-0.6,3.3-2.1c-0.1-1.3-0.9-2.2-1.9-2.2
	c-1.5-0.2-2.8,0.9-3,2.4c0,0.1,0,0.2,0,0.3c-0.1,0.7,0.3,1.4,1.1,1.6C333.6,278.5,333.8,278.5,334,278.5L334,278.5z M248,276.7
	c-0.3-0.4-0.6-0.7-1-0.9c-1.3-0.3-2.6,0-3.6,0.9c-0.7,0.8-0.6,2.1,0.2,2.8c0.1,0.1,0.3,0.2,0.4,0.3
	C245.2,280.2,247.8,278.4,248,276.7L248,276.7z M235.4,280.7c1.2-0.2,2.3-1,2.9-2.1c0.1-0.5,0-1-0.3-1.4c-0.4-0.7-1.3-1-2.1-0.8
	c-1.1,0.2-2,1-2.3,2.1C233.3,279.9,233.9,280.7,235.4,280.7L235.4,280.7z M226.7,280.4c1.6-0.1,3-1.3,3.3-2.9c0.1-0.5-0.2-1-0.7-1.1
	c-0.2,0-0.4,0-0.6,0c-0.9,0.2-1.6,0.7-2.4,0.9c-0.8,0.1-1.3,0.8-1.3,1.6c0,0.2,0.1,0.3,0.1,0.4C225.6,279.8,226.1,280.2,226.7,280.4
	L226.7,280.4z M355.1,273.4c-1.2-0.1-2.2,0.8-2.3,2c0,0,0,0.1,0,0.1c0.1,1,0.9,1.7,1.9,1.7c0,0,0,0,0,0c1.1-0.1,1.9-1.1,1.9-2.2
	c0.2-0.7-0.3-1.4-0.9-1.5C355.5,273.4,355.3,273.4,355.1,273.4L355.1,273.4z M327,275c-1.5,0-2.6,0.9-2.5,2.1
	c-0.1,0.9,0.6,1.6,1.5,1.7c0.1,0,0.2,0,0.3,0c1.1-0.3,2-1.2,2.3-2.3C328.5,275.7,327.8,275,327,275z"/>
<path fill="none" stroke="#FFC107" stroke-miterlimit="10" d="M379.8,255.4c0.2-6.7,1.3-13.4,3.3-19.8c0.6-1.6,1.2-3.1,2-4.6
	c2.2-4.8,4.3-9.7,6.6-14.5c2.6-5.3,5.8-10.3,10.4-14.1c2.9-2.4,5.8-4.9,8.7-7.3c2.9-2.3,6.2-4.1,9.6-5.6c3.3-1.5,6.6-3.1,10-4.5
	c3.1-1.3,6.4-2.5,9.6-3.7c1.4-0.5,2.7-1,4.1-1.4c2.1-0.6,4.2-1.3,6.2-1.9c3.3-0.9,6.6-1.7,9.9-2.6c2.6-0.7,5.2-1.3,7.9-1.9
	c4.7-0.9,9.5-1.4,14.3-1.4c3.9-0.2,7.7,0,11.5,0.6c0.2,0,0.4,0,0.7,0.1c3.3,1.1,6.9,1.1,10.1,2.8c1.2,0.6,2.3,1.2,3.5,1.8
	c1.8,0.8,3.5,1.7,5.2,2.8c3.3,2.5,6.5,5.2,9.6,7.8c0.8,0.7,1.5,1.5,2.4,2.2c2.2,1.8,4.1,4,5.6,6.4c3.3,4.8,5.3,10.2,7.9,15.3
	c1.9,3.8,3.4,7.8,4.4,11.9c1,3.7,1.6,7.5,2.2,11.4c0.8,4.9,1.6,9.8,2.1,14.7c0.4,3.7,0.6,7.4,0.6,11.1c0,5.2,0.1,10.5-0.3,15.7
	c-0.4,6.8-0.7,13.7-2.5,20.4c-0.9,3.4-2.2,6.8-3.3,10.1c-0.3,0.9-0.7,1.8-1,2.6c-1,2.7-2.4,5.3-4,7.7c-1.8,2.7-3.5,5.5-5.1,8.4
	c-2.7,4.5-6.5,8-10.1,11.6c-1.1,1.2-2.3,2.4-3.6,3.4c-2.5,1.9-5.2,3.8-7.9,5.4c-3.7,2.2-7.6,4.3-11.6,6c-8.5,3.5-17.6,5.4-26.8,5.5
	c-1.1,0.1-2.2,0.2-3.3,0.4c-3.5,0.3-7,0.2-10.4-0.5c-4.7-0.7-9.4-1.9-13.9-3.5c-4.6-1.8-9-4.1-13.1-6.8c-7.1-4.5-13.8-9.7-20-15.4
	c-2.2-2-4.2-4.2-6.1-6.6c-2.6-3-5.2-6.1-7.7-9.2c-2.8-3.6-5.5-7.3-6.9-11.8c-0.4-0.9-0.8-1.7-1.3-2.5c-0.8-1.6-1.5-3.2-2.1-4.8
	c-1.1-3.5-2.3-7.1-3.1-10.7c-1-4.5-1.7-9-2.4-13.5c-0.5-3.5-0.9-6.9-1.2-10.4C380.1,260,380,257.7,379.8,255.4L379.8,255.4z"/>
<path fill="none" stroke="#FFC107" stroke-miterlimit="10" d="M641,252.8c0.6-0.3,1.2-0.7,1.8-1.2c0.8-0.9,0.5-1.7-0.7-2.2
	c-1.7-0.7-2.3-0.6-3.1,0.5c-1.1,1.4-1,2.2,0.1,3.6c0.1,0.2,0.2,0.5,0.3,0.8l-8.6,1.2c0.3-0.5,0.6-1,1-1.4c0.8-0.4,1.2-1.4,0.8-2.2
	c-0.3-1.4-0.7-2-1.8-2.1c-1.2-0.1-2.3,0.6-2.7,1.8c-0.2,0.6-0.3,1.1-0.3,1.7c0,0.7,0,1.3,0.1,2c-4.8,1-9.7,1.4-14.7,1
	c0.4-0.8,0.7-1.3,1-1.8c0.5-0.8,0.4-1.9-0.3-2.6c-0.5-0.4-1.1-0.6-1.8-0.5c-1,0.3-1.6,1.2-1.5,2.2c0.1,0.6,0.2,1.3,0.3,1.9
	c0.2,1-0.2,1.4-1.2,1.5c-7,0.5-13.9,1-20.9,1.5c-5.4,0.4-10.9,0.8-16.3,1.1c-1.3,0.1-2.7,0-4.3,0c0.5-0.9,0.8-1.5,1.1-2.1
	c0.6-1.1,0.2-2.6-0.9-3.2c-0.8-0.7-2.1-0.6-2.8,0.2c-0.9,0.9-1.1,2.3-0.4,3.4c0.6,0.6,1.3,1.2,2,1.7c-0.6,0.2-1.3,0.4-1.9,0.5
	c-1.2,0.1-1.5-0.2-1.6-1.5c-0.1-1.8-0.1-3.5-0.2-5.2c-0.3-4.7-0.7-9.4-1-14.1c-0.3-3.4-0.5-6.8-1-10.2c-0.6-3.9-1.4-7.9-2.5-11.7
	s-2.4-7.6-3.7-11.4c-0.4-1.1-0.8-2.2-1.4-3.2c-1.5-2.9-3-5.8-4.8-8.6c-2-3.1-4.3-6-6.5-9c-1.2-1.6-2.5-3-3.6-4.6
	c-3.4-4.4-8.2-7-12.5-10.4c-3.3-2.7-7.1-4.6-11.2-5.8c-2.4-0.7-4.7-1.7-7-2.5c-4.2-1.6-8.7-2.3-13.3-2.2c-7.4,0.3-14.7,0.8-22,1.2
	c-3.1,0.2-6.1,0.3-9.1,0.6c-3.2,0.4-6.3,1.1-9.5,1.4c-5.4,0.6-10.3,2.5-15.4,3.9c-6,1.6-12,3.1-17.6,5.8c-4.3,1.9-8.4,4-12.4,6.4
	c-3.8,2.4-7.2,5.4-10.8,8.1c-1.6,1.2-3.3,2.4-4.9,3.7c-3.8,3.2-7.6,6.4-11.1,9.8c-2.2,2.1-3.8,4.8-6,6.9c-1.5,1.5-2.8,3.1-3.9,5
	c-1.2,2.3-2.4,4.7-3.5,7c-1.8,3.9-3.7,7.8-5.3,11.8c-1.5,3.9-3.1,7.7-3.6,11.9c-0.2,1.7-1,3.4-1.3,5.1c-0.4,2.4-0.5,4.9-0.8,7.4
	c-0.1,0.7-0.1,1.4-0.2,2.2c0,1.1-0.9,2.1-2,2.2c-1.4,0.3-2.9,0.6-4.3,0.8c-4,0.7-8,1.6-12,2.2c-6.1,0.9-12.3,1.5-18.6,2.2
	c-0.6-2-1.2-3.6-1.6-5.4c-0.7-3.5-1.7-6.8-4.1-9.5c-0.6-0.7-1.1-1.5-1.4-2.4c-1.4-3.2-3.9-5.1-7-6.6c-3.7-1.9-7.7-3.2-11.8-3.6
	c-2.6-0.4-5.1-0.9-7.6-1.6c-0.1-0.3-0.2-0.7-0.3-1c-0.1-3.8-0.4-7.6-0.3-11.4c0.1-4.4,0.6-8.9,0.9-13.3c0.5-6.5,1-13.1,1.4-19.6
	c0.2-4,0.1-8,0.1-12c0-6-0.1-12-0.3-17.9c0-2.3-0.4-4.6-0.4-7c0-2.1,0.4-2.6,2.5-2.8c4.5-0.4,9-0.7,13.5-1
	c5.3-0.3,10.6-0.6,15.9-0.8c4.6-0.1,9.2,0,13.8-0.1s9-0.2,13.5-0.3s9.2-0.6,13.7-0.3c3.3,0.1,6.7,0.1,10-0.2
	c3.4-0.2,6.8-0.9,10.2-1.2c4.4-0.3,8.9-0.4,13.3-0.6c1.2-0.1,2.5-0.2,3.7-0.3c4.9-0.3,9.7-0.6,14.6-0.9c5.3-0.3,10.6-0.6,15.9-0.7
	c5.9-0.2,11.8-0.2,17.7-0.4c4.2-0.1,8.4-0.5,12.6-0.6c2.6-0.1,5.2-0.1,7.9-0.1l14.2-0.4h5c3.1,0,6.2,0.1,9.4,0.2
	c2.5,0.1,5,0.3,7.6,0.4s4.8,0,7.2,0.1c1.5,0,3,0.1,4.6,0.1c2.9,0.1,5.9-0.1,8.7,0.4s5.3-0.2,8-0.3c2.8-0.1,5.7,0.1,8.5,0.1
	c0.7,0.1,1.4,0.1,2.2,0.1c5.1-0.7,10.2-0.3,15.3,0.1c1.7,0.1,3.3-0.1,5-0.1c2.4,0.1,4.8,0.5,7.2,0.6c6,0.3,12,0.8,18,1.8
	c3.2,0.4,6.3,1.2,9.2,2.4c3.5,1.8,6.7,4.1,9.4,6.9c3.3,3.1,5.9,6.8,8.7,10.4c2.5,3.5,4.7,7.1,6.7,10.9c1.9,3.4,3.9,6.6,5.6,10.1
	c1.6,3.3,2.9,6.7,4.3,10c1.3,3.2,2.7,6.3,3.8,9.5c1.5,4.3,3,8.7,4.3,13.1c1.7,5.4,3.2,10.7,4.7,16.1c0.3,1.2,0.5,2.6,0.8,3.9
	c0.8,3.8,1.7,7.5,2.5,11.3c0.5,2.1,0.3,2.4-2,2.5c-1.1,0-2.2,0.1-3.3,0.1c-0.7,0.1-1.5,0.1-2-1.3L641,252.8z M576,258.8
	c1.1-0.9,1.9-1.6,2.7-2.3c0.6-0.5,0.6-1.4,0.1-2c-0.8-0.9-2.1-1.2-3.2-0.7c-1.1,0.6-1.6,1.9-1.1,3C575,257.5,575.5,258.1,576,258.8
	L576,258.8z M592.5,254.4c-0.2,1.1,0.6,2.2,1.7,2.3c1.4-0.2,2.5-1.3,2.7-2.7c-0.3-1.1-1.3-2-2.5-2c-1.2,0.1-2.1,1.1-2,2.2
	C592.4,254.3,592.4,254.3,592.5,254.4L592.5,254.4z M584.8,257.1c1.4,0,2.6-1.2,2.5-2.6v-0.1c-0.1-1-0.9-1.7-1.9-1.7c0,0,0,0,0,0
	c-1.3-0.1-2.4,0.9-2.5,2.2c0,0,0,0,0,0v0.2c-0.2,0.9,0.4,1.7,1.3,1.9C584.5,257.1,584.6,257.1,584.8,257.1L584.8,257.1z
	 M291.2,204.5c0,1,0.6,2,1.6,2.2c1.1,0,2.4-1.6,2.4-2.9c0-0.9-0.7-1.7-1.6-1.7c-0.1,0-0.1,0-0.2,0
	C292.1,202.1,291.1,203.2,291.2,204.5C291.2,204.5,291.2,204.5,291.2,204.5z M622,250.7c-0.9,0.1-1.7,0.7-2,1.5
	c-0.4,0.8-0.8,1.6-0.2,2.4c0.3,0.4,0.9,0.7,1.4,0.7c0.8-0.2,1.4-0.7,2-1.3C624.1,252.8,623.3,250.7,622,250.7L622,250.7z
	 M297.2,158.2c-0.2-0.5-0.4-1-0.7-1.5c-1-1.7-2.8-1.6-3.8,0c-0.8,1.3-0.3,2.4,1.2,2.7C295.1,159.6,296.4,159.1,297.2,158.2
	L297.2,158.2z M296.8,194.9c-0.3-0.5-0.7-1-1.1-1.4c-0.6-0.1-1.1,0.1-1.5,0.4c-0.9,0.6-1.5,1.6-1.5,2.7c-0.1,0.7,0.4,1.3,1,1.4
	c0,0,0,0,0,0C294.9,198.2,296.9,196.4,296.8,194.9L296.8,194.9z M605.4,253.1c0.1-1-0.6-1.9-1.5-2c-0.1,0-0.2,0-0.3,0
	c-1.3,0.1-2.2,1.3-2.1,2.5c0.1,1.1,0.9,1.9,2,2.1C604.4,255.8,605.4,254.5,605.4,253.1L605.4,253.1z M295.4,218.7
	c0.1-1-0.6-1.8-1.6-1.9c-0.3,0-0.5,0-0.7,0.1c-1.3,0.6-2,2-1.8,3.4c0.1,0.4,0.5,0.7,0.9,0.8c1.5,0.3,2.9-0.7,3.2-2.2
	C295.4,218.8,295.4,218.8,295.4,218.7z M291.7,212.2c0.2,0.5,0.5,0.9,0.8,1.3c0.7,0.6,2-0.2,2.8-1.5c0.6-0.6,0.6-1.6,0-2.1
	c-0.1-0.1-0.1-0.1-0.2-0.2c-0.3-0.3-0.7-0.4-1.2-0.4C292.9,209.3,291.7,210.7,291.7,212.2L291.7,212.2z M294.1,224.2
	c-1.2-0.1-2.4,0.5-2.9,1.6c-0.4,0.6-0.5,1.3-0.3,1.9c0.4,0.5,1,0.8,1.6,0.7c0.7-0.1,1.3-0.5,1.6-1.1
	C294.8,226.4,294.8,225.2,294.1,224.2L294.1,224.2z M294.1,234.7V233c0-0.1,0-0.3,0-0.4c0-0.5-0.2-1-0.6-1.4
	c-0.5-0.1-1.1-0.1-1.6,0.2c-0.5,0.3-0.9,0.7-1.2,1.2c-0.2,0.6-0.2,1.2,0.1,1.8c0.4,0.5,1,0.8,1.6,0.8
	C293.1,235.2,293.6,235,294.1,234.7L294.1,234.7z M296.4,178c-0.7,0.4-1.3,0.9-1.9,1.5c-0.6,0.7-0.6,1.8,0,2.6
	c0.8,0.8,1.6,0.2,2.3-0.3c0.3-0.2,0.6-0.4,0.8-0.7c0.5-0.5,1.1-1.1,0.5-1.9C297.6,178.8,297,178.3,296.4,178L296.4,178z
	 M297.1,165.4c0-1.4-1.3-2.5-2.2-2.1c-1,0.3-1.7,1.2-1.8,2.3c0,0.4,0.1,0.8,0.4,1.1c0.7,0.1,1.4,0.1,2-0.1
	C296.1,166.3,296.7,165.9,297.1,165.4L297.1,165.4z M297.3,172.4c0-1.4-1-2-2.2-1.2c-0.6,0.5-1.2,1.1-1.5,1.8
	c-0.3,0.6,0.1,1.4,0.7,1.6c0.1,0.1,0.3,0.1,0.4,0.1c1.3,0.1,2.5-0.9,2.6-2.2C297.3,172.5,297.3,172.5,297.3,172.4L297.3,172.4z
	 M293.6,189c1.3,0,2.8-1.2,2.8-2.1c0.1-0.7-0.5-1.4-1.2-1.5c0,0,0,0-0.1,0c-1,0-2.6,1.4-2.5,2.3C292.9,188.3,293.2,188.7,293.6,189
	L293.6,189z M487.1,402.4c0.3-2.8,0.3-2.8-0.8-4.1c0-1.4,0.1-2.6,0-3.8c-0.1-0.8-0.3-1.6-1.4-1.6c-1,0.1-1.7,1.1-1.6,2.1
	c0,0,0,0.1,0,0.1c0.2,0.6,0.4,1.1,0.7,1.6c0.2,0.5,0.5,0.9,0.8,1.3c-0.4,0.8-0.7,1.5-1,2.4c-0.1,0.8-0.2,1.6-0.2,2.3
	c-1.7,0.3-1.8,0.3-2.1-1c-0.4-2-0.5-4-0.8-6.1c-0.7-5.7-1.3-11.4-2-17.1c-0.1-0.4-0.1-0.9-0.1-1.3c0-1.7,0.5-2.2,2.1-2.4
	c5.7-0.5,11.4-1.7,16.8-3.5c3.4-1.2,6.9-1.9,10.2-3.1c4.1-1.4,8-3,11.9-4.8c2.7-1.2,5-3.2,7.6-4.7c4.6-2.5,7.9-6.6,11.5-10.3
	c0.7-0.7,1.5-1.4,2.2-2.1c3.9-3.8,7.4-8,10.3-12.6c1.6-2.8,3.1-5.8,4.3-8.8c1-2.2,1.9-4.4,2.8-6.6c0.2-0.5,0.3-1,0.4-1.5
	c0.4-4.3,1.3-8.5,2.6-12.6c0.6-1.9,1-4,1.1-6c0.3-5,1.2-10,0.8-15c-0.2-2.6,0.2-5.2,0.2-7.8s0-5.1,0-7.6c0-0.4-0.1-0.7-0.1-1.1
	c0-2.8,0.4-3.1,3.1-3.2c1.2,0,2.5-0.2,3.7-0.3s2.6-0.1,3.9-0.2c2-0.1,3.9-0.4,5.8-0.5c4-0.2,8-0.4,12-0.6c7.9-0.3,15.8-0.5,23.8-0.9
	c6.9-0.4,13.8-1,20.7-1.6c3.6-0.3,7.3-0.6,10.9-0.9c2.2-0.2,2.6,0.1,2.8,2.2c0.4,3.6,0.6,7.2,1,10.9c0.5,5,1,10.1,1.5,15.1
	c0.2,2,0.4,4.1,0.5,6.1c0.3,5.4,0.9,10.8,0.7,16.1c-0.3,6.5,0.1,13,0.4,19.4c0.2,3.3,0.5,6.5,0.7,9.8c0.2,4.4,0.4,8.7,0.3,13.1
	s-0.4,8.7-0.6,13.1v1.5c0.3,5.7-1.4,11.4-4.8,16c-3,4-6.5,7.9-11.2,10.2c-1.9,0.8-3.8,1.5-5.7,2.1c-2.1,0.7-4.2,1.6-6.4,2.1
	c-3,0.7-6,1.2-9,1.5c-5.4,0.4-10.8,0.2-16.1,0.6c-2.8,0.2-5.5,0.1-8.3,0.1c-3.9,0-7.8,0.4-11.8,0.6c-2.4,0.1-4.8,0.1-7.2,0.2
	c-1.4,0-2.9,0.2-4.3,0.3c-3.5,0.4-6.9,0.9-10.4,1.2c-2.7,0.2-5.5,0.2-8.3,0.4l-12,0.5c-0.9,0-1.9,0.1-2.8,0.1
	c-5.1,0.1-10.2,0-15.3,0.2c-3.8,0.1-7.5,0.5-11.3,0.7c-2,0.1-3.9,0.1-5.9,0.1c-5,0-10,0-15.1-0.1c-0.6,0-1.2-0.1-1.8-0.2
	L487.1,402.4z M487.2,378.2c-0.4-0.5-0.9-1-1.4-1.3c-0.8-0.4-2.1,0.5-2.6,1.5c-0.5,0.7-0.4,1.6,0.2,2.2c0.1,0,0.1,0.1,0.2,0.1
	C484.6,381.4,487.2,379.9,487.2,378.2L487.2,378.2z M484.7,389.7c0.7-0.7,1.3-1.5,1.9-2.3c0.7-1.1,0.2-2.5-0.8-2.6
	c-0.8,0-1.5,0.2-2.1,0.7c-0.7,0.5-0.8,1.5-0.4,2.2C483.6,388.3,484.1,388.9,484.7,389.7L484.7,389.7z M223.4,268
	c-0.4-1.3-0.8-2.6-1.2-3.8c-0.4-1.4-0.9-2.7-1.4-4.1c-0.2-0.4-0.4-0.8-0.5-1.2c-0.7-3.3-3-5.8-4.3-8.8c-1.3-2.8-2.9-5.5-4.7-8.1
	c-2.2-3.5-5.7-5.1-9.5-5.6c-4.1-0.6-8.2-0.9-12.4-0.9c-3.4,0-6.7,0.4-9.9,1.5c-3,0.9-5.8,2.4-8.2,4.4c-2.8,2.2-5.8,4.3-8.3,6.8
	c-2.4,2.4-4.4,5-6.1,7.9c-1.4,2.7-2.4,5.6-3.1,8.6c-0.7,2.5-1.2,5.1-1.6,7.7c0,1.1-0.9,2-2,2c-1.1,0-2.2,0.1-3.2,0.3
	c-3.6,0.7-7.1,1.6-10.6,2.3c-4.6,0.9-9.3,1.7-14,2.5c-0.4,0.1-0.9,0.1-1.3,0c-2.2-0.3-2.4-0.6-2.2-2.8c0.6-4.8,1-9.6,1.8-14.3
	c0.5-3.3,1.5-6.5,2.2-9.8c0-0.3,0.2-0.6,0.3-0.8c1.8-2.1,2.5-4.9,4.3-6.9s3.8-4,5.7-6c1.3-1.4,2.7-2.7,3.9-4.1
	c3.1-3.5,6.1-7,9.3-10.4c3.7-4,7.6-7.8,11.5-11.6c1.8-1.8,3.4-3.6,5.2-5.2c2.8-2.6,5.7-5.2,8.6-7.7c3.1-2.6,6.3-5.1,9.4-7.8
	c2.1-1.8,4-3.8,6-5.7c0.7-0.7,1.5-1.4,2.3-2c4-2.9,8-5.8,12.1-8.6c4.5-3.1,9-6.1,13.6-9.1c2.7-1.9,5.6-3.5,8.6-4.9
	c2.9-1.3,5.9-2.2,9-2.7c7.2-1.1,14.5-1.7,21.7-2.6c4.4-0.6,8.8-1.4,13.1-2.1c5.2-0.7,10.4-2.4,15.8-2.2c2.1,0.1,2.3,0.1,2.4,2.1
	c0.2,5.9,0.4,11.8,0.4,17.7c0,7.2-0.4,14.4-0.3,21.6c0.1,8.3-1,16.6-1.6,24.8c-0.3,3.7-0.2,7.4-0.2,11.1c0,1.6,0.1,3.2,0.1,4.8
	c0.2,0.8-0.3,1.6-1.1,1.8c-1,0.2-2,0.6-3,0.7c-5.9,0.9-10.8,3.8-15.3,7.4c-2.2,1.8-4.3,3.7-6.4,5.6c-1.1,0.9-2,2.1-2.5,3.5
	c-1.1,3.2-2.4,6.2-3.5,9.4c-0.3,1.1-1.2,1.8-2.3,1.9c-3.9,0.5-7.8,1.2-11.6,2.1C233.6,268,228.6,267.3,223.4,268L223.4,268z
	 M127.9,274.4c-0.4-1.1-1.5-1.9-2.7-1.8c-1.2,0-2.3,0.7-2.8,1.8c-0.7,1.4,0,2.5,1.5,2.5C125.6,276.9,127.1,276,127.9,274.4
	L127.9,274.4z M134.7,271.1c-1.4-0.1-2.5,0.9-2.8,2.2c-0.1,1.2,1,2.1,2.5,2.1c1.2,0,2.8-1.3,2.8-2.3
	C136.9,272,135.9,271.2,134.7,271.1L134.7,271.1z M144.7,274c0.7-0.3,1.4-0.6,2-0.9c1.2-0.7,1.3-1.4,0.7-2.5
	c-0.8-1.4-2.4-1.5-3.8-0.3c-0.8,0.5-1,1.4-0.7,2.3C143.3,273.2,144,273.7,144.7,274L144.7,274z M375.8,97.5c2-0.7,4-1.3,6.1-1.8
	c4.6-0.7,9.2-1.2,13.8-1.8c2.2-0.3,4.3-0.6,6.5-0.8c2.7-0.2,5.5-0.3,8.2-0.4c3.7-0.2,7.4-0.6,11.1-0.7c2.5-0.1,5.1,0.2,7.6,0.2h16.8
	c0.4-0.1,0.9-0.1,1.3,0c1.8,0.3,3.6,0.3,5.4,0.1c3-0.2,6.1-0.1,9.1-0.2c3.6-0.1,7.3-0.4,10.9-0.5s7.3,0,10.9-0.1
	c0.8,0,1.6-0.2,2.4-0.2c5.2-0.2,10.3,0.2,15.4,1.3c3.8,1.1,7.5,2.3,11.1,3.8c1.4,0.5,2.9,0.9,4.4,1.2c2.6,0.5,4.6,2.5,5.2,5
	c2.5,7.9,3,16,3.2,24.2c0.1,3.9-0.3,7.7-0.4,11.6c-0.1,1.6-0.2,1.8-1.7,1.9c-2.5,0.2-5.1,0.3-7.6,0.3c-5,0.1-10,0.1-15.1,0.1
	c-1.8,0-3.6-0.2-5.5-0.4c-2.8-0.4-5.7-0.5-8.5-0.1c-2.3,0.3-2.7-0.1-3.3-2.5c-0.8-3.2-1.6-6.5-2.5-9.7c-0.4-1.2-0.9-2.3-1.5-3.4
	c-0.8-1.6-1.5-3.3-2.4-4.9c-1.4-2.4-3.7-3.9-6-5.3s-4.9-2.5-7.3-3.8c-1.4-0.8-2.7-1.7-4.1-2.5c-0.8-0.5-1.6-0.9-2.5-1.2
	c-7-1.8-14-4.3-21.4-3.7c-2.9,0.2-5.8,0.1-8.7,0.3c-3.2,0.3-6.5,0.9-9.7,1.5s-6.5,1.4-9.8,2.3c-2.7,0.8-5.4,1.7-8,2.7
	c-5.3,2-10.5,4.2-15.8,6.2c-2.4,0.9-4.1,2.7-6.1,4.1c-3.5,2.5-6,5.9-8.6,9.2c-3.3,4.2-5.5,9.1-6.5,14.4c-0.3,1.8-0.6,2-2.5,2.1
	c-3.6,0.1-7.3,0.1-10.9,0.1c-8,0.1-16,0.1-24,0.2c-1.7,0-2.1-0.3-2.1-2c0.2-7.1,0.4-14.1,0.7-21.2c0.1-2.7,0.7-5.3,0.9-8
	s2-4.1,3.9-5.2c2.8-1.5,5.8-2.8,8.8-3.9c1.9-0.8,3.8-1.4,5.8-2c0.8-0.3,1.7-0.5,2.5-0.7c1.9-0.5,3.8-0.9,5.7-1.4
	c4.2-1,8.4-1.9,12.5-2.8c3.1-0.7,6.2-1.3,9.4-1.9C373.9,97.4,374.9,97.4,375.8,97.5L375.8,97.5z M680.9,340.8
	c-0.1-0.7-0.2-1.5-0.2-2.2c0-2.1,0.1-4.2,0.1-6.3v-12.9c0-1-0.1-2-0.3-3c-0.5-4.9-1.2-9.8-1.6-14.7c-0.3-4-0.5-8-0.6-12
	c-0.2-4.5-0.8-9-1.7-13.4c-0.8-4.6-1.3-9.2-2.1-13.8c-0.7-4.4-1.4-8.9-2.3-13.3s-1.9-8.9-3.2-13.2c-1.5-5.3-2.9-10.6-5.5-15.6
	c-1.8-3.5-3-7.4-4.5-11.1c-0.6-1.4-1.1-2.8-1.7-4.2c-1.5-3.6-3.1-7.2-4.7-10.8c-0.4-1-1-1.9-1.5-2.9c-1.2-2.5-2.2-5.1-3.6-7.4
	c-1.7-3-3.6-5.9-5.6-8.8c-2.2-3.2-4.6-6.3-6.9-9.5c-0.9-1.2-1.4-2.6-1.5-4.1c1.2,0.4,2.4,0.9,3.6,1.5c2.7,1.5,5.3,3.1,7.8,4.9
	c4.5,3.3,8.9,6.6,13.1,10.1c5,4.3,9.9,8.8,14.7,13.3c5.2,4.9,10.2,10,15.3,15c5.5,5.4,11.2,10.8,16.6,16.4c4.2,4.3,8.1,8.9,12,13.5
	c2.7,3.2,4.8,6.8,6.1,10.8c1,3.3,1.8,6.7,2.4,10.1c0.7,3.8,0.2,7.7-1.2,11.3c-2.1,6.4-5.1,12.4-8.8,18c-0.3,0.5-0.6,1-0.8,1.5
	c-1.1,2.5-2.6,4.9-4.4,7c-0.4,0.5-0.8,1.1-1,1.7c-1.4,3.1-3,6.1-4.9,9c-2.5,4-4.8,8-7.2,12c-0.9,1.5-1.7,3-2.6,4.5
	c-0.1,0.2-0.2,0.4-0.3,0.5c-2.5,2.2-3.6,5.4-5.3,8.2c-1.6,2.6-3.4,5.1-5.1,7.6c-0.6,0.9-1.2,1.7-1.8,2.6L680.9,340.8L680.9,340.8z
	 M114.7,287.3c-0.1,2-0.1,3.5-0.2,5c-0.4,4.5-0.8,9-1.2,13.5c-0.2,2.5-0.7,5-0.8,7.6c-0.1,3-0.1,6.1,0,9.2c0.2,1.3,0.5,2.6,0.9,3.8
	c0.2,0.8,0.1,1.6-0.4,2.3c-3.4,6-6.8,12-10.3,18c-1.3,2.3-2.8,4.6-4.1,6.9c-2.2,3.7-4.4,7.4-6.6,11c-1.1,1.7-2.3,3.4-3.4,5.1
	c-4.4,7-8.8,14-13.8,20.7c-3.8,5.1-7.3,10.5-10.8,15.9c-3.4,5.4-7.5,10.3-12.3,14.7c-4.3,3.9-8.9,7.4-14.5,9
	c-2.1,0.6-4.1,1.4-6.4,1.3c-1.5,0-2.9-0.6-4-1.6c-1.2-1-2.3-2-3.4-3c-0.4-0.2-0.8-0.4-1.3-0.5c0.1-1.1-0.2-2.2-0.8-3.1
	c-1.2-2.2-2-4.6-3.6-6.6c-0.2-0.4-0.3-0.9-0.2-1.4c1.4-5.9,3.4-11.6,5.8-17.1c1.6-3.6,3.2-7.2,5.1-10.6c2-3.4,4.2-6.8,6.5-10
	c2.1-3,4.5-5.9,6.8-8.8c4.5-5.5,9.1-11,13.6-16.5c3.7-4.6,7.3-9.4,11-14.1c3.1-3.9,6.2-7.6,9.4-11.5c5.2-6.2,10.8-12.2,16.6-18
	c3.6-3.6,6.8-7.6,10.4-11.1c3.1-3.1,6.5-6,9.8-9C113.4,287.8,114,287.6,114.7,287.3L114.7,287.3z M45.6,183.9
	c0.2-5.2,0.5-10,1.8-14.5c1.6-6,5.5-11.3,10.7-14.7c2.1-1.4,3.9-0.2,5.7,0.7c0.9,0.5,1.7,1.2,2.4,1.9c3.1,3.1,6.3,6.1,9.2,9.3
	c3.6,4,6.9,8.2,9.9,12.8c3.8,5.9,7.1,12.1,10.5,18.3c2.1,3.8,4,7.7,6.1,11.6s3.9,7.8,5.8,11.7c2.7,5.7,5.4,11.4,8.9,16.7
	c1.5,2.3,2.8,4.8,4.1,7.1c0.7,1.3,0.9,2.8,0.4,4.2c-1.5,6.1-3,12.2-4.3,18.3c-0.4,2.4-0.7,4.9-0.8,7.4c-0.1,1-0.2,2-0.4,3
	c-0.3,1.6-0.9,1.8-2.2,0.9c-2.1-1.6-4.3-3.2-6.3-5c-3.8-3.4-7.5-6.9-11.2-10.4c-1.6-1.4-3.1-2.8-4.7-4.2c-3.5-3.1-7.1-6.1-10.4-9.3
	c-2.5-2.4-4.7-5.2-7.2-7.6c-3.2-3.1-5.5-6.8-8.1-10.2c-3.8-5.2-7.6-10.4-10-16.5c-1.8-4.5-4-8.9-5.9-13.4
	C47.3,196.2,45.9,190.1,45.6,183.9L45.6,183.9z M184.6,307.6v4c0,4.4-0.1,8.7,0,13.1c0,2.8,0.4,5.5,0.4,8.3c0,4.5,0,9-0.2,13.5
	c-0.1,2.7-1,5.3-1.2,8c-0.6,5.3-1.1,10.6-1.5,15.9c-0.2,2.7-1,3.3-3.4,1.8c-3.4-2.2-6.5-4.6-9.9-6.8c-2.9-2-5.8-3.8-8.9-5.4
	c-4.3-2.2-8.1-5.1-11.5-8.5c-1.7-1.8-3.7-3.3-5.9-4.4c-0.3-0.2-0.6-0.4-0.9-0.7c-0.9-1.1-2.2-1.7-3.6-1.7c-1,0-1.8-0.6-2.2-1.5
	c-0.4-0.8-1-1.5-1.7-2c-4.1-3.5-8.2-6.9-12.3-10.4c-1.4-1.2-2.9-2.5-4.3-3.6c-1.3-1.1-2.1-2.7-2.1-4.4c-0.3-6.5,0.2-13.1,1.3-19.6
	c0.5-3.1,0.8-6.2,1-9.3c0.3-3,0.4-6,0.7-8.9c0.2-1.9,0.2-1.9,2.2-2.2c4.3-0.7,8.6-1.3,12.9-2.1c2.9-0.5,5.6-1.5,8.5-2
	s5.8-0.8,8.6-1.2c0.9-0.1,1.2,0.6,1.3,1.4c0.1,1.6,0.3,3.2,0.2,4.8c0,2.8,0.6,5.5,1.6,8.1c0.3,0.7,0.7,1.4,1.2,2
	c1.6,2.1,3.1,4.4,5.5,5.9c0.5,0.3,0.9,0.7,1.4,1.1c3.4,3.3,7.7,4.2,12.1,4.9c2.6,0.4,5.2,0.7,7.8,1.2
	C182.6,307,183.6,307.3,184.6,307.6L184.6,307.6z M177.6,345.8c1.4,0,2.7-0.7,3.5-1.8c0.2-0.3,0.3-0.7,0.2-1c-0.5-0.8-1.2-1.6-2-2.1
	c-1.2-0.6-2,0.4-2.7,1.3s-1.1,1.7-0.4,2.6C176.6,345.2,177,345.5,177.6,345.8L177.6,345.8z M177.2,356.9c1,0.1,2-0.6,2.3-1.5
	c0.3-1.1,0-2.2-0.7-3c-1-0.8-1.7,0-2.5,0.4c-0.1,0.1-0.3,0.1-0.4,0.2c-0.8,0.6-1.5,1.2-1.1,2.3C175.2,356.3,176.1,356.9,177.2,356.9
	L177.2,356.9z M182.1,332c0-1.5-1.3-2.6-2.5-2c-0.9,0.5-1.6,1.2-2,2.1c-0.4,1,0.1,2.2,1.1,2.6c0.2,0.1,0.3,0.1,0.5,0.1
	C180.7,334.8,182,333.5,182.1,332L182.1,332z M175.9,323.8c1.4,0.8,2.7,0.1,3.9-0.5s1.5-1.4,1-2.2c-0.4-1-1.5-1.4-2.4-1
	c-0.1,0-0.2,0.1-0.3,0.1C176.6,320.7,175.7,322.2,175.9,323.8L175.9,323.8z M176.5,368.3c1.1,0.1,2.1-0.7,2.2-1.8c0-0.1,0-0.2,0-0.3
	c0-1.4-0.7-2.2-1.9-2.1c-1.3,0.2-2.2,1.2-2.3,2.5C174.5,367.7,175.2,368.3,176.5,368.3L176.5,368.3z M179.5,312.3
	c-0.1-0.3-0.4-1.5-0.9-1.7s-1.6,0.4-2.3,0.8c-0.4,0.3-0.8,0.7-0.9,1.1c-0.2,0.5-0.2,1,0,1.4c0.4,0.8,1.8,1.1,2.9,0.7
	C179.3,314.4,179.4,313.7,179.5,312.3L179.5,312.3z"/>
<path fill="none" stroke="#FFC107" stroke-miterlimit="10" d="M558.7,272.9c-0.3,0.3-0.6,0.6-0.9,0.9c-0.7,0.8-1.8,0.9-2.6,0.3
	c-0.3-0.3-0.6-0.7-0.7-1.1c-0.6-1.8,0.4-3.7,2.2-4.3c0.2-0.1,0.5-0.1,0.7-0.2c0.6-0.1,1.2-0.2,2.1-0.3c-0.7-2.3-0.6-4.5-1.6-7.1
	c-1.3,2.4-2.9,2.1-4.8,1.6c-0.2,0.8-0.4,1.6-0.5,2.4c-0.1,2.2-0.2,4.5-0.3,6.7c-0.2,3.8-0.5,7.5-0.6,11.3c-0.2,7-1.6,13.9-4.2,20.4
	c-1.2,2.9-2.6,5.7-3.5,8.7c-0.8,2.3-1.9,4.5-3.5,6.5c-0.3,0.5-0.6,1-0.9,1.5c-1.3,2.2-2.5,4.4-3.9,6.6c-2.7,4.1-5.9,8-9.4,11.4
	c-2.3,2.5-4.8,4.8-7.5,7c-3.1,2.3-6.3,4.4-9.7,6.3c-4.6,2.9-9.5,5.4-14.6,7.3c-1.4,0.6-2.9,1-4.4,1.2c-4.1,0.6-8.2,1.1-12.3,1.6
	c-2.7,0.4-5.5,0.7-8.2,0.9c-5,0.5-10-0.6-15-1c-1.9-0.2-3.9-0.7-5.7-1.4c-3.1-1-6.2-1.9-9.5-2.9c-0.2,0.4-0.3,0.9-0.3,1.4
	c0,0.4,0.2,0.9,0.2,1.3c0.1,1.5-1,2.9-2.5,3c-1.7,0.1-3.2-1.3-3.4-3c-0.1-1.3,1-1.7,1.7-2.3c1.4-1.2,1.4-1.9-0.1-2.8
	c-2.1-1.3-4.2-2.5-6.3-3.8c-1.5-0.9-3-1.8-4.4-2.8c-2.2-1.6-4.1-3.5-6.3-5c-3.5-2.4-6.9-5.1-10-8.1c-1.2-1.1-2.4-2.3-3.5-3.5
	c-2.9-3.5-5.6-7.2-8.8-10.5c-1.7-1.9-3.3-3.9-4.7-6c-0.8-1-1.5-2.1-2.5-3.5c-0.3,2-0.4,3.6-0.7,5.1c-0.2,1.3-1.5,2.3-2.8,2.1
	c-0.2,0-0.3-0.1-0.5-0.1c-1.6-0.4-2.6-2-2.2-3.6c0.1-0.6,0.5-1.1,0.9-1.5c1.3-1.2,2.6-2.6,4.9-2.4c-0.1-0.5-0.3-1.1-0.5-1.6
	c-0.9-2.1-2-4-2.8-6.1s-1.3-4.6-2.1-6.9c-1.1-3.2-2.3-6.3-3.4-9.4c-0.6-1.8-1.2-3.7-1.7-5.6c-0.3-1.6-0.7-3.3-1.2-4.9
	c-0.8-2.2-1.2-4.5-1.3-6.8c-0.5-5.5-1.2-10.9-0.1-16.3c0-0.3,0.1-0.6,0.1-0.9c0.1-4.4,1-8.7,2.5-12.8c1-3,2-5.9,3-8.9
	c0.4-1.5,0.9-2.9,1.5-4.3c2.3-4.4,4.8-8.8,7.1-13.2c1-1.9,2.2-3.8,3.2-5.7c0.5-1.1,1-2.1,1.7-3c2.7-2.8,5.5-5.4,8.2-8.1
	c0.6-0.7,1.3-1.2,2-1.7c4.9-3,9.9-5.9,14.8-8.8c1.4-0.9,2.9-1.6,4.4-2.2c5.8-2.2,11.5-4.4,17.3-6.6c1.3-0.5,2.4-1.1,2.1-2.8
	c0-0.5,0.1-1,0.3-1.5c0.1-1.1,0.9-1.9,1.9-2.1c1.1-0.1,2.2,0.5,2.7,1.5c0.3,0.6,0.6,1.1,0.8,1.7c2,0.1,4.1-0.3,5.9-1.2l0.9-5.1
	c-1-0.4-2-0.4-3,0c-3.6,0.8-7.2,1.7-10.9,2.6c-6.1,1.3-12.1,3.2-17.8,5.7c-0.7,0.3-1.4,0.6-2,1c0.5-0.1,1-0.2,1.4-0.3
	c0.8-0.1,1.2,1.1,0.4,1.3c-0.7,0.1-1.4,0.3-2.1,0.5c0.6,0.3,1.1,0.6,1.7,0.9c1,0.5,1.4,1.8,0.9,2.9c-0.1,0.2-0.3,0.5-0.5,0.6
	c-0.8,0.9-2.2,1.1-3.2,0.4c-0.9-0.5-1.3-1.6-1-2.6c0.1-0.4,0.2-0.8,0.3-1.2c-0.1,0.1-0.3,0.2-0.4,0.3c-0.6,0.6-1.5-0.4-0.9-0.9
	c0.2-0.2,0.5-0.4,0.8-0.6c-6.9,2.8-13.2,7-18.5,12.2c0.7,0.9,1.3,1.9,1.7,3c0.3,1.4-0.5,2.7-1.8,3.1c-0.1,0-0.1,0-0.2,0
	c-1.6,0.2-2.5-0.6-2.5-2.4v-1.6c-0.6,0.4-1.2,0.7-1.8,1.2c-2.9,2.3-5.9,4.6-8.7,7c-4.7,4.1-9,8.6-12,14c-4.9,8.9-9.2,18-11.7,27.9
	c-1.6,6.6-2.3,13.3-2.2,20.1c0,7,1.5,13.9,3.1,20.7c1.9,8.1,4.9,15.8,9,23.1c2.2,4.3,4.7,8.6,7.4,12.6c3.1,4.4,6,8.9,9.1,13.3
	c2.4,3.6,5.3,7,8.5,9.9c3.3,2.9,6.5,5.8,9.8,8.7c3.4,3.1,7.3,5.6,11.4,7.6c3.7,1.6,7.7,2.7,11.4,4.4c6.2,2.8,13,3.8,19.5,5.5
	c0.7,0.1,1.5,0.1,2.2,0c-0.4-1.9-0.6-3.5,1.4-4.3c1.2-0.5,2.7-0.3,3.6,0.7c1.4,1.8,0,3-1.1,4.3c2.2,1.1,4.3,0.8,6.6,0.9
	c-0.3-0.6-0.5-1-0.6-1.4c-0.7-1.6-0.4-2.6,1.1-3.5c0.8-0.4,1.6-0.7,2.4-0.9c0.8-0.3,1.7,0.1,2.1,0.8c0.6,0.9,0.6,2,0,2.9
	c-0.4,0.5-0.9,0.9-1.4,1.3c-0.3,0.3-0.7,0.7-1.2,1.2c2.1,0.4,4.2,0.7,6.4,0.8c6.6,0.1,13.2-0.7,19.6-2.5c5.8-1.6,11.5-3.8,17.2-5.7
	c0.6-0.3,1.1-0.6,1.7-0.9c-0.8-0.7-1.5-1.6-2.1-2.4c-0.7-1.2-0.4-2.7,0.7-3.5c1-0.7,2.3-0.6,3.2,0.2c1.1,0.9,1.2,2.4,0.4,3.5
	c-0.3,0.4-0.5,0.9-1.1,1.7c0.5-0.1,1-0.2,1.5-0.4c4.6-2.2,9-4.8,13.2-7.7c4.7-3.1,9.3-6.2,13.1-10.5c3.5-3.6,6.6-7.6,9.2-11.9
	c2.9-5.2,5.1-10.8,6.4-16.7c1.2-5.2,2.1-10.4,3-15.6c0.2-1,0.2-2.1,0.3-3.1l-0.5-0.2c-0.2,0.5-0.6,1-1,1.3c-0.8,0.3-1.7,0.3-2.5,0
	c-1.2-0.6-1.4-2.1-0.7-3.5c0.8-1.7,1.8-2.1,3.3-1.6c0.5,0.2,1,0.4,1.5,0.6c1-3.6,0.9-16.9,0.4-19.8
	C559,272.8,558.9,272.7,558.7,272.9L558.7,272.9z M433.5,174c1.7,0,2.7,0.8,2.6,2.2c0,1.4-1.1,2.5-2.4,2.6c-1.3,0-2.4-1-2.5-2.2
	c-0.2-1.2,0.7-2.3,1.9-2.5C433.2,174,433.3,174,433.5,174L433.5,174z M407.7,186.6c0-1.3,1.1-2.3,2.4-2.4c1.4,0.2,2.4,1.3,2.4,2.6
	c-0.1,1.3-1.2,2.3-2.5,2.2C408.7,189,407.8,187.9,407.7,186.6L407.7,186.6z M391.3,200.9c1.1,0.2,2,1.2,2.2,2.3
	c-0.3,1.3-1.4,2.3-2.7,2.4c-1.2-0.2-2.1-1.2-2-2.5C388.9,201.9,390,200.9,391.3,200.9L391.3,200.9z M383.1,210.5
	c1.5,0,2.8,1.2,2.8,2.7c0,1.2-1.8,2.6-3.6,2.6c-1.5,0-2.1-0.6-2.1-1.8C380.3,212.4,381.8,210.5,383.1,210.5L383.1,210.5z
	 M378.6,221.5c0.7,0.2,1.1,0.8,0.9,1.5c0,0.1,0,0.2-0.1,0.2c-0.5,1.6-1.8,2.4-3.2,3.1c-0.9,0.4-1.9-0.8-1.9-2.1
	c0.2-1.8,1.8-3.1,3.6-2.9C378.2,221.4,378.4,221.4,378.6,221.5L378.6,221.5z M370.6,236.2c0.6-1.7,1.8-3,3.4-3.9
	c1-0.6,2.7,0.9,2.7,2.3c0,2.2-1.8,4-4,4c-0.1,0-0.1,0-0.2,0c-1,0.1-1.8-0.6-2-1.5C370.5,236.8,370.5,236.5,370.6,236.2L370.6,236.2z
	 M367.8,252.1c0.1-1.8,1.1-3.5,2.7-4.4c1.8-1,3.9,0.4,3.9,2.6c-0.2,1.6-1.1,3.1-2.3,4.2c-0.9,0.7-2.1,0.8-3.1,0.2
	C368.1,254.1,367.6,253.1,367.8,252.1L367.8,252.1z M364.3,268.4c0.1-1.4,0.7-2.7,1.8-3.6c0.6-0.4,1.3-0.6,2-0.4
	c1.1,0.3,2.3,2.4,2.2,3.5c-0.2,1.5-1.3,2.8-2.8,3.3c-0.2,0-0.4,0.1-0.6,0.1c-1.4,0.1-2.6-1-2.6-2.4
	C364.3,268.8,364.3,268.6,364.3,268.4L364.3,268.4z M368.3,283.1c-0.9-0.9-1.3-2-0.7-3.2c0.6-1.4,1.6-2.6,2.9-3.4
	c0.6,0.7,1.1,1.5,1.5,2.4c0.4,0.7,0.5,1.5,0.5,2.3c0.1,1.1-0.5,2.1-1.5,2.5C370.2,284.1,369,283.9,368.3,283.1L368.3,283.1z
	 M372.4,295.2c-1-1.1-1.4-2.7-0.9-4.2c0.9-1.2,2.4-1.9,3.9-1.8c1,0.2,1.6,1.3,1.6,3.3c0,0.5-0.1,1-0.2,1.5c-0.4,1.5-1.9,2.3-3.3,1.9
	C373.1,295.7,372.7,295.5,372.4,295.2L372.4,295.2z M379,308c-1.7-0.1-3.1-1.5-3-3.3c0,0,0,0,0,0c0.1-1.4,0.8-2.7,2-3.5
	c0.6-0.5,1.4-0.5,2,0c1.2,0.9,2,2.3,2.1,3.9c0.2,1.5-0.9,2.7-2.3,2.9C379.4,308,379.2,308,379,308L379,308z M392.3,329
	c-1.8,0.1-3.3-1.2-3.4-2.9c0-0.2,0-0.3,0-0.5c0-1.2,1.9-2.8,3.2-2.7c1.2,0.1,2.5,1.9,2.4,3.5S393.7,329,392.3,329L392.3,329z
	 M399.6,336.6c-2-0.2-3.7-1.7-3.7-3.4s1.8-2.8,3.9-2.7s3,1,3,2.4C402.7,335.4,401.5,336.8,399.6,336.6L399.6,336.6z M408.7,344.6
	c-1.3,0.4-2.7,0.1-3.6-0.8c-0.9-0.7-1.3-1.8-1-2.9c0.1-0.4,0.2-0.7,0.5-1c1.1-1.3,2.6-0.8,3.9-0.4c1.1,0.2,1.9,1.3,1.8,2.4
	C410.3,343,409.7,344.1,408.7,344.6L408.7,344.6z M416.4,350.8c-1.8,0-3.1-1-3.1-2.3c0.2-1.6,1.6-2.8,3.2-2.9
	c1.5-0.1,2.8,1.1,2.9,2.6v0.2C419.3,350,418.3,350.8,416.4,350.8L416.4,350.8z M428.6,355.8c-0.6,1.3-1.8,1.5-3.1,1.5
	c-1.8-0.1-2.8-0.9-2.9-2.5c-0.1-1,0.4-2,1.3-2.5c1.4-0.4,2.9-0.1,4.1,0.7C428.8,353.7,429.1,354.9,428.6,355.8L428.6,355.8z
	 M448.7,365.4c-0.5,0.4-1.1,0.7-1.7,0.9c-1.8-0.1-3.1-0.4-3.7-1.8c-0.4-0.7-0.2-1.6,0.5-2c0.2-0.1,0.3-0.2,0.5-0.2
	c1.3-0.5,3.9,0.2,4.5,1.4C449.2,364.3,449.2,364.9,448.7,365.4L448.7,365.4z M475.7,369.3c-1.5-0.2-2.8-1.3-3.1-2.8
	c0-1.2,1.6-2.6,3-2.5s2.2,1.4,2.3,3c0.1,1.2-0.8,2.3-2,2.4C475.9,369.4,475.8,369.4,475.7,369.3L475.7,369.3z M485.3,368.7
	c-1.3,0-2.9-1.4-2.8-2.5s2.2-2.4,3.8-2.3c1.1,0.1,1.9,1,1.8,2.1c0,0,0,0.1,0,0.1c0.1,1.4-0.9,2.6-2.3,2.7
	C485.6,368.7,485.5,368.7,485.3,368.7L485.3,368.7z M494,366.8c-1.4,0-2.6-1.1-2.7-2.6c0-1.4,1.4-2.6,3.2-2.6c1.2,0,2.2,1,2.2,2.2
	c0,0,0,0,0,0C496.6,365.4,495.5,366.6,494,366.8L494,366.8z M502.5,364.4c-1.4,0-2.2-1-2.2-2.7c-0.1-1.1,0.8-2.1,1.9-2.2
	c0.1,0,0.2,0,0.2,0c1.2,0,3,1.5,3,2.5S504,364.4,502.5,364.4L502.5,364.4z M518,356.4c-0.8-0.1-2.7-2.2-2.7-3.1
	c0-1.2,0.9-2.2,2.1-2.3c1.6,0.3,2.9,1.6,3,3.3C520.2,355.4,519.2,356.3,518,356.4L518,356.4z M526.4,350.7c-1.2,0-3.2-1.8-3.2-3.1
	s1.4-2.4,2.9-2.4s2.5,1,2.5,2.9C528.6,349.4,527.7,350.6,526.4,350.7L526.4,350.7z M534,343.7c-1.1,0-2.8-1.9-2.7-3.2
	c0-1.3,1-2.3,2.3-2.4c1.4,0.2,2.5,1.3,2.6,2.8C536.2,342.1,535.1,343.6,534,343.7z M540,337c-1.2,0-2.7-1.8-2.6-3c0-1.1,1-2,2.1-2
	c1.5,0,3.1,1.3,3,2.5C542.4,335.8,541.4,336.9,540,337L540,337z M546.8,327.8c0.1,1.4-1.1,2.6-2.5,2.7c-0.2,0-0.3,0-0.5,0
	c-2.2-0.1-3-0.8-2.9-2.3c0.1-1.7,1.5-3.1,3.2-3.2C545.7,325.1,546.9,326.3,546.8,327.8L546.8,327.8z M546.8,321.8
	c-1.2,0-3.1-2.2-3.1-3.5s1.8-2.3,3.7-2.3c1.4,0.2,2.4,1.4,2.5,2.8C550.1,320.1,548.3,321.9,546.8,321.8L546.8,321.8z M555.6,305.1
	c-0.1,1.6-1.5,2.8-3.1,2.7c-1.2,0.1-2.2-0.8-2.2-2c0,0,0-0.1,0-0.1c0-1.5,1.2-2.8,2.7-2.9C554.3,302.8,555.4,303.8,555.6,305.1
	L555.6,305.1z M555.6,285.1c-1.5-0.2-2.7-1.4-2.8-2.9c0-1.4,1.4-3.3,2.6-3.4c1,0,2.4,1.8,2.5,3.2C558,283.8,557,285.1,555.6,285.1
	L555.6,285.1z M470.6,140.3c-1.3,0.1-2.1,0.3-3,0.4c-5.1,0.2-10.2,0.5-15.3,0.7c-4.4,0.1-8.7,0.2-13.1,0.4
	c-3.4,0.1-6.8,0.3-10.3,0.4c-7,0.3-14.1,0.5-21.1,0.9c-5.1,0.3-10.2,0.7-15.2,1l-15.7,1.1c-0.8,0.1-1.7,0-2.7,0
	c0.1-0.4,0.2-0.9,0.4-1.3c1.6-3.2,3.4-6.2,5.4-9.2c3.3-4.6,7.8-8.2,13-10.3c7.5-3.1,15-6.1,22.9-7.8c5.6-1.4,11.4-1.9,17.1-1.5
	c3.6,0.2,7.1,0.6,10.6,1.2c5,0.9,9.7,2.8,13.9,5.5c3.4,2.4,6.3,5.5,8.5,9c1.3,2,2.4,4.2,3.5,6.3c0.5,1.1,0.9,2.3,1.2,3.5
	L470.6,140.3z M178.3,296.1c-2.4-0.2-4.8-0.7-7-1.6c-4.3-1.6-6.5-4.9-7.5-9.1c0-0.2-0.1-0.4-0.2-0.6c-1.8-3.8-1.3-7.6-0.6-11.5
	c0.5-2.4,0.9-4.9,1.4-7.3c1.1-4.6,3.5-8.9,6.9-12.2c0.8-0.8,1.5-1.8,2.3-2.6c0.4-0.4,0.8-0.8,1.3-1.1c3.7-2.1,7.7-3.9,11.8-5.1
	c1.6-0.4,3.1-0.6,4.8-0.6c4.7,0,9.3,1.3,13.2,3.8c1.3,0.8,2.3,2,3.1,3.3c2,3.3,4,6.6,4.4,10.6c0.7,4.9,0,9.8-2,14.3
	c-3.4,7.2-9.2,12.1-15.9,15.9c-0.7,0.4-1.5,0.7-2.2,0.8C187.7,294.1,183.4,295.9,178.3,296.1L178.3,296.1z M432.1,89.2v-7.2
	c0.1-4.1,0.1-8.2,0.2-12.2c0.2-5.4,0.7-10.7,1-16.1c0.2-3.6,0.5-7.3,0.7-10.9c0-3.1,0.7-6.1,1.8-8.9c0.7-1.6,1.9-2.9,3.3-3.9
	c6.3-4.6,13.6-7.7,21.3-9.2c5.7-1,11.3-2,17-2.8c3.4-0.5,6.8-0.8,10.2-1.2c0.4,0,0.9,0,1.3,0c1.8,0.1,2.1,0.7,1.3,2.4
	c-1.1,2.5-2.2,5.1-3.3,7.6c-0.9,2.3-0.8,4.9,0.3,7.2c0.7,1.6,0.5,2-1.2,2.5c-6.1,1.8-12.2,3.3-18.2,5.4c-4.1,1.3-8.3,2.7-11.9,5.2
	c-2.8,1.8-4.7,4.6-5.6,7.8c-1.5,5.5-1.9,11.2-2.4,16.8c-0.5,5.2-0.4,10.5,0.2,15.7c0.2,1.5-0.1,1.9-1.9,1.9
	C441.6,89.3,437,89.3,432.1,89.2L432.1,89.2z"/>
<path fill="none" d="M626.9,171.6c0,0.1,0.1,0.1,0.1,0.2c0.1-0.1,0.1-0.1,0.2-0.2c0.3-0.2,0.5-0.5,0.8-0.6c-0.9,0.4-2,0.3-2.8-0.3
	c-0.1,0-0.2-0.1-0.2-0.2l0.7,1.1c0.2-0.3,0.6-0.5,0.9-0.3C626.7,171.4,626.8,171.5,626.9,171.6z M675.5,339
	c-0.2-3.1-0.5-6.2-0.7-9.3c-0.3-5.7-0.4-11.3-0.6-17c-0.3-6.8-0.6-13.5-1-20.3c-0.2-1.9-0.3-3.8-0.3-5.7c0.3-2.9-0.5-5.6-1-8.4
	c-0.6-3.6-1.2-7.3-1.7-11c-0.3-2.1-0.4-4.3-0.7-6.5c-0.3-2.3-1-4.5-1.3-6.8c-0.9-6.3-2.3-12.5-4.1-18.5c-0.7-2.5-1.4-5-2.4-7.5
	c-2-5.1-4.1-10.1-6.2-15.1c-1.6-3.8-3.2-7.6-4.8-11.5c-1.8-4-3.6-7.9-5.5-11.9c-1.2-2.7-2.5-5.2-4-7.7c-2.9-4.5-6.1-8.9-9.2-13.3
	c-0.1-0.1-0.2-0.3-0.3-0.4c0,0.2,0,0.4-0.2,0.5c-0.7,0.7-1.6,1.3-2.5,1.8c1.2-0.3,2.4,0,3.4,0.9c1.1,0.6,1.5,2.1,0.8,3.2
	c-0.1,0.1-0.1,0.2-0.2,0.3c-0.2,0.4-0.5,0.8-0.8,1.1c0.8-0.1,1.5-0.6,2.1-1.2c0.3-0.3,0.7-0.3,0.9,0c0.3,0.3,0.3,0.7,0,0.9
	c-0.8,1-2,1.5-3.2,1.6h-0.8l0.2,0.1c0.2,0.3,0.2,0.7-0.1,0.9c0,0,0,0-0.1,0.1c-0.4,0.2-0.8,0.5-1.2,0.7c-0.3,0.2-0.7,0.1-0.9-0.2
	l-0.2-0.4c0,0.2,0,0.4,0.1,0.6c0.6,1.9,1.2,3.7,2,5.5s1.5,3.6,2.2,5.4c0.2,0.6,0.6,1,0.9,1.7l1.9-5.2c-0.3-0.1-0.7-0.2-1-0.2
	c-1.4,0.2-2.1-0.6-2.6-1.8c-0.3-0.7-0.5-1.4-0.6-2.1c-0.1-0.9,0.1-1.7,0.4-2.5c1-1.6,3.1-2.2,4.7-1.2c0.1,0.1,0.2,0.1,0.3,0.2
	c2.2,1.5,2.9,3.8,1.5,5.6c-0.5,0.6-1,1.1-1.6,1.8c1,0.1,2,0.3,2.9,0.6c1.9,0.9,2.5,2.7,1.9,5.1c-0.5,1.9-2.3,3.3-4.3,3.4h-2.5
	c0.4,1.2,0.7,2,1,2.9c1.4,3.3,2.9,6.5,4.2,9.8c1.5,4,2.2,8.2,4,12.2c1.4,3.3,2.5,6.7,3.2,10.2c1.3,5,2.2,10.1,3.5,15.1
	c0.5,2.3,1.2,4.6,2.2,6.8c2.1,4,2.4,8.4,3,12.6c0.8,4.9,0.7,9.9,1.2,14.8c0.6,5.5,0.8,11,0.4,16.5c0,1.2,0.1,2.3,0.3,3.5
	c0.4,3.2,1.3,6.4,0.8,9.8c-0.8,6.2,0,12.3,0.1,18.5c0,0.3,0.1,0.6,0.1,0.9c0.3,3.5,0.8,6.9,1,10.4c0.1,1.9-0.3,3.9-0.3,5.8
	c0,2.7,0.2,5.5,0.1,8.2c-0.1,4.7-0.3,9.5-0.5,14.2c0,0.7,0.1,1.3,0.2,2c0.7-1,1.2-1.5,1.6-2.1c1.4-2.2,2.9-4.2,4.7-6
	c0.8-0.8,1.5-1.6,2.1-2.5c1.2-1.8,2.5-3.6,3.9-5.2c2.1-2.3,3.7-4.8,3.3-8.2c0-0.5,0.1-1,0.2-1.5c0-1.7,0-3.4-0.1-5L675.5,339z
	 M669.7,292.9c0,2.1-2,3.7-4.8,3.7c-2.2,0-3.4-1.8-3.5-4.8c0-1.6,1.8-3.6,4.2-3.6C667.4,288.2,669.7,290.9,669.7,292.9L669.7,292.9z
	 M640.2,200c0-2.2,1.5-4,3.5-4s4.1,1.9,4,3.6s-2.6,4.1-4.5,4.1S640.2,202.4,640.2,200L640.2,200z M644.1,213.8
	c-0.7-1.5-0.9-3.2-0.6-4.9c0.3-1.8,1.9-3,3.8-2.9c2.5,0.3,4.4,2.5,4.1,5.1c0,0.3-0.1,0.5-0.1,0.7c-0.8,2.1-2.9,3.4-5.1,3.4
	C645.2,215.2,644.4,214.7,644.1,213.8L644.1,213.8z M649.2,224.5c-1.1-1.7-1.6-3.8-1.5-5.8c0-1.4,1-2.5,2.4-2.6c0.1,0,0.3,0,0.4,0
	c3.4,0.1,5.2,2.2,5.2,5.8c0.2,1.4-0.4,2.7-1.5,3.5C652.5,226.6,650.3,226.2,649.2,224.5C649.2,224.5,649.2,224.5,649.2,224.5
	L649.2,224.5z M650.6,228.9c0.7-1.3,2-1.6,3.8-1.5l1.8,0.4c1.7,0.4,2.3,1.6,2.6,3.1c0.4,1.4-0.1,2.8-1.4,3.6
	c-0.9,0.8-2.1,1.3-3.4,1.3C651.4,235.4,649.6,230.6,650.6,228.9L650.6,228.9z M655,246.9c-1.6-1.7-2.8-3.7-2.1-6.3
	c0.3-1.2,1.2-2.1,2.4-2.3c2.4-0.6,6,2.5,5.9,5.2c-0.2,0.7-0.3,1.4-0.5,2C659.6,248.4,657,249.1,655,246.9L655,246.9z M656.9,255.8
	c0.2-2.7,2.2-4.8,4.8-5.1c2.3,0.2,4.2,2,4.4,4.3c0.1,2.9-1.8,4.8-4.8,4.9C658.9,260,657,258.2,656.9,255.8
	C656.9,255.8,656.9,255.8,656.9,255.8L656.9,255.8z M658.2,267.5c-0.1-1.2-0.5-2.5,1-3.3c1.7-0.9,3.5-1.3,5.1,0
	c1.2,1,2.1,2.2,2.6,3.6c0.9,2.3-1.4,5.1-4.1,5.1c-1.8,0.3-3.5-0.9-4-2.7C658.4,269.4,658.2,268.4,658.2,267.5L658.2,267.5z
	 M659.7,282.4c-0.4-1.1-0.8-2.2-1-3.3c0.2-2.3,1.4-3.6,3.6-3.7c2.4-0.1,4.5,0.7,5.5,3.1c0.4,0.9,0.5,1.9,0.2,2.9
	c-0.7,1.3-1.6,2.4-2.8,3.2C663.1,285.8,660.8,284.8,659.7,282.4L659.7,282.4z M660.4,303.5c-0.1-2.3,1.7-4.2,4-4.2c0,0,0,0,0,0
	c3,0,6,2.2,5.9,4.6c-0.1,2.8-2.1,4.7-5.7,4.8C662.3,308.7,660.4,306.3,660.4,303.5L660.4,303.5z M666.2,310.5c1.9,0,4.1,2.7,4.2,4.9
	c0,2.6-1.8,4.1-5.1,4.1c-2.2,0.2-4.1-1.5-4.3-3.7c0-0.2,0-0.5,0-0.7C661,312.8,663.5,310.5,666.2,310.5L666.2,310.5z M661,326.9
	c0.1-2.6,2.1-4.8,4.7-5c3.7-0.1,5.1,2.6,5.3,5.4c0.2,2.6-2.1,4.5-4.8,4.6C663.9,331.9,661,329.2,661,326.9L661,326.9z M667.3,332.9
	c2.2,0,4.1,1.8,4,3.7c-0.1,2.7-2.3,5.1-4.7,5c-2.3-0.2-4.1-2.2-4.1-4.5C662.5,334.4,664.4,332.8,667.3,332.9L667.3,332.9z
	 M669.1,354.2c-2.7,1.5-5.8-1.6-5.8-4.1c0.2-1,0.6-2.1,1-3.1c0.7-1.6,2.5-2.3,4.1-1.7c0.2,0.1,0.3,0.2,0.5,0.3c1.8,0.9,3,2.7,3,4.8
	C671.9,352.2,670.7,353.4,669.1,354.2L669.1,354.2z"/>
<path fill="none" stroke="#FFC107" stroke-miterlimit="10" d="M217.9,263.1c0.1,0.4-0.2,0.7-0.6,0.8c-0.2,0-0.4,0-0.5-0.1
	c-0.2,0.9-0.3,1.7-0.3,2.6c0.1,3.1-0.5,6.3-1.8,9.2c-2.2,5.4-5.7,10.2-10.2,14c-3.9,3.1-7.8,6.1-12.6,7.5c-1.1,0.3-2.3,0.4-3.4,0.8
	c-5.5,1.8-11.4,1.9-17,0.4c-2.7-0.7-5.2-2.1-7.3-4c-1-1-1.9-2.2-2.7-3.4c-1.4-1.8-2.9-3.7-2.4-6.3c0-0.3,0-0.6-0.1-0.9
	c-0.9-2-0.6-4-0.4-6c0.2-2.3,0.8-4.6,0.8-6.9c0-3.7,1.5-6.9,2.7-10.3c0.6-1.3,1.3-2.6,2.2-3.8c1.1-1.6,2.3-3,3.4-4.5
	c2.8-4,6.7-7,11.2-8.8c2.2-0.8,4.4-1.6,6.6-2.4c0.8-0.3,1.5-0.8,2.2-1.2c-1,0.1-2,0.4-2.9,1c-0.7,0.5-1.4-0.7-0.7-1.1
	c0.2-0.2,0.5-0.3,0.8-0.5c-3.4,0.5-6.7,1.7-9.6,3.6c-10.6,7.1-17.5,18.5-18.9,31.2c-0.4,4.3-0.6,8.6,0.9,12.8c0.9,2.5,1.5,5,3.4,7
	c1.6,1.8,3.5,3.5,5.5,4.9c2.5,1.6,5.1,3.1,8.1,3.5c1.5,0.4,3,0.6,4.5,0.8c3.2,0,6.4-0.2,9.6-0.5c2-0.1,4-0.5,5.9-1.2
	c3.5-1.3,6.9-3,10.1-5.1c6.2-4.1,10.7-9.4,12.5-16.7c0.5-2.1,1.2-4.2,1.7-6.3c0.8-3.6,1.1-7.4-0.8-10.8L217.9,263.1z M380.8,65.9
	c-2.4,0.2-2.4,0.4-2.5,2.9c-0.2,5.9-0.6,11.9-0.8,17.8c-0.1,2.1,0.1,4.2,0.3,6.7c3-0.6,5.5-1.1,8.1-1.6c2.1-0.4,2.1-0.5,2.2-2.7
	c0.1-2.9,0.2-5.8,0.4-8.7c0.2-3.8,0.6-7.7,0.8-11.5c0.1-2.3-0.4-2.8-2.7-3C384.6,65.6,382.7,65.7,380.8,65.9z M382.6,62.9
	c2-0.1,4.1,0.1,6.1,0.1c1.7,0.1,3.5,0,5.2-0.1c2.3-0.3,2.5-0.6,2.5-3s-0.4-2.7-2.6-2.5c-4,0.4-8.1,0.8-12.1,1.3
	c-1.3,0.2-2.6,0.5-3.8,1c-1.8,0.7-2.1,1.8-1.3,3.7C378.6,63.3,380.6,63,382.6,62.9z M558.3,246.9c-0.3,0.3-0.5,0.7-0.8,1.1
	c-0.1,0.4-0.3,0.8-0.5,1.2c-0.5,0.6-1.2,0.9-2,1.1c-0.5,0-1-0.9-1.4-1.4c-0.2-0.4-0.4-0.9-0.5-1.4c-0.4-1.2,0.3-2.6,1.6-2.9
	c0.5-0.2,1-0.1,1.5,0.1c0.6,0.2,1.2,0.4,2.2,0.7c-0.1-1.8-0.1-3.2-0.3-4.6c-0.2-1.2,0.4-2.5-0.4-3.7c0.1,0.7,0.2,1.4,0.2,2.1
	c0,0.4-0.4,0.6-0.7,0.6c-0.3,0-0.5-0.3-0.6-0.6c0-0.4,0-0.8-0.1-1.2c-0.1,0.3-0.3,0.6-0.5,0.9c-0.4,1-1.6,1.5-2.6,1
	c-0.1-0.1-0.2-0.1-0.4-0.2c-1.3-1.3-1.4-3.3-0.3-4.8c0.5-0.9,1.6-1.2,2.5-0.7c0.1,0,0.2,0.1,0.2,0.2c0.3,0.1,0.5,0.3,0.8,0.5v-0.4
	c0-0.8,1.4-0.9,1.3,0c0,0.4,0,0.9,0,1.3h0.1c0.1-0.5,0.2-1.1,0.2-1.6c-0.1-1.1-0.3-2.2-0.5-3.2c-0.7-4.2-1.3-8.5-2-12.7
	c0-0.8-0.6-1.4-1.3-1.4c0,0,0,0,0,0c-0.4,0.9-0.8,1.7-1.4,2.5c-1.3,1.7-2.8,1.5-3.6-0.5c-0.2-0.5-0.3-1-0.4-1.5
	c-0.4-1.5,0.5-2.9,2-3.3c0.5-0.1,1.1-0.1,1.6,0.1l1.6,0.4c0.1-0.5,0.1-0.9,0-1.4c-0.5-1.6-1-3.2-1.7-4.7c-1.2-2.8-2.5-5.6-3.9-8.3
	c-0.6-1.4-1.5-2.6-2.5-3.7c0.1,0.5,0.1,1,0.2,1.5c0,0.4-0.3,0.6-0.7,0.6c-0.2,0-0.5-0.2-0.6-0.4c-0.3,0.2-0.7,0.1-0.9-0.1
	c-0.1-0.1-0.1-0.2-0.1-0.3c0-0.2,0-0.5,0.1-0.7c-0.8,0.4-1.6,0.7-2.5,0.9c-1.1,0.3-2.3-0.4-2.5-1.5c0-0.2-0.1-0.3-0.1-0.5
	c-0.3-1.2,0.5-2.5,1.7-2.7c0,0,0.1,0,0.1,0l0.6-0.2l-1-0.3c-0.8-0.3-0.5-1.5,0.3-1.3c0.3,0.1,0.6,0.2,0.9,0.3
	c0.1-0.3,0.5-0.4,0.8-0.3c0,0,0.1,0,0.1,0.1c0.3,0.2,0.5,0.4,0.7,0.5c-0.3-0.5-0.6-1-1-1.4c-1.3-1.5-2.6-3-3.9-4.4
	c-0.8-0.9-1.8-1.8-2.6-2.6c0.4,0.8,0.7,1.6,1.1,2.5c0.5,1.2,0.4,1.7-0.7,2.6c-0.3,0.3-0.7,0.5-1.1,0.7c-0.8,0.5-1.7,0.9-2.6,0.3
	c-0.8-0.8-1-2-0.6-3c0.5-0.9,1.2-1.6,2-2.2c0.6-0.4,1.2-0.7,1.9-0.9c-1.1-2-2.7-3.8-4.7-5.1c-2.3-1.5-4.6-3.1-6.9-4.6
	c-2.5-1.7-2.6-1.7-4.6,0.7c0,0.1-0.1,0.1-0.2,0.1c-1.5,1.4-3.8,1.3-5.2-0.2c-0.2-0.2-0.3-0.4-0.4-0.6c-0.7-1-0.4-2.4,0.7-3
	c0,0,0,0,0,0c0.5-0.4,0.9-0.8,1.6-1.4c-2.2-0.9-3.9-2.2-6.2-2.4c-0.1,1-0.2,1.8-0.3,2.7c0,1-0.8,1.8-1.8,1.9c-1.6,0.4-3.1-0.5-3.6-2
	c-0.5-0.8-0.2-1.8,0.6-2.2c0.2-0.1,0.3-0.2,0.5-0.2c0.6-0.2,1.3-0.4,2-0.6c0-0.2-0.1-0.3-0.1-0.5c-3-1.1-6.2-1.7-9.3-1.7
	c-0.5,0.1-1,0.5-1.2,1c-0.4,1.3-0.6,2.6-0.8,3.8c3.4,1,6.9,2,10.3,3.2c4,1.4,7.5,3.8,11,6.1c2.2,1.4,4,3.3,6.5,4.3
	c0.6,0.3,1.2,0.6,1.6,1.1c2.6,2.7,5.3,5.4,7.8,8.2s4.2,6.5,6.1,9.8c2.3,4.2,4.3,8.5,6,13c1,2.7,1.9,5.5,2.5,8.3
	c1.2,5.2,2.3,10.4,3.3,15.6c0.5,2.3,0.6,4.8,0.9,7.1c0.3,2.6,0.5,5.2,0.8,7.8c0.1,0.9,0.3,1.9,0.4,2.8s0.3,1.8,0.4,2.7l0.3,0.4
	c1.2-1.8,2.8-2,4.7-1.5C559.2,254.3,559,250.8,558.3,246.9z M526.5,181.8c-1,0.3-2.1-0.1-2.6-1c-0.9-1.2-1-2.4-0.3-3.1
	c0.4-0.5,1-0.8,1.6-0.8c1.1,0.5,2.2,1,3.2,1.7c0.1,0.2,0.2,0.4,0.3,0.6C528.5,180.4,527.7,181.4,526.5,181.8L526.5,181.8z
	 M546.4,212.1c-1.1-0.1-2.1-0.9-2.3-2c-0.2-0.6-0.3-1.2-0.4-1.6c0-2,0.9-2.8,2.6-2.7c4.7,0.4,4.4,1.4,2.5,4.6
	C548.2,211.4,547.6,212.1,546.4,212.1L546.4,212.1z M550,228.4c-0.5-1.1-0.5-2.3,0.1-3.4c0.7-0.9,2-1.1,2.9-0.5
	c0.3,0.2,0.5,0.5,0.7,0.8c0.2,0.6,0.4,1.2,0.5,1.8c0,1.8-0.6,2.6-1.7,2.8C551.3,230.1,550.4,229.4,550,228.4z M311.5,250.8
	c-1.1-1.6-2.1-3.5-3.6-4.6c-2.5-1.8-5.3-3.1-8.3-3.8c-3.1-0.6-6.1-1.6-9.1-2.1c-2.6-0.5-5.3-0.8-7.9-0.9c-2.4-0.1-4.8,0.5-6.9,1.6
	c-5.3,2.9-10.6,5.8-14.2,10.9c-1.6,2.2-3,4.5-4,7c-2.6,7.2-3.6,14.9-2.8,22.5c0.5,4,1.9,7.8,4.2,11.1c3.4,5.2,8.7,7.9,14.4,10.1
	c4.4,1.6,9.1,2.2,13.7,2c2.6,0,5.2-0.5,7.6-1.4c4.6-1.8,8.9-4.5,12.4-7.9c1.9-1.7,3.5-3.7,4.8-5.9c2.5-4.1,4.1-8.7,4.8-13.5
	c0.2-2.1,0.4-4.2,0.6-6.3c0.2-5-0.9-10.1-3.3-14.5C313,253.7,312.4,252.1,311.5,250.8L311.5,250.8z M314.1,267.8c-0.2,2,0,4,0,6.1
	c-0.1,7.2-3.7,12.7-8.7,17.5c-4.7,4.4-10.4,6.7-16.6,8.1c-3.9,0.9-8,0.9-11.9,0c-4.6-0.9-9-3-12.7-5.9c-1.1-1.1-2.1-2.4-2.9-3.8
	c-2.1-3-2.8-6.5-3.2-10c-0.5-4.1,0-8.3,1.4-12.2c1-3,2-6,3-8.9c0.6-1.8,1.7-3.4,3.2-4.6c1.7-1.5,3.3-3.1,5-4.5c3.5-3.1,8-5,12.7-5.2
	c0.9,0,1.8-0.1,2.6-0.1c3.7-0.1,7.4,0.5,11,1.6c1.9,0.6,3.8,1.1,5.6,1.8c0.5,0.1,0.9,0.4,1.3,0.7c2.7,2.4,5.1,5,7.1,8
	c0.9,1.8,1.7,3.7,2.3,5.6C314.1,263.8,314.3,265.8,314.1,267.8L314.1,267.8z M471.8,122c-0.8-0.7-1.6-1.4-2.4-2.2
	c-4-3.8-8.7-6.8-13.9-8.9c-1.3-0.5-2.6-0.9-4-1.2c-3.9-1-7.7-2.5-11.6-2.8c-6.1-0.5-12.2-0.8-18.3,0.4c-1.2,0.3-2.4,0.5-3.6,0.7
	c-4.6,0.5-9.2,1.6-13.6,3.1c-5.7,1.6-11.3,3.8-16.6,6.6c-2.8,1.5-5.5,2.9-8.2,4.6c-3.2,2.1-5.6,5-7.9,8c-3.2,4.3-5.5,9.1-6.8,14.3
	c-0.1,0.4-0.1,0.8,0,1.2c0.6,0.1,1.1,0.2,1.7,0.3c2.5,0.1,3-0.2,4-2.4c0.5-1.2,1-2.4,1.5-3.6c1.5-4.4,4.3-8.2,8-10.9
	c6.1-4.4,12.2-8.7,19.5-11c2.1-0.7,4.1-1.9,6.2-2.6c3.5-1.1,7.1-2,10.8-2.7c4.9-0.7,9.8-1.1,14.7-1.4s10,0.9,14.9,1.6
	c2.5,0.4,5,1,7.4,1.8c4,1.3,7.3,4.1,10.1,7c4.5,4.5,8,9.8,10.3,15.8c1,2.7,1.8,3.1,4.6,2.3c0.1-0.1,0.1-0.2,0.1-0.4
	c-0.1-0.9-0.3-1.9-0.5-2.8C477.3,131.3,476.4,125.9,471.8,122L471.8,122z"/>
<path fill="none" d="M625.1,160.9l-0.1-0.1c-0.7-0.5,0-1.6,0.7-1.1c0.5,0.4,1.1,0.8,1.5,1.3c-0.1-1.7-1.4-3.2-3.1-3.5
	c-1.4-0.4-2.8-0.8-4.2-1.3l-10.5-3.4l-0.3,0.4l12.2,11.6l0.1-0.1c-0.2-0.2-0.4-0.4-0.6-0.7C620.3,163.4,623.8,161.3,625.1,160.9
	L625.1,160.9z"/>
<path fill="none" stroke="#FFC107" stroke-miterlimit="10" d="M493.5,20c0.3,1.2,0.5,2.4,0.6,3.6c0.1,2.8,0.1,5.5,0.1,8.3
	c0,1.1-0.9,2-2,2.2c-0.9,0.1-1.5-0.4-1.9-1.7c-0.9-3.2-0.1-6.3,1-9.4c0.5-1,1-2,1.5-3L493.5,20z M483.2,164.4
	c2.6-0.6,5.3-0.7,7.9-0.3c-0.1,1.2-0.2,2.4-0.4,3.6c0,0.7-0.6,1.2-1.3,1.1c0,0-0.1,0-0.1,0h-7.6L483.2,164.4z M478.1,164.8
	c-0.2,1.8-0.2,1.8,1.4,4.2l-9.2,1c0.3-1.7,1.3-3.2-0.3-4.4C471.4,164.8,475.8,164.4,478.1,164.8L478.1,164.8z M460.1,171.8l-1.4-4.4
	c2.1-1.6,4.8-1.7,7.6-1.8c-0.7,1.8-1,3.3,1.3,4.5C465.3,171.1,462.7,171.6,460.1,171.8L460.1,171.8z M206.9,243
	c-1-0.9-2.1-1.7-3.3-2.4c-3.6-1.6-7.5-1.8-11.3-1.8c0.8,0.1,1.6,0.1,2.4,0.1c0.8-0.1,0.8,1.2,0,1.3h-0.2c1.3,0.2,2.7,0.5,4,0.9
	c2.4,0.8,4.7,1.7,7,2.7c-0.1-0.1-0.3-0.3-0.4-0.4c-0.6-0.6,0.3-1.5,0.9-0.9c0.4,0.3,0.7,0.6,1,1C207,243.3,207,243.1,206.9,243
	L206.9,243z M639.3,190.2c0,0.4-0.1,0.8-0.3,1.2c-0.1,0.5-0.6,0.8-1.1,0.7c-0.1,0-0.2-0.1-0.3-0.1c-0.4-0.3-0.6-0.8-0.3-1.3
	c0.1-0.1,0.1-0.2,0.2-0.2c0.4-0.3,0.9-0.5,1.3-0.7L639.3,190.2L639.3,190.2z"/>
<path fill="#FFC107" stroke="#FFC107" stroke-miterlimit="10" d="M346.6,277.9c-1.7-0.1-2.4-1.2-1.5-2.7c0.5-0.8,1.2-1.4,2-2
	c0.7-0.4,1.5-0.2,2,0.4c0.5,0.4,0.7,1.1,0.4,1.8C349,277.1,347.9,278,346.6,277.9L346.6,277.9z M334,278.5c-0.7,0.1-1.4-0.3-1.6-1.1
	c0-0.2,0-0.3,0-0.5c0-1.5,1.2-2.7,2.7-2.7c0.1,0,0.2,0,0.3,0c1.1,0.2,1.9,1.1,1.9,2.2C337.4,277.8,335.9,278.1,334,278.5L334,278.5z
	 M248,276.7c-0.1,1.7-2.7,3.5-3.9,3.1c-1-0.5-1.4-1.7-0.9-2.7c0.1-0.2,0.2-0.3,0.3-0.4c1-0.9,2.3-1.2,3.6-0.9
	C247.4,276,247.7,276.3,248,276.7L248,276.7z M235.4,280.7c-1.6,0-2.2-0.8-1.8-2.1c0.3-1.1,1.2-1.9,2.3-2.1c0.8-0.2,1.7,0.1,2.1,0.8
	c0.3,0.4,0.4,0.9,0.3,1.4C237.8,279.7,236.7,280.5,235.4,280.7L235.4,280.7z M226.7,280.3c-0.6-0.2-1.1-0.6-1.5-1.1
	c-0.3-0.7,0-1.5,0.7-1.9c0.1-0.1,0.3-0.1,0.5-0.1c0.8-0.2,1.6-0.7,2.4-0.9s1.2,0.3,1.2,1.1C229.7,279,228.3,280.2,226.7,280.3
	L226.7,280.3z M355.1,273.4c0.7-0.1,1.3,0.3,1.5,1c0,0.2,0,0.3,0,0.5c0.1,1.1-0.8,2.1-1.9,2.2c-1,0.1-1.8-0.7-1.9-1.6c0,0,0,0,0,0
	c0-1.2,1-2.1,2.2-2.1C355,273.4,355.1,273.4,355.1,273.4L355.1,273.4z M327,275c0.8,0,1.5,0.6,1.5,1.5c-0.3,1.1-1.2,2-2.3,2.3
	c-0.9,0.1-1.6-0.5-1.7-1.4c0-0.1,0-0.2,0-0.3C324.5,275.9,325.5,275.1,327,275L327,275z M576,258.7c-0.5-0.6-1-1.3-1.5-2
	c-0.5-1.1,0-2.4,1.1-3c1.1-0.5,2.4-0.2,3.2,0.7c0.5,0.6,0.5,1.5-0.1,2c0,0,0,0,0,0C577.9,257.2,577.1,257.9,576,258.7L576,258.7z
	 M592.5,254.3c0-1.4,0.8-2.4,2-2.4c1.2,0,2.2,0.9,2.5,2c-0.2,1.4-1.3,2.5-2.7,2.7C593.1,256.5,592.3,255.4,592.5,254.3
	C592.5,254.3,592.5,254.3,592.5,254.3L592.5,254.3z M584.8,257.1c-1.2,0-1.8-0.6-1.8-1.9c0-1.3,1-2.4,2.3-2.4c0,0,0,0,0,0h0.2
	c1-0.1,1.8,0.7,1.9,1.6c0,0,0,0,0,0C587.4,255.8,586.3,257,584.8,257.1C584.9,257.1,584.8,257.1,584.8,257.1L584.8,257.1z
	 M291.2,204.5c-0.1-1.3,0.9-2.4,2.2-2.4c0,0,0,0,0,0c0.9-0.1,1.7,0.6,1.8,1.5c0,0.1,0,0.1,0,0.2c0,1.4-1.3,3-2.4,2.9
	C291.8,206.5,291.1,205.5,291.2,204.5z M622.1,250.7c1.3,0.1,2.1,2.2,1.2,3.3c-0.5,0.6-1.2,1-2,1.3c-0.5,0-1.1-0.2-1.4-0.7
	c-0.6-0.8-0.2-1.6,0.2-2.4C620.4,251.3,621.2,250.8,622.1,250.7L622.1,250.7z M297.2,158.2c-0.8,1-2,1.4-3.3,1.3
	c-1.5-0.3-2-1.4-1.2-2.7c1-1.7,2.8-1.7,3.8,0C296.7,157.3,297,157.8,297.2,158.2L297.2,158.2z M296.8,194.9c0.1,1.5-1.9,3.3-3.1,3.1
	c-0.7-0.1-1.1-0.7-1.1-1.3c0,0,0,0,0,0c0-1.1,0.6-2.1,1.5-2.7c0.4-0.4,1-0.5,1.5-0.4C296.2,193.9,296.6,194.4,296.8,194.9
	L296.8,194.9z M605.4,253.1c0,1.4-1,2.7-2,2.7c-1.1-0.2-1.9-1.2-2-2.3c0-1.2,0.9-2.2,2.1-2.4c1-0.1,1.8,0.7,1.8,1.6
	C605.4,252.9,605.4,253,605.4,253.1L605.4,253.1z M295.4,218.7c-0.2,1.5-1.5,2.6-3.1,2.5c-0.1,0-0.1,0-0.2,0
	c-0.4-0.1-0.7-0.4-0.9-0.8c-0.2-1.4,0.5-2.8,1.8-3.4c0.9-0.3,1.9,0.2,2.2,1.1C295.4,218.2,295.5,218.5,295.4,218.7L295.4,218.7z
	 M291.7,212.2c0-1.4,0.9-2.6,2.3-2.9c0.4,0,0.8,0.2,1.2,0.4c0.7,0.5,0.8,1.4,0.4,2.1c0,0.1-0.1,0.1-0.2,0.2c-0.9,1.3-2.1,2-2.8,1.5
	C292.2,213.1,291.9,212.7,291.7,212.2L291.7,212.2z M294.1,224.2c0.6,1,0.6,2.2,0,3.2c-0.4,0.6-0.9,1-1.6,1.1
	c-0.6,0-1.2-0.2-1.6-0.7c-0.2-0.7-0.1-1.4,0.3-1.9C291.8,224.7,292.9,224.1,294.1,224.2L294.1,224.2z M294.1,234.7
	c-0.5,0.3-1,0.5-1.6,0.5c-0.6,0-1.2-0.3-1.6-0.8c-0.3-0.6-0.3-1.2-0.1-1.8c0.2-0.5,0.6-1,1.2-1.2c0.5-0.3,1.1-0.4,1.6-0.2
	c0.3,0.4,0.5,0.9,0.6,1.4c0,0.1,0,0.3,0,0.4L294.1,234.7L294.1,234.7z M296.4,178.1c0.7,0.3,1.3,0.8,1.8,1.2c0.6,0.7,0,1.3-0.5,1.9
	c-0.3,0.3-0.5,0.5-0.8,0.7c-0.7,0.5-1.5,1-2.3,0.3c-0.6-0.7-0.6-1.8,0-2.6C295,179,295.7,178.5,296.4,178.1L296.4,178.1z
	 M297.1,165.4c-0.4,0.5-1,0.9-1.6,1.2c-0.6,0.2-1.3,0.2-2,0.1c-0.3-0.3-0.4-0.7-0.4-1.1c0.1-1,0.8-1.9,1.8-2.3
	C295.8,162.9,297.2,164,297.1,165.4L297.1,165.4z M297.4,172.5c0,1.3-1.1,2.4-2.5,2.4c0,0-0.1,0-0.1,0c-0.7,0-1.2-0.6-1.2-1.3
	c0-0.2,0-0.3,0.1-0.4c0.3-0.7,0.9-1.3,1.5-1.8C296.3,170.5,297.3,171.1,297.4,172.5L297.4,172.5z M293.6,189.1
	c-0.4-0.3-0.7-0.7-0.9-1.2c-0.2-0.9,1.4-2.3,2.5-2.3c0.7,0.1,1.3,0.7,1.3,1.5c0,0,0,0,0,0C296.4,187.9,294.9,189.1,293.6,189.1
	L293.6,189.1z M487.2,378.2c0,1.7-2.6,3.2-3.7,2.5c-0.1,0-0.1-0.1-0.2-0.1c-0.6-0.6-0.6-1.5-0.2-2.2c0.6-1,1.9-1.9,2.6-1.5
	C486.3,377.2,486.8,377.7,487.2,378.2L487.2,378.2z M484.7,389.7c-0.6-0.8-1-1.4-1.4-2.1c-0.5-0.7-0.3-1.6,0.4-2.2
	c0.6-0.5,1.4-0.7,2.1-0.7c1.1,0.1,1.5,1.5,0.8,2.6C486,388.2,485.3,389,484.7,389.7L484.7,389.7z M127.9,274.4
	c-0.7,1.5-2.3,2.5-4,2.4c-1.5,0-2.2-1.1-1.5-2.5c0.5-1.1,1.6-1.7,2.8-1.8C126.4,272.6,127.5,273.3,127.9,274.4L127.9,274.4z
	 M134.7,271.2c1.2,0,2.2,0.8,2.5,2c0.1,0.9-1.6,2.3-2.8,2.3c-1.5,0-2.6-0.8-2.5-2.1C132.1,272.1,133.3,271.1,134.7,271.2z
	 M144.7,274.1c-0.7-0.3-1.4-0.8-1.9-1.4c-0.3-0.8,0-1.8,0.7-2.3c1.4-1.3,3-1.1,3.8,0.3c0.6,1.2,0.5,1.8-0.7,2.5
	C146.1,273.5,145.5,273.7,144.7,274.1L144.7,274.1z M177.6,345.8c-0.5-0.3-1-0.6-1.4-1c-0.7-0.9-0.2-1.8,0.4-2.6s1.5-1.9,2.7-1.3
	c0.8,0.6,1.5,1.3,2,2.1c0.1,0.3,0,0.7-0.2,1C180.3,345.2,179,345.8,177.6,345.8L177.6,345.8z M177.2,356.9c-1.1,0-2-0.6-2.4-1.6
	c-0.4-1.1,0.3-1.8,1.1-2.3c0.1-0.1,0.2-0.2,0.4-0.2c0.8-0.4,1.5-1.2,2.5-0.4c0.7,0.8,1,1.9,0.7,3C179.2,356.4,178.2,357,177.2,356.9
	L177.2,356.9z M182.1,332c-0.1,1.6-1.3,2.8-2.9,2.9c-1.1-0.1-1.9-1.1-1.7-2.2c0-0.2,0.1-0.3,0.1-0.5c0.5-0.9,1.2-1.6,2-2.1
	C180.7,329.4,182,330.5,182.1,332L182.1,332z M175.9,323.8c-0.1-1.6,0.8-3,2.2-3.6c0.9-0.5,2-0.3,2.6,0.6c0.1,0.1,0.1,0.2,0.1,0.3
	c0.4,0.8,0.1,1.7-1,2.2S177.4,324.6,175.9,323.8L175.9,323.8z M176.5,368.3c-1.3,0-2-0.5-2-1.7c0.1-1.3,1.1-2.3,2.3-2.5
	c1.2-0.1,1.9,0.7,1.9,2.1c0.1,1.1-0.8,2-1.9,2.1C176.7,368.3,176.6,368.3,176.5,368.3L176.5,368.3z M179.5,312.3
	c0,1.4-0.2,2.1-1.2,2.4c-1.2,0.4-2.5,0.1-2.9-0.7c-0.2-0.5-0.2-1,0-1.4c0.2-0.5,0.5-0.9,0.9-1.1c0.7-0.4,1.7-1,2.3-0.8
	S179.4,312,179.5,312.3L179.5,312.3z M374.4,250.3c-0.2,1.6-1.1,3.1-2.3,4.2c-0.9,0.7-2.1,0.8-3.1,0.2c-0.9-0.5-1.4-1.5-1.2-2.6
	c0.1-1.8,1.1-3.5,2.7-4.4C372.3,246.7,374.4,248.1,374.4,250.3L374.4,250.3z M399.9,330.7c2,0.1,3,1,3,2.4c-0.1,2.4-1.3,3.8-3.1,3.6
	c-2-0.2-3.7-1.7-3.7-3.4S397.9,330.5,399.9,330.7L399.9,330.7z M382.1,305.1c0.1,1.5-0.9,2.8-2.4,2.9c-0.2,0-0.4,0-0.6,0
	c-1.7-0.1-3.1-1.5-3-3.3c0,0,0,0,0,0c0.1-1.4,0.8-2.7,2-3.5c0.6-0.5,1.4-0.5,2,0C381.3,302.2,382.1,303.6,382.1,305.1L382.1,305.1z
	 M366.9,271.4c-1.4,0.1-2.5-1-2.6-2.3c0-0.2,0-0.4,0-0.6c0.1-1.4,0.7-2.7,1.8-3.6c0.6-0.4,1.3-0.6,2-0.4c1.1,0.3,2.3,2.4,2.2,3.5
	c-0.2,1.5-1.3,2.8-2.8,3.3C367.3,271.3,367.1,271.3,366.9,271.4L366.9,271.4z M377,292.5c0,0.5-0.1,1-0.2,1.5
	c-0.4,1.4-1.9,2.3-3.3,1.9c-0.4-0.1-0.8-0.3-1.1-0.6c-1-1.1-1.4-2.7-0.9-4.2c0.9-1.2,2.4-1.9,3.9-1.8
	C376.4,289.4,377,290.5,377,292.5L377,292.5z M372.5,238.7c-1,0.1-1.9-0.5-2-1.5c0-0.3,0-0.7,0.1-1c0.6-1.7,1.8-3,3.4-3.9
	c1-0.6,2.7,0.9,2.7,2.3c0,2.2-1.8,4-4,4C372.6,238.7,372.5,238.7,372.5,238.7L372.5,238.7z M410.3,342c0.1,1.1-0.5,2.2-1.5,2.7
	c-1.3,0.4-2.7,0.1-3.6-0.8c-0.9-0.7-1.3-1.8-1-2.9c0.1-0.4,0.2-0.7,0.5-1c1.1-1.3,2.6-0.8,3.9-0.4
	C409.6,339.7,410.4,340.8,410.3,342L410.3,342z M370.5,276.6c0.6,0.7,1.1,1.5,1.5,2.4c0.4,0.7,0.5,1.5,0.5,2.3
	c0.1,1.1-0.5,2.1-1.5,2.5c-0.9,0.5-2.1,0.3-2.8-0.5c-0.9-0.9-1.3-2-0.7-3.2C368.2,278.6,369.2,277.4,370.5,276.6L370.5,276.6z
	 M547.5,316c1.4,0.2,2.4,1.4,2.5,2.8c0.1,1.3-1.7,3.1-3.1,3.1c-1.2,0-3.1-2.2-3.1-3.5S545.6,316,547.5,316L547.5,316z M394.5,326.4
	c0,1.7-0.8,2.6-2.2,2.6c-1.8,0.1-3.3-1.2-3.4-2.9c0-0.2,0-0.3,0-0.5c0-1.2,1.9-2.8,3.2-2.7C393.3,323,394.6,324.8,394.5,326.4
	L394.5,326.4z M425.5,357.4c-1.8-0.1-2.8-0.9-2.9-2.5c-0.1-1,0.4-2,1.3-2.5c1.4-0.4,2.9-0.1,4.1,0.7c0.8,0.7,1,1.8,0.6,2.8
	C428,357.1,426.8,357.4,425.5,357.4L425.5,357.4z M544,330.5c-2.2-0.1-3-0.8-2.9-2.3c0.1-1.7,1.5-3.1,3.2-3.2
	c1.5,0.2,2.6,1.4,2.7,2.8c0,1.5-1.1,2.7-2.6,2.7C544.3,330.5,544.1,330.5,544,330.5L544,330.5z M416.5,350.8c-1.8,0-3.1-1-3.1-2.3
	c0.2-1.6,1.6-2.8,3.2-2.9c1.5-0.1,2.8,1.1,2.9,2.6v0.2C419.4,350,418.3,350.8,416.5,350.8L416.5,350.8z M558,282.2c0,1.6-1,3-2.2,3
	c-1.5-0.2-2.7-1.4-2.8-2.9c0-1.4,1.4-3.3,2.6-3.4C556.5,278.9,557.9,280.8,558,282.2z M382.4,215.7c-1.5,0-2.1-0.6-2.1-1.8
	c0-1.5,1.6-3.4,2.8-3.4c1.5,0,2.8,1.2,2.8,2.7C386,214.4,384.1,215.7,382.4,215.7L382.4,215.7z M526.1,345.3c1.5,0,2.5,1,2.5,2.9
	c0.1,1.3-0.8,2.4-2.1,2.6c-1.2,0-3.2-1.8-3.2-3.1S524.6,345.3,526.1,345.3L526.1,345.3z M478,367c0.1,1.2-0.8,2.3-2,2.4
	c-0.1,0-0.1,0-0.2,0c-1.5-0.2-2.8-1.3-3.1-2.8c0-1.2,1.6-2.6,3-2.5C477,364.1,478,365.4,478,367z M494.6,361.7c1.2,0,2.2,1,2.2,2.2
	c0,0,0,0,0,0c-0.1,1.5-1.2,2.8-2.7,3c-1.4,0-2.6-1.1-2.7-2.6C491.4,362.9,492.8,361.8,494.6,361.7L494.6,361.7z M552.6,307.8
	c-1.2,0.1-2.2-0.8-2.2-2c0,0,0-0.1,0-0.1c0-1.5,1.2-2.8,2.7-2.9c1.2,0,2.7,1.4,2.7,2.4C555.6,306.7,554.2,307.9,552.6,307.8
	C552.6,307.8,552.6,307.8,552.6,307.8L552.6,307.8z M536.3,340.9c0,1.3-1.2,2.8-2.2,2.9s-2.8-1.9-2.7-3.2c0-1.3,1-2.3,2.3-2.4
	C535.1,338.3,536.2,339.4,536.3,340.9z M542.7,334.5c-0.1,1.3-1.2,2.4-2.6,2.5c-1.2,0-2.7-1.8-2.6-3c0-1.1,1-2,2.1-2
	C541.2,332,542.7,333.3,542.7,334.5L542.7,334.5z M517.5,351c1.6,0.3,2.9,1.6,3,3.3c-0.2,1.2-1.2,2-2.4,2.1
	c-0.8-0.1-2.7-2.2-2.7-3.1C515.4,352.1,516.3,351.1,517.5,351L517.5,351z M488.1,366c0.1,1.4-0.9,2.6-2.3,2.8c-0.1,0-0.2,0-0.3,0
	c-1.3,0-2.9-1.4-2.8-2.5s2.2-2.4,3.8-2.3C487.4,364,488.2,365,488.1,366L488.1,366z M447.2,366.4c-1.8-0.1-3.1-0.4-3.7-1.8
	c-0.4-0.7-0.2-1.6,0.5-2c0.2-0.1,0.3-0.2,0.5-0.2c1.3-0.5,3.9,0.2,4.5,1.4c0.2,0.6,0.2,1.2-0.1,1.7
	C448.4,365.9,447.8,366.2,447.2,366.4L447.2,366.4z M502.6,364.4c-1.4,0-2.2-1-2.2-2.7c-0.1-1.1,0.8-2.1,1.9-2.2c0.1,0,0.2,0,0.2,0
	c1.2,0,3,1.5,3,2.5S504,364.4,502.6,364.4L502.6,364.4z M374.4,224.3c0.2-1.8,1.8-3.1,3.6-2.9c0.2,0,0.5,0.1,0.7,0.1
	c0.7,0.2,1.1,0.8,0.9,1.5c0,0.1,0,0.2-0.1,0.2c-0.5,1.6-1.8,2.4-3.2,3.1C375.3,226.8,374.3,225.6,374.4,224.3L374.4,224.3z
	 M433.5,174c1.7,0,2.7,0.8,2.6,2.2c0,1.4-1.1,2.5-2.4,2.6c-1.3,0-2.4-1-2.5-2.2c-0.2-1.2,0.7-2.3,1.9-2.5
	C433.2,174,433.3,174,433.5,174L433.5,174z M407.7,186.6c0-1.3,1.1-2.3,2.4-2.4c1.4,0.2,2.4,1.3,2.4,2.6c-0.1,1.3-1.2,2.3-2.5,2.2
	C408.7,189,407.8,187.9,407.7,186.6L407.7,186.6z M391.3,200.9c1.1,0.2,2,1.2,2.2,2.3c-0.3,1.3-1.4,2.3-2.7,2.4
	c-1.2-0.2-2.1-1.2-2-2.5C388.9,201.9,390,200.9,391.3,200.9L391.3,200.9z M665.7,321.8c3.7-0.1,5.1,2.6,5.3,5.4
	c0.2,2.6-2.1,4.5-4.8,4.6c-2.3,0.1-5.2-2.7-5.2-5C661,324.2,663.1,322,665.7,321.8z M666.9,328.2c0-1.9-0.1-2.1-2-2.5
	C664.5,327.5,665,328.2,666.9,328.2L666.9,328.2z M660.4,303.5c-0.1-2.3,1.7-4.2,4-4.2c0,0,0,0,0,0c3,0,6,2.2,5.9,4.6
	c-0.1,2.8-2.1,4.7-5.7,4.8C662.2,308.7,660.3,306.3,660.4,303.5L660.4,303.5z M665.4,303c-1.1,0.4-1.3,1-0.9,1.6
	c0.2,0.5,0.8,0.7,1.3,0.5c0.1-0.1,0.3-0.2,0.4-0.3L665.4,303z M658.7,279.1c0.2-2.3,1.4-3.6,3.6-3.7c2.4-0.1,4.5,0.7,5.5,3.1
	c0.4,0.9,0.5,1.9,0.2,2.9c-0.7,1.3-1.6,2.4-2.8,3.2c-2,1.3-4.4,0.3-5.5-2.1C659.2,281.3,658.9,280.2,658.7,279.1L658.7,279.1z
	 M664,281.6c0.2-0.4,0.3-0.9,0.2-1.3c-0.3-0.5-0.7-1-1.2-1.4c-0.3,0-0.6,0.2-0.8,0.5c-0.4,0.7-0.2,1.5,0.5,1.9
	C663.1,281.4,663.5,281.5,664,281.6L664,281.6z M661.7,250.7c-2.6,0.3-4.7,2.5-4.8,5.1c0.1,2.3,2,4.2,4.4,4.1c3-0.1,4.9-2,4.8-4.9
	C665.9,252.7,664,250.8,661.7,250.7L661.7,250.7z M661.2,256c0,0-0.1,0-0.1,0l0.1,0.4l-0.7,0.2c-0.8-0.4-1.2-1,0-2.1l0.1,0.4
	c0.1-0.1,0.3-0.2,0.5-0.2c0.4,0,0.6,0.4,0.6,0.7C661.7,255.7,661.5,256,661.2,256L661.2,256z M662.7,272.9c-1.8,0.3-3.5-0.9-4-2.7
	c-0.3-0.9-0.6-1.8-0.6-2.7c-0.1-1.2-0.5-2.5,1-3.3c1.7-0.9,3.5-1.3,5.1,0c1.2,1,2.1,2.2,2.6,3.6
	C667.8,270.2,665.4,272.9,662.7,272.9L662.7,272.9z M662.5,266.9c-0.5,0.7-1.1,1.1-1,1.4c0.3,0.5,0.6,1,1,1.4
	c0.4-0.2,0.7-0.5,0.9-0.9C663.2,268.1,662.9,267.5,662.5,266.9z M665.2,319.5c-2.2,0.2-4.1-1.5-4.3-3.7c0-0.2,0-0.5,0-0.7
	c0-2.4,2.6-4.7,5.2-4.6c1.9,0,4.1,2.7,4.2,4.9C670.3,318,668.5,319.5,665.2,319.5L665.2,319.5z M666.8,315.1
	c-0.4-0.4-0.9-0.7-1.5-0.9c-0.3,0.2-0.6,0.6-0.8,0.9c0.4,0.3,0.8,0.6,1.2,0.9C666.2,315.7,666.5,315.4,666.8,315.1L666.8,315.1z
	 M655.7,222c0.2,1.4-0.4,2.7-1.5,3.5c-1.6,1.1-3.9,0.7-5-1c0,0,0,0,0,0c-1.1-1.7-1.6-3.8-1.5-5.8c0-1.4,1-2.5,2.4-2.6
	c0.1,0,0.3,0,0.4,0C653.9,216.2,655.8,218.3,655.7,222L655.7,222z M652,222.7c0.3-0.5,0.6-1,0.8-1.6c0.1-0.6-0.3-1.3-0.9-1.4
	c-0.1,0-0.2,0-0.3,0c-0.4,0.2-0.7,0.5-0.8,0.9C651.2,221.3,651.5,222,652,222.7L652,222.7z M663.3,350.1c0.2-1,0.6-2.1,1-3.1
	c0.7-1.6,2.5-2.3,4.1-1.7c0.2,0.1,0.3,0.2,0.5,0.3c1.8,0.9,3,2.7,3,4.8c0,1.9-1.2,3-2.7,3.9C666.4,355.7,663.3,352.6,663.3,350.1
	L663.3,350.1z M666.6,350.1l2.1,0.9C668,349,667.9,349,666.6,350.1L666.6,350.1z M667.3,332.8c2.2,0,4.1,1.8,4,3.7
	c-0.1,2.7-2.3,5.1-4.7,5c-2.3-0.2-4.1-2.2-4.1-4.5C662.5,334.4,664.3,332.8,667.3,332.8L667.3,332.8z M668,337.5
	c0-0.2-0.1-0.4-0.2-0.6c-0.5-0.2-1-0.3-1.5-0.4c-0.1,0.2-0.3,0.4-0.3,0.7c0.5,0.2,1,0.4,1.5,0.5C667.7,337.7,667.8,337.7,668,337.5
	L668,337.5z M661.1,243.6c-0.2,0.7-0.3,1.4-0.5,2c-1,2.8-3.5,3.5-5.6,1.3c-1.6-1.7-2.8-3.7-2.1-6.3c0.3-1.2,1.2-2.1,2.4-2.3
	C657.6,237.8,661.2,240.9,661.1,243.6L661.1,243.6z M655.9,241.8c-0.3,2-0.3,2,1.4,2.8C658.4,242.8,658.1,242.3,655.9,241.8
	L655.9,241.8z M647.2,206c2.5,0.3,4.4,2.5,4.1,5.1c0,0.3-0.1,0.5-0.1,0.7c-0.8,2.1-2.9,3.4-5.1,3.4c-0.9,0-1.7-0.6-2-1.4
	c-0.7-1.5-0.9-3.2-0.6-4.9C643.8,207.1,645.5,205.9,647.2,206L647.2,206z M649,210.4l-1.5-1.2c-0.4,0.4-0.7,0.8-0.9,1.2
	c0.1,0.4,0.3,0.8,0.7,1.1L649,210.4L649,210.4z M654.4,227.4l1.8,0.4c1.7,0.4,2.3,1.6,2.6,3.1c0.4,1.4-0.1,2.8-1.4,3.6
	c-0.9,0.8-2.2,1.3-3.4,1.3c-2.7-0.3-4.4-5.1-3.4-6.8C651.4,227.6,652.7,227.3,654.4,227.4L654.4,227.4z M655.4,230.9
	c-0.8-0.3-1.5-0.7-1.9,0.3c0,0.3,0.1,0.7,0.3,0.9C654.7,232.4,655.2,231.9,655.4,230.9L655.4,230.9z M665,296.6
	c-2.2,0-3.4-1.8-3.5-4.8c0-1.6,1.8-3.6,4.2-3.6c1.8,0,4.1,2.7,4.1,4.7S667.8,296.7,665,296.6L665,296.6z M665.7,292.8
	c-0.3-0.2-0.5-0.4-0.8-0.6c-0.1,0.1-0.3,0.3-0.3,0.4c0.2,0.3,0.4,0.5,0.7,0.7C665.3,293.1,665.5,293,665.7,292.8L665.7,292.8z
	 M643.7,196c-2,0.1-3.6,1.8-3.5,3.8c0,0.1,0,0.1,0,0.2c0,2.4,1.1,3.7,3,3.7s4.4-2.4,4.5-4.1S645.6,196,643.7,196L643.7,196z
	 M643.9,200.4c-0.4,0-0.6-0.4-0.6-0.7c0-0.3,0.3-0.5,0.6-0.6c0.4,0.1,0.6,0.4,0.5,0.8C644.4,200.2,644.1,200.4,643.9,200.4
	L643.9,200.4z M286,244.2c3.7,0,7.4,0.5,11,1.6c1.9,0.6,3.8,1.1,5.6,1.8c0.5,0.1,0.9,0.4,1.3,0.7c2.7,2.4,5.1,5,7.1,8
	c0.9,1.8,1.7,3.7,2.3,5.6c0.7,1.9,1,3.9,0.8,6c-0.2,2,0,4,0,6.1c0,7.2-3.7,12.7-8.7,17.5c-4.7,4.4-10.5,6.6-16.7,8.1
	c-3.9,0.9-8,0.9-11.9,0c-4.6-0.9-9-3-12.7-5.9c-1.1-1.1-2.1-2.4-2.9-3.8c-2.1-3-2.8-6.5-3.2-10c-0.5-4.1,0-8.3,1.4-12.2
	c1-3,2-5.9,3-8.9c0.6-1.8,1.7-3.4,3.2-4.6c1.7-1.5,3.3-3.1,5-4.5c3.5-3.1,8-5,12.7-5.2L286,244.2L286,244.2z M310.4,270.1
	c0.7-3.4-0.4-7.1-1.9-10.7c-1.3-3.4-3.8-6.2-7.1-7.9c-2.5-1.4-5.2-2.3-8-2.9c-2.8-0.4-5.8-0.8-8.6-1.1c-4.3-0.5-8.5,0.9-11.6,3.9
	c-1.4,1.2-2.8,2.5-4.1,3.9c-1.1,1.3-2,2.6-2.8,4.1c-0.9,1.8-1.6,3.7-2.2,5.7c-1.6,4.9-3,9.9-2.1,15.2c0.5,3,0.8,6,2.8,8.5
	c1.7,2.2,4,3.4,6.4,4.7c4.5,2.5,9.4,2.7,14.2,2.1c5.9-0.9,11.4-3,16.4-6.3c2.7-1.7,4.9-4.1,6.4-7C310,278.5,310.8,274.3,310.4,270.1
	L310.4,270.1z M543.6,208.5c0-2,0.9-2.8,2.6-2.7c4.7,0.4,4.4,1.4,2.5,4.6c-0.5,0.9-1.1,1.7-2.3,1.6c-1.1-0.1-2.1-0.9-2.3-2
	C543.9,209.5,543.7,208.8,543.6,208.5L543.6,208.5z M535.2,183.2c0.4,0.9,0.8,1.7,1.1,2.6c0.5,1.3,0.4,1.8-0.7,2.6
	c-0.3,0.3-0.7,0.5-1.1,0.7c-0.8,0.5-1.7,0.9-2.6,0.3c-0.8-0.8-1-2-0.6-3c0.5-0.9,1.2-1.6,2-2.2c0.6-0.4,1.3-0.7,2-0.9L535.2,183.2
	L535.2,183.2z M528.7,179.2c-0.2,1.2-1,2.2-2.2,2.6c-1,0.3-2.1-0.1-2.6-1c-0.9-1.2-1-2.4-0.3-3.1c0.4-0.5,1-0.8,1.6-0.8
	c1.1,0.5,2.2,1,3.2,1.7C528.6,178.7,528.7,178.9,528.7,179.2L528.7,179.2z M554.1,227.2c0,1.8-0.6,2.6-1.7,2.8
	c-1.1,0.1-2-0.5-2.4-1.5c-0.5-1.1-0.5-2.3,0.1-3.4c0.7-0.9,2-1.1,2.9-0.5c0.3,0.2,0.5,0.5,0.7,0.8C553.9,226,554,226.6,554.1,227.2z
	"/>
<path fill="none" stroke="#FFC107" stroke-miterlimit="10" d="M666.9,328.2c-1.9,0-2.4-0.7-2-2.5
	C666.8,326.1,666.9,326.3,666.9,328.2z M665.3,302.9l0.8,1.8c-0.3,0.4-0.9,0.5-1.4,0.2c-0.1-0.1-0.2-0.2-0.3-0.4
	C664,303.9,664.3,303.3,665.3,302.9L665.3,302.9z M664,281.6c-0.4,0-0.9-0.1-1.3-0.3c-0.6-0.4-0.8-1.3-0.5-1.9
	c0.2-0.3,0.5-0.4,0.8-0.5c0.5,0.4,0.9,0.9,1.2,1.4C664.3,280.7,664.2,281.1,664,281.6L664,281.6z M660.8,254.9l-0.1-0.4
	c-1.2,1.1-0.8,1.7,0,2.1l0.7-0.2l-0.1-0.4c-0.4-0.1-0.6-0.4-0.5-0.8C660.7,255.1,660.7,255,660.8,254.9L660.8,254.9z M662.6,266.9
	c0.4,0.6,0.7,1.2,0.9,1.8c-0.2,0.4-0.5,0.7-0.9,0.9c-0.4-0.4-0.7-0.9-1-1.4C661.8,267.7,662.2,267.3,662.6,266.9L662.6,266.9z
	 M666.8,315.1c-0.3,0.4-0.7,0.7-1.1,0.9c-0.5-0.2-0.9-0.5-1.2-0.9c0.2-0.4,0.5-0.7,0.8-0.9C665.9,314.4,666.4,314.7,666.8,315.1
	L666.8,315.1z M652,222.7c-0.5-0.7-0.9-1.4-1.2-2.1c0.1-0.4,0.4-0.8,0.8-0.9c0.7,0,1.2,0.5,1.2,1.1c0,0.1,0,0.2,0,0.3
	C652.6,221.6,652.3,222.2,652,222.7z M666.5,350.1c1.4-1.2,1.4-1.2,2.1,0.9L666.5,350.1z M668,337.5c-0.2,0.1-0.4,0.2-0.6,0.3
	c-0.5-0.1-1-0.3-1.5-0.5c0.1-0.3,0.2-0.5,0.3-0.7c0.5,0.1,1,0.2,1.5,0.4C667.9,337.1,668,337.3,668,337.5L668,337.5z M655.8,241.8
	c2.2,0.5,2.5,1,1.4,2.8C655.6,243.8,655.6,243.8,655.8,241.8L655.8,241.8z M649,210.4l-1.8,1.2c-0.3-0.3-0.5-0.7-0.7-1.1
	c0.2-0.5,0.5-0.9,0.9-1.2L649,210.4L649,210.4z M655.5,230.9c-0.3,1-0.7,1.5-1.5,1.1c-0.3-0.2-0.4-0.5-0.3-0.9
	C654,230.3,654.7,230.6,655.5,230.9L655.5,230.9z M665.7,292.8c-0.2,0.2-0.3,0.3-0.5,0.5c-0.3-0.2-0.5-0.4-0.7-0.7
	c0.1-0.2,0.2-0.3,0.3-0.4C665.2,292.4,665.4,292.6,665.7,292.8L665.7,292.8z M310.4,270.1c0.5,4.2-0.3,8.5-2.2,12.2
	c-1.5,2.9-3.7,5.3-6.4,7c-4.9,3.3-10.5,5.5-16.4,6.3c-4.8,0.7-9.6,0.4-14.2-2.1c-2.4-1.3-4.7-2.5-6.4-4.7c-2-2.5-2.3-5.5-2.8-8.5
	c-0.9-5.3,0.5-10.3,2.1-15.2c0.6-1.9,1.4-3.8,2.2-5.7c0.7-1.5,1.7-2.9,2.8-4.1c1.3-1.4,2.6-2.7,4.1-3.9c3.1-3,7.4-4.4,11.6-3.9
	c2.9,0.3,5.8,0.7,8.6,1.1c2.8,0.5,5.5,1.5,8,2.9c3.2,1.7,5.8,4.5,7.1,7.9C310,262.9,311.1,266.7,310.4,270.1L310.4,270.1z"/>
</svg>
