<svg id="Layer_1" data-name="Layer 1" xmlns="http://www.w3.org/2000/svg" viewBox="0 0 746.6 472.8"><defs><style>.cls-1,.cls-3{fill:none;}.cls-2{fill:#ffc107;}.cls-2,.cls-3{stroke:#ffc107;stroke-miterlimit:10;}</style></defs><title>submarine2</title><path class="cls-1" d="M0,0V472.8H746.6V0H0ZM730.65,262.58c-1,3.17-2.08,6.34-3.08,9.53-0.48,1.6-.81,3.24-2,4.55a6,6,0,0,0-1,1.95,45.28,45.28,0,0,1-4.33,8.29c-1.73,2.58-3.06,5.45-4.57,8.18s-2.78,5.27-4.35,7.79c-3.19,5.12-6.6,10.1-9.8,15.22-1.92,3.11-3.67,6.3-5.31,9.53-1.75,3.48-4.33,6.36-6.52,9.53-2.08,3-3.94,6.12-6,9.12-1.62,2.34-3.3,4.61-5.05,6.84q-5.84,7.51-11.77,14.89c-1.88,2.32-3.85,4.55-5.84,6.78a56.52,56.52,0,0,0-7.37,11,30.61,30.61,0,0,1-9.27,10c-5.9,4.33-12.81,4.88-19.68,5.49-5.14.46-10.32,0.46-15.48,0.59-3.56.09-7.13-.07-10.67,0.07-5,.17-10,0.52-15,0.74-3.41.15-6.82,0.13-10.23,0.26-1.38.07-2.73,0.31-4.11,0.42-3.39.26-6.8,0.46-10.21,0.77-2.6.22-5.2,0.74-7.81,0.83-6.63.24-13.25,0.31-19.88,0.5-5.47.17-10.91,0.48-16.38,0.66-2.32.09-4.64,0-7,0-1.38,0-2.73.15-4.11,0.15-4.66,0-9.32-.07-14,0-5.25,0-10.43.9-15.64,1.51-3.7.44-7.39,0.68-11.09,1-0.81.09-1.6,0.28-2.38,0.33a32,32,0,0,1-4.57.11c-3.76-.33-7.5-0.94-11.28-1.14-3-.15-6.1.09-9.16,0.2-4.07.13-8.14,0.26-12.2,0.48-2.6.15-5.2,0.55-7.83,0.63-7.85.31-15.7,0.74-23.55,0a44.63,44.63,0,0,0-8.7-.26c-3.89.39-7.81,0.33-11.7,0.55-3.7.2-7.44-.09-11.11,0.24-10.19.92-20.38,0.59-30.57,0.85-3.94.09-7.85,0.5-11.79,0.66-3.35.11-6.69,0-10,.11-2.25,0-4.5.2-6.76,0.31-4.51.2-9,.39-13.51,0.63-6.84.37-13.69,0.57-20.49,1.25s-13.34-.28-19.9-1.55a21.26,21.26,0,0,1-3.5-1.18q-5.87-2.3-11.74-4.64c-2.89-1.16-5.8-2.3-8.66-3.54-2-.85-4-1.82-5.86-2.86-6-3.32-11.92-6.71-17.87-10.08l-0.74-.46c-2.3-1.36-4.55-2.8-6.89-4.09-5.29-2.93-10.67-5.66-15.88-8.73-3.37-2-6.49-4.37-9.73-6.6-3-2.1-6.1-4.18-9.14-6.3s-6.32-4.4-9.4-6.71-5.95-4.66-8.92-7c-4.31-3.41-8.59-6.91-13-10.26-3.06-2.34-6.3-4.46-9-7.26a7.16,7.16,0,0,0-1-.77c-1.71.9-2.23,2.56-3,4a60.88,60.88,0,0,1-4.83,9.14,50.63,50.63,0,0,0-2.43,4.57,29.77,29.77,0,0,1-2.49,4.48c-2.71,3.48-4.57,7.41-6.74,11.2-1.57,2.78-3.46,5.38-5.18,8.07-0.79,1.22-1.53,2.47-2.27,3.72s-1.22,2.32-2,3.39c-4,5.88-8.14,11.72-12.18,17.58-3.21,4.68-6.32,9.43-9.64,14A52,52,0,0,1,60.9,417c-1.4,1.49-2.73,3-4.22,4.42a55.8,55.8,0,0,1-6.08,5.29,69.27,69.27,0,0,1-9.49,5.8,21.22,21.22,0,0,1-12.73,2,8.32,8.32,0,0,1-4.85-2.65,33.66,33.66,0,0,1-6.67-9.12,37.71,37.71,0,0,1-2.23-5.42,16.83,16.83,0,0,1,.55-9.69c1.07-3.48,2.38-6.87,3.72-10.26,1.86-4.72,3.56-9.53,6.67-13.69,1.2-1.62,1.92-3.61,3.15-5.23,2.19-2.89,4.61-5.62,6.91-8.44s4.5-5.71,6.84-8.49c2.86-3.39,5.84-6.69,8.73-10.06a80,80,0,0,0,8.09-10.28c0.74-1.22,2-2.12,2.8-3.32,3.24-4.77,7.15-9,10.63-13.58s7.76-8.07,11.59-12.16,7.94-8.29,11.92-12.44c3.48-3.63,6.56-7.61,10.56-10.72,1.31-1,2.65-2,4-3.08,0.66-.55,1.25-1.16,2.14-2a7.9,7.9,0,0,0-1.75-.44c-3.7.15-7.41,0.37-11.11,0.55-1.95.09-3.91,0.09-5.86,0.13-1.47,0-2.91,0-4.35.13-3.39.35-6.76,0.94-10.17,1.22-5.64.46-11.31,0.81-17,1.16a8.36,8.36,0,0,0-1.23.15,136.07,136.07,0,0,1-1.62,16.95,6.1,6.1,0,0,1-.16.61,7.78,7.78,0,0,1,4.42,6.4c0.81,13.24-4.09,23.85-11,34.79-2,3.16-6.89,5.12-10.26,2.69-7.35-5.29-7.9-14.65-7.14-23.06-3.34-9.92-4.4-19.78-4.37-29.86a7.58,7.58,0,0,1-.21-2.55c0.06-.79.16-1.63,0.3-2.5,0.16-4.9.52-9.86,0.94-14.92a139.45,139.45,0,0,0-.43-29.84c-1.34-10.37-2.52-20.36-.55-30.73,0.86-4.51,7.25-7.15,11-4.48,7,4.93,11.85,12.49,15.75,20,4.16,7.94,7.92,16.88,8.34,26,0.29,6.29-2.06,10.8-5.55,14.75q0.16,1.65.28,3.3a6.3,6.3,0,0,1,.62,5.52c-0.11.31-.22,0.62-0.33,0.93,0,0.71,0,1.43,0,2.14a6.72,6.72,0,0,0,1.21,0l6.54-.39a7.8,7.8,0,0,1,1.75,0c5,0.81,9.84-.61,14.76-0.94,3.48-.24,7-0.68,10.43-0.9s6.84-.22,10.26-0.35a14.4,14.4,0,0,0,2.21-.5,27.54,27.54,0,0,0-2.51-2.84c-2.56-2.17-5.12-4.29-7.79-6.3-5.2-3.91-9.56-8.75-14.39-13.06-2.54-2.27-5-4.64-7.46-7a40.35,40.35,0,0,1-2.65-3.15c-0.2-.22-0.35-0.48-0.55-0.68a98.53,98.53,0,0,1-12.68-16c-1.2-1.82-2.56-3.52-3.72-5.36a40,40,0,0,1-2.47-4.57c-2.3-4.94-4.59-9.86-6.78-14.85-1-2.27-1.71-4.64-2.54-7-0.2-.55-0.35-1.09-0.57-1.64a33,33,0,0,1-2.34-12.79,62.74,62.74,0,0,1,1.27-10.82,81.15,81.15,0,0,1,2.12-8.46,25.05,25.05,0,0,1,4.13-7.61c1.82-2.51,4.26-4.09,6.69-5.8a6,6,0,0,1,5.38-.87,18.44,18.44,0,0,1,9,5.51c2.78,3.08,5.53,6.19,8.4,9.16a33.19,33.19,0,0,1,3.56,3.46c1.51,2.12,3.32,4,4.81,6.17,1.77,2.58,3.3,5.31,5,7.94,2.62,4,4.4,8.51,6.6,12.73,0.81,1.53,1.92,2.91,2.69,4.46,3.48,7.13,6.91,14.24,10.32,21.39,1,2.1,1.86,4.26,2.78,6.41,1.86,4.31,5.1,7.76,7.26,11.9,0.55,1.07,1.29,2.06,2,3.19a7.38,7.38,0,0,0,1.4-.92c3.28-3.41,6.58-6.8,9.8-10.28,4.13-4.5,8.11-9.14,12.31-13.6,3.08-3.28,6.34-6.41,9.62-9.51,3.63-3.46,7.35-6.84,11.07-10.21,1.14-1,2.47-1.82,3.61-2.82,3.59-3.19,7-6.54,10.72-9.62s7.68-6.28,11.74-9.08c6.52-4.53,13.19-8.83,19.88-13.1a97.71,97.71,0,0,1,9.36-5.18,22.86,22.86,0,0,1,5.58-1.84,138.49,138.49,0,0,1,15.53-2.32c5.36-.48,10.69-1.33,16-2a1.57,1.57,0,0,0,.63-0.13c4.16-2,8.7-2.16,13.14-2.58,8.18-.79,16.4-1.22,24.6-1.86,5.66-.44,11.31-0.94,17-1.47,2.38-.22,2.54-0.35,2.6-2.82,0.11-3.91,0-7.85.15-11.77,0.09-3.06.33-6.1,0.59-9.14,0.2-2.38.46-4.79,0.83-7.15a25,25,0,0,1,1.12-4,3,3,0,0,1,1.09-1.29c5.77-4.13,11.81-7.65,18.83-9.34,3.94-.94,7.72-2.47,11.61-3.67a36.71,36.71,0,0,1,5.49-1.4c4.75-.74,9.51-1.36,14.28-2,1.57-.22,1.79-0.44,1.86-2.06,0.26-7.15.55-14.28,0.74-21.41,0-1.53.33-3.28-1.68-4.07a1.21,1.21,0,0,1-.46-0.92,45.47,45.47,0,0,1-.09-4.57A3.26,3.26,0,0,1,375.79,58,44.39,44.39,0,0,1,387.16,56c2.54,0,5.05-.55,7.59-0.81a6.54,6.54,0,0,1,1.73,0c1.53,0.2,2.3.87,2.38,2.38a21.27,21.27,0,0,1-.15,4.57c-0.31,2.06-1.4,3-3.72,3.35s-2.43.44-2.6,2.84c-0.39,5.36-.79,10.74-1.09,16.1a26.53,26.53,0,0,0,.15,4.37c0.15,1.44.52,1.68,2,1.77,0.59,0,1.16,0,1.75,0,6.41-.33,12.79-0.68,19.2-1,3.91-.17,7.85-0.31,11.77-0.46,2-.09,2.34-0.5,2.23-2.56,0-1.29.09-2.6,0-3.91-0.07-2.32-.13-4.66-0.28-7-0.39-5.71.28-11.35,0.77-17,0.26-3,.39-5.95.63-8.92,0.37-4.48.77-9,1.16-13.47a8.19,8.19,0,0,1,2.19-4.66,24.29,24.29,0,0,1,7.19-5.6c2.91-1.53,5.84-3,8.75-4.5,3.91-2.06,8.22-2.84,12.51-3.63,4-.72,8.07-1.22,12.07-1.92,3.74-.66,7.44-1.47,11.15-2.12a22.9,22.9,0,0,1,4.57-.37,8.26,8.26,0,0,1,7.44,6.25A42.94,42.94,0,0,1,497.12,33c-0.26,2.58-2,4-4.55,4.53a65.14,65.14,0,0,0-6.84,2.14c-4.07,1.33-8.16,2.65-12.2,4.07-4.4,1.53-9.05,2.19-13.34,4.13-4.09,1.86-6.6,4.64-6.91,9.23a29,29,0,0,1-.68,4.09,45.15,45.15,0,0,0-.81,9.56c0.07,5.45,0,10.91.22,16.36,0.07,2.27.35,2.43,2.69,2.36s4.66-.31,7-0.39c6.84-.28,13.67-0.55,20.51-0.77,2.91-.09,5.82,0,8.73,0,7.63-.2,14.83,1.75,21.91,4.37,2.6,1,5.23,1.86,7.81,2.84s4.7,2.6,5.42,5.49c1.25,4.94,2.65,9.84,3,15,0.2,3,.61,5.93.79,8.9,0.09,1.51-.18,3-0.22,4.57-0.09,3.19-.13,6.41-0.2,9.6,0,1.42.33,1.77,1.75,1.82,8.38,0.2,16.73.42,25.11,0.63a1.47,1.47,0,0,0,.44,0c6.21-1,12.33.44,18.5,0.7a113.63,113.63,0,0,1,15.61,1.71c3.89,0.7,7.94,1.25,11.33,3.67a3.4,3.4,0,0,0,1.42.52,76.92,76.92,0,0,1,14.19,4.13,39.88,39.88,0,0,0,6.3,1.84,39.6,39.6,0,0,1,9.4,3.39c3,1.38,6,2.69,8.88,4.22a53.46,53.46,0,0,1,6.08,3.83c2.43,1.75,4.66,3.76,7.06,5.51,6.45,4.66,11.85,10.5,17.91,15.59,4.18,3.52,8.07,7.33,12.07,11,1,0.94,1.9,2,2.86,3,3.3,3.37,6.58,6.76,9.93,10.08,1.6,1.6,3.37,3,4.94,4.61,3.5,3.59,6.93,7.24,10.41,10.85,0.79,0.83,1.55,1.73,2.41,2.51a28.83,28.83,0,0,1,4.77,6.45c1.14,1.92,2.69,3.61,4,5.45a34.52,34.52,0,0,1,5.6,14.54,15.21,15.21,0,0,0,.63,3.21C731.62,259.86,731.11,261.2,730.65,262.58Z" transform="translate(0)"/><path class="cls-2" d="M212.1,252.52a34.19,34.19,0,0,0-6.58-8.73,57.4,57.4,0,0,0-7-2.69,32.47,32.47,0,0,0-4-.85c-2.36.17-4.7-.66-7-0.46a15.44,15.44,0,0,1-2.19,1.22c-2.17.87-4.37,1.62-6.56,2.45a24.77,24.77,0,0,0-11.17,8.77c-1.14,1.51-2.34,3-3.41,4.53a15.49,15.49,0,0,0-2.19,3.76c-1.18,3.32-2.67,6.56-2.71,10.26,0,2.3-.63,4.59-0.81,6.89-0.15,2-.55,4,0.42,6a1.61,1.61,0,0,1,.15.85c-0.42,2.58,1,4.46,2.45,6.28a27.3,27.3,0,0,0,2.67,3.37,16.6,16.6,0,0,0,7.3,4,28.85,28.85,0,0,0,17-.35c1.09-.37,2.27-0.46,3.39-0.77,4.88-1.38,8.79-4.4,12.62-7.52a36.45,36.45,0,0,0,10.23-14,22.58,22.58,0,0,0,1.75-9.16,15.08,15.08,0,0,1,.31-2.62,0.62,0.62,0,0,1-.17-0.31,25.88,25.88,0,0,0-2.14-5.73c-0.79-1.77-1.47-3.56-2.38-5.25h0Zm-1.84,23.84c-3.37,7.19-9.16,12.07-15.94,15.9a9,9,0,0,1-2.25.83c-4.46,1-8.73,2.86-13.78,3a23.38,23.38,0,0,1-7-1.57c-4.26-1.64-6.47-4.85-7.52-9.08a3,3,0,0,0-.17-0.63c-1.84-3.76-1.27-7.65-.55-11.52,0.46-2.43.92-4.85,1.44-7.26a24.71,24.71,0,0,1,6.91-12.16c0.81-.83,1.53-1.75,2.34-2.58a5.46,5.46,0,0,1,1.31-1.14A59.23,59.23,0,0,1,186.8,245a18.07,18.07,0,0,1,4.75-.55,24.37,24.37,0,0,1,13.23,3.78,10,10,0,0,1,3.11,3.3c2,3.3,4,6.63,4.42,10.58a25.85,25.85,0,0,1-2,14.21h0Zm342.81-36.89a2,2,0,0,0,3-.81,8.13,8.13,0,0,0,.46-0.85c-0.09-1-.26-2.08-0.26-3.13-0.26-.17-0.52-0.31-0.79-0.46-1.25-.63-1.77-0.5-2.69.5A3.6,3.6,0,0,0,553.08,239.46ZM628.66,165a13.73,13.73,0,0,0-2-2.71,3,3,0,0,0-3.54,2.45,13.4,13.4,0,0,1,1.25,1.68,10.25,10.25,0,0,1,.74,1.75,3.17,3.17,0,0,0,3.78-.35C628.75,166.88,628.79,165.9,628.66,165ZM626.38,166a0.66,0.66,0,0,1,0-1.31A0.66,0.66,0,0,1,626.38,166Z" transform="translate(0)"/><path class="cls-2" d="M731,258.4h0a15.2,15.2,0,0,1-.63-3.21,34.52,34.52,0,0,0-5.6-14.54c-1.29-1.84-2.84-3.52-4-5.45a28.82,28.82,0,0,0-4.77-6.45c-0.85-.79-1.62-1.68-2.41-2.51-3.48-3.61-6.91-7.26-10.41-10.85-1.57-1.6-3.35-3-4.94-4.61-3.35-3.32-6.63-6.71-9.93-10.08-1-1-1.84-2.08-2.86-3-4-3.72-7.89-7.52-12.07-11-6.06-5.1-11.46-10.93-17.91-15.59-2.41-1.75-4.64-3.76-7.06-5.51a53.44,53.44,0,0,0-6.08-3.83c-2.89-1.53-5.9-2.84-8.88-4.22a39.6,39.6,0,0,0-9.4-3.39,39.88,39.88,0,0,1-6.3-1.84,76.92,76.92,0,0,0-14.19-4.13,3.4,3.4,0,0,1-1.42-.52c-3.39-2.43-7.44-3-11.33-3.67a113.64,113.64,0,0,0-15.61-1.71c-6.17-.26-12.29-1.68-18.5-0.7a1.47,1.47,0,0,1-.44,0c-8.38-.22-16.73-0.44-25.11-0.63-1.42,0-1.79-.39-1.75-1.82,0.07-3.19.11-6.41,0.2-9.6,0-1.53.31-3.06,0.22-4.57-0.17-3-.59-5.93-0.79-8.9-0.35-5.12-1.75-10-3-15-0.72-2.89-2.78-4.5-5.42-5.49s-5.2-1.88-7.81-2.84c-7.09-2.62-14.28-4.57-21.91-4.37-2.91.07-5.82-.07-8.73,0-6.84.22-13.67,0.48-20.51,0.77-2.32.09-4.64,0.33-7,.39s-2.62-.09-2.69-2.36c-0.18-5.45-.15-10.91-0.22-16.36a45.15,45.15,0,0,1,.81-9.56,29,29,0,0,0,.68-4.09c0.31-4.59,2.82-7.37,6.91-9.23,4.29-1.95,8.94-2.6,13.34-4.13,4-1.42,8.14-2.73,12.2-4.07a65.12,65.12,0,0,1,6.84-2.14c2.54-.55,4.29-1.95,4.55-4.53a42.94,42.94,0,0,0-.55-13.27,8.26,8.26,0,0,0-7.44-6.25,22.89,22.89,0,0,0-4.57.37c-3.72.66-7.41,1.47-11.15,2.12-4,.7-8,1.2-12.07,1.92-4.29.79-8.59,1.57-12.51,3.63-2.91,1.53-5.84,3-8.75,4.5a24.28,24.28,0,0,0-7.19,5.6,8.19,8.19,0,0,0-2.19,4.66c-0.39,4.48-.79,9-1.16,13.47-0.24,3-.37,5.95-0.63,8.92-0.48,5.66-1.16,11.31-.77,17,0.15,2.32.22,4.66,0.28,7,0,1.31-.09,2.62,0,3.91,0.11,2.06-.22,2.47-2.23,2.56-3.91.15-7.85,0.28-11.77,0.46-6.41.31-12.79,0.66-19.2,1-0.59,0-1.16,0-1.75,0-1.47-.09-1.84-0.33-2-1.77a26.5,26.5,0,0,1-.15-4.37c0.31-5.36.7-10.74,1.09-16.1,0.18-2.41.18-2.41,2.6-2.84s3.41-1.29,3.72-3.35a21.29,21.29,0,0,0,.15-4.57c-0.09-1.51-.85-2.19-2.38-2.38a6.53,6.53,0,0,0-1.73,0c-2.54.26-5.05,0.77-7.59,0.81A44.39,44.39,0,0,0,375.81,58a3.26,3.26,0,0,0-2.58,3.15,45.54,45.54,0,0,0,.09,4.57,1.21,1.21,0,0,0,.46.92c2,0.79,1.71,2.54,1.68,4.07-0.2,7.13-.48,14.26-0.74,21.41-0.07,1.62-.28,1.84-1.86,2.06-4.77.63-9.53,1.25-14.28,2a36.73,36.73,0,0,0-5.49,1.4c-3.89,1.2-7.68,2.73-11.61,3.67-7,1.68-13.06,5.2-18.83,9.34a3,3,0,0,0-1.09,1.29,25,25,0,0,0-1.12,4c-0.37,2.36-.63,4.77-0.83,7.15-0.26,3-.5,6.08-0.59,9.14-0.13,3.91,0,7.85-.15,11.77-0.07,2.47-.22,2.6-2.6,2.82-5.66.52-11.31,1-17,1.47-8.2.63-16.42,1.07-24.6,1.86-4.44.42-9,.55-13.14,2.58a1.57,1.57,0,0,1-.63.13c-5.34.7-10.67,1.55-16,2a138.49,138.49,0,0,0-15.53,2.32,22.86,22.86,0,0,0-5.58,1.84,97.71,97.71,0,0,0-9.36,5.18c-6.69,4.26-13.36,8.57-19.88,13.1-4.07,2.8-7.94,5.9-11.74,9.08s-7.13,6.43-10.72,9.62c-1.14,1-2.47,1.82-3.61,2.82-3.72,3.37-7.44,6.76-11.07,10.21-3.28,3.11-6.54,6.23-9.62,9.51-4.2,4.46-8.18,9.1-12.31,13.6-3.21,3.48-6.52,6.87-9.8,10.28a7.38,7.38,0,0,1-1.4.92c-0.72-1.14-1.47-2.12-2-3.19-2.17-4.13-5.4-7.59-7.26-11.9-0.92-2.14-1.79-4.31-2.78-6.41-3.41-7.15-6.84-14.26-10.32-21.39-0.77-1.55-1.88-2.93-2.69-4.46-2.21-4.22-4-8.7-6.6-12.73-1.71-2.62-3.24-5.36-5-7.94-1.49-2.14-3.3-4-4.81-6.17a33.19,33.19,0,0,0-3.56-3.46c-2.86-3-5.62-6.08-8.4-9.16a18.45,18.45,0,0,0-9-5.51,6,6,0,0,0-5.38.87c-2.43,1.71-4.88,3.28-6.69,5.8a25.05,25.05,0,0,0-4.13,7.61,81.09,81.09,0,0,0-2.12,8.46,62.72,62.72,0,0,0-1.27,10.82,33,33,0,0,0,2.34,12.79c0.22,0.55.37,1.09,0.57,1.64,0.83,2.34,1.55,4.7,2.54,7,2.19,5,4.48,9.91,6.78,14.85a40,40,0,0,0,2.47,4.57c1.16,1.84,2.52,3.54,3.72,5.36a98.53,98.53,0,0,0,12.68,16c0.2,0.2.35,0.46,0.55,0.68a40.32,40.32,0,0,0,2.65,3.15c2.43,2.41,4.92,4.77,7.46,7,4.83,4.31,9.18,9.14,14.39,13.06,2.67,2,5.23,4.13,7.79,6.3a27.54,27.54,0,0,1,2.51,2.84,14.4,14.4,0,0,1-2.21.5c-3.41.13-6.84,0.15-10.26,0.35s-7,.66-10.43.9c-4.92.33-9.75,1.75-14.76,0.94a7.8,7.8,0,0,0-1.75,0l-6.54.39a6.65,6.65,0,0,1-1.23,0q0,2-.06,4a8.21,8.21,0,0,1,1.25-.15c5.66-.35,11.33-0.7,17-1.16,3.41-.28,6.78-0.87,10.17-1.22,1.44-.15,2.89-0.11,4.35-0.13,1.95,0,3.91,0,5.86-.13,3.7-.17,7.41-0.39,11.11-0.55a7.89,7.89,0,0,1,1.75.44c-0.9.83-1.49,1.44-2.14,2-1.31,1-2.65,2.06-4,3.08-4,3.11-7.09,7.09-10.56,10.72-4,4.16-8,8.27-11.92,12.44s-8.16,7.65-11.59,12.16S65.34,333.19,62.11,338c-0.81,1.2-2.06,2.1-2.8,3.32a80,80,0,0,1-8.09,10.28c-2.89,3.37-5.86,6.67-8.73,10.06-2.34,2.78-4.55,5.66-6.84,8.49s-4.72,5.55-6.91,8.44c-1.22,1.62-1.95,3.61-3.15,5.23-3.11,4.16-4.81,9-6.67,13.69-1.33,3.39-2.65,6.78-3.72,10.26a16.83,16.83,0,0,0-.55,9.69,37.72,37.72,0,0,0,2.23,5.42,33.66,33.66,0,0,0,6.67,9.12,8.32,8.32,0,0,0,4.85,2.65,21.22,21.22,0,0,0,12.73-2,69.26,69.26,0,0,0,9.49-5.8,55.77,55.77,0,0,0,6.08-5.29c1.49-1.4,2.82-2.93,4.22-4.42a51.94,51.94,0,0,0,4.7-5.12c3.32-4.61,6.43-9.36,9.64-14,4-5.86,8.14-11.7,12.18-17.58,0.74-1.07,1.31-2.27,2-3.39s1.49-2.49,2.27-3.72c1.73-2.69,3.61-5.29,5.18-8.07,2.17-3.78,4-7.72,6.74-11.2a29.75,29.75,0,0,0,2.49-4.48,50.75,50.75,0,0,1,2.43-4.57,60.86,60.86,0,0,0,4.83-9.14c0.7-1.49,1.22-3.13,2.93-4a7.16,7.16,0,0,1,1,.77c2.67,2.8,5.9,4.92,9,7.26,4.4,3.32,8.66,6.82,13,10.23,3,2.34,5.9,4.75,8.92,7s6.25,4.5,9.4,6.71,6.1,4.2,9.14,6.3c3.24,2.23,6.36,4.64,9.73,6.6,5.2,3.06,10.58,5.8,15.88,8.73,2.34,1.29,4.59,2.73,6.89,4.09L200,389.9c5.95,3.37,11.9,6.76,17.87,10.08,1.9,1,3.87,2,5.86,2.86,2.86,1.25,5.77,2.38,8.66,3.54q5.87,2.33,11.74,4.64a21.27,21.27,0,0,0,3.5,1.18c6.56,1.27,13.12,2.23,19.9,1.55s13.65-.87,20.49-1.25c4.5-.24,9-0.44,13.51-0.63,2.25-.11,4.5-0.26,6.76-0.31,3.35-.07,6.69,0,10-0.11,3.94-.15,7.85-0.57,11.79-0.66,10.19-.26,20.38.07,30.57-0.85,3.67-.33,7.41,0,11.11-0.24,3.89-.22,7.81-0.15,11.7-0.55a44.62,44.62,0,0,1,8.7.26c7.85,0.72,15.7.28,23.55,0,2.62-.09,5.23-0.48,7.83-0.63,4.07-.22,8.14-0.35,12.2-0.48,3.06-.11,6.12-0.35,9.16-0.2,3.78,0.2,7.52.81,11.28,1.14a32,32,0,0,0,4.57-.11c0.79,0,1.57-.24,2.38-0.33,3.7-.35,7.39-0.59,11.09-1,5.2-.61,10.39-1.47,15.64-1.51,4.66,0,9.32,0,14,0,1.38,0,2.73-.13,4.11-0.15,2.32,0,4.64.07,7,0,5.47-.17,10.91-0.48,16.38-0.66,6.63-.2,13.25-0.26,19.88-0.5,2.6-.09,5.2-0.61,7.81-0.83,3.41-.31,6.82-0.5,10.21-0.77,1.38-.11,2.73-0.35,4.11-0.42,3.41-.13,6.82-0.11,10.23-0.26,5-.22,10-0.57,15-0.74,3.54-.13,7.11,0,10.67-0.07,5.16-.13,10.34-0.13,15.48-0.59,6.87-.61,13.78-1.16,19.68-5.49a30.61,30.61,0,0,0,9.27-10,56.52,56.52,0,0,1,7.37-11c2-2.23,4-4.46,5.84-6.78q5.94-7.38,11.77-14.89c1.75-2.23,3.43-4.5,5.05-6.84,2.06-3,3.91-6.12,6-9.12,2.19-3.17,4.77-6.06,6.52-9.53,1.64-3.24,3.39-6.43,5.31-9.53,3.19-5.12,6.6-10.1,9.8-15.22,1.57-2.51,2.91-5.18,4.35-7.79s2.84-5.6,4.57-8.18a45.28,45.28,0,0,0,4.33-8.29,6,6,0,0,1,1-1.95c1.18-1.31,1.51-3,2-4.55,1-3.19,2.06-6.36,3.08-9.53C731.13,261.24,731.64,259.91,731,258.4ZM492.9,19.92L493.55,20a25.6,25.6,0,0,1,.61,3.59c0.11,2.76.09,5.53,0.07,8.29a2.31,2.31,0,0,1-2,2.19c-0.87.11-1.53-.42-1.88-1.73-0.85-3.24-.13-6.34,1-9.38A23.26,23.26,0,0,1,492.9,19.92ZM432.06,82.05c0.07-4.07.07-8.16,0.24-12.22,0.24-5.38.66-10.74,1-16.12,0.22-3.63.5-7.26,0.7-10.89a24.37,24.37,0,0,1,1.82-8.94A9.89,9.89,0,0,1,439.12,30,53.47,53.47,0,0,1,460.4,20.8c5.66-1,11.33-2,17-2.84,3.37-.52,6.78-0.83,10.19-1.22a8.77,8.77,0,0,1,1.31,0c1.79,0.11,2.08.68,1.33,2.36-1.12,2.51-2.21,5.07-3.26,7.63a9,9,0,0,0,.33,7.19c0.68,1.62.52,2-1.16,2.49-6.08,1.77-12.22,3.32-18.22,5.36C463.81,43.1,459.59,44.46,456,47a13.7,13.7,0,0,0-5.62,7.79c-1.51,5.51-1.92,11.17-2.41,16.82a71.13,71.13,0,0,0,.2,15.7c0.22,1.51-.13,1.86-1.88,1.88-4.64,0-9.29,0-14.21,0C432.06,86.67,432,84.37,432.06,82.05ZM377.82,59.79a16.06,16.06,0,0,1,3.78-1c4-.5,8.07-0.9,12.09-1.33,2.25-.24,2.62.09,2.6,2.47s-0.18,2.71-2.47,3a45.46,45.46,0,0,1-5.18.09c-2,0-4.07-.15-6.1-0.07s-4,.33-6,0.52C375.79,61.56,376.07,60.49,377.82,59.79Zm11.37,8.88h0c-0.18,3.85-.55,7.68-0.77,11.5-0.17,2.89-.31,5.8-0.37,8.7-0.07,2.25,0,2.27-2.16,2.71-2.54.55-5.1,1-8.09,1.66-0.11-2.51-.33-4.59-0.26-6.67,0.2-5.95.52-11.9,0.77-17.84,0.11-2.45.13-2.62,2.51-2.86a32.45,32.45,0,0,1,5.64-.17C388.87,65.85,389.33,66.35,389.2,68.67Zm-66.57,75.84c0.18-7.06.35-14.11,0.66-21.17,0.11-2.67.66-5.34,0.9-8s2-4.11,3.94-5.18a82.47,82.47,0,0,1,8.75-3.89c1.88-.77,3.83-1.36,5.75-2,0.83-.26,1.68-0.46,2.54-0.66,1.9-.46,3.81-0.94,5.71-1.36q6.27-1.44,12.55-2.82c3.13-.68,6.25-1.31,9.38-1.88a17,17,0,0,1,3,0,43.62,43.62,0,0,1,6.08-1.79c4.59-.74,9.23-1.18,13.84-1.75,2.17-.26,4.33-0.61,6.5-0.79,2.73-.22,5.49-0.28,8.24-0.44,3.7-.22,7.39-0.57,11.09-0.68,2.54-.07,5.1.2,7.63,0.24,3.7,0,7.41,0,11.11,0l5.66,0a5.25,5.25,0,0,1,1.31,0,17.22,17.22,0,0,0,5.4.07c3-.22,6.1-0.09,9.14-0.2,3.63-.13,7.26-0.42,10.91-0.5s7.26,0,10.87-.07c0.79,0,1.6-.22,2.38-0.24a61.93,61.93,0,0,1,15.4,1.27,98,98,0,0,1,11.11,3.85,33.86,33.86,0,0,0,4.42,1.22,6.59,6.59,0,0,1,5.18,5c2.47,7.89,3,16,3.17,24.16,0.09,3.85-.26,7.7-0.44,11.57-0.07,1.62-.15,1.79-1.73,1.92-2.54.2-5.07,0.28-7.61,0.33-5,.09-10,0.13-15.07.13a45.59,45.59,0,0,1-5.45-.39,32.39,32.39,0,0,0-8.48-.13c-2.34.31-2.69-.13-3.26-2.47-0.79-3.24-1.57-6.49-2.47-9.73a20.2,20.2,0,0,0-1.53-3.37c-0.79-1.64-1.51-3.32-2.43-4.9-1.4-2.41-3.67-3.91-6-5.27s-4.92-2.51-7.33-3.85c-1.4-.77-2.69-1.73-4.07-2.51a10.43,10.43,0,0,0-2.54-1.22c-7-1.84-14-4.29-21.41-3.74-2.89.22-5.82,0.07-8.7,0.35-3.24.33-6.47,0.9-9.69,1.53s-6.54,1.4-9.75,2.3c-2.73.77-5.4,1.68-8,2.69-5.29,2-10.54,4.18-15.83,6.19-2.36.92-4.13,2.67-6.12,4.09-3.48,2.51-6,5.93-8.59,9.23a33.16,33.16,0,0,0-6.52,14.39c-0.33,1.77-.57,2-2.47,2.06-3.63.09-7.26,0.11-10.91,0.13-8,.09-16,0.13-24,0.24-1.75,0-2.19-.26-2.14-2h0Zm141.23-22.7c-2.89-3-6.1-5.71-10.15-7a41.51,41.51,0,0,0-7.39-1.84c-5-.68-9.88-1.95-14.94-1.57s-9.86.7-14.74,1.44a76.87,76.87,0,0,0-10.78,2.67c-2.14.63-4.11,1.88-6.23,2.56-7.26,2.34-13.41,6.67-19.46,11a22.06,22.06,0,0,0-8,10.91c-0.44,1.25-.94,2.45-1.49,3.65-1,2.25-1.6,2.58-4,2.45a15.81,15.81,0,0,1-1.73-.28,4.13,4.13,0,0,1,0-1.18,42.11,42.11,0,0,1,6.82-14.3c2.32-3,4.7-6,7.92-8,2.62-1.71,5.4-3.17,8.16-4.64a91.21,91.21,0,0,1,16.62-6.56A67,67,0,0,1,418,108a35.68,35.68,0,0,0,3.65-.68c6.08-1.2,12.22-.92,18.28-0.44,3.94,0.33,7.76,1.84,11.61,2.84a30.63,30.63,0,0,1,4,1.2,43,43,0,0,1,13.89,8.86c0.79,0.77,1.57,1.51,2.41,2.21,4.57,3.87,5.53,9.34,6.58,14.76,0.17,0.92.33,1.86,0.48,2.78a0.79,0.79,0,0,1-.15.39c-2.76.83-3.63,0.44-4.59-2.3A43.42,43.42,0,0,0,463.86,121.81Zm6.87,18.57c-1.29.15-2.12,0.31-3,.35-5.1.24-10.17,0.48-15.26,0.66-4.35.15-8.73,0.24-13.08,0.39-3.41.11-6.84,0.28-10.26,0.42-7,.28-14.08.5-21.15,0.87-5.1.26-10.17,0.68-15.24,1l-15.68,1.12c-0.83.07-1.66,0-2.73,0a5.75,5.75,0,0,1,.39-1.29,93.87,93.87,0,0,1,5.4-9.21A30.61,30.61,0,0,1,393,124.26c7.46-3.08,15-6.08,22.87-7.85a54.27,54.27,0,0,1,17.1-1.49,94.8,94.8,0,0,1,10.61,1.2,37.28,37.28,0,0,1,13.89,5.53,31.07,31.07,0,0,1,8.51,9c1.27,2,2.41,4.16,3.5,6.28a20.43,20.43,0,0,1,1.2,3.48h0ZM287,223.91c0.13-4.44.61-8.86,0.94-13.3,0.48-6.54,1-13.06,1.38-19.59,0.22-4,.13-8,0.11-12q-0.07-9-.28-17.91c0-2.32-.35-4.64-0.39-7,0-2.1.42-2.62,2.47-2.8,4.5-.39,9-0.7,13.49-1,5.29-.31,10.61-0.63,15.9-0.81,4.59-.15,9.16,0,13.76-0.11s9-.17,13.54-0.28,9.18-.57,13.73-0.31a76.41,76.41,0,0,0,10-.24c3.41-.24,6.78-0.94,10.19-1.2,4.42-.33,8.86-0.42,13.3-0.63,1.25-.07,2.47-0.2,3.7-0.28,4.85-.28,9.71-0.61,14.59-0.87,5.29-.28,10.61-0.57,15.92-0.74,5.88-.17,11.79-0.17,17.67-0.35,4.22-.13,8.42-0.46,12.64-0.63,2.62-.11,5.23-0.09,7.85-0.15l14.17-.35c1.66,0,3.35,0,5,0,3.13,0,6.23.09,9.36,0.17,2.54,0.07,5.05.28,7.57,0.35s4.79,0,7.19.09c1.53,0,3,.07,4.57.13,2.91,0.11,5.88-.11,8.7.42s5.31-.17,8-0.26c2.82-.09,5.66.07,8.51,0.13a14.5,14.5,0,0,0,2.16.11c5.1-.68,10.17-0.26,15.26.07,1.66,0.11,3.35-.15,5-0.07,2.38,0.11,4.77.48,7.15,0.59a166.75,166.75,0,0,1,18,1.75,32.71,32.71,0,0,1,9.25,2.45,37.37,37.37,0,0,1,9.43,6.93c3.3,3.08,5.88,6.8,8.66,10.37a83.8,83.8,0,0,1,6.65,10.93c1.88,3.37,3.89,6.65,5.58,10.1,1.6,3.26,2.86,6.67,4.26,10,1.31,3.17,2.67,6.3,3.83,9.51,1.55,4.31,3,8.68,4.33,13.06,1.66,5.36,3.19,10.74,4.72,16.12,0.35,1.25.5,2.58,0.79,3.85q1.25,5.64,2.54,11.26c0.48,2.1.26,2.38-1.95,2.49-1.09,0-2.19.09-3.28,0.09a1.87,1.87,0,0,1-2.08-1.4,7.49,7.49,0,0,0,1.77-1.22c0.79-.92.5-1.71-0.66-2.16-1.66-.68-2.32-0.57-3.08.46-1.07,1.44-1,2.16.07,3.65a4.77,4.77,0,0,1,.33.77l-8.64,1.2a6.41,6.41,0,0,1,1-1.38,1.8,1.8,0,0,0,.85-2.23c-0.33-1.42-.74-2-1.79-2.14a2.69,2.69,0,0,0-2.73,1.77,6.4,6.4,0,0,0-.35,1.71,14,14,0,0,0,.13,2,51.67,51.67,0,0,1-14.65,1c0.44-.81.74-1.29,1-1.79a2,2,0,0,0-.35-2.6,2.3,2.3,0,0,0-1.75-.46,2.06,2.06,0,0,0-1.49,2.19,9.68,9.68,0,0,0,.35,1.9c0.18,1-.15,1.44-1.25,1.53q-10.43.79-20.86,1.55-8.17.59-16.34,1.14c-1.33.09-2.67,0-4.26,0,0.46-.87.83-1.47,1.14-2.12a2.44,2.44,0,0,0-.87-3.24,2.1,2.1,0,0,0-2.8.2,2.7,2.7,0,0,0-.37,3.41,15.88,15.88,0,0,0,2,1.73,11.53,11.53,0,0,1-1.9.48c-1.22.09-1.55-.2-1.62-1.49-0.11-1.75-.11-3.5-0.22-5.25-0.33-4.72-.68-9.43-1-14.15-0.28-3.41-.46-6.82-1-10.21-0.61-3.94-1.44-7.85-2.45-11.72s-2.41-7.61-3.67-11.39a21.74,21.74,0,0,0-1.4-3.19c-1.55-2.89-3-5.82-4.79-8.57-2-3.11-4.29-6-6.5-9-1.16-1.57-2.45-3-3.63-4.61-3.37-4.44-8.24-7-12.49-10.43a31.56,31.56,0,0,0-11.15-5.77c-2.38-.68-4.66-1.68-7-2.47a36.17,36.17,0,0,0-13.27-2.19c-7.35.31-14.67,0.79-22,1.2-3.06.17-6.12,0.28-9.14,0.63-3.17.35-6.32,1.12-9.49,1.42-5.36.55-10.3,2.54-15.42,3.89-6,1.6-12,3.15-17.6,5.82a120.35,120.35,0,0,0-12.4,6.36c-3.81,2.36-7.22,5.38-10.8,8.11-1.62,1.22-3.3,2.38-4.85,3.7-3.76,3.21-7.57,6.39-11.13,9.82-2.19,2.1-3.81,4.79-6,6.93a21,21,0,0,0-3.85,5c-1.22,2.32-2.36,4.68-3.46,7-1.79,3.89-3.7,7.76-5.27,11.77-1.51,3.85-3.06,7.7-3.59,11.87-0.22,1.71-1,3.35-1.31,5.07-0.39,2.43-.52,4.9-0.77,7.37-0.07.72-.15,1.44-0.2,2.16a2.14,2.14,0,0,1-2,2.17c-1.44.26-2.86,0.57-4.29,0.83-4,.74-8,1.64-12,2.21-6.12.85-12.27,1.49-18.63,2.25-0.59-2-1.25-3.65-1.62-5.4-0.74-3.46-1.71-6.76-4.09-9.51a9,9,0,0,1-1.33-2.25c-1.4-3.17-3.94-5.12-7-6.6a33.91,33.91,0,0,0-11.81-3.65,69.4,69.4,0,0,1-7.57-1.55,5.07,5.07,0,0,1-.28-1c-0.09-3.7-.37-7.48-0.28-11.26h0Zm267.43,49h0a1.88,1.88,0,0,0,3.3.85c0.31-.31.61-0.61,0.94-0.9a0.88,0.88,0,0,1,.42,0c0.46,2.93.59,16.18-.44,19.83l-1.55-.63c-1.49-.55-2.47,0-3.3,1.62-0.7,1.4-.52,2.89.68,3.46a3.76,3.76,0,0,0,2.45,0,3.47,3.47,0,0,0,1-1.31l0.55,0.24a28.85,28.85,0,0,1-.31,3.08c-1,5.23-1.84,10.48-3,15.64a61.34,61.34,0,0,1-6.36,16.66,68.82,68.82,0,0,1-9.18,11.9c-3.81,4.2-8.42,7.39-13.08,10.45a97.67,97.67,0,0,1-13.16,7.7,9.56,9.56,0,0,1-1.47.35c0.52-.83.81-1.27,1.07-1.71a2.62,2.62,0,0,0-.44-3.54,2.73,2.73,0,0,0-3.24-.22,2.63,2.63,0,0,0-.74,3.52,18,18,0,0,0,2.1,2.43,9.38,9.38,0,0,1-1.68.92c-5.71,1.95-11.39,4.09-17.19,5.71a70.91,70.91,0,0,1-19.66,2.49,54.26,54.26,0,0,1-6.36-.83c0.61-.61.92-0.94,1.25-1.25a9.16,9.16,0,0,0,1.42-1.33,2.61,2.61,0,0,0,0-2.89,1.78,1.78,0,0,0-2.1-.79,7.87,7.87,0,0,0-2.43.87c-1.53.9-1.79,1.86-1.12,3.48,0.15,0.37.35,0.74,0.63,1.36-2.32-.13-4.4.15-6.56-0.94,1.12-1.27,2.51-2.51,1.12-4.29a3.45,3.45,0,0,0-3.65-.66c-2,.77-1.75,2.41-1.38,4.29a9.33,9.33,0,0,1-2.23,0c-6.54-1.75-13.25-2.76-19.51-5.51-3.72-1.64-7.7-2.73-11.42-4.37a46.85,46.85,0,0,1-11.42-7.61c-3.32-2.84-6.58-5.75-9.82-8.66a60.4,60.4,0,0,1-8.49-9.93c-3.11-4.37-6-8.94-9.1-13.32a120.88,120.88,0,0,1-7.39-12.6,89.22,89.22,0,0,1-9-23.07c-1.53-6.8-3.13-13.69-3.08-20.71a81.14,81.14,0,0,1,2.25-20.12c2.58-9.88,6.84-19,11.74-27.9,3-5.49,7.35-9.93,12-14,2.78-2.45,5.75-4.7,8.66-7a19.28,19.28,0,0,1,1.82-1.16c0,0.74,0,1.16,0,1.57,0.07,1.86.9,2.67,2.51,2.45a2.57,2.57,0,0,0,2-3.11,17.32,17.32,0,0,0-1.73-3,57.44,57.44,0,0,1,18.52-12.22,8.07,8.07,0,0,1,2.52-1.09,9.67,9.67,0,0,1,2-1,101.61,101.61,0,0,1,17.8-5.69c3.61-.85,7.22-1.73,10.85-2.58a4.4,4.4,0,0,1,3,0l-0.87,5.07a11.24,11.24,0,0,1-5.88,1.2,17.5,17.5,0,0,0-.83-1.71,2.58,2.58,0,0,0-2.67-1.49,2.3,2.3,0,0,0-1.92,2.1,5.33,5.33,0,0,0-.26,1.49c0.24,1.71-.79,2.32-2.12,2.82-5.8,2.16-11.57,4.33-17.32,6.58a33.83,33.83,0,0,0-4.44,2.25q-7.45,4.33-14.83,8.79a12.12,12.12,0,0,0-2,1.71c-2.76,2.69-5.55,5.34-8.24,8.11a14.81,14.81,0,0,0-1.71,3c-1.07,1.9-2.19,3.78-3.24,5.69-2.41,4.37-4.85,8.75-7.15,13.19a31.46,31.46,0,0,0-1.47,4.33c-1,3-2,5.9-3,8.86a40,40,0,0,0-2.49,12.79,5.89,5.89,0,0,1-.07.87c-1.14,5.45-.37,10.89.09,16.31a24.47,24.47,0,0,0,1.31,6.82,46.41,46.41,0,0,1,1.22,4.85c0.5,1.88,1,3.78,1.66,5.62,1.09,3.15,2.34,6.28,3.41,9.43,0.77,2.27,1.22,4.64,2.06,6.89,0.77,2.1,1.86,4.09,2.78,6.15A14.46,14.46,0,0,1,388,311c-2.32-.26-3.59,1.12-4.88,2.36a3,3,0,0,0,1.29,5.14,2.45,2.45,0,0,0,3.3-1.92c0.33-1.55.46-3.15,0.74-5.14,1,1.4,1.68,2.51,2.47,3.54a63.06,63.06,0,0,0,4.7,6c3.17,3.3,5.88,7,8.81,10.5A33.23,33.23,0,0,0,408,335a83,83,0,0,0,10,8.11c2.25,1.44,4.18,3.37,6.34,5,1.4,1,2.93,1.9,4.42,2.8,2.1,1.27,4.26,2.47,6.34,3.76,1.51,0.94,1.49,1.66.07,2.84-0.77.63-1.79,1-1.73,2.3a3.32,3.32,0,0,0,3.39,3,2.81,2.81,0,0,0,2.54-3c0-.44-0.2-0.87-0.17-1.29a9.33,9.33,0,0,1,.31-1.36c3.3,1,6.43,1.84,9.51,2.86a25.15,25.15,0,0,0,5.69,1.4c5,0.46,10,1.51,15,1,2.76-.26,5.49-0.59,8.24-0.92,4.11-.5,8.22-1,12.31-1.64a21.91,21.91,0,0,0,4.4-1.25,80,80,0,0,0,14.63-7.26c3.26-2,6.63-4,9.67-6.3a83.57,83.57,0,0,0,7.46-7,69.56,69.56,0,0,0,9.43-11.44c1.38-2.12,2.6-4.37,3.87-6.58a12.89,12.89,0,0,1,.87-1.51,21.58,21.58,0,0,0,3.46-6.49c0.9-3,2.3-5.82,3.48-8.73a60.35,60.35,0,0,0,4.2-20.4c0.15-3.76.44-7.54,0.63-11.31,0.11-2.23.13-4.48,0.26-6.74a18.17,18.17,0,0,1,.46-2.38c1.92,0.48,3.59.74,4.85-1.64,1,2.62.92,4.85,1.62,7.13-0.9.13-1.53,0.22-2.14,0.33A3.5,3.5,0,0,0,554.46,272.9Zm-86.77-102.8a23,23,0,0,1-7.54,1.64l-1.42-4.35c2.14-1.62,4.77-1.68,7.65-1.75C465.67,167.38,465.32,168.94,467.68,170.09Zm-7.52,5.42h0c2.6-.66,5.23-1.33,7.85-1.88a78.53,78.53,0,0,1,14.32-1.42,59.76,59.76,0,0,1,11.52.61,3.34,3.34,0,0,1,.66.07c3.3,1.09,6.91,1.12,10.06,2.78,1.16,0.61,2.34,1.18,3.5,1.77a36.65,36.65,0,0,1,5.16,2.8c3.3,2.47,6.45,5.16,9.64,7.79,0.85,0.7,1.55,1.53,2.43,2.19a26,26,0,0,1,5.58,6.39c3.3,4.75,5.29,10.17,7.89,15.29a60,60,0,0,1,4.4,11.85c1,3.72,1.6,7.54,2.21,11.35,0.81,4.88,1.6,9.75,2.14,14.67a104.72,104.72,0,0,1,.57,11.11c0,5.23.07,10.45-.26,15.66-0.44,6.82-.72,13.69-2.45,20.36-0.9,3.43-2.21,6.78-3.35,10.15-0.31.9-.66,1.77-1,2.65a38.2,38.2,0,0,1-4,7.72c-1.84,2.71-3.5,5.53-5.14,8.38-2.65,4.53-6.47,8-10.12,11.63a33.58,33.58,0,0,1-3.63,3.43,83.9,83.9,0,0,1-7.89,5.4,100.74,100.74,0,0,1-11.61,6,73.59,73.59,0,0,1-26.79,5.51,32.26,32.26,0,0,0-3.26.35,37.08,37.08,0,0,1-10.43-.46,72.5,72.5,0,0,1-13.91-3.54,74.18,74.18,0,0,1-13.14-6.82,143.9,143.9,0,0,1-20-15.42,66.43,66.43,0,0,1-6.08-6.56c-2.62-3-5.2-6.08-7.7-9.21-2.84-3.61-5.55-7.3-6.89-11.81a19.62,19.62,0,0,0-1.27-2.54,44.33,44.33,0,0,1-2.08-4.81c-1.14-3.52-2.34-7.06-3.15-10.67-1-4.46-1.73-9-2.43-13.51-0.52-3.46-.87-6.93-1.22-10.41-0.22-2.32-.31-4.66-0.46-7a70.51,70.51,0,0,1,3.3-19.77,34,34,0,0,1,2-4.59c2.19-4.83,4.31-9.73,6.63-14.5,2.58-5.34,5.77-10.28,10.43-14.13,2.91-2.41,5.77-4.85,8.66-7.3a40.65,40.65,0,0,1,9.62-5.55c3.3-1.53,6.6-3.08,10-4.5,3.15-1.33,6.36-2.51,9.56-3.74,1.36-.52,2.73-1,4.13-1.38,2.08-.63,4.16-1.29,6.25-1.86C453.56,177.18,456.86,176.35,460.16,175.52Zm19.29-6.63-9.18,1c0.28-1.73,1.33-3.21-.31-4.4,1.44-.7,5.84-1.09,8.14-0.77C477.87,166.55,477.87,166.55,479.45,168.89Zm2.47,0,1.31-4.46a21.71,21.71,0,0,1,7.94-.26c-0.11,1.18-.2,2.38-0.35,3.59a1.21,1.21,0,0,1-1.36,1.14h-7.54Zm21.78,0.44h0a2.94,2.94,0,0,0,3.63,2,1.91,1.91,0,0,0,1.77-1.88c0.07-.85.2-1.68,0.31-2.69,2.36,0.22,4.07,1.47,6.25,2.41l-1.6,1.36a2.2,2.2,0,0,0-.68,3.06,3.64,3.64,0,0,0,5.6.81,1,1,0,0,1,.15-0.15c2.08-2.36,2.08-2.38,4.61-.7,2.32,1.51,4.59,3.06,6.91,4.59a14.54,14.54,0,0,1,4.68,5.1l-0.07,0c0.92,0.92,1.88,1.79,2.73,2.73,1.33,1.44,2.6,2.93,3.89,4.42a16.7,16.7,0,0,1,1,1.44,7.09,7.09,0,0,1,2.82,4.44,13.64,13.64,0,0,1,2.54,3.67c1.4,2.71,2.67,5.49,3.89,8.29a44.76,44.76,0,0,1,1.66,4.72,4.83,4.83,0,0,1,0,1.4c-0.63-.15-1.12-0.24-1.57-0.37-2.25-.57-3.87.87-3.56,3.21a7.05,7.05,0,0,0,.37,1.49c0.79,2,2.25,2.23,3.61.52a18.27,18.27,0,0,0,1.38-2.51,1.39,1.39,0,0,1,1.36,1.4c0.68,4.22,1.31,8.46,2,12.68,0.18,1.07.39,2.14,0.5,3.24a8.72,8.72,0,0,1-.17,1.64l-0.07,0c0,0.48.09,1,.13,1.47,0.81,1.2.26,2.54,0.42,3.72,0.2,1.4.2,2.84,0.31,4.61-1-.35-1.55-0.57-2.16-0.74a2.34,2.34,0,0,0-3.11,2.86,3.52,3.52,0,0,0,.48,1.44c0.37,0.57.92,1.44,1.38,1.42a3.8,3.8,0,0,0,1.95-1.12,3.45,3.45,0,0,0,.52-1.18,12.54,12.54,0,0,1,.79-1.09c0.74,3.94.92,7.46-.39,11.11-1.86-.5-3.48-0.31-4.68,1.53l-0.33-.44c-0.13-.9-0.24-1.79-0.37-2.67s-0.31-1.86-.42-2.8c-0.31-2.6-.55-5.2-0.85-7.79-0.26-2.38-.42-4.79-0.87-7.15-1-5.2-2.1-10.41-3.3-15.57a61.22,61.22,0,0,0-2.51-8.35,97.07,97.07,0,0,0-6-13c-1.92-3.35-3.48-6.91-6.08-9.8s-5.18-5.49-7.83-8.18a4.88,4.88,0,0,0-1.62-1.12c-2.43-1-4.31-2.89-6.47-4.31-3.52-2.3-7-4.7-11-6.12-3.41-1.22-6.89-2.19-10.26-3.24a37.46,37.46,0,0,1,.81-3.83,1.7,1.7,0,0,1,1.16-1,28.35,28.35,0,0,1,9.34,1.73,1.75,1.75,0,0,1,.15.48c-0.66.17-1.31,0.33-1.95,0.55A1.55,1.55,0,0,0,503.7,169.31ZM317.14,269.68h0c-0.18,2.1-.33,4.2-0.57,6.28a36,36,0,0,1-4.83,13.47,26.35,26.35,0,0,1-4.83,5.86,36.07,36.07,0,0,1-12.42,7.92,22.81,22.81,0,0,1-7.63,1.44,35.68,35.68,0,0,1-13.71-2c-5.62-2.19-11-4.88-14.35-10.13a24.62,24.62,0,0,1-4.2-11.13,50.75,50.75,0,0,1,2.8-22.55,32.84,32.84,0,0,1,4-7c3.54-5.16,8.83-8,14.17-10.91a13.6,13.6,0,0,1,6.93-1.6,51,51,0,0,1,7.94.92c3.06,0.57,6.06,1.51,9.12,2.12a22.14,22.14,0,0,1,8.27,3.81c1.53,1.07,2.58,2.91,3.65,4.55,0.92,1.38,1.49,3,2.32,4.42A28,28,0,0,1,317.14,269.68Zm-194-17.28a1.87,1.87,0,0,1,.33-0.81c1.77-2.1,2.49-4.85,4.26-6.93s3.76-4,5.66-6c1.31-1.36,2.67-2.67,3.94-4.07,3.11-3.46,6.1-7,9.29-10.43,3.74-4,7.63-7.76,11.48-11.63,1.75-1.75,3.43-3.56,5.23-5.25q4.23-3.94,8.64-7.68c3.11-2.65,6.34-5.12,9.43-7.76,2.08-1.79,4-3.81,6-5.69a28.6,28.6,0,0,1,2.34-2c4-2.86,8-5.75,12.14-8.55,4.48-3.08,9-6.15,13.6-9.1a63.28,63.28,0,0,1,8.51-4.88,36,36,0,0,1,9-2.71c7.19-1.07,14.46-1.71,21.67-2.65,4.4-.57,8.75-1.44,13.14-2.06,5.25-.72,10.39-2.36,15.77-2.19,2.1,0.07,2.3.07,2.36,2.12,0.2,5.88.44,11.79,0.44,17.67,0,7.22-.44,14.41-0.33,21.63,0.13,8.33-1,16.55-1.57,24.82-0.28,3.7-.17,7.41-0.2,11.13,0,1.6.07,3.21,0.09,4.81a1.54,1.54,0,0,1-1.14,1.84c-1,.24-2,0.55-3,0.7-5.88.87-10.8,3.78-15.33,7.41-2.21,1.77-4.26,3.74-6.39,5.62a8.77,8.77,0,0,0-2.51,3.5c-1.12,3.15-2.45,6.23-3.5,9.4a2.53,2.53,0,0,1-2.32,1.9,113.73,113.73,0,0,0-11.59,2.08c-4.94,1.36-10,.66-15.13,1.38-0.42-1.33-.79-2.56-1.18-3.78-0.44-1.38-.92-2.73-1.38-4.09a9.55,9.55,0,0,1-.52-1.2c-0.74-3.3-3-5.84-4.31-8.81a59.5,59.5,0,0,0-4.66-8.11c-2.25-3.5-5.66-5.05-9.49-5.58a94,94,0,0,0-12.38-.92,31,31,0,0,0-9.88,1.47,24.79,24.79,0,0,0-8.2,4.4c-2.76,2.25-5.75,4.26-8.27,6.78a37.56,37.56,0,0,0-6.08,7.92,39.81,39.81,0,0,0-3.08,8.59,70.19,70.19,0,0,0-1.57,7.68,2.06,2.06,0,0,1-2,2,31.76,31.76,0,0,0-3.24.26c-3.56.72-7.09,1.62-10.65,2.32-4.64.9-9.29,1.66-14,2.47a5.27,5.27,0,0,1-1.31,0c-2.17-.26-2.45-0.63-2.19-2.8,0.59-4.77,1-9.56,1.79-14.3,0.48-3.41,1.44-6.63,2.21-9.88h0Zm95.35,20.78c-0.46,2.12-1.14,4.2-1.66,6.32-1.79,7.33-6.23,12.6-12.47,16.69a56,56,0,0,1-10.1,5.07,21.81,21.81,0,0,1-5.95,1.22c-3.21.31-6.43,0.48-9.64,0.48a35.66,35.66,0,0,1-4.48-.79c-3.06-.39-5.6-1.86-8.14-3.48a29.29,29.29,0,0,1-5.53-4.85c-1.86-2-2.49-4.57-3.35-7-1.44-4.16-1.22-8.49-.87-12.77a40.55,40.55,0,0,1,10-23.27,41.38,41.38,0,0,1,8.92-8,22.88,22.88,0,0,1,9.58-3.59,7.69,7.69,0,0,1,4.35-.79c1,0.11,2.1.31,3.15,0.42,3.85,0,7.7.17,11.31,1.79a16,16,0,0,1,3.32,2.38,0.69,0.69,0,0,1,.18.44,36.7,36.7,0,0,1,6.15,8.4c1,1.84,1.77,3.83,2.65,5.75a28.6,28.6,0,0,1,1.81,4.7C219.6,265.79,219.32,269.49,218.51,273.18ZM114.44,292.32c-0.37,4.48-.77,9-1.18,13.47-0.24,2.54-.68,5.05-0.79,7.59-0.13,3-.11,6.12,0,9.16a16.8,16.8,0,0,0,.94,3.78,2.72,2.72,0,0,1-.37,2.27c-3.43,6-6.82,12-10.26,18-1.33,2.34-2.76,4.64-4.13,6.93-2.19,3.67-4.37,7.39-6.6,11-1.07,1.73-2.32,3.35-3.39,5.07-4.42,7-8.83,14-13.8,20.67-3.8,5.14-7.26,10.54-10.76,15.9a71.71,71.71,0,0,1-12.27,14.67c-4.31,3.85-8.86,7.39-14.54,9-2.08.59-4.11,1.42-6.39,1.27a6.42,6.42,0,0,1-4-1.57c-1.16-1-2.27-2-3.43-3a5.18,5.18,0,0,0-1.29-.55,5.17,5.17,0,0,0-.79-3.11c-1.25-2.17-2-4.57-3.61-6.58a1.8,1.8,0,0,1-.18-1.4,104.34,104.34,0,0,1,5.82-17.1c1.6-3.59,3.21-7.19,5.14-10.61a116.05,116.05,0,0,1,6.54-10c2.14-3,4.48-5.93,6.82-8.79,4.51-5.53,9.12-11,13.6-16.51,3.74-4.64,7.3-9.43,11-14.08,3.08-3.87,6.23-7.65,9.43-11.46,5.25-6.25,10.85-12.16,16.58-18,3.56-3.63,6.82-7.57,10.43-11.15,3.13-3.13,6.54-6,9.84-9a10.28,10.28,0,0,1,1.77-1C114.59,289.28,114.57,290.81,114.44,292.32Zm-1-13.78h0c-2.14-1.64-4.31-3.24-6.32-5-3.81-3.39-7.48-6.91-11.24-10.37-1.55-1.42-3.11-2.84-4.7-4.24-3.48-3.08-7.06-6.06-10.43-9.27-2.51-2.41-4.68-5.18-7.19-7.61-3.17-3.06-5.51-6.76-8.09-10.23-3.83-5.18-7.59-10.45-10-16.53-1.79-4.53-4-8.88-5.88-13.38a54,54,0,0,1-4-18c0.18-5.25.48-10,1.82-14.54A25.63,25.63,0,0,1,58,154.68c2.14-1.4,3.91-.17,5.71.7a9.41,9.41,0,0,1,2.36,1.92c3.08,3.08,6.28,6.08,9.18,9.34a103.6,103.6,0,0,1,9.91,12.75c3.78,5.95,7.06,12.16,10.5,18.28,2.14,3.81,4,7.74,6.12,11.55s3.91,7.81,5.8,11.74c2.73,5.69,5.36,11.42,8.9,16.69,1.53,2.27,2.78,4.77,4.13,7.15a5.36,5.36,0,0,1,.42,4.2c-1.53,6.06-3,12.16-4.29,18.28a69,69,0,0,0-.79,7.37c-0.11,1-.2,2-0.37,3C115.38,279.24,114.7,279.5,113.43,278.54Zm71.29,68.08c-0.15,2.67-1,5.29-1.25,8-0.59,5.27-1.07,10.56-1.51,15.85-0.22,2.73-1,3.3-3.37,1.79-3.35-2.17-6.52-4.61-9.86-6.8a89.61,89.61,0,0,0-8.88-5.38,46.47,46.47,0,0,1-11.52-8.49,21,21,0,0,0-5.88-4.4,2.56,2.56,0,0,1-.87-0.66,5.13,5.13,0,0,0-3.65-1.73,2.27,2.27,0,0,1-2.17-1.49,5.56,5.56,0,0,0-1.66-2c-4.07-3.5-8.18-6.93-12.27-10.41-1.44-1.22-2.89-2.45-4.35-3.63a5.47,5.47,0,0,1-2.06-4.42,94.72,94.72,0,0,1,1.27-19.57,88.47,88.47,0,0,0,1-9.32c0.26-3,.44-5.95.7-8.92,0.17-1.92.22-1.92,2.19-2.23,4.31-.7,8.62-1.29,12.9-2.1,2.86-.52,5.64-1.47,8.48-2s5.75-.83,8.64-1.18c0.94-.11,1.25.57,1.27,1.38,0.07,1.6.26,3.19,0.2,4.79a22,22,0,0,0,1.6,8.07,7.76,7.76,0,0,0,1.22,2c1.62,2.14,3.15,4.37,5.47,5.88a9.43,9.43,0,0,1,1.36,1.12c3.35,3.3,7.68,4.22,12.09,4.88,2.58,0.37,5.18.74,7.76,1.16,1,0.17,1.95.52,3,.81v4c0,4.37-.09,8.73,0,13.1,0,2.76.42,5.51,0.44,8.27,0.11,4.53.09,9.05-.2,13.56h0Zm289.32,57h0c-3.63,0-7.26-.28-10.89-0.28-5.88,0-11.74,0-17.6.52-4.26.35-8.55,0.22-12.84,0.39-3.91.17-7.83,0.48-11.72,0.7-5.95.33-11.92,0.55-17.87,1-4.75.33-9.45-.13-14.17-0.26-4.2-.13-8.42,0-12.64,0-5.73,0-11.48.07-17.23,0.17-2.69,0-5.38.24-8,.31-1.38,0-2.76-.07-4.11,0-3.67.15-7.35,0.28-11,.52-3.48.22-6.93,0.63-10.41,0.87-2.6.17-5.23,0.2-7.85,0.28-3.65.11-7.28,0.11-10.91,0.28-3.91.17-7.81,0.52-11.72,0.74-2.17.11-4.35,0.09-6.54,0.13-0.94,0-1.9,0-2.82.07-4.46.52-8.94,0.59-13.45,0.7-1.81,0-3.63.37-5.45,0.37-6.5.07-12.95-.26-19.14-2.49-4.24-1.53-8.51-3-12.64-4.75-4.66-2-9.21-4.22-13.78-6.45s-9.08-4.53-13.6-6.82c-1-.52-2-1.14-3-1.73-2.6-1.57-5.16-3.19-7.81-4.72-2.84-1.64-5.71-3.19-8.59-4.72a4,4,0,0,1-2.23-3.67c-0.44-6.84,1.14-13.47,1.82-20.21s1.6-13.3,1.07-20c-0.61-8.07-.44-16.14-0.28-24.21,0-2.78.28-3,3-3.72a39.14,39.14,0,0,0,10.61-4.5c2.45-1.57,5.1-2.86,7.44-4.59,4.48-3.32,8.42-7.13,10.72-12.42a36.51,36.51,0,0,0,2.84-11.37c0.26-2.6.48-2.71,3-2.93,5.07-.44,10.15-0.87,15.22-1.47,2.93-.35,5.84-1,9.25-1.62a19.72,19.72,0,0,1,.22,3.63,39.51,39.51,0,0,0,.85,16.4,30.85,30.85,0,0,0,4.85,10,13.35,13.35,0,0,0,5.07,4.07c4.42,2.08,8.79,4.24,13.25,6.15a16.23,16.23,0,0,0,8.57,1.16c3.83-.52,7.63-1.16,11.42-1.82a7.93,7.93,0,0,0,2.65-.92c4.35-2.62,8.73-5.25,12.2-9.08a42.5,42.5,0,0,0,3.78-3.91,41.52,41.52,0,0,0,7.63-19.94c0.13-1.51.18-3,.24-4.59a25.42,25.42,0,0,1,7.83-1.42c3.41-.28,6.82-0.42,10.23-0.83,4.26-.52,8.49-1.27,12.73-1.9,1.64-.24,3.3-0.39,5.25-0.63,0.22,1.4.48,2.73,0.63,4.07,0.5,4.18.83,8.38,2.08,12.44a95.06,95.06,0,0,1,2.51,10.13c0.68,3.59,2.32,6.71,3.81,10,1.6,3.5,3.13,7,4.88,10.45,1.42,2.78,3.08,5.45,4.72,8.11,2,3.21,3.87,6.52,6.1,9.56,3.52,4.81,7.22,9.47,11,14.08a44.11,44.11,0,0,0,4.77,4.48c2.69,2.45,5.36,4.92,8.11,7.28,6.8,5.86,14.26,10.56,23.14,12.68l17.17,4.16c3.19,0.77,6.34,1.64,9.58,2.14,3.46,0.55,7,.72,10.41,1,2.47,0.22,4.94.39,7.39,0.63,1.73,0.17,1.79.22,2,2,0.37,3.7.68,7.39,1,11.07s0.74,7.24,1.09,10.85C478.33,403.83,478.09,403.59,474,403.63Zm181.33-52.18c-0.07,4.35-.42,8.7-0.63,13.08,0,0.5,0,1,0,1.53a24.89,24.89,0,0,1-4.83,16c-3,4-6.45,7.92-11.15,10.21a47,47,0,0,1-5.73,2.06c-2.14.72-4.24,1.6-6.43,2.1a57.62,57.62,0,0,1-9,1.49c-5.38.35-10.78,0.2-16.14,0.57-2.78.2-5.51,0.07-8.27,0.07-3.91,0-7.85.44-11.77,0.61-2.38.11-4.79,0.09-7.19,0.17-1.44,0-2.89.17-4.33,0.33-3.48.37-6.93,0.87-10.41,1.16-2.73.24-5.51,0.22-8.27,0.35l-12,.55c-0.94,0-1.88.11-2.84,0.13-5.1.07-10.19,0-15.29,0.17-3.76.11-7.52,0.48-11.28,0.66-2,.09-3.94.07-5.9,0.07-5,0-10,0-15.07-.09a16.07,16.07,0,0,1-1.79-.24c0.28-2.76.28-2.76-.83-4.07,0-1.38.07-2.6,0-3.83-0.07-.81-0.33-1.64-1.42-1.57a1.85,1.85,0,0,0-1.55,2.23,7.78,7.78,0,0,0,.68,1.6c0.24,0.46.52,0.87,0.79,1.31a16.74,16.74,0,0,0-1,2.36,11.92,11.92,0,0,0-.17,2.34c-1.68.33-1.84,0.33-2.06-1-0.35-2-.52-4-0.77-6.06-0.66-5.71-1.33-11.42-2-17.12-0.07-.44-0.11-0.87-0.13-1.29,0-1.68.46-2.23,2.14-2.38a71.47,71.47,0,0,0,16.84-3.52c3.37-1.18,6.89-1.9,10.23-3.08a128,128,0,0,0,11.94-4.75c2.67-1.25,5-3.24,7.59-4.66,4.64-2.54,7.89-6.6,11.5-10.26,0.72-.72,1.51-1.36,2.23-2.08A71.62,71.62,0,0,0,551.37,334a78.2,78.2,0,0,0,4.35-8.79c1-2.19,1.88-4.42,2.78-6.65a5.59,5.59,0,0,0,.39-1.47,60.78,60.78,0,0,1,2.58-12.6,25.44,25.44,0,0,0,1.14-6c0.33-5,1.22-10,.81-15-0.22-2.58.18-5.2,0.22-7.83s0-5.07,0-7.61c0-.37-0.07-0.72-0.07-1.09,0-2.78.37-3.13,3.11-3.21,1.22,0,2.45-.22,3.7-0.28s2.6-.11,3.91-0.2c1.95-.15,3.89-0.37,5.84-0.48,4-.24,8-0.44,12-0.59,7.92-.31,15.85-0.48,23.79-0.92,6.91-.37,13.78-1,20.67-1.57,3.63-.28,7.26-0.63,10.89-0.92,2.21-.17,2.58.07,2.82,2.25,0.39,3.61.61,7.24,1,10.85,0.48,5.05,1,10.1,1.53,15.16,0.2,2,.42,4.07.52,6.08,0.28,5.38.87,10.76,0.66,16.12-0.26,6.49.11,12.95,0.42,19.4,0.15,3.26.55,6.52,0.68,9.78,0.24,4.37.44,8.75,0.37,13.1h0ZM675.57,344a12.27,12.27,0,0,0-.17,1.51c0.39,3.35-1.18,5.82-3.35,8.16a64.82,64.82,0,0,0-3.89,5.23,16.67,16.67,0,0,1-2.08,2.54c-1.92,1.73-3.21,3.94-4.72,6-0.42.57-.87,1.14-1.62,2.08a18,18,0,0,1-.15-2c0.15-4.72.39-9.45,0.48-14.17,0.07-2.73-.15-5.49-0.11-8.22,0-1.95.46-3.91,0.35-5.84-0.2-3.48-.68-6.93-1-10.41,0-.28-0.09-0.59-0.09-0.87,0-6.17-.92-12.31-0.09-18.48,0.44-3.32-.48-6.49-0.85-9.75a16.74,16.74,0,0,1-.28-3.46,91,91,0,0,0-.39-16.55c-0.46-4.92-.42-9.91-1.18-14.78-0.66-4.24-.94-8.64-3-12.64a30.23,30.23,0,0,1-2.23-6.8c-1.22-5-2.19-10.08-3.46-15.07a62.56,62.56,0,0,0-3.24-10.17c-1.75-4-2.45-8.2-4-12.18-1.29-3.3-2.82-6.52-4.2-9.8-0.35-.83-0.61-1.71-1-2.86h2.45a4.67,4.67,0,0,0,4.26-3.43c0.57-2.34,0-4.16-1.92-5.05a13.36,13.36,0,0,0-2.93-.63c0.57-.63,1.12-1.16,1.57-1.75,1.38-1.77.74-4.07-1.51-5.58a3.45,3.45,0,0,0-5,1,5,5,0,0,0-.44,2.49,7.29,7.29,0,0,0,.61,2.08c0.42,1.22,1.12,2,2.56,1.79a3.3,3.3,0,0,1,1,.24L634,191.72a16.36,16.36,0,0,1-.9-1.71c-0.77-1.79-1.55-3.61-2.25-5.42s-1.33-3.67-1.95-5.53a1.47,1.47,0,0,1-.07-0.61c-0.35-.63-0.72-1.25-1.07-1.88a0.53,0.53,0,0,1-.24-0.44,45.63,45.63,0,0,1-2-4.16,0.65,0.65,0,0,1,0-.35l-0.66-1.09a3.69,3.69,0,0,1-.92-1.53,0.67,0.67,0,0,1-.26-0.7l-0.07-.17a11.73,11.73,0,0,0-2.27-3.37l-0.09.09L609,153.26l0.28-.44,10.5,3.41c1.38,0.44,2.76.92,4.16,1.27a3.77,3.77,0,0,1,3.13,3.46l0.07,0.07,0.24,0.09a3.75,3.75,0,0,1,2.23,3.11,29.47,29.47,0,0,1,1.86,3.72,0.58,0.58,0,0,1,.07.26,2.7,2.7,0,0,1,.31.39c3.08,4.4,6.25,8.75,9.18,13.27a70.08,70.08,0,0,1,4,7.74c1.88,3.94,3.74,7.87,5.51,11.85,1.68,3.78,3.26,7.63,4.85,11.46,2.1,5,4.2,10.06,6.17,15.13,0.94,2.43,1.62,5,2.38,7.46A127.29,127.29,0,0,1,668.11,254c0.33,2.3,1,4.55,1.31,6.84,0.33,2.14.44,4.33,0.74,6.47,0.52,3.65,1.12,7.3,1.71,11,0.44,2.78,1.22,5.51,1,8.4a41.29,41.29,0,0,0,.28,5.66c0.33,6.76.68,13.51,1,20.27,0.24,5.66.35,11.33,0.61,17,0.13,3.11.5,6.21,0.7,9.34A39.67,39.67,0,0,1,675.57,344ZM637.65,190.43a4.78,4.78,0,0,1,1.33-.68l0.37,0.44a5.61,5.61,0,0,1-.26,1.2,0.89,0.89,0,0,1-1.38.52A0.9,0.9,0,0,1,637.65,190.43Zm-2.25-7.5a0.66,0.66,0,0,1,0-1.31A0.66,0.66,0,0,1,635.39,182.93Zm88.39,85.44h0a74.51,74.51,0,0,1-8.79,18,10.27,10.27,0,0,0-.85,1.51,29.36,29.36,0,0,1-4.44,7,5.75,5.75,0,0,0-1,1.68,62.65,62.65,0,0,1-4.94,9c-2.45,4-4.79,8-7.17,12-0.87,1.49-1.73,3-2.58,4.5a2.91,2.91,0,0,1-.35.55c-2.52,2.23-3.63,5.38-5.34,8.16-1.6,2.58-3.37,5.07-5.07,7.61-0.59.87-1.22,1.73-1.84,2.6l-0.44,0a18.54,18.54,0,0,1-.24-2.19c0-2.1.11-4.2,0.11-6.32,0-4.29,0-8.57,0-12.86a28,28,0,0,0-.26-3c-0.55-4.9-1.2-9.8-1.64-14.7-0.35-4-.55-8-0.59-12a86.09,86.09,0,0,0-1.68-13.41c-0.77-4.59-1.33-9.23-2.08-13.82-0.72-4.44-1.44-8.9-2.34-13.32s-1.82-8.86-3.08-13.16c-1.55-5.29-2.93-10.65-5.49-15.61-1.81-3.54-3-7.39-4.5-11.11-0.57-1.42-1.14-2.84-1.73-4.24-1.55-3.61-3.13-7.19-4.7-10.8-0.44-1-1-1.92-1.47-2.91-1.2-2.47-2.25-5.05-3.61-7.44-1.73-3-3.63-5.95-5.6-8.81-2.21-3.21-4.64-6.32-6.91-9.49a7.48,7.48,0,0,1-1.53-4.13,29.89,29.89,0,0,1,3.56,1.47,88.68,88.68,0,0,1,7.76,4.85c4.46,3.26,8.88,6.58,13.1,10.15,5.05,4.26,9.93,8.75,14.74,13.3,5.18,4.9,10.21,10,15.31,15,5.55,5.45,11.22,10.78,16.64,16.38,4.18,4.33,8.14,8.92,12,13.54a32.65,32.65,0,0,1,6.1,10.76,94.19,94.19,0,0,1,2.32,10.19A22,22,0,0,1,723.79,268.37Z" transform="translate(0)"/><path class="cls-2" d="M632.29,175.89a5.56,5.56,0,0,0,.79-1.09,2.31,2.31,0,0,0-.63-3.43,4,4,0,0,0-3.37-.85A5.28,5.28,0,0,1,628,171a5,5,0,0,0-.83.66,1.41,1.41,0,0,0-.17.2,36.38,36.38,0,0,0,1.77,3.59c0.87,0.11,1.71.33,2.58,0.46a2.86,2.86,0,0,0,1,0h0Zm-2.14-1.82a0.66,0.66,0,0,1,0-1.31A0.66,0.66,0,0,1,630.14,174.07Zm-206.83,5.25a15.33,15.33,0,0,0-1.68-.87,5.81,5.81,0,0,0-1.79.92,11.89,11.89,0,0,0-.33,1.18,2.24,2.24,0,0,0,1,2.65,2.39,2.39,0,0,0,3.19-.37A2.12,2.12,0,0,0,423.31,179.32Zm119.84,14.59a4.16,4.16,0,0,0-2.14-1.18,5,5,0,0,1-.61.2,2.29,2.29,0,0,0-1.84,2.76,2.09,2.09,0,0,0,2.6,2,11,11,0,0,0,2.45-.9,3.43,3.43,0,0,0-.46-2.86h0Z" transform="translate(0)"/><path class="cls-3" d="M250.66,267.76a19.74,19.74,0,0,1,.22,3.63,39.51,39.51,0,0,0,.85,16.4,30.85,30.85,0,0,0,4.85,10,13.34,13.34,0,0,0,5.07,4.07c4.42,2.08,8.79,4.24,13.25,6.15a16.23,16.23,0,0,0,8.57,1.16c3.83-.52,7.63-1.16,11.42-1.82a7.93,7.93,0,0,0,2.65-.92c4.35-2.62,8.73-5.25,12.2-9.08a42.49,42.49,0,0,0,3.78-3.91,41.51,41.51,0,0,0,7.63-19.94c0.13-1.51.17-3,.24-4.59a25.42,25.42,0,0,1,7.83-1.42c3.41-.28,6.82-0.42,10.23-0.83,4.26-.52,8.49-1.27,12.73-1.9,1.64-.24,3.3-0.39,5.25-0.63,0.22,1.4.48,2.73,0.63,4.07,0.5,4.18.83,8.38,2.08,12.44a95.08,95.08,0,0,1,2.51,10.13c0.68,3.59,2.32,6.71,3.81,10,1.6,3.5,3.13,7,4.88,10.45,1.42,2.78,3.08,5.45,4.72,8.11,2,3.21,3.87,6.52,6.1,9.56,3.52,4.81,7.22,9.47,11,14.08a44.11,44.11,0,0,0,4.77,4.48c2.69,2.45,5.36,4.92,8.11,7.28,6.8,5.86,14.26,10.56,23.14,12.68l17.17,4.16c3.19,0.77,6.34,1.64,9.58,2.14,3.46,0.55,7,.72,10.41,1,2.47,0.22,4.94.39,7.39,0.63,1.73,0.17,1.79.22,2,2,0.37,3.7.68,7.39,1,11.07s0.74,7.24,1.09,10.85c0.46,4.59.22,4.33-3.81,4.4-3.63,0-7.26-.28-10.89-0.28-5.88,0-11.74,0-17.6.52-4.26.35-8.55,0.22-12.84,0.39-3.91.17-7.83,0.48-11.72,0.7-5.95.33-11.92,0.55-17.87,1-4.75.33-9.45-.13-14.17-0.26-4.2-.13-8.42,0-12.64,0-5.73,0-11.48.07-17.23,0.17-2.69,0-5.38.24-8,.31-1.38,0-2.76-.07-4.11,0-3.67.15-7.35,0.28-11,.52-3.48.22-6.93,0.63-10.41,0.87-2.6.17-5.23,0.2-7.85,0.28-3.65.11-7.28,0.11-10.91,0.28-3.91.17-7.81,0.52-11.72,0.74-2.17.11-4.35,0.09-6.54,0.13-0.94,0-1.9,0-2.82.07-4.46.52-8.94,0.59-13.45,0.7-1.82,0-3.63.37-5.45,0.37-6.49.07-12.95-.26-19.14-2.49-4.24-1.53-8.51-3-12.64-4.75-4.66-2-9.21-4.22-13.78-6.45s-9.08-4.53-13.6-6.82c-1-.52-2-1.14-3-1.73-2.6-1.57-5.16-3.19-7.81-4.72-2.84-1.64-5.71-3.19-8.59-4.72a4,4,0,0,1-2.23-3.67c-0.44-6.84,1.14-13.47,1.82-20.21s1.6-13.3,1.07-20c-0.61-8.07-.44-16.14-0.28-24.21,0-2.78.28-3,3-3.72a39.14,39.14,0,0,0,10.61-4.5c2.45-1.57,5.1-2.86,7.44-4.59,4.48-3.32,8.42-7.13,10.72-12.42a36.52,36.52,0,0,0,2.84-11.37c0.26-2.6.48-2.71,3-2.93,5.07-.44,10.15-0.87,15.22-1.47,3-.26,5.88-0.92,9.29-1.53h0Zm95.94,10.17c1.31,0.09,2.36-.85,2.91-2.51a1.48,1.48,0,0,0-.44-1.77,1.55,1.55,0,0,0-2-.37,7.33,7.33,0,0,0-2,1.95c-0.9,1.47-.22,2.58,1.51,2.71h0Zm-12.64.55c1.92-.33,3.41-0.63,3.26-2.06-0.13-1.27-.85-2.21-1.88-2.23a2.7,2.7,0,0,0-3,2.73A1.35,1.35,0,0,0,334,278.48Zm-86-1.77a4,4,0,0,0-1-.94,3.89,3.89,0,0,0-3.59.92,2,2,0,0,0,.63,3.11c1.25,0.39,3.78-1.4,3.91-3.08h0Zm-12.51,4a4.1,4.1,0,0,0,2.93-2.1,1.71,1.71,0,0,0-.28-1.36,1.85,1.85,0,0,0-2.1-.79,3,3,0,0,0-2.3,2.1c-0.42,1.33.17,2.17,1.75,2.14h0Zm-8.75-.35a3.48,3.48,0,0,0,3.3-2.89,0.91,0.91,0,0,0-1.22-1.07c-0.85.22-1.62,0.66-2.45,0.9a1.42,1.42,0,0,0-1.14,2,3.79,3.79,0,0,0,1.51,1.09h0Zm128.41-6.93a2.14,2.14,0,0,0-2.32,2.06,1.77,1.77,0,0,0,1.9,1.66,2.14,2.14,0,0,0,1.88-2.25A1.26,1.26,0,0,0,355.12,273.38ZM327,275c-1.47,0-2.56.92-2.51,2.08a1.59,1.59,0,0,0,1.75,1.71,3.38,3.38,0,0,0,2.32-2.32A1.61,1.61,0,0,0,327,275h0Z" transform="translate(0)"/><path class="cls-3" d="M379.77,255.4a70.5,70.5,0,0,1,3.3-19.77,34,34,0,0,1,2-4.59c2.19-4.83,4.31-9.73,6.63-14.5,2.58-5.34,5.77-10.28,10.43-14.13,2.91-2.41,5.77-4.85,8.66-7.3a40.65,40.65,0,0,1,9.62-5.55c3.3-1.53,6.6-3.08,10-4.5,3.15-1.33,6.36-2.51,9.56-3.74,1.36-.52,2.73-1,4.13-1.38,2.08-.63,4.16-1.29,6.25-1.86,3.3-.9,6.6-1.73,9.91-2.56,2.6-.66,5.23-1.33,7.85-1.88a78.54,78.54,0,0,1,14.32-1.42,59.75,59.75,0,0,1,11.52.61,3.34,3.34,0,0,1,.66.07c3.3,1.09,6.91,1.12,10.06,2.78,1.16,0.61,2.34,1.18,3.5,1.77a36.64,36.64,0,0,1,5.16,2.8c3.3,2.47,6.45,5.16,9.64,7.79,0.85,0.7,1.55,1.53,2.43,2.19a25.94,25.94,0,0,1,5.58,6.39c3.3,4.75,5.29,10.17,7.89,15.29a60,60,0,0,1,4.4,11.85c1,3.72,1.6,7.54,2.21,11.35,0.81,4.88,1.6,9.75,2.14,14.67a104.69,104.69,0,0,1,.57,11.11c0,5.23.07,10.45-.26,15.66-0.44,6.82-.72,13.69-2.45,20.36-0.9,3.43-2.21,6.78-3.35,10.15-0.31.9-.66,1.77-1,2.65a38.19,38.19,0,0,1-4,7.72c-1.84,2.71-3.5,5.53-5.14,8.38-2.65,4.53-6.47,8-10.13,11.63a33.57,33.57,0,0,1-3.63,3.43,83.9,83.9,0,0,1-7.89,5.4,100.73,100.73,0,0,1-11.61,6,73.58,73.58,0,0,1-26.79,5.51,32.26,32.26,0,0,0-3.26.35,37.08,37.08,0,0,1-10.43-.46,72.5,72.5,0,0,1-13.91-3.54,74.17,74.17,0,0,1-13.14-6.82,143.92,143.92,0,0,1-20-15.42,66.45,66.45,0,0,1-6.08-6.56c-2.62-3-5.2-6.08-7.7-9.21-2.84-3.61-5.55-7.3-6.89-11.81a19.61,19.61,0,0,0-1.27-2.54,44.33,44.33,0,0,1-2.08-4.81c-1.14-3.52-2.34-7.06-3.15-10.67-1-4.46-1.73-9-2.43-13.51-0.52-3.46-.87-6.93-1.22-10.41-0.31-2.32-.39-4.66-0.55-7h0Z" transform="translate(0)"/><path class="cls-3" d="M641,252.78a7.49,7.49,0,0,0,1.77-1.22c0.79-.92.5-1.71-0.66-2.17-1.66-.68-2.32-0.57-3.08.46-1.07,1.44-1,2.17.07,3.65a4.74,4.74,0,0,1,.33.77l-8.64,1.2a6.41,6.41,0,0,1,1-1.38,1.8,1.8,0,0,0,.85-2.23c-0.33-1.42-.74-2-1.79-2.14a2.69,2.69,0,0,0-2.73,1.77,6.4,6.4,0,0,0-.35,1.71,14,14,0,0,0,.13,2,51.67,51.67,0,0,1-14.65,1c0.44-.81.74-1.29,1-1.79a2,2,0,0,0-.35-2.6,2.3,2.3,0,0,0-1.75-.46,2.06,2.06,0,0,0-1.49,2.19,9.69,9.69,0,0,0,.35,1.9c0.17,1-.15,1.44-1.25,1.53q-10.43.79-20.86,1.55-8.17.59-16.34,1.14c-1.33.09-2.67,0-4.26,0,0.46-.87.83-1.47,1.14-2.12a2.44,2.44,0,0,0-.87-3.24,2.1,2.1,0,0,0-2.8.2,2.7,2.7,0,0,0-.37,3.41,15.86,15.86,0,0,0,2,1.73,11.54,11.54,0,0,1-1.9.48c-1.22.09-1.55-.2-1.62-1.49-0.11-1.75-.11-3.5-0.22-5.25-0.33-4.72-.68-9.43-1-14.15-0.28-3.41-.46-6.82-1-10.21-0.61-3.94-1.44-7.85-2.45-11.72s-2.41-7.61-3.67-11.39a21.75,21.75,0,0,0-1.4-3.19c-1.55-2.89-3-5.82-4.79-8.57-2-3.11-4.29-6-6.49-9-1.16-1.57-2.45-3-3.63-4.61-3.37-4.44-8.24-7-12.49-10.43a31.56,31.56,0,0,0-11.15-5.77c-2.38-.68-4.66-1.68-7-2.47a36.17,36.17,0,0,0-13.27-2.19c-7.35.31-14.67,0.79-22,1.2-3.06.17-6.12,0.28-9.14,0.63-3.17.35-6.32,1.12-9.49,1.42-5.36.55-10.3,2.54-15.42,3.89-6,1.6-12,3.15-17.6,5.82a120.37,120.37,0,0,0-12.4,6.36c-3.81,2.36-7.22,5.38-10.8,8.11-1.62,1.22-3.3,2.38-4.85,3.7-3.76,3.21-7.57,6.39-11.13,9.82-2.19,2.1-3.81,4.79-6,6.93a21,21,0,0,0-3.85,5c-1.22,2.32-2.36,4.68-3.46,7-1.79,3.89-3.7,7.76-5.27,11.77-1.51,3.85-3.06,7.7-3.59,11.87-0.22,1.71-1,3.35-1.31,5.07-0.39,2.43-.52,4.9-0.77,7.37-0.07.72-.15,1.44-0.2,2.17a2.14,2.14,0,0,1-2,2.17c-1.44.26-2.86,0.57-4.29,0.83-4,.74-8,1.64-12,2.21-6.12.85-12.27,1.49-18.63,2.25-0.59-2-1.25-3.65-1.62-5.4-0.74-3.46-1.71-6.76-4.09-9.51A9,9,0,0,1,314,248c-1.4-3.17-3.94-5.12-7-6.6a33.91,33.91,0,0,0-11.81-3.65,69.4,69.4,0,0,1-7.57-1.55,5.08,5.08,0,0,1-.28-1c-0.13-3.78-.44-7.57-0.33-11.35,0.13-4.44.61-8.86,0.94-13.3,0.48-6.54,1-13.06,1.38-19.59,0.22-4,.13-8,0.11-12q-0.07-9-.28-17.91c0-2.32-.35-4.64-0.39-7,0-2.1.42-2.62,2.47-2.8,4.5-.39,9-0.7,13.49-1,5.29-.31,10.61-0.63,15.9-0.81,4.59-.15,9.16,0,13.76-0.11s9-.17,13.54-0.28,9.18-.57,13.73-0.31a76.42,76.42,0,0,0,10-.24c3.41-.24,6.78-0.94,10.19-1.2,4.42-.33,8.86-0.42,13.3-0.63,1.25-.07,2.47-0.2,3.7-0.28,4.85-.28,9.71-0.61,14.59-0.87,5.29-.28,10.61-0.57,15.92-0.74,5.88-.17,11.79-0.17,17.67-0.35,4.22-.13,8.42-0.46,12.64-0.63,2.62-.11,5.23-0.09,7.85-0.15l14.17-.35c1.66,0,3.35,0,5,0,3.13,0,6.23.09,9.36,0.17,2.54,0.07,5.05.28,7.57,0.35s4.79,0,7.19.09c1.53,0,3,.07,4.57.13,2.91,0.11,5.88-.11,8.7.42s5.31-.17,8-0.26c2.82-.09,5.66.07,8.51,0.13a14.51,14.51,0,0,0,2.16.11c5.1-.68,10.17-0.26,15.26.07,1.66,0.11,3.35-.15,5-0.07,2.38,0.11,4.77.48,7.15,0.59a166.76,166.76,0,0,1,18,1.75,32.71,32.71,0,0,1,9.25,2.45,37.37,37.37,0,0,1,9.43,6.93c3.3,3.08,5.88,6.8,8.66,10.37a83.81,83.81,0,0,1,6.65,10.93c1.88,3.37,3.89,6.65,5.58,10.1,1.6,3.26,2.86,6.67,4.26,10,1.31,3.17,2.67,6.3,3.83,9.51,1.55,4.31,3,8.68,4.33,13.06,1.66,5.36,3.19,10.74,4.72,16.12,0.35,1.25.5,2.58,0.79,3.85q1.25,5.64,2.54,11.26c0.48,2.1.26,2.38-1.95,2.49-1.09,0-2.19.09-3.28,0.09-0.7.11-1.47,0.09-2-1.31h0Zm-65,6c1.09-.94,1.92-1.57,2.67-2.32a1.43,1.43,0,0,0,.09-2,2.79,2.79,0,0,0-3.15-.7,2.38,2.38,0,0,0-1.09,3,14.36,14.36,0,0,0,1.49,2h0Zm16.45-4.42a2.08,2.08,0,0,0,1.73,2.34,3.25,3.25,0,0,0,2.71-2.67,2.64,2.64,0,0,0-2.47-2,2.12,2.12,0,0,0-2,2.36h0Zm-7.63,2.76a2.59,2.59,0,0,0,2.54-2.62v-0.07a1.77,1.77,0,0,0-1.88-1.66A2.35,2.35,0,0,0,583,255v0.17A1.63,1.63,0,0,0,584.81,257.11ZM291.16,204.49a2.21,2.21,0,0,0,1.64,2.23c1.09,0,2.41-1.55,2.36-2.91a1.65,1.65,0,0,0-1.77-1.73,2.32,2.32,0,0,0-2.23,2.41h0ZM622,250.68a2.4,2.4,0,0,0-2,1.49c-0.44.81-.85,1.64-0.24,2.43a1.77,1.77,0,0,0,1.42.66,3.89,3.89,0,0,0,1.95-1.27c0.94-1.14.13-3.24-1.16-3.3h0ZM297.17,158.22a13.13,13.13,0,0,0-.7-1.49c-1-1.66-2.76-1.64-3.78,0-0.83,1.33-.33,2.45,1.22,2.71a3.58,3.58,0,0,0,3.26-1.27h0Zm-0.35,36.72a4.55,4.55,0,0,0-1.12-1.4,2.05,2.05,0,0,0-1.55.42,3.15,3.15,0,0,0-1.49,2.73,1.21,1.21,0,0,0,1.07,1.38C294.92,198.24,296.91,196.4,296.82,194.94Zm308.54,58.17a1.77,1.77,0,0,0-1.82-2,2.34,2.34,0,0,0-.17,4.64c1,0,2-1.25,2-2.67h0ZM295.45,218.69a1.74,1.74,0,0,0-2.3-1.82,3.22,3.22,0,0,0-1.82,3.39,1.39,1.39,0,0,0,.85.83A2.76,2.76,0,0,0,295.45,218.69Zm-3.72-6.49a3.48,3.48,0,0,0,.83,1.27c0.72,0.55,2-.2,2.8-1.47a1.52,1.52,0,0,0-.2-2.3,1.88,1.88,0,0,0-1.16-.42c-1.12,0-2.25,1.42-2.27,2.91h0Zm2.41,12a3,3,0,0,0-2.91,1.62,2.38,2.38,0,0,0-.31,1.95,1.82,1.82,0,0,0,1.6.74,2.38,2.38,0,0,0,1.62-1.09,3,3,0,0,0,0-3.21h0Zm0,10.5V233a1.49,1.49,0,0,0,0-.44,2.67,2.67,0,0,0-.57-1.44,2,2,0,0,0-1.6.24,2.67,2.67,0,0,0-1.16,1.25,2.36,2.36,0,0,0,.07,1.82,2.41,2.41,0,0,0,1.62.81,4.2,4.2,0,0,0,1.6-.52h0ZM296.36,178a10.1,10.1,0,0,0-1.9,1.49,2,2,0,0,0,0,2.58c0.83,0.77,1.6.2,2.32-.28a6.13,6.13,0,0,0,.83-0.7c0.55-.5,1.09-1.14.52-1.86A10,10,0,0,0,296.36,178Zm0.77-12.64c0-1.42-1.27-2.49-2.21-2.08a2.62,2.62,0,0,0-1.75,2.27,1.44,1.44,0,0,0,.37,1.12,4,4,0,0,0,2-.07A6.07,6.07,0,0,0,297.13,165.39Zm0.22,7.09c0-1.42-1-2-2.19-1.16a4.72,4.72,0,0,0-1.49,1.79,1.26,1.26,0,0,0,1.12,1.73,2.39,2.39,0,0,0,2.56-2.36h0Zm-3.76,16.58c1.31,0,2.78-1.25,2.8-2.08a1.33,1.33,0,0,0-1.25-1.47c-1,0-2.62,1.44-2.45,2.32a3.24,3.24,0,0,0,.9,1.22h0ZM487.08,402.43c0.28-2.76.28-2.76-.83-4.07,0-1.38.07-2.6,0-3.83-0.07-.81-0.33-1.64-1.42-1.57a1.85,1.85,0,0,0-1.55,2.23,7.78,7.78,0,0,0,.68,1.6c0.24,0.46.52,0.87,0.79,1.31a16.73,16.73,0,0,0-1,2.36,11.93,11.93,0,0,0-.17,2.34c-1.68.33-1.84,0.33-2.06-1-0.35-2-.52-4-0.77-6.06-0.66-5.71-1.33-11.42-2-17.12-0.07-.44-0.11-0.87-0.13-1.29,0-1.68.46-2.23,2.14-2.38a71.47,71.47,0,0,0,16.84-3.52c3.37-1.18,6.89-1.9,10.23-3.08a127.94,127.94,0,0,0,11.94-4.75c2.67-1.25,5-3.24,7.59-4.66,4.64-2.54,7.89-6.6,11.5-10.26,0.72-.72,1.51-1.36,2.23-2.08A71.6,71.6,0,0,0,551.44,334a78.19,78.19,0,0,0,4.35-8.79c1-2.19,1.88-4.42,2.78-6.65a5.58,5.58,0,0,0,.39-1.47,60.79,60.79,0,0,1,2.58-12.6,25.45,25.45,0,0,0,1.14-6c0.33-5,1.22-10,.81-15-0.22-2.58.17-5.2,0.22-7.83s0-5.07,0-7.61c0-.37-0.07-0.72-0.07-1.09,0-2.78.37-3.13,3.11-3.21,1.22,0,2.45-.22,3.7-0.28s2.6-.11,3.91-0.2c1.95-.15,3.89-0.37,5.84-0.48,4-.24,8-0.44,12-0.59,7.92-.31,15.85-0.48,23.79-0.92,6.91-.37,13.78-1,20.67-1.57,3.63-.28,7.26-0.63,10.89-0.92,2.21-.17,2.58.07,2.82,2.25,0.39,3.61.61,7.24,1,10.85,0.48,5.05,1,10.1,1.53,15.15,0.2,2,.42,4.07.52,6.08,0.28,5.38.87,10.76,0.66,16.12-0.26,6.49.11,12.95,0.42,19.4,0.15,3.26.55,6.52,0.68,9.78,0.2,4.35.37,8.7,0.33,13.08s-0.42,8.7-.63,13.08c0,0.5,0,1,0,1.53a24.89,24.89,0,0,1-4.83,16c-3,4-6.45,7.92-11.15,10.21a47,47,0,0,1-5.73,2.06c-2.14.72-4.24,1.6-6.43,2.1a57.63,57.63,0,0,1-9,1.49c-5.38.35-10.78,0.2-16.14,0.57-2.78.2-5.51,0.07-8.27,0.07-3.91,0-7.85.44-11.77,0.61-2.38.11-4.79,0.09-7.19,0.17-1.44,0-2.89.17-4.33,0.33-3.48.37-6.93,0.87-10.41,1.16-2.73.24-5.51,0.22-8.27,0.35l-12,.55c-0.94,0-1.88.11-2.84,0.13-5.1.07-10.19,0-15.29,0.17-3.76.11-7.52,0.48-11.28,0.66-2,.09-3.94.07-5.9,0.07-5,0-10,0-15.07-.09a16.61,16.61,0,0,1-1.75-.22h0Zm0.15-24.23a6,6,0,0,0-1.42-1.33c-0.77-.37-2.08.52-2.62,1.53a1.75,1.75,0,0,0,.17,2.21,1.21,1.21,0,0,0,.17.13C484.63,381.37,487.21,379.88,487.23,378.2Zm-2.56,11.52a29.32,29.32,0,0,0,1.88-2.3c0.68-1.07.24-2.51-.83-2.62a3.22,3.22,0,0,0-2.12.7,1.63,1.63,0,0,0-.35,2.17C483.65,388.32,484.13,388.93,484.67,389.72ZM223.43,268c-0.42-1.33-.79-2.56-1.18-3.78-0.44-1.38-.92-2.73-1.38-4.09a9.56,9.56,0,0,1-.52-1.2c-0.74-3.3-3-5.84-4.31-8.81a59.51,59.51,0,0,0-4.66-8.11c-2.25-3.5-5.66-5.05-9.49-5.58a94,94,0,0,0-12.38-.92,31,31,0,0,0-9.88,1.47,24.79,24.79,0,0,0-8.2,4.4c-2.76,2.25-5.75,4.26-8.27,6.78a37.57,37.57,0,0,0-6.08,7.92,39.81,39.81,0,0,0-3.08,8.59,70.22,70.22,0,0,0-1.57,7.68,2.06,2.06,0,0,1-2,2,31.76,31.76,0,0,0-3.24.26c-3.56.72-7.09,1.62-10.65,2.32-4.64.9-9.29,1.66-14,2.47a5.27,5.27,0,0,1-1.31,0c-2.17-.26-2.45-0.63-2.19-2.8,0.59-4.77,1-9.56,1.79-14.3,0.52-3.3,1.49-6.52,2.25-9.8a1.87,1.87,0,0,1,.33-0.81c1.77-2.1,2.49-4.85,4.26-6.93s3.76-4,5.66-6c1.31-1.36,2.67-2.67,3.94-4.07,3.11-3.46,6.1-7,9.29-10.43,3.74-4,7.63-7.76,11.48-11.63,1.75-1.75,3.43-3.56,5.23-5.25q4.23-3.94,8.64-7.68c3.11-2.65,6.34-5.12,9.43-7.76,2.08-1.79,4-3.81,6-5.69a28.56,28.56,0,0,1,2.34-2c4-2.86,8-5.75,12.14-8.55,4.48-3.08,9-6.15,13.6-9.1A63.29,63.29,0,0,1,224,161.7a36,36,0,0,1,9-2.71c7.19-1.07,14.46-1.71,21.67-2.65,4.4-.57,8.75-1.44,13.14-2.06,5.25-.72,10.39-2.36,15.77-2.19,2.1,0.07,2.3.07,2.36,2.12,0.2,5.88.44,11.79,0.44,17.67,0,7.22-.44,14.41-0.33,21.63,0.13,8.33-1,16.55-1.57,24.82-0.28,3.7-.17,7.41-0.2,11.13,0,1.6.07,3.21,0.09,4.81a1.54,1.54,0,0,1-1.14,1.84c-1,.24-2,0.55-3,0.7-5.88.87-10.8,3.78-15.33,7.41-2.21,1.77-4.26,3.74-6.39,5.62a8.77,8.77,0,0,0-2.51,3.5c-1.12,3.15-2.45,6.23-3.5,9.4a2.53,2.53,0,0,1-2.32,1.9,113.71,113.71,0,0,0-11.59,2.08c-5,1.27-10,.57-15.18,1.29h0Zm-95.54,6.41a2.78,2.78,0,0,0-2.71-1.84,3.11,3.11,0,0,0-2.8,1.75c-0.68,1.38,0,2.51,1.49,2.51A4.31,4.31,0,0,0,127.89,274.43Zm6.8-3.28a2.74,2.74,0,0,0-2.8,2.23c-0.07,1.22,1,2.08,2.54,2.06,1.22,0,2.82-1.33,2.78-2.3A2.66,2.66,0,0,0,134.69,271.15Zm10,2.91a20,20,0,0,0,2-.92c1.16-.7,1.31-1.36.68-2.51-0.79-1.44-2.41-1.55-3.83-.28a1.85,1.85,0,0,0-.7,2.27,5.32,5.32,0,0,0,1.86,1.44h0ZM375.79,97.53a43.62,43.62,0,0,1,6.08-1.79c4.59-.74,9.23-1.18,13.84-1.75,2.17-.26,4.33-0.61,6.49-0.79,2.73-.22,5.49-0.28,8.24-0.44,3.7-.22,7.39-0.57,11.09-0.68,2.54-.07,5.1.2,7.63,0.24,3.7,0,7.41,0,11.11,0l5.66,0a5.25,5.25,0,0,1,1.31,0,17.22,17.22,0,0,0,5.4.07c3-.22,6.1-0.09,9.14-0.2,3.63-.13,7.26-0.42,10.91-0.5s7.26,0,10.87-.07c0.79,0,1.6-.22,2.38-0.24a61.93,61.93,0,0,1,15.4,1.27,98,98,0,0,1,11.11,3.85,33.85,33.85,0,0,0,4.42,1.22,6.59,6.59,0,0,1,5.18,5c2.47,7.89,3,16,3.17,24.16,0.09,3.85-.26,7.7-0.44,11.57-0.07,1.62-.15,1.79-1.73,1.92-2.54.2-5.07,0.28-7.61,0.33-5,.09-10,0.13-15.07.13a45.59,45.59,0,0,1-5.45-.39,32.4,32.4,0,0,0-8.49-.13c-2.34.31-2.69-.13-3.26-2.47-0.79-3.24-1.57-6.49-2.47-9.73a20.21,20.21,0,0,0-1.53-3.37c-0.79-1.64-1.51-3.32-2.43-4.9-1.4-2.41-3.67-3.91-6-5.27s-4.92-2.51-7.33-3.85c-1.4-.77-2.69-1.73-4.07-2.51a10.43,10.43,0,0,0-2.54-1.22c-7-1.84-14-4.29-21.41-3.74-2.89.22-5.82,0.07-8.7,0.35-3.24.33-6.47,0.9-9.69,1.53s-6.54,1.4-9.75,2.3c-2.73.77-5.4,1.68-8,2.69-5.29,2-10.54,4.18-15.83,6.19-2.36.92-4.13,2.67-6.12,4.09-3.48,2.51-6,5.93-8.59,9.23a33.16,33.16,0,0,0-6.52,14.39c-0.33,1.77-.57,2-2.47,2.06-3.63.09-7.26,0.11-10.91,0.13-8,.09-16,0.13-24,0.24-1.68,0-2.12-.26-2.08-2,0.17-7.06.35-14.11,0.66-21.17,0.11-2.67.66-5.34,0.9-8s2-4.11,3.94-5.18a82.47,82.47,0,0,1,8.75-3.89c1.88-.77,3.83-1.36,5.75-2,0.83-.26,1.68-0.46,2.54-0.66,1.9-.46,3.81-0.94,5.71-1.36q6.27-1.44,12.55-2.82c3.13-.68,6.25-1.31,9.38-1.88a16.05,16.05,0,0,1,2.93,0h0ZM680.9,340.78a18.58,18.58,0,0,1-.24-2.19c0-2.1.11-4.2,0.11-6.32,0-4.29,0-8.57,0-12.86a28,28,0,0,0-.26-3c-0.55-4.9-1.2-9.8-1.64-14.7-0.35-4-.55-8-0.59-12a86.08,86.08,0,0,0-1.68-13.41c-0.77-4.59-1.33-9.23-2.08-13.82-0.72-4.44-1.44-8.9-2.34-13.32S670.32,240.31,669,236c-1.55-5.29-2.93-10.65-5.49-15.61-1.82-3.54-3-7.39-4.5-11.11-0.57-1.42-1.14-2.84-1.73-4.24-1.55-3.61-3.13-7.19-4.7-10.8-0.44-1-1-1.92-1.47-2.91-1.2-2.47-2.25-5.05-3.61-7.44-1.73-3-3.63-5.95-5.6-8.81-2.21-3.21-4.64-6.32-6.91-9.49a7.48,7.48,0,0,1-1.53-4.13,29.91,29.91,0,0,1,3.56,1.47,88.7,88.7,0,0,1,7.76,4.85c4.46,3.26,8.88,6.58,13.1,10.15,5.05,4.26,9.93,8.75,14.74,13.3,5.18,4.9,10.21,10,15.31,15,5.55,5.45,11.22,10.78,16.64,16.38,4.18,4.33,8.14,8.92,12,13.54a32.65,32.65,0,0,1,6.1,10.76A94.22,94.22,0,0,1,725.05,257a20.65,20.65,0,0,1-1.22,11.33,74.51,74.51,0,0,1-8.79,18,10.27,10.27,0,0,0-.85,1.51,29.36,29.36,0,0,1-4.44,7,5.74,5.74,0,0,0-1,1.68,62.65,62.65,0,0,1-4.94,9c-2.45,4-4.79,8-7.17,12-0.87,1.49-1.73,3-2.58,4.5a2.9,2.9,0,0,1-.35.55c-2.51,2.23-3.63,5.38-5.34,8.16-1.6,2.58-3.37,5.07-5.07,7.61-0.59.87-1.22,1.73-1.84,2.6l-0.55-.07h0ZM114.68,287.31c-0.09,2-.11,3.5-0.24,5-0.37,4.48-.77,9-1.18,13.47-0.24,2.54-.68,5.05-0.79,7.59-0.13,3-.11,6.12,0,9.16a16.81,16.81,0,0,0,.94,3.78,2.72,2.72,0,0,1-.37,2.27c-3.43,6-6.82,12-10.26,18-1.33,2.34-2.76,4.64-4.13,6.93-2.19,3.67-4.37,7.39-6.6,11-1.07,1.73-2.32,3.35-3.39,5.07-4.42,7-8.83,14-13.8,20.67-3.81,5.14-7.26,10.54-10.76,15.9a71.72,71.72,0,0,1-12.27,14.67c-4.31,3.85-8.86,7.39-14.54,9-2.08.59-4.11,1.42-6.39,1.27a6.41,6.41,0,0,1-4-1.57c-1.16-1-2.27-2-3.43-3a5.19,5.19,0,0,0-1.29-.55,5.17,5.17,0,0,0-.79-3.11c-1.25-2.17-2-4.57-3.61-6.58a1.8,1.8,0,0,1-.17-1.4,104.34,104.34,0,0,1,5.82-17.1c1.6-3.59,3.21-7.19,5.14-10.61a116,116,0,0,1,6.54-10c2.14-3,4.48-5.93,6.82-8.79,4.5-5.53,9.14-11,13.6-16.51,3.74-4.64,7.3-9.43,11-14.08,3.08-3.87,6.23-7.65,9.43-11.46,5.25-6.25,10.85-12.16,16.58-18,3.56-3.63,6.82-7.57,10.43-11.15,3.13-3.13,6.54-6,9.84-9A13.54,13.54,0,0,1,114.68,287.31ZM45.57,183.94c0.17-5.25.48-10,1.82-14.54a25.63,25.63,0,0,1,10.69-14.7c2.14-1.4,3.91-.17,5.71.7a9.41,9.41,0,0,1,2.36,1.92c3.08,3.08,6.28,6.08,9.18,9.34a103.59,103.59,0,0,1,9.91,12.75c3.78,5.93,7.06,12.14,10.5,18.28,2.14,3.81,4,7.74,6.12,11.55s3.91,7.81,5.8,11.74c2.73,5.69,5.36,11.42,8.9,16.69,1.53,2.27,2.78,4.77,4.13,7.15a5.36,5.36,0,0,1,.42,4.2c-1.53,6.06-3,12.16-4.29,18.28a69,69,0,0,0-.79,7.37c-0.11,1-.2,2-0.37,3-0.28,1.57-.94,1.84-2.21.87-2.14-1.64-4.31-3.24-6.32-5-3.81-3.39-7.48-6.91-11.24-10.37-1.55-1.42-3.11-2.84-4.7-4.24-3.48-3.08-7.06-6.06-10.43-9.27-2.51-2.41-4.68-5.18-7.19-7.61-3.17-3.06-5.51-6.76-8.09-10.23-3.83-5.18-7.59-10.45-10-16.53-1.79-4.53-4-8.88-5.88-13.38a54.49,54.49,0,0,1-4-18h0Zm139,123.71v4c0,4.37-.09,8.73,0,13.1,0,2.76.42,5.51,0.44,8.27,0,4.5,0,9-.24,13.54-0.15,2.67-1,5.29-1.25,8-0.59,5.27-1.07,10.56-1.51,15.85-0.22,2.73-1,3.3-3.37,1.79-3.35-2.17-6.52-4.61-9.86-6.8a89.61,89.61,0,0,0-8.88-5.38,46.47,46.47,0,0,1-11.52-8.49,21,21,0,0,0-5.88-4.4,2.56,2.56,0,0,1-.87-0.66,5.13,5.13,0,0,0-3.65-1.73,2.27,2.27,0,0,1-2.17-1.49,5.56,5.56,0,0,0-1.66-2c-4.07-3.5-8.18-6.93-12.27-10.41-1.44-1.22-2.89-2.45-4.35-3.63a5.47,5.47,0,0,1-2.06-4.42,94.73,94.73,0,0,1,1.27-19.57,88.49,88.49,0,0,0,1-9.32c0.26-3,.44-5.95.7-8.92,0.17-1.92.22-1.92,2.19-2.23,4.31-.7,8.62-1.29,12.9-2.1,2.86-.52,5.64-1.47,8.49-2s5.75-.83,8.64-1.18c0.94-.11,1.25.57,1.27,1.38,0.07,1.6.26,3.19,0.2,4.79a22,22,0,0,0,1.6,8.07,7.75,7.75,0,0,0,1.22,2c1.62,2.14,3.15,4.37,5.47,5.88a9.43,9.43,0,0,1,1.36,1.12c3.35,3.3,7.68,4.22,12.09,4.88,2.58,0.37,5.18.74,7.76,1.16,1,0.2,2,.55,3,0.83h0Zm-7,38.16a4.54,4.54,0,0,0,3.54-1.75,1.19,1.19,0,0,0,.22-1,6.59,6.59,0,0,0-2-2.12c-1.18-.57-2,0.39-2.71,1.27s-1.09,1.66-.44,2.56a4.46,4.46,0,0,0,1.36,1h0Zm-0.39,11.09a2.25,2.25,0,0,0,2.3-1.53,3.18,3.18,0,0,0-.72-3c-1-.81-1.73,0-2.54.42a2.08,2.08,0,0,0-.37.22c-0.81.57-1.49,1.22-1.12,2.32a2.62,2.62,0,0,0,2.45,1.57h0ZM182.06,332c0-1.55-1.33-2.65-2.54-2a5.09,5.09,0,0,0-2,2.14,2,2,0,0,0,1.62,2.71,3,3,0,0,0,2.91-2.89h0Zm-6.15-8.24c1.44,0.81,2.69.13,3.89-.46s1.47-1.42,1-2.23a1.87,1.87,0,0,0-2.71-.9,3.45,3.45,0,0,0-2.23,3.59h0Zm0.57,44.5a2,2,0,0,0,2.23-2.08c0-1.36-.74-2.19-1.9-2.12a2.72,2.72,0,0,0-2.32,2.49c0,1.18.68,1.75,2,1.71h0Zm3-55.92c-0.15-.33-0.35-1.49-0.92-1.71s-1.55.39-2.27,0.77a2.19,2.19,0,0,0-.94,1.14,2.12,2.12,0,0,0,0,1.42c0.39,0.81,1.77,1.09,2.93.74,1-.28,1.16-1,1.16-2.36h0Z" transform="translate(0)"/><path class="cls-3" d="M558.7,272.85c-0.33.28-.63,0.59-0.94,0.9a1.88,1.88,0,0,1-3.3-.85,3.43,3.43,0,0,1,2.93-4.48c0.61-.11,1.22-0.2,2.14-0.33-0.7-2.27-.61-4.53-1.62-7.13-1.27,2.38-2.93,2.12-4.85,1.64a18.16,18.16,0,0,0-.46,2.38c-0.13,2.23-.15,4.48-0.26,6.74-0.2,3.76-.48,7.54-0.63,11.31a59.83,59.83,0,0,1-4.2,20.4c-1.18,2.89-2.56,5.73-3.48,8.73a21.57,21.57,0,0,1-3.46,6.49,12.9,12.9,0,0,0-.87,1.51c-1.29,2.19-2.49,4.44-3.87,6.58a68.47,68.47,0,0,1-9.43,11.44,83.58,83.58,0,0,1-7.46,7,114.47,114.47,0,0,1-9.67,6.3,79.27,79.27,0,0,1-14.63,7.26,21.91,21.91,0,0,1-4.4,1.25c-4.09.63-8.2,1.14-12.31,1.64-2.73.35-5.49,0.68-8.24,0.92-5.05.48-10-.57-15-1a25.15,25.15,0,0,1-5.69-1.4c-3.08-1-6.21-1.88-9.51-2.86a5.8,5.8,0,0,0-.31,1.36c0,0.42.17,0.85,0.17,1.29a2.81,2.81,0,0,1-2.54,3,3.29,3.29,0,0,1-3.39-3c-0.07-1.31,1-1.66,1.73-2.3,1.44-1.18,1.44-1.9-.07-2.84-2.1-1.29-4.24-2.49-6.34-3.76-1.49-.9-3-1.77-4.42-2.8-2.17-1.6-4.09-3.52-6.34-5a81,81,0,0,1-10-8.11,33.25,33.25,0,0,1-3.48-3.54c-2.93-3.5-5.62-7.17-8.81-10.5a63,63,0,0,1-4.7-6c-0.79-1-1.51-2.14-2.47-3.54-0.28,2-.42,3.59-0.74,5.14a2.45,2.45,0,0,1-3.3,1.92,3,3,0,0,1-1.29-5.14c1.29-1.22,2.56-2.62,4.88-2.36a12,12,0,0,0-.48-1.57c-0.92-2.06-2-4-2.78-6.15s-1.29-4.61-2.06-6.89c-1.07-3.17-2.32-6.28-3.41-9.43-0.63-1.84-1.16-3.74-1.66-5.62a49.24,49.24,0,0,0-1.22-4.85,24.33,24.33,0,0,1-1.31-6.82c-0.46-5.45-1.22-10.87-.09-16.31a5.89,5.89,0,0,0,.07-0.87,40,40,0,0,1,2.49-12.79c1-3,2-5.9,3-8.86a28.8,28.8,0,0,1,1.47-4.33c2.3-4.44,4.75-8.81,7.15-13.19,1-1.9,2.17-3.78,3.24-5.69a14.81,14.81,0,0,1,1.71-3c2.67-2.78,5.47-5.42,8.24-8.11a10.41,10.41,0,0,1,2-1.71q7.38-4.43,14.83-8.79a31.34,31.34,0,0,1,4.44-2.25c5.75-2.25,11.55-4.42,17.32-6.58,1.33-.5,2.36-1.12,2.12-2.82a5.2,5.2,0,0,1,.26-1.49,2.3,2.3,0,0,1,1.92-2.1,2.57,2.57,0,0,1,2.67,1.49,17.52,17.52,0,0,1,.83,1.71,11.19,11.19,0,0,0,5.88-1.2l0.87-5.07a4.4,4.4,0,0,0-3,0c-3.61.83-7.22,1.73-10.85,2.58a99.8,99.8,0,0,0-17.8,5.69,11.57,11.57,0,0,0-2,1,11.22,11.22,0,0,1,1.44-.28c0.83-.13,1.18,1.14.35,1.27a13.29,13.29,0,0,0-2.06.46,17.59,17.59,0,0,1,1.68.87,2.12,2.12,0,0,1,.39,3.5,2.39,2.39,0,0,1-3.19.37,2.3,2.3,0,0,1-1-2.65c0.09-.39.2-0.77,0.33-1.18a2.52,2.52,0,0,0-.37.31c-0.61.57-1.55-.35-0.92-0.92a5.42,5.42,0,0,1,.81-0.63,56.85,56.85,0,0,0-18.52,12.22,17.33,17.33,0,0,1,1.73,3,2.53,2.53,0,0,1-2,3.11c-1.62.2-2.45-.61-2.51-2.45,0-.42,0-0.83,0-1.57a19.33,19.33,0,0,0-1.82,1.16c-2.91,2.32-5.88,4.55-8.66,7-4.66,4.11-9,8.55-12,14-4.9,8.88-9.16,18-11.74,27.9a81.25,81.25,0,0,0-2.25,20.12c0,7,1.55,13.91,3.08,20.71a88.92,88.92,0,0,0,9,23.07,120.87,120.87,0,0,0,7.39,12.6c3.13,4.37,6,8.92,9.1,13.32a57.39,57.39,0,0,0,8.49,9.93c3.28,2.93,6.49,5.84,9.82,8.66a48.14,48.14,0,0,0,11.42,7.61c3.72,1.64,7.7,2.73,11.42,4.37,6.25,2.76,13,3.78,19.51,5.51a9.33,9.33,0,0,0,2.23,0c-0.37-1.9-.61-3.52,1.38-4.29a3.39,3.39,0,0,1,3.65.66c1.4,1.77,0,3-1.12,4.29,2.16,1.09,4.26.79,6.56,0.94-0.28-.61-0.48-1-0.63-1.36-0.68-1.62-.42-2.6,1.12-3.48a8.08,8.08,0,0,1,2.43-.87,1.76,1.76,0,0,1,2.1.79,2.61,2.61,0,0,1,0,2.89,10.27,10.27,0,0,1-1.42,1.33c-0.33.31-.66,0.66-1.25,1.25a54.26,54.26,0,0,0,6.36.83A71,71,0,0,0,491.85,369c5.82-1.62,11.48-3.76,17.19-5.71a11,11,0,0,0,1.68-.92,16.51,16.51,0,0,1-2.1-2.43,2.63,2.63,0,0,1,.74-3.52,2.7,2.7,0,0,1,3.24.22,2.62,2.62,0,0,1,.44,3.54c-0.26.44-.55,0.87-1.07,1.71a12.14,12.14,0,0,0,1.47-.35,100,100,0,0,0,13.16-7.7c4.66-3.06,9.27-6.23,13.08-10.45a69.92,69.92,0,0,0,9.18-11.9,61.62,61.62,0,0,0,6.36-16.66c1.2-5.16,2.08-10.41,3-15.64,0.2-1,.2-2.06.31-3.08l-0.55-.24a3.47,3.47,0,0,1-1,1.31,3.91,3.91,0,0,1-2.45,0c-1.2-.57-1.38-2.06-0.68-3.46,0.83-1.66,1.82-2.14,3.3-1.62,0.52,0.2,1,.42,1.55.63,1-3.65.9-16.9,0.44-19.83a0.4,0.4,0,0,0-.44-0.09h0ZM433.46,174c1.66,0,2.67.83,2.65,2.19a2.62,2.62,0,0,1-2.43,2.58,2.54,2.54,0,0,1-2.51-2.23A2.22,2.22,0,0,1,433.46,174Zm-25.72,12.6a2.44,2.44,0,0,1,2.36-2.36,2.72,2.72,0,0,1,2.41,2.65A2.43,2.43,0,0,1,410,189.1a2.56,2.56,0,0,1-2.27-2.49h0Zm-16.4,14.3a2.85,2.85,0,0,1,2.21,2.32,3.07,3.07,0,0,1-2.71,2.41,2.3,2.3,0,0,1-2-2.47A2.41,2.41,0,0,1,391.34,200.91Zm-8.22,9.6a2.77,2.77,0,0,1,2.84,2.67c0,1.25-1.82,2.56-3.56,2.56-1.53,0-2.14-.55-2.1-1.82,0-1.55,1.55-3.37,2.82-3.41h0Zm-4.55,11a1.23,1.23,0,0,1,.81,1.73c-0.48,1.62-1.79,2.43-3.17,3.11-0.87.44-1.92-.79-1.88-2.06a3.28,3.28,0,0,1,4.24-2.78h0Zm-7.92,14.72a7.14,7.14,0,0,1,3.35-3.85c1-.59,2.73.94,2.69,2.27a4,4,0,0,1-4.2,4,1.76,1.76,0,0,1-1.84-2.45h0Zm-2.84,15.83a5.41,5.41,0,0,1,2.71-4.42c1.75-1,3.87.39,3.85,2.65a7,7,0,0,1-2.27,4.16,2.74,2.74,0,0,1-3.06.2A2.41,2.41,0,0,1,367.81,252.1Zm-3.52,16.38a5.13,5.13,0,0,1,1.82-3.61,2.62,2.62,0,0,1,2-.42c1.14,0.28,2.3,2.36,2.17,3.52a4.13,4.13,0,0,1-2.8,3.32,3.23,3.23,0,0,1-.57.07A2.5,2.5,0,0,1,364.29,268.48Zm4,14.67c-0.85-.94-1.33-2-0.7-3.19a7.21,7.21,0,0,1,2.93-3.39,18.16,18.16,0,0,1,1.51,2.36,5.2,5.2,0,0,1,.55,2.27,2.4,2.4,0,0,1-1.49,2.45A2.32,2.32,0,0,1,368.31,283.16Zm4.09,12.07a4.33,4.33,0,0,1-.94-4.2,4.54,4.54,0,0,1,3.94-1.84c1,0.22,1.6,1.33,1.62,3.26a8.17,8.17,0,0,1-.22,1.47A2.72,2.72,0,0,1,372.4,295.23ZM379,308a3.13,3.13,0,0,1-3-3.28,4.69,4.69,0,0,1,1.95-3.48,1.58,1.58,0,0,1,2,0,5.06,5.06,0,0,1,2.06,3.87,2.64,2.64,0,0,1-3,2.89h0Zm13.27,21a3.18,3.18,0,0,1-3.43-3.39c0-1.25,1.88-2.8,3.24-2.69,1.18,0.09,2.45,1.92,2.43,3.5s-0.79,2.58-2.23,2.58h0Zm7.35,7.65c-2-.17-3.72-1.71-3.67-3.35s1.77-2.82,3.85-2.69,3,1,3,2.43c-0.09,2.41-1.29,3.76-3.13,3.61h0Zm9.12,8a3.66,3.66,0,0,1-3.65-.83,2.64,2.64,0,0,1-1-2.91,2.61,2.61,0,0,1,.46-1c1.14-1.27,2.56-.79,3.87-0.44a2.21,2.21,0,0,1,1.77,2.43,2.74,2.74,0,0,1-1.47,2.71h0Zm7.65,6.15c-1.84,0-3.13-1-3.11-2.32a3.38,3.38,0,0,1,3.21-2.89,2.76,2.76,0,0,1,2.86,2.65v0.2c0,1.53-1.07,2.36-3,2.36h0Zm12.18,5c-0.61,1.29-1.79,1.55-3.11,1.51-1.82-.09-2.76-0.9-2.93-2.54a2.4,2.4,0,0,1,1.33-2.49,5,5,0,0,1,4.09.74A2.42,2.42,0,0,1,428.63,355.87Zm20.18,9.6a4.93,4.93,0,0,1-1.66.92c-1.79-.13-3.06-0.37-3.7-1.77a1.48,1.48,0,0,1,1-2.23c1.33-.46,3.85.17,4.55,1.36A1.86,1.86,0,0,1,448.81,365.47Zm27,3.94a3.49,3.49,0,0,1-3.08-2.84c0-1.16,1.64-2.58,3-2.51s2.25,1.38,2.27,3a2.2,2.2,0,0,1-2.21,2.38h0Zm9.56-.66c-1.29,0-2.86-1.4-2.84-2.49s2.23-2.36,3.76-2.34A1.92,1.92,0,0,1,488,366a2.51,2.51,0,0,1-2.65,2.73h0Zm8.73-1.86a2.69,2.69,0,0,1-2.67-2.58c0-1.4,1.38-2.56,3.17-2.58a2.18,2.18,0,0,1,2.16,2.21,3.15,3.15,0,0,1-2.67,3h0Zm8.46-2.47c-1.4,0-2.16-1-2.19-2.71a2.07,2.07,0,0,1,2.14-2.23c1.2,0,3,1.51,3,2.51S504,364.42,502.58,364.42Zm15.46-8c-0.85-.09-2.69-2.19-2.71-3.11a2.22,2.22,0,0,1,2.12-2.27,3.63,3.63,0,0,1,3,3.26A2.69,2.69,0,0,1,518,356.42Zm8.42-5.62c-1.22,0-3.17-1.84-3.24-3.08s1.4-2.38,2.86-2.43,2.45,1,2.45,2.93a2.35,2.35,0,0,1-2.08,2.58h0Zm7.65-7.06c-1.14,0-2.76-1.86-2.71-3.21a2.46,2.46,0,0,1,2.32-2.41,3,3,0,0,1,2.58,2.76c0,1.33-1.16,2.82-2.19,2.86h0Zm6-6.67c-1.16,0-2.67-1.75-2.6-3a2.09,2.09,0,0,1,2.12-2c1.53,0,3.08,1.31,3,2.51A2.88,2.88,0,0,1,540.11,337.06Zm6.82-9.18a2.59,2.59,0,0,1-3,2.65c-2.21-.13-3-0.79-2.93-2.32a3.41,3.41,0,0,1,3.24-3.17A2.94,2.94,0,0,1,546.93,327.88Zm0-6c-1.16,0-3.06-2.21-3.06-3.5S545.6,316,547.5,316a3.06,3.06,0,0,1,2.51,2.8C550.11,320.11,548.31,321.91,546.93,321.88Zm8.77-16.75a2.91,2.91,0,0,1-3.11,2.67,2.12,2.12,0,0,1-2.25-2.12,3,3,0,0,1,2.65-2.93A3.06,3.06,0,0,1,555.7,305.13Zm0-20a3.13,3.13,0,0,1-2.8-2.86c0-1.44,1.38-3.28,2.62-3.35,1,0,2.43,1.82,2.45,3.24C558,283.81,557,285.12,555.68,285.15Zm-85-144.77c-1.29.15-2.12,0.31-3,.35-5.1.24-10.17,0.48-15.26,0.66-4.35.15-8.73,0.24-13.08,0.39-3.41.11-6.84,0.28-10.26,0.42-7,.28-14.08.5-21.15,0.87-5.1.26-10.17,0.68-15.24,1l-15.68,1.12c-0.83.07-1.66,0-2.73,0a5.76,5.76,0,0,1,.39-1.29,93.93,93.93,0,0,1,5.4-9.21A30.61,30.61,0,0,1,393,124.26c7.46-3.08,15-6.08,22.87-7.85a54.26,54.26,0,0,1,17.1-1.49,94.79,94.79,0,0,1,10.61,1.2,37.28,37.28,0,0,1,13.89,5.53,31.07,31.07,0,0,1,8.51,9c1.27,2,2.41,4.16,3.5,6.28a20.46,20.46,0,0,1,1.2,3.48h0ZM178.29,296.08a23.38,23.38,0,0,1-7-1.57c-4.26-1.64-6.47-4.85-7.52-9.08a3,3,0,0,0-.17-0.63c-1.84-3.76-1.27-7.65-.55-11.52,0.46-2.43.92-4.85,1.44-7.26a24.71,24.71,0,0,1,6.91-12.16c0.81-.83,1.53-1.75,2.34-2.58a5.46,5.46,0,0,1,1.31-1.14A59.23,59.23,0,0,1,186.8,245a18.07,18.07,0,0,1,4.75-.55,24.37,24.37,0,0,1,13.23,3.78,10,10,0,0,1,3.11,3.3c2,3.3,4,6.63,4.42,10.58a26.14,26.14,0,0,1-2,14.28c-3.37,7.19-9.16,12.07-15.94,15.9a9,9,0,0,1-2.25.83c-4.44,1-8.73,2.8-13.78,3h0ZM432.06,89.22c0-2.54,0-4.85,0-7.17,0.07-4.07.07-8.16,0.24-12.22,0.24-5.38.66-10.74,1-16.12,0.22-3.63.5-7.26,0.7-10.89a24.37,24.37,0,0,1,1.82-8.94A9.88,9.88,0,0,1,439.12,30,53.47,53.47,0,0,1,460.4,20.8c5.66-1,11.33-2,17-2.84,3.37-.52,6.78-0.83,10.19-1.22a8.77,8.77,0,0,1,1.31,0c1.79,0.11,2.08.68,1.33,2.36-1.12,2.51-2.21,5.07-3.26,7.63a9,9,0,0,0,.33,7.19c0.68,1.62.52,2-1.16,2.49-6.08,1.77-12.22,3.32-18.22,5.36C463.81,43.1,459.59,44.46,456,47a13.7,13.7,0,0,0-5.62,7.79c-1.51,5.51-1.92,11.17-2.41,16.82a71.12,71.12,0,0,0,.2,15.7c0.22,1.51-.13,1.86-1.88,1.88-4.64.09-9.29,0.07-14.21,0.07h0Z" transform="translate(0)"/><path class="cls-1" d="M626.89,171.65c0,0.07.07,0.13,0.09,0.2a1.41,1.41,0,0,1,.17-0.2A6.09,6.09,0,0,1,628,171a3.14,3.14,0,0,1-2.82-.28,0.86,0.86,0,0,1-.22-0.17l0.66,1.09A0.7,0.7,0,0,1,626.89,171.65ZM675.5,339c-0.2-3.11-.55-6.21-0.7-9.34-0.26-5.66-.37-11.33-0.61-17-0.28-6.76-.63-13.51-1-20.27a41.12,41.12,0,0,1-.28-5.66c0.26-2.91-.52-5.62-1-8.4-0.57-3.65-1.18-7.3-1.71-11-0.31-2.14-.42-4.33-0.74-6.47-0.35-2.3-1-4.55-1.31-6.84a124.48,124.48,0,0,0-4.11-18.52c-0.74-2.49-1.42-5-2.38-7.46-2-5.07-4.09-10.1-6.17-15.13-1.6-3.83-3.17-7.65-4.85-11.46q-2.66-6-5.51-11.85a70.08,70.08,0,0,0-4-7.74c-2.93-4.5-6.1-8.86-9.18-13.27a4.8,4.8,0,0,0-.31-0.39,0.58,0.58,0,0,1-.17.52,12.82,12.82,0,0,1-2.45,1.75,3.8,3.8,0,0,1,3.37.85,2.31,2.31,0,0,1,.63,3.43,5.55,5.55,0,0,1-.79,1.09,3.54,3.54,0,0,0,2.08-1.2,0.65,0.65,0,0,1,.92.92,4.6,4.6,0,0,1-3.24,1.62c-0.28,0-.57,0-0.85,0l0.15,0.13a0.67,0.67,0,0,1-.13,1c-0.39.22-.77,0.5-1.16,0.72a0.67,0.67,0,0,1-.9-0.24l-0.24-.39a1.43,1.43,0,0,0,.07.61c0.61,1.86,1.25,3.72,1.95,5.53s1.49,3.63,2.25,5.42c0.24,0.55.57,1,.9,1.71l1.92-5.16a3.3,3.3,0,0,0-1-.24c-1.44.22-2.14-.57-2.56-1.79a7.49,7.49,0,0,1-.61-2.08,5,5,0,0,1,.44-2.49,3.44,3.44,0,0,1,5-1c2.25,1.51,2.89,3.81,1.51,5.58-0.46.59-1,1.12-1.57,1.75a13.65,13.65,0,0,1,2.93.63c1.86,0.9,2.49,2.71,1.92,5.05a4.69,4.69,0,0,1-4.26,3.43c-0.68,0-1.38,0-2.45,0,0.42,1.16.68,2,1,2.86,1.4,3.26,2.91,6.49,4.2,9.8,1.55,4,2.23,8.24,4,12.18a62.53,62.53,0,0,1,3.24,10.17c1.27,5,2.23,10.06,3.46,15.07a31.38,31.38,0,0,0,2.23,6.8c2.08,4,2.36,8.38,3,12.64,0.77,4.88.7,9.86,1.18,14.78a91,91,0,0,1,.39,16.55,16.88,16.88,0,0,0,.28,3.46c0.39,3.24,1.29,6.43.85,9.75-0.83,6.17,0,12.33.09,18.48,0,0.28.07,0.59,0.09,0.87,0.35,3.48.83,6.93,1,10.41,0.11,1.92-.33,3.89-0.35,5.84,0,2.73.17,5.49,0.11,8.22-0.11,4.72-.33,9.45-0.48,14.17a18.06,18.06,0,0,0,.15,2c0.74-1,1.2-1.51,1.62-2.08a35.45,35.45,0,0,1,4.72-6,16.68,16.68,0,0,0,2.08-2.54,62.34,62.34,0,0,1,3.89-5.23c2.14-2.34,3.74-4.81,3.35-8.16a12.28,12.28,0,0,1,.17-1.51c0-1.66,0-3.35-.09-5h0Zm-5.77-46.1c0,2.12-2,3.72-4.77,3.72-2.23,0-3.43-1.79-3.52-4.75,0-1.62,1.84-3.61,4.16-3.65,1.82,0,4.13,2.65,4.13,4.68h0ZM640.2,200c0-2.25,1.47-4,3.46-4s4.07,1.92,4,3.59-2.58,4.13-4.46,4.13-3-1.33-3-3.74h0Zm3.89,13.82a8,8,0,0,1-.63-4.88,3.6,3.6,0,0,1,3.76-2.93,4.62,4.62,0,0,1,4,5.8,5.47,5.47,0,0,1-5.1,3.43A2.21,2.21,0,0,1,644.1,213.83Zm5.07,10.72a9.69,9.69,0,0,1-1.51-5.82,2.51,2.51,0,0,1,2.86-2.56c3.39,0.11,5.25,2.17,5.16,5.84a3.63,3.63,0,0,1-1.51,3.5,3.59,3.59,0,0,1-5-1h0Zm1.44,4.31c0.74-1.29,2-1.55,3.81-1.49l1.75,0.35c1.68,0.37,2.27,1.57,2.6,3.13a3.15,3.15,0,0,1-1.36,3.59A4.86,4.86,0,0,1,654,235.7C651.38,235.44,649.61,230.6,650.61,228.86ZM655,246.94c-1.64-1.71-2.84-3.7-2.14-6.3a3,3,0,0,1,2.38-2.27c2.36-.57,6,2.49,5.93,5.23-0.15.68-.33,1.38-0.55,2C659.56,248.45,657,249.11,655,246.94Zm1.9,8.83a5.53,5.53,0,0,1,4.83-5.14,4.77,4.77,0,0,1,4.37,4.33c0.09,2.93-1.77,4.85-4.83,4.94A4.25,4.25,0,0,1,656.87,255.78Zm1.27,11.68c-0.07-1.16-.46-2.49,1-3.26,1.73-.92,3.54-1.33,5.1,0a9.4,9.4,0,0,1,2.62,3.63c0.92,2.34-1.42,5.07-4.11,5.1a3.61,3.61,0,0,1-4-2.69,9,9,0,0,1-.63-2.73h0Zm1.49,14.94a20.53,20.53,0,0,1-1-3.3c0.2-2.3,1.38-3.59,3.63-3.67,2.43-.07,4.48.74,5.51,3.06a3.75,3.75,0,0,1,.15,2.86,8.68,8.68,0,0,1-2.8,3.17C663.14,285.82,660.76,284.84,659.62,282.39Zm0.74,21.06a4.1,4.1,0,0,1,4-4.24c3,0,6,2.19,5.88,4.59-0.11,2.78-2.12,4.68-5.69,4.81-2.3.11-4.2-2.34-4.18-5.16h0Zm5.75,7.06c1.88,0,4.13,2.69,4.18,4.94,0,2.58-1.79,4.07-5.07,4.07a4,4,0,0,1-4.29-4.37C661,312.77,663.54,310.47,666.12,310.51ZM661,326.85a5.14,5.14,0,0,1,4.72-5c3.72-.07,5.12,2.65,5.29,5.42,0.15,2.56-2.06,4.53-4.79,4.59-2.36,0-5.18-2.69-5.23-5h0Zm6.32,6c2.16,0,4.09,1.79,4,3.7-0.07,2.71-2.32,5.14-4.7,5a4.46,4.46,0,0,1-4.09-4.53c0-2.65,1.84-4.24,4.75-4.2h0Zm1.79,21.34c-2.71,1.51-5.84-1.62-5.82-4.11a17.92,17.92,0,0,1,1-3.06,3.14,3.14,0,0,1,4.59-1.42,5.28,5.28,0,0,1,3,4.75c0,1.88-1.18,3-2.76,3.85h0Z" transform="translate(0)"/><path class="cls-3" d="M217.9,263.12a0.69,0.69,0,0,1-.57.79,0.76,0.76,0,0,1-.52-0.13,13.24,13.24,0,0,0-.31,2.62,22.59,22.59,0,0,1-1.75,9.16,36.45,36.45,0,0,1-10.23,14c-3.85,3.13-7.76,6.15-12.62,7.52-1.12.31-2.3,0.39-3.39,0.77a28.85,28.85,0,0,1-17,.35,16.6,16.6,0,0,1-7.3-4,25.4,25.4,0,0,1-2.67-3.37c-1.44-1.82-2.86-3.7-2.45-6.28a1.65,1.65,0,0,0-.15-0.85c-0.94-1.95-.57-4-0.42-6,0.18-2.32.79-4.59,0.81-6.89,0-3.67,1.53-6.93,2.71-10.26a18.11,18.11,0,0,1,2.19-3.76c1.07-1.55,2.27-3,3.41-4.53a24.77,24.77,0,0,1,11.17-8.77c2.19-.83,4.4-1.57,6.56-2.45a15.43,15.43,0,0,0,2.19-1.22,6,6,0,0,0-2.89,1c-0.7.48-1.36-.66-0.66-1.14a8.85,8.85,0,0,1,.77-0.46,22.9,22.9,0,0,0-9.56,3.59A43.32,43.32,0,0,0,156.32,274c-0.37,4.29-.59,8.62.87,12.77,0.85,2.45,1.47,5,3.35,7a30.07,30.07,0,0,0,5.53,4.85c2.54,1.62,5.07,3.08,8.14,3.48a36.36,36.36,0,0,0,4.48.79c3.21,0,6.45-.17,9.64-0.48a21.81,21.81,0,0,0,5.95-1.22,56.73,56.73,0,0,0,10.1-5.07c6.23-4.11,10.67-9.36,12.47-16.69,0.52-2.12,1.2-4.2,1.66-6.32,0.81-3.65,1.09-7.35-.81-10.82Z" transform="translate(0)"/><path class="cls-3" d="M380.82,65.89c-2.38.24-2.41,0.42-2.51,2.86-0.24,5.93-.57,11.87-0.77,17.82-0.07,2.08.15,4.16,0.26,6.67h0c3-.61,5.55-1.12,8.09-1.64,2.14-.44,2.1-0.46,2.17-2.71,0.07-2.91.2-5.82,0.37-8.7,0.22-3.83.59-7.65,0.77-11.5,0.11-2.32-.35-2.82-2.73-3A32.45,32.45,0,0,0,380.82,65.89Z" transform="translate(0)"/><path class="cls-3" d="M382.55,62.94c2-.09,4.07.07,6.1,0.07a45.46,45.46,0,0,0,5.18-.09c2.3-.26,2.45-0.59,2.47-3s-0.35-2.71-2.6-2.47c-4,.44-8.07.83-12.09,1.33a15.89,15.89,0,0,0-3.76,1c-1.77.7-2.06,1.77-1.31,3.67C378.59,63.27,380.56,63,382.55,62.94Z" transform="translate(0)"/><path class="cls-3" d="M558.26,246.88a12.55,12.55,0,0,0-.79,1.09,4.2,4.2,0,0,1-.52,1.18,3.87,3.87,0,0,1-1.95,1.12c-0.46,0-1-.85-1.38-1.42a4.49,4.49,0,0,1-.48-1.44,2.35,2.35,0,0,1,3.11-2.86c0.59,0.17,1.18.42,2.17,0.74-0.11-1.79-.13-3.21-0.31-4.61-0.15-1.16.42-2.51-.42-3.72,0.09,0.68.15,1.38,0.18,2.06a0.66,0.66,0,0,1-1.31,0,11.88,11.88,0,0,0-.09-1.25,8.09,8.09,0,0,1-.46.85,2,2,0,0,1-3,.81,3.6,3.6,0,0,1-.33-4.75,1.8,1.8,0,0,1,2.69-.5,7.36,7.36,0,0,1,.79.46v-0.44c0-.83,1.36-0.85,1.31,0a12.53,12.53,0,0,0,0,1.29l0.07,0a8.71,8.71,0,0,0,.18-1.64c-0.11-1.09-.33-2.16-0.5-3.24-0.66-4.22-1.29-8.46-2-12.68a1.37,1.37,0,0,0-1.36-1.4,16.2,16.2,0,0,1-1.38,2.51c-1.33,1.71-2.82,1.47-3.61-.52a6.73,6.73,0,0,1-.37-1.49,2.71,2.71,0,0,1,3.56-3.21l1.57,0.37a4.85,4.85,0,0,0,0-1.4c-0.52-1.6-1-3.19-1.66-4.72-1.22-2.8-2.49-5.58-3.89-8.29a13.32,13.32,0,0,0-2.54-3.67,8.87,8.87,0,0,1,.15,1.53,0.66,0.66,0,0,1-1.25.26,0.63,0.63,0,0,1-1-.48c0-.22,0-0.46.09-0.68a11,11,0,0,1-2.45.9,2.09,2.09,0,0,1-2.6-2,2.29,2.29,0,0,1,1.84-2.76l0.61-.2-1-.31c-0.79-.26-0.46-1.53.35-1.27,0.31,0.11.61,0.2,0.94,0.28a0.6,0.6,0,0,1,.79-0.28,0.3,0.3,0,0,1,.09.07c0.26,0.17.5,0.35,0.74,0.52a12.94,12.94,0,0,0-1-1.44c-1.27-1.49-2.56-3-3.89-4.42-0.83-.9-1.75-1.76-2.63-2.61,0.37,0.82.73,1.64,1.08,2.48,0.52,1.25.39,1.73-.72,2.58h0a11.81,11.81,0,0,1-1.09.72c-0.83.48-1.68,0.94-2.62,0.28a2.83,2.83,0,0,1-.57-3,8.7,8.7,0,0,1,2-2.23,7,7,0,0,1,1.93-.85l0,0a14.73,14.73,0,0,0-4.68-5.1c-2.3-1.53-4.59-3.08-6.91-4.59-2.54-1.68-2.56-1.66-4.61.7a1,1,0,0,1-.15.15,3.65,3.65,0,0,1-5.6-.81,2.2,2.2,0,0,1,.68-3.06c0.46-.39.94-0.79,1.6-1.36-2.19-.94-3.89-2.19-6.25-2.41-0.11,1-.22,1.84-0.31,2.69a1.92,1.92,0,0,1-1.77,1.88,3,3,0,0,1-3.63-2,1.61,1.61,0,0,1,1.09-2.41c0.63-.22,1.29-0.37,1.95-0.55a1.75,1.75,0,0,0-.15-0.48,27.8,27.8,0,0,0-9.34-1.73,1.57,1.57,0,0,0-1.16,1c-0.37,1.27-.57,2.6-0.81,3.83,3.37,1,6.87,2,10.26,3.24,4,1.42,7.46,3.83,11,6.12,2.17,1.42,4,3.28,6.47,4.31a4.87,4.87,0,0,1,1.62,1.12c2.62,2.71,5.31,5.38,7.83,8.18s4.16,6.47,6.08,9.8a92.12,92.12,0,0,1,6,13,64.21,64.21,0,0,1,2.51,8.33c1.2,5.16,2.3,10.37,3.3,15.57,0.46,2.34.61,4.77,0.87,7.15,0.28,2.6.55,5.2,0.85,7.79,0.11,0.94.28,1.86,0.42,2.8s0.26,1.79.37,2.67l0.33,0.44c1.2-1.84,2.82-2,4.68-1.53C559.18,254.33,559,250.81,558.26,246.88Zm-31.73-65.08a2.25,2.25,0,0,1-2.6-1c-0.87-1.2-1-2.41-.28-3.15a2.3,2.3,0,0,1,1.62-.81,17,17,0,0,1,3.15,1.73,1.19,1.19,0,0,1,.28.61A3.37,3.37,0,0,1,526.53,181.79Zm19.83,30.27h0a2.54,2.54,0,0,1-2.3-2c-0.22-.61-0.33-1.25-0.42-1.55,0-2,.92-2.84,2.58-2.71,4.68,0.39,4.42,1.36,2.47,4.64C548.16,211.36,547.57,212.13,546.37,212.06ZM550,228.44h0a3.49,3.49,0,0,1,.13-3.35,2.06,2.06,0,0,1,3.54.35,11.7,11.7,0,0,1,.46,1.77c0,1.77-.59,2.56-1.73,2.78A2.39,2.39,0,0,1,550,228.44Z" transform="translate(0)"/><path class="cls-3" d="M311.52,250.75c-1.07-1.64-2.12-3.48-3.65-4.55a22.14,22.14,0,0,0-8.27-3.81c-3.06-.61-6.06-1.55-9.12-2.12a51,51,0,0,0-7.94-.92,13.6,13.6,0,0,0-6.93,1.6c-5.34,2.89-10.63,5.75-14.17,10.91a32.84,32.84,0,0,0-4,7,50.75,50.75,0,0,0-2.8,22.55,24.62,24.62,0,0,0,4.2,11.13c3.39,5.25,8.73,7.94,14.35,10.13a35.68,35.68,0,0,0,13.71,2,22.81,22.81,0,0,0,7.63-1.44,36.07,36.07,0,0,0,12.42-7.92,26.35,26.35,0,0,0,4.83-5.86A36,36,0,0,0,316.57,276c0.24-2.08.39-4.18,0.57-6.28h0a28,28,0,0,0-3.3-14.52C313,253.72,312.44,252.12,311.52,250.75Zm2.6,17.06c-0.2,2,0,4,0,6.08-0.07,7.22-3.7,12.73-8.66,17.45-4.66,4.44-10.41,6.69-16.64,8.11a27.2,27.2,0,0,1-11.87,0,30.31,30.31,0,0,1-12.73-5.88,17.38,17.38,0,0,1-2.91-3.78c-2.1-3-2.78-6.45-3.24-10a27,27,0,0,1,1.4-12.25c1-3,2-5.95,3-8.9a10.59,10.59,0,0,1,3.21-4.59c1.71-1.47,3.3-3.06,5-4.53a20.33,20.33,0,0,1,12.68-5.16c0.87,0,1.75-.09,2.62-0.13h0a35.85,35.85,0,0,1,11,1.57c1.88,0.59,3.76,1.14,5.62,1.75a3.56,3.56,0,0,1,1.33.7,41.46,41.46,0,0,1,7.06,8,33.61,33.61,0,0,1,2.32,5.64A12.55,12.55,0,0,1,314.12,267.8Z" transform="translate(0)"/><path class="cls-3" d="M471.79,122c-0.83-.7-1.62-1.44-2.41-2.21a43,43,0,0,0-13.89-8.86,30.62,30.62,0,0,0-4-1.2c-3.85-1-7.68-2.51-11.61-2.84-6.06-.48-12.2-0.77-18.28.44A35.68,35.68,0,0,1,418,108a67,67,0,0,0-13.6,3.06,91.21,91.21,0,0,0-16.62,6.56c-2.76,1.47-5.53,2.93-8.16,4.64-3.21,2.08-5.6,5-7.92,8a42.11,42.11,0,0,0-6.82,14.3,4.13,4.13,0,0,0,0,1.18,15.8,15.8,0,0,0,1.73.28c2.45,0.13,3-.2,4-2.45,0.55-1.2,1-2.41,1.49-3.65a22.06,22.06,0,0,1,8-10.91c6.06-4.37,12.2-8.7,19.46-11,2.12-.68,4.09-1.92,6.23-2.56a76.87,76.87,0,0,1,10.78-2.67c4.88-.74,9.82-1.09,14.74-1.44s10,0.9,14.94,1.57a41.51,41.51,0,0,1,7.39,1.84c4,1.33,7.26,4.09,10.15,7a43.62,43.62,0,0,1,10.26,15.79c1,2.73,1.84,3.13,4.59,2.3h0a0.62,0.62,0,0,0,.15-0.35c-0.15-.92-0.31-1.86-0.48-2.78C477.33,131.34,476.36,125.88,471.79,122Z" transform="translate(0)"/><path class="cls-1" d="M625.14,160.93l-0.11-.07c-0.68-.48,0-1.62.66-1.14a12.08,12.08,0,0,1,1.53,1.27,3.79,3.79,0,0,0-3.13-3.46c-1.4-.35-2.78-0.83-4.16-1.27l-10.5-3.41-0.28.44,12.16,11.59,0.09-.09a8.48,8.48,0,0,1-.57-0.68c-0.55-.66,2.93-2.84,4.31-3.19h0Z" transform="translate(0)"/><path class="cls-3" d="M493.55,20a25.62,25.62,0,0,1,.61,3.59c0.11,2.76.09,5.53,0.07,8.29a2.31,2.31,0,0,1-2,2.19c-0.87.11-1.53-.42-1.88-1.73-0.85-3.24-.13-6.34,1-9.38a28.42,28.42,0,0,1,1.55-3Zm-10.32,144.4a21.71,21.71,0,0,1,7.94-.26c-0.11,1.18-.2,2.38-0.35,3.59a1.21,1.21,0,0,1-1.36,1.14H481.9Zm-5.16.35c-0.2,1.79-.2,1.79,1.38,4.16l-9.18,1c0.28-1.73,1.33-3.21-.31-4.4,1.42-.72,5.84-1.12,8.11-0.79h0Zm-17.93,7-1.42-4.35c2.14-1.62,4.77-1.68,7.65-1.75-0.7,1.75-1,3.3,1.31,4.46A23,23,0,0,1,460.14,171.73ZM206.92,243a15.2,15.2,0,0,0-3.32-2.38c-3.61-1.6-7.46-1.75-11.31-1.79a11.48,11.48,0,0,0,2.45.07c0.83-.09.83,1.22,0,1.31l-0.22,0a35.91,35.91,0,0,1,4,.85,62.89,62.89,0,0,1,7,2.69c-0.13-.13-0.28-0.26-0.42-0.37-0.63-.55.28-1.49,0.92-0.92,0.37,0.31.72,0.63,1,1a0.67,0.67,0,0,0-.15-0.44h0Zm432.41-52.81a5.62,5.62,0,0,1-.26,1.2,0.89,0.89,0,0,1-1.38.52,0.91,0.91,0,0,1-.07-1.49,4.78,4.78,0,0,1,1.33-.68l0.37,0.44h0Z" transform="translate(0)"/><path class="cls-2" d="M346.6,277.93c-1.71-.13-2.41-1.25-1.51-2.69a7.33,7.33,0,0,1,2-1.95,1.53,1.53,0,0,1,2,.37,1.54,1.54,0,0,1,.44,1.77c-0.57,1.64-1.62,2.58-2.91,2.49h0Zm-12.64.55a1.34,1.34,0,0,1-1.57-1.55,2.71,2.71,0,0,1,3-2.73,2.22,2.22,0,0,1,1.88,2.23C337.37,277.84,335.88,278.15,334,278.48Zm-86-1.77c-0.13,1.68-2.67,3.5-3.91,3.08a2,2,0,0,1-.63-3.11,3.89,3.89,0,0,1,3.59-.92,4,4,0,0,1,1,.94h0Zm-12.51,4c-1.57,0-2.17-.81-1.77-2.14a3.06,3.06,0,0,1,2.3-2.1,1.86,1.86,0,0,1,2.1.79,1.62,1.62,0,0,1,.28,1.36,4.08,4.08,0,0,1-2.91,2.1h0Zm-8.75-.37a3.53,3.53,0,0,1-1.49-1.09,1.41,1.41,0,0,1,1.14-2c0.83-.24,1.6-0.66,2.45-0.9s1.22,0.26,1.22,1.07a3.51,3.51,0,0,1-3.32,2.89h0Zm128.41-6.91a1.26,1.26,0,0,1,1.47,1.47,2.13,2.13,0,0,1-1.88,2.25,1.77,1.77,0,0,1-1.9-1.66A2.14,2.14,0,0,1,355.12,273.38ZM327,275a1.56,1.56,0,0,1,1.55,1.47,3.38,3.38,0,0,1-2.32,2.32,1.58,1.58,0,0,1-1.75-1.71c0-1.16,1-2,2.51-2.08h0Zm249-16.27a15.25,15.25,0,0,1-1.47-2,2.38,2.38,0,0,1,1.09-3,2.76,2.76,0,0,1,3.15.7,1.41,1.41,0,0,1-.09,2C577.92,257.2,577.07,257.85,576,258.77Zm16.45-4.42c0-1.4.85-2.38,2-2.36a2.62,2.62,0,0,1,2.47,2,3.25,3.25,0,0,1-2.71,2.67,2.06,2.06,0,0,1-1.75-2.34h0Zm-7.63,2.76c-1.2,0-1.77-.61-1.82-1.92a2.37,2.37,0,0,1,2.3-2.45h0.17a1.76,1.76,0,0,1,1.88,1.66,2.59,2.59,0,0,1-2.47,2.69A0.08,0.08,0,0,1,584.81,257.11ZM291.16,204.49a2.31,2.31,0,0,1,2.23-2.41,1.65,1.65,0,0,1,1.77,1.73c0,1.36-1.27,3-2.36,2.91a2.21,2.21,0,0,1-1.64-2.23h0Zm330.89,46.19c1.27,0.07,2.08,2.17,1.16,3.32a4.44,4.44,0,0,1-1.95,1.27,1.78,1.78,0,0,1-1.42-.66c-0.61-.81-0.17-1.64.24-2.43a2.43,2.43,0,0,1,2-1.51h0ZM297.17,158.22a3.56,3.56,0,0,1-3.26,1.27c-1.55-.26-2-1.38-1.22-2.71,1-1.68,2.76-1.71,3.78,0,0.26,0.48.48,1,.7,1.49h0Zm-0.35,36.72c0.09,1.47-1.92,3.3-3.08,3.13a1.21,1.21,0,0,1-1.07-1.38,3.2,3.2,0,0,1,1.49-2.73,2,2,0,0,1,1.55-.42A4,4,0,0,1,296.82,194.94Zm308.54,58.15c0,1.44-1,2.71-2,2.69a2.5,2.5,0,0,1-1.95-2.27,2.47,2.47,0,0,1,2.12-2.36A1.74,1.74,0,0,1,605.37,253.09Zm-309.92-34.4a2.78,2.78,0,0,1-3.24,2.43,1.52,1.52,0,0,1-.85-0.83,3.28,3.28,0,0,1,1.82-3.39A1.73,1.73,0,0,1,295.45,218.69Zm-3.72-6.49a2.91,2.91,0,0,1,2.27-2.93,1.88,1.88,0,0,1,1.16.42,1.52,1.52,0,0,1,.2,2.3c-0.85,1.27-2.08,2-2.8,1.47A3.53,3.53,0,0,1,291.73,212.19Zm2.41,12a3.08,3.08,0,0,1,0,3.24,2.31,2.31,0,0,1-1.62,1.09,1.85,1.85,0,0,1-1.6-.74,2.38,2.38,0,0,1,.31-1.95,2.94,2.94,0,0,1,2.89-1.64h0Zm0,10.5a4.32,4.32,0,0,1-1.6.52,2.41,2.41,0,0,1-1.62-.81,2.36,2.36,0,0,1-.07-1.82,2.48,2.48,0,0,1,1.16-1.25,2,2,0,0,1,1.6-.24,2.67,2.67,0,0,1,.57,1.44,3,3,0,0,1,0,.44v1.71h0Zm2.23-56.62a7.73,7.73,0,0,1,1.79,1.25c0.57,0.72,0,1.33-.52,1.86a6.39,6.39,0,0,1-.83.7c-0.72.48-1.49,1-2.32,0.28a2,2,0,0,1,0-2.58A9.35,9.35,0,0,1,296.36,178.05Zm0.77-12.64a5.91,5.91,0,0,1-1.57,1.25,4,4,0,0,1-2,.07,1.51,1.51,0,0,1-.37-1.12,2.6,2.6,0,0,1,1.75-2.27C295.84,162.92,297.15,164,297.13,165.41Zm0.22,7.06a2.41,2.41,0,0,1-2.58,2.36,1.25,1.25,0,0,1-1.12-1.73,4.75,4.75,0,0,1,1.49-1.79c1.18-.81,2.17-0.24,2.21,1.16h0Zm-3.76,16.6a3.43,3.43,0,0,1-.87-1.2c-0.2-.87,1.4-2.3,2.45-2.32a1.36,1.36,0,0,1,1.25,1.47c0,0.81-1.51,2.06-2.82,2.06h0ZM487.23,378.2c0,1.68-2.58,3.17-3.7,2.51a0.53,0.53,0,0,1-.17-0.13,1.75,1.75,0,0,1-.17-2.21c0.57-1,1.88-1.9,2.62-1.53A6.55,6.55,0,0,1,487.23,378.2Zm-2.56,11.52c-0.57-.79-1-1.4-1.44-2.06a1.63,1.63,0,0,1,.35-2.17,3.26,3.26,0,0,1,2.12-.7c1.07,0.09,1.51,1.55.83,2.62A24.55,24.55,0,0,1,484.67,389.72ZM127.89,274.43a4.33,4.33,0,0,1-4,2.43c-1.53,0-2.17-1.14-1.49-2.51a3.15,3.15,0,0,1,2.8-1.75A2.78,2.78,0,0,1,127.89,274.43Zm6.8-3.26a2.71,2.71,0,0,1,2.54,2c0.07,0.94-1.55,2.27-2.78,2.3-1.53,0-2.6-.83-2.54-2.06A2.68,2.68,0,0,1,134.69,271.17Zm10,2.89a6.1,6.1,0,0,1-1.88-1.42,1.87,1.87,0,0,1,.7-2.27c1.42-1.27,3-1.14,3.83.28,0.63,1.16.48,1.82-.68,2.51-0.52.31-1.14,0.52-2,.9h0Zm32.93,71.75a5.08,5.08,0,0,1-1.38-1c-0.66-.92-0.17-1.79.44-2.56s1.53-1.86,2.71-1.27a6.83,6.83,0,0,1,2,2.12,1.13,1.13,0,0,1-.22,1,4.64,4.64,0,0,1-3.52,1.73h0Zm-0.39,11.09a2.55,2.55,0,0,1-2.43-1.57c-0.35-1.09.33-1.75,1.12-2.32a2.08,2.08,0,0,1,.37-0.22c0.79-.42,1.53-1.25,2.54-0.42a3.2,3.2,0,0,1,.72,3A2.33,2.33,0,0,1,177.18,356.9ZM182.06,332a3,3,0,0,1-2.91,2.89,2,2,0,0,1-1.62-2.71,5.51,5.51,0,0,1,2-2.14c1.18-.68,2.49.42,2.54,2h0Zm-6.17-8.24a3.53,3.53,0,0,1,2.23-3.61,1.87,1.87,0,0,1,2.71.9c0.42,0.83.09,1.68-1,2.23s-2.43,1.29-3.89.48h0Zm0.59,44.5c-1.31,0-2-.55-2-1.71a2.74,2.74,0,0,1,2.32-2.49c1.16-.09,1.9.74,1.9,2.12a2,2,0,0,1-2.23,2.08h0Zm3-55.92c0,1.38-.2,2.08-1.16,2.36-1.16.35-2.54,0.07-2.93-.74a2,2,0,0,1,0-1.42,2.19,2.19,0,0,1,.94-1.14c0.72-.39,1.71-1,2.27-0.77s0.77,1.38.92,1.71h0Zm194.94-62a7,7,0,0,1-2.27,4.16,2.74,2.74,0,0,1-3.06.2,2.35,2.35,0,0,1-1.2-2.56,5.41,5.41,0,0,1,2.71-4.42c1.75-1.07,3.85.37,3.83,2.62h0Zm25.5,80.32c2,0.13,3,1,3,2.43-0.11,2.38-1.29,3.76-3.15,3.61-2-.17-3.72-1.71-3.67-3.35s1.79-2.82,3.87-2.69h0Zm-17.8-25.52a2.67,2.67,0,0,1-3,2.89,3.13,3.13,0,0,1-3-3.28,4.69,4.69,0,0,1,1.95-3.48,1.58,1.58,0,0,1,2,0,5.15,5.15,0,0,1,2.08,3.87h0Zm-15.18-33.79a2.48,2.48,0,0,1-2.6-2.89,5.13,5.13,0,0,1,1.82-3.61,2.62,2.62,0,0,1,2-.42c1.14,0.28,2.3,2.36,2.17,3.52a4.13,4.13,0,0,1-2.8,3.32A2.82,2.82,0,0,1,366.89,271.35ZM377,292.45a6.61,6.61,0,0,1-.24,1.47,2.7,2.7,0,0,1-4.4,1.29,4.33,4.33,0,0,1-.94-4.2,4.54,4.54,0,0,1,3.94-1.84C376.4,289.41,377,290.52,377,292.45Zm-4.53-53.73a1.76,1.76,0,0,1-1.86-2.45,7.14,7.14,0,0,1,3.35-3.85c1-.59,2.73.94,2.69,2.27a4,4,0,0,1-4.18,4h0ZM410.28,342a2.84,2.84,0,0,1-1.49,2.73,3.66,3.66,0,0,1-3.65-.83,2.64,2.64,0,0,1-1-2.91,2.61,2.61,0,0,1,.46-1c1.14-1.27,2.56-.79,3.87-0.44a2.17,2.17,0,0,1,1.79,2.41h0Zm-39.74-65.37a18.16,18.16,0,0,1,1.51,2.36,5.2,5.2,0,0,1,.55,2.27,2.4,2.4,0,0,1-1.49,2.45,2.35,2.35,0,0,1-2.8-.52c-0.85-.94-1.33-2-0.7-3.19A7.27,7.27,0,0,1,370.54,276.59ZM547.5,316a3.06,3.06,0,0,1,2.51,2.8c0.09,1.33-1.73,3.13-3.08,3.11-1.16,0-3.06-2.21-3.06-3.5S545.6,316,547.5,316ZM394.55,326.41c0,1.68-.81,2.6-2.23,2.6a3.18,3.18,0,0,1-3.43-3.39c0-1.25,1.88-2.8,3.24-2.69,1.2,0.09,2.47,1.9,2.43,3.48h0Zm31,30.94c-1.82-.09-2.76-0.9-2.93-2.54a2.4,2.4,0,0,1,1.33-2.49,5,5,0,0,1,4.09.74,2.45,2.45,0,0,1,.59,2.8c-0.61,1.29-1.79,1.53-3.08,1.49h0ZM544,330.52c-2.21-.13-3-0.79-2.93-2.32a3.41,3.41,0,0,1,3.24-3.17,3,3,0,0,1,2.69,2.84,2.63,2.63,0,0,1-3,2.65h0ZM416.47,350.84c-1.84,0-3.13-1-3.11-2.32a3.38,3.38,0,0,1,3.21-2.89,2.76,2.76,0,0,1,2.86,2.65v0.2c0,1.53-1.09,2.36-3,2.36h0ZM558,282.17c0,1.64-1,3-2.25,3a3.13,3.13,0,0,1-2.8-2.86c0-1.44,1.38-3.28,2.62-3.35C556.53,278.87,557.93,280.75,558,282.17ZM382.39,215.71c-1.53,0-2.14-.55-2.1-1.82,0-1.53,1.57-3.35,2.84-3.39a2.77,2.77,0,0,1,2.84,2.67C386,214.4,384.12,215.71,382.39,215.71Zm143.7,129.57c1.53,0,2.45,1,2.45,2.93a2.35,2.35,0,0,1-2.08,2.58c-1.22,0-3.17-1.84-3.24-3.08s1.4-2.41,2.86-2.43h0ZM478,367a2.2,2.2,0,0,1-2.19,2.41,3.49,3.49,0,0,1-3.08-2.84c0-1.16,1.64-2.58,3-2.51C477,364.09,478,365.42,478,367Zm16.6-5.29a2.18,2.18,0,0,1,2.16,2.21,3.15,3.15,0,0,1-2.67,3,2.69,2.69,0,0,1-2.67-2.58c0-1.4,1.38-2.54,3.17-2.58h0Zm58-53.93a2.12,2.12,0,0,1-2.25-2.12,3,3,0,0,1,2.65-2.93c1.16,0,2.71,1.36,2.71,2.38A2.89,2.89,0,0,1,552.6,307.78Zm-16.29,33.09c0,1.31-1.16,2.82-2.19,2.86s-2.76-1.86-2.71-3.21a2.46,2.46,0,0,1,2.32-2.41,2.93,2.93,0,0,1,2.58,2.76h0Zm6.36-6.34a2.86,2.86,0,0,1-2.56,2.54c-1.16,0-2.67-1.75-2.6-3a2.09,2.09,0,0,1,2.12-2C541.16,332,542.71,333.32,542.67,334.52ZM517.46,351a3.63,3.63,0,0,1,3,3.26,2.66,2.66,0,0,1-2.36,2.14c-0.85-.09-2.69-2.19-2.71-3.11a2.24,2.24,0,0,1,2.12-2.3h0Zm-29.39,15a2.54,2.54,0,0,1-2.65,2.76c-1.29,0-2.86-1.4-2.84-2.49s2.23-2.36,3.76-2.34a1.92,1.92,0,0,1,1.73,2.08h0Zm-40.92.39c-1.79-.13-3.06-0.37-3.7-1.77a1.48,1.48,0,0,1,1-2.23c1.33-.46,3.85.17,4.55,1.36a1.86,1.86,0,0,1-.13,1.73,5.22,5.22,0,0,1-1.68.92h0Zm55.44-2c-1.4,0-2.16-1-2.19-2.71a2.07,2.07,0,0,1,2.14-2.23c1.2,0,3,1.51,3,2.51S504,364.42,502.58,364.4ZM374.35,224.33a3.25,3.25,0,0,1,4.24-2.76,1.23,1.23,0,0,1,.81,1.73c-0.48,1.62-1.79,2.43-3.17,3.11C375.35,226.8,374.3,225.6,374.35,224.33ZM433.46,174c1.66,0,2.67.83,2.65,2.19a2.62,2.62,0,0,1-2.43,2.58,2.54,2.54,0,0,1-2.51-2.23A2.22,2.22,0,0,1,433.46,174Zm-25.72,12.6a2.44,2.44,0,0,1,2.36-2.36,2.72,2.72,0,0,1,2.41,2.65A2.43,2.43,0,0,1,410,189.1a2.56,2.56,0,0,1-2.27-2.49h0Zm-16.4,14.3a2.85,2.85,0,0,1,2.21,2.32,3.07,3.07,0,0,1-2.71,2.41,2.3,2.3,0,0,1-2-2.47A2.41,2.41,0,0,1,391.34,200.91ZM665.68,321.84c3.72-.07,5.12,2.65,5.29,5.42,0.15,2.56-2.06,4.53-4.79,4.59-2.32.07-5.16-2.69-5.2-5A5.1,5.1,0,0,1,665.68,321.84Zm1.22,6.34c0-1.92-.13-2.12-1.95-2.54C664.48,327.48,665,328.2,666.91,328.18Zm-6.54-24.73a4.1,4.1,0,0,1,4-4.24c3,0,6,2.19,5.88,4.59-0.11,2.78-2.12,4.68-5.69,4.81-2.3.11-4.2-2.34-4.18-5.16h0Zm5-.5c-1.07.37-1.31,1-.94,1.6a1,1,0,0,0,1.71.15Zm-6.69-23.86c0.2-2.3,1.38-3.59,3.63-3.67,2.43-.07,4.48.74,5.51,3.06a3.75,3.75,0,0,1,.15,2.86,8.68,8.68,0,0,1-2.8,3.17c-2,1.29-4.37.28-5.51-2.14a17.32,17.32,0,0,1-1-3.28h0Zm5.31,2.47a2.74,2.74,0,0,0,.22-1.33,4.46,4.46,0,0,0-1.16-1.4,1.24,1.24,0,0,0-.83.48,1.41,1.41,0,0,0,.46,1.92A4.78,4.78,0,0,0,664,281.56Zm-2.25-30.9a5.53,5.53,0,0,0-4.83,5.14,4.27,4.27,0,0,0,4.37,4.13c3-.11,4.9-2,4.83-4.94A4.75,4.75,0,0,0,661.7,250.66ZM661.2,256a0.16,0.16,0,0,1-.11,0l0.13,0.39-0.68.22c-0.77-.44-1.2-1,0-2.1l0.13,0.42a0.59,0.59,0,0,1,.48-0.22,0.66,0.66,0,0,1,0,1.31h0Zm1.55,16.9a3.61,3.61,0,0,1-4-2.69,9.75,9.75,0,0,1-.63-2.73c-0.07-1.16-.46-2.49,1-3.26,1.73-.92,3.54-1.33,5.1,0a9.4,9.4,0,0,1,2.62,3.63c0.92,2.34-1.42,5.07-4.11,5.1h0Zm-0.22-6c-0.55.68-1.14,1.14-1,1.36a5.68,5.68,0,0,0,1,1.42,2.44,2.44,0,0,0,.92-0.94,7,7,0,0,0-.92-1.84h0Zm2.67,52.59a4,4,0,0,1-4.29-4.37c0-2.36,2.6-4.68,5.18-4.61,1.88,0,4.13,2.69,4.18,4.94C670.34,318,668.48,319.52,665.2,319.5Zm1.62-4.42a5,5,0,0,0-1.49-.94,2.83,2.83,0,0,0-.81.94,5.06,5.06,0,0,0,1.25.85A2.86,2.86,0,0,0,666.82,315.08ZM655.69,222a3.63,3.63,0,0,1-1.51,3.5,3.59,3.59,0,0,1-5-1,9.69,9.69,0,0,1-1.51-5.82,2.51,2.51,0,0,1,2.86-2.56c3.39,0.11,5.25,2.17,5.16,5.84h0Zm-3.65.68a6.5,6.5,0,0,0,.83-1.6,1.18,1.18,0,0,0-1.22-1.44,1.29,1.29,0,0,0-.81.94A12.31,12.31,0,0,0,652,222.69Zm11.22,127.38a17.92,17.92,0,0,1,1-3.06,3.14,3.14,0,0,1,4.59-1.42,5.28,5.28,0,0,1,3,4.75c0,1.88-1.16,3-2.73,3.85-2.76,1.49-5.86-1.62-5.84-4.11h0Zm3.3,0.07,2.08,0.85C668,349,667.93,349,666.56,350.14Zm0.72-17.3c2.16,0,4.09,1.79,4,3.7-0.07,2.71-2.32,5.14-4.7,5a4.46,4.46,0,0,1-4.09-4.53c0-2.65,1.84-4.24,4.75-4.2h0Zm0.77,4.7a1.28,1.28,0,0,0-.22-0.61,7.39,7.39,0,0,0-1.53-.35,2.32,2.32,0,0,0-.33.7c0.48,0.2,1,.37,1.49.52A1.37,1.37,0,0,0,668,337.54Zm-6.91-93.95c-0.15.68-.33,1.38-0.55,2-1,2.82-3.54,3.46-5.62,1.31-1.64-1.71-2.84-3.7-2.14-6.3a3,3,0,0,1,2.38-2.27C657.57,237.82,661.2,240.86,661.13,243.59Zm-5.25-1.82c-0.31,2-.31,2,1.44,2.78C658.38,242.79,658.14,242.28,655.88,241.78ZM647.25,206a4.62,4.62,0,0,1,4,5.8,5.47,5.47,0,0,1-5.1,3.43,2.16,2.16,0,0,1-2-1.4,8,8,0,0,1-.63-4.88,3.64,3.64,0,0,1,3.78-3h0Zm1.71,4.37-1.51-1.22a4.07,4.07,0,0,0-.94,1.25,2.38,2.38,0,0,0,.66,1.14l1.79-1.16h0Zm5.47,17,1.75,0.35c1.68,0.37,2.27,1.57,2.6,3.13a3.15,3.15,0,0,1-1.36,3.59A4.86,4.86,0,0,1,654,235.7c-2.65-.26-4.42-5.1-3.41-6.84C651.36,227.57,652.65,227.3,654.42,227.37Zm1,3.54c-0.79-.28-1.49-0.66-1.9.26a1,1,0,0,0,.35.87c0.85,0.37,1.29-.13,1.55-1.14h0ZM665,296.65c-2.23,0-3.43-1.79-3.52-4.75,0-1.62,1.84-3.61,4.16-3.65,1.79,0,4.11,2.67,4.13,4.7s-2,3.72-4.77,3.7h0Zm0.72-3.81c-0.26-.22-0.52-0.44-0.81-0.63a1.27,1.27,0,0,0-.35.42,3.22,3.22,0,0,0,.66.68C665.35,293.15,665.53,293,665.68,292.84Zm-22-96.81a3.66,3.66,0,0,0-3.46,4c0,2.41,1.09,3.72,3,3.72s4.44-2.36,4.46-4.13-2.16-3.59-4-3.56h0Zm0.15,4.4a0.66,0.66,0,0,1,0-1.31A0.66,0.66,0,0,1,643.81,200.43ZM286,244.21a36,36,0,0,1,11,1.6c1.88,0.59,3.76,1.14,5.62,1.75a3.56,3.56,0,0,1,1.33.7,41.46,41.46,0,0,1,7.06,8,34.71,34.71,0,0,1,2.32,5.64,12.55,12.55,0,0,1,.81,5.95c-0.2,2,0,4,0,6.08,0,7.22-3.7,12.71-8.66,17.45C300.8,295.8,295,298,288.8,299.47a27.19,27.19,0,0,1-11.87,0,30.31,30.31,0,0,1-12.73-5.88,17.38,17.38,0,0,1-2.91-3.78c-2.12-3-2.78-6.45-3.24-10a27.07,27.07,0,0,1,1.4-12.25c1-3,2-5.93,3-8.9a10.59,10.59,0,0,1,3.21-4.59c1.71-1.49,3.3-3.08,5-4.53a20.33,20.33,0,0,1,12.68-5.16l2.62-.15h0Zm24.36,25.85c0.7-3.37-.35-7.11-1.9-10.67a15.15,15.15,0,0,0-7.09-7.94,26.84,26.84,0,0,0-8-2.86c-2.84-.42-5.75-0.77-8.64-1.09a14.31,14.31,0,0,0-11.61,3.87,46.14,46.14,0,0,0-4.07,3.94,20,20,0,0,0-2.76,4.13,40.77,40.77,0,0,0-2.21,5.69c-1.64,4.92-3,9.88-2.14,15.18,0.48,3,.81,6,2.82,8.55,1.73,2.19,4,3.41,6.41,4.72,4.55,2.49,9.4,2.73,14.21,2.06a39.65,39.65,0,0,0,16.36-6.34,18.31,18.31,0,0,0,6.43-7,22.59,22.59,0,0,0,2.17-12.22h0Zm233.29-61.54c0-2,.92-2.84,2.58-2.71,4.68,0.39,4.42,1.36,2.47,4.64-0.55.92-1.14,1.68-2.34,1.6a2.54,2.54,0,0,1-2.3-2c-0.2-.59-0.33-1.22-0.42-1.53h0Zm-8.4-25.35c0.37,0.85.77,1.71,1.14,2.58,0.52,1.27.39,1.75-.72,2.58a11.8,11.8,0,0,1-1.09.72c-0.83.48-1.68,0.94-2.62,0.28a2.83,2.83,0,0,1-.57-3,8.7,8.7,0,0,1,2-2.23,8,8,0,0,1,2-.87l-0.07,0h0Zm-6.56-4a3.34,3.34,0,0,1-2.16,2.62,2.23,2.23,0,0,1-2.6-1c-0.87-1.2-1-2.41-.28-3.15a2.3,2.3,0,0,1,1.62-.81,17,17,0,0,1,3.15,1.73A1.63,1.63,0,0,1,528.7,179.17Zm25.43,48c0,1.77-.59,2.56-1.73,2.78a2.25,2.25,0,0,1-2.38-1.53,3.49,3.49,0,0,1,.13-3.35,2.06,2.06,0,0,1,3.54.35,15.73,15.73,0,0,1,.44,1.75h0Z" transform="translate(0)"/><path class="cls-3" d="M666.91,328.18c-1.88,0-2.43-.7-1.95-2.54C666.77,326.06,666.93,326.26,666.91,328.18Zm-1.57-25.24,0.77,1.75a1,1,0,0,1-1.71-.15C664,303.91,664.28,303.32,665.33,302.95ZM664,281.56a3.56,3.56,0,0,1-1.29-.33,1.43,1.43,0,0,1-.46-1.92,1.2,1.2,0,0,1,.83-0.48,4.23,4.23,0,0,1,1.16,1.4A3.12,3.12,0,0,1,664,281.56Zm-3.24-26.68-0.13-.42c-1.22,1.14-.79,1.66,0,2.1l0.68-.22-0.13-.39a0.65,0.65,0,0,1-.37-1.07h0Zm1.82,12a6.48,6.48,0,0,1,.9,1.84,2.6,2.6,0,0,1-.92.94,5.31,5.31,0,0,1-1-1.42,4.61,4.61,0,0,1,1.07-1.36h0Zm4.26,48.2a3,3,0,0,1-1.07.85,5.06,5.06,0,0,1-1.25-.85,2.42,2.42,0,0,1,.81-0.94A4.83,4.83,0,0,1,666.8,315.11ZM652,222.69a10,10,0,0,1-1.18-2.12,1.33,1.33,0,0,1,.81-0.94,1.19,1.19,0,0,1,1.22,1.44,7.34,7.34,0,0,1-.85,1.62h0Zm14.52,127.45c1.38-1.18,1.42-1.16,2.08.85ZM668,337.52a1.69,1.69,0,0,1-.57.28c-0.5-.15-1-0.33-1.49-0.52a2.07,2.07,0,0,1,.33-0.7,6.22,6.22,0,0,1,1.53.35,1.13,1.13,0,0,1,.2.59h0Zm-12.16-95.74c2.25,0.5,2.47,1,1.44,2.78C655.58,243.77,655.58,243.77,655.88,241.78ZM649,210.38l-1.77,1.16a2.59,2.59,0,0,1-.66-1.14,3.75,3.75,0,0,1,.94-1.25l1.49,1.22h0Zm6.47,20.53c-0.26,1-.7,1.51-1.55,1.14a1,1,0,0,1-.35-0.87c0.42-.92,1.12-0.55,1.9-0.26h0Zm10.26,61.93a3.29,3.29,0,0,1-.5.46,3.22,3.22,0,0,1-.66-0.68,1.08,1.08,0,0,1,.35-0.42A7.36,7.36,0,0,1,665.68,292.84ZM310.36,270.06a22.13,22.13,0,0,1-2.21,12.25,18.48,18.48,0,0,1-6.43,7,39.65,39.65,0,0,1-16.36,6.34c-4.81.68-9.64,0.44-14.21-2.06-2.38-1.31-4.68-2.54-6.41-4.72-2-2.54-2.34-5.53-2.82-8.55-0.85-5.29.5-10.26,2.14-15.18a47.06,47.06,0,0,1,2.21-5.69,19.45,19.45,0,0,1,2.76-4.13,43.22,43.22,0,0,1,4.07-3.94,14.24,14.24,0,0,1,11.61-3.87c2.89,0.33,5.77.68,8.64,1.09a26.63,26.63,0,0,1,8,2.86,15.14,15.14,0,0,1,7.09,7.94c1.6,3.54,2.65,7.26,1.95,10.65h0Z" transform="translate(0)"/></svg>