<svg xmlns="http://www.w3.org/2000/svg" viewBox="0 0 27.3 127.2"><title>Untitled-3</title><path fill="#FFC107" stroke="#FFC107" stroke-miterlimit="10" d="M25.7 69.6c-.1-.5-.1-1-.2-1.5-.2-2-.3-4-.3-6v-1.2c-.2-1.5-.3-3-1.1-4.4-.1-.3-.2-.6-.1-.9.1-4.8.1-9.6.3-14.4.1-2.5.6-5 .6-7.6 0-4.4-1-8.7-1.5-13-.6-4.4-2-8.7-4.2-12.5-1.1-2.1-2.4-4-4-5.7-2-2.3-5.5-2.6-7.9-.6C5 3.5 3.4 5.6 2.6 8.2.5 14 0 20.3 1 26.5c.3 2.1.8 4.3 1.3 6.4 1.2 4.7 2.7 9.3 4.5 13.9 1.5 3.6 2.3 7.4 3.6 11 .1.7-.1 1.4-.5 1.9C8.3 60.8.6 66 1.7 69.8c.3 1.2 2.6 3 7.3 6.7.8.6 1.5 1.4 2.4 1.9 1.5 1 1.5 1 1.1 2.9-.7 3.5-1.5 7-2.1 10.5-.8 4.9-.7 9.9-2.2 14.7-.2.7-.2 1.4-.2 2v4.4c0 2.8-.1 5.7.2 8.5.1 1.9 1.1 3.7 2.7 4.8 1.8.8 3.8.9 5.7.3 1.7-1.9 3.4-3.8 5.1-5.8l.7-.7c.2-.5.4-1 .5-1.6.9-4.3 1.4-8.8 1.4-13.2v-3.3c0-3-.1-6.1-.1-9.1 0-4.4.2-8.8.2-13.3 0-2.8-.3-5.5.7-8.3.2-.8.4-1.3.6-1.6zM9.6 43.8c-1.2-3.5-2.5-7-3.6-10.5-.7-2.3-1.1-4.6-1.4-7-.3-2.8-.4-5.6-.6-8.5 0-4 1-7.9 2.9-11.3C8.3 3.7 9.8 3.6 12 5c2 1.2 2.9 3.2 3.9 5.2 2.4 5 3.2 10.4 3.5 15.9.2 2.1.6 4.2.8 6.2.2 1.6.3 3.2.4 4.8h-.2l-.6 16.8c0 .4-.1.9-.1 1.3 0 1-.8 1.8-1.8 1.8-3.1.4-3.1.4-4.3-2.5-.5-1.1-.8-2.3-1.2-3.5-1-2.4-1.9-4.8-2.8-7.2zm11 67.2c-.2 2.7-.7 5.5-1.3 8.1-.5 2.2-2.3 3.1-4.3 3.5-1.3.3-2.7-.5-3.1-1.8-.4-.8-.6-1.6-.7-2.5-.3-5.2 0-10.5 1-15.6.7-3 .7-6.1 1.2-9 .7-4.2 1.4-8.3 2.2-12.4.1-.8.8-1.5 1.6-1.5 1-.2 2-.3 3.3-.6.2 1.4.4 2.5.4 3.6 0 5.2-.1 10.5-.2 15.7 0 4.1.1 8.3-.1 12.5z"/></svg>