<svg xmlns="http://www.w3.org/2000/svg" viewBox="0 0 567.6 337.2"><title>Untitled-2</title><title>lampfish</title><path fill="none" d="M263 193l7.6-181 297.1 9.3-7.6 181L263 193zm239.3-66.6c-.4-.2-.7-.3-.9-.1-.5-.3-.9-.4-1.4 0-.5.3-.4.7-.3 1.1.4 1 .6 2.1.9 3.2 0 .3 0 .6.1 1.1-.8-.8-1.5-1.3-1.9-2.1-.2-.3-.5-.6-.8-.9-.6-.4-1.4-.2-1.6.5v3.2c0 .5.1 1 .1 1.5-.5 0-.8-.3-1.1-.5l-1.5-1.2c-.4-.3-.8-.5-1.3-.3s-.6.7-.4 1.1c.3 1.1.2 2.2 0 3.3-.2.7-.4.8-1.1.5-.6-.3-1.1-.5-1.6-.9-1-.6-2-.4-2.6.5-.9 1.2-.9 1.2-2.3.4l-.6-.3c-1.1-.4-1.6-.3-2.4.5-.9 1-1.8 2.1-1.9 3.5-.1.6-.5 1-1 1.4-.3.2-.7.4-1 .6l-1.3-.3-.1.2.5.5c-.3.2-.6.4-.9.5-1.5.6-3 1.1-4.4 1.7-.8.4-1.5.8-2.3 1.3-1.6 1-3.1 1.9-4.7 2.9-.9.6-1.8 1.2-2.7 1.9-.4.3-.8.4-1.2.3-.5-.1-.8-.5-.8-1 .1-.6.1-1.2.4-1.7.5-1 1-2 1.2-3.2.1-.6.4-1.3.7-1.9.9-2.2 1.7-4.4 2.6-6.6 1.4-3.3 2.6-6.6 4.4-9.7 1.4-2.4 2.9-4.7 4.9-6.7.7-.7 1.2-1.4 1.8-2.1.4-.5.8-.7 1.4-.4.3.1.6.1.8 0 .5-.1.9-.1 1.3.1.2.1.5.1.6 0 .2-.2.4-.5.3-.6-.6-.7-.3-1.4 0-2.2.2-.4.2-.9.3-1.4 1.4.1 2.7.1 3.8.6.2.1.4.1.6.2.9.2 1.5-.1 1.6-.9 0-.7 0-1.4-.2-2.2-.2-.8.1-1.1 1.1-.9.4.1.9.4 1.2.6.6.4 1.3.5 1.9.6.4.1.6-.2.7-.5.1-1.1.2-2.1.3-3.1v-1l.6.3c.9.5 1.8.4 2.3-.4.3-.5.4-1.1.6-1.6.1-.5.1-1 .4-1.5.6.1.8.4 1 .8.3.4.6.9.9 1.3.2.3.4.6.5.9.3.6.6.9 1.2.8.6-.1 1.1-.6 1.1-1.1 0-1.4 0-2.8-.1-4.2 0-.4-.3-.8-.4-1.2-.1-.4-.3-.8-.4-1.2.6-.1.8.3 1 .5.9 1.5 2 3 2.6 4.6l.6 1.2c.2.4.5.6 1.1.5.6-.1 1.1-.5 1.2-1 0-.8.1-1.6 0-2.5-.3-2-.7-4-2-5.8-.9-1.2-1.8-2.3-2.7-3.5-.3-.5-.6-.9-.8-1.5-.3-.8-.5-1.6-1.3-2.2-.4-.2-.7-.6-.9-.9-1-1.3-2.5-2.2-3.9-3.2-1.4-1.1-2.9-2.2-4.4-3.3-2.3-1.7-4.8-3.1-7.3-4.5-.3-.1-.6-.3-.8-.5-.9-.9-2.1-1.4-3.2-2 0 0-.1-.1-.2-.1-1.2-.6-1.3-.8-.5-1.8 1.9-2.4 3.8-4.9 5.9-7.2 1.4-1.5 2.7-3 3.8-4.6 1.1-1.7 2.6-3.2 4-4.8.8-1 1.5-2 2.2-3.1.9-1.3 1.8-2.6 2.8-3.8 1.1-1.4 2.2-2.7 3.2-4 1-1.3 2-2.6 3-3.8.5-.7 1.2-1.3 1.7-1.9.5-.7 1-1.5 1.6-2.1 1-1.2 2.2-2.3 3.2-3.5.4-.4.7-.2 1.1-.1.7-.5 1.2-1.1 1.3-1.9.1-.5.2-1.1.9-1.3.2-.1.4-.3.6-.5.1 0 .2-.2.3-.2 1.3-.3 2-1.2 3.1-1.7 1.3-.6 2.5-.3 3.6.2.7.3 1.1.8 1.6 1.4 1 1.3 2.1 2.6 3.4 3.9 1.3 1.4 2.5 2.9 3.5 4.4 1.5 2.1 3.1 4.3 4.6 6.4.3.5.5 1.1.9 1.6.5.8 1.1 1.5 1.6 2.2.5.8.9 1.7 1.5 2.6.9 1.4 1.8 2.8 2.8 4.1.2.3.5.7.6 1.1.9 1.7 2 3.4 2.5 5.3.2.8.3 1.7.2 2.5-.2 1.5-.4 3-.5 4.5 0 1 .2 1.9 1 2.7.2.2.4.4.5.7.6 1.2 1.7 1.7 3.1 2 .7.1 1.4.2 2.1.2.4 0 .8-.1 1.1-.3.6-.4 1.2-.9 1.7-1.3.9-.6 1-1.5.7-2.3-.4-1.2-.8-2.3-1.6-3.3-.9-1.3-1.4-2.7-1.4-4.2 0-1.8-.5-3.6-1.2-5.3-.5-1.1-1.2-2.1-1.7-3.3-.5-1-.9-2-1.3-3-.8-1.9-2-3.7-3.2-5.4-1-1.5-1.9-3-2.8-4.4-.6-.9-1.1-1.8-1.8-2.7-.6-.9-1.3-1.9-2.1-2.7-.6-.8-1.4-1.6-2.1-2.4l-.6-.7c-1-1.5-1.9-3-3.3-4.2-.8-.7-1.6-1.3-2.4-1.9-.5-.4-.9-.8-1.4-1.2-.8-.8-1.9-1.2-2.9-1.6-.6-.2-1.1-.3-1.7-.5-2-.6-3.9-.5-5.8.3-1.1.5-2.1 1.2-3.2 1.8-2.6 1.5-4.7 3.6-7.1 5.4a48.1 48.1 0 0 0-4.8 4.2c-1 1.1-2.1 2.2-3.2 3.3-.1.2-.3.3-.4.5-1.3 1.6-2.6 3.3-3.9 4.9-1.6 2.2-3 4.5-4.7 6.7-1.5 2.1-3.2 4.1-5 6-.4.4-.7.9-1.1 1.3-1 1.1-1.9 2.2-2.8 3.4-.8.9-1.5 2-2.3 2.9-1.5 1.9-3 3.8-4.7 5.6-.5.5-.8.6-1.5.3-.5-.2-1-.5-1.5-.8-.8-.4-1.5-.9-2.3-1.2-2.6-1-5.2-2-7.9-3-2.1-.7-4.2-1.3-6.4-1.6-2.6-.3-5.1.1-7.5.6-.1 0-.3 0-.4.1-1.2 1-2.6.6-4 .4-2.4-.3-4.9-.8-7.3-1.3-1.1-.2-2.2-.5-3.3-.8-2.2-.6-4.6-.9-6.9-1.1l-1.9-.2c-.5.3-1 .3-1.5.3-2.2-.1-3.5 1.2-2.9 3.2.1.3.3.6.4.9.3.7-.3 1.3-1.1 1.2-.6-.1-1.3-.2-1.8-.4-1-.2-1.9-.5-2.9-.7-.4-.1-.9-.2-1.4-.1-1.3.1-1.9.9-1.5 2l.6 1.5c.1.3.2.6.2.9 0 .6-.2.9-.9 1-.6.1-1.3.1-2 .1-1.6-.1-3.2-.3-4.8-.4-.5-.1-1.1-.1-1.7-.1-1.7.1-2.7.9-2.8 2.4-.1.5.1 1 .1 1.5.1.7-.1 1-1 1.1-.3.1-.7.1-1 0-.9-.2-1.7-.4-2.6-.7-1.3-.4-2.5-.7-3.8-.3-.9.3-1.1.4-1.2 1.3-.1.5-.1 1-.1 1.4-.1.8-.3.9-1.2 1-.3 0-.7 0-1.1-.1-1.4-.2-2.9-.5-4.3-.7-1-.1-2.1 0-2.5.8-.5.7-.1 1.6.4 2.2.8 1 1.6 2 2.8 2.7.7.4 1.3 1.2 1.9 1.8.7.7 1.4 1.4 2 2.1l.3.3c.3.5.2.8-.5.8-.6 0-1.2-.1-1.8-.2-2.7-.4-5.5-.8-8.3-1.2-2.2-.3-4.4-.6-6.6-.8-.1 0-.3-.1-.4-.1-1.5-.8-3.3-.7-4.9-1.1-1.5-.4-3.1-.7-4.7-1.1-.4-.1-.9-.2-1.4-.3-3.6-.6-7.2-1.2-10.7-2.2-2-.5-4-1-5.8-1.9-1.4-.7-2.9-1.4-4.3-2.3-1.4-.8-3-1.5-4.6-2-1.7-.6-3.4-1.3-5.2-1.9-2.3-.7-4.7-1.4-7-2-1.4-.4-2.9-.9-4.4-1.2-1.5-.4-3-.9-4.6-1-.5 0-1.1 0-1.7.1-1.4.3-2 1.5-1.1 2.5.4.5.8 1 1.3 1.4.1.1.1.3.2.5-.4.4-.9.3-1.4.2-.8-.1-1.5-.2-2.3-.2-.7 0-1.5 0-1.9.6-.4.7-.5 1.4 0 2.1.6.8 1.3 1.6 1.9 2.4.9 1.2.9 1.3-.6 2-.5.3-1.1.6-1.7.8-1.6.7-2 2-1 3.2.6.7 1.3 1.4 2 2.1.2.2.4.5.6.7-.4.7-1.2 1-2 1.2-.3.1-.7.1-1 .2-1.3.3-2 1.3-1.6 2.4.2.6.6 1.3 1 1.9.5.8.5 1.1-.5 1.3-.8.2-1.6.3-2.5.4-1.6 0-2.8.7-3.8 1.6-.6.6-.6 1.5 0 2.2.9 1.1 2.1 1.8 3.5 2.3 2.9 1 6 1.6 9.2 1.7 1.3 0 2.6.4 3.8.5.9.1 1.8.1 2.7.3l2.9.3c3.3.4 6.5.8 9.8 1.1.2 0 .4.1.5.1 2.3.6 4.6 1 6.8 1.8 1.7.6 3.6 1.2 5 2.2.5.4 1.1.5 1.5.8.6.4 1.1.9 1.7 1.3 1 .7 2 1.4 3 2 .8.5 1.8.9 2.6 1.3.7.4 1.4.9 2 1.4 1.2.9 2.4 1.8 3.5 2.8l2.4 2 .4.4c.8.8 1.5 1.7 2.4 2.4 1.3 1 2.4 2.2 3.5 3.4 1.3 1.3 2.6 2.6 3.8 4 1.3 1.4 2.5 2.9 3.8 4.3 1.6 1.7 3.1 3.6 4.6 5.4.7.9 1.6 1.7 2.4 2.5l1.8 2.1c.7.8 1.5 1.6 2.2 2.4l4.8 5.7c.3.4.7.8 1 1.1 1.4 1.2 2.5 2.7 3.6 4.1.8 1 1.7 2 2.6 3 1.4 1.5 2.8 3 4.3 4.5 1.3 1.3 2.3 2.7 3.3 4.1.3.4.6.7.9 1.1l4.8 4.8c1 1 1.8 2 2.9 3 .9.9 2 1.8 3.1 2.6 1.1.9 2.2 1.8 3.5 2.5 2 1.2 4 2.2 6 3.4 1.5.9 3.2 1.4 4.9 1.8 1.5.3 2.9.6 4.4.8 1.6.2 3.1-.2 4.7-.5.3 0 .6-.2.9-.1.9.2 1.7 0 2.5-.3 1.4-.4 2.9-.8 4.3-1.2.6-.2 1.2-.7 1.8-.9 2.6-1.1 4.9-2.5 7.2-4 1.2-.8 2.5-1.6 3.8-2.2.9-.4 1.8-1 2.7-1.6 1.8-1 3.6-1.9 5.4-3 2.3-1.4 4.8-2.5 7.2-3.7 1.2-.6 2.5-1.1 3.9-1.6 1.7-.6 3.4-1.3 4.9-2.3.5-.3.9-.5 1.4-.7 2.1-1 4.2-2.1 6.4-2.9 3.6-1.4 6.8-3.3 10.3-4.9 1.1-.5 2.3-1.2 3.4-1.8 1-.5 1.9-1 2.9-1.6 2.9-1.6 5.5-3.5 7.5-5.9 1.7-2.1 2.7-4.4 3.2-7 .3-1.6.6-3.2.4-4.9 0-.2.1-.4.1-.5.1-1.1.1-2.1-.3-3.1-.2-.3-.2-.7-.3-1.1-.6-2-1-4-2.3-5.7-1-1.2-2.2-2.3-3.5-3.3-1.2-.9-2.2-2-3.1-3.1-1-1.3-2.2-2.4-3.6-3.4-.4-.2-.8-.5-1.4-.3-.8.4-.9.8-.6 1.5.5 1 1 2.1 1.4 3.1.3.6.6 1.2.4 2.1z"/><path fill="#FFC107" d="M477.5 141.8c.4-.2.7-.4 1-.6.6-.4 1-.8 1-1.4.2-1.3 1-2.5 1.9-3.5.8-.9 1.3-.9 2.4-.5l.6.3c1.4.7 1.4.7 2.3-.4.6-.9 1.7-1 2.6-.5.5.3 1 .6 1.6.9.7.3 1 .2 1.1-.5.2-1.1.3-2.2 0-3.3-.1-.5-.1-.9.4-1.1.5-.2.9-.1 1.3.3l1.5 1.2c.3.3.6.5 1.1.5 0-.5-.1-1-.1-1.5v-3.2c.2-.7.9-.9 1.6-.5.4.3.7.6.8.9.4.8 1.1 1.3 1.9 2.1 0-.5 0-.8-.1-1.1-.3-1.1-.6-2.1-.9-3.2-.1-.5-.2-.8.3-1.1.5-.3.9-.2 1.4 0 .2.1.5.2.9.4.2-.9-.1-1.5-.4-2.1-.4-1.1-.8-2.1-1.4-3.1-.4-.7-.3-1.2.6-1.5.5-.2 1 0 1.4.3 1.4.9 2.5 2.1 3.6 3.4.9 1.1 1.9 2.1 3.1 3.1 1.3 1 2.5 2.1 3.5 3.3 1.4 1.7 1.8 3.7 2.3 5.7.1.3.2.7.3 1.1.4 1 .4 2.1.3 3.1 0 .2-.1.4-.1.5.1 1.7-.1 3.2-.4 4.9-.5 2.5-1.5 4.9-3.2 7-2 2.4-4.6 4.3-7.5 5.9-1 .5-2 1.1-2.9 1.6-1.1.6-2.2 1.3-3.4 1.8-3.5 1.6-6.7 3.5-10.3 4.9-2.2.9-4.2 1.9-6.4 2.9-.5.2-1 .4-1.4.7-1.5 1-3.2 1.7-4.9 2.3-1.3.5-2.6 1-3.9 1.6-2.4 1.2-4.9 2.3-7.2 3.7-1.7 1.1-3.6 2-5.4 3-.9.5-1.8 1.1-2.7 1.6-1.3.7-2.6 1.4-3.8 2.2-2.3 1.5-4.6 2.9-7.2 4-.6.3-1.2.7-1.8.9-1.4.5-2.8.8-4.3 1.2-.8.2-1.6.5-2.5.3-.3-.1-.6.1-.9.1-1.5.2-3.1.7-4.7.5-1.5-.2-3-.4-4.4-.8-1.7-.4-3.4-.9-4.9-1.8-2-1.2-4-2.2-6-3.4-1.2-.8-2.3-1.6-3.5-2.5-1-.8-2.1-1.7-3.1-2.6-1-1-1.9-2-2.9-3l-4.8-4.8c-.3-.3-.7-.7-.9-1.1-1-1.4-2.1-2.8-3.3-4.1-1.5-1.5-2.9-3-4.3-4.5-.9-1-1.8-2-2.6-3-1.1-1.4-2.2-2.9-3.6-4.1-.4-.3-.7-.7-1-1.1l-4.8-5.7c-.7-.8-1.5-1.6-2.2-2.4l-1.8-2.1c-.8-.8-1.7-1.7-2.4-2.5-1.5-1.8-3-3.6-4.6-5.4-1.3-1.4-2.5-2.9-3.8-4.3-1.3-1.3-2.5-2.6-3.8-4-1.1-1.2-2.2-2.4-3.5-3.4-.9-.7-1.6-1.6-2.4-2.4l-.4-.4-2.4-2c-1.2-.9-2.4-1.9-3.5-2.8-.7-.5-1.3-1-2-1.4-.8-.5-1.8-.9-2.6-1.3-1-.6-2-1.3-3-2-.6-.4-1.1-.9-1.7-1.3-.5-.3-1.1-.5-1.5-.8-1.5-1.1-3.3-1.7-5-2.2-2.2-.7-4.5-1.2-6.8-1.8-.2 0-.3-.1-.5-.1-3.3-.4-6.5-.8-9.8-1.1l-2.9-.3c-.9-.1-1.8-.1-2.7-.3-1.3-.2-2.6-.5-3.8-.5-3.1-.1-6.2-.7-9.2-1.7-1.4-.5-2.6-1.3-3.5-2.3-.6-.7-.7-1.7 0-2.2 1.1-.9 2.2-1.5 3.8-1.6.8 0 1.7-.2 2.5-.4 1-.3 1-.5.5-1.3-.4-.6-.8-1.2-1-1.9-.4-1.1.3-2.1 1.6-2.4.3-.1.7-.1 1-.2.8-.2 1.5-.5 2-1.2-.2-.3-.4-.5-.6-.7-.7-.7-1.4-1.4-2-2.1-1-1.2-.6-2.6 1-3.2.5-.2 1.1-.5 1.7-.8 1.4-.7 1.5-.8.6-2-.6-.8-1.3-1.6-1.9-2.4-.5-.7-.4-1.4 0-2.1.4-.6 1.2-.6 1.9-.6.8 0 1.5.1 2.3.2.5.1 1 .2 1.4-.2 0-.1-.1-.3-.2-.5-.4-.5-.8-1-1.3-1.4-.8-1-.3-2.2 1.1-2.5.5-.1 1.1-.1 1.7-.1 1.6.1 3.1.6 4.6 1 1.5.4 2.9.8 4.4 1.2 2.4.7 4.7 1.3 7 2 1.7.5 3.5 1.2 5.2 1.9 1.6.6 3.1 1.2 4.6 2 1.4.8 2.8 1.6 4.3 2.3 1.8.9 3.8 1.3 5.8 1.9 3.5 1 7.1 1.6 10.7 2.2.5.1.9.2 1.4.3 1.6.3 3.2.7 4.7 1.1 1.6.4 3.4.3 4.9 1.1.1.1.2.1.4.1 2.2.3 4.4.5 6.6.8 2.7.4 5.5.8 8.3 1.2.6.1 1.2.2 1.8.2.6 0 .8-.3.5-.8l-.3-.3c-.7-.7-1.3-1.4-2-2.1-.6-.6-1.1-1.3-1.9-1.8-1.2-.8-2-1.8-2.8-2.7-.6-.7-.9-1.5-.4-2.2.5-.8 1.6-.9 2.5-.8 1.5.2 2.9.5 4.3.7.3.1.7.1 1.1.1.9 0 1.1-.2 1.2-1 .1-.5 0-1 .1-1.4.1-.9.3-1 1.2-1.3 1.3-.3 2.5-.1 3.8.3.9.3 1.7.5 2.6.7.3.1.7.1 1 0 .8-.1 1-.4 1-1.1 0-.5-.1-1-.1-1.5.1-1.5 1.1-2.3 2.8-2.4.5 0 1.1 0 1.7.1 1.6.1 3.2.3 4.8.4.6 0 1.3 0 2-.1.8-.1 1-.3.9-1 0-.3-.1-.6-.2-.9l-.6-1.5c-.4-1.1.2-1.9 1.5-2 .4 0 .9 0 1.4.1 1 .2 1.9.5 2.9.7.6.2 1.2.3 1.8.4.8.1 1.4-.5 1.1-1.2-.1-.3-.3-.6-.4-.9-.6-1.9.7-3.2 2.9-3.2.4 0 .9 0 1.4.1l1.9.2c2.3.2 4.6.5 6.9 1.1 1.1.3 2.2.6 3.3.8 2.4.5 4.8.9 7.3 1.3 1.3.2 2.8.6 4-.4.1-.1.2-.1.4-.1 2.5-.6 4.9-.9 7.5-.6 2.3.2 4.4.9 6.4 1.6 2.6.9 5.3 1.9 7.9 3 .8.3 1.6.8 2.3 1.2.5.2 1 .5 1.5.8.8.3 1 .3 1.5-.3 1.7-1.8 3.2-3.7 4.7-5.6.8-.9 1.5-2 2.3-2.9.9-1.1 1.9-2.2 2.8-3.4.4-.4.7-.9 1.1-1.3 1.9-1.9 3.5-3.9 5-6 1.6-2.2 3.1-4.5 4.7-6.7 1.2-1.7 2.6-3.3 3.9-4.9.1-.2.2-.3.4-.5 1.1-1.1 2.1-2.2 3.2-3.3 1.4-1.5 3.1-2.9 4.8-4.2 2.3-1.8 4.5-3.9 7.1-5.4 1.1-.6 2.1-1.3 3.2-1.8 1.8-.8 3.8-1 5.8-.3.6.1 1.2.3 1.7.5 1.1.4 2.1.8 2.9 1.6.4.4.9.8 1.4 1.2.8.7 1.6 1.2 2.4 1.9 1.4 1.3 2.3 2.7 3.3 4.2l.6.7 2.1 2.4 2.1 2.7 1.8 2.7c.9 1.5 1.8 3 2.8 4.4 1.2 1.7 2.4 3.5 3.2 5.4.4 1 .8 2 1.3 3 .5 1.1 1.2 2.2 1.7 3.3.8 1.7 1.2 3.5 1.2 5.3 0 1.5.5 3 1.4 4.2.7 1.1 1.2 2.2 1.6 3.3.3.9.2 1.7-.7 2.3-.6.4-1.1.9-1.7 1.3-.4.2-.7.3-1.1.3-.7 0-1.4 0-2.1-.2-1.4-.3-2.5-.8-3.1-2-.1-.3-.3-.5-.5-.7-.7-.8-1-1.8-1-2.7.1-1.5.3-3 .5-4.5.1-.8 0-1.7-.2-2.5-.5-1.9-1.6-3.5-2.5-5.3-.2-.4-.4-.7-.6-1.1-.9-1.4-1.9-2.8-2.8-4.1-.6-.8-.9-1.7-1.5-2.6-.5-.8-1.1-1.5-1.6-2.2-.3-.6-.5-1.1-.9-1.6-1.5-2.1-3.1-4.2-4.6-6.4-1-1.6-2.2-3-3.5-4.4-1.2-1.3-2.3-2.6-3.4-3.9-.4-.6-.9-1.1-1.6-1.4-1.2-.5-2.3-.7-3.6-.2-1.1.5-1.8 1.5-3.1 1.7-.1 0-.2.2-.3.2-.2.2-.4.4-.6.5-.7.2-3 2.9-3.4 3.3-1 1.2-2.1 2.3-3.2 3.5-.6.7-1 1.4-1.6 2.1-.5.7-1.1 1.3-1.7 1.9-1 1.3-2 2.6-3 3.8-1.1 1.4-2.2 2.7-3.2 4-1 1.2-1.9 2.6-2.8 3.8-.7 1-1.4 2.1-2.2 3.1-1.3 1.6-2.8 3-4 4.8-1.1 1.6-2.4 3.1-3.8 4.6-2.1 2.3-4 4.7-5.9 7.2-.8 1-.7 1.2.5 1.8 0 0 .1 0 .2.1 1 .7 2.3 1.2 3.2 2 .2.2.5.4.8.5 2.5 1.4 5.1 2.8 7.3 4.5 1.5 1.1 3 2.2 4.4 3.3 1.3 1.1 2.9 1.9 3.9 3.2.3.3.6.7.9.9.9.6 1.1 1.4 1.3 2.2.2.5.4 1 .8 1.5.9 1.2 1.8 2.3 2.7 3.5 1.3 1.8 1.7 3.8 2 5.8.1.8.1 1.6 0 2.5 0 .5-.6.9-1.2 1-.5.1-.8-.2-1.1-.5-.2-.4-.5-.8-.6-1.2-.6-1.7-1.7-3.1-2.6-4.6-.1-.3-.3-.6-1-.5.2.5.3.9.4 1.2.1.4.4.8.4 1.2.1 1.4.1 2.8.1 4.2 0 .6-.5 1.1-1.1 1.1-.5.1-.9-.2-1.2-.8-.1-.3-.3-.6-.5-.9-.3-.4-.6-.9-.9-1.3-.3-.3-.5-.7-1-.8-.3.5-.3 1-.4 1.5-.1.5-.2 1.1-.6 1.6-.5.8-1.4.9-2.3.4l-.6-.3v1c-.1 1.1-.2 2.1-.3 3.1-.1.3-.3.6-.7.5-.6-.1-1.4-.1-1.9-.6-.3-.3-.8-.5-1.2-.6-.9-.2-1.2 0-1.1.9.1.7.2 1.4.2 2.2-.1.8-.6 1.1-1.6.9-.2 0-.4-.1-.6-.2-1.2-.5-2.5-.5-3.8-.6-.1.5-.1.9-.3 1.4-.3.7-.5 1.4 0 2.2.1.1-.1.5-.3.6-.1.1-.4.1-.6 0-.4-.2-.8-.2-1.3-.1-.3.1-.6.1-.8 0-.7-.3-1.1-.1-1.4.4l-1.8 2.1c-2 2-3.5 4.4-4.9 6.7-1.8 3.1-3.1 6.5-4.4 9.7-.9 2.2-1.7 4.4-2.6 6.6-.2.6-.6 1.2-.7 1.9-.2 1.1-.7 2.1-1.2 3.2-.3.5-.4 1.1-.4 1.7-.1.5.3.8.8 1 .5.1.8 0 1.2-.3.9-.6 1.8-1.3 2.7-1.9 1.6-1 3.1-2 4.7-2.9.8-.5 1.5-.9 2.3-1.3 1.4-.6 3-1.1 4.4-1.7.3-.1.6-.3.9-.5m31.7-14.6c-.2.4-.4.7-.7.8-.8 2.2-2.4 3.9-4.3 5.5-.4.3-.8.5-1.2.6-2.1.8-4.4 1.4-6.5 2.3-1.2.5-2.6.7-3.9 1.1-1.8.5-3.6.9-5.3 1.4-.9.3-1.8.7-2.7 1.1-2.8 1.3-5.6 2.5-8.4 3.7-2.2 1-4.5 1.9-6.4 3.2l-4.8 3c-1 .6-1.9 1.3-2.9 2-.2.2-.4.3-.6.4-.6.4-1.3.5-2 .3-.6-.2-1.3-1.3-1.2-1.9.3-3.2 1.2-6.3 2.4-9.3l1.2-3.6c.7-1.6 1.4-3.3 2-4.9.5-1.3 1-2.7 1.6-4 1-2 2.2-4.1 3.3-6.1 1.6-2.8 3.9-5.1 6.2-7.5.9-.9 1.8-1.9 2.7-2.9 1.2-1.3 2.8-2.1 4.3-3 1-.6 1.9-1.2 2.6-2 .8-.9 1.8-1.6 2.7-2.4.2-.2.4-.3.6-.5 1.2-1.5 2.5-3 3.7-4.5l.7-.7c.5-.4.9-.8 1.4-1.1.6-.4 1.2-.9 1.8-1.3 1.1-.7 1.7-1.7 2.4-2.6.5-.8.5-1.6.3-2.5 0-.2-.2-.4-.4-.5-.8-.6-1.3-1.3-1.8-2.1-.2-.2-.3-.4-.5-.6-1.8-1.4-3.5-2.7-5.3-4-1.1-.8-2.2-1.6-3.3-2.3-1.5-1-3-1.9-4.5-2.9-1.8-1.2-3.5-2.5-5.3-3.7-1.4-.9-2.8-1.7-4.2-2.5-1.1-.7-2.3-1.4-3.4-2.1-.2-.1-.5-.3-.7-.4-1.2-.5-2.5-1.1-3.8-1.6-1.5-.6-3.1-1.3-4.7-1.8-2-.7-3.8-1.4-5.9-1.8-.3-.1-.6-.1-.9-.2-1.3-.3-2.5-.5-3.8-.2-.7.2-1.5.2-2.2.5-.7.2-1.3.6-1.9 1-3.4 2-6.1 4.5-8.9 7-.5.4-1.1.9-1.6 1.3-1.5 1.2-2.9 2.4-4.5 3.5-2.6 1.9-5.1 3.9-8.2 5.4-1.8.9-3.6 1.9-5.4 2.8-2.1 1-4.3 1.8-6.7 2.3-2 .4-4 .9-6.1 1.2-1.3.2-2.6.2-4 .3H394c-1.2 0-2.3-.2-3.5-.2-.9 0-1.9.2-2.7-.1s-1.6-.4-2.5-.5c-1.6-.2-3.1-.5-4.6-.7-1.2-.1-2.4-.2-3.7-.3-1.1-.1-2.3-.3-3.4-.5-.2 0-.5-.1-.7-.1-2.8-.1-5.5-.8-8.2-1.4-1.5-.3-3.1-.6-4.6-.9-2.6-.5-5.1-1-7.7-1.6-1.4-.3-2.8-.4-4.2-.6-.8-.2-1.6-.3-2.4-.5-1.3-.3-2.6-.6-3.9-.8-.8-.2-1.4.2-1.9.6-1.7 1.2-2.8 2.8-3.3 4.6-.5 1.9-.9 3.9-1.4 5.8-.1.2-.1.4-.1.6.2 2 .2 4 .4 6.1.3 2.6 1.5 4.9 3.2 6.9.2.3.6.6.9.7 1.8.8 3.3 1.8 4.8 2.9l2.1 1.5c1.7 1.1 3.4 2.1 5 3.2 1.2.9 2.3 1.8 3.4 2.8.4.4.8.7 1.2 1.1 2.8 2.7 5.5 5.5 8.3 8.2 1.3 1.3 2.3 2.7 3.7 4 1.6 1.4 2.7 3.1 4.2 4.5.5.5.9 1.2 1.3 1.7.6.7 1.3 1.3 1.8 2 .8 1.1 1.9 2 2.8 3 1.1 1.2 2.1 2.4 3.1 3.6 1 1.2 2.1 2.3 3 3.5 1 1.1 2 2.3 2.9 3.4.8.8 1.6 1.7 2.4 2.5.7.8 1.3 1.6 2 2.4 1.7 2 3.4 4 5.2 5.9 1.4 1.7 2.9 3.3 4.4 5 1.2 1.3 2.5 2.6 3.7 3.8 1.1 1.1 2.3 2.1 3.3 3.3 1 1.2 2.2 2.2 3.4 3.2 1 .8 2 1.6 3 2.5 1.2 1 2.6 1.8 3.9 2.5 2 1.1 4.1 2.1 6.1 3.1.2.1.4.2.7.2 2.7.6 5.3 1.1 8.1.6 1-.1 2-.4 3-.6 2.1-.3 4-.8 5.9-1.5l.6-.3 6-3.5c1.6-.9 3.1-1.9 4.7-2.8 3.1-1.8 6.2-3.5 9.4-5.2 2.3-1.2 4.6-2.5 6.9-3.7 1.8-.9 3.8-1.7 5.7-2.5 3.3-1.5 6.7-2.9 10.1-4.5 2.7-1.3 5.4-2.5 8.1-3.9 2.9-1.5 5.8-3.1 8.6-4.6 1-.6 2-1.3 2.9-1.9.4-.3.9-.5 1.2-.8.7-.6 1.4-1.2 2-1.9.8-1 1.6-2 2.3-3.1.8-1.5 1.5-3 1.5-4.6 0-.5 0-1 .2-1.5.4-1.7.1-3.4 0-5.1 0-1.7-.8-3.4-1.4-5-.3-.9-.9-1.7-1.8-2.2-.3-.2-.5-.6-.8-.8l-.5-.7zm-203-52.4c.1.8.3 1.3.5 1.6.6.7 1.1 1.4 1.6 2.1.8 1 .7 1.5-.5 2.2-.7.4-1.4.7-2.2 1.1l-.6.3c-.9.6-1 .9-.4 1.8.4.5.9 1 1.4 1.4.4.3.8.7 1 1 .6.7.6 1.5-.2 2.1-.6.4-1.2.7-1.8 1-.4.2-.8.3-1.2.4-1 .3-1.2.6-.8 1.5.2.6.6 1 .9 1.5.2.3.4.6.5.8.2.4.2.8-.3 1-.4.3-.9.6-1.3.7-1 .2-2.1.4-3.1.5s-1.8.4-2.6 1.1c-.5.3-.5.7-.1 1 .4.4.9.8 1.4 1.1 2.6 1.2 5.4 1.7 8.3 2.1 1 .1 2.1.2 3.1.3 2.4.2 4.9.5 7.3.8 3.7.4 7.3.8 11 1.2 2.6.3 5.1 1 7.5 2 .4.2.9.4 1.5.1l-.6-1.2c-.9-1.5-1.4-3.2-1.7-4.9-.3-1.6-.2-3.1-.3-4.7-.1-.9.2-1.9.4-2.9.2-1.1.5-2.3.8-3.4.3-1.3.8-2.6 1.6-3.8.8-1.3 2-2.2 3.3-3.1.3-.2.5-.3.7-.4v-.3c-1.2-1-2.5-1.9-4-2.6-1.6-.7-3.2-1.5-4.8-2.1-.6-.2-1.2-.5-1.8-.6-2.8-.9-5.6-1.8-8.5-2.6-2.9-.8-5.9-1.5-8.9-2.3-.6-.1-1.2-.2-1.7-.3-.6-.1-.8.2-.6.7l.6.9c.1.2.4.3.6.5.9.9.8 1.8-.5 2.3-.6.3-1.4.3-2.1.3-.6 0-1.3-.2-1.9-.2h-1.5zm136.1-7.8c-.8-.7-1.6-.6-2.3-.7-3.6-.3-6.9-1-10.3-2-.6-.2-1.4-.2-2-.4-2.3-.5-4.6-.5-6.9-.8-.7-.1-1 .2-.9.8.1.5.3 1 .5 1.5.5 1.4-.2 2.3-1.8 2.7-1.7.4-3.2.1-4.7-.4l-1.5-.3c-.6-.1-.8.2-.6.7.3.6.7 1.2.7 2 0 1.3-.3 1.9-1.6 2.5-.9.4-1.8.5-2.8.3-2-.3-4.1-.5-6.1-.7-.3-.1-.5-.1-.8 0-.6 0-.8.2-.8.7 0 .5.1 1 .2 1.4.2.8-.1 1.4-.9 2-1.7 1.1-3.4.9-5.2.5L390 77c-.1.5-.3.9-.2 1.3.1 1.2-.7 1.9-1.8 2.4-.7.3-1.5.4-2.3.3l-3.6-.6c-.3-.1-.7-.1-1.1-.1-.3.6.1 1 .5 1.3.7.7 1.5 1.3 2.2 1.9 1.9 1.8 3.8 3.7 5.4 5.7.3.4.7.6 1.3.7 3.4.5 6.8.6 10.1.4 2.4-.1 4.7-.7 7-1.1 2.4-.4 4.5-1.2 6.7-2.1 1.6-.7 3.1-1.5 4.7-2.4 1.4-.8 2.8-1.5 4.1-2.3 1.8-1.1 3.5-2.1 4.9-3.5.6-.6 1.3-1 2-1.5 1.3-1 2.6-1.9 3.9-2.9.6-.4 1-.9 1.6-1.4 1.3-1.2 2.7-2.4 4.1-3.5.3-.6 1-1 1.7-1.5zm32.3 5.1c1.4 1.1 1.7 1.1 2.4-.3.6-.7 1.3-1.4 1.9-2.1.1-.1.2-.1.2-.2 1.4-2.2 3.4-4 5.2-5.9.9-1 1.7-2.2 2.5-3.3.3-.5.6-.9 1-1.4 1.8-2.2 3.7-4.3 5.5-6.5 1.3-1.6 2.4-3.3 3.7-5l.3-.3c1.7-1.8 3.2-3.8 4.7-5.8.1-.1.2-.2.3-.4 1.1-1.3 2.2-2.6 3.3-4 .5-.6 1-1.1 1.5-1.6.8-.9 1.6-1.8 2.6-2.7.8-.7 1.7-1.4 2.6-2.1.7-.5 1.3-1 2-1.5.8-.5 1.6-1.1 2.5-1.4 2.4-.8 4.4-1 6.6.7.7.5 1.3 1 1.9 1.5.1 0 .2.1.2.2.7 1.2 1.7 2.2 2.5 3.3.4.6.8 1 1.3 1.6 1.4 1.7 2.8 3.4 3.9 5.2.7 1.2 1.7 2.2 2.4 3.4.9 1.3 1.7 2.6 2.5 3.9l4.8 8.1c.6 1 1.3 1.9 1.8 3 .9 1.9 1.5 3.8 1.4 5.9-.1 1.3-.4 2.7-.6 4-.2 1.4.5 2.6 1.4 3.7.5.6 3 1.2 3.7 1 .8-.2 1.4-.9 1.2-1.8-.1-1.2-.7-2.3-1.3-3.4-.5-.9-1-1.8-1.5-2.8-.4-.6-.7-1.3-.9-2-.1-.5-.1-1-.2-1.4l-2.1-5.1c-.1-.2-.3-.3-.3-.6-.5-1.7-1.6-3.2-2.3-4.8-.3-.6-.7-1.2-1.1-1.7-.5-.7-.9-1.4-1.4-2.1-1.1-1.7-2.1-3.5-3.2-5.3-1.3-2.2-3-4.1-4.8-6-1.2-1.3-2-2.8-3-4.1-.6-.7-1.1-1.4-1.9-2-.6-.4-1.1-1-1.7-1.4-.9-.7-1.9-1.2-2.9-1.8-.8-.5-1.7-.9-2.7-.9-.1 0-.3 0-.5-.1-.7-.4-1.4-.2-2.2-.2-1.5 0-2.6.7-3.6 1.5-1.9 1.5-3.7 3.2-5.6 4.8-.8.7-1.6 1.3-2.4 2-1.9 1.4-3.4 3.1-4.8 4.9-1 1.2-2.1 2.3-3.1 3.5-.4.4-.7.8-1 1.2-.9 1.2-1.9 2.3-2.8 3.5-.8 1.1-1.6 2.3-2.4 3.4-1 1.4-2 2.9-3.1 4.2-1.1 1.4-2.4 2.9-3.6 4.3-2 2.3-4 4.7-6 7.1-1 1.2-2 2.3-3 3.5-.5.7-1.1 1.6-1.8 2.6zm23.6 26.2c-.5.4-1 .8-1.4 1.2-.2.2-.3.4 0 .6.7.6 1.4 1.1 2.2 1.8.2-.8-.3-2.7-.8-3.6zm-11.9 12.9c0-.5-.5-1.1-1.1-1.1-.6 0-1.3.5-1.3 1.1 0 .6.5 1 1.2 1.1s1.2-.5 1.2-1.1zm4.2-2.8c.1-1 .4-1.8-.2-2.6-.7.2-1 .8-1.4 1.2-.3.2-.1.5.2.7l1.4.7zm9 22.2c0 .6 0 1.2.1 1.8 0 .2.3.5.4.5.4-.1.8-.2 1.2-.4.1-.1.1-.5-.1-.6-.4-.5-.9-.9-1.5-1.4l-.1.1zm4.6-.5c.9-.3 1.2-.9 1.7-1.6l-2-.3c0 .6-.2 1.3.3 1.9zm-18.9 7.6c-.3-.5-.6-.9-1.4-1-.5.4-.6 1-.8 1.8 1-.2 1.7-.2 2.2-.8zm10.4-3.2c.4.1 1-.3 1-.6s-.5-.6-.9-.6c-.5 0-.5.4-.6.9.1.1.3.3.5.3zm10.4-10.5c-.2.7.1 1.3.5 2 .7-.9.6-1.3-.5-2zm-5.2-29c-.7.5-.7.6.4.7l-.4-.7zm-21.3 20.3l.3-.8-.2-.1-.8.7.7.2zm14-12.1c.4-.2.4-.5.2-.8-.4.3-.6.5-.2.8z"/><path fill="none" d="M508.1 128.3l.9.8c.2.3.5.6.8.8.9.5 1.5 1.3 1.8 2.2.5 1.6 1.3 3.2 1.4 5 0 1.7.4 3.4 0 5.1-.1.5-.2 1-.2 1.5 0 1.7-.6 3.2-1.5 4.6-.6 1.1-1.5 2.1-2.3 3.1-.6.7-1.3 1.3-2 1.9-.4.3-.8.6-1.2.8-1 .6-1.9 1.4-2.9 1.9-2.9 1.6-5.7 3.2-8.6 4.6-2.7 1.4-5.4 2.6-8.1 3.9-3.3 1.5-6.7 3-10.1 4.5-1.9.8-3.8 1.6-5.7 2.5-2.3 1.2-4.6 2.4-6.9 3.7-3.1 1.7-6.3 3.4-9.4 5.2-1.6.9-3.1 1.8-4.7 2.8-2 1.2-4 2.3-6 3.5l-.6.3c-1.9.7-3.9 1.3-5.9 1.5-1 .1-2 .4-3 .6-2.8.5-5.4 0-8.1-.6-.2 0-.4-.1-.7-.2-2.1-1-4.1-2-6.1-3.1-1.4-.8-2.8-1.5-3.9-2.5-1-.8-2-1.6-3-2.5-1.2-1.1-2.4-2.1-3.4-3.2-1-1.2-2.2-2.2-3.3-3.3-1.3-1.3-2.5-2.5-3.7-3.8-1.5-1.7-2.9-3.3-4.4-5-1.7-2-3.4-4-5.2-5.9-.7-.8-1.3-1.6-2-2.4-.8-.8-1.6-1.7-2.4-2.5-1-1.1-2-2.3-2.9-3.4-1-1.2-2.1-2.3-3-3.5-1-1.2-2-2.4-3.1-3.6-.9-1-2-1.9-2.8-3-.6-.7-1.3-1.3-1.8-2-.5-.6-.8-1.2-1.3-1.7-1.5-1.4-2.7-3.1-4.2-4.5-1.4-1.2-2.4-2.7-3.7-4-2.7-2.7-5.5-5.5-8.3-8.2-.4-.4-.8-.7-1.2-1.1-1.1-1-2.2-2-3.4-2.8-1.6-1.1-3.4-2.2-5-3.2l-2.1-1.5c-1.5-1.1-3-2.2-4.8-2.9-.3-.1-.7-.4-.9-.7-1.7-2.1-2.9-4.4-3.2-6.9-.3-2-.3-4-.4-6.1 0-.2 0-.4.1-.6.5-1.9.8-3.9 1.4-5.8.5-1.8 1.5-3.4 3.3-4.6.6-.4 1.2-.7 1.9-.6 1.3.3 2.6.5 3.9.8.8.2 1.6.4 2.4.5l4.2.6c2.6.5 5.1 1 7.7 1.6 1.5.3 3.1.6 4.6.9 2.8.6 5.4 1.2 8.2 1.4.2 0 .5.1.7.1 1.1.2 2.3.4 3.4.5 1.2.1 2.4.2 3.7.3 1.6.2 3.1.5 4.6.7.9.1 1.7.3 2.5.5s1.8.1 2.7.1c1.2.1 2.3.2 3.5.2 1.7.1 3.4.1 5.1 0 1.3 0 2.7 0 4-.3 2.1-.3 4.1-.8 6.1-1.2 2.3-.5 4.6-1.2 6.7-2.3 1.8-.9 3.5-1.9 5.4-2.8 3-1.4 5.6-3.5 8.2-5.4 1.6-1.1 3-2.4 4.5-3.5.6-.4 1.1-.9 1.6-1.3 2.8-2.5 5.6-5 8.9-7 .6-.4 1.3-.8 1.9-1 .7-.2 1.5-.3 2.2-.5 1.3-.3 2.5-.1 3.8.2.3.1.6.2.9.2 2.1.4 4 1.1 5.9 1.8 1.6.6 3.1 1.2 4.7 1.8 1.3.5 2.5 1.1 3.8 1.6.2.1.5.2.7.4 1.1.7 2.3 1.4 3.4 2.1 1.4.8 2.9 1.7 4.2 2.5 1.8 1.2 3.5 2.5 5.3 3.7 1.5 1 3 2 4.5 2.9 1.1.8 2.2 1.5 3.3 2.3 1.8 1.3 3.5 2.6 5.3 4 .2.1.4.3.5.6.6.7 1 1.5 1.8 2.1.2.1.3.3.4.5.2.9.3 1.7-.3 2.5-.6 1-1.3 1.9-2.4 2.6-.7.4-1.2.9-1.8 1.3-.5.4-.9.8-1.4 1.1-.3.2-.5.4-.7.7-1.3 1.4-2.5 3-3.8 4.4-.2.2-.4.4-.6.5-.9.8-1.9 1.5-2.7 2.4-.7.8-1.6 1.5-2.6 2-1.6.9-3.1 1.7-4.3 3-.9.9-1.8 1.9-2.7 2.9-2.2 2.4-4.6 4.7-6.2 7.5-1.2 2-2.3 4-3.3 6.1-.7 1.3-1.1 2.7-1.6 4-.7 1.6-1.4 3.3-2 4.9l-1.2 3.6c-1.2 3-2.1 6.1-2.4 9.3 0 .5.6 1.7 1.2 1.9.7.3 1.4.1 2-.3.2-.1.4-.3.6-.4 1-.7 1.9-1.4 2.9-2 1.6-1 3.3-2 4.8-3 2-1.3 4.2-2.2 6.4-3.2 2.7-1.3 5.6-2.5 8.4-3.7.9-.4 1.7-.8 2.7-1.1 1.8-.5 3.6-.9 5.3-1.4 1.3-.3 2.7-.5 3.9-1.1 2.1-.9 4.4-1.5 6.5-2.3.4-.2.9-.4 1.2-.6 1.9-1.5 3.6-3.3 4.3-5.5 0-.1.2-.3.4-.8zm-109.2-25.2h-1.2c-1.1-.1-2.2-.4-3.3-.5-1.8-.2-2.3.3-2 1.8.1.6.4 1.2.8 1.9-.2.3-.7.3-1.2.3-.9-.1-1.9-.2-2.8-.3-1.8-.2-2.5.6-1.9 2.1.3.7.6 1.4.8 2.1.3.8 0 1-.9.9-1-.1-2.1-.2-3.1-.2-1.5-.1-2.2.5-2 1.8.2 1.3.9 2.3 2.2 3 1.8.9 3.7 1.6 5.7 2.1 3.9 1.1 7.8 2.3 11.6 3.4 1.5.4 3 .8 4.6 1.2 3.1.9 6.2 1.8 9.4 2.7l5.1 1.5c.9.2 1.8.5 2.8.6 2.1.1 4.2.1 6.3.1.9 0 1.6-.4 2.1-.9 1.6-1.7 3-3.5 4.1-5.5 1-1.7 1.4-3.5 2-5.3.1-.4.1-.7.1-1.1 0-.9-.9-1.4-1.9-1.2-.4.1-.8.3-1.3.4-1 .2-2 0-2.9-.4l-5.4-2.4c-2-.9-3.6-2.1-5.4-3.3-2-1.3-4-2.6-6.1-3.8-1.2-.8-2.6-1.4-3.8-2.1-1.7-.9-3.6-1.3-5.4-2-.5-.2-1.1-.3-1.5-.6-1.2-.7-2.6-.9-4.1-.9-1.9 0-2.8 1.4-2 2.9.4.4.6 1.1.6 1.7zm75.3-13.8c0-.9-.6-1.7-1.7-2.3-.3-.1-.6-.1-1-.1-.8.3-1.5.7-2 1.3-1 1.3.4 2.9 2 3.1.4 0 .9 0 1.4-.1.7-.1 1.2-.8 1.3-1.9z"/><path fill="none" d="M305.1 75.9c.5 0 .8 0 1.4.2.6.1 1.3.3 1.9.2.7 0 1.5-.1 2.1-.3 1.3-.5 1.4-1.3.5-2.3-.2-.2-.4-.3-.6-.5-.3-.3-.5-.6-.6-.9-.2-.5 0-.7.6-.7.6.1 1.2.2 1.7.3 3 .8 6 1.5 8.9 2.3 2.8.8 5.6 1.7 8.5 2.6.6.2 1.3.4 1.8.6 1.6.7 3.2 1.5 4.8 2.1 1.5.7 2.8 1.6 4 2.6v.3c-.2.1-.5.3-.7.4-1.3.8-2.5 1.8-3.3 3.1-.7 1.2-1.2 2.5-1.6 3.8-.3 1.1-.6 2.3-.8 3.4-.2 1-.5 1.9-.4 2.9.1 1.6 0 3.1.3 4.7.3 1.7.9 3.3 1.7 4.9.2.3.4.7.6 1.2-.5.2-1 .1-1.5-.1-2.4-1-4.9-1.7-7.5-2-3.7-.5-7.3-.8-11-1.2-2.4-.2-4.9-.5-7.3-.8-1-.1-2.1-.2-3.1-.3-2.9-.3-5.7-.9-8.3-2.1-.5-.3-1-.7-1.4-1.1-.4-.3-.3-.7.1-1 .7-.6 1.5-1 2.6-1.1 1-.1 2.1-.2 3.1-.5.5-.1.9-.4 1.3-.7.4-.2.5-.7.3-1-.1-.3-.4-.6-.5-.8l-.9-1.5c-.4-.9-.1-1.2.8-1.5.4-.2.8-.2 1.2-.4.6-.3 1.3-.6 1.8-1 .8-.6.8-1.4.2-2.1-.3-.4-.7-.7-1-1-.5-.5-1-.9-1.4-1.4-.6-.8-.5-1.2.4-1.8l.6-.3c.7-.4 1.5-.7 2.2-1.1 1.2-.7 1.2-1.2.5-2.2-.5-.7-1.1-1.4-1.6-2.1-.1-.5-.3-1-.4-1.8zm16.4 7l-.1-.2m119.8-14.6c-.7.5-1.4 1-2 1.5-1.4 1.1-2.7 2.3-4.1 3.5-.6.4-1 1-1.6 1.4-1.3 1-2.6 1.9-3.9 2.9-.7.5-1.4.9-2 1.5-1.5 1.4-3.2 2.4-4.9 3.5-1.3.8-2.7 1.6-4.1 2.3-1.5.8-3.1 1.7-4.7 2.4-2.1.9-4.3 1.6-6.7 2.1-2.3.4-4.6 1-7 1.1-3.4.2-6.8.1-10.1-.4-.6-.1-1-.3-1.3-.7-1.6-2.1-3.5-3.9-5.4-5.7-.7-.7-1.5-1.3-2.2-1.9-.4-.3-.8-.7-.5-1.3.4 0 .7 0 1.1.1l3.6.6c.8.2 1.6 0 2.3-.3 1-.5 2-1.1 1.8-2.4 0-.4.1-.8.2-1.3l3.4.9c1.8.5 3.5.6 5.2-.5.8-.5 1.1-1.1.9-2-.1-.5-.2-1-.2-1.4 0-.5.1-.7.8-.7h.8c2 .2 4.1.4 6.1.7 1 .2 2 .1 2.8-.3 1.3-.6 1.7-1.2 1.6-2.5 0-.7-.4-1.3-.7-2-.2-.5 0-.7.6-.7l1.5.3c1.5.5 3 .8 4.7.4 1.6-.4 2.3-1.4 1.8-2.7-.2-.5-.4-1-.5-1.5-.1-.6.2-.8.9-.8 2.3.2 4.6.3 6.9.8.7.1 1.4.2 2 .4 3.4.9 6.8 1.6 10.3 2 1 0 1.9 0 2.6.7zm34.5 2.5c1-1.2 2-2.3 3-3.5 2-2.3 4-4.7 6-7.1 1.2-1.4 2.4-2.8 3.6-4.3 1.1-1.4 2.1-2.8 3.1-4.2.8-1.1 1.6-2.3 2.4-3.4.9-1.2 1.8-2.4 2.8-3.5.3-.4.7-.8 1-1.2 1.1-1.2 2.1-2.3 3.1-3.5 1.4-1.8 2.9-3.5 4.8-4.9.8-.7 1.6-1.3 2.4-2 1.9-1.6 3.7-3.2 5.6-4.8 1-.8 2.1-1.5 3.6-1.5.8 0 1.5-.2 2.2.2.1 0 .3.1.5.1 1.1 0 1.9.4 2.7.9 1 .6 1.9 1.2 2.9 1.8.6.4 1 1 1.7 1.4.8.5 1.3 1.3 1.9 2 1 1.4 1.8 2.8 3 4.1 1.7 1.9 3.5 3.9 4.8 6 1.1 1.7 2.1 3.5 3.2 5.3.5.7.9 1.4 1.4 2.1.4.6.8 1.1 1.1 1.7.7 1.6 1.8 3.1 2.3 4.8.1.2.2.3.3.6.7 1.7 1.5 3.4 2.1 5.1.2.5.1 1 .2 1.4.3.7.6 1.4.9 2 .5.9 1 1.8 1.5 2.8.6 1.1 1.1 2.2 1.3 3.4.1.8-.4 1.6-1.2 1.8-.7.2-3.2-.3-3.7-1-.9-1.1-1.6-2.3-1.4-3.7.2-1.3.5-2.6.6-4 .1-2.1-.5-4-1.4-5.9-.5-1-1.2-2-1.8-3l-4.8-8.1c-.8-1.3-1.6-2.6-2.5-3.9-.8-1.2-1.8-2.2-2.4-3.4-1.1-1.9-2.5-3.5-3.9-5.2-.4-.5-.9-1-1.3-1.6-.8-1.1-1.8-2.1-2.5-3.3 0-.1-.1-.1-.2-.2-.7-.5-1.3-1-1.9-1.5-2.2-1.8-4.2-1.5-6.6-.7-.9.3-1.7.9-2.5 1.4-.7.4-1.4 1-2 1.5-.9.7-1.8 1.4-2.6 2.1-.9.9-1.7 1.8-2.6 2.7-.5.5-1 1.1-1.5 1.6-1.1 1.3-2.2 2.6-3.3 4l-.3.4c-1.5 2-3 3.9-4.7 5.8l-.3.3c-1.2 1.7-2.4 3.4-3.7 5-1.8 2.2-3.7 4.4-5.5 6.5-.4.4-.6.9-1 1.4-.8 1.1-1.6 2.3-2.5 3.3-1.7 2-3.7 3.8-5.2 5.9l-.2.2c-.6.7-1.3 1.4-1.9 2.1-1 1.2-1.2 1.2-2.6.1.5-.7 1.1-1.7 2-2.4zm20 30.6c-.3-.2-.2-.4 0-.6.5-.4.9-.8 1.4-1.2.5.8 1 2.8.8 3.6-.8-.7-1.6-1.2-2.2-1.8zm-12.9 11.1c0-.5.7-1.1 1.3-1.1.6 0 1.1.6 1.1 1.1 0 .5-.6 1-1.3 1-.6 0-1.1-.5-1.1-1zm6.6-2.8l-1.4-.7c-.3-.2-.5-.4-.2-.7.4-.4.7-1 1.4-1.2.7.8.4 1.6.2 2.6zm9 22.2l.2-.2c.5.5 1 .9 1.5 1.4.1.1.2.6.1.6-.4.2-.7.4-1.2.4-.1 0-.4-.3-.4-.5-.2-.5-.2-1.1-.2-1.7zm6.3-2.1c-.5.7-.8 1.3-1.7 1.6-.5-.6-.3-1.3-.4-2 0 .1 2.1.4 2.1.4zm-22.8 10c.3-.8.3-1.3.9-1.7.7.1 1 .5 1.4 1-.6.5-1.3.5-2.3.7zm12.7-5.2c.4 0 .9.3.9.6s-.5.7-1 .6c-.2 0-.4-.3-.6-.4.2-.4.2-.8.7-.8zm10.3-9.3c1.1.7 1.2 1.1.5 2-.4-.7-.7-1.2-.5-2zm-26.4-9.6l.2.1-.3.8-.7-.2.8-.7zm13.9-11.2c-.4-.4-.2-.6.2-.8.2.4.2.7-.2.8z"/><path fill="#FFC107" d="M398.9 103.1c0-.6-.2-1.3-.6-1.9-.9-1.5.1-2.9 2-2.9 1.5 0 2.9.2 4.1.9.5.3 1 .4 1.5.6 1.8.6 3.7 1 5.4 2 1.3.7 2.6 1.3 3.8 2.1 2 1.2 4.1 2.5 6.1 3.8 1.8 1.2 3.4 2.4 5.4 3.3l5.4 2.4c.9.4 1.9.6 2.9.4.4-.1.8-.3 1.3-.4 1-.3 1.8.3 1.9 1.2 0 .4 0 .8-.1 1.1-.6 1.8-1 3.6-2 5.3-1.2 2-2.6 3.8-4.1 5.5-.6.6-1.3.9-2.1.9-2.1 0-4.2 0-6.3-.1-.9-.1-1.8-.3-2.8-.6-1.7-.4-3.4-1-5.1-1.5-3.1-.9-6.2-1.8-9.4-2.7-1.5-.4-3-.8-4.6-1.2-3.9-1.1-7.8-2.3-11.6-3.4-2-.6-3.9-1.2-5.7-2.1-1.3-.7-2-1.7-2.2-3s.5-1.8 2-1.8c1 .1 2.1.1 3.1.2.9 0 1.2-.2.9-.9-.3-.7-.6-1.4-.8-2.1-.6-1.5.1-2.2 1.9-2.1.9.1 1.9.2 2.8.3.4.1 1 .1 1.2-.3-.3-.7-.6-1.3-.8-1.9-.3-1.6.1-2 2-1.8 1.1.1 2.2.3 3.3.5.4.2.8.2 1.2.2zm25.7 23.1c1.1-.1 2.1-.1 3.1-.2 1.1-.1 2-.7 2.7-1.4.9-.9 1.7-1.7 2.3-2.7.8-1.4 1.9-2.8 2.1-4.4.1-.3.3-.6.4-1 .2-.6 0-.8-.7-1-.2 0-.4-.1-.6-.1-1.4.2-2.5-.5-3.7-.9-1.7-.7-3.3-1.5-4.9-2.3l-1.8-.9c-3.9-2.1-7.7-4.3-11.5-6.6-2.8-1.7-5.8-3.1-9-4.1-.5-.2-1-.5-1.5-.6-.7-.2-1 0-1 .6.1.5.2 1.1.4 1.6.1.3.3.7.2 1s-.3.7-.5.8c-.6.2-1.3.5-2 .4-.8 0-1.6-.3-2.5-.4-.2 0-.5-.1-.7-.1-.7 0-.9.4-.7 1l.7 1.4c.3.5.1.9-.5 1.1-.6.2-1.2.3-1.8.4-1 0-2 0-2.9-.1-.9-.1-1.3.3-.9 1 .2.6.6 1.1.9 1.6.5 1.2 0 2.2-1.6 2.3-.7.1-1.5 0-2.3 0-.5 0-1.1-.1-1.7-.1-.6 0-1 .4-.7.9.2.4.6.9 1.1 1.2 1.2.6 2.4 1.2 3.6 1.6 3.6 1.1 7.3 2 11 3l13.2 3.6c1.4.4 2.7.7 4 1.1 1.4.5 2.7.9 4.1 1.4 1.1.5 2.3.8 3.7.9zm48.3-35c-.4.1-.9.1-1.4.1-1.6-.1-3-1.7-2-3.1.5-.6 1.2-1 2-1.3.3-.1.7-.1 1 .1 1.1.6 1.7 1.4 1.7 2.3-.1 1.1-.5 1.8-1.3 1.9z"/><path fill="none" d="M424.6 126.2c-1.4 0-2.6-.3-3.8-.9-1.3-.5-2.7-1-4.1-1.4-1.4-.4-2.7-.8-4-1.1l-13.2-3.6c-3.7-1-7.3-2-11-3-1.3-.3-2.5-1-3.6-1.6-.5-.2-.8-.7-1.1-1.2-.3-.5 0-.9.7-.9.5 0 1.1.1 1.7.1.8 0 1.6.1 2.3 0 1.6-.2 2.2-1.1 1.6-2.3-.2-.6-.6-1.1-.9-1.6-.3-.8 0-1.1.9-1 1 .1 1.9.1 2.9.1.6 0 1.2-.2 1.8-.4.6-.2.7-.6.5-1.1l-.7-1.4c-.2-.6 0-.9.7-1 .2 0 .5.1.7.1.8.2 1.6.4 2.5.4.6 0 1.4-.2 2-.4.3-.1.5-.5.5-.8.1-.3-.1-.6-.2-1-.1-.5-.3-1-.4-1.6-.1-.6.2-.8 1-.6.5.1 1 .5 1.5.6 3.2 1 6.1 2.5 9 4.1 3.8 2.2 7.7 4.4 11.5 6.6.6.4 1.2.6 1.8.9 1.6.8 3.2 1.6 4.9 2.3 1.2.5 2.3 1.1 3.7.9.2 0 .4.1.6.1.7.1.9.4.7 1-.1.3-.3.6-.4 1-.2 1.6-1.2 3-2.1 4.4-.6 1-1.5 1.9-2.3 2.7-.7.7-1.6 1.3-2.7 1.4-.9 0-2 .1-3 .2zM501.9 99s.2-.2-1.7-2.2h-.4"/><title>jelly2</title><path fill="none" d="M0 298.2L44.8 0l259.6 39-44.8 298.2L0 298.2zM195.6 139l.2-.3c.5.1.9.1 1.3.2.6.1 1.3.3 1.9.5 1.4.3 2.8.5 4.2 1 2.6.9 5.1 1.8 7.4 3.2 2.6 1.6 5.3 2.9 7.4 5 .5.5 1.1 1.2 1.6 1.7 1.9 1.8 3.3 3.9 4.7 6 1.2 1.7 2.2 3.6 3.2 5.4.8 1.4 1.6 2.7 2.1 4.2 1.1 3.2 2.1 6.4 3.1 9.6.6 2.2.9 4.6 1.4 6.9.2 1.1.3 2.2.5 3.3.3 2.5.5 5 .8 7.5.1.7.2 1.3.2 2 0 1.8.1 3.5.1 5.2.1 3.2.4 6.5.1 9.7-.1 1.2-.1 2.4-.1 3.6-.1 1.8-.3 3.5-.5 5.3v.6c0 1.9 0 3.9-.1 5.8-.4 3.4-.6 6.8-.4 10.2.1 1.1.1 2.3.4 3.4.5 2.1 1.1 4.1 1.8 6.1s1.6 3.9 2.9 5.5l.6.9c1 1.3 2 2.8 3.2 4 2.8 2.8 6.1 5 9.7 6.6.8.3 1.5.8 2 1.4 1.2 1.3 2.6 2.5 3.9 3.7.9.8 1.7.9 2.6.2.8-.7 1.2-1.8 1.2-2.9 0-.3-.2-.6-.4-.8-.6-.8-1.3-1.5-1.9-2.3-.4-.5-.8-1-1.4-1.3-1.8-1.1-3.5-2.3-5.4-3.2-2-.9-3.6-2.5-5.2-4-1.4-1.4-2.6-3-3.9-4.5-.5-.7-1-1.4-1.3-2.2-.8-1.7-1.3-3.5-1.6-5.4-.2-1.8-.7-3.7-.8-5.5-.2-1.9-.2-3.7-.1-5.5 0-2.1-.3-4.1.1-6.2.2-1.4.2-2.8.2-4.1.1-1.7.1-3.5.2-5.2.1-1.6.3-3.2.4-4.8.1-.9.2-1.8.1-2.7 0-1.4-.2-2.8-.3-4.2-.1-2.2 0-4.4-.3-6.6-.7-3.9-.4-7.9-1.5-11.8 0-.2-.1-.4 0-.6 0-1 .1-2.1-.1-3.1-.6-3.1-1.3-6.2-2.3-9.3-.3-.9-.5-1.8-.9-2.7-.6-1.4-1.2-2.8-1.8-4.3-.9-2.1-1.9-4-3.3-5.8-1.3-1.7-2.7-3.4-4-5.2-.9-1.2-1.9-2.4-3-3.5-2.3-2.4-4.7-4.6-7.2-7-2.6-2.6-5.6-4.7-8.9-6.2-2.8-1.3-5.7-2.4-8.6-3.6-1.6-.6-3.3-1.2-5-1.7-.7-.2-1.2-.7-1.3-1.5-.1-.6-.4-1.1-.7-1.6-1.3-1.9-2.8-3.7-4.5-5.3-.5-.5-1.1-1.1-1.7-1.5-1.4-1.1-2.9-2.1-4.2-3.2-1.8-1.5-3.6-3.1-5.5-4.6-2.4-1.9-4.8-3.7-7.3-5.5-1.3-1-2.7-1.9-4-3-.9-.8-1.9-1.4-3-1.9-.3-.1-.6-.3-.9-.4-1.6-.7-3.2-1.4-4.7-2.2-.8-.4-1.6-.8-2.5-1.2-.3-.2-.5-.4-.7-.7-.5-.7-.9-1.5-1.3-2.3-.8-1.6-1.6-3.3-2.3-4.9-.2-.4-.4-.9-.5-1.3-.1-.3 0-.6.1-.9 2.1-3.5 1.7-7.3.9-11-.3-1.2-.6-2.5-.9-3.7-.6-2.4-1.4-4.8-2.5-7.1-.6-1.2-1.3-2.5-1.7-3.7-.4-1.2-1.1-2.2-1.6-3.3-1.3-2.4-2.9-4.5-4.7-6.6-.7-.8-1.3-1.6-2-2.2-1.6-1.5-3.2-3-4.7-4.5-.1-.1-.2-.3-.3-.4l-1.5-1.5c-.5-.5-1-.9-1.5-1.4-.6-.6-1.2-1.4-2-1.9-1.6-1.2-3.3-2.4-5-3.4-1.8-1.1-3.7-2.1-5.8-2.7-.9-.3-1.8-.4-2.6-.8-2.8-1.4-5.8-1.8-8.8-2.1-2-.2-3.9.1-5.9.2-.9.1-1.9.3-2.8.4-1.2.1-2.3.3-3.4.8-1.4.6-2.9 1.2-4.3 1.8-.9.4-1.7.8-2.6 1.2-2 .9-4 1.8-6.1 2.7-.6.3-1.2.8-1.8 1.1-1.9 1.2-3.9 2.2-5.7 3.6-1.9 1.3-3.7 2.9-5.4 4.4-1.7 1.5-3.3 3-4.8 4.6-1 .9-1.7 2-2.6 3.1-.5.5-.9 1.1-1.3 1.7-.9 1.4-1.8 2.8-2.5 4.3-1 1.9-2 3.8-2.8 5.8-.8 2.2-1.5 4.5-1.5 6.9 0 1.4-.1 2.8-.1 4.1.1 1.8.1 3.7.4 5.4.4 2.7 1 5.3 1.8 7.9.7 2 1.4 3.9 2.4 5.8 1.3 2.2 2.6 4.4 4.1 6.6 1.1 1.6 2.4 3.2 3.6 4.7.8.9 1.6 1.9 2.6 2.6 2 1.6 3.8 3.5 5.9 5 1.5 1.1 2.8 2.4 4.3 3.3 2.5 1.5 5 3 7.6 4.3 1.7.8 3.6 1.4 4.8 2.9.2.2.5.4.8.5 1.4.6 2.9 1.2 4.5 1.1.8-.1 1.4.3 1.8 1 .5 1 1.1 2 1.6 3 1.4 2.3 2.1 4.9 2.8 7.5.6 2.5.9 5 1.2 7.5.1 1 0 2.1-.1 3.2-.2 2.8-.6 5.7-.8 8.5-.1 2 0 4-.5 5.9 0 .2-.1.5 0 .7.1 2.4.1 4.8.3 7.1.3 3.6.5 7.3 1.1 10.9.2 1.2.5 2.5.9 3.7.5 1.5 1.1 3.1 1.6 4.6.3 1 .6 2 .9 2.9.5 1.6 1.1 3.2 1.6 4.8.3.9.6 1.7 1 2.5.6 1.3 1.4 2.6 2 3.9 1.4 3 3.1 6 4.9 8.8 1.7 2.7 4.2 4.9 6.1 7.4.1.1.2.1.3.2 1 1 2.1 2 2.9 3.1 2.1 2.7 4 5.5 6.1 8.2 1.8 2.4 3 5.1 3.9 7.9.7 2 1.8 3.8 2.4 5.9.5 1.7 1.3 3.4 1.9 5.1.3.9.6 1.9.9 2.8.3 1.3.7 2.7 1 4 .3 1.3.7 2.6 1.1 3.9.7 2 1.4 4.1 2.3 5.9.9 1.8 2.1 3.4 3.3 5.1 1 1.5 2.1 3 3.2 4.4 1 1.3 2.1 2.5 3.2 3.7 1.8 2 3.7 4.1 6.1 5.4.4.2.6.5.9.7 1.1.8 2.1 1.7 3.3 2.3 2.2 1.2 4.5 2.3 6.9 3.3 1.9.8 3.9 1.4 6.1 1.6.9.1 1.8.2 2.7.4 1.1.3 2.2.3 3.3.2 1-.1 2-.4 3.1-.4 1.4-.1 2.6-.7 3.8-1.3 1-.6 1.1-1.8.1-2.5-.6-.4-1.2-.7-1.9-.8-2.8-.5-5.6-.8-8.4-1.3-2.5-.4-4.9-1-7-2.5-.2-.1-.4-.2-.5-.3-2.3-1.1-4.6-2.2-6.8-3.4-1.2-.6-2.4-1.3-3.6-1.9-.6-.4-1.2-.8-1.7-1.2-.9-.8-1.7-1.7-2.6-2.4-.9-.8-1.7-1.6-2.3-2.6-.5-.8-.9-1.7-1.4-2.5-.5-.8-.9-1.7-1.4-2.5-.6-1.1-1.2-2.2-1.6-3.3-.3-.6-.3-1.3-.5-1.9-1-3.1-2.4-6.1-3-9.3 0-.3-.2-.5-.2-.8-.6-1.5-1.3-3-1.8-4.6-.9-3.1-2-6.1-3.6-8.8-.1-.2-.2-.4-.3-.7-.2-.7-.4-1.5-.8-2.1-1.4-2.9-2.5-5.9-4.6-8.4-1-1.1-1.9-2.3-2.9-3.4-.9-1-1.8-1.9-2.7-3-.5-.6-1-1.3-1.5-1.9-1.1-1.3-2.1-2.5-3.2-3.8-1-1.1-2-2.2-2.8-3.4-1.5-2.2-3-4.4-4.4-6.6-.8-1.2-1.6-2.5-2.3-3.8-.9-1.8-1.8-3.6-2.6-5.4-1.4-2.9-2.7-5.8-3.6-8.9-.7-2.4-1.6-4.7-2.3-7.1-.9-3-.9-6.2-.9-9.3-.1-2.5-.1-5 .3-7.5l.3-2.1c.2-1.8.3-3.5.5-5.3.3-2.3.6-4.5.6-6.9 0-3 .3-6 0-9-.2-2-.5-4-.8-6 0-.5-.3-.9-.4-1.4-.4-2.4-1-4.7-2-6.9-1.2-2.9-2.7-5.4-5.3-7.3-.7-.5-1.2-1.1-1.4-1.9-.2-.8-.4-1.5-.7-2.3-.5-1.3-.5-2.6-.2-4 .1-.5.2-1.1.4-1.6l.3-.1c.2.3.5.5.6.7.8 2 1.6 4 2.2 6 .5 1.7 1 3.3 2.1 4.8.5.6 1 1.2 1.3 2 .9 1.8 2.3 3.4 3.4 5 1.6 2.2 3.1 4.5 4.4 6.7 2 3.3 3.9 6.6 5.7 10 .5.9 1 1.9 1.4 2.9.4 1 .5 2.1.7 3.1.2.9.3 1.8.4 2.7.1.9.1 1.7.1 2.6v1.9c-.1 1.6-.2 3.2-.3 4.7-.1 2.3-.3 4.5-.5 6.8-.2 1.6-.7 3.3-.5 4.9.2 2.9.6 5.9 1.2 8.8.5 2.2.7 4.4 1.7 6.4.5.8.7 1.9 1.2 2.7.5 1.1 1.3 2.1 1.8 3.2.7 1.6 1.9 2.8 2.8 4.3.2.4.5.8.9 1.1 1.2 1.2 2.4 2.4 3.8 3.5.5.4 1 .8 1.6 1 .9.4 1.3 1 1.4 1.9.3 2.3.7 4.7 1 7 .2 1.5.6 3 1 4.5.5 2.3.9 4.7 2.5 6.6.1.1.2.3.3.5 1.3 2.6 2.6 5.1 4.6 7.2 2.4 2.6 4.2 2.8 6.6 1.6 2-1 2.3-2.2.9-4-.1-.1-.2-.2-.2-.3-.8-1-1.6-2.1-2.5-3-1.1-1.2-2.3-2.4-3.5-3.5-1.5-1.4-2.3-3.1-2.9-5-.6-1.6-1.1-3.3-1.5-5-.2-.9-.2-1.9-.3-3 1.2.5 2.1 1.2 2.9 2 1.6 1.5 3.4 2.5 5.2 3.4.7.4 1.5.7 2.2 1.2.5.3 1 .7 1.5.9 2 .7 4 1.4 6.1 2.2 1.4.5 2.7 1.1 3.7 2.3.5.7 1.3 1.2 2.1 1.7 1 .7 2.1 1.2 3.2 1.8 1.6.9 2.8 2.3 3.9 3.7 1.5 2 1.8 4.5 2.3 6.9.3 1.1.2 2.3.7 3.4 1.2 2.9 3.3 5.1 5.9 6.8 1 .7 2.2.9 3.4.4.9-.4 1.9-.8 2.8-1.2.8-.4 1.4-.3 1.8.4.9 1.6 1.8 3.2 2.5 4.9.8 1.8 1.4 3.6 2 5.5.4 1.2.6 2.4.8 3.6.3 2.2.6 4.5.9 6.7.2 1.6.8 3.2.4 4.8 0 .2 0 .3.1.5.3 1.7.7 3.4.8 5.1.3 3.2 1.9 5.9 3.3 8.6.8 1.4 1.9 2.7 3 3.9 1.4 1.4 2.9 2.8 4.9 3.3 1.4.3 2.8.5 4.2.7.9.1 1.4-.5 1.3-1.4 0-.4-.2-.8-.4-1.1-.5-.6-1-1.1-1.5-1.6-1.1-.9-2.3-1.6-3.3-2.5-3-2.8-4.7-6.4-5.8-10.3-.7-2.7-1.3-5.4-1.4-8.3l-.3-2.7c-.7-3.4-1.3-6.9-2.1-10.3-.4-1.7-.9-3.4-1.5-5.1-.9-2.3-1.8-4.5-3.3-6.6.5 0 .9.1 1.2.4 2.1 1.3 4.1 2.9 5.5 5 .8 1.2 1.7 2.2 2.9 2.9.9.5 1.8.7 2.9.6 1.1-.1 2-.9 3-1.3 1.2-.5 1.5-1.8 2.4-2.6.1-.1.1-.4.1-.6.2-1.6-.7-2.8-1.7-3.9-.9-.9-1.9-1.7-2.8-2.6-.6-.7-1.3-1.4-1.7-2.3-.7-1.5-.7-3.1-.7-4.6 0-1.8.6-3.5.2-5.3-.1-.8-.4-1.6-1-2.1-2.2-2-4.8-3.3-7.9-3.6-1.3-.1-2.5-.3-3.8-.6-.8-.2-1.7-.6-2.3-1.2-1.3-1.4-1.9-3.1-1.9-5.1.1-1.5.2-2.9.3-4.4 0-.5.1-1.2-.1-1.6-.7-1.5-1.5-3-2.9-4-1-.7-2-.9-3.3-.5-1.4.6-2.9 1-4.4 1.4-1.9.5-3.4-.2-4-1.8-.3-.8-.7-1.6-1-2.4-.8-2.1-.3-4 1.2-5.6.4-.4.8-.9 1.1-1.4.5-.7.5-1.5.1-2.2-.5-.8-.9-1.6-1.5-2.2-1.6-1.7-3.3-3.2-4.9-4.8-1.2-1.3-2.4-2.6-3-4.4-.4-1.3.2-2.6 1.3-3.3.5-.3.9-.6 1.4-1 .6-.6 1.1-1.3 1.6-1.9.7-.7.8-1.5.7-2.4-.2-1.1-.8-2.1-1.5-2.9-1.8-2.2-3.5-4.5-5.6-6.5-.2-.2-.3-.5-.5-.8-.6-1.1-.5-2.3-.4-3.5.1-1.7 1-2.8 2.5-3.6.8-.4 1.5-.9 2.3-1.3 1.1-.5 1.5-1.5 1.5-2.5 0-1.6-.5-3.1-1.4-4.3-1.7-2.2-3.9-3.7-6.7-4.1-.9-.1-1.9-.3-2.6-.9-2.3-1.7-3.8-4-3.8-7 0-1 .1-1.9.2-3 .4.1.7.1.9.3.6.4 1.3.8 1.9 1.3 2.2 1.7 4.4 3.3 6.8 4.7 1.8 1 3.5 2.2 5.1 3.5 1.9 1.7 3.7 3.6 5.4 5.5 1.7 2 3 4.4 3.8 6.9 1 3.3 1.2 6.6 1.4 10 .2 2.4.2 4.9.3 7.3.1 3 1.2 5.5 3.1 7.8.7.8 1.7 1.3 2.8 1.3 1.2 0 1.7-.6 1.7-1.8-.1-1.1-.6-2-1.4-2.8-.4-.4-.8-.7-1-1.2-1.2-2.4-1.8-4.9-1.1-7.7.2-.6.2-1.3.2-1.9.1-1.6.2-3.2.3-4.7.1-1.2.3-2.5.1-3.7-.2-1.5-.6-2.9-.9-4.4-.5-2-1.3-3.9-2.4-5.7-1.7-2.6-3.6-5.1-5.7-7.3-1.4-1.6-3-3.1-4.9-4.1-2.3-1.2-4.5-2.6-6.7-3.7-2.6-1.3-5.2-2.7-7.4-4.8-1-.9-1.8-1.9-3-2.5-.3-.1-.4-.6-.5-.9-.3-1.9-1.4-3.4-3-4.4-1-.7-2.1-1.2-3.2-1.9-.8-.5-1.6-.9-2.4-1.5-1.1-.8-1.9-2-2.6-3.2-.6-1-1-2.2-1.2-3.4-.2-2.1-.3-4.1-.5-6.1-.1-1.2-.2-2.5-.6-3.6-.5-1.9-1.6-3.6-2.8-5.2-1.3-1.6-2.6-3.2-4-4.8-.3-.3-.6-.6-.5-1.1.6-.2 1 .1 1.3.4.9 1 1.8 1.7 3.2 2 .5.1.8.4 1 .9.6 1.4 1.2 2.8 1.6 4.3 1.2 4.2 3.3 8 5.6 11.6.6.9 1.2 1.8 1.7 2.7.9 1.4 1.8 2.9 2.7 4.3.4.7.8 1.4 1.3 1.9 2 2.1 4 4.1 6.3 6 2.4 1.8 4.6 3.8 7 5.7 1.1.9 2.2 1.7 3.3 2.6 2.4 1.8 4.8 3.7 7.3 5.5 1.2.9 2.5 1.7 3.8 2.5 4.5 2.5 8 6.1 10.9 10.3.4.6.9 1.1 1.3 1.7 1.7 2.7 3.3 5.4 5 8.1.4.7.9 1.3 1.2 2.1.8 2.3 1.1 4.8.7 7.3-.1.8-.2 1.6-.4 2.3-.9 2.4-1.9 4.7-2.8 7-.7 1.6-1.2 3.2-1.3 4.9-.1 1.5-.1 3.1 0 4.6.1 3 .3 5.9.6 8.9.1 1.6.4 3.1.6 4.7.4 2.5 1 4.8 2.5 6.9 1 1.4 2.1 2.8 3.1 4.2.8 1 1.5 2.1 2.5 3 3.2 2.9 5.9 6.3 8.3 9.9.7 1.1 1.5 2.2 2.1 3.3 1.4 2.3 2.6 4.7 4 7 .5.9 1.3 1.6 1.7 2.4 1.1 2.3 2.3 4.5 2.6 7.1.2 1.4.6 2.8.8 4.2.2 1.9.3 3.9.3 5.8 0 1.7.4 3.2.8 4.8.4 1.4 1.8 2 3.1 1.2.8-.4 1.4-1 1-2-.1-.4 0-.9.1-1.3.3-1.6.4-3.2.3-4.9-.1-2.2-.4-4.5-.6-6.7-.1-.9-.2-1.7-.4-2.6-.3-1.4-.7-2.8-1-4.2-.6-2.5-1.4-4.9-2.9-7-1.8-2.6-3.7-5.1-5.5-7.6-1.8-2.4-3.6-4.7-5.5-7-1.1-1.4-2.1-2.8-3.2-4.1-2.4-3.1-4.8-6.2-6.1-10-.9-2.4-2.1-4.7-2.3-7.3 0-.2-.1-.4-.1-.6-.7-1-.5-2.2-.5-3.2-.1-3.9.2-7.7.8-11.6.2-1 .2-2 .6-2.9.3-.9.5-1.8.6-2.7.1-.7.1-1.3.8-1.8.7.3.9 1.1 1.1 1.7 1 2.9 1.4 5.9 1.9 8.9.3 2 .5 3.9.5 5.9 0 2.7.2 5.5.5 8.2.1 1.1.4 2.2.8 3.2 1.4 3.5 3.7 6.4 6.1 9.2 1.4 1.6 2.9 2.9 4.3 4.5 1.2 1.4 2.3 2.9 3.2 4.4.9 1.4 1.6 3 2.4 4.5.4.8 1.1 1.5 1.8 2 .8.5 1.7.6 2.5.1.7-.5.9-1.3.7-2.2-.3-1.6-.7-3.1-1.9-4.4-1-1.2-1.8-2.6-2.9-3.8-1.3-1.5-2.8-2.9-4.1-4.5-2.6-2.9-4.9-6-6.1-9.8-.4-1.2-1.1-2.4-1.3-3.7-.5-2.6-.7-5.1-1-7.7-.3-3-.5-6.1-.8-9.1-.3-2.4-.9-4.8-1.3-7.1-.1-.4-.2-.7-.2-1-.1-2.2-.8-4.3-1.5-6.3-.5-1.3-1-2.6-1.4-3.9-.3-1.1-.5-2.2-.2-3.3.5-1.4.4-2.8.4-4.2 0-2.6-1.3-5-1.6-7.5-.1-1.1-.5-2.1-.8-3.1-.2-.7-.5-1.4-.6-2.2-.2-1.4-.7-2.7-1.4-3.9-.2-.4-.4-.8-.5-1.2-.3-1.2-.9-2.3-1.7-3.2-.1-.2-.4-.3-.7-.4.4 1.5.6 2.9 1.2 4.1.4.9.9 1.8 1.1 2.8.1.7.2 1.3.4 2 .6 2 1.3 4 1.6 6.2.2 1.7.6 3.2.9 4.9.2 1 .3 2 .5 3.1 0 .2 0 .5-.1 1.1-.5-.5-.8-.7-1-1.1-.7-1-1.3-2.1-2-3.1s-1.2-2.1-1-3.4c0-.3 0-.6-.1-.9-.4-2.2-.8-4.5-1.1-6.7-.3-2.5-1.2-4.7-2-7.1-.1-.3-.3-.6-.5-.8l-.9-1.4z"/><path fill="#FFC107" stroke="#FFC107" stroke-miterlimit="10" d="M195.6 139l1 1.8c.2.3.3.5.5.8.7 2.4 1.6 4.6 2 7.1.3 2.2.7 4.5 1.1 6.7 0 .3.1.6.1.9-.2 1.3.3 2.4 1 3.4s1.3 2.1 2 3.1c.2.3.6.6 1 1.1 0-.6.1-.8.1-1.1-.1-1-.3-2-.5-3.1-.3-1.6-.7-3.3-.9-4.9-.3-2.1-1-4.2-1.6-6.2-.2-.6-.3-1.3-.4-2-.2-1-.6-1.9-1.1-2.8-.6-1.2-.8-2.6-1.2-4.1.3.2.6.2.7.4.8.9 1.4 2 1.7 3.2.1.4.3.8.5 1.2.7 1.2 1.2 2.5 1.4 3.9.1.7.4 1.4.6 2.2.3 1 .6 2 .8 3.1.3 2.5 1.6 4.9 1.6 7.5 0 1.4.1 2.8-.4 4.2-.4 1.1-.2 2.2.2 3.3.4 1.3.9 2.6 1.4 3.9.8 2.1 1.5 4.1 1.5 6.3 0 .4.2.7.2 1 .5 2.4 1 4.7 1.3 7.1.4 3 .5 6.1.8 9.1.3 2.6.5 5.2 1 7.7.2 1.3.9 2.4 1.3 3.7 1.2 3.8 3.6 6.9 6.1 9.8 1.3 1.5 2.8 2.9 4.1 4.5 1 1.2 1.8 2.6 2.9 3.8 1.1 1.3 1.6 2.8 1.9 4.4.2.9 0 1.7-.7 2.2-.8.5-1.7.4-2.5-.1s-1.4-1.2-1.8-2c-.8-1.5-1.5-3.1-2.4-4.5-1-1.5-2-3-3.2-4.4-1.3-1.6-2.9-2.9-4.3-4.5-2.4-2.8-4.7-5.7-6.1-9.2-.4-1-.7-2.1-.8-3.2-.3-2.7-.5-5.4-.5-8.2 0-2-.2-4-.5-5.9-.5-3-1-6-1.9-8.9-.2-.7-.4-1.4-1.1-1.7-.7.5-.7 1.2-.8 1.8-.1.9-.3 1.9-.6 2.7-.3.9-.4 1.9-.6 2.9-.7 3.8-.9 7.7-.8 11.6 0 1.1-.2 2.2.5 3.2.1.2.1.4.1.6.2 2.6 1.4 4.9 2.3 7.3 1.3 3.7 3.7 6.9 6.1 10 1.1 1.4 2.2 2.7 3.2 4.1 1.8 2.3 3.7 4.7 5.5 7 1.9 2.5 3.8 5 5.5 7.6 1.5 2.1 2.3 4.5 2.9 7 .3 1.4.7 2.8 1 4.2.2.8.3 1.7.4 2.6.2 2.2.5 4.5.6 6.7.1 1.6.1 3.2-.3 4.9-.1.4-.2.9-.1 1.3.3 1.1-.2 1.6-1 2-1.3.7-2.7.2-3.1-1.2-.4-1.5-.8-3.1-.8-4.8 0-1.9-.1-3.9-.3-5.8-.1-1.4-.6-2.8-.8-4.2-.4-2.6-1.5-4.8-2.6-7.1-.4-.9-1.2-1.6-1.7-2.4-1.4-2.3-2.6-4.7-4-7-.6-1.1-1.4-2.2-2.1-3.3-2.3-3.7-5.1-7-8.3-9.9-1-.9-1.7-2-2.5-3-1.1-1.4-2.1-2.8-3.1-4.2-1.5-2-2.1-4.4-2.5-6.9-.2-1.6-.5-3.1-.6-4.7-.3-3-.4-5.9-.6-8.9-.1-1.5 0-3.1 0-4.6.1-1.7.6-3.3 1.3-4.9 1-2.3 1.9-4.7 2.8-7 .3-.7.3-1.5.4-2.3.3-2.4.1-4.9-.7-7.3-.2-.7-.7-1.4-1.2-2.1-1.7-2.7-3.3-5.4-5-8.1-.4-.6-.9-1.1-1.3-1.7-2.9-4.2-6.4-7.8-10.9-10.3-1.3-.7-2.6-1.6-3.8-2.5-2.4-1.8-4.9-3.7-7.3-5.5-1.1-.8-2.2-1.7-3.3-2.6-2.3-1.9-4.6-3.9-7-5.7-2.3-1.8-4.3-3.9-6.3-6-.5-.5-.9-1.3-1.3-1.9-.9-1.4-1.8-2.9-2.7-4.3-.6-.9-1.2-1.8-1.7-2.7-2.3-3.7-4.4-7.5-5.6-11.6-.4-1.5-1.1-2.9-1.6-4.3-.2-.5-.5-.8-1-.9-1.3-.3-2.3-1-3.2-2-.3-.4-.7-.6-1.3-.4-.2.5.2.8.5 1.1 1.3 1.6 2.7 3.1 4 4.8 1.2 1.6 2.3 3.2 2.8 5.2.3 1.2.5 2.4.6 3.6.2 2.1.3 4.1.5 6.1.1 1.2.5 2.4 1.2 3.4.7 1.2 1.5 2.3 2.6 3.2.7.6 1.6 1 2.4 1.5 1 .6 2.2 1.2 3.2 1.9 1.6 1 2.7 2.5 3 4.4.1.3.2.8.5.9 1.2.6 2 1.6 3 2.5 2.2 2 4.7 3.4 7.4 4.8 2.3 1.2 4.5 2.5 6.7 3.7 1.9 1 3.5 2.5 4.9 4.1 2.1 2.3 4 4.7 5.7 7.3 1.1 1.7 1.9 3.6 2.4 5.7.3 1.4.7 2.9.9 4.4.1 1.2 0 2.4-.1 3.7-.1 1.6-.2 3.2-.3 4.7-.1.6-.1 1.3-.2 1.9-.7 2.7-.1 5.2 1.1 7.7.2.5.7.8 1 1.2.8.8 1.3 1.7 1.4 2.8.1 1.2-.5 1.8-1.7 1.8-1.1 0-2.1-.5-2.8-1.3-1.9-2.2-3.1-4.8-3.1-7.8-.1-2.5-.1-4.9-.3-7.3-.3-3.3-.4-6.8-1.4-10-.8-2.6-2.1-4.9-3.8-6.9-1.6-2-3.5-3.8-5.4-5.5-1.6-1.4-3.3-2.4-5.1-3.5-2.4-1.4-4.6-3.1-6.8-4.7-.6-.4-1.2-.8-1.9-1.3-.2-.1-.5-.2-.9-.3-.1 1.1-.2 2.1-.2 3 0 3 1.5 5.3 3.8 7 .7.5 1.7.7 2.6.9 2.8.5 5 1.9 6.7 4.1.9 1.3 1.4 2.8 1.4 4.3 0 1.1-.4 2-1.5 2.5-.8.4-1.5.9-2.3 1.3-1.5.8-2.4 1.9-2.5 3.6-.1 1.2-.2 2.4.4 3.5.2.3.3.6.5.8 2.1 2 3.9 4.2 5.6 6.5.7.9 1.2 1.8 1.5 2.9.2.9 0 1.7-.7 2.4-.6.6-1 1.3-1.6 1.9-.4.4-.9.6-1.4 1-1.1.7-1.7 1.9-1.3 3.3.5 1.8 1.7 3.1 3 4.4 1.6 1.6 3.3 3.2 4.9 4.8.6.6 1.1 1.5 1.5 2.2.4.7.4 1.5-.1 2.2-.3.5-.7.9-1.1 1.4-1.4 1.7-2 3.5-1.2 5.6.3.8.7 1.6 1 2.4.7 1.7 2.1 2.3 4 1.8 1.5-.4 3-.8 4.4-1.4 1.2-.5 2.3-.2 3.3.5 1.5 1 2.2 2.4 2.9 4 .2.5.1 1.1.1 1.6-.1 1.5-.3 2.9-.3 4.4-.1 1.9.5 3.7 1.9 5.1.6.6 1.4 1 2.3 1.2 1.2.3 2.5.5 3.8.6 3.1.3 5.6 1.5 7.9 3.6.6.5.8 1.3 1 2.1.4 1.8-.2 3.5-.2 5.3 0 1.6.1 3.2.7 4.6.4.8 1 1.6 1.7 2.3.9.9 1.9 1.7 2.8 2.6 1 1.1 2 2.2 1.7 3.9 0 .2 0 .5-.1.6-.9.8-1.2 2.1-2.4 2.6-1 .4-1.9 1.2-3 1.3-1 .1-2-.1-2.9-.6-1.2-.7-2.1-1.8-2.9-2.9-1.4-2.1-3.3-3.7-5.5-5-.4-.2-.8-.3-1.2-.4 1.5 2 2.4 4.3 3.3 6.6.6 1.7 1.1 3.4 1.5 5.1.8 3.4 1.4 6.9 2.1 10.3.2.9.3 1.8.3 2.7.1 2.8.7 5.6 1.4 8.3 1 3.9 2.8 7.5 5.8 10.3 1 .9 2.2 1.6 3.3 2.5.6.5 1.1 1 1.5 1.6.2.3.3.7.4 1.1.1.9-.4 1.5-1.3 1.4-1.4-.1-2.8-.4-4.2-.7-2-.5-3.5-1.8-4.9-3.3-1.1-1.1-2.2-2.5-3-3.9-1.5-2.7-3.1-5.4-3.3-8.6-.2-1.7-.5-3.4-.8-5.1 0-.2-.1-.3-.1-.5.4-1.7-.3-3.2-.4-4.8-.2-2.3-.5-4.5-.9-6.7-.2-1.2-.5-2.4-.8-3.6-.6-1.8-1.2-3.7-2-5.5-.7-1.7-1.7-3.2-2.5-4.9-.4-.8-1-.8-1.8-.4-.9.4-1.9.8-2.8 1.2-1.2.4-2.4.2-3.4-.4-2.6-1.7-4.7-3.9-5.9-6.8-.4-1-.4-2.2-.7-3.4-.5-2.4-.8-4.9-2.3-6.9-1.1-1.5-2.3-2.8-3.9-3.7-1.1-.6-2.2-1.1-3.2-1.8-.7-.5-1.6-1-2.1-1.7-.9-1.3-2.2-1.9-3.7-2.3-2-.7-4-1.4-6.1-2.2-.6-.2-1-.6-1.5-.9-.7-.4-1.5-.8-2.2-1.2-1.9-1-3.7-2-5.2-3.4-.8-.7-1.6-1.5-2.9-2 .1 1.1.1 2.1.3 3 .4 1.7.9 3.4 1.5 5 .7 1.8 1.5 3.6 2.9 5 1.2 1.2 2.4 2.3 3.5 3.5.9 1 1.7 2 2.5 3 .1.1.2.2.2.3 1.4 1.8 1.1 3-.9 4-2.4 1.2-4.3 1-6.6-1.6-1.9-2.1-3.3-4.7-4.6-7.2-.1-.2-.1-.4-.3-.5-1.6-1.9-1.9-4.3-2.5-6.6-.4-1.5-.7-3-1-4.5-.4-2.4-.7-4.7-1-7-.1-.9-.5-1.5-1.4-1.9-.6-.2-1.1-.6-1.6-1-1.3-1.1-2.5-2.3-3.8-3.5-.3-.3-.6-.7-.9-1.1-.9-1.4-2.1-2.7-2.8-4.3-.5-1.1-1.2-2.1-1.8-3.2-.5-.9-.7-1.9-1.2-2.7-1.1-2-1.3-4.2-1.7-6.4-.6-2.9-1-5.9-1.2-8.8-.1-1.6.4-3.3.5-4.9.2-2.3.3-4.5.5-6.8.1-1.6.2-3.2.3-4.7v-1.9c0-.9 0-1.8-.1-2.6-.1-.9-.2-1.8-.4-2.7-.2-1-.4-2.1-.7-3.1-.4-1-.8-2-1.4-2.9-1.9-3.4-3.7-6.7-5.7-10-1.4-2.3-2.9-4.6-4.4-6.7-1.2-1.7-2.5-3.2-3.4-5-.4-.7-.8-1.3-1.3-2-1.1-1.3-1.6-3-2.1-4.7-.7-2-1.5-4-2.2-6-.1-.3-.4-.5-.6-.7l-.3.1c-.1.5-.3 1-.4 1.6-.2 1.3-.3 2.7.2 4 .3.7.5 1.5.7 2.3.2.8.7 1.4 1.4 1.9 2.6 1.8 4.1 4.4 5.3 7.3.9 2.2 1.6 4.6 2 6.9.1.5.3.9.4 1.4.3 2 .6 4 .8 6 .3 3 .1 6 0 9 0 2.3-.3 4.6-.6 6.9-.2 1.8-.3 3.5-.5 5.3l-.3 2.1c-.4 2.5-.3 5-.3 7.5 0 3.1 0 6.3.9 9.3.7 2.4 1.6 4.7 2.3 7.1.9 3.1 2.2 6 3.6 8.9.9 1.8 1.7 3.7 2.6 5.4.7 1.3 1.5 2.5 2.3 3.8 1.5 2.2 2.9 4.5 4.4 6.6.8 1.2 1.8 2.3 2.8 3.4 1.1 1.3 2.2 2.5 3.2 3.8.5.6 1 1.3 1.5 1.9.9 1 1.8 1.9 2.7 3 1 1.1 1.9 2.3 2.9 3.4 2.2 2.5 3.2 5.5 4.6 8.4.3.7.5 1.4.8 2.1 0 .2.2.5.3.7 1.7 2.7 2.8 5.7 3.6 8.8.5 1.6 1.2 3.1 1.8 4.6.1.3.2.5.2.8.6 3.2 2 6.2 3 9.3.2.6.2 1.4.5 1.9.5 1.1 1.1 2.2 1.6 3.3.5.8.9 1.7 1.4 2.5s.9 1.7 1.4 2.5c.5 1 1.4 1.8 2.3 2.6.9.8 1.7 1.7 2.6 2.4.5.5 1.1.9 1.7 1.2 1.2.7 2.3 1.3 3.6 1.9 2.3 1.1 4.5 2.2 6.8 3.4.2.1.4.2.5.3 2.1 1.5 4.5 2.1 7 2.5 2.8.5 5.6.8 8.4 1.3.7.1 1.4.4 1.9.8.9.7.8 1.9-.1 2.5-1.2.7-2.4 1.3-3.8 1.3-1 0-2 .3-3.1.4-1.1.1-2.2.1-3.3-.2-.9-.3-1.8-.4-2.7-.4-2.1-.1-4.2-.8-6.1-1.6-2.3-.9-4.6-2.1-6.9-3.3-1.2-.6-2.2-1.5-3.3-2.3-.3-.2-.6-.5-.9-.7-2.4-1.3-4.3-3.4-6.1-5.4-1.1-1.2-2.2-2.4-3.2-3.7-1.1-1.4-2.2-2.9-3.2-4.4-1.2-1.7-2.4-3.3-3.3-5.1-1-1.9-1.6-3.9-2.3-5.9-.4-1.3-.8-2.6-1.1-3.9-.4-1.3-.7-2.7-1-4-.2-1-.5-1.9-.9-2.8-.6-1.7-1.4-3.4-1.9-5.1-.6-2.1-1.7-3.9-2.4-5.9-.9-2.7-2.1-5.5-3.9-7.9-2-2.7-4-5.5-6.1-8.2-.9-1.1-1.9-2.1-2.9-3.1-.1-.1-.2-.1-.3-.2-1.9-2.6-4.3-4.7-6.1-7.4-1.8-2.8-3.4-5.8-4.9-8.8-.6-1.3-1.4-2.6-2-3.9-.4-.8-.7-1.7-1-2.5-.6-1.6-1.1-3.2-1.6-4.8-.3-1-.6-2-.9-2.9-.5-1.5-1.1-3-1.6-4.6-.4-1.2-.6-2.4-.9-3.7-.6-3.6-.8-7.2-1.1-10.9-.2-2.4-.2-4.7-.3-7.1v-.7c.4-2 .3-4 .5-5.9.2-2.9.5-5.7.8-8.5.1-1.1.2-2.1.1-3.2-.3-2.5-.6-5.1-1.2-7.5-.7-2.6-1.4-5.2-2.8-7.5-.6-1-1.1-2-1.6-3-.4-.7-1-1.1-1.8-1-1.6.1-3-.5-4.5-1.1-.3-.1-.6-.2-.8-.5-1.3-1.5-3.1-2.1-4.8-2.9-2.6-1.3-5.1-2.8-7.6-4.3-1.6-1-2.8-2.3-4.3-3.3-2.1-1.5-3.9-3.3-5.9-5-.9-.8-1.8-1.7-2.6-2.6-1.3-1.5-2.5-3.1-3.6-4.7-1.5-2.1-2.9-4.3-4.1-6.6-1-1.8-1.7-3.8-2.4-5.8-.9-2.6-1.4-5.2-1.8-7.9-.3-1.8-.3-3.6-.4-5.4-.1-1.4.1-2.8.1-4.1-.1-2.5.6-4.7 1.5-6.9.7-2 1.8-3.9 2.8-5.8.8-1.5 1.7-2.9 2.5-4.3.4-.6.8-1.2 1.3-1.7.9-1 1.7-2.1 2.6-3.1 1.6-1.6 3.1-3.1 4.8-4.6 1.7-1.5 3.5-3.1 5.4-4.4 1.8-1.3 3.8-2.4 5.7-3.6.6-.4 1.2-.8 1.8-1.1 2-.9 4-1.8 6.1-2.7.9-.4 1.7-.8 2.6-1.2 1.4-.6 2.9-1.2 4.3-1.8 1.1-.5 2.3-.8 3.5-.8.9-.1 1.9-.3 2.8-.4 2-.1 3.9-.3 5.9-.2 3 .3 6 .7 8.8 2.1.8.4 1.7.6 2.6.8 2.1.6 4 1.6 5.8 2.7 1.7 1 3.4 2.2 5 3.4.7.5 1.3 1.3 2 1.9.5.5 1 .9 1.5 1.4l1.5 1.5c.1.1.2.3.3.4 1.6 1.5 3.2 3 4.7 4.5.7.7 1.4 1.5 2 2.2 1.8 2.1 3.4 4.2 4.7 6.6.6 1.1 1.2 2.1 1.6 3.3.4 1.3 1.1 2.5 1.7 3.7 1.1 2.3 1.9 4.6 2.5 7.1.3 1.2.6 2.5.9 3.7.8 3.7 1.2 7.5-.9 11-.1.3-.2.6-.1.9.1.4.3.9.5 1.3.8 1.6 1.5 3.3 2.3 4.9.4.8.8 1.5 1.3 2.3.2.3.4.5.7.7.8.4 1.6.8 2.5 1.2 1.6.7 3.2 1.5 4.7 2.2.3.1.6.3.9.4 1.1.5 2.1 1.1 3 1.9 1.2 1.1 2.7 2 4 3 2.4 1.8 4.9 3.7 7.3 5.5 1.9 1.5 3.6 3.1 5.5 4.6 1.4 1.1 2.8 2.1 4.2 3.2.6.5 1.1 1 1.7 1.5 1.7 1.6 3.2 3.4 4.5 5.3.4.5.6 1 .7 1.6.2.8.6 1.3 1.3 1.5 1.7.6 3.3 1 5 1.7 2.9 1.1 5.7 2.3 8.6 3.6 3.3 1.5 6.3 3.6 8.9 6.2 2.4 2.3 4.8 4.6 7.2 7 1.1 1.1 2 2.3 3 3.5 1.4 1.7 2.8 3.4 4 5.2 1.3 1.8 2.4 3.7 3.3 5.8.6 1.4 1.2 2.8 1.8 4.3l.9 2.7c1 3.1 1.6 6.2 2.3 9.3.2 1 .1 2 .1 3.1v.6c1.1 3.9.8 7.9 1.5 11.8.4 2.2.2 4.4.3 6.6l.3 4.2c0 .9-.1 1.8-.1 2.7-.1 1.6-.3 3.2-.4 4.8-.1 1.7-.2 3.5-.2 5.2-.1 1.4 0 2.8-.2 4.1-.4 2.1 0 4.1-.1 6.2 0 1.9 0 3.7.1 5.5.1 1.8.6 3.7.8 5.5.3 1.9.8 3.7 1.6 5.4.3.8.8 1.6 1.3 2.2 1.2 1.5 2.4 3.1 3.9 4.5 1.6 1.5 3.1 3 5.2 4 1.9.9 3.7 2 5.4 3.2.5.4.9.9 1.4 1.3.7.7 1.3 1.5 1.9 2.3.2.2.4.6.4.8 0 1.1-.4 2.1-1.2 2.9-.8.7-1.7.7-2.6-.2-1.3-1.2-2.6-2.4-3.9-3.7-.6-.6-1.3-1.1-2-1.4-3.6-1.6-6.9-3.8-9.7-6.6-1.2-1.2-2.1-2.7-3.2-4-.2-.3-.3-.6-.6-.9-1.4-1.6-2.3-3.5-2.9-5.5-.6-2-1.3-4.1-1.8-6.1-.3-1.1-.3-2.3-.4-3.4-.2-3.4 0-6.8.4-10.2.2-1.9.1-3.9.1-5.8 0-.2-.1-.4 0-.6.1-1.8.4-3.5.5-5.3.1-1.2 0-2.4.1-3.6.3-3.3 0-6.5-.1-9.7 0-1.8-.1-3.5-.1-5.2 0-.7-.1-1.3-.2-2-.3-2.5-.5-5-.8-7.5-.1-1.1-.3-2.2-.5-3.3-.4-2.3-.8-4.6-1.4-6.9-.9-3.2-1.9-6.5-3.1-9.6-.5-1.5-1.4-2.8-2.1-4.2-1-1.8-2.1-3.7-3.2-5.4-1.4-2.1-2.8-4.2-4.7-6-.6-.6-1.1-1.1-1.6-1.7-2.1-2.2-4.9-3.5-7.4-5-2.3-1.4-4.8-2.4-7.4-3.2-1.3-.4-2.8-.7-4.2-1-.6-.2-1.3-.4-1.9-.5-.5-.1-.9-.1-1.3-.2l-.4-.2zm-88.8-28.7v.2c1.1.2 2.2.4 3.3.5 1 .1 1.9.1 2.8-.3 1.1-.5 2.1-1.2 2.3-2.4.2-1.4 0-2.8-.6-4-.8-1.8-1.1-3.5-1-5.4 0-1.4 1.4-3 2.6-3.3 2.9-.6 5.6-.6 8.1 1.1.8.5 1.8.8 2.8 1 2 .3 3.7-1.1 3.9-3.1v-1.1c0-2.5-.1-4.9-.1-7.4 0-.6.1-1.3.3-1.9.5-1.5 2.6-3 4-2.9 2.3.1 4.3.8 6.1 2.1 1.5 1 2.5 2.2 2.9 4 .1.8.9 1.3 1.7 1.5 1.5.4 3.1-.9 3.5-2.3.6-2.4.4-4.8 0-7.1-.4-2.2-1.1-4.4-1.7-6.6-.8-2.7-1.8-5.2-3.1-7.7-.2-.4-.3-.9-.6-1.3-.7-1.4-1.2-3-2.2-4.2-1.7-2.2-3.2-4.5-5.1-6.4-1.3-1.2-2.3-2.5-3.6-3.8-1.8-1.8-3.6-3.5-5.4-5.2-2-2-4.2-3.7-6.8-4.9-.1-.1-.2-.2-.4-.3-.6-.3-1.1-.7-1.7-1-.9-.4-1.9-.5-2.6-1.3-.1-.2-.5-.2-.8-.2-.3-.1-.6-.1-.8-.2-1.6-.5-3.2-1.2-4.8-1.5-2-.4-4-.6-6-.6-2.1 0-4.1.2-6.2.4-1.4.1-2.8.3-4.1.7-2.1.7-4.1 1.7-6.1 2.6-2 .9-4.1 1.7-6.1 2.8-2.4 1.3-4.8 2.7-7 4.2-3.6 2.5-6.8 5.3-9.9 8.3-2.4 2.4-4.5 4.9-6.3 7.7-1.4 2.1-2.5 4.3-3.4 6.6-1 2.5-1.7 5-1.8 7.7-.1 2.7-.1 5.4.2 8 .1 1 .4 2 .5 3 .4 2.9 1.2 5.5 2.3 8.2 1.7 4.2 4.3 7.8 6.9 11.5 1.5 2 3.3 3.9 5.1 5.6 3.5 3.2 7.1 6.3 11.1 8.9 2.9 1.9 6 3.5 9.1 4.9.7.3 1.2.8 1.8 1.1.3.2.6.4 1 .6 1.8.8 3.4.5 5-.5.6-.4 1.2-1.8 1.2-2.6 0-1.6-.8-2.9-1.2-4.3-.6-1.9-.7-3.9-.4-5.9.4-2.6 3.2-4.5 5.4-4.4 2.2.6 4 .8 5.9.9zm88.7 119.3l-2.3-.3c-2.5-.3-4.3-1.6-5.3-3.9-.6-1.3-1-2.7-.9-4.1.1-1.7.1-3.5.3-5.2.1-.9-.3-1.5-.8-2.2-.2-.3-.5-.5-.8-.9-.9-1-2.1-1.2-3.4-.8-1.2.4-2.4.9-3.5 1.3-2 .7-4 .4-5.3-1.4-1.3-1.8-2.1-3.8-2.3-6-.1-1 .1-1.9.6-2.7.6-.9 1.2-1.8 1.8-2.6.5-.7.6-1.3.2-2-.5-.7-.9-1.5-1.5-2.1-1.5-1.5-3.1-3-4.7-4.4-1.3-1.2-2.3-2.6-2.8-4.3-.7-2.4-.1-3.9 1.9-5 1.3-.7 2.3-1.9 2.8-3.3.2-.6.2-1.1-.1-1.6-1.7-2.1-3.4-4.3-5.2-6.3-.8-.9-1.6-1.8-2.1-2.8-.9-2-.6-4.1.2-6 .5-1.1 1.5-2 2.7-2.6.6-.3 1.1-.6 1.7-.9 1.2-.8 1.4-1.8 1.1-3.1-.8-2.7-2.8-4.1-5.2-5.1-1.1-.5-2.3-.6-3.4-.9-.8-.3-1.7-.6-2.3-1.2-1.8-1.6-3-3.6-3.3-5.9-.2-1.5-.2-3-.3-4.5-.1-2.8-.1-5.7-.8-8.5-.3-1.1-.7-1.9-1.5-2.7-1-1-2.1-1.8-3.4-2.3-1.4-.6-2.7-1.3-3.8-2.4-1.9-1.8-3.1-3.9-3.5-6.4-.3-2.4-.5-4.9-.6-7.3-.1-2.2-.9-4-2.1-5.8-1.3-2-2.9-3.8-4.4-5.6-.4-.5-.7-.5-1.3-.1-.7.4-1.4 1-2.2 1.2-1.1.4-2.3.9-3.5.5-.9-.2-1.8-.5-2.5-1-1.8-1.1-3.7-1.7-5.9-1.4-1.5.2-2.5 1.1-2.5 2.6 0 .6 0 1.3.2 1.9.4 1.5 1.1 2.8 2.5 3.6 1.1.6 2.3 1.2 3 2.2.2.3.5.4.8.5.5.4 1.1.7 1.5 1.1.8.6 1.6 1.3 2.4 2 1.7 1.5 3.5 2.9 4.8 4.8.9 1.4 2 2.7 3 4l2.1 2.7c.9 1.2 1.7 2.5 2.5 3.8l3 4.5c1.7 2.6 3.3 5.2 4.9 7.9 1.1 1.9 2.2 3.8 2.8 5.9.5 1.6 1 3.2 1.6 4.7 1.3 3.2 2.5 6.4 3.5 9.7.6 1.9.9 3.8 1.4 5.8.3 1.6.7 3.1 1.1 4.7.6 2.5 1.1 5 1.7 7.4l2 9.2c.1.6.3 1.2.5 1.8 1 2.9 1.9 5.8 2.5 8.8.1.4.2.8.4 1.3.6 1.5 1.1 3 1.7 4.4.5 1.1 1.1 2.1 1.3 3.3 0 .2.2.3.4.5.2.4.5.7.6 1.1 1.2 3.1 2.7 6 4.6 8.7 1.2 1.8 2.6 3.5 4 5.1 1.7 2 3.5 3.8 5.5 5.6 2.1 1.9 4.3 3.6 6.7 5 1.9 1.1 3.7 2.2 5.4 3.4 1.8 1.2 3.4 2.7 4.5 4.6.5.9 1.1 1.8 1.6 2.6.8 1.4 1.7 2.7 2.5 4.1 1.1 2 2.2 3.9 3.7 5.6.8.9 1.8 1.6 2.7 2.3.2.1.7.1.9 0 1.1-.9 1.1-2.6.1-3.6-.9-.9-1.9-1.7-2.7-2.7-.9-1-1.9-2.1-2.5-3.3-1.3-2.6-1.2-5.4-.7-8.2.4-1.8-.2-3.3-1.6-4.4-2.1-1.6-4.4-2.2-6.7-2.4zm-80.1-118.3c.4.2.7.5 1.1.7 1.4.9 2.9 1.8 3.4 3.5.5 1.8.8 3.7 1.1 5.6.1.9.1 1.8.1 2.7.1 2.9 2.1 5.5 4.9 6.3 1.3.4 2.7.8 4 1.1 3.7 1 6.2 3.2 7.3 7 .6 2.2.4 4.4.8 6.6.3 1.9.3 3.9 2.3 5 .4.3.8.5 1.2.8 1.3.8 2.6 1.6 3.9 2.5 1.2.8 1.6 2.1 1.6 3.5 0 .6 0 1.3.1 1.9.3 1.4 0 2.7-.4 4-.7 1.9-1.3 3.7-1.2 5.8 0 .8.1 1.7.2 2.5.2 1.8.9 3.5 2.2 4.7 1 .9 2.1 1.8 3.2 2.6.5.4 1 .9 1.4 1.4 1.2 1.5 1.5 3.4 1.9 5.2v.5c-.2 1.5-.4 3-.7 4.5-.4 2.6-.5 5.2 0 7.8.5 2.3 1.7 4.2 3.7 5.6 1.2.8 2.2 1.9 3 3.1.5.8.9 1.7.8 2.7 0 3.1 0 6.3-.1 9.4 0 1.1.1 2.2.6 3.2.2.5.3 1.1.5 1.6s.4 1.2.7 1.6c.9 1.4 2.1 2.6 3.6 3.4.7.4 1.5.7 2.2 1.1 1.8.9 3.3 2.3 4.5 4 1.1 1.7 1.7 3.6 2 5.7.2 1.3.3 2.6.7 3.8.3 1 .8 2 1.4 2.9.4.7 1 1.2 1.5 1.8.9 1.1 1.9 2 3.1 2.7.7.4 1.5.5 2.3.2.8-.4 1.6-.7 2.4-1.2 1.5-.8 2.9-1.7 4.5-2.2 1.5-.5 2.8-.3 4.1.4 2.1 1 3.7 2.5 5.3 4.2.2.3.5.5.6.9.5 1.1 1.4 1.9 2.3 2.6.4.4 1 .7 1.5.8.8.3 1.7-.1 2-.9-.6-.6-1.5-1.1-2-1.9-1.4-1.9-2.6-3.9-3.9-5.9-.8-1.3-1.6-2.6-2.3-3.9-.3-.5-.8-1-1.2-1.5-1.4-2.2-2.9-4.3-5.2-5.8-1.5-1-2.8-2.1-4.3-3-2-1.2-4.2-2.1-5.9-3.7-1.5-1.3-3.1-2.5-4.5-3.9-3.1-3.1-5.9-6.5-8.4-10.1-.6-.9-1.2-1.9-1.8-2.8-.2-.3-.3-.6-.5-.8-.5-1.1-.9-2.2-1.4-3.3-1.8-3.4-3.3-7-4.3-10.6-.8-2.8-1.6-5.6-2.3-8.4-.7-2.6-1.4-5.3-2.2-7.9-.1-.3-.2-.7-.2-1-.4-1.9-.7-3.8-1.1-5.7-.4-2.2-.9-4.4-1.4-6.6-.4-1.5-.9-3.1-1.1-4.6-.5-3.2-1.5-6.1-2.5-9.1-1.1-3.2-2.4-6.2-3.5-9.3-.9-2.6-2.2-5-3.5-7.4-.3-.6-.6-1.1-.8-1.7-.2-.4-.4-.8-.6-1.1-1.1-1.5-2.2-3-3.2-4.6-1.6-2.5-3.1-5.1-4.8-7.5-1.7-2.5-3.6-4.8-5.4-7.2-.5-.7-1.1-1.3-1.7-2-.5-.5-1.1-.9-1.6-1.4-.4-.3-.7-.6-1.1-.9-1.6-1.3-3.3-2.6-4.9-3.9l-1.8-1.2c-.2-.2-.6-.2-1-.3-.1 1 .1 2-.2 2.8-.1.8-.5 1.7-1 2.6zm20.2 91c.1-.4.3-.7.4-1l1.5-9c.4-2.5.7-5 1.1-7.5.1-.6.1-1.1.2-1.6.1-1.3.3-2.5.3-3.8.1-1.7.3-3.4.3-5.1 0-1.5-.2-3-.3-4.5-.1-2.9-.7-5.7-1.4-8.5-.4-1.4-.8-2.8-1.6-3.9-1.1-1.7-2.3-3.3-3.4-5-1-1.5-2.1-2.9-3.1-4.4-.6-.8-1.2-1.7-1.9-2.4-1.6-1.8-3.2-3.5-4.8-5.3l-2.4-2.7c-.5-.5-1-1.1-1.5-1.6-.9-.9-1.9-1.8-2.7-2.8-.9-1-1.7-2.1-2.4-3.2-1.6-2.5-3.2-4.9-3.7-7.9-.5-2.9-1.5-5.7-2.4-8.6-.4-1.3-1.5-1.9-2.8-1.7-.7.1-1.1.6-1.1 1.3.1.9.3 1.9.5 2.8.3 1 .7 1.9 1 2.9.7 2.5 2.1 4.7 3.3 7 .8 1.6 1.9 3 3 4.4 1.3 1.7 2.7 3.3 4 5 1.2 1.5 2.5 3 3.6 4.6.9 1.2 1.7 2.5 2.4 3.8.5 1 .9 2.1 1.3 3.2.9 2.3 1.7 4.5 2.6 6.8.7 1.8.9 3.8 1 5.7.2 3.1.2 6.3 0 9.4-.1 2.1-.3 4.3-.4 6.4-.2 4.4.2 8.8 1.3 13.1.4 1.6.8 3.2 1.4 4.7 1 2.9 2.8 5.4 4.7 7.8.4.5 1 1.2 2 1.6zm125.2 63c-.8-2.2-2.2-3.8-4.2-4.9-1.5-.8-3.1-1.7-4.6-2.6-.5-.3-1-.6-1.5-1-2.5-2.1-4.8-4.4-6.9-6.9-.6-.7-1.1-1.4-1.5-2.2-1.1-2.6-2.1-5.2-2.2-8.1 0-.2 0-.4-.1-.6-.6-2.4-.6-4.8-.7-7.2 0-2.5.1-4.9.1-7.4.1-2.3.1-4.6.3-6.9.1-2 .5-3.9.6-5.9.3-3.7.2-7.3 0-10.9-.2-3.7-.6-7.3-.9-10.9-.2-2-.3-4.1-.6-6.1l-.9-5.7c-.3-1.5-.6-3-1-4.5-.3-1.1-.7-2.1-1.1-3.2-.9-2.9-2.1-5.8-3.6-8.5-1.6-3-3.7-5.5-5.9-8-1.6-1.9-3.3-3.6-5-5.4-1-1.1-2.1-2.1-3.1-3.1-2.9-2.7-5.7-5.5-9.5-7.1-.2-.1-.4-.2-.5-.3-2.6-1.6-5.4-2.6-8.1-3.6-1.5-.6-3.1-1.1-4.7-1.6-1.7-.6-3.4-1.4-5.2-2.1-1.4-.6-2.9-1.1-4.3-1.6-.2-.1-.4-.2-.6-.4-.5-.3-1.1-.7-1.6-.9-2.8-1.5-5.6-2.9-8.3-4.7-2.2-1.5-4.4-3.1-6.4-4.9-1.6-1.5-3.2-3-4.9-4.4-2.7-2.3-5-5-6.9-8-1-1.6-2.1-3.2-3.2-4.8-1.7-2.5-3.2-5.1-4.2-8-.3-.7-.6-1.5-1-2.1-.2-.5-.7-.5-1.2-.3s-.5.5-.3 1c.5 1.2.9 2.4 1.4 3.6.3.7.7 1.3.9 1.9.7 2.3 1.6 4.4 2.8 6.6.4.7.8 1.4 1.1 2.1 1.2 2.7 2.9 5.1 4.7 7.4 1.4 1.9 3.1 3.5 4.8 5.3.8.8 1.6 1.5 2.5 2.2 1.1.9 2.2 1.7 3.3 2.6.8.7 1.5 1.5 2.4 2.1 2.2 1.7 4.4 3.2 6.6 4.8.3.2.6.4.9.5 2 .9 4.1 1.6 6.2 2.5.8.4 1.5.8 2.4 1.2 1.2.5 2.5 1.1 3.7 1.5 1.9.6 3.9 1 5.9 1.5.6.2 1.3.4 1.9.6 1.4.3 2.7.6 4.1.9 2.5.7 5 1.5 7.3 2.9l2.7 1.5c1.8 1.1 3.7 2.2 5.4 3.5 1.3 1 2.4 2.2 3.4 3.4 1.2 1.4 2.3 2.9 3.4 4.4 1.3 1.8 2.3 3.8 3.5 5.7 1.8 3 3 6.1 4.2 9.4.2.6.3 1.3.5 1.9.3 1.1.8 2.3 1 3.4.5 2.5.9 5 1.3 7.5.3 1.7.5 3.4.7 5.2.3 2 .4 4 .8 6 .2.8.1 1.6-.1 2.4-.2.5-.2 1-.1 1.5.3 1.5.3 3.1.3 4.6 0 1.3.1 2.6 0 3.9-.1 2.8.1 5.6.1 8.4 0 1.3-.3 2.7-.4 4-.1 2.2-.2 4.5-.4 6.8 0 .7 0 1.4-.1 2-.1 1.4-.4 2.7-.5 4.1 0 1.9.5 3.9.3 5.9 0 .1 0 .2.1.4.3 1.4.6 2.8 1.2 4.1.6 1.2.8 2.5 1.2 3.7.2.6.5 1.1.8 1.6.7 1.1 1.5 2.1 2.2 3.3 1.3 2.1 2.9 4.1 4.8 5.7 2.4 1.9 4.9 3.6 7.7 5 1 .5 1.8 1.2 2.7 1.9.9.8 1.7 1.6 2.6 2.4.7.2 1 .5 1.5 0zM96.6 129.1c.7 1.3 1.2 2.5 1.9 3.6 1.6 2.6 2.8 5.4 3.6 8.4.2.7.3 1.4.5 2.1.7 2.9 1 5.8.8 8.7-.1 1.4-.3 2.8-.4 4.3-.2 2.3-.2 4.7-.4 7-.1 1.4-.3 2.7-.3 4.2 0 2.6.1 5.2.2 7.8 0 .6 0 1.3.1 1.9.1.9.3 1.8.3 2.7.2 2.9.7 5.7 1.5 8.4.9 2.9 2 5.8 2.9 8.7.9 2.7 1.8 5.4 3.2 7.8.7 1.3 1.3 2.6 2 3.9 1 1.9 1.9 4 3.3 5.8 1.1 1.4 2 2.8 3.1 4.2.5.6 1.1 1.2 1.6 1.8 1.5 1.6 3 3.1 4.4 4.7 2.4 2.9 4.7 5.9 6.8 9 .9 1.4 1.9 2.8 2.6 4.3 1.3 2.8 2.5 5.7 3.6 8.5 1.2 3 2.4 6 3.1 9.1.3 1.1.5 2.3.8 3.4.5 1.7 1.1 3.3 1.7 5 1 2.9 2 5.8 3.9 8.4.1.1.2.3.2.4 1 2 2.4 3.7 3.8 5.4 1.7 2.1 3.7 4.1 5.5 6 .8.8 1.6 1.6 2.5 2.2 2.7 2.2 5.5 3.9 8.6 5.5 3.1 1.6 6.3 2.9 9.8 3.3.6 0 1.2.2 1.7.3 2.6.6 5.1.2 7.7-.1.2 0 .4-.2.7-.4-.4-.7-1.1-.7-1.6-.8-.5-.1-1-.1-1.4-.2l-4.4-.8c-.8-.2-1.6-.2-2.4-.3-1.2 0-2.4-.3-3.5-.8-1.5-.7-3-1.3-4.4-2l-1.8-.9c-.9-.4-1.7-.9-2.5-1.3-2.7-1.3-5.4-2.6-7.9-4.4-2.6-1.9-4.7-4.2-6.1-7-.6-1.3-1.3-2.5-1.9-3.7-.6-1.3-1.3-2.6-1.8-4-1.6-4.7-3.1-9.5-4.6-14.3-.7-2.3-1.5-4.5-2.4-6.7-1.2-2.9-2.6-5.7-3.9-8.6-.6-1.3-1.3-2.6-2.1-3.9-.4-.8-1-1.5-1.5-2.3-2.6-3-5.3-5.9-7.9-8.9-1.3-1.5-2.6-2.9-3.8-4.5-.9-1.1-1.8-2.2-2.6-3.4-.6-.9-1.3-1.8-1.8-2.8-1.2-1.8-2.4-3.6-3.4-5.6-1.8-3.6-3.4-7.2-5.1-10.9-.4-.8-.7-1.7-1-2.6-.7-2.3-1.3-4.6-2-6.9-.5-1.7-1.2-3.4-1.4-5.2-.3-3-.4-5.9-.4-8.9 0-2.3.3-4.5.6-6.8l.6-6.3c.5-4.2.8-8.4.8-12.6 0-2.6-.3-5.2-.6-7.8-.2-1.9-.8-3.7-1.2-5.5-.1-.5-.3-1.1-.5-1.6-.3-.8-.5-1.6-.8-2.3-.3-.7-.6-1.5-1-2.1-.6-1.1-1.3-2.1-2-3.2-.3-.5-.7-.4-1 .1-.1.2-.2.4-.2.6-.2.9-.7 1.5-1.5 2-.2.4-.5.6-.9.9zm63.3 91c0-1.5-.2-2.7-.1-4 .2-2.3.2-4.7.1-7-.1-.9-.3-1.8-.9-2.7-.7-1-1.5-1.9-2.7-2.5-.5-.3-1-.7-1.4-1.1-2.2-2.4-3.1-5.2-3.1-8.4 0-2.4.3-4.7.8-7.1.5-1.8.3-3.5-.5-5.2-.1-.2-.1-.4-.2-.5-.4-1.2-1.2-2.1-2.3-2.9-1.8-1.3-3.6-2.5-4.7-4.4-.2-.3-.4-.5-.8-.2v.8c0 2.2.4 4.3.1 6.5-.1.6-.2 1.3-.3 2l-.7 4.2c-.2 1.2-.4 2.4-.5 3.5l-.3 3.6c-.2 1.5-.4 3-.6 4.6-.2 1.9-.2 3.8-.4 5.7-.1.8.1 1.6.5 2.4 1 1.9 2.4 3.6 4.1 4.8 2 1.5 4.1 2.9 6.3 4.1 2.1 1.2 4.3 2.3 6.4 3.3.5.3.8.4 1.2.5zm66.8 10.7v-.6c-.4-2-1.4-3.7-2.5-5.4-.7-1.1-1.8-2.1-2.6-3.1-1.9-2.3-3.6-4.7-5.8-6.7-.8-.8-1.6-1.8-2.3-2.8-1.3-1.9-2.1-4.1-2.8-6.3-.4-1.2-.7-2.5-.9-3.8-.2-1.7-.3-3.4-.4-5.1l-.4-6.6c0-.4 0-.8-.1-1.2-.6-3.4-1.1-6.9-1.8-10.3-.3-1.6-.7-3.3-1.2-4.8-.4-1.3-1-2.6-1.5-3.8-.2-.5-.5-1.1-.7-1.6-.7-2.1-1.5-4.2-2.8-6-.8-1.1-1.5-2.2-2.2-3.4-1.1-1.9-2.3-3.8-3.7-5.5-1-1.2-1.9-2.5-3-3.5-1.6-1.5-3.1-3-4.8-4.3-2.6-1.9-5.1-4.1-7.9-5.9-2.7-1.6-5.4-3.4-8-5.1-2-1.2-3.9-2.5-5.7-3.9-1.7-1.3-3.2-2.8-4.9-4.2-1.9-1.6-3.5-3.5-5-5.4-.8-1-1.5-2.2-2.3-3.2-2-2.4-3.9-4.8-5.2-7.8-1-2.2-2.3-4.2-3.5-6.4-.7-1.3-1.5-2.6-1.9-4-.7-2.5-1.2-5-1.1-7.6.1-1.7.2-3.5.4-5.2.1-.7-.2-1.4-.8-1.9-.4-.4-.8-1-1.4-.7-.7.3-.5 1-.5 1.7v3.1c.1 1.4.1 2.7.2 4.1.1 1 0 2.1.3 3 .4 1.4.9 2.8 1.4 4.2.6 1.6 1.1 3.1 1.8 4.6 1.1 2.4 2.1 4.9 3.8 7 .3.3.4.8.7 1.1 1.1 1.6 1.8 3.5 3.2 4.9.3.3.4.7.5 1 .5.8.9 1.6 1.4 2.3.7.8 1.4 1.6 2.1 2.3.6.7 1.3 1.4 2 2 1.7 1.5 3.5 2.9 5.2 4.3 1.3 1 2.6 2.1 3.8 3.2 1.2 1 2.4 1.8 3.6 2.7 1.2.9 2.4 1.9 3.5 2.8 1 .8 1.9 1.5 2.9 2.3.4.3.8.5 1.2.7 1.2.6 2.5 1.1 3.5 2 2.1 1.7 4.4 3 6.3 5 1 1 2 2 2.7 3.3.2.5.7.8.9 1.2.9 1.1 2 2.1 2.5 3.4.6 1.6 1.6 3 2.6 4.4 2.1 2.9 4 5.8 5.1 9.3.3 1.1 1 2.2 1.6 3.2.8 1.2 1.3 2.4 1.7 3.8.2.7.3 1.4.7 2 .7 1.3 1 2.6 1.4 4 .6 2.6 1.3 5.1 1.4 7.8.1 1.8.3 3.6.4 5.4.1 2.2.3 4.5.4 6.8.1 1.5.4 3.1 1.1 4.4 1.5 2.7 3.2 5.3 5.4 7.5 2.1 2 3.8 4.3 5.6 6.5.3.4.6.8.8 1.2l3.3 6.3c.7.7 1.2 1.4 2.3 1.3zM146 102.9c.4.8.7 1.7 1.1 2.5l2.1 3.9c.4.8.8 1.6 1.2 2.3 1.3 2.4 3.2 4.5 4.8 6.8.9 1.2 1.7 2.5 2.8 3.6 2.6 2.7 5.1 5.5 8.3 7.7 1.6 1.1 3.2 2.3 4.9 3.4 2.3 1.5 4.7 2.9 7 4.4l4.2 2.7c1.2.8 2.5 1.8 3.6 2.7.8.6 1.6 1.4 2.5 2 1.8 1.2 3.3 2.8 4.8 4.4 1.4 1.5 2.7 3.2 4.1 4.8.3.3.6.6 1 .9 0-.3.1-.4.1-.5-.3-2-.6-4.1-.9-6.1-.1-1-.3-1.9-.6-2.8-.5-1.4-1-2.7-1.5-4.1-1-2.4-2.8-3.8-5.3-4.3-1-.2-1.9-.6-2.8-.9-1.3-.5-2.6-1.2-3.9-1.8-2.3-1.1-4.7-2.1-7-3.3-.7-.3-1.3-.8-1.9-1.2-2.2-1.3-4.1-2.9-6.1-4.5-1.5-1.2-3-2.6-4.5-3.9-1.6-1.4-3.1-2.8-4.6-4.3-2.3-2.5-4.4-5.1-6-8.1-.5-.9-.9-1.7-1.4-2.6-.2-.5-.6-1-1.2-.8-1 .2-1.6-.3-2.2-.8-.6-1.1-1.5-1.8-2.6-2.1zm79.4 162.5c.6-.8.9-1.5.9-2.2 0-2 .2-4.1-.1-6-.1-.5-.1-1-.2-1.5-.3-1.9-.5-3.9-.9-5.9-.3-1.4-.7-2.7-1-4-.7-2.9-2.1-5.5-3.8-7.9-1.9-2.6-3.9-5.1-5.8-7.6-1.3-1.7-2.8-3.4-4.1-5.1-1-1.4-2-2.8-3.3-4-.1-.1-.1-.2-.2-.3-1-1.4-2.1-2.9-3.1-4.4-.6-.9-1.1-1.7-1.5-2.6-.8-2-1.5-4.1-2.2-6.1-.4-1-.8-1.9-.9-2.9-.4-2.2-.9-4.3-.8-6.6.1-1.8.1-3.6.2-5.5 0-.8.4-1.6.4-2.5.2-2 .4-4 1.2-5.8.1-.2.1-.4.2-.6 0-.8.3-1.5.6-2.2s.2-1.6.2-2.4c0-.1.1-.2.1-.3.5-1.8.2-3.5-.9-5.1-.1-.2-.4-.2-.6-.4-.1.3-.3.4-.2.6 0 1.2-.3 2.5-.7 3.6l-1.5 4.2c-.6 1.6-1.3 3.3-1.7 4.9-.3 1.1-.5 2.2-.5 3.4.1 3 .3 6 .4 9 .1.9.1 1.8.2 2.6.2 1.7.5 3.5.7 5.2.2 2.4.9 4.6 2.3 6.7.9 1.4 1.9 2.7 2.9 4.1.9 1.1 1.8 2.3 2.8 3.3.8.9 1.8 1.6 2.6 2.4 1 1 2 1.9 2.9 3 1.1 1.4 2.2 3 3.2 4.5s2 3.1 2.9 4.6c.5.9 1.1 1.8 1.6 2.6.6 1 1 2.1 1.7 3 1.2 1.6 2.2 3.5 2.9 5.4 1.1 3.2 1.9 6.3 2 9.7.1 1.4 0 2.9.2 4.4.1 1.3.4 2.5.6 3.7-.2.2.1.5.3 1zm-90.2-57.6c.7-1.6.4-3-.6-4-.8-.7-1.5-1.5-2.3-2.2-3.8-3.8-5.8-8.5-6.9-13.6-.6-2.5-.8-5.1-1.1-7.8-.2-1.3-.2-2.5-.2-3.8.2-2.7.5-5.3.7-7.9.3-4 .3-8-.3-11.9-.3-1.8-.8-3.5-1.4-5.1l-2.7-6.9c-.7-2-1.9-3.7-3.2-5.3-.6-.7-1.1-1.3-1.6-2-.3-.3-.5-.7-.8-1-1.2-1.6-2.9-2.7-3.8-4.5-.3-.6-.7-1.2-1.1-1.8-.9-1.2-1.8-2.4-2.5-3.7-1.6-2.8-2.7-5.7-3.7-8.7-.1-.3-.2-.6-.1-1 .1-1.5-.5-2.9-.7-4.3-.1-.6-.8-.9-1.4-.8-1.6.3-1.9 1-1.3 2.5.1.2.1.3.2.5.7 1.7 1.5 3.4 2.1 5.2 1.1 3.4 2.9 6.4 5 9.2 1.2 1.6 2.4 3.2 3.6 4.9 1 1.5 1.8 3.1 2.9 4.4.3.3.6.7.8 1 .7 1.3 1.3 2.7 2.1 4 1.2 2.2 2.5 4.3 3.6 6.4 1.2 2.2 2 4.6 2.1 7.2v9.2c-.1 2-.3 4-.5 6-.2 1.8-.4 3.5-.5 5.3-.1 2.7.2 5.4.9 8.1.1.4.2.9.3 1.4.4 2.6 1 5.2 2.1 7.7s2.5 4.9 4.2 7c1.5 2 3.3 3.9 5.2 5.5.1.2.5.4.9.8zm8.1-39.8c.6-.7.6-.7.8-1.4.2-1 .3-2.1.7-3 1.1-2.4.9-4.8.7-7.2-.2-1.5-1-2.6-2.4-3.4-1.7-1-3.4-2-5.1-3.1-.7-.4-1.2-1.2-1.3-2-.2-2-.4-3.9-.6-5.9-.1-1-.1-2-.4-2.9-.5-2.1-1.5-4-3.3-5.4-1.6-1.2-3.5-1.6-5.4-2.1-2-.5-4-1.1-5.5-2.6-.1-.1-.3-.1-.7-.3.3.6.5.9.6 1.1 2.3 3.1 4.6 6.3 7 9.5 1.3 1.8 2.7 3.5 4 5.3 1.5 2.1 3.4 4 4.6 6.4.8 1.6 1.8 3.2 2.5 4.8.9 2.5 1.6 5.1 2.4 7.7.4 1.6.9 3 1.4 4.5zm-3.2-3.6c0 .4-.1.6 0 .8.2 1.5.5 3 .6 4.5.1 2.2.2 4.4.1 6.5-.1 2.2-.3 4.3-.5 6.5-.1.9-.3 1.7-.5 2.6 0 .3-.1.5-.2.8-.1 1.5-.2 2.9-.5 4.3-.2 1.4-.6 2.9-.8 4.3-.2 1.6-.2 3.2-.5 4.7-.5 3.1-.9 6.3-.8 9.5 0 .7-.2 1.4-.1 2 .5 2.2.5 4.5 1.1 6.7.5 1.6.7 3.3 1.1 4.8.4 1.5.9 3.1 1.5 4.5 1.1 2.2 2.4 4.3 3.6 6.4.8 1.4 1.9 2.7 3.2 3.6 1.2.8 2.4.6 3.6-.4-.1-.3-.3-.7-.5-1-1.2-1.4-2.5-2.8-3.7-4.1-.7-.8-1.6-1.5-2.3-2.2-1.1-1.1-1.7-2.4-2.4-3.8-1.1-2.2-1.8-4.5-2.3-6.9-.4-2-.7-4.2-.4-6.2v-.3c.1-1.4 0-2.8.1-4.3.1-1.2.2-2.3.3-3.4.2-2.9.3-5.8.8-8.7.2-1.4.3-2.8.4-4.1l.3-2.4c.3-1.8.7-3.5 1-5.4.6-3.9.3-7.8-.2-11.7-.3-2.4-1.1-4.7-1.7-7 .3-.2 0-.3-.3-.6zm42.1 11.3h.3c.2-.8.7-1.5.7-2.3.3-2.8.4-5.5.5-8.3 0-1.2-.2-2.3-.4-3.5-.4-2.3-1.1-4.6-2.3-6.6-1.7-2.8-3.7-5.4-5.9-7.7-1.9-2-3.9-3.8-6.5-4.8-.8-.3-1.6-.8-2.5-1.2-1.4-.8-2.7-1.6-4.1-2.4-2.4-1.3-4.9-2.3-6.6-4.5-.2-.3-.6-.4-1 0 .9.9 1.8 1.8 2.6 2.7.3.3.6.6.7 1 .1.6.5.9 1 1.1.5.3.9.6 1.4.9.5.4.9 1 1.5 1.3 2.1 1.4 4.2 2.8 6.4 4 2.3 1.3 4.1 3.1 6 4.9 1.7 1.7 3.1 3.6 4.5 5.7 1.2 1.8 1.9 3.8 2.4 5.8.6 2.6.8 5.3 1.1 8 .1.6.1 1.1.2 1.7 0 1.3 0 2.5.1 3.8-.2.2-.2.3-.1.4zm-25.3-73.6l-.2.2c.2.3.3.5.4.8.5.8 1 1.5 1.4 2.3.7 1.2 1.5 2.1 2.8 2.6.8.3 1.7.6 2.4 1.1 1.6 1 3.2 2.2 4.8 3.3 1.8 1.2 3.6 2.4 5.1 4.1.5.5 1.1 1.1 1.7 1.5 2.8 2.3 5.5 4.6 7.9 7.2.5.5 1 1.1 1.5 1.7.4.4.8.7 1.3.9 1 .5 2 .9 3.1 1.2.6.2 1.1.4 1.7.6l.2-.2c-.4-.4-.6-.9-1-1.3-1.2-1.3-2.3-2.8-3.7-3.9-2-1.6-3.7-3.5-5.8-4.9-1.3-.9-2.3-2.3-3.8-3-.1-.1-.2-.1-.3-.2-1.6-1.3-3.2-2.6-4.9-3.9-2.7-2-5.6-3.8-8-6.3-.1-.1-.2-.2-.4-.3-1.9-1.1-3.7-2.1-5.6-3.1 0-.3-.3-.3-.6-.4zm-20 53.1l.3-.1c0-.2 0-.5-.1-.7-.8-1.4-1.5-2.7-2.4-4-.9-1.3-2-2.5-3-3.8-1.9-2.4-3.6-4.9-5.5-7.4-1.3-1.7-2.7-3.2-3.9-5-1.3-1.9-2.6-3.9-3.9-5.9-.7-1.1-1.4-2.1-2-3.2-1.2-2.3-2.3-4.6-3.3-7-.6-1.2-.9-2.5-1.2-3.8-.4-1.8-1.4-2.3-3.1-1.6.5 1.2 1 2.5 1.4 3.8.4 1.4.8 2.9 1.2 4.3.4 1.5.8 3 1.4 4.4.7 1.4 1.6 2.8 2.5 4 .9 1.2 1.7 2.6 2.9 3.6 1.6 1.4 3.3 2.7 4.3 4.6l.3.3c1.7 1.8 3.4 3.6 5 5.4.9.9 1.7 1.9 2.5 2.9 1.8 2.5 3.6 5.1 5.4 7.7l1.2 1.5zm74.3 141.4c-.4-1.1-1.4-1.6-2.2-2.2-1.1-.7-2.3-1.4-3.2-2.4-3.2-3.4-5.2-7.4-5.9-12-.4-2.3-.8-4.5-1-6.8-.3-2.4-.6-4.8-1.2-7.1-.3-1.4-.4-2.9-.7-4.3-.5-2.7-1.1-5.3-2-7.9-.5-1.4-1.1-2.8-1.6-4.2-.6-1.4-1.3-1.6-2.6-1.1-1.2.5-1.2.8-.6 1.9.7 1 1.5 1.9 2.1 2.9 1.1 2.2 2.4 4.3 3 6.7.4 1.7.9 3.3 1.2 4.9.3 1.6.4 3.1.7 4.7.2 1.5.6 2.9.7 4.5.1 1.9.4 3.8.6 5.6.3 2.6 1 5.1 2.3 7.5 1 2 2.3 3.9 3.7 5.6 1.2 1.5 2.6 2.7 4.3 3.4.6.2 1.5.6 2.4.3zm-69.8-86.7c-.3 1.7-.2 3 1.3 3.9 1.6 1.1 3.1 2.3 4.7 3.4 1.5 1 3 1.9 4.6 2.7 1.4.7 2.9 1.1 4.3 1.7 1 .4 2.1.8 3.1 1.2.3.1.7.1 1.1.2-.1-.9-.6-1.2-1.2-1.5-.9-.5-1.8-.9-2.6-1.3-2.1-1.1-4.2-2.1-6.2-3.2-1.5-.8-2.8-1.9-4.2-2.8-1.2-.8-2.2-1.7-3-2.9-.4-.6-.8-1.3-1.9-1.4zm-22.2-84.5v-5.2c0-.7-.1-1.5-.2-2.2-.1-.8-.4-1.5-.4-2.2 0-1-.4-1.7-1.2-2.2-.4-.3-.8-.7-1.3-1-.8-.4-1.6-.8-2.6-.1.1.6.1 1.1.2 1.6.5 1.6 1 3.3 1.7 4.8.9 1.7 1.7 3.4 2.3 5.2.3.6.6 1.2 1.5 1.3zM137 91.1l.3-.1.3-1.2c.1-1.3.1-2.7.1-4 .1-2.1.5-2.6-2.6-2.9-1.4-.2-2.2.6-2.4 1.9-.2 1.4-.2 2.5 1.1 3.4 1.1 1 2.1 2 3.2 2.9zm43.1 33.3l.2-.3c-.5-.4-1-.8-1.4-1.2-1.4-1.3-2.8-2.7-4.3-4-2.4-1.9-4.3-4.3-7.1-5.8-.1-.1-.2-.1-.3-.2-1.3-1-2.7-2-4-2.9-.4-.3-.8-.7-1.4-.5.1.2.2.3.2.4l4.5 4.2c.4.3.7.7 1.1 1.1 1.8 1.6 3.5 3.1 5.4 4.6 1.5 1.2 3.2 2.2 4.8 3.3.9.5 1.6.9 2.3 1.3zm-36.7-34.9c-.2.4-.4.6-.4.8 0 1.3 0 2.6.1 3.9 0 .7.4 1.2 1 1.6l2.7 1.8c.4.2.7.5 1 .7l.3-.2c-.1-.4-.1-.8-.2-1.2-.5-1.6-1.2-3.2-1.7-4.8-.3-.7-.7-1.3-1.4-1.7-.5-.3-.9-.6-1.4-.9zm7 14.6l.3-.2c-.3-.6-.8-1.1-.9-1.8-.3-1.2-1.1-1.9-2.2-2.3-.6-.2-1.1-.6-1.6-1-.5-.5-1.1-.8-1.9-.8-.2.7-.1 1.4.4 1.9.7.6 1.5 1 2.2 1.5.4.3.8.5 1.2.8.8.7 1.7 1.3 2.5 1.9zm-17.5-14.2c-.6 1.4-.4 1.9.6 2.9 1.2 1.1 2.5 2.1 3.7 3.1.1.1.3.2.6.3.2-1.1.1-2-.9-2.8-1.1-.9-2.1-2-3.2-3-.2-.1-.5-.3-.8-.5zm53.6 95.8c.1-1 .1-1.2-.8-2.2-1.2-1.4-2.1-2.9-2.7-4.7-.1-.3-.4-.6-.6-1-.9 2.2 1.7 7.3 4.1 7.9z"/><path fill="none" stroke="#FFC107" stroke-miterlimit="10" d="M106.8 110.3c-1.8-.1-3.7-.3-5.5-.4-2.2-.1-5 1.8-5.4 4.4-.3 2-.2 4 .4 5.9.4 1.4 1.2 2.7 1.2 4.3 0 .8-.5 2.2-1.2 2.6-1.6.9-3.3 1.2-5 .5-.4-.1-.7-.4-1-.6-.6-.4-1.2-.8-1.8-1.1-3.1-1.5-6.2-3.1-9.1-4.9-4-2.6-7.7-5.6-11.1-8.9-1.9-1.7-3.6-3.6-5.1-5.6-2.6-3.6-5.2-7.3-6.9-11.5-1-2.6-1.9-5.3-2.3-8.2-.1-1-.4-2-.5-3-.4-2.7-.3-5.4-.2-8 0-2.8.7-5.4 1.7-7.8.9-2.3 2-4.6 3.4-6.6 1.8-2.8 3.9-5.4 6.3-7.7 3.1-3 6.4-5.9 9.9-8.3 2.3-1.5 4.6-3 7-4.2 1.9-1.1 4-1.9 6.1-2.8 2-.9 4-1.9 6.1-2.6 1.3-.5 2.7-.6 4.1-.7 2.1-.2 4.1-.4 6.2-.4 2 0 4 .2 6 .6 1.6.3 3.2 1 4.8 1.5.3.1.5.1.8.2.3.1.7.1.8.2.7.9 1.7.9 2.6 1.3.6.3 1.1.6 1.7 1 .1.1.2.2.4.3 2.6 1.2 4.8 3 6.8 4.9 1.8 1.7 3.6 3.5 5.4 5.2 1.2 1.2 2.3 2.6 3.6 3.8 2 1.9 3.5 4.2 5.1 6.4.9 1.2 1.5 2.8 2.2 4.2.2.4.3.9.6 1.3 1.3 2.5 2.3 5 3.1 7.7.6 2.2 1.3 4.4 1.7 6.6.5 2.3.7 4.7 0 7.1-.4 1.5-2 2.7-3.5 2.3-.8-.2-1.5-.7-1.7-1.5-.4-1.8-1.5-3-2.9-4-1.8-1.2-3.8-2-6.1-2.1-1.4-.1-3.5 1.4-4 2.9-.2.6-.3 1.2-.3 1.9 0 2.4 0 4.9.1 7.4V95c-.2 2-1.9 3.4-3.9 3.1-1-.1-2-.4-2.8-1-2.5-1.7-5.3-1.7-8.1-1.1-1.2.2-2.5 1.9-2.6 3.3-.1 1.9.2 3.7 1 5.4.6 1.3.8 2.7.6 4-.2 1.2-1.2 1.9-2.3 2.4-.9.4-1.8.4-2.8.3-1.1-.1-2.2-.3-3.3-.5l-.3-.6zm-19.8-1c-.4-.3-.6-.4-.8-.6-1.1-.7-2.3-1.3-3.3-2.1s-1.8-1.8-2.7-2.8c-.4-.4-.8-.9-1.5-.6-.4.9-.1 1.7.4 2.5.6 1 1.5 1.7 2.4 2.4 1 .8 2.1 1.2 3.3 1.4.7.2 1.4.1 2.2-.2zm6.8-15.5c1.1 1.1 2.3 2.1 3.3 3.1.5.5 1 1 1.4 1.6.4.5 1 .6 1.6.4 0-.3 0-.5-.1-.7-.8-2-2.2-3.4-4-4.6-.4-.2-.8-.4-1.2-.5-.5-.2-.9 0-1 .7zm17.5-2.8v-1.1c-.5-2.6-2.1-4.4-4.1-5.8-.2-.2-.5-.3-.9-.4-.3-.1-.7-.1-.9.3-.1.4-.1.7.3.9 1.7 1 2.7 2.7 3.9 4.2.4.6.9 1.1 1.7 1.9zm-20.2 13.1c-1.2-1.4-2.3-2.8-3.5-4.1-.4-.4-.8-.7-1.3-.9-.5-.2-1.1-.1-1.4.3-.4.5.1.8.5 1.2 1.1 1 2.1 2 3.1 3.1.7.8 1.5.9 2.6.4zm25.3-27.5l-.5.9c.1.2.1.3.2.3 1.4 1.1 2.4 2.4 3.3 3.9.4.7.9 1.2 1.6 1.5-.3-3.3-1.8-5.3-4.6-6.6zm19.5-10.5c-.1.1-.1.2-.1.2.1.1.1.2.2.3 1.2 1.3 2.4 2.6 2.8 4.4.1.4.3.9 1 .9.5-1.5-.2-2.8-1-4-.6-1-1.5-2-2.9-1.8zm-4 8.3c.5-.7.3-1.2-.1-1.7-.8-1.3-2.1-2.1-3.4-2.8-.1-.1-.2-.1-.3-.1-.2 0-.6.1-.7.3-.1.2.1.5.2.7.2.2.6.4.9.6 1.2.9 2.2 1.9 3.4 3z"/><path fill="none" stroke="#FFC107" stroke-miterlimit="10" d="M195.5 229.6c2.3.2 4.7.8 6.7 2.3 1.4 1 2 2.5 1.6 4.4-.5 2.8-.6 5.6.7 8.2.6 1.2 1.6 2.3 2.5 3.3.8.9 1.8 1.8 2.7 2.7 1 1 1 2.7-.1 3.6-.2.1-.6.1-.9 0-.9-.7-2-1.4-2.7-2.3-1.5-1.7-2.7-3.6-3.7-5.6-.7-1.4-1.7-2.7-2.5-4.1-.5-.9-1.1-1.8-1.6-2.6-1.1-1.9-2.8-3.4-4.5-4.6-1.8-1.2-3.6-2.3-5.4-3.4-2.4-1.4-4.6-3.1-6.7-5-2-1.7-3.8-3.6-5.5-5.6-1.4-1.6-2.8-3.3-4-5.1-1.8-2.7-3.4-5.6-4.6-8.7-.2-.4-.4-.8-.6-1.1-.1-.2-.3-.3-.4-.5-.2-1.2-.9-2.2-1.3-3.3-.6-1.5-1.1-3-1.7-4.4-.2-.4-.3-.8-.4-1.3-.6-3-1.5-5.9-2.5-8.8-.2-.6-.4-1.2-.5-1.8l-2-9.2c-.6-2.5-1.1-5-1.7-7.4-.3-1.6-.7-3.1-1.1-4.7-.4-1.9-.8-3.9-1.4-5.8-1-3.3-2.2-6.5-3.5-9.7-.6-1.5-1.1-3.2-1.6-4.7-.7-2.1-1.7-4-2.8-5.9-1.6-2.6-3.2-5.3-4.9-7.9l-3-4.5c-.8-1.3-1.6-2.5-2.5-3.8-.6-.9-1.4-1.8-2.1-2.7-1-1.3-2.1-2.6-3-4-1.3-1.9-3-3.3-4.8-4.8l-2.4-2c-.5-.4-1-.7-1.5-1.1-.2-.2-.6-.3-.8-.5-.8-1.1-1.9-1.6-3-2.2-1.4-.8-2.1-2.1-2.5-3.6-.2-.6-.2-1.3-.2-1.9 0-1.6 1-2.5 2.5-2.6 2.2-.3 4 .3 5.9 1.4.7.5 1.7.7 2.5 1 1.2.4 2.3-.1 3.5-.5.8-.3 1.5-.8 2.2-1.2.6-.4.9-.4 1.3.1 1.5 1.9 3 3.6 4.4 5.6 1.1 1.7 1.9 3.6 2.1 5.8.1 2.5.3 4.9.6 7.3.3 2.5 1.5 4.7 3.5 6.4 1.1 1 2.4 1.8 3.8 2.4 1.3.5 2.4 1.3 3.4 2.3.7.7 1.2 1.6 1.5 2.7.7 2.8.7 5.6.8 8.5 0 1.5.1 3 .3 4.5.3 2.3 1.5 4.3 3.3 5.9.7.6 1.5.9 2.3 1.2 1.1.4 2.3.5 3.4.9 2.4 1 4.5 2.5 5.2 5.1.4 1.3.2 2.4-1.1 3.1-.5.3-1.1.6-1.7.9-1.2.6-2.2 1.5-2.7 2.6-.8 1.9-1.1 4-.2 6 .5 1.1 1.3 1.9 2.1 2.8 1.8 2 3.5 4.2 5.2 6.3.4.5.3 1.1.1 1.6-.5 1.4-1.4 2.6-2.8 3.3-2 1.1-2.6 2.6-1.9 5 .5 1.7 1.5 3.1 2.8 4.3 1.6 1.4 3.2 2.9 4.7 4.4.6.6 1 1.4 1.5 2.1.4.7.3 1.3-.2 2-.6.8-1.2 1.8-1.8 2.6-.5.8-.7 1.8-.6 2.7.3 2.2 1 4.3 2.3 6 1.3 1.8 3.3 2.1 5.3 1.4 1.2-.4 2.4-.9 3.5-1.3 1.3-.4 2.4-.3 3.4.8.3.3.6.6.8.9.5.6.9 1.3.8 2.2-.1 1.7-.2 3.5-.3 5.2-.1 1.5.3 2.8.9 4.1 1 2.3 2.8 3.5 5.3 3.9.7.2 1.4.3 2.3.4z"/><path fill="none" stroke="#FFC107" stroke-miterlimit="10" d="M115.4 111.3c.5-.9 1.1-1.7 1.3-2.5.2-.9.1-1.8.2-2.8.4.1.7.1 1 .3l1.8 1.2c1.6 1.3 3.3 2.6 4.9 3.9.4.3.7.6 1.1.9.6.5 1.1.9 1.6 1.4.6.6 1.2 1.3 1.7 2 1.8 2.4 3.7 4.7 5.4 7.2 1.7 2.4 3.2 5 4.8 7.5 1 1.6 2.1 3 3.2 4.6.2.3.5.7.6 1.1.3.6.5 1.2.8 1.7 1.3 2.4 2.5 4.8 3.5 7.4 1.1 3.1 2.5 6.2 3.5 9.3 1 3 2.1 5.9 2.5 9.1.2 1.6.7 3.1 1.1 4.6.5 2.2 1 4.4 1.4 6.6.4 1.9.7 3.8 1.1 5.7.1.4.2.7.2 1 .7 2.6 1.4 5.3 2.2 7.9.8 2.8 1.5 5.6 2.3 8.4 1.1 3.7 2.6 7.3 4.3 10.6.5 1.1 1 2.2 1.4 3.3.1.3.3.6.5.8.6.9 1.2 1.9 1.8 2.8 2.4 3.7 5.3 7 8.4 10.1 1.4 1.4 3 2.6 4.5 3.9 1.7 1.6 4 2.4 5.9 3.7 1.5.9 2.8 2.1 4.3 3 2.2 1.5 3.8 3.6 5.2 5.8.3.5.8 1 1.2 1.5.8 1.2 1.5 2.6 2.3 3.9 1.3 2 2.5 4 3.9 5.9.5.7 1.3 1.2 2 1.9-.4.8-1.3 1.2-2 .9-.6-.2-1.1-.4-1.5-.8-.9-.8-1.8-1.6-2.3-2.6l-.6-.9c-1.5-1.7-3.2-3.1-5.3-4.2-1.3-.7-2.6-.9-4.1-.4-1.6.5-3 1.4-4.5 2.2l-2.4 1.2c-.8.4-1.5.2-2.3-.2-1.3-.7-2.2-1.7-3.1-2.7-.5-.6-1.1-1.1-1.5-1.8-.5-.9-1-1.9-1.4-2.9-.4-1.3-.5-2.6-.7-3.8-.3-2-.9-4-2-5.7-1.1-1.7-2.6-3.1-4.5-4-.7-.4-1.5-.7-2.2-1.1-1.5-.8-2.7-2-3.6-3.4-.3-.5-.5-1.1-.7-1.6-.2-.5-.3-1.1-.5-1.6-.5-1-.6-2.1-.6-3.2 0-3.1 0-6.3.1-9.4 0-1-.3-1.9-.8-2.7-.8-1.2-1.8-2.3-3-3.1-2-1.4-3.2-3.3-3.7-5.6-.6-2.6-.5-5.2 0-7.8.3-1.5.5-3 .7-4.5v-.5c-.5-1.8-.8-3.7-1.9-5.2-.4-.5-.9-1-1.4-1.4-1.1-.9-2.2-1.7-3.2-2.6-1.4-1.3-2.1-2.9-2.2-4.7-.1-.8-.2-1.7-.2-2.5-.1-2 .5-3.9 1.2-5.8.5-1.3.7-2.6.4-4-.1-.6-.1-1.3-.1-1.9 0-1.4-.4-2.7-1.6-3.5-1.3-.9-2.6-1.7-3.9-2.5-.4-.3-.8-.5-1.2-.8-2-1.2-2-3.1-2.3-5-.3-2.2-.2-4.4-.8-6.6-1.1-3.9-3.5-6.1-7.3-7-1.3-.4-2.7-.7-4-1.1-2.8-.9-4.8-3.4-4.9-6.3 0-.9 0-1.8-.1-2.7-.3-1.9-.6-3.7-1.1-5.6-.5-1.7-1.9-2.6-3.4-3.5-.7-.3-1.1-.6-1.4-.8z"/><path fill="none" stroke="#FFC107" stroke-miterlimit="10" d="M135.6 202.3c-1-.4-1.6-1.1-2.2-1.8-1.9-2.4-3.6-4.9-4.7-7.8-.5-1.5-.9-3.1-1.4-4.7-1.1-4.3-1.5-8.7-1.3-13.1.1-2.1.3-4.3.4-6.4.2-3.1.1-6.2 0-9.4-.1-2-.4-3.9-1-5.7-.8-2.3-1.7-4.5-2.6-6.8-.4-1.1-.8-2.2-1.3-3.2-.7-1.3-1.5-2.6-2.4-3.8-1.1-1.6-2.4-3-3.6-4.6-1.3-1.7-2.7-3.3-4-5-1.1-1.4-2.2-2.8-3-4.4-1.2-2.3-2.5-4.5-3.3-7-.3-1-.7-1.9-1-2.9-.2-.9-.4-1.8-.5-2.8-.1-.7.4-1.2 1.1-1.3 1.3-.2 2.4.4 2.8 1.7.9 2.8 1.8 5.7 2.4 8.6.6 3 2.1 5.4 3.7 7.9.7 1.1 1.5 2.2 2.4 3.2.9 1 1.8 1.9 2.7 2.8.5.5 1 1.1 1.5 1.6l2.4 2.7c1.6 1.8 3.2 3.5 4.8 5.3.7.8 1.3 1.6 1.9 2.4 1.1 1.4 2.1 2.9 3.1 4.4 1.2 1.7 2.3 3.3 3.4 5 .8 1.2 1.2 2.6 1.6 3.9.7 2.8 1.3 5.6 1.4 8.5.1 1.5.3 3 .3 4.5 0 1.7-.2 3.4-.3 5.1l-.3 3.8c0 .6-.1 1.1-.2 1.6-.3 2.5-.6 5-1.1 7.5l-1.5 9c.1.5 0 .8-.2 1.2zm125.2 63c-.5.5-.8.3-1.2-.1-.8-.8-1.7-1.7-2.6-2.4-.8-.7-1.7-1.4-2.7-1.9-2.8-1.3-5.3-3-7.7-5-1.9-1.6-3.6-3.5-4.8-5.7-.7-1.1-1.5-2.2-2.2-3.3-.3-.5-.6-1-.8-1.6-.4-1.2-.7-2.5-1.2-3.7-.6-1.3-.9-2.7-1.2-4.1 0-.1-.1-.2-.1-.4.2-2-.3-3.9-.3-5.9 0-1.4.3-2.7.5-4.1.1-.7 0-1.4.1-2 .1-2.2.2-4.5.4-6.8.1-1.3.4-2.7.4-4 0-2.8-.2-5.6-.1-8.4.1-1.3 0-2.6 0-3.9 0-1.6 0-3.1-.3-4.6-.1-.5 0-1 .1-1.5.2-.7.2-1.6.1-2.4-.3-2-.5-4-.8-6-.2-1.7-.5-3.5-.7-5.2-.4-2.5-.8-5-1.3-7.5-.3-1.2-.7-2.3-1-3.4-.2-.6-.3-1.3-.5-1.9-1.2-3.2-2.5-6.4-4.2-9.4-1.1-1.9-2.1-3.9-3.5-5.7-1.1-1.5-2.2-3-3.4-4.4-1.1-1.2-2.2-2.5-3.4-3.4-1.7-1.3-3.6-2.3-5.4-3.5-.8-.6-1.8-1-2.7-1.5-2.2-1.4-4.7-2.2-7.3-2.9-1.3-.4-2.7-.6-4.1-.9-.6-.2-1.3-.4-1.9-.6-1.9-.5-3.9-.9-5.9-1.5-1.3-.4-2.5-1-3.7-1.5-.8-.4-1.5-.8-2.4-1.2-2-.9-4.1-1.7-6.2-2.5-.3-.1-.7-.3-.9-.5-2.2-1.6-4.5-3.2-6.6-4.8-.8-.6-1.6-1.5-2.4-2.1-1.1-.9-2.2-1.7-3.3-2.6-.9-.7-1.7-1.4-2.5-2.2-1.6-1.7-3.3-3.4-4.8-5.3-1.8-2.3-3.5-4.7-4.7-7.4-.3-.7-.7-1.4-1.1-2.1-1.2-2.1-2.1-4.2-2.8-6.6-.2-.7-.6-1.3-.9-1.9-.5-1.2-1-2.4-1.4-3.6-.2-.4-.2-.8.3-1 .5-.2 1-.2 1.2.3.4.7.8 1.4 1 2.1 1 2.9 2.5 5.5 4.2 8 1 1.6 2.1 3.2 3.2 4.8 1.9 3 4.2 5.7 6.9 8 1.7 1.4 3.3 2.9 4.9 4.4 2 1.9 4.2 3.4 6.4 4.9 2.6 1.8 5.5 3.2 8.3 4.7.5.3 1.1.6 1.6.9.2.1.4.3.6.4 1.4.6 2.9 1.1 4.3 1.6 1.7.7 3.4 1.4 5.2 2.1 1.5.6 3.1 1.1 4.7 1.6 2.8 1.1 5.6 2 8.1 3.6.2.1.3.2.5.3 3.8 1.5 6.6 4.4 9.5 7.1 1.1 1 2.1 2 3.1 3.1 1.7 1.8 3.4 3.6 5 5.4 2.2 2.5 4.3 5.1 5.9 8 1.5 2.7 2.7 5.6 3.6 8.5.3 1.1.8 2.1 1.1 3.2.4 1.5.7 3 1 4.5.3 1.9.7 3.8.9 5.7.3 2 .4 4.1.6 6.1.3 3.6.7 7.3.9 10.9.2 3.7.3 7.3 0 10.9-.1 2-.5 3.9-.6 5.9l-.3 6.9c-.1 2.4-.2 4.9-.1 7.4 0 2.4.1 4.8.7 7.2 0 .2.1.4.1.6.1 2.9 1 5.5 2.2 8.1.3.8.9 1.5 1.5 2.2 2.1 2.5 4.4 4.8 6.9 6.9.4.4.9.7 1.5 1 1.5.8 3 1.7 4.6 2.6 1.7 1.2 3.1 2.8 3.9 5z"/><path fill="none" stroke="#FFC107" stroke-miterlimit="10" d="M96.6 129.1c.5-.3.7-.5 1-.7.7-.5 1.3-1.1 1.5-2 0-.2.1-.4.2-.6.3-.5.7-.6 1-.1.7 1 1.4 2.1 2 3.2.4.7.7 1.4 1 2.1.3.8.5 1.6.8 2.3.2.5.3 1.1.5 1.6.4 1.9 1 3.7 1.2 5.5.4 2.6.6 5.2.6 7.8 0 4.2-.2 8.4-.8 12.6-.3 2.1-.4 4.2-.6 6.3-.2 2.3-.5 4.5-.6 6.8 0 3 .1 5.9.4 8.9.2 1.7.9 3.4 1.4 5.2.6 2.3 1.3 4.6 2 6.9.3.9.7 1.8 1 2.6 1.7 3.6 3.3 7.3 5.1 10.9 1 1.9 2.2 3.7 3.4 5.6.6.9 1.2 1.9 1.8 2.8.8 1.1 1.7 2.3 2.6 3.4 1.2 1.5 2.5 3 3.8 4.5 2.6 3 5.3 5.9 7.9 8.9.6.7 1.1 1.4 1.5 2.3.7 1.3 1.4 2.5 2.1 3.9 1.3 2.8 2.6 5.7 3.9 8.6 1 2.2 1.7 4.4 2.4 6.7 1.5 4.8 3 9.5 4.6 14.3.5 1.4 1.1 2.7 1.8 4 .6 1.3 1.3 2.5 1.9 3.7 1.4 2.9 3.5 5.2 6.1 7 2.5 1.8 5.1 3.1 7.9 4.4.9.4 1.7.9 2.5 1.3l1.8.9c1.5.7 3 1.3 4.4 2 1.1.5 2.3.8 3.5.8.8 0 1.6.1 2.4.3 1.5.2 3 .5 4.4.8.5.1 1 .1 1.4.2.6.1 1.2.1 1.6.8-.3.2-.5.4-.7.4-2.5.4-5.1.8-7.7.1-.6-.1-1.2-.3-1.7-.3-3.5-.4-6.6-1.7-9.8-3.3-3.1-1.6-6-3.3-8.6-5.5-.9-.7-1.7-1.5-2.5-2.2-1.9-2-3.8-4-5.5-6-1.4-1.7-2.8-3.4-3.8-5.4-.1-.1-.2-.3-.2-.4-1.9-2.5-2.9-5.4-3.9-8.4-.5-1.7-1.2-3.3-1.7-5-.3-1.1-.6-2.3-.8-3.4-.7-3.1-1.9-6.1-3.1-9.1-1.2-2.9-2.3-5.7-3.6-8.5-.7-1.5-1.7-2.9-2.6-4.3-2.1-3.2-4.4-6.2-6.8-9-1.4-1.6-2.9-3.1-4.4-4.7-.5-.6-1.1-1.1-1.6-1.8-1-1.4-2-2.9-3.1-4.2-1.4-1.8-2.2-3.8-3.3-5.8-.7-1.3-1.2-2.7-2-3.9-1.4-2.5-2.3-5.1-3.2-7.8-.9-2.9-2-5.8-2.9-8.7-.9-2.7-1.4-5.5-1.5-8.4l-.3-2.7c-.1-.6-.1-1.3-.1-1.9-.1-2.6-.2-5.2-.2-7.8 0-1.4.2-2.8.3-4.2.1-2.3.2-4.7.4-7 .1-1.4.3-2.8.4-4.3.1-2.9-.1-5.9-.8-8.7-.2-.7-.3-1.4-.5-2.1-.8-3-2.1-5.8-3.6-8.4-.8-1.3-1.4-2.5-2-3.8z"/><path fill="none" stroke="#FFC107" stroke-miterlimit="10" d="M159.9 220.1c-.4-.1-.7-.1-1-.3-2.1-1.1-4.3-2.1-6.4-3.3-2.1-1.3-4.2-2.6-6.3-4.1-1.7-1.3-3.1-3-4.1-4.8-.4-.7-.6-1.6-.5-2.4.2-1.9.2-3.8.4-5.7.2-1.5.4-3.1.6-4.6l.3-3.6c.1-1.2.3-2.3.5-3.5.2-1.4.5-2.8.7-4.2.1-.6.2-1.3.3-2 .4-2.2-.1-4.3-.1-6.5v-.8c.4-.3.6-.1.8.2 1.1 2 3 3.2 4.7 4.4 1 .7 1.8 1.7 2.3 2.9.1.2.1.4.2.5.8 1.7.9 3.4.5 5.2-.6 2.3-.9 4.7-.8 7.1 0 3.1.9 6 3.1 8.4.4.4.9.8 1.4 1.1 1.1.6 2 1.5 2.7 2.5.5.8.8 1.7.9 2.7.1 2.3.1 4.7-.1 7-.3 1-.1 2.3-.1 3.8zm66.8 10.7c-1.1.1-1.6-.5-2-1.3l-3.3-6.3c-.2-.4-.5-.8-.8-1.2-1.8-2.2-3.5-4.5-5.6-6.5-2.2-2.2-4-4.8-5.4-7.5-.7-1.3-1-2.9-1.1-4.4-.1-2.3-.3-4.5-.4-6.8-.1-1.8-.3-3.6-.4-5.4-.1-2.7-.8-5.2-1.4-7.8-.3-1.4-.7-2.7-1.4-4-.3-.6-.5-1.4-.7-2-.4-1.3-1-2.6-1.7-3.8-.6-1-1.2-2.1-1.6-3.2-1-3.5-3-6.4-5.1-9.3-1-1.4-2-2.7-2.6-4.4-.5-1.4-1.6-2.3-2.5-3.4-.3-.4-.7-.7-.9-1.2-.6-1.3-1.7-2.3-2.7-3.3-1.8-1.9-4.2-3.3-6.3-5-1-.8-2.3-1.3-3.5-2-.4-.2-.8-.5-1.2-.7-1-.7-1.9-1.5-2.9-2.3-1.2-1-2.4-1.9-3.5-2.8l-3.6-2.7c-1.3-1-2.6-2.1-3.8-3.2-1.7-1.4-3.5-2.8-5.2-4.3-.7-.6-1.4-1.3-2-2-.7-.8-1.5-1.5-2.1-2.3-.6-.7-1-1.5-1.4-2.3-.2-.3-.3-.8-.5-1-1.4-1.4-2.1-3.3-3.2-4.9-.3-.3-.4-.8-.7-1.1-1.8-2.1-2.7-4.6-3.8-7-.7-1.5-1.2-3.1-1.8-4.6-.5-1.4-1.1-2.8-1.4-4.2-.2-1-.2-2-.3-3-.1-1.4-.2-2.7-.2-4.1v-3.1c0-.6-.1-1.4.5-1.7.6-.3 1 .4 1.4.7.6.5.8 1.2.8 1.9-.2 1.7-.3 3.5-.4 5.2-.1 2.6.4 5.2 1.1 7.6.4 1.4 1.2 2.7 1.9 4 1.1 2.1 2.5 4.2 3.5 6.4 1.3 2.9 3.2 5.3 5.2 7.8.8 1 1.5 2.2 2.3 3.2 1.5 1.9 3.1 3.8 5 5.4 1.6 1.4 3.2 2.9 4.9 4.2 1.8 1.4 3.8 2.6 5.7 3.9 2.7 1.7 5.3 3.4 8 5.1 2.9 1.7 5.3 3.9 7.9 5.9 1.8 1.3 3.2 2.8 4.8 4.3 1.1 1.1 2 2.4 3 3.5 1.5 1.7 2.6 3.6 3.7 5.5.7 1.2 1.4 2.3 2.2 3.4 1.3 1.8 2.1 3.9 2.8 6 .2.6.5 1.1.7 1.6.5 1.3 1.1 2.5 1.5 3.8.5 1.6.9 3.2 1.2 4.8.7 3.4 1.2 6.9 1.8 10.3.1.4.1.8.1 1.2l.4 6.6c.1 1.7.2 3.4.4 5.1.2 1.3.4 2.6.9 3.8.7 2.2 1.5 4.3 2.8 6.3.7 1 1.4 1.9 2.3 2.8 2.1 2.1 3.9 4.5 5.8 6.7.9 1 1.9 2 2.6 3.1 1.1 1.6 2 3.4 2.5 5.4-.3.1-.3.3-.3.6z"/><path fill="none" stroke="#FFC107" stroke-miterlimit="10" d="M146 102.9c1.1.4 2 1 2.7 1.7.7.6 1.3 1 2.2.8.6-.1.9.4 1.2.8.5.9.9 1.7 1.4 2.6 1.7 2.9 3.7 5.6 6 8.1 1.4 1.5 3 2.9 4.6 4.3 1.5 1.3 2.9 2.6 4.5 3.9 2 1.6 4 3.2 6.1 4.5.6.4 1.2.9 1.9 1.2 2.3 1.1 4.6 2.2 7 3.3 1.3.6 2.6 1.3 3.9 1.8.9.4 1.8.7 2.8.9 2.5.6 4.3 1.9 5.3 4.3.5 1.4 1.1 2.7 1.5 4.1.3.9.4 1.9.6 2.8.3 2 .6 4.1.9 6.1 0 .1 0 .2-.1.5-.4-.3-.8-.6-1-.9-1.4-1.6-2.7-3.2-4.1-4.8-1.5-1.5-3-3.2-4.8-4.4-.9-.6-1.7-1.3-2.5-2l-3.6-2.7c-1.4-.9-2.8-1.9-4.2-2.7-2.3-1.5-4.7-2.9-7-4.4-1.7-1.1-3.2-2.3-4.9-3.4-3.1-2.1-5.6-5-8.3-7.7-1-1.1-1.9-2.3-2.8-3.6-1.6-2.2-3.5-4.3-4.8-6.8-.4-.8-.8-1.5-1.2-2.3l-2.1-3.9c-.5-.5-.9-1.2-1.2-2.1zm79.4 162.5c-.3-.5-.6-.8-.7-1.2-.2-1.2-.5-2.5-.6-3.7-.1-1.5-.1-2.9-.2-4.4-.1-3.4-.9-6.5-2-9.7-.7-1.9-1.7-3.8-2.9-5.4-.7-.9-1.1-2-1.7-3-.5-.9-1.1-1.8-1.6-2.6-.9-1.5-1.9-3.1-2.9-4.6-1-1.5-2-3-3.2-4.5-.9-1.1-1.9-2-2.9-3-.8-.8-1.8-1.6-2.6-2.4-1-1-2-2.2-2.8-3.3-1-1.3-2-2.7-2.9-4.1-1.4-2-2-4.3-2.3-6.7-.2-1.7-.5-3.5-.7-5.2-.1-.9-.1-1.7-.2-2.6-.1-3-.4-6-.4-9 0-1.1.2-2.3.5-3.4.5-1.7 1.2-3.3 1.7-4.9l1.5-4.2c.4-1.1.6-2.4.7-3.6 0-.2.1-.3.2-.6.2.2.5.3.6.4 1.1 1.5 1.4 3.2.9 5.1-.1.1-.1.2-.1.3-.1.8.1 1.7-.2 2.4-.3.7-.6 1.4-.6 2.2 0 .2-.1.4-.2.6-.8 1.9-1 3.8-1.2 5.8-.1.8-.4 1.6-.4 2.5-.1 1.8-.1 3.6-.2 5.5-.1 2.2.4 4.4.8 6.6.2 1 .6 2 .9 2.9.7 2.1 1.4 4.1 2.2 6.1.4.9 1 1.8 1.5 2.6 1 1.5 2.1 2.9 3.1 4.4.1.1.1.2.2.3 1.3 1.2 2.2 2.6 3.3 4 1.3 1.7 2.8 3.4 4.1 5.1 1.9 2.5 4 5 5.8 7.6 1.7 2.4 3.1 4.9 3.8 7.9.3 1.3.8 2.6 1 4 .4 2 .6 3.9.9 5.9.1.5.1 1 .2 1.5.3 2 .1 4 .1 6 .4.9.2 1.7-.5 2.4zm-90.2-57.6c-.5-.3-.9-.5-1.2-.8-1.9-1.6-3.7-3.5-5.2-5.5-1.6-2.2-3-4.5-4.2-7-1.1-2.5-1.7-5-2.1-7.7-.1-.5-.2-.9-.3-1.4-.7-2.6-1-5.4-.9-8.1 0-1.8.3-3.5.5-5.3.2-2 .4-4 .5-6 .1-3.1.1-6.2 0-9.2 0-2.5-.9-4.9-2.1-7.2-1.2-2.2-2.4-4.3-3.6-6.4-.7-1.3-1.4-2.7-2.1-4-.2-.4-.5-.7-.8-1-1.2-1.3-2-2.9-2.9-4.4-1.1-1.7-2.3-3.3-3.6-4.9-2.1-2.8-3.9-5.8-5-9.2-.6-1.8-1.4-3.5-2.1-5.2-.1-.2-.1-.3-.2-.5-.5-1.5-.3-2.1 1.3-2.5.6-.1 1.3.2 1.4.8.2 1.4.9 2.8.7 4.3 0 .3 0 .6.1 1 1 3 2.2 5.9 3.7 8.7.7 1.3 1.6 2.6 2.5 3.7.4.5.8 1.2 1.1 1.8.9 1.8 2.6 3 3.8 4.5l.8 1c.5.7 1.1 1.3 1.6 2 1.3 1.6 2.5 3.3 3.2 5.3l2.7 6.9c.7 1.7 1.2 3.3 1.4 5.1.6 4 .6 7.9.3 11.9-.2 2.7-.5 5.3-.7 7.9-.1 1.3 0 2.5.2 3.8.3 2.6.5 5.2 1.1 7.8 1.2 5.1 3.2 9.8 6.9 13.6.7.7 1.5 1.5 2.3 2.2 1.3.9 1.6 2.3.9 4zm8.1-39.8c-.5-1.5-.9-2.9-1.4-4.3-.8-2.6-1.5-5.2-2.4-7.7-.6-1.7-1.7-3.2-2.5-4.8-1.2-2.4-3.1-4.3-4.6-6.4-1.3-1.8-2.7-3.5-4-5.3-2.3-3.1-4.7-6.3-7-9.5-.2-.3-.3-.6-.6-1.1.4.1.6.2.7.3 1.6 1.5 3.5 2.1 5.5 2.6 1.9.5 3.8.8 5.4 2.1 1.8 1.4 2.8 3.2 3.3 5.4.2 1 .3 1.9.4 2.9.2 2 .4 3.9.6 5.9.1.8.6 1.6 1.3 2 1.7 1.1 3.3 2.1 5.1 3.1 1.3.8 2.2 1.8 2.4 3.4.3 2.5.4 4.9-.7 7.2-.4.9-.5 2-.7 3-.2.5-.2.5-.8 1.2zm-3.2-3.6c.3.3.6.5.6.7.6 2.3 1.5 4.7 1.7 7 .4 3.9.8 7.8.2 11.7-.3 1.8-.7 3.6-1 5.4-.2.8-.2 1.6-.3 2.4-.1 1.4-.1 2.8-.4 4.1-.5 2.9-.6 5.8-.8 8.7-.1 1.2-.2 2.3-.3 3.4-.1 1.4-.1 2.8-.1 4.3v.3c-.3 2.1 0 4.2.4 6.2.4 2.4 1.1 4.7 2.3 6.9.7 1.3 1.3 2.7 2.4 3.8.8.7 1.6 1.4 2.3 2.2 1.3 1.4 2.5 2.7 3.7 4.1.2.3.4.7.5 1-1.2 1.1-2.4 1.2-3.6.4-1.4-.9-2.4-2.2-3.2-3.6-1.3-2.1-2.6-4.2-3.6-6.4-.7-1.4-1.1-3-1.5-4.5-.5-1.6-.7-3.3-1.1-4.8-.6-2.2-.7-4.5-1.1-6.7-.1-.6.1-1.3.1-2-.1-3.2.2-6.4.8-9.5.3-1.6.2-3.2.5-4.7.2-1.5.6-2.9.8-4.3.2-1.4.3-2.9.5-4.3 0-.3.1-.5.2-.8.2-.9.4-1.7.5-2.6.2-2.1.5-4.3.5-6.5.1-2.2 0-4.4-.1-6.5-.1-1.5-.4-3-.6-4.5-.4-.3-.4-.5-.3-.9zm42.1 11.3c-.1-.1-.2-.3-.2-.4 0-1.3 0-2.5-.1-3.8 0-.5-.1-1.1-.2-1.7-.3-2.7-.5-5.4-1.1-8-.4-2-1.2-4-2.4-5.8-1.4-2-2.8-4-4.5-5.7-1.8-1.8-3.6-3.7-6-4.9-2.2-1.2-4.3-2.7-6.4-4-.5-.4-1-.9-1.5-1.3-.4-.3-.9-.7-1.4-.9-.5-.3-.8-.5-1-1.1-.1-.4-.5-.7-.7-1-.8-.9-1.7-1.8-2.6-2.7.4-.5.8-.4 1 0 1.7 2.2 4.3 3.2 6.6 4.5 1.4.7 2.8 1.6 4.1 2.4.8.4 1.6.9 2.5 1.2 2.6 1 4.6 2.8 6.5 4.8 2.2 2.4 4.2 5 5.9 7.7 1.2 2 1.8 4.3 2.3 6.6.2 1.2.5 2.3.4 3.5-.1 2.8-.3 5.5-.5 8.3-.1.8-.5 1.6-.7 2.3zm-25.3-73.6c.3.1.6.1.9.3 1.9 1 3.7 2.1 5.6 3.1.1.1.3.2.4.3 2.3 2.5 5.2 4.3 8 6.3 1.7 1.3 3.3 2.6 4.9 3.9.1.1.2.1.3.2 1.5.7 2.5 2.1 3.8 3 2.1 1.4 3.9 3.3 5.8 4.9 1.4 1.1 2.4 2.6 3.7 3.9.4.4.7.9 1 1.3l-.2.2c-.6-.2-1.1-.4-1.7-.6-1-.4-2.1-.8-3.1-1.2-.5-.2-.9-.6-1.3-.9-.5-.5-1-1.1-1.5-1.7-2.4-2.6-5.2-4.9-7.9-7.2-.6-.5-1.1-1-1.7-1.5-1.5-1.7-3.3-2.9-5.1-4.1L164 109c-.7-.5-1.6-.8-2.4-1.1-1.3-.5-2.2-1.5-2.8-2.6-.5-.8-1-1.5-1.4-2.3-.2-.3-.3-.5-.4-.8l-.1-.1z"/><path fill="none" stroke="#FFC107" stroke-miterlimit="10" d="M136.9 155.2l-1-1.4c-1.8-2.6-3.6-5.1-5.4-7.7-.7-1-1.7-1.9-2.5-2.9-1.7-1.8-3.4-3.6-5-5.4l-.3-.3c-1-1.9-2.7-3.2-4.3-4.6-1.2-1-2-2.4-2.9-3.6-.9-1.3-1.8-2.6-2.5-4-.6-1.4-1-2.9-1.4-4.4-.4-1.4-.8-2.9-1.2-4.3-.4-1.3-.9-2.5-1.4-3.8 1.8-.8 2.7-.3 3.1 1.6.3 1.3.7 2.6 1.2 3.8 1 2.3 2.2 4.7 3.3 7 .6 1.1 1.3 2.1 2 3.2 1.3 2 2.5 4 3.9 5.9 1.2 1.7 2.6 3.3 3.9 5 1.9 2.4 3.6 4.9 5.5 7.4 1 1.3 2.1 2.5 3 3.8.9 1.3 1.6 2.6 2.4 4 .1.2.1.4.1.7h-.5zm74.3 141.4c-1 .3-1.8-.1-2.6-.4-1.8-.7-3.1-1.9-4.3-3.4-1.4-1.7-2.7-3.6-3.7-5.6-1.2-2.4-1.9-4.8-2.3-7.5-.3-1.9-.5-3.7-.6-5.6 0-1.5-.5-2.9-.7-4.5-.2-1.6-.3-3.2-.7-4.7-.3-1.7-.9-3.3-1.2-4.9-.6-2.4-2-4.5-3-6.7-.5-1-1.3-2-2.1-2.9-.7-1-.7-1.3.6-1.9 1.3-.6 2-.4 2.6 1.1.6 1.4 1.1 2.8 1.6 4.2.9 2.6 1.5 5.2 2 7.9.3 1.4.3 2.9.7 4.3.6 2.3.9 4.7 1.2 7.1.2 2.3.7 4.5 1 6.8.7 4.6 2.8 8.7 5.9 12 .9 1 2.1 1.6 3.2 2.4 1.1.7 2 1.2 2.4 2.3zm-69.8-86.7c1 .1 1.5.8 1.9 1.4.8 1.2 1.8 2.1 3 2.9 1.4 1 2.7 2 4.2 2.8 2 1.2 4.1 2.1 6.2 3.2.9.4 1.8.9 2.6 1.3.5.3 1 .6 1.2 1.5-.4-.1-.8 0-1.1-.2-1-.4-2.1-.8-3.1-1.2-1.4-.6-2.9-1-4.3-1.7-1.6-.8-3.1-1.7-4.6-2.7-1.6-1.1-3.1-2.4-4.7-3.4-1.5-.9-1.6-2.3-1.3-3.9z"/><path fill="none" stroke="#FFC107" stroke-miterlimit="10" d="M119.2 125.4c-.9-.1-1.2-.7-1.4-1.3-.6-1.8-1.5-3.5-2.3-5.2-.7-1.5-1.2-3.2-1.7-4.8-.2-.5-.1-1.1-.2-1.6.9-.8 1.8-.3 2.6.1.5.3.9.7 1.3 1 .7.6 1.1 1.3 1.2 2.2 0 .7.3 1.5.4 2.2.1.8.2 1.5.2 2.2-.1 1.7-.1 3.4-.1 5.2zM137 91.1c-1.1-.9-2-2-3.2-2.8-1.3-.9-1.3-2.1-1.1-3.4.2-1.4 1.1-2.1 2.4-1.9 3 .4 2.6.8 2.6 2.9-.1 1.3-.1 2.7-.1 4 0 .4-.2.8-.3 1.2h-.3zm43.1 33.3c-.7-.4-1.5-.8-2.2-1.3-1.6-1.1-3.3-2.1-4.8-3.3-1.9-1.4-3.6-3.1-5.4-4.6-.4-.3-.8-.7-1.1-1.1l-4.5-4.2c-.1-.1-.2-.3-.2-.4.7-.2 1.1.2 1.4.5 1.4.9 2.7 2 4 2.9.1.1.2.1.3.2 2.7 1.5 4.7 3.9 7.1 5.8 1.5 1.2 2.8 2.6 4.3 4 .4.4 1 .8 1.4 1.2l-.3.3zm-36.7-34.9c.5.4.9.6 1.3.9.7.4 1.1 1 1.4 1.7l1.7 4.8c.1.4.2.8.2 1.2l-.3.2c-.4-.2-.7-.5-1-.7l-2.7-1.8c-.6-.4-1-.8-1-1.6-.1-1.3-.1-2.6-.1-3.9.2-.2.4-.5.5-.8zm7 14.6c-.8-.6-1.7-1.2-2.6-1.8-.4-.3-.8-.5-1.2-.8-.7-.5-1.5-1-2.2-1.5-.6-.5-.6-1.1-.4-1.9.8-.1 1.4.2 1.9.8.4.5 1 .8 1.6 1 1.1.4 1.9 1 2.2 2.3.1.6.6 1.2.9 1.8l-.2.1zm-17.5-14.2c.3.2.6.4.8.6 1.1 1 2.1 2.1 3.2 3 1 .8 1.1 1.6.9 2.8-.3-.1-.4-.1-.6-.3-1.2-1-2.5-2-3.7-3.1-1-1.1-1.1-1.6-.6-3zm53.6 95.8c-2.4-.6-5-5.7-4-7.9.2.4.5.7.6 1 .5 1.8 1.4 3.3 2.7 4.7.8 1 .8 1.2.7 2.2z"/><path fill="#FFC107" stroke="#FFC107" stroke-miterlimit="10" d="M87 109.3c-.9.4-1.5.4-2.2.3-1.2-.3-2.4-.6-3.3-1.4-.9-.7-1.8-1.4-2.4-2.4-.5-.8-.8-1.6-.4-2.5.8-.3 1.1.1 1.5.6.9.9 1.7 2 2.7 2.8 1 .8 2.2 1.4 3.3 2.1.2 0 .4.2.8.5zm6.8-15.5c.2-.7.6-.8 1.1-.7.4.1.9.2 1.2.5 1.8 1.2 3.1 2.6 4 4.6.1.2.1.4.1.7-.7.2-1.2.1-1.6-.4-.5-.5-.9-1.1-1.4-1.6-1.2-1.1-2.3-2.1-3.4-3.1zm17.5-2.8c-.7-.7-1.2-1.2-1.7-1.8-1.2-1.5-2.2-3.2-3.9-4.2-.4-.2-.4-.6-.3-.9.2-.5.5-.4.9-.3.3.1.6.2.9.4 2.1 1.4 3.6 3.2 4.1 5.8v1zm-20.2 13.1c-1 .4-1.9.3-2.7-.4-1.1-1-2.1-2-3.1-3.1-.3-.3-.9-.6-.5-1.2.3-.5.9-.5 1.4-.3.5.2 1 .5 1.3.9 1.2 1.4 2.4 2.8 3.6 4.1zm25.3-27.5c2.9 1.3 4.3 3.4 4.5 6.6-.7-.3-1.3-.8-1.6-1.5-.9-1.5-1.9-2.8-3.3-3.9-.1 0-.1-.1-.2-.3l.6-.9zm19.5-10.5c1.4-.1 2.3.8 3 1.8.8 1.1 1.4 2.5 1 4-.7 0-.9-.5-1-.9-.5-1.8-1.6-3.1-2.8-4.4-.1-.1-.1-.2-.2-.3-.1 0-.1-.1 0-.2zm-4 8.3c-1.2-1.1-2.3-2.1-3.4-3.2-.2-.2-.7-.3-.9-.6-.2-.1-.3-.5-.2-.7.1-.1.4-.2.7-.3.1 0 .2 0 .3.1 1.3.8 2.6 1.5 3.4 2.8.4.7.6 1.2.1 1.9z"/></svg>